<?xml version="1.0" standalone="no"?>
<!DOCTYPE svg PUBLIC "-//W3C//DTD SVG 1.1//EN" "http://www.w3.org/Graphics/SVG/1.1/DTD/svg11.dtd" >
<svg xmlns="http://www.w3.org/2000/svg" xmlns:xlink="http://www.w3.org/1999/xlink" version="1.1">
<metadata>
Created by FontForge 20170731 at Fri Jul 14 11:17:19 2023
 By Aleksey,,,
Copyright (c) 2021 by Connary Fagen. All rights reserved.
</metadata>
<defs>
<font id="VisbyCF-BoldOblique" horiz-adv-x="1292" >
  <font-face 
    font-family="Visby CF Bold"
    font-weight="700"
    font-style="oblique"
    font-stretch="normal"
    units-per-em="2048"
    panose-1="0 0 0 0 0 0 0 0 0 0"
    ascent="1638"
    descent="-410"
    x-height="1065"
    cap-height="1454"
    bbox="-504 -621 2290 2304"
    underline-thickness="102"
    underline-position="-358"
    slope="-6"
    unicode-range="U+0020-FB01"
  />
<missing-glyph horiz-adv-x="1075" 
d="M883 1638v-2150h-682v2150h682zM358 -365h359v72h-219l149 100h70v72h-359v-72h152l-152 -100v-72zM358 -72h359v244h-359v-244zM358 301h359v244h-215v-121h71v49h72v-100h-215v172h-72v-244zM358 592h359v215h-72v-143h-287v-72zM358 715h215v149h144v72h-359v-72h144
v-80h-144v-69zM358 993h359v74h-144v150h-215v-224zM358 1274h359v69h-144v80h144v72h-357v-72h142v-80h-144v-69zM430 0v100h215v-100h-215zM430 1067v78h72v-78h-72z" />
    <glyph glyph-name="fi" unicode="fi" horiz-adv-x="1220" 
d="M477 846l-90 -846h-274l88 846h-138l23 219h137l6 55q9 90 40.5 160t73 110t95 65.5t100.5 34.5t97 9q114 0 178 -41l-22 -215q-47 23 -115 23q-157 0 -172 -162l-4 -39h674l-111 -1065h-275l89 846h-400zM913 1212l25 242h276l-24 -242h-277z" />
    <glyph glyph-name="f_f" unicode="ff" horiz-adv-x="1462" 
d="M477 846l-90 -846h-274l88 846h-138l23 219h137l6 55q9 90 40.5 160t73 110t95 65.5t100.5 34.5t97 9q114 0 178 -41l-22 -215q-47 23 -115 23q-157 0 -172 -162l-4 -39h395l6 55q9 90 40.5 160t73 110t95 65.5t100.5 34.5t97 9q114 0 178 -41l-23 -215q-47 23 -114 23
q-157 0 -172 -162l-5 -39h273l-23 -219h-272l-90 -846h-275l88 846h-395z" />
    <glyph glyph-name=".notdef" horiz-adv-x="1075" 
d="M883 1638v-2150h-682v2150h682zM358 -365h359v72h-219l149 100h70v72h-359v-72h152l-152 -100v-72zM358 -72h359v244h-359v-244zM358 301h359v244h-215v-121h71v49h72v-100h-215v172h-72v-244zM358 592h359v215h-72v-143h-287v-72zM358 715h215v149h144v72h-359v-72h144
v-80h-144v-69zM358 993h359v74h-144v150h-215v-224zM358 1274h359v69h-144v80h144v72h-357v-72h142v-80h-144v-69zM430 0v100h215v-100h-215zM430 1067v78h72v-78h-72z" />
    <glyph glyph-name=".null" horiz-adv-x="0" 
 />
    <glyph glyph-name="nonmarkingreturn" horiz-adv-x="682" 
 />
    <glyph glyph-name="space" unicode=" " horiz-adv-x="460" 
 />
    <glyph glyph-name="space" unicode="&#xa0;" horiz-adv-x="460" 
 />
    <glyph glyph-name="exclam" unicode="!" horiz-adv-x="524" 
d="M111 459l106 995h283l-107 -995h-282zM66 137q0 69 45.5 113.5t111.5 44.5q65 0 110.5 -44.5t45.5 -113.5t-45.5 -113t-110.5 -44q-66 0 -111.5 44t-45.5 113z" />
    <glyph glyph-name="quotedbl" unicode="&#x22;" horiz-adv-x="702" 
d="M438 920l56 534h237l-53 -534h-240zM109 920l55 534h237l-53 -534h-239z" />
    <glyph glyph-name="numbersign" unicode="#" horiz-adv-x="1126" 
d="M37 0l65 369h-84l25 241h102l35 215h-112l24 240h133l66 369h280l-67 -369h155l66 369h281l-66 -369h94l-24 -240h-115l-35 -215h125l-24 -241h-144l-65 -369h-283l68 369h-154l-66 -369h-280zM426 610h154l34 215h-153z" />
    <glyph glyph-name="dollar" unicode="$" horiz-adv-x="915" 
d="M340 0l18 180q-132 19 -215.5 94.5t-95.5 198.5l223 64q14 -60 59 -102t120 -42q59 0 99 28t40 85q0 42 -25.5 67.5t-87.5 49.5l-117 45q-114 43 -169.5 116.5t-55.5 165.5q0 130 98.5 221.5t241.5 106.5l19 176h176l-19 -190q97 -28 160.5 -95t75.5 -157l-217 -62
q-39 111 -150 111q-55 0 -86 -24.5t-31 -69.5q0 -66 91 -101l126 -51q38 -14 69.5 -30t65 -42t56 -56t37 -74t14.5 -95q0 -136 -89.5 -225t-235.5 -113l-19 -180h-176z" />
    <glyph glyph-name="percent" unicode="%" horiz-adv-x="1431" 
d="M324 0l-211 139l1024 1319l209 -139zM143 1194q0 110 80.5 190t190.5 80q103 0 171 -66.5t68 -166.5q0 -110 -80 -190t-190 -80q-103 0 -171.5 66.5t-68.5 166.5zM324 1204q0 -29 19 -47t48 -18q35 0 58.5 24.5t23.5 57.5q0 29 -19 47t-48 18q-35 0 -58.5 -24.5
t-23.5 -57.5zM819 223q0 110 81.5 190.5t191.5 80.5q101 0 169 -67t68 -167q0 -110 -80 -190t-190 -80q-103 0 -171.5 66.5t-68.5 166.5zM1001 233q0 -29 19 -47t47 -18q35 0 58.5 24.5t23.5 57.5q0 29 -19 47t-47 18q-35 0 -58.5 -24.5t-23.5 -57.5z" />
    <glyph glyph-name="ampersand" unicode="&#x26;" horiz-adv-x="1435" 
d="M537 -20q-200 0 -330.5 119t-130.5 321q0 191 113.5 330t283.5 161l-201 543h813l-22 -227h-483l163 -490h-63q-143 0 -232.5 -72.5t-89.5 -201.5q0 -115 73 -178.5t183 -63.5q54 0 106 18t98.5 54.5t78.5 99t41 144.5l37 358h411l-22 -219h-154l-36 -336
q-5 -46 16.5 -77.5t73.5 -31.5q38 0 79 17l-22 -211q-20 -25 -62.5 -37t-84.5 -12q-101 0 -153.5 63t-41.5 168l2 10q-53 -107 -169.5 -178t-274.5 -71z" />
    <glyph glyph-name="quotesingle" unicode="'" horiz-adv-x="372" 
d="M109 920l55 534h237l-53 -534h-239z" />
    <glyph glyph-name="parenleft" unicode="(" horiz-adv-x="679" 
d="M172 -262q-179 393 -121 930q51 499 305 862l273 -8q-245 -376 -303 -879q-51 -522 108 -913z" />
    <glyph glyph-name="parenright" unicode=")" horiz-adv-x="681" 
d="M-47 -262q253 404 307 930q52 484 -113 862l263 -8q183 -368 127 -879q-54 -524 -312 -913z" />
    <glyph glyph-name="asterisk" unicode="*" horiz-adv-x="1071" 
d="M385 762l-192 123l155 180l-188 53l76 234l215 -64l18 230h225l-24 -230l219 64l35 -234l-203 -53l119 -180l-211 -123l-103 172z" />
    <glyph glyph-name="plus" unicode="+" horiz-adv-x="868" 
d="M315 233l27 256h-252l16 173h256l27 256h172l-26 -256h256l-17 -173h-260l-27 -256h-172z" />
    <glyph glyph-name="comma" unicode="," horiz-adv-x="530" 
d="M-39 -272l246 534h239l-247 -534h-238z" />
    <glyph glyph-name="hyphen" unicode="-" horiz-adv-x="821" 
d="M35 449l22 229h635l-22 -229h-635z" />
    <glyph glyph-name="period" unicode="." horiz-adv-x="452" 
d="M186 -20q-66 0 -111.5 44t-45.5 113t45.5 113.5t111.5 44.5q65 0 110.5 -44.5t45.5 -113.5t-45.5 -113t-110.5 -44z" />
    <glyph glyph-name="slash" unicode="/" horiz-adv-x="1038" 
d="M39 0l760 1536h293l-760 -1536h-293z" />
    <glyph glyph-name="zero" unicode="0" horiz-adv-x="1650" 
d="M774 -20q-142 0 -266 48.5t-214 135t-142 213.5t-52 276q0 170 64.5 323t173.5 262t258.5 173t312.5 64q191 0 345.5 -83.5t244.5 -238.5t90 -354q0 -170 -65.5 -322.5t-176 -261t-260.5 -172t-313 -63.5zM383 676q0 -192 117 -317.5t293 -125.5q94 0 185.5 39t164 107
t117.5 172t45 223q0 195 -118 321t-294 126q-95 0 -186.5 -39.5t-163.5 -108.5t-116 -173t-44 -224z" />
    <glyph glyph-name="one" unicode="1" horiz-adv-x="776" 
d="M289 0l129 1214h-238l25 240h518l-154 -1454h-280z" />
    <glyph glyph-name="two" unicode="2" horiz-adv-x="1128" 
d="M535 612q141 161 176 207q96 128 96 228q0 49 -17 84.5t-45.5 53.5t-57 26t-58.5 8q-35 0 -68.5 -11.5t-65 -35.5t-53.5 -69t-28 -104l-4 -36h-279l6 61q9 92 48.5 173.5t105 143.5t162.5 98t213 36q206 0 322 -103.5t116 -267.5q0 -72 -21.5 -139.5t-65.5 -133
t-82.5 -112t-99.5 -113.5q-16 -17 -24 -26l-293 -336h498l-27 -244h-981z" />
    <glyph glyph-name="three" unicode="3" horiz-adv-x="1185" 
d="M522 -20q-186 0 -311 89.5t-162 231.5l217 123q28 -99 100 -151t166 -52q124 0 209.5 83.5t85.5 205.5q0 144 -114 208t-281 5l309 491h-518l27 240h911l-360 -543q130 -23 218.5 -130t88.5 -269q0 -112 -46.5 -211.5t-125 -169.5t-186.5 -110.5t-228 -40.5z" />
    <glyph glyph-name="four" unicode="4" horiz-adv-x="1206" 
d="M647 0l35 326h-616l20 241l711 887h284l-94 -887h154l-25 -241h-153l-35 -326h-281zM377 567h330l57 514z" />
    <glyph glyph-name="five" unicode="5" horiz-adv-x="1173" 
d="M492 -20q-174 0 -295.5 83t-159.5 216l225 116q16 -64 82.5 -117t169.5 -53q125 0 205 80.5t80 202.5q0 111 -68 176.5t-170 65.5q-87 0 -149 -39t-95 -84l-202 94l172 733h739l-27 -240h-524l-78 -317q8 12 36 29t87 34t125 17q117 0 212 -49t154.5 -149.5t59.5 -237.5
q0 -241 -165 -401t-414 -160z" />
    <glyph glyph-name="six" unicode="6" horiz-adv-x="1128" 
d="M530 -20q-198 0 -331 123.5t-133 324.5q0 75 18 143t58.5 135.5t74 113t94.5 120.5q6 7 9.5 11t8.5 10.5t9 11.5l383 481h313l-461 -565q46 4 60 4q172 0 291.5 -117.5t119.5 -304.5q0 -141 -73 -255t-190 -175t-251 -61zM326 420q0 -91 60 -147t151 -56
q106 0 175.5 71.5t69.5 172.5q0 91 -60 147t-151 56q-106 0 -175.5 -71.5t-69.5 -172.5z" />
    <glyph glyph-name="seven" unicode="7" horiz-adv-x="1062" 
d="M74 0l628 1214h-571l27 240h940l-748 -1454h-276z" />
    <glyph glyph-name="eight" unicode="8" horiz-adv-x="1165" 
d="M537 -20q-94 0 -180 29t-152 81.5t-105 133t-39 177.5q0 139 76.5 250t200.5 168q-54 39 -85.5 105t-31.5 147q0 80 32.5 153.5t90 129t143 88.5t185.5 33q177 0 283 -100.5t106 -248.5q0 -98 -47 -181t-131 -134q94 -42 147 -131.5t53 -210.5q0 -110 -47 -204
t-124.5 -155.5t-175 -95.5t-199.5 -34zM340 434q0 -95 61 -151t154 -56q103 0 175.5 68.5t72.5 169.5q0 95 -62.5 150t-156.5 55q-102 0 -173 -68t-71 -168zM473 1061q0 -67 43.5 -108.5t110.5 -41.5q76 0 125 49.5t49 122.5q0 68 -43 109t-109 41q-77 0 -126.5 -49.5
t-49.5 -122.5z" />
    <glyph glyph-name="nine" unicode="9" horiz-adv-x="1128" 
d="M639 1475q198 0 331.5 -124t133.5 -325q0 -75 -18.5 -143.5t-57 -133t-75 -114t-93.5 -119.5q-19 -23 -29 -35l-382 -481h-314l461 565q-46 -4 -59 -4q-172 0 -292 117.5t-120 304.5q0 141 72.5 255t190 175.5t251.5 61.5zM387 993q0 -91 60 -146.5t151 -55.5
q106 0 176 71t70 172q0 91 -60 147t-151 56q-106 0 -176 -71.5t-70 -172.5z" />
    <glyph glyph-name="colon" unicode=":" horiz-adv-x="468" 
d="M289 748q-66 0 -112 44t-46 113t46 113.5t112 44.5q64 0 109.5 -44.5t45.5 -113.5t-45 -113t-110 -44zM49 137q0 69 46 113.5t112 44.5q64 0 109.5 -44.5t45.5 -113.5t-45 -113t-110 -44q-66 0 -112 44t-46 113z" />
    <glyph glyph-name="semicolon" unicode=";" horiz-adv-x="552" 
d="M-39 -272l246 534h239l-247 -534h-238zM215 905q0 69 46 113.5t112 44.5q64 0 109.5 -44.5t45.5 -113.5t-45 -113t-110 -44q-66 0 -112 44t-46 113z" />
    <glyph glyph-name="less" unicode="&#x3c;" horiz-adv-x="1017" 
d="M891 0l-813 399l20 187l895 399l-28 -260l-545 -233l500 -230z" />
    <glyph glyph-name="equal" unicode="=" horiz-adv-x="872" 
d="M63 276l25 230h688l-24 -230h-689zM100 621l25 229h686l-25 -229h-686z" />
    <glyph glyph-name="greater" unicode="&#x3e;" horiz-adv-x="1017" 
d="M119 985l813 -399l-21 -187l-895 -399l29 260l545 234l-500 229z" />
    <glyph glyph-name="question" unicode="?" horiz-adv-x="1083" 
d="M436 510q4 64 25 117t52 89t67.5 67.5t73 58.5t67.5 54t53 61.5t27 74.5q4 33 -3.5 66.5t-27.5 65t-61 51.5t-97 20q-61 0 -107 -23t-71 -60.5t-38 -75t-17 -77.5h-273q5 150 75.5 259t185.5 163t260 54q214 0 342 -118.5t110 -314.5q-6 -63 -28 -113t-52.5 -83.5
t-66 -62.5t-71 -56t-65 -57t-50 -72.5t-25.5 -95.5l-4 -53h-285zM401 137q0 69 46 113.5t112 44.5q65 0 110.5 -44.5t45.5 -113.5t-45.5 -113t-110.5 -44q-66 0 -112 44t-46 113z" />
    <glyph glyph-name="at" unicode="@" horiz-adv-x="1630" 
d="M778 -20q-142 0 -266 47.5t-215.5 133t-144 213t-52.5 279.5q0 172 68.5 326t182 262t265.5 171t314 63q179 0 324.5 -74t233 -219t87.5 -336q0 -134 -40.5 -244.5t-124 -179t-196.5 -68.5q-54 0 -95.5 17.5t-63 44t-31.5 51.5t-10 47q-18 -47 -96 -102.5t-175 -55.5
q-110 0 -186 81.5t-76 236.5q0 113 41 207t116.5 150t170.5 56q52 0 93.5 -17.5t61 -38t34.5 -38t20 -18.5l26 98h148l-43 -414q-6 -47 12 -76.5t56 -29.5q32 0 55 23.5t34 63.5t16 81.5t5 87.5q0 216 -116.5 330t-309.5 114q-157 0 -285 -75.5t-201 -209.5t-73 -300
q0 -217 129.5 -342t333.5 -125q156 0 311 75l-26 -231q-143 -65 -312 -65zM707 707q0 -62 29.5 -101t78.5 -39q61 0 97 51t36 125q0 62 -27 98t-79 36q-61 0 -98 -48.5t-37 -121.5z" />
    <glyph glyph-name="A" unicode="A" horiz-adv-x="1462" 
d="M977 1454l397 -1454h-305l-65 262h-603l-122 -262h-304l705 1454h297zM520 520h418l-145 584z" />
    <glyph glyph-name="B" unicode="B" horiz-adv-x="1189" 
d="M49 0l152 1454h532q170 0 268.5 -88.5t98.5 -228.5q0 -118 -66.5 -204t-159.5 -122q107 -29 175.5 -116.5t68.5 -229.5q0 -205 -145.5 -335t-403.5 -130h-520zM354 246h224q132 0 198 63.5t66 167.5q0 93 -56 144t-168 51h-219zM422 889h194q101 0 154 49t53 129
q0 141 -174 141h-194z" />
    <glyph glyph-name="C" unicode="C" horiz-adv-x="1478" 
d="M782 -20q-142 0 -267 47.5t-217 133t-145 213t-53 279.5q0 170 66.5 323t178 262t263 173t316.5 64q79 0 153.5 -15.5t150.5 -49.5t142.5 -98.5t112.5 -152.5l-215 -143q-125 192 -361 192q-218 0 -369 -149.5t-151 -370.5q0 -201 122.5 -321.5t307.5 -120.5
q225 0 389 192l185 -143q-85 -117 -194.5 -190t-208.5 -99t-206 -26z" />
    <glyph glyph-name="D" unicode="D" horiz-adv-x="1394" 
d="M49 0l152 1454h512q138 0 257.5 -50t204 -138t133 -213.5t48.5 -272.5q0 -163 -61.5 -308.5t-166.5 -248.5t-250 -163t-305 -60h-524zM356 264h222q221 0 353 144t132 364q0 189 -101.5 303.5t-287.5 114.5h-221z" />
    <glyph glyph-name="E" unicode="E" horiz-adv-x="1017" 
d="M49 0l152 1454h823l-25 -258h-544l-35 -338h454l-26 -254h-455l-37 -346h559l-24 -258h-842z" />
    <glyph glyph-name="F" unicode="F" horiz-adv-x="993" 
d="M49 0l152 1454h817l-27 -256h-536l-37 -348h500l-25 -240h-500l-63 -610h-281z" />
    <glyph glyph-name="G" unicode="G" horiz-adv-x="1585" 
d="M776 -20q-140 0 -263.5 47t-215 132.5t-144.5 212.5t-53 279q0 226 110 416t298 299t410 109q63 0 122.5 -9t123.5 -31.5t119.5 -57.5t107 -91t88.5 -127l-215 -143q-115 194 -359 194q-144 0 -263 -70t-187 -191t-68 -267q0 -198 121.5 -321t310.5 -123q143 0 252 75
t156 234h-353l23 235h623q4 -147 -33.5 -276t-107.5 -224.5t-164.5 -164t-206.5 -103t-232 -34.5z" />
    <glyph glyph-name="H" unicode="H" horiz-adv-x="1368" 
d="M928 0l61 586h-600l-61 -586h-281l154 1454h280l-63 -610h600l63 610h281l-154 -1454h-280z" />
    <glyph glyph-name="I" unicode="I" horiz-adv-x="489" 
d="M49 0l154 1454h278l-151 -1454h-281z" />
    <glyph glyph-name="J" unicode="J" horiz-adv-x="1060" 
d="M428 -20q-145 0 -256.5 59.5t-165.5 159.5l201 182q33 -55 89 -93t134 -38q27 0 52.5 4.5t59 21t59 44t47 79t28.5 119.5l98 936h281l-105 -973q-11 -109 -46.5 -196t-86 -143t-115.5 -93.5t-132.5 -53t-141.5 -15.5z" />
    <glyph glyph-name="K" unicode="K" horiz-adv-x="1323" 
d="M49 0l152 1454h280l-71 -692l598 692h315l-582 -655l496 -799h-297l-379 596l-192 -217l-39 -379h-281z" />
    <glyph glyph-name="L" unicode="L" horiz-adv-x="1013" 
d="M49 0l154 1454h278l-125 -1196h566l-27 -258h-846z" />
    <glyph glyph-name="M" unicode="M" horiz-adv-x="1722" 
d="M49 0l154 1454h278l367 -1073l584 1073h284l-153 -1454h-281l86 836l-434 -836h-242l-274 831l-88 -831h-281z" />
    <glyph glyph-name="N" unicode="N" horiz-adv-x="1447" 
d="M49 0l152 1454h284l559 -993h13l102 993h281l-152 -1454h-284l-560 993h-12l-102 -993h-281z" />
    <glyph glyph-name="O" unicode="O" horiz-adv-x="1671" 
d="M784 -20q-144 0 -269.5 47.5t-217 133t-144.5 212.5t-53 278q0 170 66.5 323.5t178.5 263t265 173.5t320 64q192 0 346.5 -81t246 -235.5t91.5 -355.5q0 -170 -67 -323.5t-179.5 -262.5t-265 -173t-318.5 -64zM387 678q0 -196 120 -314t304 -118q140 0 258 69.5
t187 191.5t69 269q0 196 -119.5 314t-304.5 118q-140 0 -258 -69.5t-187 -191.5t-69 -269z" />
    <glyph glyph-name="P" unicode="P" horiz-adv-x="1200" 
d="M47 0l154 1454h514q219 0 345 -120.5t124 -327.5q0 -236 -160.5 -387.5t-411.5 -151.5h-235l-49 -467h-281zM406 725h206q130 0 208.5 62t78.5 190q1 114 -60.5 166.5t-174.5 52.5h-209z" />
    <glyph glyph-name="Q" unicode="Q" horiz-adv-x="1671" 
d="M1212 0l-47 72q-179 -92 -381 -92q-144 0 -269.5 47.5t-217 133t-144.5 212.5t-53 278q0 170 66.5 323.5t178.5 263t265 173.5t320 64q192 0 346.5 -81t246 -235.5t91.5 -355.5q0 -165 -62.5 -314t-173.5 -262l154 -227h-320zM387 678q0 -196 120 -314t304 -118
q107 0 207 43l-238 352h320l123 -184q102 136 102 319q0 196 -119.5 314t-304.5 118q-140 0 -258 -69.5t-187 -191.5t-69 -269z" />
    <glyph glyph-name="R" unicode="R" horiz-adv-x="1261" 
d="M49 0l152 1454h510q215 0 341 -119.5t126 -320.5q0 -164 -85.5 -292t-232.5 -192l285 -530h-299l-248 481h-217l-51 -481h-281zM406 725h198q127 0 208 71t81 197q0 203 -236 203h-202z" />
    <glyph glyph-name="S" unicode="S" horiz-adv-x="1128" 
d="M526 -20q-190 0 -327.5 103t-163.5 269l237 105q23 -99 92 -160t179 -61q98 0 162.5 47.5t64.5 140.5q0 73 -45.5 118.5t-151.5 88.5l-79 33q-74 31 -130 65t-103 81t-72 109t-25 138q0 186 138 302t341 116q92 0 171 -26t134 -70.5t92 -98t56 -113.5l-224 -116
q-76 174 -237 174q-84 0 -138.5 -44t-54.5 -114q0 -57 45 -101.5t148 -86.5l90 -37q175 -71 256.5 -164.5t81.5 -237.5q0 -89 -31.5 -165.5t-84 -129.5t-122 -91t-145.5 -56t-154 -18z" />
    <glyph glyph-name="T" unicode="T" horiz-adv-x="1079" 
d="M342 0l125 1196h-344l29 258h972l-28 -258h-348l-125 -1196h-281z" />
    <glyph glyph-name="U" unicode="U" horiz-adv-x="1308" 
d="M606 -31q-115 0 -213 38.5t-167 108t-102.5 175.5t-19.5 233l99 930h280l-98 -940q-8 -75 10.5 -131.5t56 -88t83 -46.5t96.5 -15t97 15t87.5 47.5t70 91t36.5 137.5l98 930h280l-98 -938q-18 -170 -104.5 -296t-214 -188.5t-277.5 -62.5z" />
    <glyph glyph-name="V" unicode="V" horiz-adv-x="1462" 
d="M526 0l-399 1454h305l279 -1104l512 1104h303l-703 -1454h-297z" />
    <glyph glyph-name="W" unicode="W" horiz-adv-x="2070" 
d="M428 0l-301 1454h297l186 -969l410 969h223l209 -969l387 969h295l-606 -1454h-221l-228 979l-428 -979h-223z" />
    <glyph glyph-name="X" unicode="X" horiz-adv-x="1370" 
d="M-25 0l570 737l-402 717h326l260 -473l361 473h335l-551 -717l410 -737h-326l-270 494l-375 -494h-338z" />
    <glyph glyph-name="Y" unicode="Y" horiz-adv-x="1419" 
d="M508 0l65 580l-434 874h307l289 -620l412 620h326l-619 -874l-66 -580h-280z" />
    <glyph glyph-name="Z" unicode="Z" horiz-adv-x="1218" 
d="M-14 0l817 1196h-658l25 258h1102l-817 -1196h671l-24 -258h-1116z" />
    <glyph glyph-name="bracketleft" unicode="[" horiz-adv-x="620" 
d="M-47 -266l188 1792h437l-27 -240h-154l-137 -1313h154l-25 -239h-436z" />
    <glyph glyph-name="backslash" unicode="\" horiz-adv-x="1021" 
d="M594 0l-434 1536h280l434 -1536h-280z" />
    <glyph glyph-name="bracketright" unicode="]" horiz-adv-x="618" 
d="M-47 -266l24 239h156l137 1313h-155l26 240h434l-188 -1792h-434z" />
    <glyph glyph-name="asciicircum" unicode="^" horiz-adv-x="1019" 
d="M139 973l389 461h152l295 -461h-240l-151 241l-205 -241h-240z" />
    <glyph glyph-name="underscore" unicode="_" horiz-adv-x="1208" 
d="M-47 -242l27 242h1024l-27 -242h-1024z" />
    <glyph glyph-name="grave" unicode="`" horiz-adv-x="481" 
d="M307 1194l-184 322h227l180 -322h-223z" />
    <glyph glyph-name="a" unicode="a" 
d="M508 -20q-89 0 -170 32t-145.5 91.5t-103 155.5t-38.5 214q0 167 73 307.5t201.5 222.5t284.5 82q132 0 219 -53t111 -110h12l17 143h274l-110 -1065h-277l16 143h-12q-31 -55 -129.5 -109t-222.5 -54zM326 496q0 -70 23 -124t61 -85t84 -46.5t96 -15.5q62 0 120.5 23
t106 65.5t76.5 109t29 146.5q0 70 -23 124t-62.5 85t-85 46.5t-96.5 15.5q-83 0 -157 -39t-123 -119t-49 -186z" />
    <glyph glyph-name="b" unicode="b" horiz-adv-x="1288" 
d="M694 -20q-131 0 -223.5 53.5t-120.5 109.5h-10l-16 -143h-275l152 1454h274l-57 -532h12q37 57 136 110t225 53q88 0 167.5 -31t143 -89.5t101.5 -153t38 -211.5q0 -126 -42.5 -240t-115 -197.5t-174 -133t-215.5 -49.5zM371 492q0 -131 76 -199t184 -68q61 0 119.5 22
t107.5 64t79 110t30 152q0 131 -76 199t-184 68q-61 0 -119.5 -22t-107.5 -64t-79 -110t-30 -152z" />
    <glyph glyph-name="c" unicode="c" horiz-adv-x="1128" 
d="M569 -20q-103 0 -195.5 32t-165 92.5t-115 156.5t-42.5 214q0 172 83.5 313t223 219t304.5 78q150 0 267.5 -67.5t176.5 -194.5l-215 -129q-35 65 -99.5 104.5t-146.5 39.5q-130 0 -225.5 -91.5t-95.5 -240.5q0 -127 76.5 -203t189.5 -76q81 0 150.5 39.5t115.5 104.5
l188 -129q-175 -262 -475 -262z" />
    <glyph glyph-name="d" unicode="d" 
d="M508 -20q-89 0 -170 32t-145.5 91.5t-103 155.5t-38.5 214q0 167 73 307.5t201.5 222.5t284.5 82q132 0 219 -53t111 -110h12l58 532h274l-151 -1454h-277l16 143h-12q-31 -55 -129.5 -109t-222.5 -54zM326 496q0 -70 23 -124t61 -85t84 -46.5t96 -15.5q62 0 120.5 23
t106 65.5t76.5 109t29 146.5q0 70 -23 124t-62.5 85t-85 46.5t-96.5 15.5q-83 0 -157 -39t-123 -119t-49 -186z" />
    <glyph glyph-name="e" unicode="e" horiz-adv-x="1169" 
d="M561 -20q-103 0 -194.5 33t-162.5 95t-112 159.5t-41 217.5q0 167 79 305t214 216.5t295 78.5q85 0 163.5 -24t147.5 -74.5t112 -128.5t56.5 -185.5t-18.5 -246.5h-797q21 -108 103 -164.5t202 -56.5q158 0 283 96l108 -133q-80 -87 -192.5 -137.5t-245.5 -50.5zM315 627
h562q-4 111 -78 169t-181 58q-111 0 -190.5 -62t-112.5 -165z" />
    <glyph glyph-name="f" unicode="f" horiz-adv-x="790" 
d="M229 1120q9 90 40.5 160t73 110t95 65.5t100.5 34.5t97 9q114 0 178 -41l-22 -215q-47 23 -115 23q-157 0 -172 -162l-4 -39h272l-22 -219h-273l-90 -846h-274l88 846h-138l23 219h137z" />
    <glyph glyph-name="g" unicode="g" 
d="M526 -426q-94 0 -177.5 18t-127.5 48l25 223q36 -26 108 -43t152 -17q152 0 249 68.5t109 189.5l8 82h-12q-31 -54 -129.5 -108.5t-222.5 -54.5q-87 0 -167.5 31.5t-146 90.5t-104.5 154t-39 211q0 133 45 249t120.5 196.5t177 126.5t212.5 46q130 0 220 -53.5
t114 -109.5h12l17 143h274l-102 -985q-12 -117 -58 -208.5t-107.5 -146.5t-142 -90t-155 -48t-152.5 -13zM326 498q0 -130 75 -201.5t189 -71.5q138 0 235 97.5t97 244.5q0 130 -76 201.5t-191 71.5q-137 0 -233 -99t-96 -243z" />
    <glyph glyph-name="h" unicode="h" horiz-adv-x="1212" 
d="M49 0l154 1454h276l-57 -528q120 159 336 159q176 0 279.5 -114.5t80.5 -343.5l-65 -627h-275l60 582q14 118 -41.5 188t-163.5 70t-172 -69t-76 -189l-61 -582h-275z" />
    <glyph glyph-name="i" unicode="i" horiz-adv-x="481" 
d="M49 0l111 1065h274l-110 -1065h-275zM174 1212l25 242h276l-24 -242h-277z" />
    <glyph glyph-name="j" unicode="j" horiz-adv-x="487" 
d="M-283 -395l29 254h59q60 0 101 9.5t75 35t54 72.5t28 120l101 969h276l-104 -995q-27 -246 -158.5 -355.5t-386.5 -109.5h-74zM180 1212l25 242h276l-24 -242h-277z" />
    <glyph glyph-name="k" unicode="k" horiz-adv-x="1183" 
d="M49 0l152 1454h274l-90 -870l446 481h336l-477 -494l408 -571h-310l-274 389l-168 -174l-22 -215h-275z" />
    <glyph glyph-name="l" unicode="l" horiz-adv-x="483" 
d="M49 0l152 1454h274l-151 -1454h-275z" />
    <glyph glyph-name="m" unicode="m" horiz-adv-x="1839" 
d="M727 0l61 606q12 113 -35.5 173.5t-142.5 60.5q-94 0 -152.5 -60.5t-70.5 -173.5l-63 -606h-275l111 1065h274l-14 -133q110 153 309 153q221 0 303 -180q57 81 148 130.5t213 49.5q88 0 157 -27.5t118 -83t70 -146.5t9 -210l-66 -618h-276l63 606q12 112 -36 173
t-142 61q-95 0 -154 -60.5t-71 -173.5l-64 -606h-274z" />
    <glyph glyph-name="n" unicode="n" horiz-adv-x="1212" 
d="M49 0l111 1065h274l-14 -141q119 161 338 161q176 0 279.5 -114.5t80.5 -343.5l-65 -627h-275l60 582q12 118 -42.5 188t-162.5 70t-172 -69t-76 -189l-61 -582h-275z" />
    <glyph glyph-name="o" unicode="o" horiz-adv-x="1220" 
d="M563 -20q-90 0 -178.5 32t-164 92t-122.5 159t-47 220q0 168 83 307t222 217t303 78q71 0 142.5 -19.5t138 -61t117.5 -99.5t81.5 -142.5t30.5 -182.5q0 -167 -83 -305.5t-221.5 -216.5t-301.5 -78zM319 492q0 -126 78.5 -197.5t180.5 -71.5q131 0 228 94.5t97 253.5
q0 66 -23 119t-61 85.5t-83.5 49.5t-92.5 17q-130 0 -227 -95t-97 -255z" />
    <glyph glyph-name="p" unicode="p" horiz-adv-x="1288" 
d="M8 -389l152 1454h274l-16 -143h12q37 57 136 110t225 53q88 0 167.5 -31t143 -89.5t101.5 -153t38 -211.5q0 -126 -42.5 -240t-115 -197.5t-174 -133t-215.5 -49.5q-131 0 -223.5 53.5t-120.5 109.5h-10l-57 -532h-275zM371 492q0 -131 76 -199t184 -68q61 0 119.5 22
t107.5 64t79 110t30 152q0 131 -76 199t-184 68q-61 0 -119.5 -22t-107.5 -64t-79 -110t-30 -152z" />
    <glyph glyph-name="q" unicode="q" horiz-adv-x="1294" 
d="M815 -389l41 389l16 143h-12q-31 -55 -129.5 -109t-222.5 -54q-89 0 -170 32t-145.5 91.5t-103 155.5t-38.5 214q0 167 73 307.5t201.5 222.5t284.5 82q132 0 219 -53t111 -110h12l17 143h274l-149 -1454h-279zM326 496q0 -70 23 -124t61 -85t84 -46.5t96 -15.5
q62 0 120.5 23t106 65.5t76.5 109t29 146.5q0 70 -23 124t-62.5 85t-85 46.5t-96.5 15.5q-83 0 -157 -39t-123 -119t-49 -186z" />
    <glyph glyph-name="r" unicode="r" horiz-adv-x="835" 
d="M49 0l111 1065h274l-28 -281q43 136 133 218.5t229 82.5q44 0 74 -12l-29 -258q-30 6 -76 6q-147 0 -242 -87.5t-120 -237.5l-51 -496h-275z" />
    <glyph glyph-name="s" unicode="s" horiz-adv-x="905" 
d="M414 -20q-165 0 -275 78.5t-123 220.5l224 63q14 -60 58.5 -101.5t119.5 -41.5q59 0 99 27.5t40 84.5q0 42 -25.5 67.5t-87.5 49.5l-116 45q-114 43 -170 117t-56 166q0 143 116 236t278 93q142 0 241.5 -74.5t116.5 -193.5l-217 -61q-39 110 -150 110q-55 0 -85.5 -24.5
t-30.5 -69.5q0 -33 20 -57t70 -43l127 -51q49 -18 87 -40t75.5 -56.5t58 -85.5t20.5 -115q0 -157 -117.5 -250.5t-297.5 -93.5z" />
    <glyph glyph-name="t" unicode="t" horiz-adv-x="763" 
d="M459 -12q-143 0 -219 75t-60 232l58 551h-154l22 219h154l29 272h276l-28 -272h219l-23 -219h-219l-53 -506q-5 -46 21 -77.5t89 -31.5q43 0 101 17l-23 -211q-54 -49 -190 -49z" />
    <glyph glyph-name="u" unicode="u" horiz-adv-x="1212" 
d="M1163 1065l-110 -1065h-275l15 141q-119 -161 -338 -161q-84 0 -153 26.5t-121 80t-75.5 143.5t-11.5 208l66 627h274l-59 -582q-12 -118 42.5 -188t162.5 -70t171.5 69t75.5 189l62 582h274z" />
    <glyph glyph-name="v" unicode="v" horiz-adv-x="1216" 
d="M424 0l-338 1065h283l215 -737l368 737h287l-559 -1065h-256z" />
    <glyph glyph-name="w" unicode="w" horiz-adv-x="1880" 
d="M1149 0l-191 715l-337 -715h-254l-281 1065h274l168 -737l336 737h258l185 -737l319 737h277l-502 -1065h-252z" />
    <glyph glyph-name="x" unicode="x" horiz-adv-x="1173" 
d="M-35 0l469 545l-313 520h307l182 -320l248 320h322l-430 -520l346 -545h-310l-208 346l-287 -346h-326z" />
    <glyph glyph-name="y" unicode="y" horiz-adv-x="1216" 
d="M201 -389l217 409l-332 1045h283l215 -737l368 737h287l-762 -1454h-276z" />
    <glyph glyph-name="z" unicode="z" horiz-adv-x="1075" 
d="M-25 0l652 825h-508l26 240h953l-649 -823h530l-25 -242h-979z" />
    <glyph glyph-name="braceleft" unicode="{" horiz-adv-x="700" 
d="M274 -266q-39 0 -74 10t-69.5 33.5t-51.5 71t-11 114.5l57 518l-78 146l105 149l57 531q7 54 26 94.5t43.5 64t56.5 37.5t60 18.5t58 4.5h204l-24 -240h-68q-33 0 -57 -19t-27 -50l-45 -451l-127 -139l94 -135l-47 -459q-3 -31 13 -45.5t49 -14.5h78l-27 -239h-195z" />
    <glyph glyph-name="bar" unicode="|" horiz-adv-x="509" 
d="M39 -389l213 2027h240l-213 -2027h-240z" />
    <glyph glyph-name="braceright" unicode="}" horiz-adv-x="700" 
d="M-47 -266l27 239h65q33 0 56 19t26 51l47 449l129 135l-96 139l47 461q3 31 -12.5 45t-48.5 14h-76l24 240h195q38 0 73 -10t69 -33.5t51.5 -71.5t11.5 -115l-58 -520l80 -149l-106 -146l-58 -528q-5 -54 -23.5 -94.5t-42.5 -64t-56 -37.5t-60 -18.5t-59 -4.5h-205z" />
    <glyph glyph-name="asciitilde" unicode="~" horiz-adv-x="978" 
d="M639 424q-54 0 -95 17.5t-61.5 38t-49 38t-60.5 17.5t-55 -15t-27 -47h-205q11 117 79.5 187.5t182.5 70.5q44 0 79 -11.5t56.5 -27.5t40.5 -32t41.5 -27.5t48.5 -11.5q32 0 55 14.5t27 44.5h205q-11 -116 -79.5 -186t-182.5 -70z" />
    <glyph glyph-name="exclamdown" unicode="&#xa1;" horiz-adv-x="524" 
d="M414 606l-107 -995h-282l106 995h283zM147 928q0 69 45.5 113t110.5 44q66 0 112 -44t46 -113t-46 -113.5t-112 -44.5q-65 0 -110.5 44.5t-45.5 113.5z" />
    <glyph glyph-name="cent" unicode="&#xa2;" horiz-adv-x="1128" 
d="M475 -82l27 254q-90 13 -167.5 50.5t-137 97.5t-93.5 148t-34 194q0 161 73.5 295.5t198 215.5t276.5 95l17 166h133l-18 -166q127 -14 224.5 -80t149.5 -178l-215 -129q-62 113 -184 137l-63 -600q131 24 212 139l189 -129q-78 -119 -187 -185t-241 -75l-27 -250h-133z
M342 692q0 -102 51.5 -172t134.5 -96l62 592q-106 -25 -177 -111.5t-71 -212.5z" />
    <glyph glyph-name="sterling" unicode="&#xa3;" horiz-adv-x="1163" 
d="M31 227q241 142 241 312q0 13 -4 41h-202l22 202h115q-53 132 -53 238q0 203 150 329t380 126q223 0 347 -119.5t103 -333.5l-4 -41h-266l4 37q4 35 -5 70.5t-31.5 69.5t-68 55.5t-108.5 21.5q-108 0 -172.5 -64.5t-64.5 -166.5q0 -77 57 -222h344l-22 -202h-267
q2 -12 2 -39q0 -98 -45.5 -180t-126.5 -134h676l-22 -227h-1002z" />
    <glyph glyph-name="currency" unicode="&#xa4;" horiz-adv-x="1116" 
d="M551 516q-139 0 -246 74l-84 -76l-155 168l100 88q-27 68 -27 150q0 143 74 266l-84 92l193 170l73 -82q117 68 252 68q139 0 246 -74l96 88l152 -170l-109 -98q29 -76 29 -156q0 -129 -66 -248l82 -94l-186 -168l-72 80q-124 -78 -268 -78zM360 950q0 -86 53.5 -150.5
t159.5 -64.5q64 0 117 25.5t85.5 65t50.5 85t18 88.5q0 84 -55 149.5t-160 65.5q-64 0 -117 -25.5t-85 -65t-49.5 -85t-17.5 -88.5z" />
    <glyph glyph-name="yen" unicode="&#xa5;" horiz-adv-x="1419" 
d="M283 416l16 141h272l2 23l-434 874h307l289 -620l412 620h326l-619 -874l-2 -23h295l-17 -141h-294l-9 -72h295l-14 -141h-297l-23 -203h-280l22 203h-270l14 141h273l8 72h-272z" />
    <glyph glyph-name="brokenbar" unicode="&#xa6;" horiz-adv-x="512" 
d="M39 -389l61 573h240l-61 -573h-240zM193 1065l59 573h240l-60 -573h-239z" />
    <glyph glyph-name="section" unicode="&#xa7;" horiz-adv-x="1134" 
d="M444 -389q-174 0 -296.5 57.5t-174.5 126.5l43 301h252l-22 -162q20 -27 72.5 -51t130.5 -24q124 0 198 58t74 149q0 61 -34.5 95t-113.5 64l-159 60q-146 56 -228 145t-82 229q0 203 160 324q-82 95 -82 229q0 80 27 149t75 119.5t112.5 86.5t140.5 53.5t159 17.5
q158 0 291.5 -60t161.5 -116l-43 -299h-252l23 156q-12 27 -64.5 49.5t-126.5 22.5q-102 0 -166.5 -50t-64.5 -129q0 -105 135 -153l170 -66q163 -61 245 -153t82 -234q0 -200 -155 -323q78 -93 78 -230q0 -139 -76 -241t-202.5 -151.5t-287.5 -49.5zM377 659
q0 -104 135 -153l170 -66q115 62 115 178q0 61 -34.5 95.5t-113.5 64.5l-137 51q-63 -22 -99 -66.5t-36 -103.5z" />
    <glyph glyph-name="dieresis" unicode="&#xa8;" horiz-adv-x="800" 
d="M592 1212l29 273h258l-31 -273h-256zM92 1212l27 273h258l-31 -273h-254z" />
    <glyph glyph-name="copyright" unicode="&#xa9;" horiz-adv-x="1619" 
d="M752 -14q-132 0 -250.5 47.5t-207.5 132t-141.5 211t-52.5 274.5q0 168 66.5 321.5t176.5 263t259 174.5t309 65q177 0 324.5 -80t236.5 -231.5t89 -344.5q0 -167 -66 -321.5t-175.5 -266t-258.5 -178.5t-309 -67zM340 674q0 -206 123.5 -328.5t314.5 -122.5
q113 0 213.5 43t173 117.5t114.5 178.5t42 222q0 208 -123.5 330.5t-312.5 122.5q-149 0 -274.5 -74t-198 -203.5t-72.5 -285.5zM465 686q0 183 120 310.5t300 127.5q81 0 143 -29.5t98 -82.5l-145 -156q-47 43 -104 43q-71 0 -125 -52.5t-54 -133.5q0 -67 40.5 -109.5
t103.5 -42.5q62 0 114 45l115 -157q-102 -113 -268 -113q-149 0 -243.5 95t-94.5 255z" />
    <glyph glyph-name="ordfeminine" unicode="&#xaa;" horiz-adv-x="841" 
d="M334 766q-107 0 -170.5 53.5t-63.5 149.5q0 56 24 99t66.5 68.5t93.5 39.5t113 18l162 10q6 51 -24.5 78t-85.5 27q-86 0 -201 -66l-72 117q41 41 120 72.5t175 31.5q148 0 219.5 -84.5t54.5 -240.5l-16 -168q-7 -62 -0.5 -110t33.5 -95h-172q-29 49 -31 96
q-53 -50 -105 -73t-120 -23zM285 985q0 -65 84 -65q62 0 110 35t58 79l6 35l-158 -12q-100 -6 -100 -72z" />
    <glyph glyph-name="guillemotleft" unicode="&#xab;" horiz-adv-x="884" 
d="M430 946l76 -92l-234 -268l179 -271l-97 -90l-272 307l8 107zM442 532l9 107l340 307l75 -92l-233 -268l178 -271l-96 -90z" />
    <glyph glyph-name="logicalnot" unicode="&#xac;" horiz-adv-x="1081" 
d="M997 618l-47 -442h-262l23 213h-633l22 229h897z" />
    <glyph glyph-name="uni00AD" unicode="&#xad;" horiz-adv-x="821" 
d="M35 449l22 229h635l-22 -229h-635z" />
    <glyph glyph-name="registered" unicode="&#xae;" horiz-adv-x="1619" 
d="M752 -14q-132 0 -250.5 47.5t-207.5 132t-141.5 211t-52.5 274.5q0 168 66.5 321.5t176.5 263t259 174.5t309 65q177 0 324.5 -80t236.5 -231.5t89 -344.5q0 -167 -66 -321.5t-175.5 -266t-258.5 -178.5t-309 -67zM340 674q0 -206 123.5 -328.5t314.5 -122.5
q113 0 213.5 43t173 117.5t114.5 178.5t42 222q0 208 -123.5 330.5t-312.5 122.5q-149 0 -274.5 -74t-198 -203.5t-72.5 -285.5zM543 389l73 668h283q109 0 165 -57t56 -148q0 -157 -162 -225l138 -238h-178l-123 229h-56l-26 -229h-170zM748 754h92q43 0 73.5 21t30.5 65
q0 69 -86 69h-94z" />
    <glyph glyph-name="macron" unicode="&#xaf;" horiz-adv-x="815" 
d="M92 1212l23 209h770l-23 -209h-770z" />
    <glyph glyph-name="degree" unicode="&#xb0;" horiz-adv-x="653" 
d="M385 971q-103 0 -171.5 66.5t-68.5 166.5q0 111 78.5 191t188.5 80q104 0 173.5 -67t69.5 -167q0 -110 -80 -190t-190 -80zM326 1219q0 -30 19 -50t48 -20q31 0 55.5 22t24.5 56q0 30 -18.5 49.5t-48.5 19.5q-31 0 -55.5 -21.5t-24.5 -55.5z" />
    <glyph glyph-name="plusminus" unicode="&#xb1;" horiz-adv-x="870" 
d="M334 399l26 256h-251l16 172h256l27 256h172l-27 -256h256l-16 -172h-261l-26 -256h-172zM37 4l22 229h686l-22 -229h-686z" />
    <glyph glyph-name="uni00B2" unicode="&#xb2;" horiz-adv-x="497" 
d="M111 901l6 66l151 143q11 10 31 28.5t27.5 25.5t21.5 21.5t19.5 20t14.5 16.5t12.5 17.5t8 16t6.5 18t3 18.5q3 36 -22 61t-60 25q-41 0 -74.5 -27.5t-36.5 -76.5l-6 -27h-74l4 31q7 72 61.5 118t123.5 46q71 0 118 -48t41 -110q-7 -53 -40.5 -97t-118.5 -122l-109 -98
h242l-6 -66h-344z" />
    <glyph glyph-name="uni00B3" unicode="&#xb3;" horiz-adv-x="518" 
d="M301 893q-84 0 -132.5 56t-37.5 132l78 -4q-6 -49 18 -84t72 -35q47 0 85 29t42 74q6 53 -30 73.5t-109 20.5l2 59q66 0 100.5 25.5t36.5 65.5q4 30 -17 50.5t-57 20.5q-45 0 -75.5 -30t-36.5 -84l-76 4q6 77 59 125.5t127 48.5q67 0 113.5 -43.5t40.5 -100.5
q-10 -67 -74 -106q35 -15 55.5 -50.5t16.5 -86.5q-6 -68 -66 -114t-135 -46z" />
    <glyph glyph-name="acute" unicode="&#xb4;" horiz-adv-x="415" 
d="M90 1194l178 322h230l-185 -322h-223z" />
    <glyph glyph-name="uni00B5" unicode="&#xb5;" horiz-adv-x="1234" 
d="M8 -389l154 1454h274l-61 -600q-16 -130 24.5 -185t130.5 -55q58 0 113 25t94.5 63.5t66.5 77t40 72.5l67 602h275l-113 -1065h-274l24 199q-13 -26 -41 -58.5t-72.5 -69.5t-110.5 -62t-138 -25h-133l-45 -373h-275z" />
    <glyph glyph-name="paragraph" unicode="&#xb6;" horiz-adv-x="1689" 
d="M770 0l53 504h-209q-224 0 -354.5 117t-130.5 319q0 226 160 370t416 144h499l-153 -1454h-281zM408 950q0 -205 237 -205h205l47 451h-209q-132 0 -206 -65t-74 -181zM1247 0l154 1454h280l-153 -1454h-281z" />
    <glyph glyph-name="periodcentered" unicode="&#xb7;" horiz-adv-x="493" 
d="M252 401q-66 0 -112 44.5t-46 113.5t46 113.5t112 44.5q65 0 110.5 -44.5t45.5 -113.5t-45.5 -113.5t-110.5 -44.5z" />
    <glyph glyph-name="cedilla" unicode="&#xb8;" horiz-adv-x="446" 
d="M-57 -367q89 -3 146.5 20t57.5 81q0 100 -176 76l-20 61l92 129h193l-62 -78q77 -1 123.5 -46.5t46.5 -115.5q0 -50 -25 -92.5t-66.5 -69.5t-95.5 -45t-110.5 -18t-112.5 12z" />
    <glyph glyph-name="uni00B9" unicode="&#xb9;" horiz-adv-x="405" 
d="M219 901l49 453l-37 -23l-32 64l75 41h76l-55 -535h-76z" />
    <glyph glyph-name="ordmasculine" unicode="&#xba;" horiz-adv-x="761" 
d="M420 774q-121 0 -214 85.5t-93 225.5q0 107 57 191.5t137 126t162 41.5q74 0 142 -35.5t113.5 -108t45.5 -165.5q0 -81 -33 -151.5t-84.5 -115t-112.5 -69.5t-120 -25zM293 1094q0 -63 40 -100.5t97 -37.5q63 0 111.5 49t48.5 125q0 59 -39.5 95.5t-93.5 36.5
q-63 0 -113.5 -48t-50.5 -120z" />
    <glyph glyph-name="guillemotright" unicode="&#xbb;" horiz-adv-x="884" 
d="M465 223l-76 92l234 269l-179 270l97 90l272 -307l-8 -107zM29 315l233 269l-178 270l96 90l273 -307l-9 -107l-340 -307z" />
    <glyph glyph-name="onequarter" unicode="&#xbc;" horiz-adv-x="1167" 
d="M-59 0l1044 1434h86l-1032 -1434h-98zM94 1395l76 41h76l-56 -535h-75l47 453l-35 -23zM618 156l312 379h76l-33 -316h55l-8 -63h-55l-17 -156h-76l17 156h-271zM764 219h133l21 195z" />
    <glyph glyph-name="onehalf" unicode="&#xbd;" horiz-adv-x="1116" 
d="M-59 0l1044 1434h86l-1032 -1434h-98zM94 1395l76 41h76l-56 -535h-75l47 453l-35 -23zM608 0l8 66l152 143q93 87 111 111q26 33 30 71q4 36 -20 61t-60 25q-40 0 -73 -27.5t-39 -76.5l-2 -27h-76l4 31q7 72 61 118t123 46q71 0 118.5 -48t41.5 -110q-6 -53 -39.5 -96
t-120.5 -123l-108 -98h242l-9 -66h-344z" />
    <glyph glyph-name="threequarters" unicode="&#xbe;" horiz-adv-x="1202" 
d="M-2 0l1042 1434h86l-1030 -1434h-98zM53 1081l78 -4q-5 -50 19.5 -84.5t72.5 -34.5q47 0 84 29t41 74q6 54 -29.5 74t-109.5 20l2 59q66 0 101 25t40 66q3 30 -19.5 50.5t-58.5 20.5q-45 0 -75.5 -30t-36.5 -84l-74 4q6 77 59 125.5t127 48.5q67 0 112.5 -43.5
t39.5 -100.5q-7 -64 -72 -106q35 -15 55.5 -50.5t16.5 -86.5q-7 -68 -67.5 -114t-135.5 -46q-84 0 -132.5 56t-37.5 132zM655 156l310 379h75l-32 -316h55l-6 -63h-56l-16 -156h-76l17 156h-271zM799 219h133l20 195z" />
    <glyph glyph-name="questiondown" unicode="&#xbf;" horiz-adv-x="1083" 
d="M647 555q-5 -64 -26 -117t-52 -89t-67.5 -67.5t-73 -58.5t-67.5 -54t-53 -61.5t-27 -74.5q-4 -33 3.5 -66.5t27 -65t60.5 -51.5t97 -20q61 0 107 23t71 60.5t38 75t17 77.5h273q-5 -150 -75 -259t-185 -163t-260 -54q-214 0 -342.5 118.5t-110.5 314.5q7 63 29 113
t52.5 83.5t66 62.5t70.5 56t64.5 57t50 72.5t25.5 95.5l7 53h284zM367 928q0 69 45 113t110 44q66 0 112 -44t46 -113t-46 -113.5t-112 -44.5q-64 0 -109.5 44.5t-45.5 113.5z" />
    <glyph glyph-name="Agrave" unicode="&#xc0;" horiz-adv-x="1462" 
d="M977 1454l397 -1454h-305l-65 262h-603l-122 -262h-304l705 1454h297zM520 520h418l-145 584zM526 1884h228l180 -321h-223z" />
    <glyph glyph-name="Aacute" unicode="&#xc1;" horiz-adv-x="1462" 
d="M977 1454l397 -1454h-305l-65 262h-603l-122 -262h-304l705 1454h297zM520 520h418l-145 584zM717 1563l178 321h229l-184 -321h-223z" />
    <glyph glyph-name="Acircumflex" unicode="&#xc2;" horiz-adv-x="1462" 
d="M977 1454l397 -1454h-305l-65 262h-603l-122 -262h-304l705 1454h297zM520 520h418l-145 584zM528 1626l256 258h183l200 -258l-129 -117l-178 217l-209 -217z" />
    <glyph glyph-name="Atilde" unicode="&#xc3;" horiz-adv-x="1462" 
d="M977 1454l397 -1454h-305l-65 262h-603l-122 -262h-304l705 1454h297zM494 1606q10 117 71.5 181t147.5 64q52 0 97 -26.5t80.5 -53t63.5 -26.5t48.5 17.5t23.5 49.5h186q-9 -118 -71 -182.5t-148 -64.5q-41 0 -78 17t-60 37t-50.5 37t-50.5 17q-27 0 -49 -18t-25 -49
h-186zM520 520h418l-145 584z" />
    <glyph glyph-name="Adieresis" unicode="&#xc4;" horiz-adv-x="1462" 
d="M977 1454l397 -1454h-305l-65 262h-603l-122 -262h-304l705 1454h297zM465 1581l27 272h258l-31 -272h-254zM520 520h418l-145 584zM965 1581l28 272h258l-30 -272h-256z" />
    <glyph glyph-name="Aring" unicode="&#xc5;" horiz-adv-x="1462" 
d="M977 1454l397 -1454h-305l-65 262h-603l-122 -262h-304l705 1454h297zM520 520h418l-145 584zM631 1776q0 95 74 167t174 72q88 0 149.5 -61.5t61.5 -149.5q0 -95 -75.5 -167t-172.5 -72q-89 0 -150 61.5t-61 149.5zM807 1788q0 -22 14 -36.5t37 -14.5q25 0 41 17t16 44
q0 21 -15.5 35t-37.5 14t-38.5 -16.5t-16.5 -42.5z" />
    <glyph glyph-name="AE" unicode="&#xc6;" horiz-adv-x="1949" 
d="M981 0l35 326h-463l-250 -326h-328l1135 1454h846l-25 -258h-545l-34 -338h454l-26 -254h-455l-37 -346h559l-24 -258h-842zM737 565h303l47 455z" />
    <glyph glyph-name="Ccedilla" unicode="&#xc7;" horiz-adv-x="1380" 
d="M782 -20h-34l-46 -58q77 -1 123.5 -46.5t46.5 -115.5q0 -50 -25 -92.5t-66.5 -69.5t-95 -45t-110 -18t-112.5 12l8 86q89 -3 147 20t58 81q0 100 -176 76l-21 61l92 129h31q-225 54 -363.5 227t-138.5 426q0 170 66.5 323t178 262t263 173t316.5 64q79 0 153.5 -15.5
t150.5 -49.5t142.5 -98.5t112.5 -152.5l-215 -143q-125 192 -361 192q-218 0 -369 -149.5t-151 -370.5q0 -201 122.5 -321.5t307.5 -120.5q225 0 389 192l185 -143q-85 -117 -194.5 -190t-208.5 -99t-206 -26z" />
    <glyph glyph-name="Egrave" unicode="&#xc8;" horiz-adv-x="1017" 
d="M49 0l152 1454h823l-25 -258h-544l-35 -338h454l-26 -254h-455l-37 -346h559l-24 -258h-842zM322 1905h227l180 -322h-223z" />
    <glyph glyph-name="Eacute" unicode="&#xc9;" horiz-adv-x="1017" 
d="M49 0l152 1454h823l-25 -258h-544l-35 -338h454l-26 -254h-455l-37 -346h559l-24 -258h-842zM512 1583l178 322h230l-185 -322h-223z" />
    <glyph glyph-name="Ecircumflex" unicode="&#xca;" horiz-adv-x="1017" 
d="M49 0l152 1454h823l-25 -258h-544l-35 -338h454l-26 -254h-455l-37 -346h559l-24 -258h-842zM324 1647l256 258h182l201 -258l-129 -117l-179 217l-209 -217z" />
    <glyph glyph-name="Edieresis" unicode="&#xcb;" horiz-adv-x="1017" 
d="M49 0l152 1454h823l-25 -258h-544l-35 -338h454l-26 -254h-455l-37 -346h559l-24 -258h-842zM260 1602l27 272h258l-31 -272h-254zM760 1602l28 272h259l-31 -272h-256z" />
    <glyph glyph-name="Igrave" unicode="&#xcc;" horiz-adv-x="489" 
d="M49 0l154 1454h278l-151 -1454h-281zM43 1905h227l181 -322h-224z" />
    <glyph glyph-name="Iacute" unicode="&#xcd;" horiz-adv-x="489" 
d="M49 0l154 1454h278l-151 -1454h-281zM233 1583l179 322h229l-184 -322h-224z" />
    <glyph glyph-name="Icircumflex" unicode="&#xce;" horiz-adv-x="489" 
d="M49 0l154 1454h278l-151 -1454h-281zM45 1647l256 258h182l201 -258l-129 -117l-178 217l-209 -217z" />
    <glyph glyph-name="Idieresis" unicode="&#xcf;" horiz-adv-x="489" 
d="M49 0l154 1454h278l-151 -1454h-281zM-18 1602l26 272h258l-30 -272h-254zM481 1602l29 272h258l-31 -272h-256z" />
    <glyph glyph-name="Eth" unicode="&#xd0;" horiz-adv-x="1589" 
d="M244 0l63 588h-119l23 229h119l65 617h494q201 0 359 -97t237 -263t59 -363q-16 -147 -85.5 -278.5t-174.5 -226.5t-245 -150.5t-291 -55.5h-504zM553 264h211q104 0 193.5 37.5t152 102t102 150t50.5 183.5q9 87 -11.5 164.5t-68 137.5t-128 95t-184.5 35h-223l-37 -352
h236l-23 -229h-235z" />
    <glyph glyph-name="Ntilde" unicode="&#xd1;" horiz-adv-x="1447" 
d="M49 0l152 1454h284l559 -993h13l102 993h281l-152 -1454h-284l-560 993h-12l-102 -993h-281zM487 1626q10 117 72 181.5t148 64.5q41 0 79 -16.5t61 -37t50.5 -37t50.5 -16.5q28 0 48.5 18t23.5 50h186q-9 -118 -71 -183t-148 -65q-41 0 -78 17t-60 37.5t-50.5 37.5
t-50.5 17q-27 0 -49 -18.5t-25 -49.5h-187z" />
    <glyph glyph-name="Ograve" unicode="&#xd2;" horiz-adv-x="1671" 
d="M784 -20q-144 0 -269.5 47.5t-217 133t-144.5 212.5t-53 278q0 170 66.5 323.5t178.5 263t265 173.5t320 64q192 0 346.5 -81t246 -235.5t91.5 -355.5q0 -170 -67 -323.5t-179.5 -262.5t-265 -173t-318.5 -64zM387 678q0 -196 120 -314t304 -118q140 0 258 69.5
t187 191.5t69 269q0 196 -119.5 314t-304.5 118q-140 0 -258 -69.5t-187 -191.5t-69 -269zM633 1905h227l180 -322h-223z" />
    <glyph glyph-name="Oacute" unicode="&#xd3;" horiz-adv-x="1671" 
d="M784 -20q-144 0 -269.5 47.5t-217 133t-144.5 212.5t-53 278q0 170 66.5 323.5t178.5 263t265 173.5t320 64q192 0 346.5 -81t246 -235.5t91.5 -355.5q0 -170 -67 -323.5t-179.5 -262.5t-265 -173t-318.5 -64zM387 678q0 -196 120 -314t304 -118q140 0 258 69.5
t187 191.5t69 269q0 196 -119.5 314t-304.5 118q-140 0 -258 -69.5t-187 -191.5t-69 -269zM823 1583l178 322h230l-184 -322h-224z" />
    <glyph glyph-name="Ocircumflex" unicode="&#xd4;" horiz-adv-x="1671" 
d="M784 -20q-144 0 -269.5 47.5t-217 133t-144.5 212.5t-53 278q0 170 66.5 323.5t178.5 263t265 173.5t320 64q192 0 346.5 -81t246 -235.5t91.5 -355.5q0 -170 -67 -323.5t-179.5 -262.5t-265 -173t-318.5 -64zM387 678q0 -196 120 -314t304 -118q140 0 258 69.5
t187 191.5t69 269q0 196 -119.5 314t-304.5 118q-140 0 -258 -69.5t-187 -191.5t-69 -269zM635 1647l256 258h182l201 -258l-129 -117l-178 217l-209 -217z" />
    <glyph glyph-name="Otilde" unicode="&#xd5;" horiz-adv-x="1671" 
d="M784 -20q-144 0 -269.5 47.5t-217 133t-144.5 212.5t-53 278q0 170 66.5 323.5t178.5 263t265 173.5t320 64q192 0 346.5 -81t246 -235.5t91.5 -355.5q0 -170 -67 -323.5t-179.5 -262.5t-265 -173t-318.5 -64zM387 678q0 -196 120 -314t304 -118q140 0 258 69.5
t187 191.5t69 269q0 196 -119.5 314t-304.5 118q-140 0 -258 -69.5t-187 -191.5t-69 -269zM600 1626q10 117 71.5 181.5t147.5 64.5q52 0 97.5 -27t81 -53.5t63.5 -26.5t48.5 18t23.5 50h186q-9 -118 -71 -183t-148 -65q-41 0 -78.5 17t-60 37.5t-50.5 37.5t-51 17
q-27 0 -49 -18.5t-25 -49.5h-186z" />
    <glyph glyph-name="Odieresis" unicode="&#xd6;" horiz-adv-x="1671" 
d="M784 -20q-144 0 -269.5 47.5t-217 133t-144.5 212.5t-53 278q0 170 66.5 323.5t178.5 263t265 173.5t320 64q192 0 346.5 -81t246 -235.5t91.5 -355.5q0 -170 -67 -323.5t-179.5 -262.5t-265 -173t-318.5 -64zM387 678q0 -196 120 -314t304 -118q140 0 258 69.5
t187 191.5t69 269q0 196 -119.5 314t-304.5 118q-140 0 -258 -69.5t-187 -191.5t-69 -269zM571 1602l27 272h258l-31 -272h-254zM1071 1602l29 272h258l-31 -272h-256z" />
    <glyph glyph-name="multiply" unicode="&#xd7;" horiz-adv-x="897" 
d="M219 190l-145 164l213 193l-170 192l178 162l172 -190l211 190l145 -160l-213 -192l176 -197l-180 -162l-174 195z" />
    <glyph glyph-name="Oslash" unicode="&#xd8;" horiz-adv-x="1671" 
d="M201 -102l135 231q-112 90 -174 223.5t-62 298.5q0 170 66.5 323.5t178.5 263t265 173.5t320 64q94 0 180 -21l43 72h311l-106 -185q120 -89 188 -226.5t68 -311.5q0 -170 -67 -323.5t-179.5 -262.5t-265 -173t-318.5 -64q-102 0 -209 26l-63 -108h-311zM387 678
q0 -177 100 -291l478 817q-40 4 -64 4q-140 0 -258 -69.5t-187 -191.5t-69 -269zM721 254q39 -8 90 -8q140 0 258 69.5t187 191.5t69 269q0 194 -117 311z" />
    <glyph glyph-name="Ugrave" unicode="&#xd9;" horiz-adv-x="1308" 
d="M606 -31q-115 0 -213 38.5t-167 108t-102.5 175.5t-19.5 233l99 930h280l-98 -940q-8 -75 10.5 -131.5t56 -88t83 -46.5t96.5 -15t97 15t87.5 47.5t70 91t36.5 137.5l98 930h280l-98 -938q-18 -170 -104.5 -296t-214 -188.5t-277.5 -62.5zM453 1905h227l180 -322h-223z
" />
    <glyph glyph-name="Uacute" unicode="&#xda;" horiz-adv-x="1308" 
d="M606 -31q-115 0 -213 38.5t-167 108t-102.5 175.5t-19.5 233l99 930h280l-98 -940q-8 -75 10.5 -131.5t56 -88t83 -46.5t96.5 -15t97 15t87.5 47.5t70 91t36.5 137.5l98 930h280l-98 -938q-18 -170 -104.5 -296t-214 -188.5t-277.5 -62.5zM643 1583l178 322h230
l-185 -322h-223z" />
    <glyph glyph-name="Ucircumflex" unicode="&#xdb;" horiz-adv-x="1308" 
d="M606 -31q-115 0 -213 38.5t-167 108t-102.5 175.5t-19.5 233l99 930h280l-98 -940q-8 -75 10.5 -131.5t56 -88t83 -46.5t96.5 -15t97 15t87.5 47.5t70 91t36.5 137.5l98 930h280l-98 -938q-18 -170 -104.5 -296t-214 -188.5t-277.5 -62.5zM455 1647l256 258h182l201 -258
l-129 -117l-179 217l-208 -217z" />
    <glyph glyph-name="Udieresis" unicode="&#xdc;" horiz-adv-x="1308" 
d="M606 -31q-115 0 -213 38.5t-167 108t-102.5 175.5t-19.5 233l99 930h280l-98 -940q-8 -75 10.5 -131.5t56 -88t83 -46.5t96.5 -15t97 15t87.5 47.5t70 91t36.5 137.5l98 930h280l-98 -938q-18 -170 -104.5 -296t-214 -188.5t-277.5 -62.5zM391 1602l27 272h258l-31 -272
h-254zM891 1602l29 272h258l-31 -272h-256z" />
    <glyph glyph-name="Yacute" unicode="&#xdd;" horiz-adv-x="1419" 
d="M508 0l65 580l-434 874h307l289 -620l412 620h326l-619 -874l-66 -580h-280zM692 1583l178 322h230l-185 -322h-223z" />
    <glyph glyph-name="Thorn" unicode="&#xde;" horiz-adv-x="1306" 
d="M49 0l154 1454h278l-30 -297h360q204 0 327.5 -113.5t123.5 -306.5q0 -110 -43.5 -198t-118 -142.5t-169.5 -83t-202 -28.5h-369l-30 -285h-281zM385 526h279q319 0 319 207q0 185 -268 185h-289z" />
    <glyph glyph-name="germandbls" unicode="&#xdf;" horiz-adv-x="1267" 
d="M152 969q13 125 59 216.5t120.5 145t165.5 78.5t203 25q100 0 184.5 -21t150 -62.5t102.5 -109.5t37 -156q0 -129 -72.5 -206.5t-171.5 -94.5q121 -26 192.5 -109.5t71.5 -225.5q0 -212 -156 -330.5t-432 -118.5h-151l24 242h144q143 0 217.5 55.5t74.5 157.5
q0 60 -25 101t-70.5 61t-93.5 28t-110 8h-94l25 226h86q260 0 260 161q0 82 -60 118t-157 36q-115 0 -177 -54t-75 -182l-100 -958h-275z" />
    <glyph glyph-name="agrave" unicode="&#xe0;" 
d="M508 -20q-89 0 -170 32t-145.5 91.5t-103 155.5t-38.5 214q0 167 73 307.5t201.5 222.5t284.5 82q132 0 219 -53t111 -110h12l17 143h274l-110 -1065h-277l16 143h-12q-31 -55 -129.5 -109t-222.5 -54zM326 496q0 -70 23 -124t61 -85t84 -46.5t96 -15.5q62 0 120.5 23
t106 65.5t76.5 109t29 146.5q0 70 -23 124t-62.5 85t-85 46.5t-96.5 15.5q-83 0 -157 -39t-123 -119t-49 -186zM403 1516h228l180 -322h-223z" />
    <glyph glyph-name="aacute" unicode="&#xe1;" 
d="M508 -20q-89 0 -170 32t-145.5 91.5t-103 155.5t-38.5 214q0 167 73 307.5t201.5 222.5t284.5 82q132 0 219 -53t111 -110h12l17 143h274l-110 -1065h-277l16 143h-12q-31 -55 -129.5 -109t-222.5 -54zM326 496q0 -70 23 -124t61 -85t84 -46.5t96 -15.5q62 0 120.5 23
t106 65.5t76.5 109t29 146.5q0 70 -23 124t-62.5 85t-85 46.5t-96.5 15.5q-83 0 -157 -39t-123 -119t-49 -186zM594 1194l178 322h229l-184 -322h-223z" />
    <glyph glyph-name="acircumflex" unicode="&#xe2;" 
d="M508 -20q-89 0 -170 32t-145.5 91.5t-103 155.5t-38.5 214q0 167 73 307.5t201.5 222.5t284.5 82q132 0 219 -53t111 -110h12l17 143h274l-110 -1065h-277l16 143h-12q-31 -55 -129.5 -109t-222.5 -54zM326 496q0 -70 23 -124t61 -85t84 -46.5t96 -15.5q62 0 120.5 23
t106 65.5t76.5 109t29 146.5q0 70 -23 124t-62.5 85t-85 46.5t-96.5 15.5q-83 0 -157 -39t-123 -119t-49 -186zM406 1257l256 259h182l200 -259l-129 -116l-178 217l-209 -217z" />
    <glyph glyph-name="atilde" unicode="&#xe3;" 
d="M508 -20q-89 0 -170 32t-145.5 91.5t-103 155.5t-38.5 214q0 167 73 307.5t201.5 222.5t284.5 82q132 0 219 -53t111 -110h12l17 143h274l-110 -1065h-277l16 143h-12q-31 -55 -129.5 -109t-222.5 -54zM326 496q0 -70 23 -124t61 -85t84 -46.5t96 -15.5q62 0 120.5 23
t106 65.5t76.5 109t29 146.5q0 70 -23 124t-62.5 85t-85 46.5t-96.5 15.5q-83 0 -157 -39t-123 -119t-49 -186zM371 1237q10 117 71.5 181.5t147.5 64.5q41 0 78.5 -16.5t61 -37t51 -37t50.5 -16.5q28 0 48.5 18t23.5 50h187q-9 -118 -71.5 -183t-148.5 -65q-41 0 -78 17
t-60 37.5t-50.5 37.5t-50.5 17q-27 0 -49 -18.5t-25 -49.5h-186z" />
    <glyph glyph-name="adieresis" unicode="&#xe4;" 
d="M508 -20q-89 0 -170 32t-145.5 91.5t-103 155.5t-38.5 214q0 167 73 307.5t201.5 222.5t284.5 82q132 0 219 -53t111 -110h12l17 143h274l-110 -1065h-277l16 143h-12q-31 -55 -129.5 -109t-222.5 -54zM326 496q0 -70 23 -124t61 -85t84 -46.5t96 -15.5q62 0 120.5 23
t106 65.5t76.5 109t29 146.5q0 70 -23 124t-62.5 85t-85 46.5t-96.5 15.5q-83 0 -157 -39t-123 -119t-49 -186zM342 1212l27 273h258l-31 -273h-254zM842 1212l28 273h258l-30 -273h-256z" />
    <glyph glyph-name="aring" unicode="&#xe5;" 
d="M508 -20q-89 0 -170 32t-145.5 91.5t-103 155.5t-38.5 214q0 167 73 307.5t201.5 222.5t284.5 82q132 0 219 -53t111 -110h12l17 143h274l-110 -1065h-277l16 143h-12q-31 -55 -129.5 -109t-222.5 -54zM326 496q0 -70 23 -124t61 -85t84 -46.5t96 -15.5q62 0 120.5 23
t106 65.5t76.5 109t29 146.5q0 70 -23 124t-62.5 85t-85 46.5t-96.5 15.5q-83 0 -157 -39t-123 -119t-49 -186zM508 1407q0 96 74.5 168t173.5 72q88 0 149.5 -61.5t61.5 -149.5q0 -95 -75.5 -167.5t-172.5 -72.5q-89 0 -150 61.5t-61 149.5zM684 1419q0 -22 14 -36.5
t37 -14.5q25 0 41.5 17.5t16.5 44.5q0 21 -16 35t-38 14t-38.5 -17t-16.5 -43z" />
    <glyph glyph-name="ae" unicode="&#xe6;" horiz-adv-x="2052" 
d="M508 -20q-89 0 -170 32t-145.5 91.5t-103 155.5t-38.5 214q0 167 73 307.5t201.5 222.5t284.5 82q132 0 219 -53t111 -110h12l17 143h274l-6 -53q130 73 285 73q85 0 163.5 -24t147.5 -74.5t111.5 -128.5t56 -185.5t-18.5 -246.5h-796q21 -108 103 -164.5t202 -56.5
q158 0 283 96l108 -133q-80 -87 -192.5 -137.5t-245.5 -50.5q-172 0 -305 88l-6 -68h-277l16 143h-12q-31 -55 -129.5 -109t-222.5 -54zM326 496q0 -70 23 -124t61 -85t84 -46.5t96 -15.5q62 0 120.5 23t106 65.5t76.5 109t29 146.5q0 70 -23 124t-62.5 85t-85 46.5
t-96.5 15.5q-83 0 -157 -39t-123 -119t-49 -186zM1198 627h561q-4 111 -77.5 169t-180.5 58q-111 0 -190.5 -62t-112.5 -165z" />
    <glyph glyph-name="ccedilla" unicode="&#xe7;" horiz-adv-x="1128" 
d="M322 -367q89 -3 146.5 20t57.5 81q0 100 -176 76l-20 61l90 127q-164 40 -266.5 163.5t-102.5 313.5q0 172 83.5 313t223 219t304.5 78q150 0 267.5 -67.5t176.5 -194.5l-215 -129q-35 65 -99.5 104.5t-146.5 39.5q-130 0 -225.5 -91.5t-95.5 -240.5q0 -127 76.5 -203
t189.5 -76q81 0 150.5 39.5t115.5 104.5l188 -129q-164 -247 -446 -262l-45 -58q77 -1 123.5 -46.5t46.5 -115.5q0 -50 -25 -92.5t-66.5 -69.5t-95.5 -45t-110.5 -18t-112.5 12z" />
    <glyph glyph-name="egrave" unicode="&#xe8;" horiz-adv-x="1169" 
d="M561 -20q-103 0 -194.5 33t-162.5 95t-112 159.5t-41 217.5q0 167 79 305t214 216.5t295 78.5q85 0 163.5 -24t147.5 -74.5t112 -128.5t56.5 -185.5t-18.5 -246.5h-797q21 -108 103 -164.5t202 -56.5q158 0 283 96l108 -133q-80 -87 -192.5 -137.5t-245.5 -50.5zM315 627
h562q-4 111 -78 169t-181 58q-111 0 -190.5 -62t-112.5 -165zM336 1516h227l180 -322h-223z" />
    <glyph glyph-name="eacute" unicode="&#xe9;" horiz-adv-x="1169" 
d="M561 -20q-103 0 -194.5 33t-162.5 95t-112 159.5t-41 217.5q0 167 79 305t214 216.5t295 78.5q85 0 163.5 -24t147.5 -74.5t112 -128.5t56.5 -185.5t-18.5 -246.5h-797q21 -108 103 -164.5t202 -56.5q158 0 283 96l108 -133q-80 -87 -192.5 -137.5t-245.5 -50.5zM315 627
h562q-4 111 -78 169t-181 58q-111 0 -190.5 -62t-112.5 -165zM526 1194l179 322h229l-184 -322h-224z" />
    <glyph glyph-name="ecircumflex" unicode="&#xea;" horiz-adv-x="1169" 
d="M561 -20q-103 0 -194.5 33t-162.5 95t-112 159.5t-41 217.5q0 167 79 305t214 216.5t295 78.5q85 0 163.5 -24t147.5 -74.5t112 -128.5t56.5 -185.5t-18.5 -246.5h-797q21 -108 103 -164.5t202 -56.5q158 0 283 96l108 -133q-80 -87 -192.5 -137.5t-245.5 -50.5zM315 627
h562q-4 111 -78 169t-181 58q-111 0 -190.5 -62t-112.5 -165zM338 1257l256 259h182l201 -259l-129 -116l-178 217l-209 -217z" />
    <glyph glyph-name="edieresis" unicode="&#xeb;" horiz-adv-x="1169" 
d="M561 -20q-103 0 -194.5 33t-162.5 95t-112 159.5t-41 217.5q0 167 79 305t214 216.5t295 78.5q85 0 163.5 -24t147.5 -74.5t112 -128.5t56.5 -185.5t-18.5 -246.5h-797q21 -108 103 -164.5t202 -56.5q158 0 283 96l108 -133q-80 -87 -192.5 -137.5t-245.5 -50.5z
M274 1212l27 273h258l-31 -273h-254zM315 627h562q-4 111 -78 169t-181 58q-111 0 -190.5 -62t-112.5 -165zM774 1212l29 273h258l-31 -273h-256z" />
    <glyph glyph-name="igrave" unicode="&#xec;" horiz-adv-x="485" 
d="M49 0l113 1065h274l-112 -1065h-275zM0 1516h227l181 -322h-224z" />
    <glyph glyph-name="iacute" unicode="&#xed;" horiz-adv-x="485" 
d="M49 0l113 1065h274l-112 -1065h-275zM190 1194l179 322h229l-184 -322h-224z" />
    <glyph glyph-name="icircumflex" unicode="&#xee;" horiz-adv-x="485" 
d="M49 0l113 1065h274l-112 -1065h-275zM2 1257l256 259h182l201 -259l-129 -116l-178 217l-209 -217z" />
    <glyph glyph-name="idieresis" unicode="&#xef;" horiz-adv-x="485" 
d="M49 0l113 1065h274l-112 -1065h-275zM-63 1212l26 273h258l-31 -273h-253zM436 1212l29 273h258l-31 -273h-256z" />
    <glyph glyph-name="eth" unicode="&#xf0;" horiz-adv-x="1206" 
d="M518 -20q-101 0 -189 34.5t-155.5 100t-100.5 172.5t-20 241q19 175 97 297.5t196 181t268 58.5q86 0 131 -27l-53 105l-190 -31l14 131l100 17l-106 174h303l82 -131l203 34l-13 -133l-116 -22q99 -167 126.5 -322.5t4.5 -355.5q-11 -104 -48.5 -191t-93 -147.5
t-127 -103t-150.5 -62.5t-163 -20zM332 504q-8 -74 6.5 -131t44.5 -89t66 -47.5t75 -15.5q117 0 200 75.5t97 231.5q17 154 -44.5 224.5t-168.5 70.5q-103 0 -180 -77t-96 -242z" />
    <glyph glyph-name="ntilde" unicode="&#xf1;" horiz-adv-x="1212" 
d="M49 0l111 1065h274l-14 -141q119 161 338 161q176 0 279.5 -114.5t80.5 -343.5l-65 -627h-275l60 582q12 118 -42.5 188t-162.5 70t-172 -69t-76 -189l-61 -582h-275zM332 1237q10 117 71.5 181.5t147.5 64.5q41 0 79 -16.5t61.5 -37t51 -37t50.5 -16.5q28 0 48 18t23 50
h187q-9 -118 -71.5 -183t-148.5 -65q-41 0 -78 17t-60 37.5t-50.5 37.5t-50.5 17q-27 0 -49 -18.5t-25 -49.5h-186z" />
    <glyph glyph-name="ograve" unicode="&#xf2;" horiz-adv-x="1220" 
d="M563 -20q-90 0 -178.5 32t-164 92t-122.5 159t-47 220q0 168 83 307t222 217t303 78q71 0 142.5 -19.5t138 -61t117.5 -99.5t81.5 -142.5t30.5 -182.5q0 -167 -83 -305.5t-221.5 -216.5t-301.5 -78zM319 492q0 -126 78.5 -197.5t180.5 -71.5q131 0 228 94.5t97 253.5
q0 66 -23 119t-61 85.5t-83.5 49.5t-92.5 17q-130 0 -227 -95t-97 -255zM369 1516h227l180 -322h-223z" />
    <glyph glyph-name="oacute" unicode="&#xf3;" horiz-adv-x="1220" 
d="M563 -20q-90 0 -178.5 32t-164 92t-122.5 159t-47 220q0 168 83 307t222 217t303 78q71 0 142.5 -19.5t138 -61t117.5 -99.5t81.5 -142.5t30.5 -182.5q0 -167 -83 -305.5t-221.5 -216.5t-301.5 -78zM319 492q0 -126 78.5 -197.5t180.5 -71.5q131 0 228 94.5t97 253.5
q0 66 -23 119t-61 85.5t-83.5 49.5t-92.5 17q-130 0 -227 -95t-97 -255zM559 1194l178 322h230l-185 -322h-223z" />
    <glyph glyph-name="ocircumflex" unicode="&#xf4;" horiz-adv-x="1220" 
d="M563 -20q-90 0 -178.5 32t-164 92t-122.5 159t-47 220q0 168 83 307t222 217t303 78q71 0 142.5 -19.5t138 -61t117.5 -99.5t81.5 -142.5t30.5 -182.5q0 -167 -83 -305.5t-221.5 -216.5t-301.5 -78zM319 492q0 -126 78.5 -197.5t180.5 -71.5q131 0 228 94.5t97 253.5
q0 66 -23 119t-61 85.5t-83.5 49.5t-92.5 17q-130 0 -227 -95t-97 -255zM371 1257l256 259h182l201 -259l-129 -116l-179 217l-208 -217z" />
    <glyph glyph-name="otilde" unicode="&#xf5;" horiz-adv-x="1220" 
d="M563 -20q-90 0 -178.5 32t-164 92t-122.5 159t-47 220q0 168 83 307t222 217t303 78q71 0 142.5 -19.5t138 -61t117.5 -99.5t81.5 -142.5t30.5 -182.5q0 -167 -83 -305.5t-221.5 -216.5t-301.5 -78zM319 492q0 -126 78.5 -197.5t180.5 -71.5q131 0 228 94.5t97 253.5
q0 66 -23 119t-61 85.5t-83.5 49.5t-92.5 17q-130 0 -227 -95t-97 -255zM336 1237q10 117 71.5 181.5t147.5 64.5q41 0 79 -16.5t61.5 -37t51 -37t50.5 -16.5q28 0 48 18t23 50h187q-9 -118 -71 -183t-148 -65q-41 0 -78.5 17t-60 37.5t-50.5 37.5t-51 17q-27 0 -49 -18.5
t-25 -49.5h-186z" />
    <glyph glyph-name="odieresis" unicode="&#xf6;" horiz-adv-x="1220" 
d="M563 -20q-90 0 -178.5 32t-164 92t-122.5 159t-47 220q0 168 83 307t222 217t303 78q71 0 142.5 -19.5t138 -61t117.5 -99.5t81.5 -142.5t30.5 -182.5q0 -167 -83 -305.5t-221.5 -216.5t-301.5 -78zM307 1212l27 273h258l-31 -273h-254zM319 492q0 -126 78.5 -197.5
t180.5 -71.5q131 0 228 94.5t97 253.5q0 66 -23 119t-61 85.5t-83.5 49.5t-92.5 17q-130 0 -227 -95t-97 -255zM807 1212l29 273h258l-31 -273h-256z" />
    <glyph glyph-name="divide" unicode="&#xf7;" horiz-adv-x="1085" 
d="M80 449l33 229h895l-31 -229h-897zM362 207q0 69 46 113.5t112 44.5q65 0 110.5 -44.5t45.5 -113.5t-45.5 -113.5t-110.5 -44.5q-66 0 -112 44.5t-46 113.5zM453 922q0 69 45.5 113t111.5 44q65 0 110.5 -44t45.5 -113t-45.5 -113.5t-110.5 -44.5q-66 0 -111.5 44.5
t-45.5 113.5z" />
    <glyph glyph-name="oslash" unicode="&#xf8;" horiz-adv-x="1220" 
d="M111 -102l116 200q-176 145 -176 385q0 168 83 307t222 217t303 78q69 0 136 -18l67 117h258l-127 -217q176 -145 176 -387q0 -167 -83 -305.5t-221.5 -216.5t-301.5 -78q-67 0 -135 18l-59 -100h-258zM319 492q0 -88 46 -158l297 508h-19q-130 0 -227 -95t-97 -255z
M559 223h19q131 0 228 94.5t97 253.5q0 92 -47 162z" />
    <glyph glyph-name="ugrave" unicode="&#xf9;" horiz-adv-x="1212" 
d="M1163 1065l-110 -1065h-275l15 141q-119 -161 -338 -161q-84 0 -153 26.5t-121 80t-75.5 143.5t-11.5 208l66 627h274l-59 -582q-12 -118 42.5 -188t162.5 -70t171.5 69t75.5 189l62 582h274zM365 1516h227l180 -322h-223z" />
    <glyph glyph-name="uacute" unicode="&#xfa;" horiz-adv-x="1212" 
d="M1163 1065l-110 -1065h-275l15 141q-119 -161 -338 -161q-84 0 -153 26.5t-121 80t-75.5 143.5t-11.5 208l66 627h274l-59 -582q-12 -118 42.5 -188t162.5 -70t171.5 69t75.5 189l62 582h274zM555 1194l178 322h230l-185 -322h-223z" />
    <glyph glyph-name="ucircumflex" unicode="&#xfb;" horiz-adv-x="1212" 
d="M1163 1065l-110 -1065h-275l15 141q-119 -161 -338 -161q-84 0 -153 26.5t-121 80t-75.5 143.5t-11.5 208l66 627h274l-59 -582q-12 -118 42.5 -188t162.5 -70t171.5 69t75.5 189l62 582h274zM367 1257l256 259h182l201 -259l-129 -116l-179 217l-209 -217z" />
    <glyph glyph-name="udieresis" unicode="&#xfc;" horiz-adv-x="1212" 
d="M1163 1065l-110 -1065h-275l15 141q-119 -161 -338 -161q-84 0 -153 26.5t-121 80t-75.5 143.5t-11.5 208l66 627h274l-59 -582q-12 -118 42.5 -188t162.5 -70t171.5 69t75.5 189l62 582h274zM303 1212l27 273h258l-31 -273h-254zM803 1212l28 273h259l-31 -273h-256z
" />
    <glyph glyph-name="yacute" unicode="&#xfd;" horiz-adv-x="1216" 
d="M201 -389l217 409l-332 1045h283l215 -737l368 737h287l-762 -1454h-276zM537 1194l178 322h229l-184 -322h-223z" />
    <glyph glyph-name="thorn" unicode="&#xfe;" horiz-adv-x="1269" 
d="M8 -389l199 1874h274l-61 -547q2 12 25.5 34.5t62.5 48t101 44t128 18.5q76 0 149 -22t137.5 -68.5t111 -112t68.5 -158.5t11 -202q-12 -107 -52.5 -197.5t-98.5 -152.5t-129.5 -105.5t-145.5 -64t-147 -20.5q-134 0 -217.5 63t-79.5 111l-61 -543h-275zM367 520
q-14 -142 55.5 -219.5t183.5 -77.5q81 0 154 35.5t126 111t64 177.5q14 137 -63 215t-195 78q-122 0 -215.5 -84.5t-109.5 -235.5z" />
    <glyph glyph-name="ydieresis" unicode="&#xff;" horiz-adv-x="1216" 
d="M201 -389l217 409l-332 1045h283l215 -737l368 737h287l-762 -1454h-276zM285 1212l26 273h258l-30 -273h-254zM784 1212l29 273h258l-31 -273h-256z" />
    <glyph glyph-name="Amacron" unicode="&#x100;" horiz-adv-x="1462" 
d="M977 1454l397 -1454h-305l-65 262h-603l-122 -262h-304l705 1454h297zM453 1581l22 209h770l-22 -209h-770zM520 520h418l-145 584z" />
    <glyph glyph-name="amacron" unicode="&#x101;" 
d="M508 -20q-89 0 -170 32t-145.5 91.5t-103 155.5t-38.5 214q0 167 73 307.5t201.5 222.5t284.5 82q132 0 219 -53t111 -110h12l17 143h274l-110 -1065h-277l16 143h-12q-31 -55 -129.5 -109t-222.5 -54zM326 496q0 -70 23 -124t61 -85t84 -46.5t96 -15.5q62 0 120.5 23
t106 65.5t76.5 109t29 146.5q0 70 -23 124t-62.5 85t-85 46.5t-96.5 15.5q-83 0 -157 -39t-123 -119t-49 -186zM332 1212l22 209h770l-22 -209h-770z" />
    <glyph glyph-name="Abreve" unicode="&#x102;" horiz-adv-x="1462" 
d="M977 1454l397 -1454h-305l-65 262h-603l-122 -262h-304l705 1454h297zM520 520h418l-145 584zM537 1884h168q-7 -73 25 -122.5t114 -49.5q83 0 123 49.5t45 122.5h168q-6 -63 -30 -119t-65.5 -103t-108 -75t-149.5 -28q-84 0 -145.5 28t-94 75t-45 103.5t-5.5 118.5z" />
    <glyph glyph-name="abreve" unicode="&#x103;" 
d="M508 -20q-89 0 -170 32t-145.5 91.5t-103 155.5t-38.5 214q0 167 73 307.5t201.5 222.5t284.5 82q132 0 219 -53t111 -110h12l17 143h274l-110 -1065h-277l16 143h-12q-31 -55 -129.5 -109t-222.5 -54zM326 496q0 -70 23 -124t61 -85t84 -46.5t96 -15.5q62 0 120.5 23
t106 65.5t76.5 109t29 146.5q0 70 -23 124t-62.5 85t-85 46.5t-96.5 15.5q-83 0 -157 -39t-123 -119t-49 -186zM416 1516h168q-7 -73 25 -123t114 -50q83 0 123 50t45 123h168q-6 -63 -30 -119t-65 -103.5t-107.5 -75.5t-149.5 -28q-68 0 -121.5 18.5t-87 50t-54.5 74
t-27.5 88.5t-0.5 95z" />
    <glyph glyph-name="Aogonek" unicode="&#x104;" horiz-adv-x="1462" 
d="M977 1454l397 -1454q-131 -33 -215 -84.5t-84 -120.5q0 -57 49.5 -82t102.5 -2l-13 -117q-46 -27 -112 -33t-128 9t-105.5 61.5t-43.5 116.5q0 88 69 151.5t181 100.5h-6l-65 262h-603l-122 -262h-304l705 1454h297zM520 520h418l-145 584z" />
    <glyph glyph-name="aogonek" unicode="&#x105;" 
d="M508 -20q-89 0 -170 32t-145.5 91.5t-103 155.5t-38.5 214q0 167 73 307.5t201.5 222.5t284.5 82q132 0 219 -53t111 -110h12l17 143h274l-110 -1065q-131 -33 -215 -84.5t-84 -120.5q0 -57 49 -82t102 -2l-12 -117q-46 -27 -112 -33t-128 9t-105.5 61.5t-43.5 116.5
q0 93 75.5 158t196.5 100l16 137h-12q-31 -55 -129.5 -109t-222.5 -54zM326 496q0 -70 23 -124t61 -85t84 -46.5t96 -15.5q62 0 120.5 23t106 65.5t76.5 109t29 146.5q0 70 -23 124t-62.5 85t-85 46.5t-96.5 15.5q-83 0 -157 -39t-123 -119t-49 -186z" />
    <glyph glyph-name="Cacute" unicode="&#x106;" horiz-adv-x="1380" 
d="M782 -20q-142 0 -267 47.5t-217 133t-145 213t-53 279.5q0 170 66.5 323t178 262t263 173t316.5 64q79 0 153.5 -15.5t150.5 -49.5t142.5 -98.5t112.5 -152.5l-215 -143q-125 192 -361 192q-218 0 -369 -149.5t-151 -370.5q0 -201 122.5 -321.5t307.5 -120.5
q225 0 389 192l185 -143q-85 -117 -194.5 -190t-208.5 -99t-206 -26zM752 1563l178 321h229l-184 -321h-223z" />
    <glyph glyph-name="cacute" unicode="&#x107;" horiz-adv-x="1128" 
d="M569 -20q-103 0 -195.5 32t-165 92.5t-115 156.5t-42.5 214q0 172 83.5 313t223 219t304.5 78q150 0 267.5 -67.5t176.5 -194.5l-215 -129q-35 65 -99.5 104.5t-146.5 39.5q-130 0 -225.5 -91.5t-95.5 -240.5q0 -127 76.5 -203t189.5 -76q81 0 150.5 39.5t115.5 104.5
l188 -129q-175 -262 -475 -262zM512 1194l178 322h230l-185 -322h-223z" />
    <glyph glyph-name="Ccircumflex" unicode="&#x108;" horiz-adv-x="1478" 
d="M782 -20q-142 0 -267 47.5t-217 133t-145 213t-53 279.5q0 170 66.5 323t178 262t263 173t316.5 64q79 0 153.5 -15.5t150.5 -49.5t142.5 -98.5t112.5 -152.5l-215 -143q-125 192 -361 192q-218 0 -369 -149.5t-151 -370.5q0 -201 122.5 -321.5t307.5 -120.5
q225 0 389 192l185 -143q-85 -117 -194.5 -190t-208.5 -99t-206 -26zM627 1647l256 258h182l201 -258l-129 -117l-179 217l-208 -217z" />
    <glyph glyph-name="ccircumflex" unicode="&#x109;" horiz-adv-x="1128" 
d="M569 -20q-103 0 -195.5 32t-165 92.5t-115 156.5t-42.5 214q0 172 83.5 313t223 219t304.5 78q150 0 267.5 -67.5t176.5 -194.5l-215 -129q-35 65 -99.5 104.5t-146.5 39.5q-130 0 -225.5 -91.5t-95.5 -240.5q0 -127 76.5 -203t189.5 -76q81 0 150.5 39.5t115.5 104.5
l188 -129q-175 -262 -475 -262zM326 1257l256 259h182l201 -259l-129 -116l-179 217l-208 -217z" />
    <glyph glyph-name="Cdotaccent" unicode="&#x10a;" horiz-adv-x="1380" 
d="M782 -20q-142 0 -267 47.5t-217 133t-145 213t-53 279.5q0 170 66.5 323t178 262t263 173t316.5 64q79 0 153.5 -15.5t150.5 -49.5t142.5 -98.5t112.5 -152.5l-215 -143q-125 192 -361 192q-218 0 -369 -149.5t-151 -370.5q0 -201 122.5 -321.5t307.5 -120.5
q225 0 389 192l185 -143q-85 -117 -194.5 -190t-208.5 -99t-206 -26zM733 1581l27 272h276l-28 -272h-275z" />
    <glyph glyph-name="cdotaccent" unicode="&#x10b;" horiz-adv-x="1128" 
d="M569 -20q-103 0 -195.5 32t-165 92.5t-115 156.5t-42.5 214q0 172 83.5 313t223 219t304.5 78q150 0 267.5 -67.5t176.5 -194.5l-215 -129q-35 65 -99.5 104.5t-146.5 39.5q-130 0 -225.5 -91.5t-95.5 -240.5q0 -127 76.5 -203t189.5 -76q81 0 150.5 39.5t115.5 104.5
l188 -129q-175 -262 -475 -262zM498 1212l26 273h277l-29 -273h-274z" />
    <glyph glyph-name="Ccaron" unicode="&#x10c;" horiz-adv-x="1380" 
d="M782 -20q-142 0 -267 47.5t-217 133t-145 213t-53 279.5q0 170 66.5 323t178 262t263 173t316.5 64q79 0 153.5 -15.5t150.5 -49.5t142.5 -98.5t112.5 -152.5l-215 -143q-125 192 -361 192q-218 0 -369 -149.5t-151 -370.5q0 -201 122.5 -321.5t307.5 -120.5
q225 0 389 192l185 -143q-85 -117 -194.5 -190t-208.5 -99t-206 -26zM563 1767l129 117l176 -217l211 217l123 -117l-256 -258h-182z" />
    <glyph glyph-name="ccaron" unicode="&#x10d;" horiz-adv-x="1128" 
d="M569 -20q-103 0 -195.5 32t-165 92.5t-115 156.5t-42.5 214q0 172 83.5 313t223 219t304.5 78q150 0 267.5 -67.5t176.5 -194.5l-215 -129q-35 65 -99.5 104.5t-146.5 39.5q-130 0 -225.5 -91.5t-95.5 -240.5q0 -127 76.5 -203t189.5 -76q81 0 150.5 39.5t115.5 104.5
l188 -129q-175 -262 -475 -262zM334 1399l129 117l176 -218l211 218l123 -117l-256 -258h-182z" />
    <glyph glyph-name="Dcaron" unicode="&#x10e;" horiz-adv-x="1394" 
d="M49 0l152 1454h512q138 0 257.5 -50t204 -138t133 -213.5t48.5 -272.5q0 -163 -61.5 -308.5t-166.5 -248.5t-250 -163t-305 -60h-524zM356 264h222q221 0 353 144t132 364q0 189 -101.5 303.5t-287.5 114.5h-221zM500 1759l129 117l176 -217l211 217l123 -117l-256 -258
h-183z" />
    <glyph glyph-name="dcaron" unicode="&#x10f;" horiz-adv-x="1359" 
d="M508 -20q-89 0 -170 32t-145.5 91.5t-103 155.5t-38.5 214q0 167 73 307.5t201.5 222.5t284.5 82q132 0 219 -53t111 -110h12l58 532h274l-151 -1454h-277l16 143h-12q-31 -55 -129.5 -109t-222.5 -54zM326 496q0 -70 23 -124t61 -85t84 -46.5t96 -15.5q62 0 120.5 23
t106 65.5t76.5 109t29 146.5q0 70 -23 124t-62.5 85t-85 46.5t-96.5 15.5q-83 0 -157 -39t-123 -119t-49 -186zM1352 1163l178 322h229l-184 -322h-223z" />
    <glyph glyph-name="Dcroat" unicode="&#x110;" horiz-adv-x="1519" 
d="M176 0l62 588h-119l22 229h119l68 617h493q121 0 229.5 -36.5t191 -103.5t140 -156t82.5 -199t13 -228q-21 -196 -132.5 -359t-287.5 -257.5t-377 -94.5h-504zM483 264h213q104 0 193.5 37.5t152 102t102 150t50.5 183.5q13 117 -26 213.5t-134.5 157.5t-232.5 61h-221
l-39 -352h235l-22 -229h-236z" />
    <glyph glyph-name="dcroat" unicode="&#x111;" horiz-adv-x="1333" 
d="M578 1161l20 207h401l11 86h274l-8 -86h106l-20 -207h-109l-120 -1161h-277l16 143h-12q-31 -55 -129.5 -109t-222.5 -54q-89 0 -170 32t-145.5 91.5t-103 155.5t-38.5 214q0 167 73 307.5t201.5 222.5t284.5 82q132 0 219 -53t111 -110h12l27 239h-401zM326 496
q0 -70 23 -124t61 -85t84 -46.5t96 -15.5q62 0 120.5 23t106 65.5t76.5 109t29 146.5q0 70 -23 124t-62.5 85t-85 46.5t-96.5 15.5q-83 0 -157 -39t-123 -119t-49 -186z" />
    <glyph glyph-name="Emacron" unicode="&#x112;" horiz-adv-x="1017" 
d="M49 0l152 1454h823l-25 -258h-544l-35 -338h454l-26 -254h-455l-37 -346h559l-24 -258h-842zM250 1602l22 208h770l-22 -208h-770z" />
    <glyph glyph-name="emacron" unicode="&#x113;" horiz-adv-x="1169" 
d="M561 -20q-103 0 -194.5 33t-162.5 95t-112 159.5t-41 217.5q0 167 79 305t214 216.5t295 78.5q85 0 163.5 -24t147.5 -74.5t112 -128.5t56.5 -185.5t-18.5 -246.5h-797q21 -108 103 -164.5t202 -56.5q158 0 283 96l108 -133q-80 -87 -192.5 -137.5t-245.5 -50.5z
M264 1212l23 209h770l-23 -209h-770zM315 627h562q-4 111 -78 169t-181 58q-111 0 -190.5 -62t-112.5 -165z" />
    <glyph glyph-name="Edotaccent" unicode="&#x116;" horiz-adv-x="1017" 
d="M49 0l152 1454h823l-25 -258h-544l-35 -338h454l-26 -254h-455l-37 -346h559l-24 -258h-842zM498 1602l26 272h277l-29 -272h-274z" />
    <glyph glyph-name="edotaccent" unicode="&#x117;" horiz-adv-x="1169" 
d="M561 -20q-103 0 -194.5 33t-162.5 95t-112 159.5t-41 217.5q0 167 79 305t214 216.5t295 78.5q85 0 163.5 -24t147.5 -74.5t112 -128.5t56.5 -185.5t-18.5 -246.5h-797q21 -108 103 -164.5t202 -56.5q158 0 283 96l108 -133q-80 -87 -192.5 -137.5t-245.5 -50.5zM315 627
h562q-4 111 -78 169t-181 58q-111 0 -190.5 -62t-112.5 -165zM512 1212l27 273h276l-29 -273h-274z" />
    <glyph glyph-name="Eogonek" unicode="&#x118;" horiz-adv-x="1017" 
d="M49 0l152 1454h823l-25 -258h-544l-35 -338h454l-26 -254h-455l-37 -346h559l-24 -258q-131 -33 -215 -84.5t-84 -120.5q0 -57 49 -82t102 -2l-12 -117q-46 -27 -112 -33t-128 9t-105.5 61.5t-43.5 116.5q0 88 69 151.5t181 100.5h-543z" />
    <glyph glyph-name="eogonek" unicode="&#x119;" horiz-adv-x="1169" 
d="M551 -406q-46 -27 -112 -33t-128 9t-105.5 61.5t-43.5 116.5q0 88 68 150.5t180 99.5q-160 43 -259.5 169t-99.5 318q0 167 79 305t214 216.5t295 78.5q85 0 163.5 -24t147.5 -74.5t112 -128.5t56.5 -185.5t-18.5 -246.5h-797q21 -108 103 -164.5t202 -56.5q158 0 283 96
l108 -133q-135 -145 -329 -178q-258 -77 -258 -195q0 -57 49 -82t102 -2zM315 627h562q-4 111 -78 169t-181 58q-111 0 -190.5 -62t-112.5 -165z" />
    <glyph glyph-name="Ecaron" unicode="&#x11a;" horiz-adv-x="1017" 
d="M49 0l152 1454h823l-25 -258h-544l-35 -338h454l-26 -254h-455l-37 -346h559l-24 -258h-842zM334 1788l129 117l176 -217l211 217l123 -117l-256 -258h-182z" />
    <glyph glyph-name="ecaron" unicode="&#x11b;" horiz-adv-x="1169" 
d="M561 -20q-103 0 -194.5 33t-162.5 95t-112 159.5t-41 217.5q0 167 79 305t214 216.5t295 78.5q85 0 163.5 -24t147.5 -74.5t112 -128.5t56.5 -185.5t-18.5 -246.5h-797q21 -108 103 -164.5t202 -56.5q158 0 283 96l108 -133q-80 -87 -192.5 -137.5t-245.5 -50.5zM315 627
h562q-4 111 -78 169t-181 58q-111 0 -190.5 -62t-112.5 -165zM348 1399l129 117l176 -218l211 218l123 -117l-256 -258h-182z" />
    <glyph glyph-name="Gcircumflex" unicode="&#x11c;" horiz-adv-x="1585" 
d="M776 -20q-140 0 -263.5 47t-215 132.5t-144.5 212.5t-53 279q0 226 110 416t298 299t410 109q63 0 122.5 -9t123.5 -31.5t119.5 -57.5t107 -91t88.5 -127l-215 -143q-115 194 -359 194q-144 0 -263 -70t-187 -191t-68 -267q0 -198 121.5 -321t310.5 -123q143 0 252 75
t156 234h-353l23 235h623q4 -147 -33.5 -276t-107.5 -224.5t-164.5 -164t-206.5 -103t-232 -34.5zM594 1647l256 258h182l201 -258l-129 -117l-178 217l-209 -217z" />
    <glyph glyph-name="gcircumflex" unicode="&#x11d;" 
d="M526 -426q-94 0 -177.5 18t-127.5 48l25 223q36 -26 108 -43t152 -17q152 0 249 68.5t109 189.5l8 82h-12q-31 -54 -129.5 -108.5t-222.5 -54.5q-87 0 -167.5 31.5t-146 90.5t-104.5 154t-39 211q0 133 45 249t120.5 196.5t177 126.5t212.5 46q130 0 220 -53.5
t114 -109.5h12l17 143h274l-102 -985q-12 -117 -58 -208.5t-107.5 -146.5t-142 -90t-155 -48t-152.5 -13zM326 498q0 -130 75 -201.5t189 -71.5q138 0 235 97.5t97 244.5q0 130 -76 201.5t-191 71.5q-137 0 -233 -99t-96 -243zM406 1257l256 259h182l200 -259l-129 -116
l-178 217l-209 -217z" />
    <glyph glyph-name="Gbreve" unicode="&#x11e;" horiz-adv-x="1560" 
d="M776 -20q-140 0 -263.5 47t-215 132.5t-144.5 212.5t-53 279q0 226 110 416t298 299t410 109q63 0 122.5 -9t123.5 -31.5t119.5 -57.5t107 -91t88.5 -127l-215 -143q-115 194 -359 194q-144 0 -263 -70t-187 -191t-68 -267q0 -198 121.5 -321t310.5 -123q143 0 252 75
t156 234h-353l23 235h623q4 -147 -33.5 -276t-107.5 -224.5t-164.5 -164t-206.5 -103t-232 -34.5zM547 1884h168q-7 -73 25 -122.5t114 -49.5q83 0 123 49.5t45 122.5h168q-6 -63 -29.5 -119t-65 -103t-108 -75t-149.5 -28q-84 0 -146 28t-94.5 75t-45 103.5t-5.5 118.5z
" />
    <glyph glyph-name="gbreve" unicode="&#x11f;" horiz-adv-x="1265" 
d="M526 -426q-94 0 -177.5 18t-127.5 48l25 223q36 -26 108 -43t152 -17q152 0 249 68.5t109 189.5l8 82h-12q-31 -54 -129.5 -108.5t-222.5 -54.5q-87 0 -167.5 31.5t-146 90.5t-104.5 154t-39 211q0 133 45 249t120.5 196.5t177 126.5t212.5 46q130 0 220 -53.5
t114 -109.5h12l17 143h274l-102 -985q-12 -117 -58 -208.5t-107.5 -146.5t-142 -90t-155 -48t-152.5 -13zM326 498q0 -130 75 -201.5t189 -71.5q138 0 235 97.5t97 244.5q0 130 -76 201.5t-191 71.5q-137 0 -233 -99t-96 -243zM479 1516h168q-7 -73 25 -123t114 -50
q83 0 123 50t45 123h168q-6 -63 -30 -119t-65 -103.5t-107.5 -75.5t-149.5 -28q-68 0 -121.5 18.5t-87 50t-54.5 74t-27.5 88.5t-0.5 95z" />
    <glyph glyph-name="Gdotaccent" unicode="&#x120;" horiz-adv-x="1560" 
d="M776 -20q-140 0 -263.5 47t-215 132.5t-144.5 212.5t-53 279q0 226 110 416t298 299t410 109q63 0 122.5 -9t123.5 -31.5t119.5 -57.5t107 -91t88.5 -127l-215 -143q-115 194 -359 194q-144 0 -263 -70t-187 -191t-68 -267q0 -198 121.5 -321t310.5 -123q143 0 252 75
t156 234h-353l23 235h623q4 -147 -33.5 -276t-107.5 -224.5t-164.5 -164t-206.5 -103t-232 -34.5zM729 1581l27 272h276l-28 -272h-275z" />
    <glyph glyph-name="gdotaccent" unicode="&#x121;" 
d="M526 -426q-94 0 -177.5 18t-127.5 48l25 223q36 -26 108 -43t152 -17q152 0 249 68.5t109 189.5l8 82h-12q-31 -54 -129.5 -108.5t-222.5 -54.5q-87 0 -167.5 31.5t-146 90.5t-104.5 154t-39 211q0 133 45 249t120.5 196.5t177 126.5t212.5 46q130 0 220 -53.5
t114 -109.5h12l17 143h274l-102 -985q-12 -117 -58 -208.5t-107.5 -146.5t-142 -90t-155 -48t-152.5 -13zM326 498q0 -130 75 -201.5t189 -71.5q138 0 235 97.5t97 244.5q0 130 -76 201.5t-191 71.5q-137 0 -233 -99t-96 -243zM580 1212l26 273h277l-29 -273h-274z" />
    <glyph glyph-name="uni0122" unicode="&#x122;" horiz-adv-x="1585" 
d="M776 -20q-140 0 -263.5 47t-215 132.5t-144.5 212.5t-53 279q0 226 110 416t298 299t410 109q63 0 122.5 -9t123.5 -31.5t119.5 -57.5t107 -91t88.5 -127l-215 -143q-115 194 -359 194q-144 0 -263 -70t-187 -191t-68 -267q0 -198 121.5 -321t310.5 -123q143 0 252 75
t156 234h-353l23 235h623q4 -147 -33.5 -276t-107.5 -224.5t-164.5 -164t-206.5 -103t-232 -34.5zM371 -621l245 535h240l-248 -535h-237z" />
    <glyph glyph-name="uni0123" unicode="&#x123;" 
d="M526 -426q-94 0 -177.5 18t-127.5 48l25 223q36 -26 108 -43t152 -17q152 0 249 68.5t109 189.5l8 82h-12q-31 -54 -129.5 -108.5t-222.5 -54.5q-87 0 -167.5 31.5t-146 90.5t-104.5 154t-39 211q0 133 45 249t120.5 196.5t177 126.5t212.5 46q130 0 220 -53.5
t114 -109.5h12l17 143h274l-102 -985q-12 -117 -58 -208.5t-107.5 -146.5t-142 -90t-155 -48t-152.5 -13zM326 498q0 -130 75 -201.5t189 -71.5q138 0 235 97.5t97 244.5q0 130 -76 201.5t-191 71.5q-137 0 -233 -99t-96 -243zM584 1151l247 535h238l-246 -535h-239z" />
    <glyph glyph-name="Hcircumflex" unicode="&#x124;" horiz-adv-x="1368" 
d="M928 0l61 586h-600l-61 -586h-281l154 1454h280l-63 -610h600l63 610h281l-154 -1454h-280zM485 1647l256 258h183l200 -258l-129 -117l-178 217l-209 -217z" />
    <glyph glyph-name="hcircumflex" unicode="&#x125;" horiz-adv-x="1212" 
d="M49 0l154 1454h276l-57 -528q120 159 336 159q176 0 279.5 -114.5t80.5 -343.5l-65 -627h-275l60 582q14 118 -41.5 188t-163.5 70t-172 -69t-76 -189l-61 -582h-275zM45 1647l256 258h182l201 -258l-129 -117l-178 217l-209 -217z" />
    <glyph glyph-name="Hbar" unicode="&#x126;" horiz-adv-x="1370" 
d="M49 0l152 1434h280l-20 -179h598l20 179h281l-152 -1434h-280l61 586h-600l-59 -586h-281zM418 844h598l18 151h-598z" />
    <glyph glyph-name="hbar" unicode="&#x127;" horiz-adv-x="1220" 
d="M12 1141l15 147h168l18 166h276l-18 -166h205l-14 -147h-207l-23 -215q120 159 336 159q176 0 279.5 -114.5t80.5 -343.5l-65 -627h-275l60 582q14 118 -41.5 188t-163.5 70t-172 -69t-76 -189l-61 -582h-275l121 1141h-168z" />
    <glyph glyph-name="Itilde" unicode="&#x128;" horiz-adv-x="489" 
d="M49 0l154 1454h278l-151 -1454h-281zM10 1626q10 117 71.5 181.5t147.5 64.5q52 0 97.5 -27t81 -53.5t63.5 -26.5t48.5 18t23.5 50h186q-9 -118 -71 -183t-148 -65q-41 0 -78.5 17t-60 37.5t-50.5 37.5t-51 17q-26 0 -48 -18.5t-25 -49.5h-187z" />
    <glyph glyph-name="itilde" unicode="&#x129;" horiz-adv-x="485" 
d="M49 0l113 1065h274l-112 -1065h-275zM-33 1237q10 117 71.5 181.5t147.5 64.5q41 0 79 -16.5t61.5 -37t51 -37t50.5 -16.5q28 0 48.5 18t23.5 50h186q-9 -118 -71 -183t-148 -65q-41 0 -78.5 17t-60 37.5t-50.5 37.5t-51 17q-26 0 -48 -18.5t-25 -49.5h-187z" />
    <glyph glyph-name="Imacron" unicode="&#x12a;" horiz-adv-x="489" 
d="M49 0l154 1454h278l-151 -1454h-281zM-29 1602l23 208h770l-23 -208h-770z" />
    <glyph glyph-name="imacron" unicode="&#x12b;" horiz-adv-x="485" 
d="M49 0l113 1065h274l-112 -1065h-275zM-74 1212l23 209h770l-23 -209h-770z" />
    <glyph glyph-name="Iogonek" unicode="&#x12e;" horiz-adv-x="489" 
d="M170 -406q-46 -27 -112 -33t-128 9t-105.5 61.5t-43.5 116.5q0 93 74 158t194 100l154 1448h278l-151 -1454q-131 -33 -215 -84.5t-84 -120.5q0 -57 49 -82t102 -2z" />
    <glyph glyph-name="iogonek" unicode="&#x12f;" horiz-adv-x="485" 
d="M176 1212l27 273h276l-28 -273h-275zM-225 -252q0 94 75.5 159.5t198.5 100.5l113 1057h274l-112 -1065q-131 -33 -215 -84.5t-84 -120.5q0 -57 49 -82t102 -2l-12 -117q-46 -27 -112 -33t-128 9t-105.5 61.5t-43.5 116.5z" />
    <glyph glyph-name="Idotaccent" unicode="&#x130;" horiz-adv-x="489" 
d="M49 0l154 1454h278l-151 -1454h-281zM219 1602l27 272h276l-28 -272h-275z" />
    <glyph glyph-name="dotlessi" unicode="&#x131;" horiz-adv-x="485" 
d="M49 0l113 1065h274l-112 -1065h-275z" />
    <glyph glyph-name="IJ" unicode="&#x132;" horiz-adv-x="1605" 
d="M956 -25q-287 0 -424 203l187 195q39 -54 97.5 -90.5t131.5 -36.5q41 0 79.5 11.5t81 39.5t72.5 86.5t40 140.5l94 910h280l-100 -957q-11 -108 -51.5 -196t-96.5 -143.5t-125 -93.5t-135.5 -53.5t-130.5 -15.5zM49 0l152 1434h280l-151 -1434h-281z" />
    <glyph glyph-name="ij" unicode="&#x133;" horiz-adv-x="968" 
d="M49 0l111 1065h274l-110 -1065h-275zM174 1212l25 242h276l-24 -242h-277zM199 -395l28 254h60q60 0 101 9.5t75 35t54 72.5t28 120l100 969h277l-105 -995q-27 -246 -158.5 -355.5t-386.5 -109.5h-73zM662 1212l24 242h277l-25 -242h-276z" />
    <glyph glyph-name="Jcircumflex" unicode="&#x134;" horiz-adv-x="1060" 
d="M428 -20q-145 0 -256.5 59.5t-165.5 159.5l201 182q33 -55 89 -93t134 -38q27 0 52.5 4.5t59 21t59 44t47 79t28.5 119.5l98 936h281l-105 -973q-11 -109 -46.5 -196t-86 -143t-115.5 -93.5t-132.5 -53t-141.5 -15.5zM621 1647l256 258h182l201 -258l-130 -117l-178 217
l-209 -217z" />
    <glyph glyph-name="jcircumflex" unicode="&#x135;" horiz-adv-x="487" 
d="M-283 -395l29 254h59q60 0 101 9.5t75 35t54 72.5t28 120l101 969h276l-104 -995q-27 -246 -158.5 -355.5t-386.5 -109.5h-74zM0 1257l256 259h182l201 -259l-129 -116l-178 217l-209 -217z" />
    <glyph glyph-name="uni0136" unicode="&#x136;" horiz-adv-x="1323" 
d="M49 0l152 1454h280l-71 -692l598 692h315l-582 -655l496 -799h-297l-379 596l-192 -217l-39 -379h-281zM268 -621l246 535h240l-248 -535h-238z" />
    <glyph glyph-name="uni0137" unicode="&#x137;" horiz-adv-x="1183" 
d="M160 -530l155 475h367l-270 -475h-252zM49 0l152 1454h274l-90 -870l446 481h336l-477 -494l408 -571h-310l-274 389l-168 -174l-22 -215h-275z" />
    <glyph glyph-name="Lacute" unicode="&#x139;" horiz-adv-x="1013" 
d="M49 0l154 1454h278l-125 -1196h566l-27 -258h-846zM227 1583l179 322h229l-184 -322h-224z" />
    <glyph glyph-name="lacute" unicode="&#x13a;" horiz-adv-x="544" 
d="M49 0l154 1448h274l-153 -1448h-275zM240 1552l168 265h333l-286 -265h-215z" />
    <glyph glyph-name="uni013B" unicode="&#x13b;" horiz-adv-x="1013" 
d="M49 0l154 1454h278l-125 -1196h566l-27 -258h-846zM100 -621l246 535h240l-248 -535h-238z" />
    <glyph glyph-name="uni013C" unicode="&#x13c;" horiz-adv-x="483" 
d="M49 0l152 1454h274l-151 -1454h-275zM-180 -621l246 535h239l-248 -535h-237z" />
    <glyph glyph-name="Lcaron" unicode="&#x13d;" horiz-adv-x="1013" 
d="M518 895l252 537h244l-258 -537h-238zM49 0l154 1454h278l-125 -1196h566l-27 -258h-846z" />
    <glyph glyph-name="lcaron" unicode="&#x13e;" horiz-adv-x="768" 
d="M49 0l152 1454h274l-151 -1454h-275zM465 940l246 535h239l-248 -535h-237z" />
    <glyph glyph-name="Ldot" unicode="&#x13f;" horiz-adv-x="1013" 
d="M782 590q-70 0 -113.5 49t-37.5 121q8 60 54.5 101.5t109.5 41.5q71 0 113.5 -49t35.5 -121q-8 -61 -54 -102t-108 -41zM49 0l154 1454h278l-125 -1196h566l-27 -258h-846z" />
    <glyph glyph-name="ldot" unicode="&#x140;" horiz-adv-x="704" 
d="M49 0l152 1454h274l-151 -1454h-275zM537 733q0 69 45.5 113.5t111.5 44.5q65 0 110.5 -44.5t45.5 -113.5t-45.5 -113.5t-110.5 -44.5q-66 0 -111.5 44.5t-45.5 113.5z" />
    <glyph glyph-name="Lslash" unicode="&#x141;" horiz-adv-x="1099" 
d="M125 0l47 412l-139 -131l22 282l140 131l81 740h281l-49 -445l197 189h4l-25 -281l-201 -190l-49 -449h574l-29 -258h-854z" />
    <glyph glyph-name="lslash" unicode="&#x142;" horiz-adv-x="528" 
d="M-31 338l23 233l178 166l76 717h274l-45 -438l125 117h2l-24 -232l-127 -119l-82 -782h-275l53 502z" />
    <glyph glyph-name="Nacute" unicode="&#x143;" horiz-adv-x="1447" 
d="M49 0l152 1454h284l559 -993h13l102 993h281l-152 -1454h-284l-560 993h-12l-102 -993h-281zM711 1583l178 322h229l-184 -322h-223z" />
    <glyph glyph-name="nacute" unicode="&#x144;" horiz-adv-x="1212" 
d="M49 0l111 1065h274l-14 -141q119 161 338 161q176 0 279.5 -114.5t80.5 -343.5l-65 -627h-275l60 582q12 118 -42.5 188t-162.5 70t-172 -69t-76 -189l-61 -582h-275zM555 1194l178 322h230l-185 -322h-223z" />
    <glyph glyph-name="uni0145" unicode="&#x145;" horiz-adv-x="1447" 
d="M49 0l152 1454h284l559 -993h13l102 993h281l-152 -1454h-284l-560 993h-12l-102 -993h-281zM301 -621l246 535h239l-247 -535h-238z" />
    <glyph glyph-name="uni0146" unicode="&#x146;" horiz-adv-x="1212" 
d="M49 0l111 1065h274l-14 -141q119 161 338 161q176 0 279.5 -114.5t80.5 -343.5l-65 -627h-275l60 582q12 118 -42.5 188t-162.5 70t-172 -69t-76 -189l-61 -582h-275zM186 -621l246 535h240l-248 -535h-238z" />
    <glyph glyph-name="Ncaron" unicode="&#x147;" horiz-adv-x="1447" 
d="M49 0l152 1454h284l559 -993h13l102 993h281l-152 -1454h-284l-560 993h-12l-102 -993h-281zM532 1788l130 117l176 -217l211 217l122 -117l-256 -258h-182z" />
    <glyph glyph-name="ncaron" unicode="&#x148;" horiz-adv-x="1212" 
d="M49 0l111 1065h274l-14 -141q119 161 338 161q176 0 279.5 -114.5t80.5 -343.5l-65 -627h-275l60 582q12 118 -42.5 188t-162.5 70t-172 -69t-76 -189l-61 -582h-275zM375 1399l129 117l176 -218l211 218l123 -117l-256 -258h-183z" />
    <glyph glyph-name="Eng" unicode="&#x14a;" horiz-adv-x="1435" 
d="M743 -430q-282 0 -419 203l182 194q99 -127 231 -127q30 0 59 5.5t63.5 22.5t62.5 44t51.5 73.5t34.5 106.5l-578 832l-100 -924h-281l152 1434h213l630 -924l97 924h286l-143 -1362q-11 -108 -52 -196t-97 -143.5t-125.5 -93.5t-136 -53.5t-130.5 -15.5z" />
    <glyph glyph-name="eng" unicode="&#x14b;" horiz-adv-x="1212" 
d="M440 -395l29 254h59q60 0 101.5 9.5t75.5 34.5t54 72t27 119l52 488q14 118 -41.5 188t-163.5 70t-172 -69t-76 -189l-61 -582h-275l111 1065h274l-14 -141q120 161 338 161q84 0 153.5 -26.5t121.5 -80t75 -144t10 -207.5l-59 -561q-26 -243 -157.5 -352t-387.5 -109
h-74z" />
    <glyph glyph-name="Omacron" unicode="&#x14c;" horiz-adv-x="1671" 
d="M784 -20q-144 0 -269.5 47.5t-217 133t-144.5 212.5t-53 278q0 170 66.5 323.5t178.5 263t265 173.5t320 64q192 0 346.5 -81t246 -235.5t91.5 -355.5q0 -170 -67 -323.5t-179.5 -262.5t-265 -173t-318.5 -64zM387 678q0 -196 120 -314t304 -118q140 0 258 69.5
t187 191.5t69 269q0 196 -119.5 314t-304.5 118q-140 0 -258 -69.5t-187 -191.5t-69 -269zM559 1602l23 208h770l-23 -208h-770z" />
    <glyph glyph-name="omacron" unicode="&#x14d;" horiz-adv-x="1220" 
d="M563 -20q-90 0 -178.5 32t-164 92t-122.5 159t-47 220q0 168 83 307t222 217t303 78q71 0 142.5 -19.5t138 -61t117.5 -99.5t81.5 -142.5t30.5 -182.5q0 -167 -83 -305.5t-221.5 -216.5t-301.5 -78zM295 1212l22 209h770l-22 -209h-770zM319 492q0 -126 78.5 -197.5
t180.5 -71.5q131 0 228 94.5t97 253.5q0 66 -23 119t-61 85.5t-83.5 49.5t-92.5 17q-130 0 -227 -95t-97 -255z" />
    <glyph glyph-name="Ohungarumlaut" unicode="&#x150;" horiz-adv-x="1671" 
d="M784 -20q-144 0 -269.5 47.5t-217 133t-144.5 212.5t-53 278q0 170 66.5 323.5t178.5 263t265 173.5t320 64q192 0 346.5 -81t246 -235.5t91.5 -355.5q0 -170 -67 -323.5t-179.5 -262.5t-265 -173t-318.5 -64zM387 678q0 -196 120 -314t304 -118q140 0 258 69.5
t187 191.5t69 269q0 196 -119.5 314t-304.5 118q-140 0 -258 -69.5t-187 -191.5t-69 -269zM651 1583l178 322h230l-185 -322h-223zM1022 1583l178 322h230l-185 -322h-223z" />
    <glyph glyph-name="ohungarumlaut" unicode="&#x151;" horiz-adv-x="1220" 
d="M563 -20q-90 0 -178.5 32t-164 92t-122.5 159t-47 220q0 168 83 307t222 217t303 78q71 0 142.5 -19.5t138 -61t117.5 -99.5t81.5 -142.5t30.5 -182.5q0 -167 -83 -305.5t-221.5 -216.5t-301.5 -78zM319 492q0 -126 78.5 -197.5t180.5 -71.5q131 0 228 94.5t97 253.5
q0 66 -23 119t-61 85.5t-83.5 49.5t-92.5 17q-130 0 -227 -95t-97 -255zM387 1194l178 322h230l-185 -322h-223zM758 1194l178 322h229l-184 -322h-223z" />
    <glyph glyph-name="OE" unicode="&#x152;" horiz-adv-x="2224" 
d="M784 -20q-144 0 -269.5 47.5t-217 133t-144.5 212.5t-53 278q0 170 66.5 323.5t178.5 263t265 173.5t320 64q271 0 461 -160l14 139h823l-24 -258h-545l-35 -338h455l-27 -254h-455l-36 -346h559l-25 -258h-842l15 133q-218 -153 -484 -153zM387 678q0 -196 120 -314
t304 -118q140 0 258 69.5t187 191.5t69 269q0 196 -119.5 314t-304.5 118q-140 0 -258 -69.5t-187 -191.5t-69 -269z" />
    <glyph glyph-name="oe" unicode="&#x153;" horiz-adv-x="2029" 
d="M1421 -20q-127 0 -235.5 49t-177.5 141q-84 -90 -200 -140t-245 -50q-90 0 -178.5 32t-164 92t-122.5 159t-47 220q0 168 83 307t222 217t303 78q113 0 223.5 -49.5t182.5 -142.5q83 91 195 141.5t239 50.5q85 0 163.5 -24t147.5 -74.5t112 -128.5t56.5 -185.5
t-18.5 -246.5h-797q21 -108 103 -164.5t202 -56.5q158 0 283 96l109 -133q-80 -87 -193 -137.5t-246 -50.5zM319 492q0 -126 78.5 -197.5t180.5 -71.5q131 0 228 94.5t97 253.5q0 66 -23 119t-61 85.5t-83.5 49.5t-92.5 17q-130 0 -227 -95t-97 -255zM1176 627h561
q-4 111 -77.5 169t-180.5 58q-111 0 -190.5 -62t-112.5 -165z" />
    <glyph glyph-name="Racute" unicode="&#x154;" horiz-adv-x="1261" 
d="M49 0l152 1454h510q215 0 341 -119.5t126 -320.5q0 -164 -85.5 -292t-232.5 -192l285 -530h-299l-248 481h-217l-51 -481h-281zM406 725h198q127 0 208 71t81 197q0 203 -236 203h-202zM618 1563l179 321h229l-184 -321h-224z" />
    <glyph glyph-name="racute" unicode="&#x155;" horiz-adv-x="835" 
d="M49 0l111 1065h274l-28 -281q43 136 133 218.5t229 82.5q44 0 74 -12l-29 -258q-30 6 -76 6q-147 0 -242 -87.5t-120 -237.5l-51 -496h-275zM369 1194l178 322h229l-184 -322h-223z" />
    <glyph glyph-name="uni0156" unicode="&#x156;" horiz-adv-x="1261" 
d="M49 0l152 1454h510q215 0 341 -119.5t126 -320.5q0 -164 -85.5 -292t-232.5 -192l285 -530h-299l-248 481h-217l-51 -481h-281zM211 -621l246 535h239l-247 -535h-238zM406 725h198q127 0 208 71t81 197q0 203 -236 203h-202z" />
    <glyph glyph-name="uni0157" unicode="&#x157;" horiz-adv-x="835" 
d="M49 0l111 1065h274l-28 -281q43 136 133 218.5t229 82.5q44 0 74 -12l-29 -258q-30 6 -76 6q-147 0 -242 -87.5t-120 -237.5l-51 -496h-275zM-195 -621l246 535h240l-248 -535h-238z" />
    <glyph glyph-name="Rcaron" unicode="&#x158;" horiz-adv-x="1261" 
d="M49 0l152 1454h510q215 0 341 -119.5t126 -320.5q0 -164 -85.5 -292t-232.5 -192l285 -530h-299l-248 481h-217l-51 -481h-281zM406 725h198q127 0 208 71t81 197q0 203 -236 203h-202zM440 1767l129 117l176 -217l211 217l123 -117l-256 -258h-182z" />
    <glyph glyph-name="rcaron" unicode="&#x159;" horiz-adv-x="835" 
d="M49 0l111 1065h274l-28 -281q43 136 133 218.5t229 82.5q44 0 74 -12l-29 -258q-30 6 -76 6q-147 0 -242 -87.5t-120 -237.5l-51 -496h-275zM190 1399l129 117l177 -218l211 218l122 -117l-256 -258h-182z" />
    <glyph glyph-name="Sacute" unicode="&#x15a;" horiz-adv-x="1128" 
d="M526 -20q-190 0 -327.5 103t-163.5 269l237 105q23 -99 92 -160t179 -61q98 0 162.5 47.5t64.5 140.5q0 73 -45.5 118.5t-151.5 88.5l-79 33q-74 31 -130 65t-103 81t-72 109t-25 138q0 186 138 302t341 116q92 0 171 -26t134 -70.5t92 -98t56 -113.5l-224 -116
q-76 174 -237 174q-84 0 -138.5 -44t-54.5 -114q0 -57 45 -101.5t148 -86.5l90 -37q175 -71 256.5 -164.5t81.5 -237.5q0 -89 -31.5 -165.5t-84 -129.5t-122 -91t-145.5 -56t-154 -18zM551 1583l178 322h229l-184 -322h-223z" />
    <glyph glyph-name="sacute" unicode="&#x15b;" horiz-adv-x="905" 
d="M414 -20q-165 0 -275 78.5t-123 220.5l224 63q14 -60 58.5 -101.5t119.5 -41.5q59 0 99 27.5t40 84.5q0 42 -25.5 67.5t-87.5 49.5l-116 45q-114 43 -170 117t-56 166q0 143 116 236t278 93q142 0 241.5 -74.5t116.5 -193.5l-217 -61q-39 110 -150 110q-55 0 -85.5 -24.5
t-30.5 -69.5q0 -33 20 -57t70 -43l127 -51q49 -18 87 -40t75.5 -56.5t58 -85.5t20.5 -115q0 -157 -117.5 -250.5t-297.5 -93.5zM401 1194l179 322h229l-184 -322h-224z" />
    <glyph glyph-name="Scircumflex" unicode="&#x15c;" horiz-adv-x="1128" 
d="M526 -20q-190 0 -327.5 103t-163.5 269l237 105q23 -99 92 -160t179 -61q98 0 162.5 47.5t64.5 140.5q0 73 -45.5 118.5t-151.5 88.5l-79 33q-74 31 -130 65t-103 81t-72 109t-25 138q0 186 138 302t341 116q92 0 171 -26t134 -70.5t92 -98t56 -113.5l-224 -116
q-76 174 -237 174q-84 0 -138.5 -44t-54.5 -114q0 -57 45 -101.5t148 -86.5l90 -37q175 -71 256.5 -164.5t81.5 -237.5q0 -89 -31.5 -165.5t-84 -129.5t-122 -91t-145.5 -56t-154 -18zM362 1647l256 258h183l200 -258l-129 -117l-178 217l-209 -217z" />
    <glyph glyph-name="scircumflex" unicode="&#x15d;" horiz-adv-x="905" 
d="M414 -20q-165 0 -275 78.5t-123 220.5l224 63q14 -60 58.5 -101.5t119.5 -41.5q59 0 99 27.5t40 84.5q0 42 -25.5 67.5t-87.5 49.5l-116 45q-114 43 -170 117t-56 166q0 143 116 236t278 93q142 0 241.5 -74.5t116.5 -193.5l-217 -61q-39 110 -150 110q-55 0 -85.5 -24.5
t-30.5 -69.5q0 -33 20 -57t70 -43l127 -51q49 -18 87 -40t75.5 -56.5t58 -85.5t20.5 -115q0 -157 -117.5 -250.5t-297.5 -93.5zM213 1257l256 259h182l201 -259l-129 -116l-178 217l-209 -217z" />
    <glyph glyph-name="Scedilla" unicode="&#x15e;" horiz-adv-x="1128" 
d="M319 -367q89 -3 147 20t58 81q0 100 -176 76l-20 61l86 119q-151 30 -254.5 126.5t-124.5 235.5l237 105q23 -99 92 -160t179 -61q98 0 162.5 47.5t64.5 140.5q0 73 -45.5 118.5t-151.5 88.5l-79 33q-74 31 -130 65t-103 81t-72 109t-25 138q0 186 138 302t341 116
q92 0 171 -26t134 -70.5t92 -98t56 -113.5l-224 -116q-76 174 -237 174q-84 0 -138.5 -44t-54.5 -114q0 -57 45 -101.5t148 -86.5l90 -37q175 -71 256.5 -164.5t81.5 -237.5q0 -101 -39 -184.5t-105.5 -138.5t-147.5 -89t-171 -44l-49 -62q77 -1 123.5 -46.5t46.5 -115.5
q0 -50 -25 -92.5t-66.5 -69.5t-95.5 -45t-110.5 -18t-112.5 12z" />
    <glyph glyph-name="scedilla" unicode="&#x15f;" horiz-adv-x="905" 
d="M209 -367q89 -3 147 20t58 81q0 100 -176 76l-21 61l84 119q-121 24 -198 98.5t-87 190.5l224 63q14 -60 58.5 -101.5t119.5 -41.5q59 0 99 27.5t40 84.5q0 42 -25.5 67.5t-87.5 49.5l-116 45q-114 43 -170 117t-56 166q0 143 116 236t278 93q142 0 241.5 -74.5
t116.5 -193.5l-217 -61q-39 110 -150 110q-55 0 -85.5 -24.5t-30.5 -69.5q0 -33 20 -57t70 -43l127 -51q49 -18 87 -40t75.5 -56.5t58 -85.5t20.5 -115q0 -139 -94 -230t-246 -110l-49 -62q77 -1 123.5 -46.5t46.5 -115.5q0 -50 -25 -92.5t-66.5 -69.5t-95 -45t-110 -18
t-112.5 12z" />
    <glyph glyph-name="Scaron" unicode="&#x160;" horiz-adv-x="1128" 
d="M526 -20q-190 0 -327.5 103t-163.5 269l237 105q23 -99 92 -160t179 -61q98 0 162.5 47.5t64.5 140.5q0 73 -45.5 118.5t-151.5 88.5l-79 33q-74 31 -130 65t-103 81t-72 109t-25 138q0 186 138 302t341 116q92 0 171 -26t134 -70.5t92 -98t56 -113.5l-224 -116
q-76 174 -237 174q-84 0 -138.5 -44t-54.5 -114q0 -57 45 -101.5t148 -86.5l90 -37q175 -71 256.5 -164.5t81.5 -237.5q0 -89 -31.5 -165.5t-84 -129.5t-122 -91t-145.5 -56t-154 -18zM371 1788l129 117l176 -217l211 217l123 -117l-256 -258h-183z" />
    <glyph glyph-name="scaron" unicode="&#x161;" horiz-adv-x="905" 
d="M414 -20q-165 0 -275 78.5t-123 220.5l224 63q14 -60 58.5 -101.5t119.5 -41.5q59 0 99 27.5t40 84.5q0 42 -25.5 67.5t-87.5 49.5l-116 45q-114 43 -170 117t-56 166q0 143 116 236t278 93q142 0 241.5 -74.5t116.5 -193.5l-217 -61q-39 110 -150 110q-55 0 -85.5 -24.5
t-30.5 -69.5q0 -33 20 -57t70 -43l127 -51q49 -18 87 -40t75.5 -56.5t58 -85.5t20.5 -115q0 -157 -117.5 -250.5t-297.5 -93.5zM221 1399l129 117l176 -218l211 218l123 -117l-256 -258h-182z" />
    <glyph glyph-name="uni0162" unicode="&#x162;" horiz-adv-x="1079" 
d="M342 0l125 1196h-344l29 258h972l-28 -258h-348l-125 -1196h-33l-62 -78q77 -1 123.5 -46.5t46.5 -115.5q0 -50 -25 -92.5t-66.5 -69.5t-95 -45t-110 -18t-112.5 12l8 86q89 -3 147 20t58 81q0 100 -176 76l-21 61l92 129h-55z" />
    <glyph glyph-name="uni0163" unicode="&#x163;" horiz-adv-x="763" 
d="M84 846l22 219h154l29 272h276l-28 -272h219l-23 -219h-219l-53 -506q-5 -46 21 -77.5t89 -31.5q43 0 101 17l-23 -211q-31 -28 -82 -37l-61 -78q77 -1 123.5 -46.5t46.5 -115.5q0 -50 -25 -92.5t-66.5 -69.5t-95.5 -45t-110.5 -18t-112.5 12l8 86q89 -3 147 20t58 81
q0 100 -176 76l-20 61l88 125q-216 45 -191 299l58 551h-154z" />
    <glyph glyph-name="Tcaron" unicode="&#x164;" horiz-adv-x="1079" 
d="M342 0l125 1196h-344l29 258h972l-28 -258h-348l-125 -1196h-281zM348 1788l129 117l176 -217l211 217l123 -117l-256 -258h-182z" />
    <glyph glyph-name="tcaron" unicode="&#x165;" horiz-adv-x="796" 
d="M459 -12q-143 0 -219 75t-60 232l58 551h-154l22 219h154l29 272h276l-28 -272h219l-23 -219h-219l-53 -506q-5 -46 21 -77.5t89 -31.5q43 0 101 17l-23 -211q-54 -49 -190 -49zM653 1149l178 321h230l-184 -321h-224z" />
    <glyph glyph-name="Tbar" unicode="&#x166;" horiz-adv-x="1079" 
d="M186 776l29 260h236l16 160h-344l29 258h972l-28 -258h-348l-17 -160h256l-29 -260h-253l-82 -776h-281l82 776h-238z" />
    <glyph glyph-name="tbar" unicode="&#x167;" horiz-adv-x="763" 
d="M53 539l23 221h153l9 86h-154l22 219h154l29 272h276l-28 -272h219l-23 -219h-219l-10 -86h221l-25 -221h-219l-20 -199q-5 -46 21 -77.5t89 -31.5q43 0 101 17l-23 -211q-54 -49 -190 -49q-143 0 -219 75t-60 232l25 244h-152z" />
    <glyph glyph-name="Utilde" unicode="&#x168;" horiz-adv-x="1308" 
d="M606 -31q-115 0 -213 38.5t-167 108t-102.5 175.5t-19.5 233l99 930h280l-98 -940q-8 -75 10.5 -131.5t56 -88t83 -46.5t96.5 -15t97 15t87.5 47.5t70 91t36.5 137.5l98 930h280l-98 -938q-18 -170 -104.5 -296t-214 -188.5t-277.5 -62.5zM420 1626q10 117 71.5 181.5
t147.5 64.5q52 0 97.5 -27t81 -53.5t63.5 -26.5t48 18t23 50h187q-9 -118 -71 -183t-148 -65q-41 0 -78.5 17t-60 37.5t-50.5 37.5t-51 17q-27 0 -49 -18.5t-25 -49.5h-186z" />
    <glyph glyph-name="utilde" unicode="&#x169;" horiz-adv-x="1212" 
d="M1163 1065l-110 -1065h-275l15 141q-119 -161 -338 -161q-84 0 -153 26.5t-121 80t-75.5 143.5t-11.5 208l66 627h274l-59 -582q-12 -118 42.5 -188t162.5 -70t171.5 69t75.5 189l62 582h274zM332 1237q10 117 71.5 181.5t147.5 64.5q41 0 79 -16.5t61.5 -37t51 -37
t50.5 -16.5q28 0 48 18t23 50h187q-9 -118 -71.5 -183t-148.5 -65q-41 0 -78 17t-60 37.5t-50.5 37.5t-50.5 17q-27 0 -49 -18.5t-25 -49.5h-186z" />
    <glyph glyph-name="Umacron" unicode="&#x16a;" horiz-adv-x="1308" 
d="M606 -31q-115 0 -213 38.5t-167 108t-102.5 175.5t-19.5 233l99 930h280l-98 -940q-8 -75 10.5 -131.5t56 -88t83 -46.5t96.5 -15t97 15t87.5 47.5t70 91t36.5 137.5l98 930h280l-98 -938q-18 -170 -104.5 -296t-214 -188.5t-277.5 -62.5zM379 1602l22 208h770l-22 -208
h-770z" />
    <glyph glyph-name="umacron" unicode="&#x16b;" horiz-adv-x="1212" 
d="M1163 1065l-110 -1065h-275l15 141q-119 -161 -338 -161q-84 0 -153 26.5t-121 80t-75.5 143.5t-11.5 208l66 627h274l-59 -582q-12 -118 42.5 -188t162.5 -70t171.5 69t75.5 189l62 582h274zM291 1212l22 209h770l-22 -209h-770z" />
    <glyph glyph-name="Ubreve" unicode="&#x16c;" horiz-adv-x="1308" 
d="M606 -31q-115 0 -213 38.5t-167 108t-102.5 175.5t-19.5 233l99 930h280l-98 -940q-8 -75 10.5 -131.5t56 -88t83 -46.5t96.5 -15t97 15t87.5 47.5t70 91t36.5 137.5l98 930h280l-98 -938q-18 -170 -104.5 -296t-214 -188.5t-277.5 -62.5zM463 1905h168q-7 -73 25 -122.5
t114 -49.5q83 0 123 49.5t45 122.5h168q-6 -63 -30 -119t-65 -103.5t-107.5 -75.5t-149.5 -28q-68 0 -121.5 18.5t-87 50t-54.5 74t-27.5 88.5t-0.5 95z" />
    <glyph glyph-name="ubreve" unicode="&#x16d;" horiz-adv-x="1212" 
d="M1163 1065l-110 -1065h-275l15 141q-119 -161 -338 -161q-84 0 -153 26.5t-121 80t-75.5 143.5t-11.5 208l66 627h274l-59 -582q-12 -118 42.5 -188t162.5 -70t171.5 69t75.5 189l62 582h274zM375 1516h168q-7 -73 25 -123t114 -50q83 0 123 50t45 123h168
q-6 -63 -30 -119t-65 -103.5t-107.5 -75.5t-149.5 -28q-68 0 -121.5 18.5t-87 50t-54.5 74t-27.5 88.5t-0.5 95z" />
    <glyph glyph-name="Uring" unicode="&#x16e;" horiz-adv-x="1308" 
d="M606 -31q-115 0 -213 38.5t-167 108t-102.5 175.5t-19.5 233l99 930h280l-98 -940q-8 -75 10.5 -131.5t56 -88t83 -46.5t96.5 -15t97 15t87.5 47.5t70 91t36.5 137.5l98 930h280l-98 -938q-18 -170 -104.5 -296t-214 -188.5t-277.5 -62.5zM557 1796q0 96 74.5 168
t173.5 72q88 0 149.5 -61.5t61.5 -149.5q0 -95 -75.5 -167.5t-172.5 -72.5q-89 0 -150 61.5t-61 149.5zM733 1808q0 -22 14 -36.5t37 -14.5q25 0 41.5 17.5t16.5 44.5q0 21 -16 35t-38 14t-38.5 -17t-16.5 -43z" />
    <glyph glyph-name="uring" unicode="&#x16f;" horiz-adv-x="1212" 
d="M1163 1065l-110 -1065h-275l15 141q-119 -161 -338 -161q-84 0 -153 26.5t-121 80t-75.5 143.5t-11.5 208l66 627h274l-59 -582q-12 -118 42.5 -188t162.5 -70t171.5 69t75.5 189l62 582h274zM469 1407q0 96 74.5 168t173.5 72q88 0 149.5 -61.5t61.5 -149.5
q0 -95 -75.5 -167.5t-172.5 -72.5q-89 0 -150 61.5t-61 149.5zM645 1419q0 -22 14 -36.5t37 -14.5q25 0 41.5 17.5t16.5 44.5q0 21 -16 35t-38 14t-38.5 -17t-16.5 -43z" />
    <glyph glyph-name="Uhungarumlaut" unicode="&#x170;" horiz-adv-x="1308" 
d="M606 -31q-115 0 -213 38.5t-167 108t-102.5 175.5t-19.5 233l99 930h280l-98 -940q-8 -75 10.5 -131.5t56 -88t83 -46.5t96.5 -15t97 15t87.5 47.5t70 91t36.5 137.5l98 930h280l-98 -938q-18 -170 -104.5 -296t-214 -188.5t-277.5 -62.5zM471 1583l178 322h230
l-185 -322h-223zM842 1583l178 322h229l-184 -322h-223z" />
    <glyph glyph-name="uhungarumlaut" unicode="&#x171;" horiz-adv-x="1212" 
d="M1163 1065l-110 -1065h-275l15 141q-119 -161 -338 -161q-84 0 -153 26.5t-121 80t-75.5 143.5t-11.5 208l66 627h274l-59 -582q-12 -118 42.5 -188t162.5 -70t171.5 69t75.5 189l62 582h274zM383 1194l178 322h230l-185 -322h-223zM754 1194l178 322h229l-184 -322h-223
z" />
    <glyph glyph-name="Uogonek" unicode="&#x172;" horiz-adv-x="1308" 
d="M637 -406q-46 -27 -112 -33t-128 9t-105.5 61.5t-43.5 116.5q0 155 211 238q-179 45 -278 186t-77 352l99 930h280l-98 -940q-8 -75 10.5 -131.5t56 -88t83 -46.5t96.5 -15t97 15t87.5 47.5t70 91t36.5 137.5l98 930h280l-98 -938q-22 -218 -152 -357.5t-321 -176.5
q-231 -76 -231 -187q0 -57 49 -82t102 -2z" />
    <glyph glyph-name="uogonek" unicode="&#x173;" horiz-adv-x="1212" 
d="M1163 1065l-110 -1065h2q-131 -33 -215 -84.5t-84 -120.5q0 -57 49 -82t102 -2l-12 -117q-46 -27 -112 -33t-128 9t-105.5 61.5t-43.5 116.5q0 93 75.5 158t196.5 100l15 135q-119 -161 -338 -161q-84 0 -153 26.5t-121 80t-75.5 143.5t-11.5 208l66 627h274l-59 -582
q-12 -118 42.5 -188t162.5 -70t171.5 69t75.5 189l62 582h274z" />
    <glyph glyph-name="Wcircumflex" unicode="&#x174;" horiz-adv-x="2070" 
d="M428 0l-301 1454h297l186 -969l410 969h223l209 -969l387 969h295l-606 -1454h-221l-228 979l-428 -979h-223zM834 1647l256 258h182l201 -258l-130 -117l-178 217l-209 -217z" />
    <glyph glyph-name="wcircumflex" unicode="&#x175;" horiz-adv-x="1880" 
d="M1149 0l-191 715l-337 -715h-254l-281 1065h274l168 -737l336 737h258l185 -737l319 737h277l-502 -1065h-252zM698 1257l256 259h183l200 -259l-129 -116l-178 217l-209 -217z" />
    <glyph glyph-name="Ycircumflex" unicode="&#x176;" horiz-adv-x="1419" 
d="M508 0l65 580l-434 874h307l289 -620l412 620h326l-619 -874l-66 -580h-280zM504 1647l256 258h182l201 -258l-129 -117l-178 217l-209 -217z" />
    <glyph glyph-name="ycircumflex" unicode="&#x177;" horiz-adv-x="1216" 
d="M201 -389l217 409l-332 1045h283l215 -737l368 737h287l-762 -1454h-276zM350 1257l256 259h182l201 -259l-129 -116l-178 217l-209 -217z" />
    <glyph glyph-name="Ydieresis" unicode="&#x178;" horiz-adv-x="1419" 
d="M508 0l65 580l-434 874h307l289 -620l412 620h326l-619 -874l-66 -580h-280zM440 1602l27 272h258l-31 -272h-254zM940 1602l29 272h258l-31 -272h-256z" />
    <glyph glyph-name="Zacute" unicode="&#x179;" horiz-adv-x="1218" 
d="M-14 0l817 1196h-658l25 258h1102l-817 -1196h671l-24 -258h-1116zM625 1583l178 322h229l-184 -322h-223z" />
    <glyph glyph-name="zacute" unicode="&#x17a;" horiz-adv-x="1075" 
d="M-25 0l652 825h-508l26 240h953l-649 -823h530l-25 -242h-979zM508 1194l178 322h229l-184 -322h-223z" />
    <glyph glyph-name="Zdotaccent" unicode="&#x17b;" horiz-adv-x="1218" 
d="M-14 0l817 1196h-658l25 258h1102l-817 -1196h671l-24 -258h-1116zM610 1602l27 272h276l-28 -272h-275z" />
    <glyph glyph-name="zdotaccent" unicode="&#x17c;" horiz-adv-x="1075" 
d="M-25 0l652 825h-508l26 240h953l-649 -823h530l-25 -242h-979zM494 1212l26 273h277l-29 -273h-274z" />
    <glyph glyph-name="Zcaron" unicode="&#x17d;" horiz-adv-x="1218" 
d="M-14 0l817 1196h-658l25 258h1102l-817 -1196h671l-24 -258h-1116zM446 1788l129 117l177 -217l211 217l122 -117l-256 -258h-182z" />
    <glyph glyph-name="zcaron" unicode="&#x17e;" horiz-adv-x="1075" 
d="M-25 0l652 825h-508l26 240h953l-649 -823h530l-25 -242h-979zM330 1399l129 117l176 -218l211 218l123 -117l-256 -258h-183z" />
    <glyph glyph-name="uni018F" unicode="&#x18f;" horiz-adv-x="1583" 
d="M709 -20q-150 0 -275.5 54.5t-209.5 156.5t-116 249t5 332h1120v10q0 184 -114 296t-300 112q-175 0 -315 -98l-150 192q101 82 231.5 126t270.5 44q193 0 345.5 -81.5t238.5 -229.5t86 -338q0 -168 -65.5 -321t-176 -263.5t-261 -175.5t-314.5 -65zM379 537
q21 -151 117 -222t239 -71q156 0 273 79.5t176 213.5h-805z" />
    <glyph glyph-name="florin" unicode="&#x192;" horiz-adv-x="804" 
d="M8 -381q-128 0 -192 41l22 215q43 -22 115 -22q76 0 120.5 41t51.5 120l90 832h-137l22 219h138l6 55q10 90 42.5 160t74 110t94 66t97 34.5t87.5 8.5q126 0 188 -41l-22 -215q-38 23 -115 23q-75 0 -120 -41.5t-52 -120.5l-4 -39h272l-22 -219h-272l-91 -846
q-9 -91 -41.5 -161t-73.5 -110.5t-93.5 -66.5t-97 -34.5t-87.5 -8.5z" />
    <glyph glyph-name="Ohorn" unicode="&#x1a0;" horiz-adv-x="1671" 
d="M784 -20q-144 0 -269.5 47.5t-217 133t-144.5 212.5t-53 278q0 170 66.5 323.5t178.5 263t265 173.5t320 64h422q70 0 110.5 37t48.5 108l5 49h213l-11 -123q-12 -108 -89.5 -180.5t-198.5 -85.5q184 -187 184 -477q0 -170 -67 -323.5t-179.5 -262.5t-265 -173
t-318.5 -64zM387 678q0 -196 120 -314t304 -118q140 0 258 69.5t187 191.5t69 269q0 196 -119.5 314t-304.5 118q-140 0 -258 -69.5t-187 -191.5t-69 -269z" />
    <glyph glyph-name="ohorn" unicode="&#x1a1;" horiz-adv-x="1220" 
d="M563 -20q-90 0 -178.5 32t-164 92t-122.5 159t-47 220q0 168 83 307t222 217t303 78h209q70 0 113 38t47 108l4 49h213l-12 -123q-7 -83 -56.5 -146t-129.5 -96q122 -135 122 -335q0 -167 -83 -305.5t-221.5 -216.5t-301.5 -78zM319 492q0 -126 78.5 -197.5t180.5 -71.5
q131 0 228 94.5t97 253.5q0 66 -23 119t-61 85.5t-83.5 49.5t-92.5 17q-130 0 -227 -95t-97 -255z" />
    <glyph glyph-name="Uhorn" unicode="&#x1af;" horiz-adv-x="1308" 
d="M606 -31q-115 0 -213 38.5t-167 108t-102.5 175.5t-19.5 233l99 930h280l-98 -940q-8 -75 10.5 -131.5t56 -88t83 -46.5t96.5 -15t97 15t87.5 47.5t70 91t36.5 137.5l98 930h190q144 0 158 131l8 84h213l-16 -156q-10 -110 -90 -183t-205 -87l-76 -727
q-18 -170 -104.5 -296t-214 -188.5t-277.5 -62.5z" />
    <glyph glyph-name="uhorn" unicode="&#x1b0;" horiz-adv-x="1212" 
d="M94 438l66 627h274l-59 -582q-12 -118 42.5 -188t162.5 -70t171.5 69t75.5 189l62 582h145q144 0 158 131l8 84h213l-16 -156q-10 -101 -78.5 -171.5t-175.5 -92.5l-90 -860h-275l15 141q-119 -161 -338 -161q-84 0 -153 26.5t-121 80t-75.5 143.5t-11.5 208z" />
    <glyph glyph-name="uni01CD" unicode="&#x1cd;" horiz-adv-x="1462" 
d="M977 1454l397 -1454h-305l-65 262h-603l-122 -262h-304l705 1454h297zM520 520h418l-145 584zM537 1767l129 117l176 -217l211 217l123 -117l-256 -258h-183z" />
    <glyph glyph-name="uni01CE" unicode="&#x1ce;" 
d="M508 -20q-89 0 -170 32t-145.5 91.5t-103 155.5t-38.5 214q0 167 73 307.5t201.5 222.5t284.5 82q132 0 219 -53t111 -110h12l17 143h274l-110 -1065h-277l16 143h-12q-31 -55 -129.5 -109t-222.5 -54zM326 496q0 -70 23 -124t61 -85t84 -46.5t96 -15.5q62 0 120.5 23
t106 65.5t76.5 109t29 146.5q0 70 -23 124t-62.5 85t-85 46.5t-96.5 15.5q-83 0 -157 -39t-123 -119t-49 -186zM416 1399l129 117l176 -218l211 218l123 -117l-256 -258h-183z" />
    <glyph glyph-name="uni01CF" unicode="&#x1cf;" horiz-adv-x="489" 
d="M49 0l154 1454h278l-151 -1454h-281zM55 1788l129 117l176 -217l211 217l123 -117l-256 -258h-182z" />
    <glyph glyph-name="uni01D0" unicode="&#x1d0;" horiz-adv-x="485" 
d="M49 0l113 1065h274l-112 -1065h-275zM10 1399l129 117l176 -218l211 218l123 -117l-256 -258h-182z" />
    <glyph glyph-name="uni01D1" unicode="&#x1d1;" horiz-adv-x="1671" 
d="M784 -20q-144 0 -269.5 47.5t-217 133t-144.5 212.5t-53 278q0 170 66.5 323.5t178.5 263t265 173.5t320 64q192 0 346.5 -81t246 -235.5t91.5 -355.5q0 -170 -67 -323.5t-179.5 -262.5t-265 -173t-318.5 -64zM387 678q0 -196 120 -314t304 -118q140 0 258 69.5
t187 191.5t69 269q0 196 -119.5 314t-304.5 118q-140 0 -258 -69.5t-187 -191.5t-69 -269zM643 1788l129 117l176 -217l211 217l123 -117l-256 -258h-182z" />
    <glyph glyph-name="uni01D2" unicode="&#x1d2;" horiz-adv-x="1220" 
d="M563 -20q-90 0 -178.5 32t-164 92t-122.5 159t-47 220q0 168 83 307t222 217t303 78q71 0 142.5 -19.5t138 -61t117.5 -99.5t81.5 -142.5t30.5 -182.5q0 -167 -83 -305.5t-221.5 -216.5t-301.5 -78zM319 492q0 -126 78.5 -197.5t180.5 -71.5q131 0 228 94.5t97 253.5
q0 66 -23 119t-61 85.5t-83.5 49.5t-92.5 17q-130 0 -227 -95t-97 -255zM379 1399l129 117l176 -218l211 218l123 -117l-256 -258h-182z" />
    <glyph glyph-name="uni01D3" unicode="&#x1d3;" horiz-adv-x="1308" 
d="M606 -31q-115 0 -213 38.5t-167 108t-102.5 175.5t-19.5 233l99 930h280l-98 -940q-8 -75 10.5 -131.5t56 -88t83 -46.5t96.5 -15t97 15t87.5 47.5t70 91t36.5 137.5l98 930h280l-98 -938q-18 -170 -104.5 -296t-214 -188.5t-277.5 -62.5zM463 1788l129 117l176 -217
l211 217l123 -117l-256 -258h-182z" />
    <glyph glyph-name="uni01D4" unicode="&#x1d4;" horiz-adv-x="1212" 
d="M1163 1065l-110 -1065h-275l15 141q-119 -161 -338 -161q-84 0 -153 26.5t-121 80t-75.5 143.5t-11.5 208l66 627h274l-59 -582q-12 -118 42.5 -188t162.5 -70t171.5 69t75.5 189l62 582h274zM375 1399l129 117l176 -218l211 218l123 -117l-256 -258h-183z" />
    <glyph glyph-name="uni01D5" unicode="&#x1d5;" horiz-adv-x="1308" 
d="M606 -31q-115 0 -213 38.5t-167 108t-102.5 175.5t-19.5 233l99 930h280l-98 -940q-8 -75 10.5 -131.5t56 -88t83 -46.5t96.5 -15t97 15t87.5 47.5t70 91t36.5 137.5l98 930h280l-98 -938q-18 -170 -104.5 -296t-214 -188.5t-277.5 -62.5zM391 1602l27 272h258l-31 -272
h-254zM426 1980l23 209h770l-23 -209h-770zM891 1602l29 272h258l-31 -272h-256z" />
    <glyph glyph-name="uni01D6" unicode="&#x1d6;" horiz-adv-x="1212" 
d="M1163 1065l-110 -1065h-275l15 141q-119 -161 -338 -161q-84 0 -153 26.5t-121 80t-75.5 143.5t-11.5 208l66 627h274l-59 -582q-12 -118 42.5 -188t162.5 -70t171.5 69t75.5 189l62 582h274zM303 1212l27 273h258l-31 -273h-254zM338 1591l22 209h770l-22 -209h-770z
M803 1212l28 273h259l-31 -273h-256z" />
    <glyph glyph-name="uni01D7" unicode="&#x1d7;" horiz-adv-x="1308" 
d="M606 -31q-115 0 -213 38.5t-167 108t-102.5 175.5t-19.5 233l99 930h280l-98 -940q-8 -75 10.5 -131.5t56 -88t83 -46.5t96.5 -15t97 15t87.5 47.5t70 91t36.5 137.5l98 930h280l-98 -938q-18 -170 -104.5 -296t-214 -188.5t-277.5 -62.5zM391 1602l27 272h258l-31 -272
h-254zM686 1962l178 322h230l-185 -322h-223zM891 1602l29 272h258l-31 -272h-256z" />
    <glyph glyph-name="uni01D8" unicode="&#x1d8;" horiz-adv-x="1212" 
d="M1163 1065l-110 -1065h-275l15 141q-119 -161 -338 -161q-84 0 -153 26.5t-121 80t-75.5 143.5t-11.5 208l66 627h274l-59 -582q-12 -118 42.5 -188t162.5 -70t171.5 69t75.5 189l62 582h274zM303 1212l27 273h258l-31 -273h-254zM598 1573l178 321h230l-185 -321h-223z
M803 1212l28 273h259l-31 -273h-256z" />
    <glyph glyph-name="uni01D9" unicode="&#x1d9;" horiz-adv-x="1308" 
d="M606 -31q-115 0 -213 38.5t-167 108t-102.5 175.5t-19.5 233l99 930h280l-98 -940q-8 -75 10.5 -131.5t56 -88t83 -46.5t96.5 -15t97 15t87.5 47.5t70 91t36.5 137.5l98 930h280l-98 -938q-18 -170 -104.5 -296t-214 -188.5t-277.5 -62.5zM391 1602l27 272h258l-31 -272
h-254zM506 2167l129 117l176 -218l211 218l123 -117l-256 -258h-182zM891 1602l29 272h258l-31 -272h-256z" />
    <glyph glyph-name="uni01DA" unicode="&#x1da;" horiz-adv-x="1212" 
d="M1163 1065l-110 -1065h-275l15 141q-119 -161 -338 -161q-84 0 -153 26.5t-121 80t-75.5 143.5t-11.5 208l66 627h274l-59 -582q-12 -118 42.5 -188t162.5 -70t171.5 69t75.5 189l62 582h274zM303 1212l27 273h258l-31 -273h-254zM418 1778l129 116l176 -217l211 217
l123 -116l-256 -258h-183zM803 1212l28 273h259l-31 -273h-256z" />
    <glyph glyph-name="uni01DB" unicode="&#x1db;" horiz-adv-x="1308" 
d="M606 -31q-115 0 -213 38.5t-167 108t-102.5 175.5t-19.5 233l99 930h280l-98 -940q-8 -75 10.5 -131.5t56 -88t83 -46.5t96.5 -15t97 15t87.5 47.5t70 91t36.5 137.5l98 930h280l-98 -938q-18 -170 -104.5 -296t-214 -188.5t-277.5 -62.5zM391 1602l27 272h258l-31 -272
h-254zM496 2284h227l180 -322h-223zM891 1602l29 272h258l-31 -272h-256z" />
    <glyph glyph-name="uni01DC" unicode="&#x1dc;" horiz-adv-x="1212" 
d="M1163 1065l-110 -1065h-275l15 141q-119 -161 -338 -161q-84 0 -153 26.5t-121 80t-75.5 143.5t-11.5 208l66 627h274l-59 -582q-12 -118 42.5 -188t162.5 -70t171.5 69t75.5 189l62 582h274zM303 1212l27 273h258l-31 -273h-254zM408 1894h227l180 -321h-223zM803 1212
l28 273h259l-31 -273h-256z" />
    <glyph glyph-name="uni01DE" unicode="&#x1de;" horiz-adv-x="1462" 
d="M977 1454l397 -1454h-305l-65 262h-603l-122 -262h-304l705 1454h297zM465 1581l27 272h258l-31 -272h-254zM500 1960l22 209h770l-22 -209h-770zM520 520h418l-145 584zM965 1581l28 272h258l-30 -272h-256z" />
    <glyph glyph-name="uni01DF" unicode="&#x1df;" 
d="M508 -20q-89 0 -170 32t-145.5 91.5t-103 155.5t-38.5 214q0 167 73 307.5t201.5 222.5t284.5 82q132 0 219 -53t111 -110h12l17 143h274l-110 -1065h-277l16 143h-12q-31 -55 -129.5 -109t-222.5 -54zM326 496q0 -70 23 -124t61 -85t84 -46.5t96 -15.5q62 0 120.5 23
t106 65.5t76.5 109t29 146.5q0 70 -23 124t-62.5 85t-85 46.5t-96.5 15.5q-83 0 -157 -39t-123 -119t-49 -186zM342 1212l27 273h258l-31 -273h-254zM377 1591l22 209h770l-22 -209h-770zM842 1212l28 273h258l-30 -273h-256z" />
    <glyph glyph-name="Gcaron" unicode="&#x1e6;" horiz-adv-x="1585" 
d="M776 -20q-140 0 -263.5 47t-215 132.5t-144.5 212.5t-53 279q0 226 110 416t298 299t410 109q63 0 122.5 -9t123.5 -31.5t119.5 -57.5t107 -91t88.5 -127l-215 -143q-115 194 -359 194q-144 0 -263 -70t-187 -191t-68 -267q0 -198 121.5 -321t310.5 -123q143 0 252 75
t156 234h-353l23 235h623q4 -147 -33.5 -276t-107.5 -224.5t-164.5 -164t-206.5 -103t-232 -34.5zM602 1788l129 117l176 -217l211 217l123 -117l-256 -258h-182z" />
    <glyph glyph-name="gcaron" unicode="&#x1e7;" 
d="M526 -426q-94 0 -177.5 18t-127.5 48l25 223q36 -26 108 -43t152 -17q152 0 249 68.5t109 189.5l8 82h-12q-31 -54 -129.5 -108.5t-222.5 -54.5q-87 0 -167.5 31.5t-146 90.5t-104.5 154t-39 211q0 133 45 249t120.5 196.5t177 126.5t212.5 46q130 0 220 -53.5
t114 -109.5h12l17 143h274l-102 -985q-12 -117 -58 -208.5t-107.5 -146.5t-142 -90t-155 -48t-152.5 -13zM326 498q0 -130 75 -201.5t189 -71.5q138 0 235 97.5t97 244.5q0 130 -76 201.5t-191 71.5q-137 0 -233 -99t-96 -243zM416 1399l129 117l176 -218l211 218l123 -117
l-256 -258h-183z" />
    <glyph glyph-name="uni01E8" unicode="&#x1e8;" horiz-adv-x="1323" 
d="M49 0l152 1454h280l-71 -692l598 692h315l-582 -655l496 -799h-297l-379 596l-192 -217l-39 -379h-281zM500 1788l129 117l176 -217l211 217l123 -117l-256 -258h-183z" />
    <glyph glyph-name="uni01E9" unicode="&#x1e9;" horiz-adv-x="1183" 
d="M49 0l152 1454h274l-90 -870l446 481h336l-477 -494l408 -571h-310l-274 389l-168 -174l-22 -215h-275zM53 1788l129 117l176 -217l211 217l123 -117l-256 -258h-182z" />
    <glyph glyph-name="uni0218" unicode="&#x218;" horiz-adv-x="1128" 
d="M526 -20q-190 0 -327.5 103t-163.5 269l237 105q23 -99 92 -160t179 -61q98 0 162.5 47.5t64.5 140.5q0 73 -45.5 118.5t-151.5 88.5l-79 33q-74 31 -130 65t-103 81t-72 109t-25 138q0 186 138 302t341 116q92 0 171 -26t134 -70.5t92 -98t56 -113.5l-224 -116
q-76 174 -237 174q-84 0 -138.5 -44t-54.5 -114q0 -57 45 -101.5t148 -86.5l90 -37q175 -71 256.5 -164.5t81.5 -237.5q0 -89 -31.5 -165.5t-84 -129.5t-122 -91t-145.5 -56t-154 -18zM143 -621l246 535h240l-248 -535h-238z" />
    <glyph glyph-name="uni0219" unicode="&#x219;" horiz-adv-x="905" 
d="M414 -20q-165 0 -275 78.5t-123 220.5l224 63q14 -60 58.5 -101.5t119.5 -41.5q59 0 99 27.5t40 84.5q0 42 -25.5 67.5t-87.5 49.5l-116 45q-114 43 -170 117t-56 166q0 143 116 236t278 93q142 0 241.5 -74.5t116.5 -193.5l-217 -61q-39 110 -150 110q-55 0 -85.5 -24.5
t-30.5 -69.5q0 -33 20 -57t70 -43l127 -51q49 -18 87 -40t75.5 -56.5t58 -85.5t20.5 -115q0 -157 -117.5 -250.5t-297.5 -93.5zM33 -621l246 535h239l-248 -535h-237z" />
    <glyph glyph-name="uni021A" unicode="&#x21a;" horiz-adv-x="1079" 
d="M342 0l125 1196h-344l29 258h972l-28 -258h-348l-125 -1196h-281zM119 -621l246 535h239l-248 -535h-237z" />
    <glyph glyph-name="uni021B" unicode="&#x21b;" horiz-adv-x="763" 
d="M459 -12q-143 0 -219 75t-60 232l58 551h-154l22 219h154l29 272h276l-28 -272h219l-23 -219h-219l-53 -506q-5 -46 21 -77.5t89 -31.5q43 0 101 17l-23 -211q-54 -49 -190 -49zM96 -621l246 535h240l-248 -535h-238z" />
    <glyph glyph-name="uni0237" unicode="&#x237;" horiz-adv-x="487" 
d="M-283 -395l29 254h59q60 0 101 9.5t75 35t54 72.5t28 120l101 969h276l-104 -995q-27 -246 -158.5 -355.5t-386.5 -109.5h-74z" />
    <glyph glyph-name="uni0259" unicode="&#x259;" horiz-adv-x="1169" 
d="M608 1085q103 0 194.5 -33t162.5 -95t112 -159.5t41 -217.5q0 -167 -79 -305t-214 -216.5t-295 -78.5q-85 0 -163.5 24t-147.5 74.5t-111.5 128.5t-56 185.5t18.5 246.5h796q-21 108 -103 164.5t-202 56.5q-157 0 -282 -96l-109 133q80 87 192.5 137.5t245.5 50.5z
M293 438q4 -111 77.5 -169t180.5 -58q111 0 190.5 62t112.5 165h-561z" />
    <glyph glyph-name="uni02BC" unicode="&#x2bc;" horiz-adv-x="524" 
d="M88 920l246 534h239l-247 -534h-238z" />
    <glyph glyph-name="circumflex" unicode="&#x2c6;" horiz-adv-x="681" 
d="M219 1141l-123 116l256 259h183l200 -259l-129 -116l-178 217z" />
    <glyph glyph-name="caron" unicode="&#x2c7;" horiz-adv-x="681" 
d="M311 1141l-200 258l129 117l176 -218l211 218l123 -117l-256 -258h-183z" />
    <glyph glyph-name="breve" unicode="&#x2d8;" horiz-adv-x="684" 
d="M414 1190q-68 0 -121.5 18.5t-87 50t-54.5 74t-27.5 88.5t-0.5 95h168q-7 -73 25 -123t114 -50q83 0 123 50t45 123h168q-6 -63 -30 -119t-65 -103.5t-107.5 -75.5t-149.5 -28z" />
    <glyph glyph-name="dotaccent" unicode="&#x2d9;" horiz-adv-x="315" 
d="M92 1212l27 273h276l-28 -273h-275z" />
    <glyph glyph-name="ring" unicode="&#x2da;" horiz-adv-x="497" 
d="M324 1196q-89 0 -150 61.5t-61 149.5q0 96 74 168t173 72q88 0 149.5 -61.5t61.5 -149.5q0 -95 -75 -167.5t-172 -72.5zM289 1419q0 -22 14 -36.5t37 -14.5q25 0 41 17t16 45q0 21 -15.5 35t-37.5 14t-38.5 -17t-16.5 -43z" />
    <glyph glyph-name="ogonek" unicode="&#x2db;" horiz-adv-x="522" 
d="M307 -406q-46 -27 -112 -33t-128 9t-105.5 61.5t-43.5 116.5q0 52 25.5 97t71 78t100.5 56.5t121 38.5l231 -18q-131 -33 -215 -84.5t-84 -120.5q0 -57 49 -82t102 -2z" />
    <glyph glyph-name="tilde" unicode="&#x2dc;" horiz-adv-x="741" 
d="M596 1196q-41 0 -78.5 17t-60 37.5t-50.5 37.5t-51 17q-26 0 -48 -18.5t-25 -49.5h-187q10 117 71.5 181.5t147.5 64.5q41 0 79 -16.5t61.5 -37t51 -37t50.5 -16.5q28 0 48.5 18t23.5 50h186q-9 -118 -71 -183t-148 -65z" />
    <glyph glyph-name="hungarumlaut" unicode="&#x2dd;" horiz-adv-x="784" 
d="M461 1194l178 322h229l-184 -322h-223zM90 1194l178 322h230l-185 -322h-223z" />
    <glyph glyph-name="gravecomb" unicode="&#x300;" horiz-adv-x="0" 
d="M307 1194l-184 322h227l180 -322h-223z" />
    <glyph glyph-name="acutecomb" unicode="&#x301;" horiz-adv-x="0" 
d="M90 1194l178 322h230l-185 -322h-223z" />
    <glyph glyph-name="uni0302" unicode="&#x302;" horiz-adv-x="0" 
d="M219 1141l-123 116l256 259h183l200 -259l-129 -116l-178 217z" />
    <glyph glyph-name="tildecomb" unicode="&#x303;" horiz-adv-x="0" 
d="M596 1196q-41 0 -78.5 17t-60 37.5t-50.5 37.5t-51 17q-26 0 -48 -18.5t-25 -49.5h-187q10 117 71.5 181.5t147.5 64.5q41 0 79 -16.5t61.5 -37t51 -37t50.5 -16.5q28 0 48.5 18t23.5 50h186q-9 -118 -71 -183t-148 -65z" />
    <glyph glyph-name="uni0304" unicode="&#x304;" horiz-adv-x="0" 
d="M92 1212l23 209h770l-23 -209h-770z" />
    <glyph glyph-name="uni0306" unicode="&#x306;" horiz-adv-x="0" 
d="M414 1190q-68 0 -121.5 18.5t-87 50t-54.5 74t-27.5 88.5t-0.5 95h168q-7 -73 25 -123t114 -50q83 0 123 50t45 123h168q-6 -63 -30 -119t-65 -103.5t-107.5 -75.5t-149.5 -28z" />
    <glyph glyph-name="uni0307" unicode="&#x307;" horiz-adv-x="0" 
d="M92 1212l27 273h276l-28 -273h-275z" />
    <glyph glyph-name="uni0308" unicode="&#x308;" horiz-adv-x="0" 
d="M592 1212l29 273h258l-31 -273h-256zM92 1212l27 273h258l-31 -273h-254z" />
    <glyph glyph-name="hookabovecomb" unicode="&#x309;" horiz-adv-x="0" 
d="M297 1200l18 170h64q28 0 44.5 15t16.5 40q0 20 -12.5 32.5t-34.5 12.5q-42 0 -55 -45l-133 99q28 57 82.5 90t120.5 33q89 0 152 -59.5t63 -147.5q0 -100 -75.5 -170t-180.5 -70h-70z" />
    <glyph glyph-name="uni030A" unicode="&#x30a;" horiz-adv-x="0" 
d="M324 1196q-89 0 -150 61.5t-61 149.5q0 96 74 168t173 72q88 0 149.5 -61.5t61.5 -149.5q0 -95 -75 -167.5t-172 -72.5zM289 1419q0 -22 14 -36.5t37 -14.5q25 0 41 17t16 45q0 21 -15.5 35t-37.5 14t-38.5 -17t-16.5 -43z" />
    <glyph glyph-name="uni030B" unicode="&#x30b;" horiz-adv-x="0" 
d="M461 1194l178 322h229l-184 -322h-223zM90 1194l178 322h230l-185 -322h-223z" />
    <glyph glyph-name="uni030C" unicode="&#x30c;" horiz-adv-x="0" 
d="M311 1141l-200 258l129 117l176 -218l211 218l123 -117l-256 -258h-183z" />
    <glyph glyph-name="uni0312" unicode="&#x312;" horiz-adv-x="0" 
d="M90 1194l178 322h230l-185 -322h-223z" />
    <glyph glyph-name="uni031B" unicode="&#x31b;" horiz-adv-x="0" 
d="M158 1065l22 213h139q144 0 158 131l8 84h213l-16 -156q-12 -122 -106 -197t-238 -75h-180z" />
    <glyph glyph-name="dotbelowcomb" unicode="&#x323;" horiz-adv-x="0" 
d="M8 -369l23 234h229l-24 -234h-228z" />
    <glyph glyph-name="uni0326" unicode="&#x326;" horiz-adv-x="0" 
d="M-96 -621l246 535h239l-248 -535h-237z" />
    <glyph glyph-name="uni0327" unicode="&#x327;" horiz-adv-x="0" 
d="M-57 -367q89 -3 146.5 20t57.5 81q0 100 -176 76l-20 61l92 129h193l-62 -78q77 -1 123.5 -46.5t46.5 -115.5q0 -50 -25 -92.5t-66.5 -69.5t-95.5 -45t-110.5 -18t-112.5 12z" />
    <glyph glyph-name="uni0328" unicode="&#x328;" horiz-adv-x="0" 
d="M307 -406q-46 -27 -112 -33t-128 9t-105.5 61.5t-43.5 116.5q0 52 25.5 97t71 78t100.5 56.5t121 38.5l231 -18q-131 -33 -215 -84.5t-84 -120.5q0 -57 49 -82t102 -2z" />
    <glyph glyph-name="uni0394" unicode="&#x394;" horiz-adv-x="1501" 
d="M-12 0l768 1434h61l467 -1434h-1296zM369 242h594l-218 741z" />
    <glyph glyph-name="uni03A9" unicode="&#x3a9;" horiz-adv-x="1587" 
d="M80 0l29 268h98l33 -10q-161 218 -134 483q16 151 90.5 285t183 225t240.5 144t261 53q133 0 256.5 -54.5t215.5 -149t140.5 -233.5t32.5 -296q-30 -268 -223 -467l34 20h90l-28 -268h-475l28 322l70 53q88 67 148 162t71 204q22 197 -87 312.5t-282 115.5
q-87 0 -167.5 -30.5t-146 -86.5t-110 -143t-55.5 -194q-10 -100 25 -192t106 -154l60 -47l-29 -322h-475z" />
    <glyph glyph-name="uni03BC" unicode="&#x3bc;" horiz-adv-x="1234" 
d="M8 -389l154 1454h274l-61 -600q-16 -130 24.5 -185t130.5 -55q58 0 113 25t94.5 63.5t66.5 77t40 72.5l67 602h275l-113 -1065h-274l24 199q-13 -26 -41 -58.5t-72.5 -69.5t-110.5 -62t-138 -25h-133l-45 -373h-275z" />
    <glyph glyph-name="pi" unicode="&#x3c0;" horiz-adv-x="1495" 
d="M1071 -12q-47 0 -93 11t-88.5 34.5t-66.5 66t-18 97.5l67 628h-309l-88 -825h-280l88 825h-205l24 240h1278l-24 -240h-203l-53 -489q-7 -68 8.5 -88.5t58.5 -20.5q64 0 148 41l-17 -245q-75 -35 -227 -35z" />
    <glyph glyph-name="uni0400" unicode="&#x400;" horiz-adv-x="1017" 
d="M49 0l152 1454h823l-25 -258h-544l-35 -338h454l-26 -254h-455l-37 -346h559l-24 -258h-842zM311 1905h228l180 -322h-223z" />
    <glyph glyph-name="uni0401" unicode="&#x401;" horiz-adv-x="1017" 
d="M49 0l152 1454h823l-25 -258h-544l-35 -338h454l-26 -254h-455l-37 -346h559l-24 -258h-842zM250 1602l26 272h259l-31 -272h-254zM750 1602l28 272h258l-30 -272h-256z" />
    <glyph glyph-name="uni0403" unicode="&#x403;" horiz-adv-x="1054" 
d="M49 0l154 1454h884l-28 -258h-604l-125 -1196h-281zM578 1583l178 322h229l-184 -322h-223z" />
    <glyph glyph-name="uni0404" unicode="&#x404;" horiz-adv-x="1478" 
d="M782 -20q-142 0 -267 47.5t-217 133t-145 213t-53 279.5q0 170 66.5 323t178 262t263 173t316.5 64q79 0 153.5 -15.5t150.5 -49.5t142.5 -98.5t112.5 -152.5l-215 -143q-125 192 -361 192q-176 0 -311.5 -100t-185.5 -262l354 2l-25 -240l-346 -4q26 -166 143 -262
t281 -96q225 0 389 192l185 -143q-85 -117 -194.5 -190t-208.5 -99t-206 -26z" />
    <glyph glyph-name="uni0405" unicode="&#x405;" horiz-adv-x="1128" 
d="M526 -20q-190 0 -327.5 103t-163.5 269l237 105q23 -99 92 -160t179 -61q98 0 162.5 47.5t64.5 140.5q0 73 -45.5 118.5t-151.5 88.5l-79 33q-74 31 -130 65t-103 81t-72 109t-25 138q0 186 138 302t341 116q92 0 171 -26t134 -70.5t92 -98t56 -113.5l-224 -116
q-76 174 -237 174q-84 0 -138.5 -44t-54.5 -114q0 -57 45 -101.5t148 -86.5l90 -37q175 -71 256.5 -164.5t81.5 -237.5q0 -89 -31.5 -165.5t-84 -129.5t-122 -91t-145.5 -56t-154 -18z" />
    <glyph glyph-name="uni0406" unicode="&#x406;" horiz-adv-x="489" 
d="M49 0l154 1454h278l-151 -1454h-281z" />
    <glyph glyph-name="uni0407" unicode="&#x407;" horiz-adv-x="489" 
d="M49 0l154 1454h278l-151 -1454h-281zM-18 1602l26 272h258l-30 -272h-254zM481 1602l29 272h258l-31 -272h-256z" />
    <glyph glyph-name="uni0408" unicode="&#x408;" horiz-adv-x="1060" 
d="M428 -20q-145 0 -256.5 59.5t-165.5 159.5l201 182q33 -55 89 -93t134 -38q27 0 52.5 4.5t59 21t59 44t47 79t28.5 119.5l98 936h281l-105 -973q-11 -109 -46.5 -196t-86 -143t-115.5 -93.5t-132.5 -53t-141.5 -15.5z" />
    <glyph glyph-name="uni040C" unicode="&#x40c;" horiz-adv-x="1323" 
d="M49 0l152 1454h280l-71 -692l598 692h315l-582 -655l496 -799h-297l-379 596l-192 -217l-39 -379h-281zM686 1583l178 322h230l-185 -322h-223z" />
    <glyph glyph-name="uni040D" unicode="&#x40d;" horiz-adv-x="1435" 
d="M49 0l154 1454h278l-104 -985l778 985h275l-154 -1454h-281l105 983l-781 -983h-270zM518 1905h227l181 -322h-224z" />
    <glyph glyph-name="uni040E" unicode="&#x40e;" horiz-adv-x="1429" 
d="M240 0l315 481l-416 973h301l293 -694l434 694h318l-932 -1454h-313zM543 1905h168q-7 -73 25 -122.5t114 -49.5q83 0 123 49.5t45 122.5h168q-6 -63 -30 -119t-65 -103.5t-107.5 -75.5t-149.5 -28q-68 0 -121.5 18.5t-87 50t-54.5 74t-27.5 88.5t-0.5 95z" />
    <glyph glyph-name="uni0410" unicode="&#x410;" horiz-adv-x="1462" 
d="M977 1454l397 -1454h-305l-65 262h-603l-122 -262h-304l705 1454h297zM520 520h418l-145 584z" />
    <glyph glyph-name="uni0411" unicode="&#x411;" horiz-adv-x="1208" 
d="M49 0l154 1454h880l-28 -258h-600l-27 -246h236q223 0 349 -116.5t126 -317.5q0 -228 -155 -372t-411 -144h-524zM356 258h207q134 0 214.5 61t80.5 183q0 207 -237 207h-218z" />
    <glyph glyph-name="uni0412" unicode="&#x412;" horiz-adv-x="1189" 
d="M49 0l152 1454h532q170 0 268.5 -88.5t98.5 -228.5q0 -118 -66.5 -204t-159.5 -122q107 -29 175.5 -116.5t68.5 -229.5q0 -205 -145.5 -335t-403.5 -130h-520zM354 246h224q132 0 198 63.5t66 167.5q0 93 -56 144t-168 51h-219zM422 889h194q101 0 154 49t53 129
q0 141 -174 141h-194z" />
    <glyph glyph-name="uni0413" unicode="&#x413;" horiz-adv-x="1054" 
d="M49 0l154 1454h884l-28 -258h-604l-125 -1196h-281z" />
    <glyph glyph-name="uni0414" unicode="&#x414;" horiz-adv-x="1751" 
d="M283 0l-17 -141h-280l41 399h196q72 105 106 285t68 520l41 391h1110l-125 -1196h242l-43 -399h-281l17 141h-1075zM512 258h631l100 938h-549l-16 -133q-44 -381 -63 -488q-38 -215 -103 -317z" />
    <glyph glyph-name="uni0415" unicode="&#x415;" horiz-adv-x="1017" 
d="M49 0l152 1454h823l-25 -258h-544l-35 -338h454l-26 -254h-455l-37 -346h559l-24 -258h-842z" />
    <glyph glyph-name="uni0416" unicode="&#x416;" horiz-adv-x="2281" 
d="M-25 0l699 817l-473 637h340l485 -663l72 663h288l-71 -663l622 663h353l-617 -637l520 -817h-317l-393 623l-207 -207l-43 -416h-289l47 416l-157 207l-517 -623h-342z" />
    <glyph glyph-name="uni0417" unicode="&#x417;" horiz-adv-x="1220" 
d="M547 -20q-237 0 -369.5 124t-109.5 336h292q-7 -71 28 -117t86 -62.5t114 -16.5q112 0 184 55t72 158q0 192 -283 192l21 207q130 8 197 58.5t67 142.5q0 76 -51.5 114.5t-126.5 38.5q-49 0 -90.5 -16t-75 -60t-41.5 -112h-293q16 145 91 248.5t187 154t250 50.5
q195 0 321 -98t126 -255q0 -134 -82 -231.5t-195 -122.5q41 0 86 -21.5t86 -60.5t68 -104t27 -142q0 -105 -48.5 -193t-129.5 -145.5t-186.5 -89.5t-221.5 -32z" />
    <glyph glyph-name="uni0418" unicode="&#x418;" horiz-adv-x="1435" 
d="M49 0l154 1454h278l-104 -985l778 985h275l-154 -1454h-281l105 983l-781 -983h-270z" />
    <glyph glyph-name="uni0419" unicode="&#x419;" horiz-adv-x="1435" 
d="M889 1559q-84 0 -146 28t-94.5 75t-45 103.5t-5.5 118.5h168q-7 -73 25 -122.5t114 -49.5q83 0 123 49.5t45 122.5h168q-6 -63 -29.5 -119t-65 -103t-108 -75t-149.5 -28zM49 0l154 1454h278l-104 -985l778 985h275l-154 -1454h-281l105 983l-781 -983h-270z" />
    <glyph glyph-name="uni041A" unicode="&#x41a;" horiz-adv-x="1323" 
d="M49 0l152 1454h280l-71 -692l598 692h315l-582 -655l496 -799h-297l-379 596l-192 -217l-39 -379h-281z" />
    <glyph glyph-name="uni041B" unicode="&#x41b;" horiz-adv-x="1486" 
d="M162 -12q-133 0 -189 41l23 227q73 -29 119 -29q55 0 80.5 30t31.5 71l119 1126h1135l-152 -1454h-280l127 1196h-576l-94 -881q-11 -99 -43 -166.5t-81 -101t-101 -46.5t-119 -13z" />
    <glyph glyph-name="uni041C" unicode="&#x41c;" horiz-adv-x="1722" 
d="M49 0l154 1454h278l367 -1073l584 1073h284l-153 -1454h-281l86 836l-434 -836h-242l-274 831l-88 -831h-281z" />
    <glyph glyph-name="uni041D" unicode="&#x41d;" horiz-adv-x="1368" 
d="M928 0l61 586h-600l-61 -586h-281l154 1454h280l-63 -610h600l63 610h281l-154 -1454h-280z" />
    <glyph glyph-name="uni041E" unicode="&#x41e;" horiz-adv-x="1671" 
d="M784 -20q-144 0 -269.5 47.5t-217 133t-144.5 212.5t-53 278q0 170 66.5 323.5t178.5 263t265 173.5t320 64q192 0 346.5 -81t246 -235.5t91.5 -355.5q0 -170 -67 -323.5t-179.5 -262.5t-265 -173t-318.5 -64zM387 678q0 -196 120 -314t304 -118q140 0 258 69.5
t187 191.5t69 269q0 196 -119.5 314t-304.5 118q-140 0 -258 -69.5t-187 -191.5t-69 -269z" />
    <glyph glyph-name="uni041F" unicode="&#x41f;" horiz-adv-x="1382" 
d="M49 0l154 1454h1171l-153 -1454h-281l127 1196h-612l-125 -1196h-281z" />
    <glyph glyph-name="uni0420" unicode="&#x420;" horiz-adv-x="1200" 
d="M47 0l154 1454h514q219 0 345 -120.5t124 -327.5q0 -236 -160.5 -387.5t-411.5 -151.5h-235l-49 -467h-281zM406 725h206q130 0 208.5 62t78.5 190q1 114 -60.5 166.5t-174.5 52.5h-209z" />
    <glyph glyph-name="uni0421" unicode="&#x421;" horiz-adv-x="1478" 
d="M782 -20q-142 0 -267 47.5t-217 133t-145 213t-53 279.5q0 170 66.5 323t178 262t263 173t316.5 64q79 0 153.5 -15.5t150.5 -49.5t142.5 -98.5t112.5 -152.5l-215 -143q-125 192 -361 192q-218 0 -369 -149.5t-151 -370.5q0 -201 122.5 -321.5t307.5 -120.5
q225 0 389 192l185 -143q-85 -117 -194.5 -190t-208.5 -99t-206 -26z" />
    <glyph glyph-name="uni0422" unicode="&#x422;" horiz-adv-x="1079" 
d="M342 0l125 1196h-344l29 258h972l-28 -258h-348l-125 -1196h-281z" />
    <glyph glyph-name="uni0423" unicode="&#x423;" horiz-adv-x="1429" 
d="M240 0l315 481l-416 973h301l293 -694l434 694h318l-932 -1454h-313z" />
    <glyph glyph-name="uni0424" unicode="&#x424;" horiz-adv-x="1742" 
d="M674 0l14 145q-293 13 -449.5 155.5t-156.5 375.5q0 185 94.5 326t258.5 219t376 88l14 145h281l-14 -145q296 -12 454 -154.5t158 -376.5q0 -140 -55.5 -257t-153 -197t-232.5 -126.5t-294 -52.5l-15 -145h-280zM365 692q0 -65 16.5 -115.5t54.5 -92.5t108.5 -67
t170.5 -30l69 682q-203 -11 -311 -105.5t-108 -271.5zM995 387q208 11 318 105t110 272q0 52 -9.5 93.5t-34 80t-64.5 65.5t-103 44.5t-147 21.5z" />
    <glyph glyph-name="uni0425" unicode="&#x425;" horiz-adv-x="1370" 
d="M-25 0l570 737l-402 717h326l260 -473l361 473h335l-551 -717l410 -737h-326l-270 494l-375 -494h-338z" />
    <glyph glyph-name="uni0426" unicode="&#x426;" horiz-adv-x="1611" 
d="M1217 -141l14 141h-1182l154 1454h278l-125 -1196h623l125 1196h280l-124 -1196h280l-41 -399h-282z" />
    <glyph glyph-name="uni0427" unicode="&#x427;" horiz-adv-x="1288" 
d="M514 369q-93 0 -173 28.5t-140.5 84.5t-90 150t-16.5 214l66 608h280l-59 -559q-14 -138 57 -206t191 -68q123 0 210.5 68t100.5 206v-14l59 573h281l-152 -1454h-280l57 543q-57 -72 -158.5 -123t-232.5 -51z" />
    <glyph glyph-name="uni0428" unicode="&#x428;" horiz-adv-x="2064" 
d="M49 0l154 1454h278l-125 -1196h508l125 1196h281l-125 -1196h506l127 1196h280l-153 -1454h-1856z" />
    <glyph glyph-name="uni0429" unicode="&#x429;" horiz-adv-x="2281" 
d="M1890 -141l15 141h-1856l154 1454h278l-125 -1196h508l125 1196h281l-125 -1196h506l127 1196h280l-127 -1196h279l-41 -399h-279z" />
    <glyph glyph-name="uni042A" unicode="&#x42a;" horiz-adv-x="1376" 
d="M223 0l127 1196h-278l26 258h557l-53 -504h225q225 0 353.5 -115t128.5 -317q0 -225 -158.5 -371.5t-413.5 -146.5h-514zM530 258h203q132 0 212.5 62.5t80.5 183.5q0 205 -235 205h-213z" />
    <glyph glyph-name="uni042B" unicode="&#x42b;" horiz-adv-x="1724" 
d="M49 0l154 1454h278l-53 -504h225q225 0 353.5 -115t128.5 -317q0 -225 -158.5 -371.5t-413.5 -146.5h-514zM356 258h203q132 0 212.5 62.5t80.5 183.5q0 205 -236 205h-213zM1284 0l154 1454h278l-151 -1454h-281z" />
    <glyph glyph-name="uni042C" unicode="&#x42c;" horiz-adv-x="1202" 
d="M49 0l154 1454h278l-53 -504h225q225 0 353.5 -115t128.5 -317q0 -225 -158.5 -371.5t-413.5 -146.5h-514zM356 258h203q132 0 212.5 62.5t80.5 183.5q0 205 -236 205h-213z" />
    <glyph glyph-name="uni042D" unicode="&#x42d;" horiz-adv-x="1476" 
d="M627 -20q-82 0 -159 16t-154 50.5t-143 98t-112 150.5l215 141q59 -97 155.5 -144.5t211.5 -47.5q174 0 303.5 101.5t177.5 264.5l-346 -2l25 240l340 4q-21 168 -132 263t-272 95q-239 0 -401 -200l-186 149q63 88 141 152t160 98.5t159.5 50t157.5 15.5
q141 0 263.5 -47t213 -132.5t142 -212.5t51.5 -280q0 -227 -108 -416t-294.5 -298t-408.5 -109z" />
    <glyph glyph-name="uni042E" unicode="&#x42e;" horiz-adv-x="2177" 
d="M49 0l154 1454h278l-65 -612l211 -2q43 183 159.5 327.5t286 226t361.5 81.5t346.5 -81t246 -235.5t91.5 -355.5q0 -170 -67 -323.5t-179.5 -262.5t-265 -173t-318.5 -64q-184 0 -334.5 74.5t-243.5 216.5t-104 329h-215l-61 -600h-281zM891 678q0 -196 120 -314
t304 -118q140 0 258 69.5t187 191.5t69 269q0 196 -119.5 314t-304.5 118q-140 0 -258 -69.5t-187 -191.5t-69 -269z" />
    <glyph glyph-name="uni042F" unicode="&#x42f;" horiz-adv-x="1312" 
d="M440 555q-107 51 -168 150t-61 235q0 223 156.5 368.5t404.5 145.5h535l-154 -1454h-281l54 504h-234l-360 -504h-303zM492 954q0 -209 225 -209h233l47 451h-239q-129 0 -197.5 -62.5t-68.5 -179.5z" />
    <glyph glyph-name="uni0430" unicode="&#x430;" 
d="M508 -20q-89 0 -170 32t-145.5 91.5t-103 155.5t-38.5 214q0 167 73 307.5t201.5 222.5t284.5 82q132 0 219 -53t111 -110h12l17 143h274l-110 -1065h-277l16 143h-12q-31 -55 -129.5 -109t-222.5 -54zM326 496q0 -70 23 -124t61 -85t84 -46.5t96 -15.5q62 0 120.5 23
t106 65.5t76.5 109t29 146.5q0 70 -23 124t-62.5 85t-85 46.5t-96.5 15.5q-83 0 -157 -39t-123 -119t-49 -186z" />
    <glyph glyph-name="uni0431" unicode="&#x431;" horiz-adv-x="1267" 
d="M659 -20q-77 0 -141.5 20t-100.5 49t-55.5 57t-17.5 48l-20 -154h-275l113 1081q20 180 120 266.5t296 86.5h190q69 0 98.5 9.5t51.5 33.5h274q-45 -154 -131 -212.5t-252 -58.5h-213q-64 0 -109.5 -34t-52.5 -101l-14 -133q2 12 26.5 34.5t65.5 48t106.5 44t135.5 18.5
q89 0 170.5 -31.5t148 -90.5t106.5 -155.5t40 -215.5q0 -129 -45 -243.5t-121 -194t-179 -126t-215 -46.5zM365 494q0 -132 75 -201.5t185 -69.5q60 0 116.5 21.5t103.5 62t76 107.5t29 151q0 137 -73.5 206t-186.5 69q-142 0 -233.5 -101.5t-91.5 -244.5z" />
    <glyph glyph-name="uni0432" unicode="&#x432;" horiz-adv-x="1191" 
d="M49 0l113 1065h567q164 0 254 -66t90 -186q0 -152 -153 -227q188 -73 188 -252q0 -86 -40 -151.5t-110.5 -104.5t-159.5 -58.5t-194 -19.5h-555zM348 227h305q176 0 176 119q0 107 -151 107h-305zM395 664h271q40 0 68 12t40 30.5t16.5 32.5t4.5 27q0 72 -105 72h-276z
" />
    <glyph glyph-name="uni0433" unicode="&#x433;" horiz-adv-x="1001" 
d="M49 0l113 1065h813l-25 -240h-538l-88 -825h-275z" />
    <glyph glyph-name="uni0434" unicode="&#x434;" horiz-adv-x="1445" 
d="M-8 -113l35 355l129 4q34 46 58.5 105.5t40 135t22.5 123.5t16 131l35 324h964l-88 -823h154l-37 -355h-277l13 113h-778l-13 -113h-274zM428 236l502 6l61 583h-413l-11 -92q-7 -76 -14 -130.5t-22 -126.5t-41 -132.5t-62 -107.5z" />
    <glyph glyph-name="uni0435" unicode="&#x435;" horiz-adv-x="1169" 
d="M561 -20q-103 0 -194.5 33t-162.5 95t-112 159.5t-41 217.5q0 167 79 305t214 216.5t295 78.5q85 0 163.5 -24t147.5 -74.5t112 -128.5t56.5 -185.5t-18.5 -246.5h-797q21 -108 103 -164.5t202 -56.5q158 0 283 96l108 -133q-80 -87 -192.5 -137.5t-245.5 -50.5zM315 627
h562q-4 111 -78 169t-181 58q-111 0 -190.5 -62t-112.5 -165z" />
    <glyph glyph-name="uni0436" unicode="&#x436;" horiz-adv-x="1941" 
d="M-4 0l553 621l-361 444h338l330 -420l43 420h275l-46 -424l422 424h338l-454 -444l421 -621h-329l-285 430l-149 -143l-29 -287h-275l31 289l-117 143l-376 -432h-330z" />
    <glyph glyph-name="uni0437" unicode="&#x437;" horiz-adv-x="1075" 
d="M481 -20q-204 0 -322 102t-98 280h256q-9 -69 40 -113t147 -44q90 0 148.5 38t58.5 101q0 62 -61 95.5t-173 33.5l17 174q94 2 146 26t52 85q0 98 -135 98q-69 0 -110 -29t-44 -77h-262q15 152 134 242.5t317 90.5q177 0 277 -73.5t100 -186.5q0 -92 -65 -160.5
t-161 -91.5q28 -3 56 -11t61.5 -25.5t58 -42t41.5 -64.5t17 -90q0 -107 -71 -190.5t-183 -125.5t-242 -42z" />
    <glyph glyph-name="uni0438" unicode="&#x438;" horiz-adv-x="1216" 
d="M49 0l111 1065h274l-69 -666l528 666h276l-110 -1065h-277l70 666l-528 -666h-275z" />
    <glyph glyph-name="uni0439" unicode="&#x439;" horiz-adv-x="1216" 
d="M49 0l111 1065h274l-69 -666l528 666h276l-110 -1065h-277l70 666l-528 -666h-275zM377 1516h168q-7 -73 25 -123t114 -50q83 0 123 50t45 123h168q-6 -63 -30 -119t-65 -103.5t-107.5 -75.5t-149.5 -28q-68 0 -121.5 18.5t-87 50t-54.5 74t-27.5 88.5t-0.5 95z" />
    <glyph glyph-name="uni043A" unicode="&#x43a;" horiz-adv-x="1204" 
d="M49 0l111 1065h274l-45 -424l422 424h338l-455 -444l422 -621h-330l-284 430l-150 -143l-28 -287h-275z" />
    <glyph glyph-name="uni043B" unicode="&#x43b;" horiz-adv-x="1351" 
d="M172 -12q-126 0 -199 39l23 217q38 -17 106 -17q57 0 85.5 27.5t33.5 69.5l76 741h1008l-113 -1065h-277l89 825h-457l-53 -499q-8 -71 -23.5 -125.5t-38.5 -91t-50 -61t-62.5 -37.5t-70 -18t-77.5 -5z" />
    <glyph glyph-name="uni043C" unicode="&#x43c;" horiz-adv-x="1472" 
d="M49 0l111 1065h305l256 -698l395 698h309l-110 -1065h-277l60 578l-312 -578h-198l-205 578l-59 -578h-275z" />
    <glyph glyph-name="uni043D" unicode="&#x43d;" horiz-adv-x="1193" 
d="M49 0l113 1065h274l-45 -432h432l47 432h275l-113 -1065h-274l41 393h-432l-43 -393h-275z" />
    <glyph glyph-name="uni043E" unicode="&#x43e;" horiz-adv-x="1220" 
d="M563 -20q-90 0 -178.5 32t-164 92t-122.5 159t-47 220q0 168 83 307t222 217t303 78q71 0 142.5 -19.5t138 -61t117.5 -99.5t81.5 -142.5t30.5 -182.5q0 -167 -83 -305.5t-221.5 -216.5t-301.5 -78zM319 492q0 -126 78.5 -197.5t180.5 -71.5q131 0 228 94.5t97 253.5
q0 66 -23 119t-61 85.5t-83.5 49.5t-92.5 17q-130 0 -227 -95t-97 -255z" />
    <glyph glyph-name="uni043F" unicode="&#x43f;" horiz-adv-x="1226" 
d="M49 0l113 1065h1016l-113 -1065h-274l88 825h-467l-88 -825h-275z" />
    <glyph glyph-name="uni0440" unicode="&#x440;" horiz-adv-x="1288" 
d="M8 -389l152 1454h274l-16 -143h12q37 57 136 110t225 53q88 0 167.5 -31t143 -89.5t101.5 -153t38 -211.5q0 -126 -42.5 -240t-115 -197.5t-174 -133t-215.5 -49.5q-131 0 -223.5 53.5t-120.5 109.5h-10l-57 -532h-275zM371 492q0 -131 76 -199t184 -68q61 0 119.5 22
t107.5 64t79 110t30 152q0 131 -76 199t-184 68q-61 0 -119.5 -22t-107.5 -64t-79 -110t-30 -152z" />
    <glyph glyph-name="uni0441" unicode="&#x441;" horiz-adv-x="1128" 
d="M569 -20q-103 0 -195.5 32t-165 92.5t-115 156.5t-42.5 214q0 172 83.5 313t223 219t304.5 78q150 0 267.5 -67.5t176.5 -194.5l-215 -129q-35 65 -99.5 104.5t-146.5 39.5q-130 0 -225.5 -91.5t-95.5 -240.5q0 -127 76.5 -203t189.5 -76q81 0 150.5 39.5t115.5 104.5
l188 -129q-175 -262 -475 -262z" />
    <glyph glyph-name="uni0442" unicode="&#x442;" horiz-adv-x="956" 
d="M283 0l86 825h-283l25 240h843l-24 -240h-285l-88 -825h-274z" />
    <glyph glyph-name="uni0443" unicode="&#x443;" horiz-adv-x="1216" 
d="M201 -389l217 409l-332 1045h283l215 -737l368 737h287l-762 -1454h-276z" />
    <glyph glyph-name="uni0444" unicode="&#x444;" horiz-adv-x="2097" 
d="M815 -389l57 532h-12q-31 -55 -129 -109t-225 -54q-88 0 -168.5 30.5t-145.5 88.5t-104 152.5t-39 213.5q0 167 74.5 309.5t207 226.5t292.5 84q126 0 213 -54t104 -109h10l62 563h274l-59 -563h10q33 56 130.5 109.5t225.5 53.5q87 0 167.5 -30.5t146 -88t104.5 -151.5
t39 -211q0 -169 -74 -312t-206 -227.5t-293 -84.5q-127 0 -214 54t-104 109h-12l-57 -532h-275zM324 500q0 -129 76 -202t186 -73q57 0 112 19.5t104 58.5t79 107t30 155q0 131 -73.5 203t-186.5 72q-44 0 -87.5 -11.5t-87.5 -38t-77 -64.5t-54 -96.5t-21 -129.5zM1186 500
q0 -131 74.5 -203t187.5 -72q43 0 87 11.5t87.5 38t77.5 64.5t55 96.5t21 129.5q0 129 -77 202t-188 73q-57 0 -112 -19.5t-104 -58.5t-79 -107t-30 -155z" />
    <glyph glyph-name="uni0445" unicode="&#x445;" horiz-adv-x="1173" 
d="M-35 0l469 545l-313 520h307l182 -320l248 320h322l-430 -520l346 -545h-310l-208 346l-287 -346h-326z" />
    <glyph glyph-name="uni0446" unicode="&#x446;" horiz-adv-x="1255" 
d="M864 -141l15 141h-830l113 1065h274l-88 -823h420l88 823h277l-89 -823h136l-39 -383h-277z" />
    <glyph glyph-name="uni0447" unicode="&#x447;" horiz-adv-x="1224" 
d="M496 233q-87 0 -158.5 23t-126.5 72t-80.5 135t-13.5 201l43 401h274l-39 -381q-11 -100 47 -153.5t154 -53.5t172 50.5t92 142.5l41 395h277l-111 -1065h-276l36 358q-119 -125 -331 -125z" />
    <glyph glyph-name="uni0448" unicode="&#x448;" horiz-adv-x="1679" 
d="M49 0l113 1065h274l-88 -823h322l88 823h276l-88 -823h322l88 823h274l-112 -1065h-1469z" />
    <glyph glyph-name="uni0449" unicode="&#x449;" horiz-adv-x="1753" 
d="M1364 -141l14 141h-1329l113 1065h274l-88 -823h322l88 823h276l-88 -823h322l88 823h274l-88 -823h137l-39 -383h-276z" />
    <glyph glyph-name="uni044A" unicode="&#x44a;" horiz-adv-x="1220" 
d="M29 825l26 240h453l-41 -385h360q150 0 236 -82.5t86 -228.5q0 -168 -111 -268.5t-282 -100.5h-633l86 825h-180zM422 242h321q136 0 136 104q0 94 -115 94h-322z" />
    <glyph glyph-name="uni044B" unicode="&#x44b;" horiz-adv-x="1613" 
d="M1178 0l112 1065h277l-113 -1065h-276zM49 0l111 1065h274l-41 -385h361q150 0 235.5 -82.5t85.5 -228.5q0 -168 -111 -268.5t-282 -100.5h-633zM348 242h322q135 0 135 104q0 94 -115 94h-321z" />
    <glyph glyph-name="uni044C" unicode="&#x44c;" horiz-adv-x="1146" 
d="M49 0l111 1065h274l-41 -385h361q150 0 235.5 -82.5t85.5 -228.5q0 -168 -111 -268.5t-282 -100.5h-633zM348 242h322q135 0 135 104q0 94 -115 94h-321z" />
    <glyph glyph-name="uni044D" unicode="&#x44d;" horiz-adv-x="1118" 
d="M461 -18q-147 0 -260.5 66.5t-175.5 193.5l219 88q33 -51 95 -78t138 -27q105 0 187 54.5t116 154.5l-266 -4l21 188l268 7q-13 105 -83 160t-171 55q-143 0 -258 -115l-207 106q85 125 208.5 188.5t262.5 63.5q97 0 187.5 -31.5t163.5 -91t117 -156t44 -216.5
q0 -168 -80.5 -307.5t-219.5 -219t-306 -79.5z" />
    <glyph glyph-name="uni044E" unicode="&#x44e;" horiz-adv-x="1716" 
d="M49 0l113 1065h274l-43 -410h178q56 191 218 310.5t366 119.5q71 0 142.5 -19.5t138 -61t117.5 -99.5t81.5 -142.5t30.5 -182.5q0 -167 -83 -305.5t-221.5 -216.5t-301.5 -78q-82 0 -163.5 26.5t-153.5 77t-123 132.5t-66 183h-186l-43 -399h-275zM815 492
q0 -86 39.5 -149t97 -91.5t121.5 -28.5q131 0 228.5 94.5t97.5 253.5q0 66 -23 119t-61 85.5t-83.5 49.5t-92.5 17q-130 0 -227 -95t-97 -255z" />
    <glyph glyph-name="uni044F" unicode="&#x44f;" horiz-adv-x="1216" 
d="M29 0l319 324q-110 30 -171.5 114t-61.5 211q0 185 123 300.5t315 115.5h614l-110 -1065h-277l33 309h-166l-305 -309h-313zM381 676q0 -58 35 -91.5t102 -33.5h320l28 274h-319q-77 0 -121.5 -41t-44.5 -108z" />
    <glyph glyph-name="uni0450" unicode="&#x450;" horiz-adv-x="1169" 
d="M561 -20q-103 0 -194.5 33t-162.5 95t-112 159.5t-41 217.5q0 167 79 305t214 216.5t295 78.5q85 0 163.5 -24t147.5 -74.5t112 -128.5t56.5 -185.5t-18.5 -246.5h-797q21 -108 103 -164.5t202 -56.5q158 0 283 96l108 -133q-80 -87 -192.5 -137.5t-245.5 -50.5z
M315 1516h228l180 -322h-223zM315 627h562q-4 111 -78 169t-181 58q-111 0 -190.5 -62t-112.5 -165z" />
    <glyph glyph-name="uni0451" unicode="&#x451;" horiz-adv-x="1169" 
d="M561 -20q-103 0 -194.5 33t-162.5 95t-112 159.5t-41 217.5q0 167 79 305t214 216.5t295 78.5q85 0 163.5 -24t147.5 -74.5t112 -128.5t56.5 -185.5t-18.5 -246.5h-797q21 -108 103 -164.5t202 -56.5q158 0 283 96l108 -133q-80 -87 -192.5 -137.5t-245.5 -50.5z
M274 1212l27 273h258l-31 -273h-254zM315 627h562q-4 111 -78 169t-181 58q-111 0 -190.5 -62t-112.5 -165zM774 1212l29 273h258l-31 -273h-256z" />
    <glyph glyph-name="uni0453" unicode="&#x453;" horiz-adv-x="1026" 
d="M49 0l113 1065h837l-26 -240h-561l-88 -825h-275zM477 1169l166 265h336l-287 -265h-215z" />
    <glyph glyph-name="uni0454" unicode="&#x454;" horiz-adv-x="1120" 
d="M563 -18q-97 0 -186.5 29.5t-163.5 87t-118 153t-44 215.5q0 170 77 310.5t216 223t311 82.5q149 0 262.5 -67t174.5 -195l-213 -88q-41 55 -94 81t-132 26q-111 0 -193.5 -58.5t-123.5 -167.5l268 4l-20 -188l-265 -6q23 -98 91.5 -148.5t169.5 -50.5q138 0 256 113
l202 -107q-88 -125 -211 -187t-264 -62z" />
    <glyph glyph-name="uni0455" unicode="&#x455;" horiz-adv-x="905" 
d="M414 -20q-165 0 -275 78.5t-123 220.5l224 63q14 -60 58.5 -101.5t119.5 -41.5q59 0 99 27.5t40 84.5q0 42 -25.5 67.5t-87.5 49.5l-116 45q-114 43 -170 117t-56 166q0 143 116 236t278 93q142 0 241.5 -74.5t116.5 -193.5l-217 -61q-39 110 -150 110q-55 0 -85.5 -24.5
t-30.5 -69.5q0 -33 20 -57t70 -43l127 -51q49 -18 87 -40t75.5 -56.5t58 -85.5t20.5 -115q0 -157 -117.5 -250.5t-297.5 -93.5z" />
    <glyph glyph-name="uni0456" unicode="&#x456;" horiz-adv-x="481" 
d="M49 0l111 1065h274l-110 -1065h-275zM174 1212l25 242h276l-24 -242h-277z" />
    <glyph glyph-name="uni0457" unicode="&#x457;" horiz-adv-x="485" 
d="M49 0l113 1065h274l-112 -1065h-275zM-63 1212l26 273h258l-31 -273h-253zM436 1212l29 273h258l-31 -273h-256z" />
    <glyph glyph-name="uni0458" unicode="&#x458;" horiz-adv-x="487" 
d="M-283 -395l29 254h59q60 0 101 9.5t75 35t54 72.5t28 120l101 969h276l-104 -995q-27 -246 -158.5 -355.5t-386.5 -109.5h-74zM180 1212l25 242h276l-24 -242h-277z" />
    <glyph glyph-name="uni045C" unicode="&#x45c;" horiz-adv-x="1204" 
d="M49 0l111 1065h274l-45 -424l422 424h338l-455 -444l422 -621h-330l-284 430l-150 -143l-28 -287h-275zM543 1194l178 322h229l-184 -322h-223z" />
    <glyph glyph-name="uni045E" unicode="&#x45e;" horiz-adv-x="1216" 
d="M201 -389l217 409l-332 1045h283l215 -737l368 737h287l-762 -1454h-276zM317 1516h168q-7 -73 25.5 -123t114.5 -50q83 0 123 50t45 123h168q-6 -63 -30 -119t-65.5 -103.5t-108 -75.5t-149.5 -28q-68 0 -121.5 18.5t-87 50t-54.5 74t-27.5 88.5t-0.5 95z" />
    <glyph glyph-name="uni0490" unicode="&#x490;" horiz-adv-x="1056" 
d="M455 1196l-125 -1196h-281l154 1454h606l10 96h281l-41 -354h-604z" />
    <glyph glyph-name="uni0491" unicode="&#x491;" horiz-adv-x="1001" 
d="M49 0l113 1065h536l11 94h276l-35 -334h-538l-88 -825h-275z" />
    <glyph glyph-name="uni04C0" unicode="&#x4c0;" horiz-adv-x="489" 
d="M49 0l154 1454h278l-151 -1454h-281z" />
    <glyph glyph-name="uni04CF" unicode="&#x4cf;" horiz-adv-x="483" 
d="M49 0l152 1454h274l-151 -1454h-275z" />
    <glyph glyph-name="uni04E2" unicode="&#x4e2;" horiz-adv-x="1435" 
d="M49 0l154 1454h278l-104 -985l778 985h275l-154 -1454h-281l105 983l-781 -983h-270zM449 1602l22 208h770l-22 -208h-770z" />
    <glyph glyph-name="uni04E3" unicode="&#x4e3;" horiz-adv-x="1216" 
d="M49 0l111 1065h274l-69 -666l528 666h276l-110 -1065h-277l70 666l-528 -666h-275zM297 1212l22 209h771l-23 -209h-770z" />
    <glyph glyph-name="uni1E04" unicode="&#x1e04;" horiz-adv-x="1189" 
d="M49 0l152 1454h532q170 0 268.5 -88.5t98.5 -228.5q0 -118 -66.5 -204t-159.5 -122q107 -29 175.5 -116.5t68.5 -229.5q0 -205 -145.5 -335t-403.5 -130h-520zM354 246h224q132 0 198 63.5t66 167.5q0 93 -56 144t-168 51h-219zM387 -369l23 234h229l-25 -234h-227z
M422 889h194q101 0 154 49t53 129q0 141 -174 141h-194z" />
    <glyph glyph-name="uni1E05" unicode="&#x1e05;" horiz-adv-x="1288" 
d="M694 -20q-131 0 -223.5 53.5t-120.5 109.5h-10l-16 -143h-275l152 1454h274l-57 -532h12q37 57 136 110t225 53q88 0 167.5 -31t143 -89.5t101.5 -153t38 -211.5q0 -126 -42.5 -240t-115 -197.5t-174 -133t-215.5 -49.5zM371 492q0 -131 76 -199t184 -68q61 0 119.5 22
t107.5 64t79 110t30 152q0 131 -76 199t-184 68q-61 0 -119.5 -22t-107.5 -64t-79 -110t-30 -152zM436 -369l23 234h229l-24 -234h-228z" />
    <glyph glyph-name="uni1E0C" unicode="&#x1e0c;" horiz-adv-x="1394" 
d="M49 0l152 1454h512q138 0 257.5 -50t204 -138t133 -213.5t48.5 -272.5q0 -163 -61.5 -308.5t-166.5 -248.5t-250 -163t-305 -60h-524zM356 264h222q221 0 353 144t132 364q0 189 -101.5 303.5t-287.5 114.5h-221zM485 -369l23 234h229l-24 -234h-228z" />
    <glyph glyph-name="uni1E0D" unicode="&#x1e0d;" 
d="M508 -20q-89 0 -170 32t-145.5 91.5t-103 155.5t-38.5 214q0 167 73 307.5t201.5 222.5t284.5 82q132 0 219 -53t111 -110h12l58 532h274l-151 -1454h-277l16 143h-12q-31 -55 -129.5 -109t-222.5 -54zM326 496q0 -70 23 -124t61 -85t84 -46.5t96 -15.5q62 0 120.5 23
t106 65.5t76.5 109t29 146.5q0 70 -23 124t-62.5 85t-85 46.5t-96.5 15.5q-83 0 -157 -39t-123 -119t-49 -186zM438 -369l23 234h229l-24 -234h-228z" />
    <glyph glyph-name="uni1E20" unicode="&#x1e20;" horiz-adv-x="1585" 
d="M776 -20q-140 0 -263.5 47t-215 132.5t-144.5 212.5t-53 279q0 226 110 416t298 299t410 109q63 0 122.5 -9t123.5 -31.5t119.5 -57.5t107 -91t88.5 -127l-215 -143q-115 194 -359 194q-144 0 -263 -70t-187 -191t-68 -267q0 -198 121.5 -321t310.5 -123q143 0 252 75
t156 234h-353l23 235h623q4 -147 -33.5 -276t-107.5 -224.5t-164.5 -164t-206.5 -103t-232 -34.5zM522 1602l23 208h770l-23 -208h-770z" />
    <glyph glyph-name="uni1E21" unicode="&#x1e21;" 
d="M526 -426q-94 0 -177.5 18t-127.5 48l25 223q36 -26 108 -43t152 -17q152 0 249 68.5t109 189.5l8 82h-12q-31 -54 -129.5 -108.5t-222.5 -54.5q-87 0 -167.5 31.5t-146 90.5t-104.5 154t-39 211q0 133 45 249t120.5 196.5t177 126.5t212.5 46q130 0 220 -53.5
t114 -109.5h12l17 143h274l-102 -985q-12 -117 -58 -208.5t-107.5 -146.5t-142 -90t-155 -48t-152.5 -13zM326 498q0 -130 75 -201.5t189 -71.5q138 0 235 97.5t97 244.5q0 130 -76 201.5t-191 71.5q-137 0 -233 -99t-96 -243zM334 1212l22 209h770l-22 -209h-770z" />
    <glyph glyph-name="uni1E24" unicode="&#x1e24;" horiz-adv-x="1368" 
d="M928 0l61 586h-600l-61 -586h-281l154 1454h280l-63 -610h600l63 610h281l-154 -1454h-280zM475 -369l23 234h229l-25 -234h-227z" />
    <glyph glyph-name="uni1E25" unicode="&#x1e25;" horiz-adv-x="1212" 
d="M49 0l154 1454h276l-57 -528q120 159 336 159q176 0 279.5 -114.5t80.5 -343.5l-65 -627h-275l60 582q14 118 -41.5 188t-163.5 70t-172 -69t-76 -189l-61 -582h-275zM399 -369l23 234h229l-24 -234h-228z" />
    <glyph glyph-name="uni1E62" unicode="&#x1e62;" horiz-adv-x="1128" 
d="M526 -20q-190 0 -327.5 103t-163.5 269l237 105q23 -99 92 -160t179 -61q98 0 162.5 47.5t64.5 140.5q0 73 -45.5 118.5t-151.5 88.5l-79 33q-74 31 -130 65t-103 81t-72 109t-25 138q0 186 138 302t341 116q92 0 171 -26t134 -70.5t92 -98t56 -113.5l-224 -116
q-76 174 -237 174q-84 0 -138.5 -44t-54.5 -114q0 -57 45 -101.5t148 -86.5l90 -37q175 -71 256.5 -164.5t81.5 -237.5q0 -89 -31.5 -165.5t-84 -129.5t-122 -91t-145.5 -56t-154 -18zM356 -369l23 234h229l-24 -234h-228z" />
    <glyph glyph-name="uni1E63" unicode="&#x1e63;" horiz-adv-x="905" 
d="M414 -20q-165 0 -275 78.5t-123 220.5l224 63q14 -60 58.5 -101.5t119.5 -41.5q59 0 99 27.5t40 84.5q0 42 -25.5 67.5t-87.5 49.5l-116 45q-114 43 -170 117t-56 166q0 143 116 236t278 93q142 0 241.5 -74.5t116.5 -193.5l-217 -61q-39 110 -150 110q-55 0 -85.5 -24.5
t-30.5 -69.5q0 -33 20 -57t70 -43l127 -51q49 -18 87 -40t75.5 -56.5t58 -85.5t20.5 -115q0 -157 -117.5 -250.5t-297.5 -93.5zM246 -369l22 234h230l-25 -234h-227z" />
    <glyph glyph-name="uni1E6C" unicode="&#x1e6c;" horiz-adv-x="1079" 
d="M342 0l125 1196h-344l29 258h972l-28 -258h-348l-125 -1196h-281zM332 -369l22 234h230l-25 -234h-227z" />
    <glyph glyph-name="uni1E6D" unicode="&#x1e6d;" horiz-adv-x="763" 
d="M459 -12q-143 0 -219 75t-60 232l58 551h-154l22 219h154l29 272h276l-28 -272h219l-23 -219h-219l-53 -506q-5 -46 21 -77.5t89 -31.5q43 0 101 17l-23 -211q-54 -49 -190 -49zM309 -369l23 234h229l-24 -234h-228z" />
    <glyph glyph-name="Wgrave" unicode="&#x1e80;" horiz-adv-x="2070" 
d="M428 0l-301 1454h297l186 -969l410 969h223l209 -969l387 969h295l-606 -1454h-221l-228 979l-428 -979h-223zM831 1905h228l180 -322h-223z" />
    <glyph glyph-name="wgrave" unicode="&#x1e81;" horiz-adv-x="1880" 
d="M1149 0l-191 715l-337 -715h-254l-281 1065h274l168 -737l336 737h258l185 -737l319 737h277l-502 -1065h-252zM696 1516h228l180 -322h-223z" />
    <glyph glyph-name="Wacute" unicode="&#x1e82;" horiz-adv-x="2070" 
d="M428 0l-301 1454h297l186 -969l410 969h223l209 -969l387 969h295l-606 -1454h-221l-228 979l-428 -979h-223zM1022 1583l178 322h230l-185 -322h-223z" />
    <glyph glyph-name="wacute" unicode="&#x1e83;" horiz-adv-x="1880" 
d="M1149 0l-191 715l-337 -715h-254l-281 1065h274l168 -737l336 737h258l185 -737l319 737h277l-502 -1065h-252zM887 1194l178 322h229l-184 -322h-223z" />
    <glyph glyph-name="Wdieresis" unicode="&#x1e84;" horiz-adv-x="2070" 
d="M428 0l-301 1454h297l186 -969l410 969h223l209 -969l387 969h295l-606 -1454h-221l-228 979l-428 -979h-223zM770 1602l27 272h258l-31 -272h-254zM1270 1602l28 272h258l-30 -272h-256z" />
    <glyph glyph-name="wdieresis" unicode="&#x1e85;" horiz-adv-x="1880" 
d="M1149 0l-191 715l-337 -715h-254l-281 1065h274l168 -737l336 737h258l185 -737l319 737h277l-502 -1065h-252zM635 1212l27 273h258l-31 -273h-254zM1135 1212l28 273h258l-30 -273h-256z" />
    <glyph glyph-name="uni1E92" unicode="&#x1e92;" horiz-adv-x="1218" 
d="M-14 0l817 1196h-658l25 258h1102l-817 -1196h671l-24 -258h-1116zM428 -369l23 234h229l-25 -234h-227z" />
    <glyph glyph-name="uni1E93" unicode="&#x1e93;" horiz-adv-x="1075" 
d="M-25 0l652 825h-508l26 240h953l-649 -823h530l-25 -242h-979zM387 -369l23 234h229l-25 -234h-227z" />
    <glyph glyph-name="uni1E9E" unicode="&#x1e9e;" horiz-adv-x="1323" 
d="M49 0l152 1454h1050l-26 -264l-351 -369q172 -12 263.5 -101.5t91.5 -252.5q0 -218 -151 -342.5t-416 -124.5h-164l26 242h125q63 0 112.5 9t92 30t65.5 61t23 98q0 195 -274 195h-88l20 194l342 367h-489l-123 -1196h-281z" />
    <glyph glyph-name="uni1EA0" unicode="&#x1ea0;" horiz-adv-x="1462" 
d="M977 1454l397 -1454h-305l-65 262h-603l-122 -262h-304l705 1454h297zM520 520h418l-145 584zM522 -369l23 234h229l-24 -234h-228z" />
    <glyph glyph-name="uni1EA1" unicode="&#x1ea1;" 
d="M508 -20q-89 0 -170 32t-145.5 91.5t-103 155.5t-38.5 214q0 167 73 307.5t201.5 222.5t284.5 82q132 0 219 -53t111 -110h12l17 143h274l-110 -1065h-277l16 143h-12q-31 -55 -129.5 -109t-222.5 -54zM326 496q0 -70 23 -124t61 -85t84 -46.5t96 -15.5q62 0 120.5 23
t106 65.5t76.5 109t29 146.5q0 70 -23 124t-62.5 85t-85 46.5t-96.5 15.5q-83 0 -157 -39t-123 -119t-49 -186zM438 -369l23 234h229l-24 -234h-228z" />
    <glyph glyph-name="uni1EA2" unicode="&#x1ea2;" horiz-adv-x="1462" 
d="M977 1454l397 -1454h-305l-65 262h-603l-122 -262h-304l705 1454h297zM520 520h418l-145 584zM659 1892q28 57 82.5 90t120.5 33q89 0 152 -59.5t63 -147.5q0 -100 -75.5 -169.5t-180.5 -69.5h-69l18 170h64q28 0 44.5 15t16.5 40q0 20 -12.5 32.5t-34.5 12.5
q-42 0 -55 -45z" />
    <glyph glyph-name="uni1EA3" unicode="&#x1ea3;" 
d="M508 -20q-89 0 -170 32t-145.5 91.5t-103 155.5t-38.5 214q0 167 73 307.5t201.5 222.5t284.5 82q132 0 219 -53t111 -110h12l17 143h274l-110 -1065h-277l16 143h-12q-31 -55 -129.5 -109t-222.5 -54zM326 496q0 -70 23 -124t61 -85t84 -46.5t96 -15.5q62 0 120.5 23
t106 65.5t76.5 109t29 146.5q0 70 -23 124t-62.5 85t-85 46.5t-96.5 15.5q-83 0 -157 -39t-123 -119t-49 -186zM539 1524q28 57 82 90t120 33q89 0 152 -59.5t63 -147.5q0 -100 -75.5 -170t-180.5 -70h-69l18 170h64q28 0 44.5 15t16.5 40q0 20 -12.5 32.5t-34.5 12.5
q-42 0 -55 -45z" />
    <glyph glyph-name="uni1EA4" unicode="&#x1ea4;" horiz-adv-x="1462" 
d="M977 1454l397 -1454h-305l-65 262h-603l-122 -262h-304l705 1454h297zM520 520h418l-145 584zM528 1626l256 258h183l200 -258l-129 -117l-178 217l-209 -217zM1067 1823l217 329h199l-223 -329h-193z" />
    <glyph glyph-name="uni1EA5" unicode="&#x1ea5;" 
d="M508 -20q-89 0 -170 32t-145.5 91.5t-103 155.5t-38.5 214q0 167 73 307.5t201.5 222.5t284.5 82q132 0 219 -53t111 -110h12l17 143h274l-110 -1065h-277l16 143h-12q-31 -55 -129.5 -109t-222.5 -54zM326 496q0 -70 23 -124t61 -85t84 -46.5t96 -15.5q62 0 120.5 23
t106 65.5t76.5 109t29 146.5q0 70 -23 124t-62.5 85t-85 46.5t-96.5 15.5q-83 0 -157 -39t-123 -119t-49 -186zM406 1257l256 259h182l200 -259l-129 -116l-178 217l-209 -217zM944 1454l217 330h199l-223 -330h-193z" />
    <glyph glyph-name="uni1EA6" unicode="&#x1ea6;" horiz-adv-x="1462" 
d="M977 1454l397 -1454h-305l-65 262h-603l-122 -262h-304l705 1454h297zM520 520h418l-145 584zM528 1626l256 258h183l200 -258l-129 -117l-178 217l-209 -217zM872 2152h203l234 -329h-193z" />
    <glyph glyph-name="uni1EA7" unicode="&#x1ea7;" 
d="M508 -20q-89 0 -170 32t-145.5 91.5t-103 155.5t-38.5 214q0 167 73 307.5t201.5 222.5t284.5 82q132 0 219 -53t111 -110h12l17 143h274l-110 -1065h-277l16 143h-12q-31 -55 -129.5 -109t-222.5 -54zM326 496q0 -70 23 -124t61 -85t84 -46.5t96 -15.5q62 0 120.5 23
t106 65.5t76.5 109t29 146.5q0 70 -23 124t-62.5 85t-85 46.5t-96.5 15.5q-83 0 -157 -39t-123 -119t-49 -186zM406 1257l256 259h182l200 -259l-129 -116l-178 217l-209 -217zM750 1784h202l234 -330h-193z" />
    <glyph glyph-name="uni1EA8" unicode="&#x1ea8;" horiz-adv-x="1462" 
d="M977 1454l397 -1454h-305l-65 262h-603l-122 -262h-304l705 1454h297zM520 520h418l-145 584zM528 1626l256 258h183l200 -258l-129 -117l-178 217l-209 -217zM946 2161q28 57 82.5 90t120.5 33q89 0 152 -59.5t63 -147.5q0 -100 -75.5 -170t-180.5 -70h-70l19 170h63
q28 0 45 15t17 40q0 20 -12.5 32.5t-34.5 12.5q-20 0 -35 -12t-21 -33z" />
    <glyph glyph-name="uni1EA9" unicode="&#x1ea9;" 
d="M508 -20q-89 0 -170 32t-145.5 91.5t-103 155.5t-38.5 214q0 167 73 307.5t201.5 222.5t284.5 82q132 0 219 -53t111 -110h12l17 143h274l-110 -1065h-277l16 143h-12q-31 -55 -129.5 -109t-222.5 -54zM326 496q0 -70 23 -124t61 -85t84 -46.5t96 -15.5q62 0 120.5 23
t106 65.5t76.5 109t29 146.5q0 70 -23 124t-62.5 85t-85 46.5t-96.5 15.5q-83 0 -157 -39t-123 -119t-49 -186zM406 1257l256 259h182l200 -259l-129 -116l-178 217l-209 -217zM823 1792q28 57 82.5 90t120.5 33q89 0 152 -59.5t63 -147.5q0 -100 -75.5 -170t-180.5 -70h-70
l19 170h63q28 0 45 15.5t17 40.5q0 20 -12.5 32.5t-34.5 12.5q-20 0 -35 -12t-21 -33z" />
    <glyph glyph-name="uni1EAA" unicode="&#x1eaa;" horiz-adv-x="1462" 
d="M977 1454l397 -1454h-305l-65 262h-603l-122 -262h-304l705 1454h297zM520 520h418l-145 584zM528 1626l256 258h183l200 -258l-129 -117l-178 217l-209 -217zM539 1972q10 117 71.5 181.5t147.5 64.5q41 0 78.5 -16.5t61 -37t51 -37t50.5 -16.5q28 0 48.5 18t23.5 50
h186q-9 -118 -71 -183t-148 -65q-41 0 -78 17t-60 37.5t-50.5 37.5t-50.5 17q-27 0 -49 -18.5t-25 -49.5h-186z" />
    <glyph glyph-name="uni1EAB" unicode="&#x1eab;" 
d="M508 -20q-89 0 -170 32t-145.5 91.5t-103 155.5t-38.5 214q0 167 73 307.5t201.5 222.5t284.5 82q132 0 219 -53t111 -110h12l17 143h274l-110 -1065h-277l16 143h-12q-31 -55 -129.5 -109t-222.5 -54zM326 496q0 -70 23 -124t61 -85t84 -46.5t96 -15.5q62 0 120.5 23
t106 65.5t76.5 109t29 146.5q0 70 -23 124t-62.5 85t-85 46.5t-96.5 15.5q-83 0 -157 -39t-123 -119t-49 -186zM406 1257l256 259h182l200 -259l-129 -116l-178 217l-209 -217zM416 1604q10 117 71.5 181t147.5 64q41 0 79 -16.5t61.5 -36.5t51 -36.5t50.5 -16.5
q28 0 48 17.5t23 49.5h187q-9 -118 -71.5 -182.5t-148.5 -64.5q-41 0 -78 17t-60 37t-50.5 37t-50.5 17q-27 0 -49 -18t-25 -49h-186z" />
    <glyph glyph-name="uni1EAC" unicode="&#x1eac;" horiz-adv-x="1462" 
d="M977 1454l397 -1454h-305l-65 262h-603l-122 -262h-304l705 1454h297zM520 520h418l-145 584zM522 -369l23 234h229l-24 -234h-228zM528 1626l256 258h183l200 -258l-129 -117l-178 217l-209 -217z" />
    <glyph glyph-name="uni1EAD" unicode="&#x1ead;" 
d="M508 -20q-89 0 -170 32t-145.5 91.5t-103 155.5t-38.5 214q0 167 73 307.5t201.5 222.5t284.5 82q132 0 219 -53t111 -110h12l17 143h274l-110 -1065h-277l16 143h-12q-31 -55 -129.5 -109t-222.5 -54zM326 496q0 -70 23 -124t61 -85t84 -46.5t96 -15.5q62 0 120.5 23
t106 65.5t76.5 109t29 146.5q0 70 -23 124t-62.5 85t-85 46.5t-96.5 15.5q-83 0 -157 -39t-123 -119t-49 -186zM406 1257l256 259h182l200 -259l-129 -116l-178 217l-209 -217zM438 -369l23 234h229l-24 -234h-228z" />
    <glyph glyph-name="uni1EAE" unicode="&#x1eae;" horiz-adv-x="1462" 
d="M977 1454l397 -1454h-305l-65 262h-603l-122 -262h-304l705 1454h297zM520 520h418l-145 584zM537 1884h168q-7 -73 25 -122.5t114 -49.5q83 0 123 49.5t45 122.5h168q-6 -63 -30 -119t-65.5 -103t-108 -75t-149.5 -28q-84 0 -145.5 28t-94 75t-45 103.5t-5.5 118.5z
M737 1847l197 305h196l-200 -305h-193z" />
    <glyph glyph-name="uni1EAF" unicode="&#x1eaf;" 
d="M508 -20q-89 0 -170 32t-145.5 91.5t-103 155.5t-38.5 214q0 167 73 307.5t201.5 222.5t284.5 82q132 0 219 -53t111 -110h12l17 143h274l-110 -1065h-277l16 143h-12q-31 -55 -129.5 -109t-222.5 -54zM326 496q0 -70 23 -124t61 -85t84 -46.5t96 -15.5q62 0 120.5 23
t106 65.5t76.5 109t29 146.5q0 70 -23 124t-62.5 85t-85 46.5t-96.5 15.5q-83 0 -157 -39t-123 -119t-49 -186zM416 1516h168q-7 -73 25 -123t114 -50q83 0 123 50t45 123h168q-6 -63 -30 -119t-65 -103.5t-107.5 -75.5t-149.5 -28q-68 0 -121.5 18.5t-87 50t-54.5 74
t-27.5 88.5t-0.5 95zM616 1479l197 305h197l-201 -305h-193z" />
    <glyph glyph-name="uni1EB0" unicode="&#x1eb0;" horiz-adv-x="1462" 
d="M977 1454l397 -1454h-305l-65 262h-603l-122 -262h-304l705 1454h297zM520 520h418l-145 584zM537 1884h168q-7 -73 25 -122.5t114 -49.5q83 0 123 49.5t45 122.5h168q-6 -63 -30 -119t-65.5 -103t-108 -75t-149.5 -28q-84 0 -145.5 28t-94 75t-45 103.5t-5.5 118.5z
M627 2144h184l154 -297h-179z" />
    <glyph glyph-name="uni1EB1" unicode="&#x1eb1;" 
d="M508 -20q-89 0 -170 32t-145.5 91.5t-103 155.5t-38.5 214q0 167 73 307.5t201.5 222.5t284.5 82q132 0 219 -53t111 -110h12l17 143h274l-110 -1065h-277l16 143h-12q-31 -55 -129.5 -109t-222.5 -54zM326 496q0 -70 23 -124t61 -85t84 -46.5t96 -15.5q62 0 120.5 23
t106 65.5t76.5 109t29 146.5q0 70 -23 124t-62.5 85t-85 46.5t-96.5 15.5q-83 0 -157 -39t-123 -119t-49 -186zM416 1516h168q-7 -73 25 -123t114 -50q83 0 123 50t45 123h168q-6 -63 -30 -119t-65 -103.5t-107.5 -75.5t-149.5 -28q-68 0 -121.5 18.5t-87 50t-54.5 74
t-27.5 88.5t-0.5 95zM506 1776h184l154 -297h-178z" />
    <glyph glyph-name="uni1EB2" unicode="&#x1eb2;" horiz-adv-x="1462" 
d="M977 1454l397 -1454h-305l-65 262h-603l-122 -262h-304l705 1454h297zM520 520h418l-145 584zM537 1884h168q-7 -73 25 -122.5t114 -49.5q83 0 123 49.5t45 122.5h168q-6 -63 -30 -119t-65.5 -103t-108 -75t-149.5 -28q-84 0 -145.5 28t-94 75t-45 103.5t-5.5 118.5z
M647 2161q28 57 82.5 90t120.5 33q89 0 152 -59.5t63 -147.5q0 -100 -75.5 -170t-180.5 -70h-70l19 170h63q28 0 45 15t17 40q0 20 -12.5 32.5t-34.5 12.5q-20 0 -35 -12t-21 -33z" />
    <glyph glyph-name="uni1EB3" unicode="&#x1eb3;" 
d="M508 -20q-89 0 -170 32t-145.5 91.5t-103 155.5t-38.5 214q0 167 73 307.5t201.5 222.5t284.5 82q132 0 219 -53t111 -110h12l17 143h274l-110 -1065h-277l16 143h-12q-31 -55 -129.5 -109t-222.5 -54zM326 496q0 -70 23 -124t61 -85t84 -46.5t96 -15.5q62 0 120.5 23
t106 65.5t76.5 109t29 146.5q0 70 -23 124t-62.5 85t-85 46.5t-96.5 15.5q-83 0 -157 -39t-123 -119t-49 -186zM416 1516h168q-7 -73 25 -123t114 -50q83 0 123 50t45 123h168q-6 -63 -30 -119t-65 -103.5t-107.5 -75.5t-149.5 -28q-68 0 -121.5 18.5t-87 50t-54.5 74
t-27.5 88.5t-0.5 95zM526 1792q28 57 82.5 90t120.5 33q89 0 152 -59.5t63 -147.5q0 -100 -75.5 -170t-180.5 -70h-70l19 170h63q28 0 45 15.5t17 40.5q0 20 -12.5 32.5t-34.5 12.5q-20 0 -35 -12t-21 -33z" />
    <glyph glyph-name="uni1EB4" unicode="&#x1eb4;" horiz-adv-x="1462" 
d="M977 1454l397 -1454h-305l-65 262h-603l-122 -262h-304l705 1454h297zM520 520h418l-145 584zM537 1884h168q-7 -73 25 -122.5t114 -49.5q83 0 123 49.5t45 122.5h168q-6 -63 -30 -119t-65.5 -103t-108 -75t-149.5 -28q-84 0 -145.5 28t-94 75t-45 103.5t-5.5 118.5z
M539 1958q10 117 71.5 181.5t147.5 64.5q41 0 78.5 -16.5t61 -37t51 -37t50.5 -16.5q28 0 48.5 18t23.5 50h186q-9 -118 -71 -183t-148 -65q-41 0 -78 17t-60 37t-50.5 37t-50.5 17q-27 0 -49 -18t-25 -49h-186z" />
    <glyph glyph-name="uni1EB5" unicode="&#x1eb5;" 
d="M508 -20q-89 0 -170 32t-145.5 91.5t-103 155.5t-38.5 214q0 167 73 307.5t201.5 222.5t284.5 82q132 0 219 -53t111 -110h12l17 143h274l-110 -1065h-277l16 143h-12q-31 -55 -129.5 -109t-222.5 -54zM326 496q0 -70 23 -124t61 -85t84 -46.5t96 -15.5q62 0 120.5 23
t106 65.5t76.5 109t29 146.5q0 70 -23 124t-62.5 85t-85 46.5t-96.5 15.5q-83 0 -157 -39t-123 -119t-49 -186zM416 1516h168q-7 -73 25 -123t114 -50q83 0 123 50t45 123h168q-6 -63 -30 -119t-65 -103.5t-107.5 -75.5t-149.5 -28q-68 0 -121.5 18.5t-87 50t-54.5 74
t-27.5 88.5t-0.5 95zM418 1589q10 117 71.5 181.5t147.5 64.5q41 0 79 -16.5t61.5 -36.5t51 -36.5t50.5 -16.5q28 0 48 17.5t23 49.5h187q-9 -118 -71 -183t-148 -65q-41 0 -78.5 17t-60 37.5t-50.5 37.5t-51 17q-27 0 -49 -18.5t-25 -49.5h-186z" />
    <glyph glyph-name="uni1EB6" unicode="&#x1eb6;" horiz-adv-x="1462" 
d="M977 1454l397 -1454h-305l-65 262h-603l-122 -262h-304l705 1454h297zM520 520h418l-145 584zM522 -369l23 234h229l-24 -234h-228zM537 1884h168q-7 -73 25 -122.5t114 -49.5q83 0 123 49.5t45 122.5h168q-6 -63 -30 -119t-65.5 -103t-108 -75t-149.5 -28
q-84 0 -145.5 28t-94 75t-45 103.5t-5.5 118.5z" />
    <glyph glyph-name="uni1EB7" unicode="&#x1eb7;" 
d="M508 -20q-89 0 -170 32t-145.5 91.5t-103 155.5t-38.5 214q0 167 73 307.5t201.5 222.5t284.5 82q132 0 219 -53t111 -110h12l17 143h274l-110 -1065h-277l16 143h-12q-31 -55 -129.5 -109t-222.5 -54zM326 496q0 -70 23 -124t61 -85t84 -46.5t96 -15.5q62 0 120.5 23
t106 65.5t76.5 109t29 146.5q0 70 -23 124t-62.5 85t-85 46.5t-96.5 15.5q-83 0 -157 -39t-123 -119t-49 -186zM416 1516h168q-7 -73 25 -123t114 -50q83 0 123 50t45 123h168q-6 -63 -30 -119t-65 -103.5t-107.5 -75.5t-149.5 -28q-68 0 -121.5 18.5t-87 50t-54.5 74
t-27.5 88.5t-0.5 95zM438 -369l23 234h229l-24 -234h-228z" />
    <glyph glyph-name="uni1EB8" unicode="&#x1eb8;" horiz-adv-x="1017" 
d="M49 0l152 1454h823l-25 -258h-544l-35 -338h454l-26 -254h-455l-37 -346h559l-24 -258h-842zM315 -369l23 234h229l-24 -234h-228z" />
    <glyph glyph-name="uni1EB9" unicode="&#x1eb9;" horiz-adv-x="1169" 
d="M561 -20q-103 0 -194.5 33t-162.5 95t-112 159.5t-41 217.5q0 167 79 305t214 216.5t295 78.5q85 0 163.5 -24t147.5 -74.5t112 -128.5t56.5 -185.5t-18.5 -246.5h-797q21 -108 103 -164.5t202 -56.5q158 0 283 96l108 -133q-80 -87 -192.5 -137.5t-245.5 -50.5zM315 627
h562q-4 111 -78 169t-181 58q-111 0 -190.5 -62t-112.5 -165zM371 -369l22 234h230l-25 -234h-227z" />
    <glyph glyph-name="uni1EBA" unicode="&#x1eba;" horiz-adv-x="1017" 
d="M49 0l152 1454h823l-25 -258h-544l-35 -338h454l-26 -254h-455l-37 -346h559l-24 -258h-842zM455 1913q28 57 82 90t120 33q89 0 152 -59.5t63 -147.5q0 -100 -75.5 -170t-180.5 -70h-69l18 170h64q28 0 44.5 15.5t16.5 40.5q0 20 -12.5 32.5t-34.5 12.5q-42 0 -55 -45z
" />
    <glyph glyph-name="uni1EBB" unicode="&#x1ebb;" horiz-adv-x="1169" 
d="M561 -20q-103 0 -194.5 33t-162.5 95t-112 159.5t-41 217.5q0 167 79 305t214 216.5t295 78.5q85 0 163.5 -24t147.5 -74.5t112 -128.5t56.5 -185.5t-18.5 -246.5h-797q21 -108 103 -164.5t202 -56.5q158 0 283 96l108 -133q-80 -87 -192.5 -137.5t-245.5 -50.5zM315 627
h562q-4 111 -78 169t-181 58q-111 0 -190.5 -62t-112.5 -165zM469 1524q28 57 82.5 90t120.5 33q89 0 152 -59.5t63 -147.5q0 -100 -75.5 -170t-180.5 -70h-70l19 170h63q28 0 45 15t17 40q0 20 -13 32.5t-35 12.5q-42 0 -55 -45z" />
    <glyph glyph-name="uni1EBC" unicode="&#x1ebc;" horiz-adv-x="1017" 
d="M49 0l152 1454h823l-25 -258h-544l-35 -338h454l-26 -254h-455l-37 -346h559l-24 -258h-842zM289 1626q10 117 71.5 181.5t147.5 64.5q52 0 97.5 -27t81 -53.5t63.5 -26.5t48 18t23 50h187q-9 -118 -71.5 -183t-148.5 -65q-41 0 -78 17t-60 37.5t-50.5 37.5t-50.5 17
q-27 0 -49 -18.5t-25 -49.5h-186z" />
    <glyph glyph-name="uni1EBD" unicode="&#x1ebd;" horiz-adv-x="1169" 
d="M561 -20q-103 0 -194.5 33t-162.5 95t-112 159.5t-41 217.5q0 167 79 305t214 216.5t295 78.5q85 0 163.5 -24t147.5 -74.5t112 -128.5t56.5 -185.5t-18.5 -246.5h-797q21 -108 103 -164.5t202 -56.5q158 0 283 96l108 -133q-80 -87 -192.5 -137.5t-245.5 -50.5z
M303 1237q10 117 71.5 181.5t147.5 64.5q41 0 79 -16.5t61.5 -37t51 -37t50.5 -16.5q28 0 48.5 18t23.5 50h186q-9 -118 -71 -183t-148 -65q-41 0 -78.5 17t-60 37.5t-50.5 37.5t-51 17q-27 0 -49 -18.5t-25 -49.5h-186zM315 627h562q-4 111 -78 169t-181 58
q-111 0 -190.5 -62t-112.5 -165z" />
    <glyph glyph-name="uni1EBE" unicode="&#x1ebe;" horiz-adv-x="1017" 
d="M49 0l152 1454h823l-25 -258h-544l-35 -338h454l-26 -254h-455l-37 -346h559l-24 -258h-842zM324 1647l256 258h182l201 -258l-129 -117l-179 217l-209 -217zM862 1843l217 330h199l-223 -330h-193z" />
    <glyph glyph-name="uni1EBF" unicode="&#x1ebf;" horiz-adv-x="1169" 
d="M561 -20q-103 0 -194.5 33t-162.5 95t-112 159.5t-41 217.5q0 167 79 305t214 216.5t295 78.5q85 0 163.5 -24t147.5 -74.5t112 -128.5t56.5 -185.5t-18.5 -246.5h-797q21 -108 103 -164.5t202 -56.5q158 0 283 96l108 -133q-80 -87 -192.5 -137.5t-245.5 -50.5zM315 627
h562q-4 111 -78 169t-181 58q-111 0 -190.5 -62t-112.5 -165zM338 1257l256 259h182l201 -259l-129 -116l-178 217l-209 -217zM877 1454l217 330h198l-223 -330h-192z" />
    <glyph glyph-name="uni1EC0" unicode="&#x1ec0;" horiz-adv-x="1017" 
d="M49 0l152 1454h823l-25 -258h-544l-35 -338h454l-26 -254h-455l-37 -346h559l-24 -258h-842zM324 1647l256 258h182l201 -258l-129 -117l-179 217l-209 -217zM668 2173h202l234 -330h-193z" />
    <glyph glyph-name="uni1EC1" unicode="&#x1ec1;" horiz-adv-x="1169" 
d="M561 -20q-103 0 -194.5 33t-162.5 95t-112 159.5t-41 217.5q0 167 79 305t214 216.5t295 78.5q85 0 163.5 -24t147.5 -74.5t112 -128.5t56.5 -185.5t-18.5 -246.5h-797q21 -108 103 -164.5t202 -56.5q158 0 283 96l108 -133q-80 -87 -192.5 -137.5t-245.5 -50.5zM315 627
h562q-4 111 -78 169t-181 58q-111 0 -190.5 -62t-112.5 -165zM338 1257l256 259h182l201 -259l-129 -116l-178 217l-209 -217zM682 1784h203l233 -330h-192z" />
    <glyph glyph-name="uni1EC2" unicode="&#x1ec2;" horiz-adv-x="1017" 
d="M49 0l152 1454h823l-25 -258h-544l-35 -338h454l-26 -254h-455l-37 -346h559l-24 -258h-842zM324 1647l256 258h182l201 -258l-129 -117l-179 217l-209 -217zM741 2181q28 57 82.5 90t120.5 33q89 0 152 -59.5t63 -147.5q0 -100 -75.5 -169.5t-180.5 -69.5h-69l18 170h63
q28 0 45 15t17 40q0 20 -12.5 32.5t-34.5 12.5q-20 0 -35 -12t-21 -33z" />
    <glyph glyph-name="uni1EC3" unicode="&#x1ec3;" horiz-adv-x="1169" 
d="M561 -20q-103 0 -194.5 33t-162.5 95t-112 159.5t-41 217.5q0 167 79 305t214 216.5t295 78.5q85 0 163.5 -24t147.5 -74.5t112 -128.5t56.5 -185.5t-18.5 -246.5h-797q21 -108 103 -164.5t202 -56.5q158 0 283 96l108 -133q-80 -87 -192.5 -137.5t-245.5 -50.5zM315 627
h562q-4 111 -78 169t-181 58q-111 0 -190.5 -62t-112.5 -165zM338 1257l256 259h182l201 -259l-129 -116l-178 217l-209 -217zM756 1792q28 57 82 90t120 33q89 0 152.5 -59.5t63.5 -147.5q0 -100 -75.5 -170t-180.5 -70h-70l18 170h64q28 0 44.5 15.5t16.5 40.5
q0 20 -12.5 32.5t-34.5 12.5q-42 0 -55 -45z" />
    <glyph glyph-name="uni1EC4" unicode="&#x1ec4;" horiz-adv-x="1017" 
d="M49 0l152 1454h823l-25 -258h-544l-35 -338h454l-26 -254h-455l-37 -346h559l-24 -258h-842zM324 1647l256 258h182l201 -258l-129 -117l-179 217l-209 -217zM334 1993q10 117 71.5 181t147.5 64q41 0 79 -16.5t61.5 -36.5t51 -36.5t50.5 -16.5q28 0 48 18t23 50h187
q-9 -118 -71 -183t-148 -65q-41 0 -78.5 17t-60 37t-50.5 37t-51 17q-27 0 -49 -18t-25 -49h-186z" />
    <glyph glyph-name="uni1EC5" unicode="&#x1ec5;" horiz-adv-x="1169" 
d="M561 -20q-103 0 -194.5 33t-162.5 95t-112 159.5t-41 217.5q0 167 79 305t214 216.5t295 78.5q85 0 163.5 -24t147.5 -74.5t112 -128.5t56.5 -185.5t-18.5 -246.5h-797q21 -108 103 -164.5t202 -56.5q158 0 283 96l108 -133q-80 -87 -192.5 -137.5t-245.5 -50.5zM315 627
h562q-4 111 -78 169t-181 58q-111 0 -190.5 -62t-112.5 -165zM338 1257l256 259h182l201 -259l-129 -116l-178 217l-209 -217zM348 1604q10 117 71.5 181t147.5 64q41 0 79 -16.5t61.5 -36.5t51 -36.5t50.5 -16.5q28 0 48.5 17.5t23.5 49.5h186q-9 -118 -71 -182.5
t-148 -64.5q-41 0 -78.5 17t-60 37t-50.5 37t-51 17q-27 0 -48.5 -18t-24.5 -49h-187z" />
    <glyph glyph-name="uni1EC6" unicode="&#x1ec6;" horiz-adv-x="1017" 
d="M49 0l152 1454h823l-25 -258h-544l-35 -338h454l-26 -254h-455l-37 -346h559l-24 -258h-842zM315 -369l23 234h229l-24 -234h-228zM324 1647l256 258h182l201 -258l-129 -117l-179 217l-209 -217z" />
    <glyph glyph-name="uni1EC7" unicode="&#x1ec7;" horiz-adv-x="1169" 
d="M561 -20q-103 0 -194.5 33t-162.5 95t-112 159.5t-41 217.5q0 167 79 305t214 216.5t295 78.5q85 0 163.5 -24t147.5 -74.5t112 -128.5t56.5 -185.5t-18.5 -246.5h-797q21 -108 103 -164.5t202 -56.5q158 0 283 96l108 -133q-80 -87 -192.5 -137.5t-245.5 -50.5zM315 627
h562q-4 111 -78 169t-181 58q-111 0 -190.5 -62t-112.5 -165zM338 1257l256 259h182l201 -259l-129 -116l-178 217l-209 -217zM371 -369l22 234h230l-25 -234h-227z" />
    <glyph glyph-name="uni1EC8" unicode="&#x1ec8;" horiz-adv-x="489" 
d="M49 0l154 1454h278l-151 -1454h-281zM178 1913q28 57 82.5 90t120.5 33q89 0 152 -59.5t63 -147.5q0 -100 -75.5 -170t-180.5 -70h-70l19 170h63q28 0 45 15.5t17 40.5q0 20 -12.5 32.5t-34.5 12.5q-20 0 -35 -12t-21 -33z" />
    <glyph glyph-name="uni1EC9" unicode="&#x1ec9;" horiz-adv-x="485" 
d="M49 0l113 1065h274l-112 -1065h-275zM133 1524q28 57 82.5 90t120.5 33q89 0 152 -59.5t63 -147.5q0 -100 -75.5 -170t-180.5 -70h-70l19 170h63q28 0 45 15t17 40q0 20 -12.5 32.5t-34.5 12.5q-20 0 -35 -12t-21 -33z" />
    <glyph glyph-name="uni1ECA" unicode="&#x1eca;" horiz-adv-x="489" 
d="M49 0l154 1454h278l-151 -1454h-281zM35 -369l22 234h230l-25 -234h-227z" />
    <glyph glyph-name="uni1ECB" unicode="&#x1ecb;" horiz-adv-x="481" 
d="M49 0l111 1065h274l-110 -1065h-275zM33 -369l22 234h230l-25 -234h-227zM174 1212l25 242h276l-24 -242h-277z" />
    <glyph glyph-name="uni1ECC" unicode="&#x1ecc;" horiz-adv-x="1671" 
d="M784 -20q-144 0 -269.5 47.5t-217 133t-144.5 212.5t-53 278q0 170 66.5 323.5t178.5 263t265 173.5t320 64q192 0 346.5 -81t246 -235.5t91.5 -355.5q0 -170 -67 -323.5t-179.5 -262.5t-265 -173t-318.5 -64zM387 678q0 -196 120 -314t304 -118q140 0 258 69.5
t187 191.5t69 269q0 196 -119.5 314t-304.5 118q-140 0 -258 -69.5t-187 -191.5t-69 -269zM629 -369l22 234h230l-25 -234h-227z" />
    <glyph glyph-name="uni1ECD" unicode="&#x1ecd;" horiz-adv-x="1220" 
d="M563 -20q-90 0 -178.5 32t-164 92t-122.5 159t-47 220q0 168 83 307t222 217t303 78q71 0 142.5 -19.5t138 -61t117.5 -99.5t81.5 -142.5t30.5 -182.5q0 -167 -83 -305.5t-221.5 -216.5t-301.5 -78zM319 492q0 -126 78.5 -197.5t180.5 -71.5q131 0 228 94.5t97 253.5
q0 66 -23 119t-61 85.5t-83.5 49.5t-92.5 17q-130 0 -227 -95t-97 -255zM455 -369l22 234h230l-25 -234h-227z" />
    <glyph glyph-name="uni1ECE" unicode="&#x1ece;" horiz-adv-x="1671" 
d="M784 -20q-144 0 -269.5 47.5t-217 133t-144.5 212.5t-53 278q0 170 66.5 323.5t178.5 263t265 173.5t320 64q192 0 346.5 -81t246 -235.5t91.5 -355.5q0 -170 -67 -323.5t-179.5 -262.5t-265 -173t-318.5 -64zM387 678q0 -196 120 -314t304 -118q140 0 258 69.5
t187 191.5t69 269q0 196 -119.5 314t-304.5 118q-140 0 -258 -69.5t-187 -191.5t-69 -269zM766 1913q28 57 82.5 90t120.5 33q89 0 152 -59.5t63 -147.5q0 -100 -75.5 -170t-180.5 -70h-70l19 170h63q28 0 44.5 15.5t16.5 40.5q0 20 -12.5 32.5t-34.5 12.5q-42 0 -55 -45z
" />
    <glyph glyph-name="uni1ECF" unicode="&#x1ecf;" horiz-adv-x="1220" 
d="M563 -20q-90 0 -178.5 32t-164 92t-122.5 159t-47 220q0 168 83 307t222 217t303 78q71 0 142.5 -19.5t138 -61t117.5 -99.5t81.5 -142.5t30.5 -182.5q0 -167 -83 -305.5t-221.5 -216.5t-301.5 -78zM319 492q0 -126 78.5 -197.5t180.5 -71.5q131 0 228 94.5t97 253.5
q0 66 -23 119t-61 85.5t-83.5 49.5t-92.5 17q-130 0 -227 -95t-97 -255zM502 1524q28 57 82.5 90t120.5 33q89 0 152 -59.5t63 -147.5q0 -100 -75.5 -170t-180.5 -70h-70l18 170h64q28 0 44.5 15t16.5 40q0 20 -12.5 32.5t-34.5 12.5q-42 0 -55 -45z" />
    <glyph glyph-name="uni1ED0" unicode="&#x1ed0;" horiz-adv-x="1671" 
d="M784 -20q-144 0 -269.5 47.5t-217 133t-144.5 212.5t-53 278q0 170 66.5 323.5t178.5 263t265 173.5t320 64q192 0 346.5 -81t246 -235.5t91.5 -355.5q0 -170 -67 -323.5t-179.5 -262.5t-265 -173t-318.5 -64zM387 678q0 -196 120 -314t304 -118q140 0 258 69.5
t187 191.5t69 269q0 196 -119.5 314t-304.5 118q-140 0 -258 -69.5t-187 -191.5t-69 -269zM635 1647l256 258h182l201 -258l-129 -117l-178 217l-209 -217zM1174 1843l217 330h198l-223 -330h-192z" />
    <glyph glyph-name="uni1ED1" unicode="&#x1ed1;" horiz-adv-x="1220" 
d="M563 -20q-90 0 -178.5 32t-164 92t-122.5 159t-47 220q0 168 83 307t222 217t303 78q71 0 142.5 -19.5t138 -61t117.5 -99.5t81.5 -142.5t30.5 -182.5q0 -167 -83 -305.5t-221.5 -216.5t-301.5 -78zM319 492q0 -126 78.5 -197.5t180.5 -71.5q131 0 228 94.5t97 253.5
q0 66 -23 119t-61 85.5t-83.5 49.5t-92.5 17q-130 0 -227 -95t-97 -255zM371 1257l256 259h182l201 -259l-129 -116l-179 217l-208 -217zM909 1454l217 330h199l-223 -330h-193z" />
    <glyph glyph-name="uni1ED2" unicode="&#x1ed2;" horiz-adv-x="1671" 
d="M784 -20q-144 0 -269.5 47.5t-217 133t-144.5 212.5t-53 278q0 170 66.5 323.5t178.5 263t265 173.5t320 64q192 0 346.5 -81t246 -235.5t91.5 -355.5q0 -170 -67 -323.5t-179.5 -262.5t-265 -173t-318.5 -64zM387 678q0 -196 120 -314t304 -118q140 0 258 69.5
t187 191.5t69 269q0 196 -119.5 314t-304.5 118q-140 0 -258 -69.5t-187 -191.5t-69 -269zM635 1647l256 258h182l201 -258l-129 -117l-178 217l-209 -217zM979 2173h203l233 -330h-192z" />
    <glyph glyph-name="uni1ED3" unicode="&#x1ed3;" horiz-adv-x="1220" 
d="M563 -20q-90 0 -178.5 32t-164 92t-122.5 159t-47 220q0 168 83 307t222 217t303 78q71 0 142.5 -19.5t138 -61t117.5 -99.5t81.5 -142.5t30.5 -182.5q0 -167 -83 -305.5t-221.5 -216.5t-301.5 -78zM319 492q0 -126 78.5 -197.5t180.5 -71.5q131 0 228 94.5t97 253.5
q0 66 -23 119t-61 85.5t-83.5 49.5t-92.5 17q-130 0 -227 -95t-97 -255zM371 1257l256 259h182l201 -259l-129 -116l-179 217l-208 -217zM715 1784h203l233 -330h-193z" />
    <glyph glyph-name="uni1ED4" unicode="&#x1ed4;" horiz-adv-x="1671" 
d="M784 -20q-144 0 -269.5 47.5t-217 133t-144.5 212.5t-53 278q0 170 66.5 323.5t178.5 263t265 173.5t320 64q192 0 346.5 -81t246 -235.5t91.5 -355.5q0 -170 -67 -323.5t-179.5 -262.5t-265 -173t-318.5 -64zM387 678q0 -196 120 -314t304 -118q140 0 258 69.5
t187 191.5t69 269q0 196 -119.5 314t-304.5 118q-140 0 -258 -69.5t-187 -191.5t-69 -269zM635 1647l256 258h182l201 -258l-129 -117l-178 217l-209 -217zM1053 2181q28 57 82 90t120 33q89 0 152 -59.5t63 -147.5q0 -100 -75.5 -169.5t-180.5 -69.5h-69l18 170h64
q28 0 44.5 15t16.5 40q0 20 -12.5 32.5t-34.5 12.5q-42 0 -55 -45z" />
    <glyph glyph-name="uni1ED5" unicode="&#x1ed5;" horiz-adv-x="1220" 
d="M563 -20q-90 0 -178.5 32t-164 92t-122.5 159t-47 220q0 168 83 307t222 217t303 78q71 0 142.5 -19.5t138 -61t117.5 -99.5t81.5 -142.5t30.5 -182.5q0 -167 -83 -305.5t-221.5 -216.5t-301.5 -78zM319 492q0 -126 78.5 -197.5t180.5 -71.5q131 0 228 94.5t97 253.5
q0 66 -23 119t-61 85.5t-83.5 49.5t-92.5 17q-130 0 -227 -95t-97 -255zM371 1257l256 259h182l201 -259l-129 -116l-179 217l-208 -217zM788 1792q28 57 82.5 90t120.5 33q89 0 152 -59.5t63 -147.5q0 -100 -75.5 -170t-180.5 -70h-69l18 170h64q28 0 44.5 15.5t16.5 40.5
q0 20 -12.5 32.5t-34.5 12.5q-42 0 -55 -45z" />
    <glyph glyph-name="uni1ED6" unicode="&#x1ed6;" horiz-adv-x="1671" 
d="M784 -20q-144 0 -269.5 47.5t-217 133t-144.5 212.5t-53 278q0 170 66.5 323.5t178.5 263t265 173.5t320 64q192 0 346.5 -81t246 -235.5t91.5 -355.5q0 -170 -67 -323.5t-179.5 -262.5t-265 -173t-318.5 -64zM387 678q0 -196 120 -314t304 -118q140 0 258 69.5
t187 191.5t69 269q0 196 -119.5 314t-304.5 118q-140 0 -258 -69.5t-187 -191.5t-69 -269zM635 1647l256 258h182l201 -258l-129 -117l-178 217l-209 -217zM645 1993q10 117 71.5 181t147.5 64q41 0 79 -16.5t61.5 -36.5t51 -36.5t50.5 -16.5q28 0 48.5 18t23.5 50h186
q-9 -118 -71 -183t-148 -65q-41 0 -78.5 17t-60 37t-50.5 37t-51 17q-27 0 -49 -18t-25 -49h-186z" />
    <glyph glyph-name="uni1ED7" unicode="&#x1ed7;" horiz-adv-x="1220" 
d="M563 -20q-90 0 -178.5 32t-164 92t-122.5 159t-47 220q0 168 83 307t222 217t303 78q71 0 142.5 -19.5t138 -61t117.5 -99.5t81.5 -142.5t30.5 -182.5q0 -167 -83 -305.5t-221.5 -216.5t-301.5 -78zM319 492q0 -126 78.5 -197.5t180.5 -71.5q131 0 228 94.5t97 253.5
q0 66 -23 119t-61 85.5t-83.5 49.5t-92.5 17q-130 0 -227 -95t-97 -255zM371 1257l256 259h182l201 -259l-129 -116l-179 217l-208 -217zM381 1604q10 117 71.5 181t147.5 64q41 0 79 -16.5t61.5 -36.5t51 -36.5t50.5 -16.5q28 0 48 17.5t23 49.5h187q-9 -118 -71 -182.5
t-148 -64.5q-41 0 -78.5 17t-60 37t-50.5 37t-51 17q-27 0 -49 -18t-25 -49h-186z" />
    <glyph glyph-name="uni1ED8" unicode="&#x1ed8;" horiz-adv-x="1671" 
d="M784 -20q-144 0 -269.5 47.5t-217 133t-144.5 212.5t-53 278q0 170 66.5 323.5t178.5 263t265 173.5t320 64q192 0 346.5 -81t246 -235.5t91.5 -355.5q0 -170 -67 -323.5t-179.5 -262.5t-265 -173t-318.5 -64zM387 678q0 -196 120 -314t304 -118q140 0 258 69.5
t187 191.5t69 269q0 196 -119.5 314t-304.5 118q-140 0 -258 -69.5t-187 -191.5t-69 -269zM629 -369l22 234h230l-25 -234h-227zM635 1647l256 258h182l201 -258l-129 -117l-178 217l-209 -217z" />
    <glyph glyph-name="uni1ED9" unicode="&#x1ed9;" horiz-adv-x="1220" 
d="M563 -20q-90 0 -178.5 32t-164 92t-122.5 159t-47 220q0 168 83 307t222 217t303 78q71 0 142.5 -19.5t138 -61t117.5 -99.5t81.5 -142.5t30.5 -182.5q0 -167 -83 -305.5t-221.5 -216.5t-301.5 -78zM319 492q0 -126 78.5 -197.5t180.5 -71.5q131 0 228 94.5t97 253.5
q0 66 -23 119t-61 85.5t-83.5 49.5t-92.5 17q-130 0 -227 -95t-97 -255zM371 1257l256 259h182l201 -259l-129 -116l-179 217l-208 -217zM455 -369l22 234h230l-25 -234h-227z" />
    <glyph glyph-name="uni1EDA" unicode="&#x1eda;" horiz-adv-x="1671" 
d="M784 -20q-144 0 -269.5 47.5t-217 133t-144.5 212.5t-53 278q0 170 66.5 323.5t178.5 263t265 173.5t320 64h422q70 0 110.5 37t48.5 108l5 49h213l-11 -123q-12 -108 -89.5 -180.5t-198.5 -85.5q184 -187 184 -477q0 -170 -67 -323.5t-179.5 -262.5t-265 -173
t-318.5 -64zM387 678q0 -196 120 -314t304 -118q140 0 258 69.5t187 191.5t69 269q0 196 -119.5 314t-304.5 118q-140 0 -258 -69.5t-187 -191.5t-69 -269zM825 1583l179 322h229l-184 -322h-224z" />
    <glyph glyph-name="uni1EDB" unicode="&#x1edb;" horiz-adv-x="1220" 
d="M563 -20q-90 0 -178.5 32t-164 92t-122.5 159t-47 220q0 168 83 307t222 217t303 78h209q70 0 113 38t47 108l4 49h213l-12 -123q-7 -83 -56.5 -146t-129.5 -96q122 -135 122 -335q0 -167 -83 -305.5t-221.5 -216.5t-301.5 -78zM319 492q0 -126 78.5 -197.5t180.5 -71.5
q131 0 228 94.5t97 253.5q0 66 -23 119t-61 85.5t-83.5 49.5t-92.5 17q-130 0 -227 -95t-97 -255zM559 1194l178 322h230l-185 -322h-223z" />
    <glyph glyph-name="uni1EDC" unicode="&#x1edc;" horiz-adv-x="1671" 
d="M784 -20q-144 0 -269.5 47.5t-217 133t-144.5 212.5t-53 278q0 170 66.5 323.5t178.5 263t265 173.5t320 64h422q70 0 110.5 37t48.5 108l5 49h213l-11 -123q-12 -108 -89.5 -180.5t-198.5 -85.5q184 -187 184 -477q0 -170 -67 -323.5t-179.5 -262.5t-265 -173
t-318.5 -64zM387 678q0 -196 120 -314t304 -118q140 0 258 69.5t187 191.5t69 269q0 196 -119.5 314t-304.5 118q-140 0 -258 -69.5t-187 -191.5t-69 -269zM635 1905h227l180 -322h-223z" />
    <glyph glyph-name="uni1EDD" unicode="&#x1edd;" horiz-adv-x="1220" 
d="M563 -20q-90 0 -178.5 32t-164 92t-122.5 159t-47 220q0 168 83 307t222 217t303 78h209q70 0 113 38t47 108l4 49h213l-12 -123q-7 -83 -56.5 -146t-129.5 -96q122 -135 122 -335q0 -167 -83 -305.5t-221.5 -216.5t-301.5 -78zM319 492q0 -126 78.5 -197.5t180.5 -71.5
q131 0 228 94.5t97 253.5q0 66 -23 119t-61 85.5t-83.5 49.5t-92.5 17q-130 0 -227 -95t-97 -255zM369 1516h227l180 -322h-223z" />
    <glyph glyph-name="uni1EDE" unicode="&#x1ede;" horiz-adv-x="1671" 
d="M784 -20q-144 0 -269.5 47.5t-217 133t-144.5 212.5t-53 278q0 170 66.5 323.5t178.5 263t265 173.5t320 64h422q70 0 110.5 37t48.5 108l5 49h213l-11 -123q-12 -108 -89.5 -180.5t-198.5 -85.5q184 -187 184 -477q0 -170 -67 -323.5t-179.5 -262.5t-265 -173
t-318.5 -64zM387 678q0 -196 120 -314t304 -118q140 0 258 69.5t187 191.5t69 269q0 196 -119.5 314t-304.5 118q-140 0 -258 -69.5t-187 -191.5t-69 -269zM768 1913q28 57 82.5 90t120.5 33q89 0 152 -59.5t63 -147.5q0 -100 -75.5 -170t-180.5 -70h-70l19 170h63
q28 0 45 15.5t17 40.5q0 20 -13 32.5t-35 12.5q-42 0 -55 -45z" />
    <glyph glyph-name="uni1EDF" unicode="&#x1edf;" horiz-adv-x="1220" 
d="M563 -20q-90 0 -178.5 32t-164 92t-122.5 159t-47 220q0 168 83 307t222 217t303 78h209q70 0 113 38t47 108l4 49h213l-12 -123q-7 -83 -56.5 -146t-129.5 -96q122 -135 122 -335q0 -167 -83 -305.5t-221.5 -216.5t-301.5 -78zM319 492q0 -126 78.5 -197.5t180.5 -71.5
q131 0 228 94.5t97 253.5q0 66 -23 119t-61 85.5t-83.5 49.5t-92.5 17q-130 0 -227 -95t-97 -255zM502 1524q28 57 82.5 90t120.5 33q89 0 152 -59.5t63 -147.5q0 -100 -75.5 -170t-180.5 -70h-70l18 170h64q28 0 44.5 15t16.5 40q0 20 -12.5 32.5t-34.5 12.5q-42 0 -55 -45
z" />
    <glyph glyph-name="uni1EE0" unicode="&#x1ee0;" horiz-adv-x="1671" 
d="M784 -20q-144 0 -269.5 47.5t-217 133t-144.5 212.5t-53 278q0 170 66.5 323.5t178.5 263t265 173.5t320 64h422q70 0 110.5 37t48.5 108l5 49h213l-11 -123q-12 -108 -89.5 -180.5t-198.5 -85.5q184 -187 184 -477q0 -170 -67 -323.5t-179.5 -262.5t-265 -173
t-318.5 -64zM387 678q0 -196 120 -314t304 -118q140 0 258 69.5t187 191.5t69 269q0 196 -119.5 314t-304.5 118q-140 0 -258 -69.5t-187 -191.5t-69 -269zM602 1626q10 117 71.5 181.5t147.5 64.5q52 0 97.5 -27t81 -53.5t63.5 -26.5t48.5 18t23.5 50h186q-9 -118 -71 -183
t-148 -65q-41 0 -78.5 17t-60 37.5t-50.5 37.5t-51 17q-27 0 -49 -18.5t-25 -49.5h-186z" />
    <glyph glyph-name="uni1EE1" unicode="&#x1ee1;" horiz-adv-x="1220" 
d="M563 -20q-90 0 -178.5 32t-164 92t-122.5 159t-47 220q0 168 83 307t222 217t303 78h209q70 0 113 38t47 108l4 49h213l-12 -123q-7 -83 -56.5 -146t-129.5 -96q122 -135 122 -335q0 -167 -83 -305.5t-221.5 -216.5t-301.5 -78zM319 492q0 -126 78.5 -197.5t180.5 -71.5
q131 0 228 94.5t97 253.5q0 66 -23 119t-61 85.5t-83.5 49.5t-92.5 17q-130 0 -227 -95t-97 -255zM336 1237q10 117 71.5 181.5t147.5 64.5q41 0 79 -16.5t61.5 -37t51 -37t50.5 -16.5q28 0 48 18t23 50h187q-9 -118 -71 -183t-148 -65q-41 0 -78.5 17t-60 37.5t-50.5 37.5
t-51 17q-27 0 -49 -18.5t-25 -49.5h-186z" />
    <glyph glyph-name="uni1EE2" unicode="&#x1ee2;" horiz-adv-x="1671" 
d="M784 -20q-144 0 -269.5 47.5t-217 133t-144.5 212.5t-53 278q0 170 66.5 323.5t178.5 263t265 173.5t320 64h422q70 0 110.5 37t48.5 108l5 49h213l-11 -123q-12 -108 -89.5 -180.5t-198.5 -85.5q184 -187 184 -477q0 -170 -67 -323.5t-179.5 -262.5t-265 -173
t-318.5 -64zM387 678q0 -196 120 -314t304 -118q140 0 258 69.5t187 191.5t69 269q0 196 -119.5 314t-304.5 118q-140 0 -258 -69.5t-187 -191.5t-69 -269zM629 -369l22 234h230l-25 -234h-227z" />
    <glyph glyph-name="uni1EE3" unicode="&#x1ee3;" horiz-adv-x="1220" 
d="M563 -20q-90 0 -178.5 32t-164 92t-122.5 159t-47 220q0 168 83 307t222 217t303 78h209q70 0 113 38t47 108l4 49h213l-12 -123q-7 -83 -56.5 -146t-129.5 -96q122 -135 122 -335q0 -167 -83 -305.5t-221.5 -216.5t-301.5 -78zM319 492q0 -126 78.5 -197.5t180.5 -71.5
q131 0 228 94.5t97 253.5q0 66 -23 119t-61 85.5t-83.5 49.5t-92.5 17q-130 0 -227 -95t-97 -255zM403 -369l23 234h229l-24 -234h-228z" />
    <glyph glyph-name="uni1EE4" unicode="&#x1ee4;" horiz-adv-x="1308" 
d="M606 -31q-115 0 -213 38.5t-167 108t-102.5 175.5t-19.5 233l99 930h280l-98 -940q-8 -75 10.5 -131.5t56 -88t83 -46.5t96.5 -15t97 15t87.5 47.5t70 91t36.5 137.5l98 930h280l-98 -938q-18 -170 -104.5 -296t-214 -188.5t-277.5 -62.5zM446 -369l23 234h229l-24 -234
h-228z" />
    <glyph glyph-name="uni1EE5" unicode="&#x1ee5;" horiz-adv-x="1212" 
d="M1163 1065l-110 -1065h-275l15 141q-119 -161 -338 -161q-84 0 -153 26.5t-121 80t-75.5 143.5t-11.5 208l66 627h274l-59 -582q-12 -118 42.5 -188t162.5 -70t171.5 69t75.5 189l62 582h274zM399 -369l23 234h229l-24 -234h-228z" />
    <glyph glyph-name="uni1EE6" unicode="&#x1ee6;" horiz-adv-x="1308" 
d="M606 -31q-115 0 -213 38.5t-167 108t-102.5 175.5t-19.5 233l99 930h280l-98 -940q-8 -75 10.5 -131.5t56 -88t83 -46.5t96.5 -15t97 15t87.5 47.5t70 91t36.5 137.5l98 930h280l-98 -938q-18 -170 -104.5 -296t-214 -188.5t-277.5 -62.5zM586 1913q28 57 82 90t120 33
q89 0 152.5 -59.5t63.5 -147.5q0 -100 -75.5 -170t-180.5 -70h-70l18 170h64q28 0 44.5 15.5t16.5 40.5q0 20 -12.5 32.5t-34.5 12.5q-42 0 -55 -45z" />
    <glyph glyph-name="uni1EE7" unicode="&#x1ee7;" horiz-adv-x="1212" 
d="M1163 1065l-110 -1065h-275l15 141q-119 -161 -338 -161q-84 0 -153 26.5t-121 80t-75.5 143.5t-11.5 208l66 627h274l-59 -582q-12 -118 42.5 -188t162.5 -70t171.5 69t75.5 189l62 582h274zM498 1524q28 57 82 90t120 33q89 0 152 -59.5t63 -147.5q0 -100 -75.5 -170
t-180.5 -70h-69l18 170h64q28 0 44.5 15t16.5 40q0 20 -12.5 32.5t-34.5 12.5q-42 0 -55 -45z" />
    <glyph glyph-name="uni1EE8" unicode="&#x1ee8;" horiz-adv-x="1308" 
d="M606 -31q-115 0 -213 38.5t-167 108t-102.5 175.5t-19.5 233l99 930h280l-98 -940q-8 -75 10.5 -131.5t56 -88t83 -46.5t96.5 -15t97 15t87.5 47.5t70 91t36.5 137.5l98 930h190q144 0 158 131l8 84h213l-16 -156q-10 -110 -90 -183t-205 -87l-76 -727
q-18 -170 -104.5 -296t-214 -188.5t-277.5 -62.5zM643 1583l178 322h230l-185 -322h-223z" />
    <glyph glyph-name="uni1EE9" unicode="&#x1ee9;" horiz-adv-x="1212" 
d="M555 1194l178 322h230l-185 -322h-223zM94 438l66 627h274l-59 -582q-12 -118 42.5 -188t162.5 -70t171.5 69t75.5 189l62 582h145q144 0 158 131l8 84h213l-16 -156q-10 -101 -78.5 -171.5t-175.5 -92.5l-90 -860h-275l15 141q-119 -161 -338 -161q-84 0 -153 26.5
t-121 80t-75.5 143.5t-11.5 208z" />
    <glyph glyph-name="uni1EEA" unicode="&#x1eea;" horiz-adv-x="1308" 
d="M606 -31q-115 0 -213 38.5t-167 108t-102.5 175.5t-19.5 233l99 930h280l-98 -940q-8 -75 10.5 -131.5t56 -88t83 -46.5t96.5 -15t97 15t87.5 47.5t70 91t36.5 137.5l98 930h190q144 0 158 131l8 84h213l-16 -156q-10 -110 -90 -183t-205 -87l-76 -727
q-18 -170 -104.5 -296t-214 -188.5t-277.5 -62.5zM453 1905h227l180 -322h-223z" />
    <glyph glyph-name="uni1EEB" unicode="&#x1eeb;" horiz-adv-x="1212" 
d="M549 1194l-184 322h227l180 -322h-223zM94 438l66 627h274l-59 -582q-12 -118 42.5 -188t162.5 -70t171.5 69t75.5 189l62 582h145q144 0 158 131l8 84h213l-16 -156q-10 -101 -78.5 -171.5t-175.5 -92.5l-90 -860h-275l15 141q-119 -161 -338 -161q-84 0 -153 26.5
t-121 80t-75.5 143.5t-11.5 208z" />
    <glyph glyph-name="uni1EEC" unicode="&#x1eec;" horiz-adv-x="1308" 
d="M606 -31q-115 0 -213 38.5t-167 108t-102.5 175.5t-19.5 233l99 930h280l-98 -940q-8 -75 10.5 -131.5t56 -88t83 -46.5t96.5 -15t97 15t87.5 47.5t70 91t36.5 137.5l98 930h190q144 0 158 131l8 84h213l-16 -156q-10 -110 -90 -183t-205 -87l-76 -727
q-18 -170 -104.5 -296t-214 -188.5t-277.5 -62.5zM586 1913q28 57 82 90t120 33q89 0 152.5 -59.5t63.5 -147.5q0 -100 -75.5 -170t-180.5 -70h-70l18 170h64q28 0 44.5 15.5t16.5 40.5q0 20 -12.5 32.5t-34.5 12.5q-42 0 -55 -45z" />
    <glyph glyph-name="uni1EED" unicode="&#x1eed;" horiz-adv-x="1212" 
d="M590 1200l18 170h64q28 0 44.5 15t16.5 40q0 20 -12.5 32.5t-34.5 12.5q-42 0 -55 -45l-133 99q28 57 82 90t120 33q89 0 152 -59.5t63 -147.5q0 -100 -75.5 -170t-180.5 -70h-69zM94 438l66 627h274l-59 -582q-12 -118 42.5 -188t162.5 -70t171.5 69t75.5 189l62 582
h145q144 0 158 131l8 84h213l-16 -156q-10 -101 -78.5 -171.5t-175.5 -92.5l-90 -860h-275l15 141q-119 -161 -338 -161q-84 0 -153 26.5t-121 80t-75.5 143.5t-11.5 208z" />
    <glyph glyph-name="uni1EEE" unicode="&#x1eee;" horiz-adv-x="1308" 
d="M606 -31q-115 0 -213 38.5t-167 108t-102.5 175.5t-19.5 233l99 930h280l-98 -940q-8 -75 10.5 -131.5t56 -88t83 -46.5t96.5 -15t97 15t87.5 47.5t70 91t36.5 137.5l98 930h190q144 0 158 131l8 84h213l-16 -156q-10 -110 -90 -183t-205 -87l-76 -727
q-18 -170 -104.5 -296t-214 -188.5t-277.5 -62.5zM420 1626q10 117 71.5 181.5t147.5 64.5q52 0 97.5 -27t81 -53.5t63.5 -26.5t48 18t23 50h187q-9 -118 -71 -183t-148 -65q-41 0 -78.5 17t-60 37.5t-50.5 37.5t-51 17q-27 0 -49 -18.5t-25 -49.5h-186z" />
    <glyph glyph-name="uni1EEF" unicode="&#x1eef;" horiz-adv-x="1212" 
d="M831 1196q-41 0 -78 17t-60 37.5t-50.5 37.5t-50.5 17q-27 0 -49 -18.5t-25 -49.5h-186q10 117 71.5 181.5t147.5 64.5q41 0 79 -16.5t61.5 -37t51 -37t50.5 -16.5q28 0 48 18t23 50h187q-9 -118 -71.5 -183t-148.5 -65zM94 438l66 627h274l-59 -582q-12 -118 42.5 -188
t162.5 -70t171.5 69t75.5 189l62 582h145q144 0 158 131l8 84h213l-16 -156q-10 -101 -78.5 -171.5t-175.5 -92.5l-90 -860h-275l15 141q-119 -161 -338 -161q-84 0 -153 26.5t-121 80t-75.5 143.5t-11.5 208z" />
    <glyph glyph-name="uni1EF0" unicode="&#x1ef0;" horiz-adv-x="1308" 
d="M606 -31q-115 0 -213 38.5t-167 108t-102.5 175.5t-19.5 233l99 930h280l-98 -940q-8 -75 10.5 -131.5t56 -88t83 -46.5t96.5 -15t97 15t87.5 47.5t70 91t36.5 137.5l98 930h190q144 0 158 131l8 84h213l-16 -156q-10 -110 -90 -183t-205 -87l-76 -727
q-18 -170 -104.5 -296t-214 -188.5t-277.5 -62.5zM446 -369l23 234h229l-24 -234h-228z" />
    <glyph glyph-name="uni1EF1" unicode="&#x1ef1;" horiz-adv-x="1212" 
d="M399 -369l23 234h229l-24 -234h-228zM94 438l66 627h274l-59 -582q-12 -118 42.5 -188t162.5 -70t171.5 69t75.5 189l62 582h145q144 0 158 131l8 84h213l-16 -156q-10 -101 -78.5 -171.5t-175.5 -92.5l-90 -860h-275l15 141q-119 -161 -338 -161q-84 0 -153 26.5
t-121 80t-75.5 143.5t-11.5 208z" />
    <glyph glyph-name="Ygrave" unicode="&#x1ef2;" horiz-adv-x="1419" 
d="M508 0l65 580l-434 874h307l289 -620l412 620h326l-619 -874l-66 -580h-280zM502 1905h227l180 -322h-223z" />
    <glyph glyph-name="ygrave" unicode="&#x1ef3;" horiz-adv-x="1216" 
d="M201 -389l217 409l-332 1045h283l215 -737l368 737h287l-762 -1454h-276zM348 1516h227l181 -322h-224z" />
    <glyph glyph-name="uni1EF4" unicode="&#x1ef4;" horiz-adv-x="1419" 
d="M508 0l65 580l-434 874h307l289 -620l412 620h326l-619 -874l-66 -580h-280zM492 -369l22 234h229l-24 -234h-227z" />
    <glyph glyph-name="uni1EF5" unicode="&#x1ef5;" horiz-adv-x="1216" 
d="M201 -389l217 409l-332 1045h283l215 -737l368 737h287l-762 -1454h-276zM700 -369l23 234h229l-24 -234h-228z" />
    <glyph glyph-name="uni1EF6" unicode="&#x1ef6;" horiz-adv-x="1419" 
d="M508 0l65 580l-434 874h307l289 -620l412 620h326l-619 -874l-66 -580h-280zM635 1913q28 57 82.5 90t120.5 33q89 0 152 -59.5t63 -147.5q0 -100 -75.5 -170t-180.5 -70h-70l18 170h64q28 0 44.5 15.5t16.5 40.5q0 20 -12.5 32.5t-34.5 12.5q-42 0 -55 -45z" />
    <glyph glyph-name="uni1EF7" unicode="&#x1ef7;" horiz-adv-x="1216" 
d="M201 -389l217 409l-332 1045h283l215 -737l368 737h287l-762 -1454h-276zM481 1524q28 57 82.5 90t120.5 33q89 0 152 -59.5t63 -147.5q0 -100 -75.5 -170t-180.5 -70h-70l19 170h63q28 0 45 15t17 40q0 20 -12.5 32.5t-34.5 12.5q-20 0 -35 -12t-21 -33z" />
    <glyph glyph-name="uni1EF8" unicode="&#x1ef8;" horiz-adv-x="1419" 
d="M508 0l65 580l-434 874h307l289 -620l412 620h326l-619 -874l-66 -580h-280zM469 1626q10 117 71.5 181.5t147.5 64.5q52 0 97.5 -27t81 -53.5t63.5 -26.5t48 18t23 50h187q-9 -118 -71 -183t-148 -65q-41 0 -78.5 17t-60 37.5t-50.5 37.5t-51 17q-27 0 -49 -18.5
t-25 -49.5h-186z" />
    <glyph glyph-name="uni1EF9" unicode="&#x1ef9;" horiz-adv-x="1216" 
d="M201 -389l217 409l-332 1045h283l215 -737l368 737h287l-762 -1454h-276zM315 1237q10 117 72 181.5t148 64.5q41 0 79 -16.5t61 -37t50.5 -37t50.5 -16.5q28 0 48.5 18t23.5 50h186q-9 -118 -71 -183t-148 -65q-41 0 -78.5 17t-60 37.5t-50.5 37.5t-51 17
q-26 0 -48 -18.5t-25 -49.5h-187z" />
    <glyph glyph-name="endash" unicode="&#x2013;" horiz-adv-x="1230" 
d="M35 449l22 229h1045l-23 -229h-1044z" />
    <glyph glyph-name="emdash" unicode="&#x2014;" horiz-adv-x="1353" 
d="M35 449l22 229h1168l-23 -229h-1167z" />
    <glyph glyph-name="quoteleft" unicode="&#x2018;" horiz-adv-x="524" 
d="M573 1454l-245 -534h-240l248 534h237z" />
    <glyph glyph-name="quoteright" unicode="&#x2019;" horiz-adv-x="524" 
d="M88 920l246 534h239l-247 -534h-238z" />
    <glyph glyph-name="quotesinglbase" unicode="&#x201a;" horiz-adv-x="530" 
d="M-39 -272l246 534h239l-247 -534h-238z" />
    <glyph glyph-name="quotedblleft" unicode="&#x201c;" horiz-adv-x="870" 
d="M573 1454l-245 -534h-240l248 534h237zM436 920l248 534h238l-246 -534h-240z" />
    <glyph glyph-name="quotedblright" unicode="&#x201d;" horiz-adv-x="870" 
d="M436 920l246 534h240l-248 -534h-238zM88 920l246 534h239l-247 -534h-238z" />
    <glyph glyph-name="quotedblbase" unicode="&#x201e;" horiz-adv-x="878" 
d="M309 -272l246 534h240l-248 -534h-238zM-39 -272l246 534h239l-247 -534h-238z" />
    <glyph glyph-name="dagger" unicode="&#x2020;" horiz-adv-x="733" 
d="M328 659l4 347h-207l18 180h195l6 268h244l-51 -268h192l-18 -180h-207l-68 -347h-108z" />
    <glyph glyph-name="daggerdbl" unicode="&#x2021;" horiz-adv-x="733" 
d="M342 786l-4 220h-215l20 180h199l2 268h242l-54 -268h197l-20 -180h-213l-45 -220h-109zM45 268l16 181h218l47 219h108v-219h213l-16 -181h-197l-4 -268h-244l58 268h-199z" />
    <glyph glyph-name="bullet" unicode="&#x2022;" horiz-adv-x="440" 
d="M207 465q-66 0 -112 45.5t-46 112.5q0 66 46 111.5t112 45.5q67 0 112.5 -45.5t45.5 -111.5q0 -67 -45.5 -112.5t-112.5 -45.5z" />
    <glyph glyph-name="ellipsis" unicode="&#x2026;" horiz-adv-x="1460" 
d="M1188 -10q-71 0 -114 49t-36 121q8 62 53.5 103.5t108.5 41.5q70 0 114 -49t38 -121q-8 -62 -54.5 -103.5t-109.5 -41.5zM27 160q8 62 53.5 103.5t107.5 41.5q70 0 114 -49t38 -121q-8 -62 -54.5 -103.5t-109.5 -41.5q-71 0 -113.5 49t-35.5 121zM532 160
q8 62 53.5 103.5t108.5 41.5q70 0 114 -49t38 -121q-8 -62 -54.5 -103.5t-109.5 -41.5q-71 0 -114 49t-36 121z" />
    <glyph glyph-name="perthousand" unicode="&#x2030;" horiz-adv-x="2048" 
d="M1675 -10q-103 0 -171 66.5t-68 166.5q0 110 80 190.5t190 80.5q103 0 171.5 -67t68.5 -167q0 -110 -80.5 -190t-190.5 -80zM113 139l1024 1319l209 -139l-1022 -1319zM143 1194q0 110 80.5 190t190.5 80q103 0 171 -66.5t68 -166.5q0 -110 -80 -190t-190 -80
q-103 0 -171.5 66.5t-68.5 166.5zM324 1204q0 -29 19 -47t48 -18q35 0 58.5 24.5t23.5 57.5q0 29 -19 47t-48 18q-35 0 -58.5 -24.5t-23.5 -57.5zM819 223q0 110 81.5 190.5t191.5 80.5q101 0 169 -67t68 -167q0 -110 -80 -190t-190 -80q-103 0 -171.5 66.5t-68.5 166.5z
M1001 233q0 -29 19 -47t47 -18q35 0 58.5 24.5t23.5 57.5q0 29 -19 47t-47 18q-35 0 -58.5 -24.5t-23.5 -57.5zM1616 233q0 -29 19 -47t48 -18q35 0 58.5 24.5t23.5 57.5q0 29 -19 47t-48 18q-35 0 -58.5 -24.5t-23.5 -57.5z" />
    <glyph glyph-name="guilsinglleft" unicode="&#x2039;" horiz-adv-x="524" 
d="M430 946l76 -92l-234 -268l179 -271l-97 -90l-272 307l8 107z" />
    <glyph glyph-name="guilsinglright" unicode="&#x203a;" horiz-adv-x="524" 
d="M104 223l-75 92l233 269l-178 270l96 90l273 -307l-9 -107z" />
    <glyph glyph-name="fraction" unicode="&#x2044;" horiz-adv-x="221" 
d="M-504 0l1045 1434h90l-1032 -1434h-103z" />
    <glyph glyph-name="dong" unicode="&#x20ab;" horiz-adv-x="1245" 
d="M479 111q-86 0 -161.5 28t-134 81t-92.5 137t-34 188q0 146 62.5 270t181 200.5t268.5 76.5q125 0 206.5 -50.5t92.5 -101.5h6l25 227h-313l18 191h316l10 96h274l-10 -96h76l-21 -191h-75l-111 -1050h-277l15 145h-6q-22 -52 -107.5 -101.5t-208.5 -49.5zM51 -160
l19 187h952l-18 -187h-953zM332 582q0 -109 65.5 -171.5t171.5 -62.5q118 0 197.5 77t79.5 193q0 110 -66.5 173t-171.5 63q-114 0 -195 -74.5t-81 -197.5z" />
    <glyph glyph-name="Euro" unicode="&#x20ac;" horiz-adv-x="1538" 
d="M53 739l15 142h122q75 262 295.5 428t497.5 166q79 0 153.5 -15.5t150.5 -49.5t142.5 -98.5t112.5 -152.5l-215 -143q-125 192 -360 192q-165 0 -297 -89.5t-189 -237.5h434l-14 -142h-452q-3 -24 -3 -51v-20h447l-14 -142h-408q44 -132 153.5 -206t252.5 -74
q225 0 389 192l184 -143q-230 -315 -608 -315q-259 0 -445 147.5t-227 398.5h-139l14 142h115q0 21 4 71h-111z" />
    <glyph glyph-name="uni20BD" unicode="&#x20bd;" horiz-adv-x="1216" 
d="M-25 150l27 249h102l9 76h-105l27 250h102l78 729h514q219 0 345 -120.5t124 -327.5q0 -236 -160.5 -387.5t-410.5 -151.5h-236l-6 -68h457l-27 -249h-457l-16 -150h-281l17 150h-103zM420 725h207q130 0 208 61.5t78 190.5q1 114 -60.5 166.5t-174.5 52.5h-209z" />
    <glyph glyph-name="trademark" unicode="&#x2122;" horiz-adv-x="1173" 
d="M612 1085l39 369h101l108 -258l170 258h107l-39 -369h-103l23 197l-121 -197h-78l-80 197l-24 -197h-103zM221 1364l8 90h351l-9 -90h-125l-28 -279h-105l31 279h-123z" />
    <glyph glyph-name="oneeighth" unicode="&#x215b;" horiz-adv-x="1138" 
d="M-59 0l1044 1434h86l-1032 -1434h-98zM94 1395l76 41h76l-56 -535h-75l47 453l-35 -23zM621 162q9 88 100 133q-55 43 -49 111q6 53 53 93t117 40q75 0 115.5 -42.5t35.5 -99.5q-7 -70 -73 -106q82 -42 73 -137q-7 -68 -65.5 -113t-134.5 -45q-77 0 -128 47.5t-44 118.5z
M694 154q-4 -40 25 -67.5t72 -27.5q51 0 86 28.5t41 74.5q4 43 -23 69.5t-74 26.5q-46 0 -84.5 -30t-42.5 -74zM748 397q-3 -29 18.5 -52t52.5 -23q37 0 65 25.5t31 58.5q3 30 -13 49.5t-58 19.5t-67.5 -23t-28.5 -55z" />
    <glyph glyph-name="threeeighths" unicode="&#x215c;" horiz-adv-x="1175" 
d="M-18 0l1042 1434h86l-1030 -1434h-98zM53 1081l78 -4q-5 -50 19.5 -84.5t72.5 -34.5q47 0 84 29t41 74q6 54 -29.5 74t-109.5 20l2 59q66 0 101 25t40 66q3 30 -19.5 50.5t-58.5 20.5q-45 0 -75.5 -30t-36.5 -84l-74 4q6 77 59 125.5t127 48.5q67 0 112.5 -43.5
t39.5 -100.5q-7 -64 -72 -106q35 -15 55.5 -50.5t16.5 -86.5q-7 -68 -67.5 -114t-135.5 -46q-84 0 -132.5 56t-37.5 132zM655 162q9 88 103 133q-57 42 -51 111q6 53 53 93t117 40q76 0 116.5 -43t34.5 -99q-7 -69 -72 -106q83 -44 74 -137q-7 -68 -67 -113t-136 -45
q-77 0 -128 47.5t-44 118.5zM731 154q-4 -40 25 -67.5t71 -27.5q51 0 86 28.5t39 74.5q4 43 -22.5 69.5t-73.5 26.5q-46 0 -83.5 -30t-41.5 -74zM782 397q-3 -29 19 -52t53 -23q37 0 65 25.5t31 58.5q3 30 -13 49.5t-58 19.5t-68 -23t-29 -55z" />
    <glyph glyph-name="fiveeighths" unicode="&#x215d;" horiz-adv-x="1179" 
d="M-20 0l1044 1434h86l-1032 -1434h-98zM47 1022l72 35q-2 -41 26 -70t76 -29q49 0 88 36.5t45 92.5q6 49 -23 84t-69 35q-73 0 -125 -61l-65 18l65 273h283l-6 -66h-213l-31 -119q47 21 92 21q73 0 125 -56t45 -137q-9 -78 -71 -132t-140 -54q-69 0 -117.5 39.5
t-56.5 89.5zM659 162q9 88 101 133q-55 43 -49 111q6 53 53 93t117 40q75 0 115.5 -42.5t35.5 -99.5q-7 -69 -74 -106q83 -42 74 -137q-7 -68 -66 -113t-135 -45q-77 0 -128 47.5t-44 118.5zM733 154q-4 -40 25 -67.5t71 -27.5q51 0 86 28.5t41 74.5q4 43 -22.5 69.5
t-73.5 26.5q-46 0 -84.5 -30t-42.5 -74zM786 397q-3 -29 19 -52t53 -23q37 0 65 25.5t31 58.5q3 30 -13 49.5t-58 19.5t-68 -23t-29 -55z" />
    <glyph glyph-name="seveneighths" unicode="&#x215e;" horiz-adv-x="1136" 
d="M-61 0l1044 1434h86l-1032 -1434h-98zM88 1370l6 66h355l-265 -535h-80l232 469h-248zM618 162q9 88 101 133q-55 43 -49 111q6 53 53 93t117 40q75 0 115.5 -42.5t35.5 -99.5q-7 -70 -73 -106q82 -42 73 -137q-7 -68 -65.5 -113t-134.5 -45q-77 0 -128.5 47.5
t-44.5 118.5zM692 154q-4 -40 25 -67.5t71 -27.5q51 0 86 28.5t41 74.5q5 43 -22 69.5t-74 26.5q-46 0 -84.5 -30t-42.5 -74zM745 397q-3 -29 19 -52t53 -23q37 0 65 25.5t31 58.5q3 30 -13 49.5t-58 19.5t-68 -23t-29 -55z" />
    <glyph glyph-name="partialdiff" unicode="&#x2202;" horiz-adv-x="1116" 
d="M510 -20q-128 0 -235 58.5t-166.5 167.5t-45.5 243q13 117 87 221t184 165.5t225 61.5q57 0 76 -16l-369 573h281l313 -489q7 -12 22 -35q16 -26 24.5 -39.5t24.5 -40t24.5 -43.5l22 -44t20.5 -48.5t16 -49.5t13.5 -54t8 -56t3 -61t-4.5 -64q-13 -129 -93 -234
t-194.5 -160.5t-236.5 -55.5zM322 426q-9 -92 45.5 -150.5t148.5 -58.5q101 0 175 66.5t83 169.5q10 80 -41 142t-151 62q-102 0 -176.5 -67.5t-83.5 -163.5z" />
    <glyph glyph-name="product" unicode="&#x220f;" horiz-adv-x="1505" 
d="M-4 -389l190 1823h1321l-190 -1823h-270l165 1573h-780l-166 -1573h-270z" />
    <glyph glyph-name="summation" unicode="&#x2211;" horiz-adv-x="1417" 
d="M-4 -389l657 911l-467 912h1233l-26 -250h-789l350 -662l-489 -661h788l-24 -250h-1233z" />
    <glyph glyph-name="minus" unicode="&#x2212;" horiz-adv-x="872" 
d="M86 449l23 229h686l-23 -229h-686z" />
    <glyph glyph-name="radical" unicode="&#x221a;" horiz-adv-x="1701" 
d="M629 -389l-287 878h-252l31 310h432l256 -826l637 1665h280l-774 -2027h-323z" />
    <glyph glyph-name="infinity" unicode="&#x221e;" horiz-adv-x="1677" 
d="M1190 178q-186 0 -369 203q-222 -203 -407 -203q-163 0 -254 102.5t-76 256.5q15 149 128.5 250.5t276.5 101.5q186 0 363 -201q223 201 414 201q161 0 251.5 -101.5t75.5 -250.5q-15 -153 -128 -256t-275 -103zM303 537q-8 -59 31 -101.5t106 -42.5q142 0 260 144
q-91 143 -229 143q-66 0 -114 -42.5t-54 -100.5zM973 537q90 -144 233 -144q66 0 114 42t54 102q8 58 -31.5 100.5t-105.5 42.5q-145 0 -264 -143z" />
    <glyph glyph-name="integral" unicode="&#x222b;" horiz-adv-x="804" 
d="M8 -381q-128 0 -192 41l22 215q43 -22 115 -22q76 0 120.5 41t51.5 120l119 1106q10 90 42.5 160t74 110t94 66t97 34.5t87.5 8.5q126 0 188 -41l-22 -215q-38 23 -115 23q-75 0 -120 -41.5t-52 -120.5l-117 -1104q-9 -91 -41.5 -161t-73.5 -110.5t-93.5 -66.5t-97 -34.5
t-87.5 -8.5z" />
    <glyph glyph-name="approxequal" unicode="&#x2248;" horiz-adv-x="978" 
d="M618 229q-54 0 -95 17.5t-61.5 38t-49 38t-60.5 17.5q-74 0 -82 -61h-204q11 117 79.5 187.5t182.5 70.5q54 0 95.5 -17.5t62 -38t49 -38t59.5 -17.5q32 0 55 14.5t27 44.5h205q-11 -116 -80 -186t-183 -70zM102 618q11 117 80 188t183 71q54 0 95.5 -17.5t62 -38t49 -38
t59.5 -17.5q32 0 55 14.5t27 44.5h205q-11 -116 -80 -186t-183 -70q-54 0 -95 17.5t-61.5 38t-49 38t-60.5 17.5t-55 -15t-27 -47h-205z" />
    <glyph glyph-name="notequal" unicode="&#x2260;" horiz-adv-x="872" 
d="M94 0l107 276h-138l25 230h203l45 115h-236l25 229h299l117 299h235l-117 -299h152l-25 -229h-215l-45 -115h250l-24 -230h-316l-106 -276h-236z" />
    <glyph glyph-name="lessequal" unicode="&#x2264;" horiz-adv-x="858" 
d="M772 322l-659 405l8 82l745 405l-24 -235l-402 -211l357 -209zM51 2l25 231h686l-25 -231h-686z" />
    <glyph glyph-name="greaterequal" unicode="&#x2265;" horiz-adv-x="888" 
d="M72 322l24 237l402 209l-357 211l25 235l659 -405l-8 -82zM37 2l24 231h687l-25 -231h-686z" />
    <glyph glyph-name="lozenge" unicode="&#x25ca;" horiz-adv-x="1214" 
d="M354 0l-243 717l391 717h393l246 -717l-391 -717h-396zM395 717l174 -520l287 520l-176 520z" />
    <glyph glyph-name="uniA78B" unicode="&#xa78b;" horiz-adv-x="489" 
d="M96 479l105 975h280l-102 -975h-283z" />
    <glyph glyph-name="uniA78C" unicode="&#xa78c;" horiz-adv-x="489" 
d="M139 856l62 598h280l-61 -598h-281z" />
    <glyph glyph-name="uni004A0301" horiz-adv-x="1060" 
d="M428 -20q-145 0 -256.5 59.5t-165.5 159.5l201 182q33 -55 89 -93t134 -38q27 0 52.5 4.5t59 21t59 44t47 79t28.5 119.5l98 936h281l-105 -973q-11 -109 -46.5 -196t-86 -143t-115.5 -93.5t-132.5 -53t-141.5 -15.5zM809 1583l178 322h230l-185 -322h-223z" />
    <glyph glyph-name="Thorn.001" horiz-adv-x="1306" 
d="M49 0l152 1434h280l-30 -277h337q206 0 340 -114.5t134 -305.5q0 -88 -31 -163t-84 -127.5t-124 -89.5t-151 -54.5t-165 -17.5h-347l-30 -285h-281zM385 526h279q319 0 319 207q0 185 -268 185h-289z" />
    <glyph glyph-name="M.ss01" horiz-adv-x="1859" 
d="M49 0l275 1454h278l313 -1077l527 1077h289l-29 -1454h-289l23 938l-441 -938h-239l-246 938l-170 -938h-291z" />
    <glyph glyph-name="i.loclTRK" horiz-adv-x="485" 
d="M49 0l113 1065h274l-112 -1065h-275zM176 1212l27 273h276l-28 -273h-275z" />
    <glyph glyph-name="uni006A0301" horiz-adv-x="487" 
d="M-283 -395l29 254h59q60 0 101 9.5t75 35t54 72.5t28 120l101 969h276l-104 -995q-27 -246 -158.5 -355.5t-386.5 -109.5h-74zM188 1194l179 322h229l-184 -322h-224z" />
    <glyph glyph-name="f_t" horiz-adv-x="1400" 
d="M477 846l-90 -846h-274l88 846h-138l23 219h137l6 55q9 90 40.5 160t73 110t95 65.5t100.5 34.5t97 9q114 0 178 -41l-22 -215q-47 23 -115 23q-157 0 -172 -162l-4 -39h397l29 272h276l-28 -272h219l-23 -219h-219l-53 -506q-5 -46 21 -77.5t89 -31.5q43 0 101 17
l-23 -211q-54 -49 -190 -49q-143 0 -219 75t-60 232l57 551h-397z" />
    <glyph glyph-name="t_t" horiz-adv-x="1435" 
d="M514 846l-53 -506q-5 -46 21 -77.5t89 -31.5q43 0 101 17l-23 -211q-54 -49 -190 -49q-143 0 -219 75t-60 232l58 551h-154l22 219h154l29 272h276l-28 -272h395l29 272h276l-29 -272h219l-22 -219h-219l-53 -506q-5 -46 21 -77.5t89 -31.5q42 0 100 17l-22 -211
q-54 -49 -191 -49q-143 0 -218.5 75t-59.5 232l57 551h-395z" />
    <glyph glyph-name="zero.ss01" horiz-adv-x="1335" 
d="M621 -20q-111 0 -205.5 40t-166.5 117t-112.5 199.5t-40.5 277.5q0 176 45.5 332t128.5 273.5t209 186.5t277 69q112 0 206.5 -40t165 -116.5t110.5 -198.5t40 -276q0 -143 -28 -272.5t-83.5 -237t-133.5 -187t-183.5 -123.5t-228.5 -44zM365 606q0 -78 14 -144.5
t44 -122t83.5 -87t126.5 -31.5q77 0 140.5 35t107 94t73.5 139.5t44 169.5t14 185q0 81 -13.5 147.5t-43 123t-83.5 88.5t-129 32q-77 0 -140.5 -37t-107 -98.5t-73.5 -143t-43.5 -170t-13.5 -180.5z" />
    </font>
</defs>
</svg>
