<?xml version="1.0" standalone="no"?>
<!DOCTYPE svg PUBLIC "-//W3C//DTD SVG 1.1//EN" "http://www.w3.org/Graphics/SVG/1.1/DTD/svg11.dtd" >
<svg xmlns="http://www.w3.org/2000/svg" xmlns:xlink="http://www.w3.org/1999/xlink" version="1.1">
<metadata>
Created by FontForge 20170731 at Fri Jul 14 11:17:25 2023
 By Aleksey,,,
Copyright (c) 2021 by Connary Fagen. All rights reserved.
</metadata>
<defs>
<font id="VisbyCF-MediumOblique" horiz-adv-x="1185" >
  <font-face 
    font-family="Visby CF Medium"
    font-weight="500"
    font-style="oblique"
    font-stretch="normal"
    units-per-em="2048"
    panose-1="0 0 0 0 0 0 0 0 0 0"
    ascent="1638"
    descent="-410"
    x-height="1065"
    cap-height="1454"
    bbox="-504 -539 2281 2265"
    underline-thickness="102"
    underline-position="-358"
    slope="-6"
    unicode-range="U+0020-FB01"
  />
<missing-glyph horiz-adv-x="1075" 
d="M883 1638v-2150h-682v2150h682zM358 -365h359v72h-219l149 100h70v72h-359v-72h152l-152 -100v-72zM358 -72h359v244h-359v-244zM358 301h359v244h-215v-121h71v49h72v-100h-215v172h-72v-244zM358 592h359v215h-72v-143h-287v-72zM358 715h215v149h144v72h-359v-72h144
v-80h-144v-69zM358 993h359v74h-144v150h-215v-224zM358 1274h359v69h-144v80h144v72h-357v-72h142v-80h-144v-69zM430 0v100h215v-100h-215zM430 1067v78h72v-78h-72z" />
    <glyph glyph-name="fi" unicode="fi" horiz-adv-x="1081" 
d="M387 924l-96 -924h-174l96 924h-123l14 141h123l13 111q8 75 33 133t58 92t76.5 56t83 30t82.5 8q103 0 162 -41l-14 -137q-54 29 -125 29q-165 0 -184 -185l-11 -96h613l-111 -1065h-172l96 924h-440zM866 1294l17 160h174l-19 -160h-172z" />
    <glyph glyph-name="f_f" unicode="ff" horiz-adv-x="1341" 
d="M387 924l-96 -924h-174l96 924h-123l14 141h123l13 111q8 75 33 133t58 92t76.5 56t83 30t82.5 8q103 0 162 -41l-14 -137q-54 29 -125 29q-165 0 -184 -185l-11 -96h439l12 111q8 75 33 133t58.5 92t76.5 56t83 30t83 8q103 0 162 -41l-15 -137q-54 29 -125 29
q-165 0 -184 -185l-10 -96h293l-15 -141h-293l-96 -924h-174l96 924h-438z" />
    <glyph glyph-name=".notdef" horiz-adv-x="1075" 
d="M883 1638v-2150h-682v2150h682zM358 -365h359v72h-219l149 100h70v72h-359v-72h152l-152 -100v-72zM358 -72h359v244h-359v-244zM358 301h359v244h-215v-121h71v49h72v-100h-215v172h-72v-244zM358 592h359v215h-72v-143h-287v-72zM358 715h215v149h144v72h-359v-72h144
v-80h-144v-69zM358 993h359v74h-144v150h-215v-224zM358 1274h359v69h-144v80h144v72h-357v-72h142v-80h-144v-69zM430 0v100h215v-100h-215zM430 1067v78h72v-78h-72z" />
    <glyph glyph-name=".null" horiz-adv-x="0" 
 />
    <glyph glyph-name="nonmarkingreturn" horiz-adv-x="682" 
 />
    <glyph glyph-name="space" unicode=" " horiz-adv-x="442" 
 />
    <glyph glyph-name="space" unicode="&#xa0;" horiz-adv-x="442" 
 />
    <glyph glyph-name="exclam" unicode="!" horiz-adv-x="450" 
d="M123 406l110 1048h179l-113 -1048h-176zM74 84q0 44 30 73t74 29q45 0 75 -29t30 -73t-30.5 -74t-74.5 -30t-74 30t-30 74z" />
    <glyph glyph-name="quotedbl" unicode="&#x22;" horiz-adv-x="555" 
d="M373 993l47 461h155l-49 -461h-153zM125 993l47 461h156l-49 -461h-154z" />
    <glyph glyph-name="numbersign" unicode="#" horiz-adv-x="1126" 
d="M88 0l66 369h-136l17 153h145l70 389h-174l16 154h184l66 369h176l-65 -369h258l65 369h176l-65 -369h147l-16 -154h-158l-69 -389h186l-16 -153h-197l-66 -369h-176l66 369h-258l-66 -369h-176zM356 522h258l70 389h-258z" />
    <glyph glyph-name="dollar" unicode="$" horiz-adv-x="888" 
d="M352 0l19 178q-131 14 -214.5 89.5t-93.5 195.5l146 39q13 -85 73.5 -134t149.5 -49q86 0 147.5 43.5t61.5 129.5q0 63 -39 102t-127 76l-90 37q-221 90 -221 278q0 122 92.5 204.5t228.5 90.5l19 174h121l-19 -184q92 -22 153.5 -82.5t78.5 -145.5l-140 -41
q-53 134 -192 134q-76 0 -123 -37t-47 -105q0 -52 31 -89.5t102 -67.5l88 -37q60 -25 102.5 -50.5t80 -60.5t56.5 -82t19 -106q0 -134 -89.5 -219t-231.5 -103l-21 -178h-121z" />
    <glyph glyph-name="percent" unicode="%" horiz-adv-x="1431" 
d="M270 0l-131 88l1063 1370l127 -90zM143 1194q0 110 82 190t193 80q100 0 167.5 -66.5t67.5 -166.5q0 -110 -81.5 -190t-192.5 -80q-100 0 -168 67t-68 166zM264 1200q0 -52 34.5 -86.5t84.5 -34.5q61 0 105 42.5t44 103.5q0 52 -34 86.5t-84 34.5q-61 0 -105.5 -42.5
t-44.5 -103.5zM819 223q0 110 81.5 190.5t191.5 80.5q101 0 169 -67t68 -167q0 -110 -81.5 -190t-192.5 -80q-100 0 -168 67t-68 166zM940 229q0 -52 34 -86t85 -34q59 0 103 42t44 103q0 52 -34 86.5t-85 34.5q-59 0 -103 -42.5t-44 -103.5z" />
    <glyph glyph-name="ampersand" unicode="&#x26;" horiz-adv-x="1392" 
d="M537 -20q-194 0 -319.5 120t-125.5 316t124.5 333t311.5 156l-221 549h756l-14 -145h-539l203 -523h-60q-167 0 -275 -96.5t-108 -251.5q0 -140 89 -222.5t221 -82.5q148 0 259 100t126 248l41 379h315l-14 -141h-156l-47 -469q-10 -107 86 -107q39 0 84 19l-14 -137
q-42 -37 -125 -37q-87 0 -128.5 52t-31.5 148l6 45q-62 -112 -178.5 -182.5t-265.5 -70.5z" />
    <glyph glyph-name="quotesingle" unicode="'" horiz-adv-x="307" 
d="M125 993l47 461h156l-49 -461h-154z" />
    <glyph glyph-name="parenleft" unicode="(" horiz-adv-x="559" 
d="M172 -262q-180 393 -121 926q51 503 305 866l168 -8q-247 -378 -299 -875q-55 -514 109 -917z" />
    <glyph glyph-name="parenright" unicode=")" horiz-adv-x="559" 
d="M-47 -262q248 396 303 926q52 489 -113 866l162 -8q183 -369 127 -875q-54 -529 -311 -917z" />
    <glyph glyph-name="asterisk" unicode="*" horiz-adv-x="974" 
d="M332 819l-121 82l164 191l-211 61l49 145l221 -67l21 237h147l-29 -237l234 67l22 -145l-227 -61l125 -191l-133 -82l-111 189z" />
    <glyph glyph-name="plus" unicode="+" horiz-adv-x="868" 
d="M342 233l31 283h-283l12 119h283l31 283h119l-31 -283h282l-12 -119h-282l-31 -283h-119z" />
    <glyph glyph-name="comma" unicode="," horiz-adv-x="436" 
d="M-31 -283l209 461h156l-213 -461h-152z" />
    <glyph glyph-name="hyphen" unicode="-" horiz-adv-x="821" 
d="M39 500l14 143h635l-14 -143h-635z" />
    <glyph glyph-name="period" unicode="." horiz-adv-x="360" 
d="M133 -20q-44 0 -74 30t-30 74t30 73t74 29q45 0 75 -29t30 -73t-30.5 -74t-74.5 -30z" />
    <glyph glyph-name="slash" unicode="/" horiz-adv-x="958" 
d="M55 0l756 1536h184l-755 -1536h-185z" />
    <glyph glyph-name="zero" unicode="0" horiz-adv-x="1667" 
d="M782 -20q-185 0 -336 82.5t-240 237.5t-89 353q0 167 65 319t174 262t258 175.5t310 65.5q137 0 259 -49t212 -136t142 -214.5t52 -276.5q0 -166 -65 -318t-174 -261.5t-258 -174.5t-310 -65zM295 664q0 -114 39 -212.5t106 -166t158.5 -106t194.5 -38.5q121 0 235 51
t198.5 137.5t135.5 207.5t51 254q0 152 -68 272t-182 185t-252 65q-121 0 -234 -51.5t-197 -137.5t-134.5 -207t-50.5 -253z" />
    <glyph glyph-name="one" unicode="1" horiz-adv-x="657" 
d="M266 0l137 1298h-206l16 156h383l-154 -1454h-176z" />
    <glyph glyph-name="two" unicode="2" horiz-adv-x="1093" 
d="M557 596q20 22 59.5 65t58.5 64t51 59t48 61.5t37.5 57.5t31.5 61.5t17.5 60.5t7.5 65q0 109 -68 166t-171 57q-118 0 -204.5 -73.5t-102.5 -213.5l-5 -37h-174l7 51q24 192 156.5 313.5t338.5 121.5q187 0 296.5 -99t109.5 -256q0 -35 -5 -69t-18 -68.5t-24 -61.5
t-35 -62t-37.5 -55.5t-44.5 -57t-44 -51.5t-48 -53.5l-45 -49.5l-398 -436h602l-16 -156h-913z" />
    <glyph glyph-name="three" unicode="3" horiz-adv-x="1167" 
d="M518 -20q-178 0 -298.5 87.5t-153.5 225.5l139 78q30 -110 114 -174t205 -64q159 0 264 102t105 257q0 82 -33 145.5t-90.5 98.5t-135.5 45t-167 -15l379 534h-592l16 154h848l-403 -561q146 -8 250 -116t104 -283q0 -146 -73.5 -264t-199.5 -184t-278 -66z" />
    <glyph glyph-name="four" unicode="4" horiz-adv-x="1116" 
d="M659 0l39 371h-632l16 153l729 930h178l-98 -930h153l-16 -153h-154l-38 -371h-177zM268 524h447l73 682z" />
    <glyph glyph-name="five" unicode="5" horiz-adv-x="1165" 
d="M500 -20q-172 0 -290.5 82.5t-156.5 211.5l144 76q26 -86 110 -149.5t207 -63.5q160 0 267.5 107.5t107.5 267.5q0 140 -86.5 225.5t-220.5 85.5q-95 0 -175.5 -42t-136.5 -111l-133 55l174 729h705l-17 -154h-567l-113 -448q44 50 126.5 83.5t181.5 33.5q186 0 310 -120
t124 -321q0 -114 -43 -215.5t-117.5 -174.5t-178.5 -115.5t-222 -42.5z" />
    <glyph glyph-name="six" unicode="6" horiz-adv-x="1128" 
d="M522 -20q-190 0 -316 120t-126 308q0 35 5.5 70.5t12.5 65t22 64.5t25.5 59t32.5 58.5t34.5 53t38.5 52.5t37 47.5t39 47.5t35 43l390 485h198l-489 -600q69 29 153 29q175 0 294.5 -116t119.5 -300q0 -136 -69.5 -248.5t-185.5 -175.5t-251 -63zM244 406
q0 -125 80.5 -200t203.5 -75q140 0 237 95.5t97 234.5q0 125 -79.5 198.5t-202.5 73.5q-140 0 -238 -94t-98 -233z" />
    <glyph glyph-name="seven" unicode="7" horiz-adv-x="997" 
d="M133 0l651 1300h-643l17 154h874l-725 -1454h-174z" />
    <glyph glyph-name="eight" unicode="8" horiz-adv-x="1138" 
d="M520 -20q-89 0 -169.5 28.5t-141 80t-96 128.5t-35.5 168q0 145 83.5 258.5t219.5 167.5q-67 40 -107.5 111.5t-40.5 162.5q0 161 119 275.5t301 114.5q166 0 267.5 -98t101.5 -242q0 -104 -55.5 -192.5t-153.5 -139.5q100 -43 161.5 -134.5t61.5 -217.5q0 -104 -44 -194
t-116 -149.5t-165 -93.5t-191 -34zM252 403q0 -123 79 -193.5t201 -70.5q136 0 233 89t97 223q0 122 -79 194t-199 72q-138 0 -235 -89.5t-97 -224.5zM391 1079q0 -91 60 -151t157 -60q108 0 180 70.5t72 171.5q0 92 -60.5 151.5t-158.5 59.5q-107 0 -178.5 -70t-71.5 -172z
" />
    <glyph glyph-name="nine" unicode="9" horiz-adv-x="1128" 
d="M647 1475q190 0 316.5 -120t126.5 -308q0 -39 -5 -76.5t-18.5 -75.5t-23.5 -67t-34 -68t-35.5 -59.5t-43 -61t-40.5 -52.5t-44 -54.5t-39 -47.5l-389 -485h-199l490 600q-69 -29 -154 -29q-175 0 -294.5 116t-119.5 300q0 136 69.5 249t185.5 176t251 63zM307 993
q0 -125 80 -198.5t203 -73.5q140 0 238 94.5t98 233.5q0 125 -81 199.5t-204 74.5q-140 0 -237 -95.5t-97 -234.5z" />
    <glyph glyph-name="colon" unicode=":" horiz-adv-x="364" 
d="M244 834q-44 0 -74.5 30t-30.5 74t30 73t75 29q44 0 74 -29t30 -73t-30 -74t-74 -30zM49 84q0 44 30 73t75 29q44 0 74 -29t30 -73t-30 -74t-74 -30t-74.5 30t-30.5 74z" />
    <glyph glyph-name="semicolon" unicode=";" horiz-adv-x="452" 
d="M-31 -283l209 461h156l-213 -461h-152zM207 938q0 44 30 73t74 29q45 0 75 -29t30 -73t-30.5 -74t-74.5 -30t-74 30t-30 74z" />
    <glyph glyph-name="less" unicode="&#x3c;" horiz-adv-x="1017" 
d="M891 0l-809 430l12 125l899 430l-18 -168l-682 -325l616 -322z" />
    <glyph glyph-name="equal" unicode="=" horiz-adv-x="872" 
d="M72 332l16 143h686l-14 -143h-688zM106 668l17 143h686l-16 -143h-687z" />
    <glyph glyph-name="greater" unicode="&#x3e;" horiz-adv-x="1017" 
d="M119 985l809 -430l-13 -125l-899 -430l19 168l682 326l-617 321z" />
    <glyph glyph-name="question" unicode="?" horiz-adv-x="1030" 
d="M436 485q5 62 29 116t58.5 93t75.5 74.5t82 68.5t76 67.5t59.5 78.5t29.5 94q12 104 -54.5 174t-195.5 70q-135 0 -213 -81.5t-94 -221.5h-172q13 217 145 337t342 120q203 0 319 -110.5t99 -287.5q-7 -63 -31.5 -116.5t-59.5 -92t-75.5 -73t-81 -68t-75 -68t-58.5 -81
t-29 -99.5l-8 -78h-176zM397 84q0 44 30 73t75 29q44 0 74 -29t30 -73t-30 -74t-74 -30t-74.5 30t-30.5 74z" />
    <glyph glyph-name="at" unicode="@" horiz-adv-x="1646" 
d="M782 -20q-139 0 -260.5 47t-211 132t-141.5 211.5t-52 278.5q0 172 66.5 326.5t177.5 263t261 172.5t312 64q132 0 248 -45t202.5 -127.5t136.5 -207.5t50 -276q0 -132 -34.5 -241t-108.5 -179.5t-175 -70.5q-92 0 -141.5 56.5t-46.5 141.5q-37 -86 -122 -143t-183 -57
q-58 0 -110 21.5t-93.5 63.5t-65.5 109.5t-24 153.5q0 185 102.5 310.5t257.5 125.5q95 0 160 -47.5t90 -112.5l29 142h102l-47 -457q-18 -178 94 -178q36 0 64.5 21.5t45.5 55t28 79.5t15.5 90.5t4.5 91.5q0 257 -137.5 396.5t-357.5 139.5q-178 0 -326.5 -88.5t-234 -243
t-85.5 -340.5q0 -166 70.5 -289t190 -185t272.5 -62q185 0 332 92l-17 -154q-150 -81 -338 -81zM612 690q0 -108 53 -167.5t134 -59.5q102 0 166.5 87t64.5 210q0 105 -51.5 159t-132.5 54q-105 0 -169.5 -81t-64.5 -202z" />
    <glyph glyph-name="A" unicode="A" horiz-adv-x="1409" 
d="M889 1454l416 -1454h-191l-92 336h-676l-162 -336h-190l717 1454h178zM426 500h551l-199 727z" />
    <glyph glyph-name="B" unicode="B" horiz-adv-x="1175" 
d="M66 0l151 1454h498q174 0 266 -87.5t92 -225.5q0 -117 -66.5 -206.5t-183.5 -127.5q122 -30 191 -122.5t69 -233.5q0 -199 -139.5 -325t-398.5 -126h-479zM258 158h293q171 0 265.5 80t94.5 221q0 124 -76 192t-227 68h-291zM332 858h284q128 0 206.5 70t78.5 178
q0 91 -58.5 140.5t-176.5 49.5h-289z" />
    <glyph glyph-name="C" unicode="C" horiz-adv-x="1486" 
d="M795 -20q-142 0 -266.5 48t-215.5 134t-143.5 213t-52.5 278q0 169 66.5 321.5t177.5 262t262 174t315 64.5q73 0 142.5 -13t143 -43.5t139.5 -89t112 -139.5l-138 -94q-69 113 -178 161t-231 48q-129 0 -245.5 -49.5t-201 -133.5t-134.5 -202t-50 -250
q0 -236 147.5 -378t372.5 -142q274 0 445 208l116 -94q-63 -81 -139 -139.5t-154 -88.5t-148 -43t-142 -13z" />
    <glyph glyph-name="D" unicode="D" horiz-adv-x="1351" 
d="M66 0l151 1454h430q297 0 472 -183t175 -483q0 -169 -59 -315.5t-162.5 -250.5t-251 -163t-317.5 -59h-438zM260 168h248q182 0 320 79t211 218t73 317q0 234 -126 369t-363 135h-248z" />
    <glyph glyph-name="E" unicode="E" horiz-adv-x="1009" 
d="M66 0l151 1454h780l-16 -164h-604l-51 -479h514l-17 -162h-514l-51 -485h623l-17 -164h-798z" />
    <glyph glyph-name="F" unicode="F" horiz-adv-x="993" 
d="M66 0l151 1454h782l-16 -160h-606l-51 -487h553l-17 -152h-553l-67 -655h-176z" />
    <glyph glyph-name="G" unicode="G" horiz-adv-x="1611" 
d="M784 -20q-140 0 -262.5 48.5t-212 134.5t-141 212.5t-51.5 275.5q0 170 65.5 323t175.5 262.5t261 174t317 64.5q73 0 143 -13t144 -43.5t140 -89t112 -139.5l-138 -94q-68 113 -177 162t-232 49q-103 0 -199.5 -32t-174 -91t-136 -137.5t-90 -176.5t-31.5 -204
q0 -234 145 -378.5t369 -144.5q124 0 230 46t188 149t114 252h-413l16 149h584q-4 -173 -67 -318t-165.5 -240.5t-235 -148t-278.5 -52.5z" />
    <glyph glyph-name="H" unicode="H" horiz-adv-x="1318" 
d="M963 0l65 625h-721l-65 -625h-176l153 1454h176l-69 -666h721l69 666h176l-153 -1454h-176z" />
    <glyph glyph-name="I" unicode="I" horiz-adv-x="419" 
d="M66 0l153 1454h176l-153 -1454h-176z" />
    <glyph glyph-name="J" unicode="J" horiz-adv-x="991" 
d="M389 -20q-128 0 -225.5 52t-140.5 142l124 115q80 -139 244 -139q116 0 196.5 73.5t98.5 235.5l105 995h176l-107 -1016q-10 -97 -41 -175t-75.5 -130t-102.5 -87t-120.5 -50.5t-131.5 -15.5z" />
    <glyph glyph-name="K" unicode="K" horiz-adv-x="1280" 
d="M66 0l151 1454h176l-84 -809l756 809h207l-633 -674l537 -780h-193l-459 657l-241 -256l-41 -401h-176z" />
    <glyph glyph-name="L" unicode="L" horiz-adv-x="1013" 
d="M66 0l153 1454h176l-135 -1290h635l-18 -164h-811z" />
    <glyph glyph-name="M" unicode="M" horiz-adv-x="1730" 
d="M66 0l153 1454h176l439 -1216l690 1216h182l-154 -1454h-176l113 1075l-602 -1075h-150l-381 1075l-114 -1075h-176z" />
    <glyph glyph-name="N" unicode="N" horiz-adv-x="1421" 
d="M66 0l151 1454h180l690 -1159h13l121 1159h176l-152 -1454h-180l-690 1159h-13l-120 -1159h-176z" />
    <glyph glyph-name="O" unicode="O" horiz-adv-x="1681" 
d="M793 -20q-140 0 -263.5 47.5t-215 133t-144.5 212.5t-53 278q0 169 65.5 322t175.5 262.5t260 174.5t312 65q188 0 341 -81t244 -235.5t91 -355.5q0 -169 -65.5 -322t-175.5 -262.5t-260 -174t-312 -64.5zM297 666q0 -155 69 -274t184.5 -180.5t256.5 -61.5q167 0 309 85
t225.5 232t83.5 321q0 155 -68.5 274t-184 181t-257.5 62q-124 0 -238 -50.5t-197.5 -136t-133 -204t-49.5 -248.5z" />
    <glyph glyph-name="P" unicode="P" horiz-adv-x="1175" 
d="M66 0l151 1454h473q215 0 334 -116.5t121 -313.5q0 -149 -68 -266.5t-194 -184.5t-289 -67h-299l-53 -506h-176zM311 672h283q168 0 269.5 89.5t101.5 250.5q-1 139 -81 208.5t-225 69.5h-282z" />
    <glyph glyph-name="Q" unicode="Q" horiz-adv-x="1681" 
d="M1300 0l-75 106q-197 -126 -432 -126q-140 0 -263.5 47.5t-215 133t-144.5 212.5t-53 278q0 169 65.5 322t175.5 262.5t260 174.5t312 65q188 0 341 -81t244 -235.5t91 -355.5q0 -171 -66 -324t-184 -268l149 -211h-205zM297 666q0 -155 69 -274t184.5 -180.5
t256.5 -61.5q171 0 321 94l-256 362h205l180 -254q168 183 168 436q0 155 -68.5 274t-184 181t-257.5 62q-124 0 -238 -50.5t-197.5 -136t-133 -204t-49.5 -248.5z" />
    <glyph glyph-name="R" unicode="R" horiz-adv-x="1218" 
d="M66 0l151 1454h469q211 0 330 -116t119 -308q0 -172 -97 -303t-262 -182l307 -545h-192l-287 516h-16h-293l-53 -516h-176zM311 672h273q165 0 267.5 96t102.5 252q0 135 -79.5 202.5t-225.5 67.5h-272z" />
    <glyph glyph-name="S" unicode="S" horiz-adv-x="1101" 
d="M518 -20q-184 0 -314 100.5t-153 263.5l152 66q22 -123 107.5 -195t215.5 -72q132 0 221 70.5t89 194.5q0 100 -59 156.5t-187 109.5l-101 41q-303 122 -303 368q0 115 60.5 205.5t162 138.5t224.5 48q170 0 280.5 -87.5t143.5 -216.5l-142 -69q-36 102 -108.5 157.5
t-179.5 55.5q-114 0 -189.5 -61.5t-75.5 -161.5q0 -77 49.5 -134.5t161.5 -103.5l97 -39q86 -36 145 -70.5t107.5 -81t72 -107t23.5 -136.5q0 -101 -42 -185.5t-112 -139.5t-159.5 -85t-186.5 -30z" />
    <glyph glyph-name="T" unicode="T" horiz-adv-x="1083" 
d="M395 0l137 1290h-382l18 164h942l-18 -164h-383l-138 -1290h-176z" />
    <glyph glyph-name="U" unicode="U" horiz-adv-x="1286" 
d="M590 -31q-111 0 -203 37.5t-156 107.5t-94 175.5t-16 234.5l98 930h176l-98 -936q-11 -96 9.5 -170.5t65 -119.5t104.5 -68t132 -23q149 0 253.5 97t125.5 290l98 930h177l-99 -938q-18 -170 -100.5 -296t-204.5 -188.5t-268 -62.5z" />
    <glyph glyph-name="V" unicode="V" horiz-adv-x="1409" 
d="M561 0l-416 1454h191l336 -1227l594 1227h190l-717 -1454h-178z" />
    <glyph glyph-name="W" unicode="W" horiz-adv-x="2021" 
d="M436 0l-291 1454h185l219 -1143l487 1143h142l247 -1143l457 1143h186l-595 -1454h-142l-256 1149l-497 -1149h-142z" />
    <glyph glyph-name="X" unicode="X" horiz-adv-x="1331" 
d="M-6 0l590 745l-410 709h207l321 -557l439 557h215l-563 -709l434 -745h-207l-344 594l-467 -594h-215z" />
    <glyph glyph-name="Y" unicode="Y" horiz-adv-x="1331" 
d="M518 0l70 618l-432 836h194l338 -674l475 674h205l-604 -836l-70 -618h-176z" />
    <glyph glyph-name="Z" unicode="Z" horiz-adv-x="1200" 
d="M4 0l930 1290h-754l17 164h1040l-930 -1290h780l-16 -164h-1067z" />
    <glyph glyph-name="bracketleft" unicode="[" horiz-adv-x="532" 
d="M-47 -266l188 1792h348l-16 -154h-172l-156 -1485h172l-16 -153h-348z" />
    <glyph glyph-name="backslash" unicode="\" horiz-adv-x="952" 
d="M610 0l-434 1536h176l434 -1536h-176z" />
    <glyph glyph-name="bracketright" unicode="]" horiz-adv-x="532" 
d="M-47 -266l16 153h172l156 1485h-172l16 154h348l-188 -1792h-348z" />
    <glyph glyph-name="asciicircum" unicode="^" horiz-adv-x="985" 
d="M139 973l389 461h117l295 -461h-170l-197 311l-264 -311h-170z" />
    <glyph glyph-name="underscore" unicode="_" horiz-adv-x="1208" 
d="M-37 -154l17 154h1024l-17 -154h-1024z" />
    <glyph glyph-name="grave" unicode="`" horiz-adv-x="393" 
d="M293 1198l-170 318h153l166 -318h-149z" />
    <glyph glyph-name="a" unicode="a" horiz-adv-x="1292" 
d="M543 -20q-94 0 -178.5 32t-151 91.5t-106 155.5t-39.5 214q0 126 44.5 239.5t120 195t181 129.5t223.5 48q146 0 251 -65t136 -156h10l21 201h172l-111 -1065h-172l21 201h-9q-51 -92 -162 -156.5t-251 -64.5zM242 487q0 -87 28 -155.5t76.5 -110t109.5 -63t130 -21.5
q174 0 298 125t124 316q0 87 -28 155.5t-76.5 110t-109.5 63t-130 21.5q-174 0 -298 -125t-124 -316z" />
    <glyph glyph-name="b" unicode="b" horiz-adv-x="1292" 
d="M659 -20q-143 0 -250.5 65.5t-140.5 155.5h-8l-22 -201h-172l151 1454h172l-61 -590h10q49 91 163.5 156t254.5 65q92 0 175.5 -31t149.5 -89.5t105 -153t39 -211.5q0 -170 -74.5 -312t-204.5 -225t-287 -83zM285 483q0 -87 28.5 -155t77.5 -108.5t109 -61.5t127 -21
q174 0 300 126.5t126 318.5q0 87 -28.5 155t-77.5 108.5t-109 61.5t-127 21q-174 0 -300 -126.5t-126 -318.5z" />
    <glyph glyph-name="c" unicode="c" horiz-adv-x="1148" 
d="M573 -20q-101 0 -191.5 32.5t-160.5 93.5t-111.5 156.5t-41.5 212.5q0 169 81 309.5t219 220.5t302 80q148 0 266 -68t174 -194l-139 -78q-41 86 -124 134.5t-185 48.5q-106 0 -200.5 -50t-157 -150.5t-62.5 -229.5q0 -169 101 -265t247 -96q101 0 189 48t147 134
l123 -77q-82 -128 -206 -195t-270 -67z" />
    <glyph glyph-name="d" unicode="d" horiz-adv-x="1292" 
d="M543 -20q-94 0 -178.5 32t-151 91.5t-106 155.5t-39.5 214q0 126 44.5 239.5t120 195t181 129.5t223.5 48q146 0 251 -65t136 -156h10l62 590h172l-152 -1454h-172l21 201h-9q-51 -92 -162 -156.5t-251 -64.5zM242 487q0 -87 28 -155.5t76.5 -110t109.5 -63t130 -21.5
q174 0 298 125t124 316q0 87 -28 155.5t-76.5 110t-109.5 63t-130 21.5q-174 0 -298 -125t-124 -316z" />
    <glyph glyph-name="e" unicode="e" 
d="M569 -20q-102 0 -192 32.5t-159.5 93.5t-109.5 156.5t-40 214.5q0 125 45.5 238t123 194t185.5 128.5t227 47.5q107 0 199.5 -37t163 -113.5t95.5 -192.5t-3 -273h-877q7 -164 110 -253t261 -89q198 0 328 127l78 -86q-80 -90 -193 -139t-242 -49zM240 600h725
q4 107 -41 184.5t-119.5 114.5t-167.5 37q-148 0 -256 -93.5t-141 -242.5z" />
    <glyph glyph-name="f" unicode="f" horiz-adv-x="729" 
d="M240 1176q8 75 33 133t58 92t76.5 56t83 30t82.5 8q103 0 162 -41l-14 -137q-54 29 -125 29q-165 0 -184 -185l-11 -96h293l-14 -141h-293l-96 -924h-174l96 924h-123l14 141h123z" />
    <glyph glyph-name="g" unicode="g" horiz-adv-x="1292" 
d="M537 -426q-100 0 -185 22t-123 52l17 145q37 -29 110.5 -50.5t165.5 -21.5q81 0 152 19t130.5 58t98 105t47.5 154l15 144h-9q-51 -92 -162.5 -156.5t-250.5 -64.5q-94 0 -178.5 31.5t-151 91t-106 155t-39.5 213.5q0 173 76.5 314.5t206.5 220.5t286 79q146 0 251 -65
t136 -156h10l21 201h172l-105 -1006q-11 -109 -52.5 -195t-99 -139t-133 -88t-149 -49t-151.5 -14zM242 485q0 -85 27.5 -152.5t75.5 -109.5t109.5 -64t131.5 -22q180 0 301 127.5t121 313.5q0 168 -99 259t-245 91q-179 0 -300.5 -128t-121.5 -315z" />
    <glyph glyph-name="h" unicode="h" 
d="M66 0l153 1454h172l-59 -559q55 84 148 137t220 53q182 0 290 -116t85 -342l-65 -627h-172l61 602q17 156 -57.5 241t-208.5 85q-135 0 -225 -84.5t-107 -241.5l-63 -602h-172z" />
    <glyph glyph-name="i" unicode="i" horiz-adv-x="415" 
d="M66 0l110 1065h172l-110 -1065h-172zM201 1294l16 160h174l-18 -160h-172z" />
    <glyph glyph-name="j" unicode="j" horiz-adv-x="417" 
d="M-283 -395l19 159h47q63 0 109 11.5t85.5 41t63 84t31.5 136.5l108 1028h172l-108 -1040q-13 -119 -50.5 -201.5t-100 -130t-141 -68t-183.5 -20.5h-52zM203 1294l18 160h172l-16 -160h-174z" />
    <glyph glyph-name="k" unicode="k" horiz-adv-x="1114" 
d="M66 0l151 1454h172l-100 -967l561 578h217l-479 -485l422 -580h-197l-338 465l-211 -213l-26 -252h-172z" />
    <glyph glyph-name="l" unicode="l" horiz-adv-x="413" 
d="M66 0l151 1454h172l-151 -1454h-172z" />
    <glyph glyph-name="m" unicode="m" horiz-adv-x="1822" 
d="M770 0l66 641q8 135 -52.5 211t-181.5 76q-128 0 -206 -83t-93 -231l-65 -614h-172l110 1065h172l-16 -160q51 80 135.5 130t200.5 50q114 0 198.5 -54t120.5 -161q49 93 145 154t234 61q85 0 152.5 -27.5t115.5 -82t69 -143.5t9 -205l-65 -627h-172l63 614
q15 148 -44.5 231t-186.5 83q-128 0 -206 -83t-93 -231l-66 -614h-172z" />
    <glyph glyph-name="n" unicode="n" 
d="M66 0l110 1065h172l-16 -170q55 84 148 137t220 53q182 0 290 -116t85 -342l-65 -627h-172l61 602q18 156 -57 241t-209 85q-135 0 -225 -84.5t-107 -241.5l-63 -602h-172z" />
    <glyph glyph-name="o" unicode="o" horiz-adv-x="1232" 
d="M563 -20q-70 0 -139.5 19.5t-133.5 60t-113.5 98t-79 139.5t-29.5 178q0 126 48 240t129.5 194.5t191.5 128t231 47.5q88 0 174.5 -32t159.5 -91.5t118 -157t45 -216.5q0 -126 -48 -239t-129.5 -193.5t-192.5 -128t-232 -47.5zM236 479q0 -84 30.5 -151.5t80 -108.5
t109 -62.5t122.5 -21.5q57 0 115.5 18t113 55t97 89t68 126.5t25.5 160.5q0 85 -30.5 153t-80.5 109t-110 62.5t-123 21.5q-72 0 -144 -29t-134 -83.5t-100.5 -143t-38.5 -195.5z" />
    <glyph glyph-name="p" unicode="p" horiz-adv-x="1292" 
d="M25 -389l151 1454h172l-20 -201h10q49 91 163.5 156t254.5 65q92 0 175.5 -31t149.5 -89.5t105 -153t39 -211.5q0 -170 -74.5 -312t-204.5 -225t-287 -83q-143 0 -250.5 65.5t-140.5 155.5h-8l-61 -590h-174zM285 483q0 -87 28.5 -155t77.5 -108.5t109 -61.5t127 -21
q174 0 300 126.5t126 318.5q0 87 -28.5 155t-77.5 108.5t-109 61.5t-127 21q-174 0 -300 -126.5t-126 -318.5z" />
    <glyph glyph-name="q" unicode="q" horiz-adv-x="1294" 
d="M903 -389l62 590h-9q-51 -92 -162 -156.5t-251 -64.5q-94 0 -178.5 32t-151 91.5t-106 155.5t-39.5 214q0 126 44.5 239.5t120 195t181 129.5t223.5 48q146 0 251 -65t136 -156h10l21 201h172l-150 -1454h-174zM242 487q0 -87 28 -155.5t76.5 -110t109.5 -63t130 -21.5
q174 0 298 125t124 316q0 87 -28 155.5t-76.5 110t-109.5 63t-130 21.5q-174 0 -298 -125t-124 -316z" />
    <glyph glyph-name="r" unicode="r" horiz-adv-x="765" 
d="M66 0l110 1065h172l-26 -254q47 121 139.5 197.5t228.5 76.5q43 0 64 -8l-19 -162q-28 7 -55 7q-151 0 -256.5 -100.5t-128.5 -270.5l-57 -551h-172z" />
    <glyph glyph-name="s" unicode="s" horiz-adv-x="878" 
d="M397 -20q-153 0 -252.5 77.5t-111.5 210.5l145 39q13 -85 73 -133.5t150 -48.5q86 0 147.5 43t61.5 129q0 63 -39 102t-127 76l-90 37q-221 90 -221 279q0 128 100.5 211t245.5 83q128 0 217 -65t111 -172l-139 -41q-53 133 -193 133q-76 0 -123 -36.5t-47 -104.5
q0 -52 31 -90t102 -68l88 -37q60 -25 102.5 -50.5t80 -60.5t56.5 -82t19 -106q0 -100 -52 -174.5t-139.5 -112.5t-195.5 -38z" />
    <glyph glyph-name="t" unicode="t" horiz-adv-x="675" 
d="M393 -12q-111 0 -168.5 56.5t-44.5 172.5l74 707h-143l14 141h143l29 272h172l-29 -272h211l-14 -141h-211l-70 -674q-10 -107 101 -107q42 0 98 19l-14 -137q-52 -37 -148 -37z" />
    <glyph glyph-name="u" unicode="u" 
d="M1120 1065l-110 -1065h-172l16 170q-55 -83 -148.5 -136.5t-220.5 -53.5q-87 0 -158.5 27.5t-125 81.5t-78 143.5t-12.5 205.5l65 627h172l-61 -602q-18 -156 57 -241t209 -85q135 0 225 84.5t107 241.5l63 602h172z" />
    <glyph glyph-name="v" unicode="v" horiz-adv-x="1163" 
d="M446 0l-342 1065h179l266 -850l438 850h182l-563 -1065h-160z" />
    <glyph glyph-name="w" unicode="w" horiz-adv-x="1888" 
d="M1223 0l-248 854l-420 -854h-158l-293 1065h175l219 -850l415 850h166l242 -850l395 850h178l-514 -1065h-157z" />
    <glyph glyph-name="x" unicode="x" horiz-adv-x="1099" 
d="M-16 0l471 545l-330 520h194l246 -393l328 393h203l-443 -520l353 -545h-199l-264 416l-353 -416h-206z" />
    <glyph glyph-name="y" unicode="y" horiz-adv-x="1163" 
d="M223 -389l217 407l-336 1047h179l266 -850l438 850h182l-770 -1454h-176z" />
    <glyph glyph-name="z" unicode="z" horiz-adv-x="1056" 
d="M-6 0l762 911h-606l16 154h897l-762 -911h643l-16 -154h-934z" />
    <glyph glyph-name="braceleft" unicode="{" horiz-adv-x="595" 
d="M229 -266q-75 0 -125.5 47.5t-40.5 138.5l62 561l-78 146l105 149l61 570q10 91 67 135.5t130 44.5h143l-16 -154h-68q-33 0 -57 -20t-27 -52l-53 -534l-111 -139l78 -135l-55 -539q-6 -66 61 -66h76l-16 -153h-136z" />
    <glyph glyph-name="bar" unicode="|" horiz-adv-x="456" 
d="M55 -389l213 2027h154l-213 -2027h-154z" />
    <glyph glyph-name="braceright" unicode="}" horiz-adv-x="595" 
d="M-47 -266l16 153h68q33 0 56 20t26 52l55 533l111 135l-78 139l55 541q6 65 -61 65h-76l16 154h135q74 0 124 -48t40 -139l-61 -563l80 -149l-107 -146l-61 -567q-10 -91 -65.5 -135.5t-129.5 -44.5h-143z" />
    <glyph glyph-name="asciitilde" unicode="~" horiz-adv-x="874" 
d="M582 463q-41 0 -74 13t-54.5 31.5t-40.5 37.5t-42.5 32t-51.5 13q-38 0 -63.5 -22.5t-30.5 -59.5h-135q10 100 68 156.5t147 56.5q41 0 74 -13t54 -31.5t40 -37.5t42.5 -32t51.5 -13q38 0 64 22.5t31 59.5h135q-10 -101 -68 -157t-147 -56z" />
    <glyph glyph-name="exclamdown" unicode="&#xa1;" horiz-adv-x="450" 
d="M328 659l-111 -1048h-178l113 1048h176zM168 981q0 44 30 74t74 30t74.5 -30t30.5 -74t-30 -73t-75 -29q-44 0 -74 29t-30 73z" />
    <glyph glyph-name="cent" unicode="&#xa2;" horiz-adv-x="1148" 
d="M496 -82l26 252q-91 11 -169 48.5t-138 98t-94.5 149.5t-34.5 196q0 120 43 228.5t117 188.5t176.5 131t216.5 60l16 164h97l-17 -164q132 -9 237 -76.5t156 -183.5l-139 -78q-37 78 -109 125t-163 55l-82 -788q93 6 173 53.5t136 128.5l123 -78q-79 -122 -195 -189
t-254 -73l-26 -248h-96zM260 684q0 -147 78.5 -240t200.5 -114l82 780q-149 -22 -255 -136.5t-106 -289.5z" />
    <glyph glyph-name="sterling" unicode="&#xa3;" horiz-adv-x="1146" 
d="M39 147q256 173 256 379q0 26 -8 80h-195l14 133h142q-2 6 -11.5 33.5t-12.5 36t-11 33.5t-11 37.5t-8.5 35t-7.5 38.5t-4 37t-2 40q0 196 142 320.5t358 124.5q210 0 327 -119.5t93 -325.5l-4 -35h-166l4 33q15 129 -61 211t-214 82q-137 0 -224 -82t-87 -215
q0 -20 2 -40t6.5 -42.5t8.5 -38.5t12 -42.5t12 -39t15 -42.5t14 -40h354l-14 -133h-305q6 -40 6 -82q0 -115 -55.5 -211t-151.5 -166h737l-14 -147h-950z" />
    <glyph glyph-name="currency" unicode="&#xa4;" horiz-adv-x="1099" 
d="M547 516q-151 0 -260 86l-97 -88l-110 121l102 92q-47 86 -47 197q0 161 101 303l-84 94l135 119l80 -90q127 84 276 84q151 0 260 -86l101 92l110 -119l-106 -96q49 -93 49 -201q0 -162 -99 -295l84 -94l-135 -121l-80 88q-133 -86 -280 -86zM291 942q0 -113 75 -190.5
t199 -77.5q142 0 239 101t97 233q0 112 -75.5 190t-200.5 78q-141 0 -237.5 -101t-96.5 -233z" />
    <glyph glyph-name="yen" unicode="&#xa5;" horiz-adv-x="1331" 
d="M295 502l12 102h279l2 14l-432 836h194l338 -674l475 674h205l-604 -836l-2 -14h299l-10 -102h-299l-11 -80h301l-12 -103h-299l-37 -319h-176l37 319h-279l11 103h278l10 80h-280z" />
    <glyph glyph-name="brokenbar" unicode="&#xa6;" horiz-adv-x="458" 
d="M55 -389l62 573h153l-61 -573h-154zM209 1065l59 573h154l-60 -573h-153z" />
    <glyph glyph-name="section" unicode="&#xa7;" horiz-adv-x="1110" 
d="M420 -389q-163 0 -278 57t-150 119l39 279h159l-26 -197q22 -34 93 -67t169 -33q152 0 256 76t104 202q0 47 -16 83t-50.5 63t-69.5 44.5t-91 38.5l-135 52q-146 57 -221.5 141t-75.5 211q0 203 176 319q-96 93 -96 234q0 181 139.5 293t349.5 112q148 0 264 -55
t144 -110l-41 -279h-160l27 195q-17 31 -82.5 61.5t-157.5 30.5q-136 0 -224.5 -67.5t-88.5 -178.5q0 -71 44.5 -122t141.5 -89l142 -53q63 -24 110 -47.5t92 -57t73.5 -71t46 -89t17.5 -112.5q0 -203 -167 -322q90 -93 90 -231q0 -133 -75 -232t-198 -148.5t-274 -49.5z
M299 682q0 -71 44.5 -122t141.5 -89l142 -53q30 -10 98 -41q65 35 103 92.5t38 130.5q0 47 -16.5 83t-51 63t-69.5 44.5t-92 38.5l-133 52l-43 18q-75 -28 -118.5 -85t-43.5 -132z" />
    <glyph glyph-name="dieresis" unicode="&#xa8;" horiz-adv-x="643" 
d="M537 1292l18 174h166l-21 -174h-163zM100 1292l19 174h164l-19 -174h-164z" />
    <glyph glyph-name="copyright" unicode="&#xa9;" horiz-adv-x="1654" 
d="M774 -14q-180 0 -328.5 79.5t-238.5 233t-90 352.5q0 168 65.5 321.5t175 263t258 174.5t308.5 65q134 0 253.5 -46.5t208.5 -130.5t141 -209t52 -274q0 -169 -65 -323.5t-174 -264.5t-257.5 -175.5t-308.5 -65.5zM274 666q0 -160 70 -281t186.5 -182.5t260.5 -61.5
q174 0 318.5 86t228 237t83.5 333q0 160 -70 280.5t-185 181t-257 60.5q-173 0 -319 -86.5t-231 -237t-85 -329.5zM438 686q0 135 63.5 246t170.5 173t233 62q88 0 160 -32t115 -88l-99 -105q-70 76 -182 76q-125 0 -215 -91t-90 -225q0 -118 70.5 -189t177.5 -71
q114 0 196 76l80 -104q-124 -121 -301 -121q-166 0 -272.5 107t-106.5 286z" />
    <glyph glyph-name="ordfeminine" unicode="&#xaa;" horiz-adv-x="815" 
d="M334 778q-97 0 -157 50t-60 141q0 187 272 213l195 18q6 68 -30 103.5t-105 35.5q-113 0 -209 -79l-60 81q48 48 121 79.5t162 31.5q275 0 248 -313l-21 -185q-6 -64 0.5 -101t28.5 -73h-125q-29 47 -27 101q-96 -103 -233 -103zM246 977q0 -41 29.5 -64.5t80.5 -23.5
q74 0 132 42.5t75 84.5l10 84l-188 -21q-139 -14 -139 -102z" />
    <glyph glyph-name="guillemotleft" unicode="&#xab;" horiz-adv-x="819" 
d="M426 936l53 -62l-268 -278l209 -279l-66 -63l-268 299l8 84zM412 553l8 84l332 299l53 -62l-268 -278l208 -279l-65 -63z" />
    <glyph glyph-name="logicalnot" unicode="&#xac;" horiz-adv-x="993" 
d="M909 618l-37 -356h-161l22 213h-647l14 143h809z" />
    <glyph glyph-name="uni00AD" unicode="&#xad;" horiz-adv-x="821" 
d="M39 500l14 143h635l-14 -143h-635z" />
    <glyph glyph-name="registered" unicode="&#xae;" horiz-adv-x="1654" 
d="M774 -14q-180 0 -328.5 79.5t-238.5 233t-90 352.5q0 168 65.5 321.5t175 263t258 174.5t308.5 65q134 0 253.5 -46.5t208.5 -130.5t141 -209t52 -274q0 -169 -65 -323.5t-174 -264.5t-257.5 -175.5t-308.5 -65.5zM274 666q0 -160 70 -281t186.5 -182.5t260.5 -61.5
q174 0 318.5 86t228 237t83.5 333q0 160 -70 280.5t-185 181t-257 60.5q-173 0 -319 -86.5t-231 -237t-85 -329.5zM547 354l80 746h280q116 0 178 -61t62 -160q0 -91 -53.5 -155t-145.5 -93l174 -277h-131l-162 273h-133l-28 -273h-121zM705 727h149q80 0 126 38t46 105
q0 59 -37.5 90t-105.5 31h-150z" />
    <glyph glyph-name="macron" unicode="&#xaf;" horiz-adv-x="796" 
d="M100 1292l15 138h753l-14 -138h-754z" />
    <glyph glyph-name="degree" unicode="&#xb0;" horiz-adv-x="688" 
d="M399 971q-101 0 -169 66.5t-68 166.5q0 110 81 190.5t191 80.5q101 0 169.5 -67t68.5 -167q0 -110 -81 -190t-192 -80zM283 1210q0 -52 35 -86t88 -34q59 0 102 42t43 103q0 52 -35 86.5t-88 34.5q-59 0 -102 -42.5t-43 -103.5z" />
    <glyph glyph-name="plusminus" unicode="&#xb1;" horiz-adv-x="870" 
d="M350 303l31 283h-283l13 119h282l31 282h119l-31 -282h283l-13 -119h-282l-31 -283h-119zM37 2l14 143h686l-14 -143h-686z" />
    <glyph glyph-name="uni00B2" unicode="&#xb2;" horiz-adv-x="532" 
d="M127 901l6 66l152 143q94 88 110 108q29 36 33 74q3 36 -21.5 61t-60.5 25q-40 0 -73 -27.5t-37 -76.5l-5 -27h-75l4 31q7 72 61 118t123 46q71 0 118.5 -48t41.5 -110q-6 -53 -39.5 -96t-120.5 -123l-108 -98h241l-6 -66h-344z" />
    <glyph glyph-name="uni00B3" unicode="&#xb3;" horiz-adv-x="552" 
d="M317 893q-84 0 -132.5 56t-37.5 132l78 -4q-6 -49 18 -84t72 -35q47 0 85 29t42 74q6 54 -29.5 74t-109.5 20l2 59q66 0 101 25t38 66q3 31 -18.5 51t-56.5 20q-45 0 -76 -30t-37 -84l-76 4q7 77 60 125.5t127 48.5q67 0 113 -43.5t40 -100.5q-7 -64 -74 -106
q35 -15 56.5 -50.5t15.5 -86.5q-6 -68 -66 -114t-135 -46z" />
    <glyph glyph-name="acute" unicode="&#xb4;" horiz-adv-x="327" 
d="M90 1198l166 318h154l-170 -318h-150z" />
    <glyph glyph-name="uni00B5" unicode="&#xb5;" horiz-adv-x="1204" 
d="M25 -389l153 1454h172l-63 -616q-18 -158 45 -235t184 -77q69 0 135 29.5t115 75.5t83.5 97.5t49.5 100.5l68 625h172l-113 -1065h-172l27 242q-12 -32 -44.5 -72.5t-82 -83.5t-123.5 -72.5t-154 -29.5q-139 0 -227 79l-53 -452h-172z" />
    <glyph glyph-name="paragraph" unicode="&#xb6;" horiz-adv-x="1523" 
d="M848 0l55 535h-289q-221 0 -344 114t-123 305q0 218 152.5 359t405.5 141h473l-154 -1454h-176zM324 963q0 -133 81 -202t226 -69h289l63 598h-291q-168 0 -268 -88t-100 -239zM1169 0l154 1454h176l-153 -1454h-177z" />
    <glyph glyph-name="periodcentered" unicode="&#xb7;" horiz-adv-x="401" 
d="M203 453q-44 0 -74.5 30t-30.5 74t30 73t75 29q44 0 74 -29t30 -73t-30 -74t-74 -30z" />
    <glyph glyph-name="cedilla" unicode="&#xb8;" horiz-adv-x="376" 
d="M-61 -362q85 -3 140.5 21.5t55.5 84.5q0 102 -160 80l-24 51l92 125h137l-69 -86q73 0 118 -42t45 -112q0 -73 -51.5 -125t-130.5 -70.5t-162 -0.5z" />
    <glyph glyph-name="uni00B9" unicode="&#xb9;" horiz-adv-x="421" 
d="M227 901l49 453l-36 -23l-33 64l76 41h75l-55 -535h-76z" />
    <glyph glyph-name="ordmasculine" unicode="&#xba;" horiz-adv-x="782" 
d="M424 782q-115 0 -205 82t-90 221q0 82 33 152t85.5 114t113.5 68.5t120 24.5q73 0 138.5 -33.5t110 -104t44.5 -163.5q0 -83 -33 -153.5t-84.5 -114.5t-112.5 -68.5t-120 -24.5zM254 1090q0 -87 52.5 -136t123.5 -49q84 0 150.5 63.5t66.5 166.5q0 87 -52 135.5
t-122 48.5q-85 0 -152 -62.5t-67 -166.5z" />
    <glyph glyph-name="guillemotright" unicode="&#xbb;" horiz-adv-x="819" 
d="M408 254l-54 61l269 279l-209 278l65 64l269 -299l-9 -84zM29 315l268 279l-209 278l66 64l268 -299l-8 -84l-332 -299z" />
    <glyph glyph-name="onequarter" unicode="&#xbc;" horiz-adv-x="1167" 
d="M-59 0l1044 1434h86l-1032 -1434h-98zM94 1395l76 41h76l-56 -535h-75l47 453l-35 -23zM618 156l312 379h76l-33 -316h55l-8 -63h-55l-17 -156h-76l17 156h-271zM764 219h133l21 195z" />
    <glyph glyph-name="onehalf" unicode="&#xbd;" horiz-adv-x="1116" 
d="M-59 0l1044 1434h86l-1032 -1434h-98zM94 1395l76 41h76l-56 -535h-75l47 453l-35 -23zM608 0l8 66l152 143q93 87 111 111q26 33 30 71q4 36 -20 61t-60 25q-40 0 -73 -27.5t-39 -76.5l-2 -27h-76l4 31q7 72 61 118t123 46q71 0 118.5 -48t41.5 -110q-6 -53 -39.5 -96
t-120.5 -123l-108 -98h242l-9 -66h-344z" />
    <glyph glyph-name="threequarters" unicode="&#xbe;" horiz-adv-x="1202" 
d="M-2 0l1042 1434h86l-1030 -1434h-98zM53 1081l78 -4q-5 -50 19.5 -84.5t72.5 -34.5q47 0 84 29t41 74q6 54 -29.5 74t-109.5 20l2 59q66 0 101 25t40 66q3 30 -19.5 50.5t-58.5 20.5q-45 0 -75.5 -30t-36.5 -84l-74 4q6 77 59 125.5t127 48.5q67 0 112.5 -43.5
t39.5 -100.5q-7 -64 -72 -106q35 -15 55.5 -50.5t16.5 -86.5q-7 -68 -67.5 -114t-135.5 -46q-84 0 -132.5 56t-37.5 132zM655 156l310 379h75l-32 -316h55l-6 -63h-56l-16 -156h-76l17 156h-271zM799 219h133l20 195z" />
    <glyph glyph-name="questiondown" unicode="&#xbf;" horiz-adv-x="1030" 
d="M594 580q-5 -62 -29 -116t-58.5 -93t-75.5 -74.5t-82 -68.5t-76 -67.5t-59.5 -78.5t-29.5 -94q-12 -104 54.5 -174t195.5 -70q135 0 213 81.5t94 221.5h172q-13 -217 -145 -337t-342 -120q-203 0 -319 110.5t-99 287.5q7 63 31.5 116.5t59.5 92t75.5 73t81 68t75 68
t58.5 81t29 99.5l8 78h176zM424 981q0 44 30 74t74 30t74.5 -30t30.5 -74t-30 -73t-75 -29q-44 0 -74 29t-30 73z" />
    <glyph glyph-name="Agrave" unicode="&#xc0;" horiz-adv-x="1409" 
d="M889 1454l416 -1454h-191l-92 336h-676l-162 -336h-190l717 1454h178zM426 500h551l-199 727zM543 1884h153l166 -317h-149z" />
    <glyph glyph-name="Aacute" unicode="&#xc1;" horiz-adv-x="1409" 
d="M889 1454l416 -1454h-191l-92 336h-676l-162 -336h-190l717 1454h178zM426 500h551l-199 727zM729 1567l166 317h154l-170 -317h-150z" />
    <glyph glyph-name="Acircumflex" unicode="&#xc2;" horiz-adv-x="1409" 
d="M889 1454l416 -1454h-191l-92 336h-676l-162 -336h-190l717 1454h178zM426 500h551l-199 727zM545 1634l243 250h117l193 -250l-90 -82l-166 217l-209 -217z" />
    <glyph glyph-name="Atilde" unicode="&#xc3;" horiz-adv-x="1409" 
d="M889 1454l416 -1454h-191l-92 336h-676l-162 -336h-190l717 1454h178zM426 500h551l-199 727zM512 1626q10 101 62.5 154t125.5 53q35 0 64.5 -12.5t50 -30.5t39 -36.5t40 -31t44.5 -12.5q32 0 54.5 23.5t25.5 60.5h127q-10 -101 -62 -154t-125 -53q-35 0 -64 12.5
t-49.5 30.5t-39 35.5t-40 30t-44.5 12.5q-32 0 -54.5 -22.5t-27.5 -59.5h-127z" />
    <glyph glyph-name="Adieresis" unicode="&#xc4;" horiz-adv-x="1409" 
d="M889 1454l416 -1454h-191l-92 336h-676l-162 -336h-190l717 1454h178zM426 500h551l-199 727zM512 1661l18 174h164l-18 -174h-164zM948 1661l19 174h166l-21 -174h-164z" />
    <glyph glyph-name="Aring" unicode="&#xc5;" horiz-adv-x="1409" 
d="M889 1454l416 -1454h-191l-92 336h-676l-162 -336h-190l717 1454h178zM426 500h551l-199 727zM643 1759q0 82 61 142.5t144 60.5q74 0 125 -51.5t51 -124.5q0 -81 -61.5 -141t-143.5 -60q-76 0 -126 50.5t-50 123.5zM762 1767q0 -29 18.5 -47t46.5 -18q34 0 57 22t23 56
q0 29 -19.5 48t-47.5 19q-32 0 -55 -23t-23 -57z" />
    <glyph glyph-name="AE" unicode="&#xc6;" horiz-adv-x="1931" 
d="M987 0l39 377h-532l-291 -377h-209l1132 1454h793l-16 -164h-605l-51 -479h514l-16 -162h-514l-51 -485h622l-16 -164h-799zM612 530h430l68 646z" />
    <glyph glyph-name="Ccedilla" unicode="&#xc7;" horiz-adv-x="1361" 
d="M795 -20q-43 0 -66 2l-55 -68q73 0 118.5 -42t45.5 -112q0 -73 -51.5 -125t-130.5 -70.5t-162 -0.5l8 74q85 -3 140.5 21.5t55.5 84.5q0 102 -159 80l-25 51l92 125h10q-224 54 -361.5 228t-137.5 425q0 169 66.5 321.5t177.5 262t262 174t315 64.5q73 0 142.5 -13
t143 -43.5t139.5 -89t112 -139.5l-138 -94q-69 113 -178 161t-231 48q-129 0 -245.5 -49.5t-201 -133.5t-134.5 -202t-50 -250q0 -236 147.5 -378t372.5 -142q274 0 445 208l116 -94q-63 -81 -139 -139.5t-154 -88.5t-148 -43t-142 -13z" />
    <glyph glyph-name="Egrave" unicode="&#xc8;" horiz-adv-x="1009" 
d="M66 0l151 1454h780l-16 -164h-604l-51 -479h514l-17 -162h-514l-51 -485h623l-17 -164h-798zM360 1905h154l166 -318h-150z" />
    <glyph glyph-name="Eacute" unicode="&#xc9;" horiz-adv-x="1009" 
d="M66 0l151 1454h780l-16 -164h-604l-51 -479h514l-17 -162h-514l-51 -485h623l-17 -164h-798zM547 1587l166 318h153l-170 -318h-149z" />
    <glyph glyph-name="Ecircumflex" unicode="&#xca;" horiz-adv-x="1009" 
d="M66 0l151 1454h780l-16 -164h-604l-51 -479h514l-17 -162h-514l-51 -485h623l-17 -164h-798zM362 1655l244 250h117l192 -250l-90 -82l-166 217l-208 -217z" />
    <glyph glyph-name="Edieresis" unicode="&#xcb;" horiz-adv-x="1009" 
d="M66 0l151 1454h780l-16 -164h-604l-51 -479h514l-17 -162h-514l-51 -485h623l-17 -164h-798zM330 1681l18 174h164l-18 -174h-164zM766 1681l18 174h166l-20 -174h-164z" />
    <glyph glyph-name="Igrave" unicode="&#xcc;" horiz-adv-x="419" 
d="M66 0l153 1454h176l-153 -1454h-176zM51 1905h154l166 -318h-150z" />
    <glyph glyph-name="Iacute" unicode="&#xcd;" horiz-adv-x="419" 
d="M66 0l153 1454h176l-153 -1454h-176zM238 1587l165 318h154l-170 -318h-149z" />
    <glyph glyph-name="Icircumflex" unicode="&#xce;" horiz-adv-x="419" 
d="M66 0l153 1454h176l-153 -1454h-176zM53 1655l244 250h117l192 -250l-90 -82l-166 217l-209 -217z" />
    <glyph glyph-name="Idieresis" unicode="&#xcf;" horiz-adv-x="419" 
d="M66 0l153 1454h176l-153 -1454h-176zM20 1681l19 174h164l-19 -174h-164zM457 1681l18 174h166l-20 -174h-164z" />
    <glyph glyph-name="Eth" unicode="&#xd0;" horiz-adv-x="1406" 
d="M117 0l67 639h-118l14 143h119l69 652h426q154 0 284 -56.5t215.5 -153.5t127 -230.5t25.5 -282.5q-16 -147 -84.5 -278t-173 -226.5t-245 -151t-294.5 -55.5h-432zM309 168h250q165 0 299.5 75t214 201t96.5 281q16 150 -36 272.5t-169.5 195.5t-281.5 73h-256l-51 -484
h340l-15 -143h-340z" />
    <glyph glyph-name="Ntilde" unicode="&#xd1;" horiz-adv-x="1421" 
d="M66 0l151 1454h180l690 -1159h13l121 1159h176l-152 -1454h-180l-690 1159h-13l-120 -1159h-176zM522 1647q10 101 63 153.5t126 52.5q35 0 64 -12.5t49.5 -30.5t39 -36t40 -30.5t44.5 -12.5q32 0 54.5 23.5t25.5 60.5h127q-10 -101 -61.5 -154t-124.5 -53q-42 0 -78 19
t-56.5 41.5t-48 41.5t-55.5 19q-32 0 -54.5 -22.5t-27.5 -59.5h-127z" />
    <glyph glyph-name="Ograve" unicode="&#xd2;" horiz-adv-x="1681" 
d="M793 -20q-140 0 -263.5 47.5t-215 133t-144.5 212.5t-53 278q0 169 65.5 322t175.5 262.5t260 174.5t312 65q188 0 341 -81t244 -235.5t91 -355.5q0 -169 -65.5 -322t-175.5 -262.5t-260 -174t-312 -64.5zM297 666q0 -155 69 -274t184.5 -180.5t256.5 -61.5q167 0 309 85
t225.5 232t83.5 321q0 155 -68.5 274t-184 181t-257.5 62q-124 0 -238 -50.5t-197.5 -136t-133 -204t-49.5 -248.5zM680 1905h154l165 -318h-149z" />
    <glyph glyph-name="Oacute" unicode="&#xd3;" horiz-adv-x="1681" 
d="M793 -20q-140 0 -263.5 47.5t-215 133t-144.5 212.5t-53 278q0 169 65.5 322t175.5 262.5t260 174.5t312 65q188 0 341 -81t244 -235.5t91 -355.5q0 -169 -65.5 -322t-175.5 -262.5t-260 -174t-312 -64.5zM297 666q0 -155 69 -274t184.5 -180.5t256.5 -61.5q167 0 309 85
t225.5 232t83.5 321q0 155 -68.5 274t-184 181t-257.5 62q-124 0 -238 -50.5t-197.5 -136t-133 -204t-49.5 -248.5zM866 1587l166 318h154l-170 -318h-150z" />
    <glyph glyph-name="Ocircumflex" unicode="&#xd4;" horiz-adv-x="1681" 
d="M793 -20q-140 0 -263.5 47.5t-215 133t-144.5 212.5t-53 278q0 169 65.5 322t175.5 262.5t260 174.5t312 65q188 0 341 -81t244 -235.5t91 -355.5q0 -169 -65.5 -322t-175.5 -262.5t-260 -174t-312 -64.5zM297 666q0 -155 69 -274t184.5 -180.5t256.5 -61.5q167 0 309 85
t225.5 232t83.5 321q0 155 -68.5 274t-184 181t-257.5 62q-124 0 -238 -50.5t-197.5 -136t-133 -204t-49.5 -248.5zM682 1655l244 250h116l193 -250l-90 -82l-166 217l-209 -217z" />
    <glyph glyph-name="Otilde" unicode="&#xd5;" horiz-adv-x="1681" 
d="M793 -20q-140 0 -263.5 47.5t-215 133t-144.5 212.5t-53 278q0 169 65.5 322t175.5 262.5t260 174.5t312 65q188 0 341 -81t244 -235.5t91 -355.5q0 -169 -65.5 -322t-175.5 -262.5t-260 -174t-312 -64.5zM297 666q0 -155 69 -274t184.5 -180.5t256.5 -61.5q167 0 309 85
t225.5 232t83.5 321q0 155 -68.5 274t-184 181t-257.5 62q-124 0 -238 -50.5t-197.5 -136t-133 -204t-49.5 -248.5zM651 1647q10 101 63 153.5t126 52.5q35 0 64 -12.5t49.5 -30.5t39 -36t40 -30.5t44.5 -12.5q32 0 54.5 23.5t25.5 60.5h127q-10 -101 -61.5 -154t-124.5 -53
q-42 0 -78 19t-56.5 41.5t-48 41.5t-55.5 19q-32 0 -55 -22.5t-27 -59.5h-127z" />
    <glyph glyph-name="Odieresis" unicode="&#xd6;" horiz-adv-x="1681" 
d="M793 -20q-140 0 -263.5 47.5t-215 133t-144.5 212.5t-53 278q0 169 65.5 322t175.5 262.5t260 174.5t312 65q188 0 341 -81t244 -235.5t91 -355.5q0 -169 -65.5 -322t-175.5 -262.5t-260 -174t-312 -64.5zM297 666q0 -155 69 -274t184.5 -180.5t256.5 -61.5q167 0 309 85
t225.5 232t83.5 321q0 155 -68.5 274t-184 181t-257.5 62q-124 0 -238 -50.5t-197.5 -136t-133 -204t-49.5 -248.5zM649 1681l19 174h163l-18 -174h-164zM1085 1681l19 174h166l-21 -174h-164z" />
    <glyph glyph-name="multiply" unicode="&#xd7;" horiz-adv-x="796" 
d="M164 260l-90 102l227 203l-184 205l112 100l183 -204l227 204l90 -102l-225 -203l182 -205l-111 -100l-184 205z" />
    <glyph glyph-name="Oslash" unicode="&#xd8;" horiz-adv-x="1681" 
d="M266 -102l119 204q-126 89 -197 229.5t-71 319.5q0 169 65.5 322t175.5 262.5t260 174.5t312 65q126 0 233 -37l51 88h197l-94 -162q135 -88 212 -232t77 -329q0 -169 -65.5 -322t-175.5 -262.5t-260 -174t-312 -64.5q-143 0 -256 45l-74 -127h-197zM297 666
q0 -129 47.5 -233t132.5 -173l596 1022q-81 23 -158 23q-124 0 -238 -50.5t-197.5 -136t-133 -204t-49.5 -248.5zM627 178q86 -28 180 -28q167 0 309 85t225.5 232t83.5 321q0 136 -52.5 244t-145.5 176z" />
    <glyph glyph-name="Ugrave" unicode="&#xd9;" horiz-adv-x="1286" 
d="M590 -31q-111 0 -203 37.5t-156 107.5t-94 175.5t-16 234.5l98 930h176l-98 -936q-11 -96 9.5 -170.5t65 -119.5t104.5 -68t132 -23q149 0 253.5 97t125.5 290l98 930h177l-99 -938q-18 -170 -100.5 -296t-204.5 -188.5t-268 -62.5zM479 1905h154l166 -318h-150z" />
    <glyph glyph-name="Uacute" unicode="&#xda;" horiz-adv-x="1286" 
d="M590 -31q-111 0 -203 37.5t-156 107.5t-94 175.5t-16 234.5l98 930h176l-98 -936q-11 -96 9.5 -170.5t65 -119.5t104.5 -68t132 -23q149 0 253.5 97t125.5 290l98 930h177l-99 -938q-18 -170 -100.5 -296t-204.5 -188.5t-268 -62.5zM668 1587l166 318h153l-170 -318h-149
z" />
    <glyph glyph-name="Ucircumflex" unicode="&#xdb;" horiz-adv-x="1286" 
d="M590 -31q-111 0 -203 37.5t-156 107.5t-94 175.5t-16 234.5l98 930h176l-98 -936q-11 -96 9.5 -170.5t65 -119.5t104.5 -68t132 -23q149 0 253.5 97t125.5 290l98 930h177l-99 -938q-18 -170 -100.5 -296t-204.5 -188.5t-268 -62.5zM481 1655l244 250h117l192 -250
l-90 -82l-166 217l-209 -217z" />
    <glyph glyph-name="Udieresis" unicode="&#xdc;" horiz-adv-x="1286" 
d="M590 -31q-111 0 -203 37.5t-156 107.5t-94 175.5t-16 234.5l98 930h176l-98 -936q-11 -96 9.5 -170.5t65 -119.5t104.5 -68t132 -23q149 0 253.5 97t125.5 290l98 930h177l-99 -938q-18 -170 -100.5 -296t-204.5 -188.5t-268 -62.5zM451 1681l18 174h164l-19 -174h-163z
M887 1681l18 174h166l-20 -174h-164z" />
    <glyph glyph-name="Yacute" unicode="&#xdd;" horiz-adv-x="1331" 
d="M518 0l70 618l-432 836h194l338 -674l475 674h205l-604 -836l-70 -618h-176zM688 1587l166 318h154l-170 -318h-150z" />
    <glyph glyph-name="Thorn" unicode="&#xde;" horiz-adv-x="1253" 
d="M66 0l153 1454h176l-30 -297h376q213 0 332 -110.5t119 -301.5q0 -218 -149 -339t-388 -121h-383l-30 -285h-176zM289 438h332q188 0 292.5 78t104.5 225q0 133 -89 198t-241 65h-340z" />
    <glyph glyph-name="germandbls" unicode="&#xdf;" horiz-adv-x="1232" 
d="M174 1026q21 200 153 304t353 104q203 0 324.5 -87.5t121.5 -250.5q0 -122 -69.5 -202.5t-188.5 -109.5q133 -28 203 -116t70 -228q0 -213 -152.5 -326.5t-421.5 -113.5h-182l16 154h172q190 0 292 73t102 217q0 261 -363 261h-143l16 143h137q160 0 249 54.5t89 168.5
q0 106 -76 157.5t-208 51.5q-295 0 -322 -260l-108 -1020h-172z" />
    <glyph glyph-name="agrave" unicode="&#xe0;" horiz-adv-x="1292" 
d="M543 -20q-94 0 -178.5 32t-151 91.5t-106 155.5t-39.5 214q0 126 44.5 239.5t120 195t181 129.5t223.5 48q146 0 251 -65t136 -156h10l21 201h172l-111 -1065h-172l21 201h-9q-51 -92 -162 -156.5t-251 -64.5zM242 487q0 -87 28 -155.5t76.5 -110t109.5 -63t130 -21.5
q174 0 298 125t124 316q0 87 -28 155.5t-76.5 110t-109.5 63t-130 21.5q-174 0 -298 -125t-124 -316zM446 1516h154l166 -318h-150z" />
    <glyph glyph-name="aacute" unicode="&#xe1;" horiz-adv-x="1292" 
d="M543 -20q-94 0 -178.5 32t-151 91.5t-106 155.5t-39.5 214q0 126 44.5 239.5t120 195t181 129.5t223.5 48q146 0 251 -65t136 -156h10l21 201h172l-111 -1065h-172l21 201h-9q-51 -92 -162 -156.5t-251 -64.5zM242 487q0 -87 28 -155.5t76.5 -110t109.5 -63t130 -21.5
q174 0 298 125t124 316q0 87 -28 155.5t-76.5 110t-109.5 63t-130 21.5q-174 0 -298 -125t-124 -316zM633 1198l166 318h153l-170 -318h-149z" />
    <glyph glyph-name="acircumflex" unicode="&#xe2;" horiz-adv-x="1292" 
d="M543 -20q-94 0 -178.5 32t-151 91.5t-106 155.5t-39.5 214q0 126 44.5 239.5t120 195t181 129.5t223.5 48q146 0 251 -65t136 -156h10l21 201h172l-111 -1065h-172l21 201h-9q-51 -92 -162 -156.5t-251 -64.5zM242 487q0 -87 28 -155.5t76.5 -110t109.5 -63t130 -21.5
q174 0 298 125t124 316q0 87 -28 155.5t-76.5 110t-109.5 63t-130 21.5q-174 0 -298 -125t-124 -316zM449 1266l243 250h117l192 -250l-90 -82l-166 217l-208 -217z" />
    <glyph glyph-name="atilde" unicode="&#xe3;" horiz-adv-x="1292" 
d="M543 -20q-94 0 -178.5 32t-151 91.5t-106 155.5t-39.5 214q0 126 44.5 239.5t120 195t181 129.5t223.5 48q146 0 251 -65t136 -156h10l21 201h172l-111 -1065h-172l21 201h-9q-51 -92 -162 -156.5t-251 -64.5zM242 487q0 -87 28 -155.5t76.5 -110t109.5 -63t130 -21.5
q174 0 298 125t124 316q0 87 -28 155.5t-76.5 110t-109.5 63t-130 21.5q-174 0 -298 -125t-124 -316zM416 1257q10 101 62.5 154t125.5 53q35 0 64.5 -12.5t50 -31t39 -36.5t40 -30.5t44.5 -12.5q32 0 54.5 23.5t25.5 60.5h127q-10 -101 -62 -153.5t-125 -52.5
q-35 0 -64 12.5t-49.5 30t-39 35t-40 30t-44.5 12.5q-32 0 -54.5 -22.5t-27.5 -59.5h-127z" />
    <glyph glyph-name="adieresis" unicode="&#xe4;" horiz-adv-x="1292" 
d="M543 -20q-94 0 -178.5 32t-151 91.5t-106 155.5t-39.5 214q0 126 44.5 239.5t120 195t181 129.5t223.5 48q146 0 251 -65t136 -156h10l21 201h172l-111 -1065h-172l21 201h-9q-51 -92 -162 -156.5t-251 -64.5zM242 487q0 -87 28 -155.5t76.5 -110t109.5 -63t130 -21.5
q174 0 298 125t124 316q0 87 -28 155.5t-76.5 110t-109.5 63t-130 21.5q-174 0 -298 -125t-124 -316zM416 1292l18 174h164l-18 -174h-164zM852 1292l18 174h166l-20 -174h-164z" />
    <glyph glyph-name="aring" unicode="&#xe5;" horiz-adv-x="1292" 
d="M543 -20q-94 0 -178.5 32t-151 91.5t-106 155.5t-39.5 214q0 126 44.5 239.5t120 195t181 129.5t223.5 48q146 0 251 -65t136 -156h10l21 201h172l-111 -1065h-172l21 201h-9q-51 -92 -162 -156.5t-251 -64.5zM242 487q0 -87 28 -155.5t76.5 -110t109.5 -63t130 -21.5
q174 0 298 125t124 316q0 87 -28 155.5t-76.5 110t-109.5 63t-130 21.5q-174 0 -298 -125t-124 -316zM547 1391q0 82 61 142t144 60q74 0 125 -51.5t51 -124.5q0 -81 -61.5 -140.5t-143.5 -59.5q-76 0 -126 50.5t-50 123.5zM666 1399q0 -29 18.5 -47.5t46.5 -18.5
q34 0 57 22t23 56q0 29 -20 48.5t-48 19.5q-32 0 -54.5 -23t-22.5 -57z" />
    <glyph glyph-name="ae" unicode="&#xe6;" horiz-adv-x="2129" 
d="M543 -20q-94 0 -178.5 32t-151 91.5t-106 155.5t-39.5 214q0 126 44.5 239.5t120 195t181 129.5t223.5 48q146 0 251 -65t136 -156h10l21 201h172l-13 -125q161 145 379 145q107 0 199.5 -37t163 -113.5t95.5 -192.5t-3 -273h-877q7 -164 110 -253t261 -89q198 0 328 127
l78 -86q-80 -90 -193 -139t-242 -49q-116 0 -215.5 40t-167.5 117l-14 -137h-172l21 201h-9q-51 -92 -162 -156.5t-251 -64.5zM242 487q0 -87 28 -155.5t76.5 -110t109.5 -63t130 -21.5q174 0 298 125t124 316q0 87 -28 155.5t-76.5 110t-109.5 63t-130 21.5
q-174 0 -298 -125t-124 -316zM1184 600h725q4 107 -41 184.5t-119.5 114.5t-167.5 37q-148 0 -256 -93.5t-141 -242.5z" />
    <glyph glyph-name="ccedilla" unicode="&#xe7;" horiz-adv-x="1148" 
d="M352 -362q85 -3 141 21.5t56 84.5q0 102 -160 80l-24 51l86 117q-168 36 -275.5 162.5t-107.5 320.5q0 169 81 309.5t219 220.5t302 80q148 0 266 -68t174 -194l-139 -78q-41 86 -124 134.5t-185 48.5q-106 0 -200.5 -50t-157 -150.5t-62.5 -229.5q0 -169 101 -265
t247 -96q101 0 189 48t147 134l123 -77q-82 -126 -204.5 -193t-266.5 -69l-54 -66q73 0 118.5 -42t45.5 -112q0 -73 -51.5 -125t-130.5 -70.5t-162 -0.5z" />
    <glyph glyph-name="egrave" unicode="&#xe8;" 
d="M569 -20q-102 0 -192 32.5t-159.5 93.5t-109.5 156.5t-40 214.5q0 125 45.5 238t123 194t185.5 128.5t227 47.5q107 0 199.5 -37t163 -113.5t95.5 -192.5t-3 -273h-877q7 -164 110 -253t261 -89q198 0 328 127l78 -86q-80 -90 -193 -139t-242 -49zM240 600h725
q4 107 -41 184.5t-119.5 114.5t-167.5 37q-148 0 -256 -93.5t-141 -242.5zM389 1516h154l166 -318h-150z" />
    <glyph glyph-name="eacute" unicode="&#xe9;" 
d="M569 -20q-102 0 -192 32.5t-159.5 93.5t-109.5 156.5t-40 214.5q0 125 45.5 238t123 194t185.5 128.5t227 47.5q107 0 199.5 -37t163 -113.5t95.5 -192.5t-3 -273h-877q7 -164 110 -253t261 -89q198 0 328 127l78 -86q-80 -90 -193 -139t-242 -49zM240 600h725
q4 107 -41 184.5t-119.5 114.5t-167.5 37q-148 0 -256 -93.5t-141 -242.5zM578 1198l165 318h154l-170 -318h-149z" />
    <glyph glyph-name="ecircumflex" unicode="&#xea;" 
d="M569 -20q-102 0 -192 32.5t-159.5 93.5t-109.5 156.5t-40 214.5q0 125 45.5 238t123 194t185.5 128.5t227 47.5q107 0 199.5 -37t163 -113.5t95.5 -192.5t-3 -273h-877q7 -164 110 -253t261 -89q198 0 328 127l78 -86q-80 -90 -193 -139t-242 -49zM240 600h725
q4 107 -41 184.5t-119.5 114.5t-167.5 37q-148 0 -256 -93.5t-141 -242.5zM391 1266l244 250h117l192 -250l-90 -82l-166 217l-209 -217z" />
    <glyph glyph-name="edieresis" unicode="&#xeb;" 
d="M569 -20q-102 0 -192 32.5t-159.5 93.5t-109.5 156.5t-40 214.5q0 125 45.5 238t123 194t185.5 128.5t227 47.5q107 0 199.5 -37t163 -113.5t95.5 -192.5t-3 -273h-877q7 -164 110 -253t261 -89q198 0 328 127l78 -86q-80 -90 -193 -139t-242 -49zM240 600h725
q4 107 -41 184.5t-119.5 114.5t-167.5 37q-148 0 -256 -93.5t-141 -242.5zM360 1292l19 174h164l-19 -174h-164zM797 1292l18 174h166l-20 -174h-164z" />
    <glyph glyph-name="igrave" unicode="&#xec;" horiz-adv-x="415" 
d="M66 0l112 1065h172l-112 -1065h-172zM8 1516h154l166 -318h-150z" />
    <glyph glyph-name="iacute" unicode="&#xed;" horiz-adv-x="415" 
d="M66 0l112 1065h172l-112 -1065h-172zM195 1198l165 318h154l-170 -318h-149z" />
    <glyph glyph-name="icircumflex" unicode="&#xee;" horiz-adv-x="415" 
d="M66 0l112 1065h172l-112 -1065h-172zM10 1266l244 250h117l192 -250l-90 -82l-166 217l-209 -217z" />
    <glyph glyph-name="idieresis" unicode="&#xef;" horiz-adv-x="415" 
d="M66 0l112 1065h172l-112 -1065h-172zM-20 1292l18 174h164l-19 -174h-163zM416 1292l18 174h166l-20 -174h-164z" />
    <glyph glyph-name="eth" unicode="&#xf0;" horiz-adv-x="1187" 
d="M506 -20q-99 0 -183.5 35.5t-146 101.5t-90.5 171.5t-16 235.5q27 259 169.5 400t366.5 141q152 0 221 -72l-108 176l-207 -30l12 92l142 20l-117 183h194l101 -156l188 29l-8 -93l-129 -20q109 -172 150 -332.5t20 -353.5q-27 -251 -183.5 -389.5t-375.5 -138.5z
M244 508q-19 -184 60 -279.5t204 -95.5q149 0 255.5 99t127.5 292q40 385 -287 385q-148 0 -243 -98t-117 -303z" />
    <glyph glyph-name="ntilde" unicode="&#xf1;" 
d="M66 0l110 1065h172l-16 -170q55 84 148 137t220 53q182 0 290 -116t85 -342l-65 -627h-172l61 602q18 156 -57 241t-209 85q-135 0 -225 -84.5t-107 -241.5l-63 -602h-172zM362 1257q10 101 63 154t126 53q35 0 64 -12.5t49.5 -31t39 -36.5t40 -30.5t44.5 -12.5
q32 0 54.5 23.5t25.5 60.5h127q-10 -101 -61.5 -153.5t-124.5 -52.5q-35 0 -64.5 12.5t-50 30t-39 35t-40 30t-44.5 12.5q-32 0 -54.5 -22.5t-27.5 -59.5h-127z" />
    <glyph glyph-name="ograve" unicode="&#xf2;" horiz-adv-x="1232" 
d="M563 -20q-70 0 -139.5 19.5t-133.5 60t-113.5 98t-79 139.5t-29.5 178q0 126 48 240t129.5 194.5t191.5 128t231 47.5q88 0 174.5 -32t159.5 -91.5t118 -157t45 -216.5q0 -126 -48 -239t-129.5 -193.5t-192.5 -128t-232 -47.5zM236 479q0 -84 30.5 -151.5t80 -108.5
t109 -62.5t122.5 -21.5q57 0 115.5 18t113 55t97 89t68 126.5t25.5 160.5q0 85 -30.5 153t-80.5 109t-110 62.5t-123 21.5q-72 0 -144 -29t-134 -83.5t-100.5 -143t-38.5 -195.5zM416 1516h153l166 -318h-149z" />
    <glyph glyph-name="oacute" unicode="&#xf3;" horiz-adv-x="1232" 
d="M563 -20q-70 0 -139.5 19.5t-133.5 60t-113.5 98t-79 139.5t-29.5 178q0 126 48 240t129.5 194.5t191.5 128t231 47.5q88 0 174.5 -32t159.5 -91.5t118 -157t45 -216.5q0 -126 -48 -239t-129.5 -193.5t-192.5 -128t-232 -47.5zM236 479q0 -84 30.5 -151.5t80 -108.5
t109 -62.5t122.5 -21.5q57 0 115.5 18t113 55t97 89t68 126.5t25.5 160.5q0 85 -30.5 153t-80.5 109t-110 62.5t-123 21.5q-72 0 -144 -29t-134 -83.5t-100.5 -143t-38.5 -195.5zM602 1198l166 318h154l-170 -318h-150z" />
    <glyph glyph-name="ocircumflex" unicode="&#xf4;" horiz-adv-x="1232" 
d="M563 -20q-70 0 -139.5 19.5t-133.5 60t-113.5 98t-79 139.5t-29.5 178q0 126 48 240t129.5 194.5t191.5 128t231 47.5q88 0 174.5 -32t159.5 -91.5t118 -157t45 -216.5q0 -126 -48 -239t-129.5 -193.5t-192.5 -128t-232 -47.5zM236 479q0 -84 30.5 -151.5t80 -108.5
t109 -62.5t122.5 -21.5q57 0 115.5 18t113 55t97 89t68 126.5t25.5 160.5q0 85 -30.5 153t-80.5 109t-110 62.5t-123 21.5q-72 0 -144 -29t-134 -83.5t-100.5 -143t-38.5 -195.5zM418 1266l244 250h116l193 -250l-90 -82l-166 217l-209 -217z" />
    <glyph glyph-name="otilde" unicode="&#xf5;" horiz-adv-x="1232" 
d="M563 -20q-70 0 -139.5 19.5t-133.5 60t-113.5 98t-79 139.5t-29.5 178q0 126 48 240t129.5 194.5t191.5 128t231 47.5q88 0 174.5 -32t159.5 -91.5t118 -157t45 -216.5q0 -126 -48 -239t-129.5 -193.5t-192.5 -128t-232 -47.5zM236 479q0 -84 30.5 -151.5t80 -108.5
t109 -62.5t122.5 -21.5q57 0 115.5 18t113 55t97 89t68 126.5t25.5 160.5q0 85 -30.5 153t-80.5 109t-110 62.5t-123 21.5q-72 0 -144 -29t-134 -83.5t-100.5 -143t-38.5 -195.5zM387 1257q10 101 62.5 154t125.5 53q35 0 64.5 -12.5t50 -31t39 -36.5t40 -30.5t44.5 -12.5
q32 0 54.5 23.5t25.5 60.5h127q-10 -101 -61.5 -153.5t-124.5 -52.5q-35 0 -64.5 12.5t-50 30t-39 35t-40 30t-44.5 12.5q-32 0 -55 -22.5t-27 -59.5h-127z" />
    <glyph glyph-name="odieresis" unicode="&#xf6;" horiz-adv-x="1232" 
d="M563 -20q-70 0 -139.5 19.5t-133.5 60t-113.5 98t-79 139.5t-29.5 178q0 126 48 240t129.5 194.5t191.5 128t231 47.5q88 0 174.5 -32t159.5 -91.5t118 -157t45 -216.5q0 -126 -48 -239t-129.5 -193.5t-192.5 -128t-232 -47.5zM236 479q0 -84 30.5 -151.5t80 -108.5
t109 -62.5t122.5 -21.5q57 0 115.5 18t113 55t97 89t68 126.5t25.5 160.5q0 85 -30.5 153t-80.5 109t-110 62.5t-123 21.5q-72 0 -144 -29t-134 -83.5t-100.5 -143t-38.5 -195.5zM385 1292l18 174h164l-18 -174h-164zM821 1292l19 174h166l-21 -174h-164z" />
    <glyph glyph-name="divide" unicode="&#xf7;" horiz-adv-x="960" 
d="M90 500l16 143h775l-19 -143h-772zM344 279q0 44 30 73t75 29q44 0 74 -29t30 -73t-30 -74.5t-74 -30.5t-74.5 30.5t-30.5 74.5zM418 868q0 44 30 73.5t74 29.5t74.5 -29.5t30.5 -73.5t-30.5 -74t-74.5 -30t-74 30t-30 74z" />
    <glyph glyph-name="oslash" unicode="&#xf8;" horiz-adv-x="1232" 
d="M166 -102l102 176q-91 64 -145.5 166t-54.5 235q0 126 48 240t129.5 194.5t191.5 128t231 47.5q88 0 174 -30l76 129h163l-114 -195q91 -65 144.5 -166.5t53.5 -234.5q0 -126 -48 -239t-129.5 -193.5t-192.5 -128t-232 -47.5q-82 0 -168 28l-65 -110h-164zM236 479
q0 -170 116 -264l408 698q-60 17 -107 17q-72 0 -144 -29t-134 -83.5t-100.5 -143t-38.5 -195.5zM477 150q49 -15 101 -15q57 0 115.5 18t113 55t97 89t68 126.5t25.5 160.5q0 167 -112 264z" />
    <glyph glyph-name="ugrave" unicode="&#xf9;" 
d="M1120 1065l-110 -1065h-172l16 170q-55 -83 -148.5 -136.5t-220.5 -53.5q-87 0 -158.5 27.5t-125 81.5t-78 143.5t-12.5 205.5l65 627h172l-61 -602q-18 -156 57 -241t209 -85q135 0 225 84.5t107 241.5l63 602h172zM391 1516h154l166 -318h-150z" />
    <glyph glyph-name="uacute" unicode="&#xfa;" 
d="M1120 1065l-110 -1065h-172l16 170q-55 -83 -148.5 -136.5t-220.5 -53.5q-87 0 -158.5 27.5t-125 81.5t-78 143.5t-12.5 205.5l65 627h172l-61 -602q-18 -156 57 -241t209 -85q135 0 225 84.5t107 241.5l63 602h172zM580 1198l165 318h154l-170 -318h-149z" />
    <glyph glyph-name="ucircumflex" unicode="&#xfb;" 
d="M1120 1065l-110 -1065h-172l16 170q-55 -83 -148.5 -136.5t-220.5 -53.5q-87 0 -158.5 27.5t-125 81.5t-78 143.5t-12.5 205.5l65 627h172l-61 -602q-18 -156 57 -241t209 -85q135 0 225 84.5t107 241.5l63 602h172zM393 1266l244 250h117l192 -250l-90 -82l-166 217
l-209 -217z" />
    <glyph glyph-name="udieresis" unicode="&#xfc;" 
d="M1120 1065l-110 -1065h-172l16 170q-55 -83 -148.5 -136.5t-220.5 -53.5q-87 0 -158.5 27.5t-125 81.5t-78 143.5t-12.5 205.5l65 627h172l-61 -602q-18 -156 57 -241t209 -85q135 0 225 84.5t107 241.5l63 602h172zM362 1292l19 174h164l-19 -174h-164zM799 1292l18 174
h166l-20 -174h-164z" />
    <glyph glyph-name="yacute" unicode="&#xfd;" horiz-adv-x="1163" 
d="M223 -389l217 407l-336 1047h179l266 -850l438 850h182l-770 -1454h-176zM551 1198l166 318h153l-170 -318h-149z" />
    <glyph glyph-name="thorn" unicode="&#xfe;" horiz-adv-x="1277" 
d="M25 -389l198 1874h172l-65 -613q47 88 155 149.5t242 61.5q75 0 147.5 -22t137.5 -68.5t112.5 -111t70 -157.5t11.5 -200q-11 -106 -52 -196.5t-100.5 -153t-133 -107.5t-149 -66t-148.5 -21q-138 0 -235.5 65t-125.5 160l-65 -594h-172zM287 524q-10 -95 12.5 -171.5
t69.5 -122.5t107.5 -70.5t129.5 -24.5q70 0 141 26t133 74t106 127.5t54 176.5q10 94 -16.5 170.5t-77 123t-113.5 71t-131 24.5q-71 0 -139 -25.5t-126.5 -74t-99 -127.5t-50.5 -177z" />
    <glyph glyph-name="ydieresis" unicode="&#xff;" horiz-adv-x="1163" 
d="M223 -389l217 407l-336 1047h179l266 -850l438 850h182l-770 -1454h-176zM336 1292l18 174h164l-18 -174h-164zM772 1292l19 174h165l-20 -174h-164z" />
    <glyph glyph-name="Amacron" unicode="&#x100;" horiz-adv-x="1409" 
d="M889 1454l416 -1454h-191l-92 336h-676l-162 -336h-190l717 1454h178zM426 500h551l-199 727zM444 1661l15 137h753l-14 -137h-754z" />
    <glyph glyph-name="amacron" unicode="&#x101;" horiz-adv-x="1292" 
d="M543 -20q-94 0 -178.5 32t-151 91.5t-106 155.5t-39.5 214q0 126 44.5 239.5t120 195t181 129.5t223.5 48q146 0 251 -65t136 -156h10l21 201h172l-111 -1065h-172l21 201h-9q-51 -92 -162 -156.5t-251 -64.5zM242 487q0 -87 28 -155.5t76.5 -110t109.5 -63t130 -21.5
q174 0 298 125t124 316q0 87 -28 155.5t-76.5 110t-109.5 63t-130 21.5q-174 0 -298 -125t-124 -316zM348 1292l14 138h754l-14 -138h-754z" />
    <glyph glyph-name="Abreve" unicode="&#x102;" horiz-adv-x="1409" 
d="M889 1454l416 -1454h-191l-92 336h-676l-162 -336h-190l717 1454h178zM426 500h551l-199 727zM547 1884h119q-7 -76 30.5 -129t130.5 -53q90 0 136 52.5t55 129.5h119q-5 -56 -27 -107t-59.5 -94t-98.5 -68.5t-137 -25.5t-133 25.5t-87.5 68.5t-42.5 94.5t-5 106.5z" />
    <glyph glyph-name="abreve" unicode="&#x103;" horiz-adv-x="1292" 
d="M543 -20q-94 0 -178.5 32t-151 91.5t-106 155.5t-39.5 214q0 126 44.5 239.5t120 195t181 129.5t223.5 48q146 0 251 -65t136 -156h10l21 201h172l-111 -1065h-172l21 201h-9q-51 -92 -162 -156.5t-251 -64.5zM242 487q0 -87 28 -155.5t76.5 -110t109.5 -63t130 -21.5
q174 0 298 125t124 316q0 87 -28 155.5t-76.5 110t-109.5 63t-130 21.5q-174 0 -298 -125t-124 -316zM451 1516h118q-7 -76 31 -129.5t131 -53.5q90 0 136 53t55 130h118q-5 -56 -26.5 -107t-59.5 -94t-98.5 -68.5t-136.5 -25.5t-133 25.5t-87.5 68.5t-42.5 94.5t-5 106.5z
" />
    <glyph glyph-name="Aogonek" unicode="&#x104;" horiz-adv-x="1409" 
d="M889 1454l416 -1454q-126 -28 -206.5 -85.5t-80.5 -133.5q0 -61 47 -90t106 -10l-8 -87q-40 -20 -93 -21.5t-101.5 14.5t-82.5 58.5t-34 102.5q0 92 72 157.5t188 100.5l-90 330h-676l-162 -336h-190l717 1454h178zM426 500h551l-199 727z" />
    <glyph glyph-name="aogonek" unicode="&#x105;" horiz-adv-x="1292" 
d="M543 -20q-94 0 -178.5 32t-151 91.5t-106 155.5t-39.5 214q0 126 44.5 239.5t120 195t181 129.5t223.5 48q146 0 251 -65t136 -156h10l21 201h172l-111 -1065q-126 -28 -206.5 -85.5t-80.5 -133.5q0 -61 47.5 -90t106.5 -10l-8 -87q-40 -20 -93 -21.5t-101.5 14.5
t-82.5 58.5t-34 102.5q0 96 78.5 163.5t203.5 100.5l19 189h-9q-51 -92 -162 -156.5t-251 -64.5zM242 487q0 -87 28 -155.5t76.5 -110t109.5 -63t130 -21.5q174 0 298 125t124 316q0 87 -28 155.5t-76.5 110t-109.5 63t-130 21.5q-174 0 -298 -125t-124 -316z" />
    <glyph glyph-name="Cacute" unicode="&#x106;" horiz-adv-x="1361" 
d="M795 -20q-142 0 -266.5 48t-215.5 134t-143.5 213t-52.5 278q0 169 66.5 321.5t177.5 262t262 174t315 64.5q73 0 142.5 -13t143 -43.5t139.5 -89t112 -139.5l-138 -94q-69 113 -178 161t-231 48q-129 0 -245.5 -49.5t-201 -133.5t-134.5 -202t-50 -250
q0 -236 147.5 -378t372.5 -142q274 0 445 208l116 -94q-63 -81 -139 -139.5t-154 -88.5t-148 -43t-142 -13zM768 1567l166 317h153l-169 -317h-150z" />
    <glyph glyph-name="cacute" unicode="&#x107;" horiz-adv-x="1148" 
d="M573 -20q-101 0 -191.5 32.5t-160.5 93.5t-111.5 156.5t-41.5 212.5q0 169 81 309.5t219 220.5t302 80q148 0 266 -68t174 -194l-139 -78q-41 86 -124 134.5t-185 48.5q-106 0 -200.5 -50t-157 -150.5t-62.5 -229.5q0 -169 101 -265t247 -96q101 0 189 48t147 134
l123 -77q-82 -128 -206 -195t-270 -67zM561 1198l166 318h154l-170 -318h-150z" />
    <glyph glyph-name="Ccircumflex" unicode="&#x108;" horiz-adv-x="1486" 
d="M795 -20q-142 0 -266.5 48t-215.5 134t-143.5 213t-52.5 278q0 169 66.5 321.5t177.5 262t262 174t315 64.5q73 0 142.5 -13t143 -43.5t139.5 -89t112 -139.5l-138 -94q-69 113 -178 161t-231 48q-129 0 -245.5 -49.5t-201 -133.5t-134.5 -202t-50 -250
q0 -236 147.5 -378t372.5 -142q274 0 445 208l116 -94q-63 -81 -139 -139.5t-154 -88.5t-148 -43t-142 -13zM682 1655l244 250h116l193 -250l-90 -82l-166 217l-209 -217z" />
    <glyph glyph-name="ccircumflex" unicode="&#x109;" horiz-adv-x="1148" 
d="M573 -20q-101 0 -191.5 32.5t-160.5 93.5t-111.5 156.5t-41.5 212.5q0 169 81 309.5t219 220.5t302 80q148 0 266 -68t174 -194l-139 -78q-41 86 -124 134.5t-185 48.5q-106 0 -200.5 -50t-157 -150.5t-62.5 -229.5q0 -169 101 -265t247 -96q101 0 189 48t147 134
l123 -77q-82 -128 -206 -195t-270 -67zM377 1266l244 250h116l193 -250l-90 -82l-166 217l-209 -217z" />
    <glyph glyph-name="Cdotaccent" unicode="&#x10a;" horiz-adv-x="1361" 
d="M795 -20q-142 0 -266.5 48t-215.5 134t-143.5 213t-52.5 278q0 169 66.5 321.5t177.5 262t262 174t315 64.5q73 0 142.5 -13t143 -43.5t139.5 -89t112 -139.5l-138 -94q-69 113 -178 161t-231 48q-129 0 -245.5 -49.5t-201 -133.5t-134.5 -202t-50 -250
q0 -236 147.5 -378t372.5 -142q274 0 445 208l116 -94q-63 -81 -139 -139.5t-154 -88.5t-148 -43t-142 -13zM768 1661l18 174h172l-18 -174h-172z" />
    <glyph glyph-name="cdotaccent" unicode="&#x10b;" horiz-adv-x="1148" 
d="M573 -20q-101 0 -191.5 32.5t-160.5 93.5t-111.5 156.5t-41.5 212.5q0 169 81 309.5t219 220.5t302 80q148 0 266 -68t174 -194l-139 -78q-41 86 -124 134.5t-185 48.5q-106 0 -200.5 -50t-157 -150.5t-62.5 -229.5q0 -169 101 -265t247 -96q101 0 189 48t147 134
l123 -77q-82 -128 -206 -195t-270 -67zM567 1292l19 174h172l-19 -174h-172z" />
    <glyph glyph-name="Ccaron" unicode="&#x10c;" horiz-adv-x="1361" 
d="M795 -20q-142 0 -266.5 48t-215.5 134t-143.5 213t-52.5 278q0 169 66.5 321.5t177.5 262t262 174t315 64.5q73 0 142.5 -13t143 -43.5t139.5 -89t112 -139.5l-138 -94q-69 113 -178 161t-231 48q-129 0 -245.5 -49.5t-201 -133.5t-134.5 -202t-50 -250
q0 -236 147.5 -378t372.5 -142q274 0 445 208l116 -94q-63 -81 -139 -139.5t-154 -88.5t-148 -43t-142 -13zM567 1802l90 82l168 -217l207 217l88 -82l-243 -250h-117z" />
    <glyph glyph-name="ccaron" unicode="&#x10d;" horiz-adv-x="1148" 
d="M573 -20q-101 0 -191.5 32.5t-160.5 93.5t-111.5 156.5t-41.5 212.5q0 169 81 309.5t219 220.5t302 80q148 0 266 -68t174 -194l-139 -78q-41 86 -124 134.5t-185 48.5q-106 0 -200.5 -50t-157 -150.5t-62.5 -229.5q0 -169 101 -265t247 -96q101 0 189 48t147 134
l123 -77q-82 -128 -206 -195t-270 -67zM391 1434l90 82l168 -218l207 218l88 -82l-244 -250h-116z" />
    <glyph glyph-name="Dcaron" unicode="&#x10e;" horiz-adv-x="1351" 
d="M66 0l151 1454h430q297 0 472 -183t175 -483q0 -169 -59 -315.5t-162.5 -250.5t-251 -163t-317.5 -59h-438zM260 168h248q182 0 320 79t211 218t73 317q0 234 -126 369t-363 135h-248zM535 1810l90 82l168 -217l206 217l88 -82l-243 -249h-117z" />
    <glyph glyph-name="dcaron" unicode="&#x10f;" horiz-adv-x="1298" 
d="M543 -20q-94 0 -178.5 32t-151 91.5t-106 155.5t-39.5 214q0 126 44.5 239.5t120 195t181 129.5t223.5 48q146 0 251 -65t136 -156h10l62 590h172l-152 -1454h-172l21 201h-9q-51 -92 -162 -156.5t-251 -64.5zM242 487q0 -87 28 -155.5t76.5 -110t109.5 -63t130 -21.5
q174 0 298 125t124 316q0 87 -28 155.5t-76.5 110t-109.5 63t-130 21.5q-174 0 -298 -125t-124 -316zM1317 1167l166 318h153l-170 -318h-149z" />
    <glyph glyph-name="Dcroat" unicode="&#x110;" horiz-adv-x="1380" 
d="M88 0l68 639h-119l14 143h119l70 652h426q205 0 362.5 -96.5t234 -262t56.5 -364.5q-16 -147 -84.5 -278t-173 -226.5t-245 -151t-294.5 -55.5h-434zM283 168h247q124 0 233 43.5t187.5 119t128.5 177t62 217.5q12 112 -15.5 210.5t-89 172t-160.5 116t-223 42.5h-256
l-51 -484h340l-14 -143h-340z" />
    <glyph glyph-name="dcroat" unicode="&#x111;" horiz-adv-x="1284" 
d="M586 1196l12 137h485l13 121h172l-13 -121h84l-12 -137h-86l-125 -1196h-172l21 201h-9q-51 -92 -162 -156.5t-251 -64.5q-94 0 -178.5 32t-151 91.5t-106 155.5t-39.5 214q0 126 44.5 239.5t120 195t181 129.5t223.5 48q146 0 251 -65t136 -156h10l35 332h-483zM242 487
q0 -87 28 -155.5t76.5 -110t109.5 -63t130 -21.5q174 0 298 125t124 316q0 87 -28 155.5t-76.5 110t-109.5 63t-130 21.5q-174 0 -298 -125t-124 -316z" />
    <glyph glyph-name="Emacron" unicode="&#x112;" horiz-adv-x="1009" 
d="M66 0l151 1454h780l-16 -164h-604l-51 -479h514l-17 -162h-514l-51 -485h623l-17 -164h-798zM262 1681l14 138h754l-14 -138h-754z" />
    <glyph glyph-name="emacron" unicode="&#x113;" 
d="M569 -20q-102 0 -192 32.5t-159.5 93.5t-109.5 156.5t-40 214.5q0 125 45.5 238t123 194t185.5 128.5t227 47.5q107 0 199.5 -37t163 -113.5t95.5 -192.5t-3 -273h-877q7 -164 110 -253t261 -89q198 0 328 127l78 -86q-80 -90 -193 -139t-242 -49zM240 600h725
q4 107 -41 184.5t-119.5 114.5t-167.5 37q-148 0 -256 -93.5t-141 -242.5zM293 1292l14 138h754l-14 -138h-754z" />
    <glyph glyph-name="Edotaccent" unicode="&#x116;" horiz-adv-x="1009" 
d="M66 0l151 1454h780l-16 -164h-604l-51 -479h514l-17 -162h-514l-51 -485h623l-17 -164h-798zM553 1681l18 174h172l-18 -174h-172z" />
    <glyph glyph-name="edotaccent" unicode="&#x117;" 
d="M569 -20q-102 0 -192 32.5t-159.5 93.5t-109.5 156.5t-40 214.5q0 125 45.5 238t123 194t185.5 128.5t227 47.5q107 0 199.5 -37t163 -113.5t95.5 -192.5t-3 -273h-877q7 -164 110 -253t261 -89q198 0 328 127l78 -86q-80 -90 -193 -139t-242 -49zM240 600h725
q4 107 -41 184.5t-119.5 114.5t-167.5 37q-148 0 -256 -93.5t-141 -242.5zM582 1292l18 174h172l-18 -174h-172z" />
    <glyph glyph-name="Eogonek" unicode="&#x118;" horiz-adv-x="1009" 
d="M66 0l151 1454h780l-16 -164h-604l-51 -479h514l-17 -162h-514l-51 -485h623l-17 -164q-125 -28 -205.5 -85.5t-80.5 -133.5q0 -61 47 -90t106 -10l-8 -87q-40 -20 -93 -21.5t-101.5 14.5t-82.5 58.5t-34 102.5q0 87 66 151.5t173 100.5h-585z" />
    <glyph glyph-name="eogonek" unicode="&#x119;" 
d="M582 -406q-40 -20 -93 -21.5t-102 14.5t-83 58.5t-34 102.5q0 79 55.5 140t149.5 100q-179 28 -293 155t-114 334q0 125 45.5 238t123 194t185.5 128.5t227 47.5q107 0 199.5 -37t163 -113.5t95.5 -192.5t-3 -273h-877q7 -164 110 -253t261 -89q198 0 328 127l78 -86
q-127 -143 -322 -178q-110 -31 -178 -85.5t-68 -123.5q0 -61 47.5 -90t106.5 -10zM240 600h725q4 107 -41 184.5t-119.5 114.5t-167.5 37q-148 0 -256 -93.5t-141 -242.5z" />
    <glyph glyph-name="Ecaron" unicode="&#x11a;" horiz-adv-x="1009" 
d="M66 0l151 1454h780l-16 -164h-604l-51 -479h514l-17 -162h-514l-51 -485h623l-17 -164h-798zM377 1823l90 82l168 -217l207 217l88 -82l-244 -250h-117z" />
    <glyph glyph-name="ecaron" unicode="&#x11b;" 
d="M569 -20q-102 0 -192 32.5t-159.5 93.5t-109.5 156.5t-40 214.5q0 125 45.5 238t123 194t185.5 128.5t227 47.5q107 0 199.5 -37t163 -113.5t95.5 -192.5t-3 -273h-877q7 -164 110 -253t261 -89q198 0 328 127l78 -86q-80 -90 -193 -139t-242 -49zM240 600h725
q4 107 -41 184.5t-119.5 114.5t-167.5 37q-148 0 -256 -93.5t-141 -242.5zM408 1434l90 82l168 -218l206 218l89 -82l-244 -250h-117z" />
    <glyph glyph-name="Gcircumflex" unicode="&#x11c;" horiz-adv-x="1611" 
d="M784 -20q-140 0 -262.5 48.5t-212 134.5t-141 212.5t-51.5 275.5q0 170 65.5 323t175.5 262.5t261 174t317 64.5q73 0 143 -13t144 -43.5t140 -89t112 -139.5l-138 -94q-68 113 -177 162t-232 49q-103 0 -199.5 -32t-174 -91t-136 -137.5t-90 -176.5t-31.5 -204
q0 -234 145 -378.5t369 -144.5q124 0 230 46t188 149t114 252h-413l16 149h584q-4 -173 -67 -318t-165.5 -240.5t-235 -148t-278.5 -52.5zM649 1655l244 250h117l192 -250l-90 -82l-166 217l-209 -217z" />
    <glyph glyph-name="gcircumflex" unicode="&#x11d;" horiz-adv-x="1292" 
d="M537 -426q-100 0 -185 22t-123 52l17 145q37 -29 110.5 -50.5t165.5 -21.5q81 0 152 19t130.5 58t98 105t47.5 154l15 144h-9q-51 -92 -162.5 -156.5t-250.5 -64.5q-94 0 -178.5 31.5t-151 91t-106 155t-39.5 213.5q0 173 76.5 314.5t206.5 220.5t286 79q146 0 251 -65
t136 -156h10l21 201h172l-105 -1006q-11 -109 -52.5 -195t-99 -139t-133 -88t-149 -49t-151.5 -14zM242 485q0 -85 27.5 -152.5t75.5 -109.5t109.5 -64t131.5 -22q180 0 301 127.5t121 313.5q0 168 -99 259t-245 91q-179 0 -300.5 -128t-121.5 -315zM449 1266l243 250h117
l192 -250l-90 -82l-166 217l-208 -217z" />
    <glyph glyph-name="Gbreve" unicode="&#x11e;" horiz-adv-x="1564" 
d="M784 -20q-140 0 -262.5 48.5t-212 134.5t-141 212.5t-51.5 275.5q0 170 65.5 323t175.5 262.5t261 174t317 64.5q73 0 143 -13t144 -43.5t140 -89t112 -139.5l-138 -94q-68 113 -177 162t-232 49q-103 0 -199.5 -32t-174 -91t-136 -137.5t-90 -176.5t-31.5 -204
q0 -234 145 -378.5t369 -144.5q124 0 230 46t188 149t114 252h-413l16 149h584q-4 -173 -67 -318t-165.5 -240.5t-235 -148t-278.5 -52.5zM582 1884h118q-7 -76 31 -129t131 -53q90 0 136 52.5t55 129.5h118q-5 -56 -26.5 -107t-59.5 -94t-98.5 -68.5t-136.5 -25.5
t-133 25.5t-87.5 68.5t-42.5 94.5t-5 106.5z" />
    <glyph glyph-name="gbreve" unicode="&#x11f;" horiz-adv-x="1282" 
d="M537 -426q-100 0 -185 22t-123 52l17 145q37 -29 110.5 -50.5t165.5 -21.5q81 0 152 19t130.5 58t98 105t47.5 154l15 144h-9q-51 -92 -162.5 -156.5t-250.5 -64.5q-94 0 -178.5 31.5t-151 91t-106 155t-39.5 213.5q0 173 76.5 314.5t206.5 220.5t286 79q146 0 251 -65
t136 -156h10l21 201h172l-105 -1006q-11 -109 -52.5 -195t-99 -139t-133 -88t-149 -49t-151.5 -14zM242 485q0 -85 27.5 -152.5t75.5 -109.5t109.5 -64t131.5 -22q180 0 301 127.5t121 313.5q0 168 -99 259t-245 91q-179 0 -300.5 -128t-121.5 -315zM479 1516h119
q-7 -76 31 -129.5t131 -53.5q90 0 135.5 53t54.5 130h119q-5 -56 -26.5 -107t-59.5 -94t-98.5 -68.5t-136.5 -25.5t-133 25.5t-88 68.5t-43 94.5t-5 106.5z" />
    <glyph glyph-name="Gdotaccent" unicode="&#x120;" horiz-adv-x="1564" 
d="M784 -20q-140 0 -262.5 48.5t-212 134.5t-141 212.5t-51.5 275.5q0 170 65.5 323t175.5 262.5t261 174t317 64.5q73 0 143 -13t144 -43.5t140 -89t112 -139.5l-138 -94q-68 113 -177 162t-232 49q-103 0 -199.5 -32t-174 -91t-136 -137.5t-90 -176.5t-31.5 -204
q0 -234 145 -378.5t369 -144.5q124 0 230 46t188 149t114 252h-413l16 149h584q-4 -173 -67 -318t-165.5 -240.5t-235 -148t-278.5 -52.5zM780 1661l19 174h172l-19 -174h-172z" />
    <glyph glyph-name="gdotaccent" unicode="&#x121;" horiz-adv-x="1292" 
d="M537 -426q-100 0 -185 22t-123 52l17 145q37 -29 110.5 -50.5t165.5 -21.5q81 0 152 19t130.5 58t98 105t47.5 154l15 144h-9q-51 -92 -162.5 -156.5t-250.5 -64.5q-94 0 -178.5 31.5t-151 91t-106 155t-39.5 213.5q0 173 76.5 314.5t206.5 220.5t286 79q146 0 251 -65
t136 -156h10l21 201h172l-105 -1006q-11 -109 -52.5 -195t-99 -139t-133 -88t-149 -49t-151.5 -14zM242 485q0 -85 27.5 -152.5t75.5 -109.5t109.5 -64t131.5 -22q180 0 301 127.5t121 313.5q0 168 -99 259t-245 91q-179 0 -300.5 -128t-121.5 -315zM639 1292l18 174h172
l-18 -174h-172z" />
    <glyph glyph-name="uni0122" unicode="&#x122;" horiz-adv-x="1611" 
d="M784 -20q-140 0 -262.5 48.5t-212 134.5t-141 212.5t-51.5 275.5q0 170 65.5 323t175.5 262.5t261 174t317 64.5q73 0 143 -13t144 -43.5t140 -89t112 -139.5l-138 -94q-68 113 -177 162t-232 49q-103 0 -199.5 -32t-174 -91t-136 -137.5t-90 -176.5t-31.5 -204
q0 -234 145 -378.5t369 -144.5q124 0 230 46t188 149t114 252h-413l16 149h584q-4 -173 -67 -318t-165.5 -240.5t-235 -148t-278.5 -52.5zM467 -539l209 461h155l-213 -461h-151z" />
    <glyph glyph-name="uni0123" unicode="&#x123;" horiz-adv-x="1292" 
d="M537 -426q-100 0 -185 22t-123 52l17 145q37 -29 110.5 -50.5t165.5 -21.5q81 0 152 19t130.5 58t98 105t47.5 154l15 144h-9q-51 -92 -162.5 -156.5t-250.5 -64.5q-94 0 -178.5 31.5t-151 91t-106 155t-39.5 213.5q0 173 76.5 314.5t206.5 220.5t286 79q146 0 251 -65
t136 -156h10l21 201h172l-105 -1006q-11 -109 -52.5 -195t-99 -139t-133 -88t-149 -49t-151.5 -14zM242 485q0 -85 27.5 -152.5t75.5 -109.5t109.5 -64t131.5 -22q180 0 301 127.5t121 313.5q0 168 -99 259t-245 91q-179 0 -300.5 -128t-121.5 -315zM623 1143l213 461h151
l-209 -461h-155z" />
    <glyph glyph-name="Hcircumflex" unicode="&#x124;" horiz-adv-x="1318" 
d="M963 0l65 625h-721l-65 -625h-176l153 1454h176l-69 -666h721l69 666h176l-153 -1454h-176zM502 1655l243 250h117l193 -250l-90 -82l-166 217l-209 -217z" />
    <glyph glyph-name="hcircumflex" unicode="&#x125;" 
d="M66 0l153 1454h172l-59 -559q55 84 148 137t220 53q182 0 290 -116t85 -342l-65 -627h-172l61 602q17 156 -57.5 241t-208.5 85q-135 0 -225 -84.5t-107 -241.5l-63 -602h-172zM49 1655l244 250h117l192 -250l-90 -82l-166 217l-209 -217z" />
    <glyph glyph-name="Hbar" unicode="&#x126;" horiz-adv-x="1316" 
d="M66 0l151 1434h176l-28 -267h720l29 267h176l-151 -1434h-176l65 625h-721l-65 -625h-176zM326 788h721l22 216h-721z" />
    <glyph glyph-name="hbar" unicode="&#x127;" horiz-adv-x="1196" 
d="M16 1167l11 103h182l20 184h172l-20 -184h190l-10 -103h-190l-29 -272q55 83 148.5 136.5t220.5 53.5q87 0 158.5 -27.5t125 -81.5t78 -143.5t12.5 -205.5l-65 -627h-172l61 602q17 156 -57.5 241t-208.5 85q-135 0 -225 -84.5t-107 -241.5l-63 -602h-172l123 1167h-183z
" />
    <glyph glyph-name="Itilde" unicode="&#x128;" horiz-adv-x="419" 
d="M66 0l153 1454h176l-153 -1454h-176zM20 1647q10 101 63 153.5t126 52.5q35 0 64 -12.5t49.5 -30.5t39 -36t40 -30.5t44.5 -12.5q32 0 54.5 23.5t25.5 60.5h127q-10 -101 -61.5 -154t-124.5 -53q-42 0 -78 19t-56.5 41.5t-48 41.5t-55.5 19q-32 0 -54.5 -22.5
t-27.5 -59.5h-127z" />
    <glyph glyph-name="itilde" unicode="&#x129;" horiz-adv-x="415" 
d="M66 0l112 1065h172l-112 -1065h-172zM-20 1257q10 101 62.5 154t125.5 53q35 0 64.5 -12.5t50 -31t39 -36.5t40 -30.5t44.5 -12.5q32 0 54 23.5t25 60.5h127q-10 -101 -61.5 -153.5t-124.5 -52.5q-35 0 -64.5 12.5t-50 30t-39 35t-40 30t-44.5 12.5q-32 0 -55 -22.5
t-27 -59.5h-126z" />
    <glyph glyph-name="Imacron" unicode="&#x12a;" horiz-adv-x="419" 
d="M66 0l153 1454h176l-153 -1454h-176zM-47 1681l14 138h754l-14 -138h-754z" />
    <glyph glyph-name="imacron" unicode="&#x12b;" horiz-adv-x="415" 
d="M66 0l112 1065h172l-112 -1065h-172zM-90 1292l14 138h754l-14 -138h-754z" />
    <glyph glyph-name="Iogonek" unicode="&#x12e;" horiz-adv-x="419" 
d="M100 -406q-40 -20 -93 -21.5t-101.5 14.5t-82.5 58.5t-34 102.5q0 94 78 161.5t201 102.5l151 1442h176l-153 -1454q-126 -28 -206.5 -85.5t-80.5 -133.5q0 -61 47.5 -90t106.5 -10z" />
    <glyph glyph-name="iogonek" unicode="&#x12f;" horiz-adv-x="415" 
d="M201 1292l18 174h172l-18 -174h-172zM-215 -252q0 96 79 163.5t204 100.5l110 1053h172l-112 -1065q-126 -28 -206.5 -85.5t-80.5 -133.5q0 -61 47 -90t106 -10l-8 -87q-40 -20 -93 -21.5t-101.5 14.5t-82.5 58.5t-34 102.5z" />
    <glyph glyph-name="Idotaccent" unicode="&#x130;" horiz-adv-x="419" 
d="M66 0l153 1454h176l-153 -1454h-176zM244 1681l18 174h172l-18 -174h-172z" />
    <glyph glyph-name="dotlessi" unicode="&#x131;" horiz-adv-x="415" 
d="M66 0l112 1065h172l-112 -1065h-172z" />
    <glyph glyph-name="IJ" unicode="&#x132;" horiz-adv-x="1439" 
d="M817 -25q-131 0 -227.5 54t-145.5 145l121 117q83 -146 252 -146q60 0 110.5 17.5t95 56.5t75 110.5t41.5 170.5l98 934h176l-100 -957q-11 -108 -45 -194.5t-81 -143t-108.5 -94.5t-126 -54t-135.5 -16zM66 0l151 1434h176l-151 -1434h-176z" />
    <glyph glyph-name="ij" unicode="&#x133;" horiz-adv-x="833" 
d="M66 0l110 1065h172l-110 -1065h-172zM133 -395l19 159h47q63 0 109 11.5t85 41t62.5 84t31.5 136.5l109 1028h172l-109 -1040q-13 -119 -50.5 -201.5t-100 -130t-141 -68t-183.5 -20.5h-51zM201 1294l16 160h174l-18 -160h-172zM618 1294l19 160h172l-16 -160h-175z" />
    <glyph glyph-name="Jcircumflex" unicode="&#x134;" horiz-adv-x="991" 
d="M389 -20q-128 0 -225.5 52t-140.5 142l124 115q80 -139 244 -139q116 0 196.5 73.5t98.5 235.5l105 995h176l-107 -1016q-10 -97 -41 -175t-75.5 -130t-102.5 -87t-120.5 -50.5t-131.5 -15.5zM625 1655l243 250h117l193 -250l-91 -82l-165 217l-209 -217z" />
    <glyph glyph-name="jcircumflex" unicode="&#x135;" horiz-adv-x="417" 
d="M-283 -395l19 159h47q63 0 109 11.5t85.5 41t63 84t31.5 136.5l108 1028h172l-108 -1040q-13 -119 -50.5 -201.5t-100 -130t-141 -68t-183.5 -20.5h-52zM8 1266l244 250h117l192 -250l-90 -82l-166 217l-209 -217z" />
    <glyph glyph-name="uni0136" unicode="&#x136;" horiz-adv-x="1280" 
d="M66 0l151 1454h176l-84 -809l756 809h207l-633 -674l537 -780h-193l-459 657l-241 -256l-41 -401h-176zM315 -539l209 461h156l-213 -461h-152z" />
    <glyph glyph-name="uni0137" unicode="&#x137;" horiz-adv-x="1114" 
d="M160 -477l172 411h235l-252 -411h-155zM66 0l151 1454h172l-100 -967l561 578h217l-479 -485l422 -580h-197l-338 465l-211 -213l-26 -252h-172z" />
    <glyph glyph-name="Lacute" unicode="&#x139;" horiz-adv-x="1013" 
d="M66 0l153 1454h176l-135 -1290h635l-18 -164h-811zM236 1587l165 318h154l-170 -318h-149z" />
    <glyph glyph-name="lacute" unicode="&#x13a;" horiz-adv-x="466" 
d="M66 0l153 1448h172l-153 -1448h-172zM250 1552l178 265h209l-256 -265h-131z" />
    <glyph glyph-name="uni013B" unicode="&#x13b;" horiz-adv-x="1013" 
d="M66 0l153 1454h176l-135 -1290h635l-18 -164h-811zM186 -539l209 461h156l-213 -461h-152z" />
    <glyph glyph-name="uni013C" unicode="&#x13c;" horiz-adv-x="413" 
d="M66 0l151 1454h172l-151 -1454h-172zM-133 -539l209 461h155l-213 -461h-151z" />
    <glyph glyph-name="Lcaron" unicode="&#x13d;" horiz-adv-x="1013" 
d="M461 973l225 459h158l-232 -459h-151zM66 0l153 1454h176l-135 -1290h635l-18 -164h-811z" />
    <glyph glyph-name="lcaron" unicode="&#x13e;" horiz-adv-x="589" 
d="M66 0l151 1454h172l-151 -1454h-172zM408 1014l208 461h156l-213 -461h-151z" />
    <glyph glyph-name="Ldot" unicode="&#x13f;" horiz-adv-x="1013" 
d="M651 641q-110 0 -98 111q9 96 106 96q54 0 79.5 -28.5t19.5 -82.5q-9 -96 -107 -96zM66 0l153 1454h176l-135 -1290h635l-18 -164h-811z" />
    <glyph glyph-name="ldot" unicode="&#x140;" horiz-adv-x="509" 
d="M66 0l151 1454h172l-151 -1454h-172zM455 731q0 44 30 73.5t74 29.5t74.5 -29.5t30.5 -73.5t-30.5 -74t-74.5 -30t-74 30t-30 74z" />
    <glyph glyph-name="Lslash" unicode="&#x141;" horiz-adv-x="1075" 
d="M125 0l51 463l-139 -131l18 196l140 131l81 775h177l-64 -588l281 266h4l-21 -194l-282 -269l-52 -485h637l-16 -164h-815z" />
    <glyph glyph-name="lslash" unicode="&#x142;" horiz-adv-x="458" 
d="M-45 373l16 164l217 213l74 704h172l-53 -518l164 162h2l-17 -162l-168 -164l-79 -772h-172l61 584z" />
    <glyph glyph-name="Nacute" unicode="&#x143;" horiz-adv-x="1421" 
d="M66 0l151 1454h180l690 -1159h13l121 1159h176l-152 -1454h-180l-690 1159h-13l-120 -1159h-176zM737 1587l166 318h154l-170 -318h-150z" />
    <glyph glyph-name="nacute" unicode="&#x144;" 
d="M66 0l110 1065h172l-16 -170q55 84 148 137t220 53q182 0 290 -116t85 -342l-65 -627h-172l61 602q18 156 -57 241t-209 85q-135 0 -225 -84.5t-107 -241.5l-63 -602h-172zM580 1198l165 318h154l-170 -318h-149z" />
    <glyph glyph-name="uni0145" unicode="&#x145;" horiz-adv-x="1421" 
d="M66 0l151 1454h180l690 -1159h13l121 1159h176l-152 -1454h-180l-690 1159h-13l-120 -1159h-176zM371 -539l209 461h155l-213 -461h-151z" />
    <glyph glyph-name="uni0146" unicode="&#x146;" 
d="M66 0l110 1065h172l-16 -170q55 84 148 137t220 53q182 0 290 -116t85 -342l-65 -627h-172l61 602q18 156 -57 241t-209 85q-135 0 -225 -84.5t-107 -241.5l-63 -602h-172zM254 -539l209 461h155l-212 -461h-152z" />
    <glyph glyph-name="Ncaron" unicode="&#x147;" horiz-adv-x="1421" 
d="M66 0l151 1454h180l690 -1159h13l121 1159h176l-152 -1454h-180l-690 1159h-13l-120 -1159h-176zM567 1823l90 82l168 -217l207 217l88 -82l-243 -250h-117z" />
    <glyph glyph-name="ncaron" unicode="&#x148;" 
d="M66 0l110 1065h172l-16 -170q55 84 148 137t220 53q182 0 290 -116t85 -342l-65 -627h-172l61 602q18 156 -57 241t-209 85q-135 0 -225 -84.5t-107 -241.5l-63 -602h-172zM410 1434l90 82l168 -218l206 218l89 -82l-244 -250h-117z" />
    <glyph glyph-name="Eng" unicode="&#x14a;" horiz-adv-x="1415" 
d="M752 -430q-132 0 -228 54t-145 145l119 116q83 -145 252 -145q269 0 319 317l-709 1053l-118 -1110h-176l151 1434h135l742 -1112l116 1112h179l-144 -1362q-14 -134 -61 -234t-116.5 -157t-148.5 -84t-167 -27z" />
    <glyph glyph-name="eng" unicode="&#x14b;" 
d="M485 -395l19 159h47q63 0 109 11.5t85.5 41t63 85t31.5 137.5l59 563q17 156 -57.5 241t-208.5 85q-135 0 -225 -84.5t-107 -241.5l-63 -602h-172l110 1065h172l-16 -172q52 83 146.5 137.5t221.5 54.5q87 0 159 -27.5t126 -81.5t78.5 -143.5t11.5 -205.5l-63 -600
q-12 -119 -49.5 -202t-100 -131t-141.5 -68.5t-184 -20.5h-52z" />
    <glyph glyph-name="Omacron" unicode="&#x14c;" horiz-adv-x="1681" 
d="M793 -20q-140 0 -263.5 47.5t-215 133t-144.5 212.5t-53 278q0 169 65.5 322t175.5 262.5t260 174.5t312 65q188 0 341 -81t244 -235.5t91 -355.5q0 -169 -65.5 -322t-175.5 -262.5t-260 -174t-312 -64.5zM297 666q0 -155 69 -274t184.5 -180.5t256.5 -61.5q167 0 309 85
t225.5 232t83.5 321q0 155 -68.5 274t-184 181t-257.5 62q-124 0 -238 -50.5t-197.5 -136t-133 -204t-49.5 -248.5zM582 1681l14 138h754l-15 -138h-753z" />
    <glyph glyph-name="omacron" unicode="&#x14d;" horiz-adv-x="1232" 
d="M563 -20q-70 0 -139.5 19.5t-133.5 60t-113.5 98t-79 139.5t-29.5 178q0 126 48 240t129.5 194.5t191.5 128t231 47.5q88 0 174.5 -32t159.5 -91.5t118 -157t45 -216.5q0 -126 -48 -239t-129.5 -193.5t-192.5 -128t-232 -47.5zM236 479q0 -84 30.5 -151.5t80 -108.5
t109 -62.5t122.5 -21.5q57 0 115.5 18t113 55t97 89t68 126.5t25.5 160.5q0 85 -30.5 153t-80.5 109t-110 62.5t-123 21.5q-72 0 -144 -29t-134 -83.5t-100.5 -143t-38.5 -195.5zM317 1292l15 138h753l-14 -138h-754z" />
    <glyph glyph-name="Ohungarumlaut" unicode="&#x150;" horiz-adv-x="1681" 
d="M793 -20q-140 0 -263.5 47.5t-215 133t-144.5 212.5t-53 278q0 169 65.5 322t175.5 262.5t260 174.5t312 65q188 0 341 -81t244 -235.5t91 -355.5q0 -169 -65.5 -322t-175.5 -262.5t-260 -174t-312 -64.5zM297 666q0 -155 69 -274t184.5 -180.5t256.5 -61.5q167 0 309 85
t225.5 232t83.5 321q0 155 -68.5 274t-184 181t-257.5 62q-124 0 -238 -50.5t-197.5 -136t-133 -204t-49.5 -248.5zM711 1587l166 318h153l-170 -318h-149zM1020 1587l166 318h153l-170 -318h-149z" />
    <glyph glyph-name="ohungarumlaut" unicode="&#x151;" horiz-adv-x="1232" 
d="M563 -20q-70 0 -139.5 19.5t-133.5 60t-113.5 98t-79 139.5t-29.5 178q0 126 48 240t129.5 194.5t191.5 128t231 47.5q88 0 174.5 -32t159.5 -91.5t118 -157t45 -216.5q0 -126 -48 -239t-129.5 -193.5t-192.5 -128t-232 -47.5zM236 479q0 -84 30.5 -151.5t80 -108.5
t109 -62.5t122.5 -21.5q57 0 115.5 18t113 55t97 89t68 126.5t25.5 160.5q0 85 -30.5 153t-80.5 109t-110 62.5t-123 21.5q-72 0 -144 -29t-134 -83.5t-100.5 -143t-38.5 -195.5zM446 1198l166 318h154l-170 -318h-150zM756 1198l166 318h153l-170 -318h-149z" />
    <glyph glyph-name="OE" unicode="&#x152;" horiz-adv-x="2293" 
d="M793 -20q-140 0 -263.5 47.5t-215 133t-144.5 212.5t-53 278q0 169 65.5 322t175.5 262.5t260 174.5t312 65q169 0 312 -67.5t235 -190.5l24 237h780l-16 -164h-604l-51 -479h514l-17 -162h-514l-51 -485h623l-17 -164h-798l24 229q-114 -118 -264 -183.5t-317 -65.5z
M297 666q0 -155 69 -274t184.5 -180.5t256.5 -61.5q167 0 309 85t225.5 232t83.5 321q0 155 -68.5 274t-184 181t-257.5 62q-124 0 -238 -50.5t-197.5 -136t-133 -204t-49.5 -248.5z" />
    <glyph glyph-name="oe" unicode="&#x153;" horiz-adv-x="2117" 
d="M1503 -20q-148 0 -267 66t-181 190q-85 -119 -214 -187.5t-278 -68.5q-70 0 -139.5 19.5t-133.5 60t-113.5 98t-79 139.5t-29.5 178q0 126 48 240t129.5 194.5t191.5 128t231 47.5q130 0 252 -67t188 -189q79 119 204 187.5t271 68.5q107 0 199.5 -37t163 -113.5
t95.5 -192.5t-3 -273h-877q7 -164 110 -253t261 -89q198 0 328 127l77 -86q-80 -90 -193 -139t-241 -49zM236 479q0 -84 30.5 -151.5t80 -108.5t109 -62.5t122.5 -21.5q57 0 115.5 18t113 55t97 89t68 126.5t25.5 160.5q0 85 -30.5 153t-80.5 109t-110 62.5t-123 21.5
q-72 0 -144 -29t-134 -83.5t-100.5 -143t-38.5 -195.5zM1174 600h724q4 107 -40.5 184.5t-119 114.5t-167.5 37q-148 0 -256 -93.5t-141 -242.5z" />
    <glyph glyph-name="Racute" unicode="&#x154;" horiz-adv-x="1218" 
d="M66 0l151 1454h469q211 0 330 -116t119 -308q0 -172 -97 -303t-262 -182l307 -545h-192l-287 516h-16h-293l-53 -516h-176zM311 672h273q165 0 267.5 96t102.5 252q0 135 -79.5 202.5t-225.5 67.5h-272zM635 1567l166 317h153l-170 -317h-149z" />
    <glyph glyph-name="racute" unicode="&#x155;" horiz-adv-x="765" 
d="M66 0l110 1065h172l-26 -254q47 121 139.5 197.5t228.5 76.5q43 0 64 -8l-19 -162q-28 7 -55 7q-151 0 -256.5 -100.5t-128.5 -270.5l-57 -551h-172zM365 1198l165 318h154l-170 -318h-149z" />
    <glyph glyph-name="uni0156" unicode="&#x156;" horiz-adv-x="1218" 
d="M66 0l151 1454h469q211 0 330 -116t119 -308q0 -172 -97 -303t-262 -182l307 -545h-192l-287 516h-16h-293l-53 -516h-176zM270 -539l209 461h156l-213 -461h-152zM311 672h273q165 0 267.5 96t102.5 252q0 135 -79.5 202.5t-225.5 67.5h-272z" />
    <glyph glyph-name="uni0157" unicode="&#x157;" horiz-adv-x="765" 
d="M66 0l110 1065h172l-26 -254q47 121 139.5 197.5t228.5 76.5q43 0 64 -8l-19 -162q-28 7 -55 7q-151 0 -256.5 -100.5t-128.5 -270.5l-57 -551h-172zM-147 -539l208 461h156l-213 -461h-151z" />
    <glyph glyph-name="Rcaron" unicode="&#x158;" horiz-adv-x="1218" 
d="M66 0l151 1454h469q211 0 330 -116t119 -308q0 -172 -97 -303t-262 -182l307 -545h-192l-287 516h-16h-293l-53 -516h-176zM311 672h273q165 0 267.5 96t102.5 252q0 135 -79.5 202.5t-225.5 67.5h-272zM465 1802l90 82l168 -217l207 217l88 -82l-244 -250h-117z" />
    <glyph glyph-name="rcaron" unicode="&#x159;" horiz-adv-x="765" 
d="M66 0l110 1065h172l-26 -254q47 121 139.5 197.5t228.5 76.5q43 0 64 -8l-19 -162q-28 7 -55 7q-151 0 -256.5 -100.5t-128.5 -270.5l-57 -551h-172zM195 1434l90 82l168 -218l206 218l89 -82l-244 -250h-117z" />
    <glyph glyph-name="Sacute" unicode="&#x15a;" horiz-adv-x="1101" 
d="M518 -20q-184 0 -314 100.5t-153 263.5l152 66q22 -123 107.5 -195t215.5 -72q132 0 221 70.5t89 194.5q0 100 -59 156.5t-187 109.5l-101 41q-303 122 -303 368q0 115 60.5 205.5t162 138.5t224.5 48q170 0 280.5 -87.5t143.5 -216.5l-142 -69q-36 102 -108.5 157.5
t-179.5 55.5q-114 0 -189.5 -61.5t-75.5 -161.5q0 -77 49.5 -134.5t161.5 -103.5l97 -39q86 -36 145 -70.5t107.5 -81t72 -107t23.5 -136.5q0 -101 -42 -185.5t-112 -139.5t-159.5 -85t-186.5 -30zM575 1587l166 318h154l-170 -318h-150z" />
    <glyph glyph-name="sacute" unicode="&#x15b;" horiz-adv-x="878" 
d="M397 -20q-153 0 -252.5 77.5t-111.5 210.5l145 39q13 -85 73 -133.5t150 -48.5q86 0 147.5 43t61.5 129q0 63 -39 102t-127 76l-90 37q-221 90 -221 279q0 128 100.5 211t245.5 83q128 0 217 -65t111 -172l-139 -41q-53 133 -193 133q-76 0 -123 -36.5t-47 -104.5
q0 -52 31 -90t102 -68l88 -37q60 -25 102.5 -50.5t80 -60.5t56.5 -82t19 -106q0 -100 -52 -174.5t-139.5 -112.5t-195.5 -38zM426 1198l166 318h153l-170 -318h-149z" />
    <glyph glyph-name="Scircumflex" unicode="&#x15c;" horiz-adv-x="1101" 
d="M518 -20q-184 0 -314 100.5t-153 263.5l152 66q22 -123 107.5 -195t215.5 -72q132 0 221 70.5t89 194.5q0 100 -59 156.5t-187 109.5l-101 41q-303 122 -303 368q0 115 60.5 205.5t162 138.5t224.5 48q170 0 280.5 -87.5t143.5 -216.5l-142 -69q-36 102 -108.5 157.5
t-179.5 55.5q-114 0 -189.5 -61.5t-75.5 -161.5q0 -77 49.5 -134.5t161.5 -103.5l97 -39q86 -36 145 -70.5t107.5 -81t72 -107t23.5 -136.5q0 -101 -42 -185.5t-112 -139.5t-159.5 -85t-186.5 -30zM389 1655l244 250h117l192 -250l-90 -82l-166 217l-209 -217z" />
    <glyph glyph-name="scircumflex" unicode="&#x15d;" horiz-adv-x="878" 
d="M397 -20q-153 0 -252.5 77.5t-111.5 210.5l145 39q13 -85 73 -133.5t150 -48.5q86 0 147.5 43t61.5 129q0 63 -39 102t-127 76l-90 37q-221 90 -221 279q0 128 100.5 211t245.5 83q128 0 217 -65t111 -172l-139 -41q-53 133 -193 133q-76 0 -123 -36.5t-47 -104.5
q0 -52 31 -90t102 -68l88 -37q60 -25 102.5 -50.5t80 -60.5t56.5 -82t19 -106q0 -100 -52 -174.5t-139.5 -112.5t-195.5 -38zM240 1266l243 250h117l193 -250l-91 -82l-165 217l-209 -217z" />
    <glyph glyph-name="Scedilla" unicode="&#x15e;" horiz-adv-x="1101" 
d="M326 -362q85 -3 140.5 21.5t55.5 84.5q0 102 -160 80l-24 51l84 113q-149 25 -250 120.5t-121 235.5l152 66q22 -123 107.5 -195t215.5 -72q132 0 221 70.5t89 194.5q0 100 -59 156.5t-187 109.5l-101 41q-303 122 -303 368q0 115 60.5 205.5t162 138.5t224.5 48
q170 0 280.5 -87.5t143.5 -216.5l-142 -69q-36 102 -108.5 157.5t-179.5 55.5q-114 0 -189.5 -61.5t-75.5 -161.5q0 -77 49.5 -134.5t161.5 -103.5l97 -39q86 -36 145 -70.5t107.5 -81t72 -107t23.5 -136.5q0 -97 -38.5 -178.5t-103.5 -136.5t-149 -87.5t-176 -37.5l-53 -66
q73 0 118.5 -42t45.5 -112q0 -73 -51.5 -125t-131 -70.5t-162.5 -0.5z" />
    <glyph glyph-name="scedilla" unicode="&#x15f;" horiz-adv-x="878" 
d="M215 -362q85 -3 141 21.5t56 84.5q0 102 -160 80l-25 51l82 113q-118 21 -192 94t-84 186l145 39q13 -85 73 -133.5t150 -48.5q86 0 147.5 43t61.5 129q0 63 -39 102t-127 76l-90 37q-221 90 -221 279q0 128 100.5 211t245.5 83q128 0 217 -65t111 -172l-139 -41
q-53 133 -193 133q-76 0 -123 -36.5t-47 -104.5q0 -52 31 -90t102 -68l88 -37q60 -25 102.5 -50.5t80 -60.5t56.5 -82t19 -106q0 -139 -96.5 -225.5t-245.5 -97.5l-55 -68q73 0 118.5 -42t45.5 -112q0 -73 -51.5 -125t-130.5 -70.5t-162 -0.5z" />
    <glyph glyph-name="Scaron" unicode="&#x160;" horiz-adv-x="1101" 
d="M518 -20q-184 0 -314 100.5t-153 263.5l152 66q22 -123 107.5 -195t215.5 -72q132 0 221 70.5t89 194.5q0 100 -59 156.5t-187 109.5l-101 41q-303 122 -303 368q0 115 60.5 205.5t162 138.5t224.5 48q170 0 280.5 -87.5t143.5 -216.5l-142 -69q-36 102 -108.5 157.5
t-179.5 55.5q-114 0 -189.5 -61.5t-75.5 -161.5q0 -77 49.5 -134.5t161.5 -103.5l97 -39q86 -36 145 -70.5t107.5 -81t72 -107t23.5 -136.5q0 -101 -42 -185.5t-112 -139.5t-159.5 -85t-186.5 -30zM406 1823l90 82l168 -217l206 217l88 -82l-243 -250h-117z" />
    <glyph glyph-name="scaron" unicode="&#x161;" horiz-adv-x="878" 
d="M397 -20q-153 0 -252.5 77.5t-111.5 210.5l145 39q13 -85 73 -133.5t150 -48.5q86 0 147.5 43t61.5 129q0 63 -39 102t-127 76l-90 37q-221 90 -221 279q0 128 100.5 211t245.5 83q128 0 217 -65t111 -172l-139 -41q-53 133 -193 133q-76 0 -123 -36.5t-47 -104.5
q0 -52 31 -90t102 -68l88 -37q60 -25 102.5 -50.5t80 -60.5t56.5 -82t19 -106q0 -100 -52 -174.5t-139.5 -112.5t-195.5 -38zM256 1434l90 82l168 -218l207 218l88 -82l-244 -250h-116z" />
    <glyph glyph-name="uni0162" unicode="&#x162;" horiz-adv-x="1083" 
d="M395 0l137 1290h-382l18 164h942l-18 -164h-383l-138 -1290h-12l-70 -86q73 0 118.5 -42t45.5 -112q0 -73 -51.5 -125t-130.5 -70.5t-162 -0.5l8 74q85 -3 141 21.5t56 84.5q0 102 -160 80l-24 51l92 125h-27z" />
    <glyph glyph-name="uni0163" unicode="&#x163;" horiz-adv-x="675" 
d="M111 924l14 141h143l29 272h172l-29 -272h211l-14 -141h-211l-70 -674q-10 -107 101 -107q42 0 98 19l-14 -137q-39 -25 -84 -31l-64 -80q73 0 118.5 -42t45.5 -112q0 -73 -51.5 -125t-130.5 -70.5t-162 -0.5l8 74q85 -3 141 21.5t56 84.5q0 102 -160 80l-25 51l89 119
q-162 38 -142 223l74 707h-143z" />
    <glyph glyph-name="Tcaron" unicode="&#x164;" horiz-adv-x="1083" 
d="M395 0l137 1290h-382l18 164h942l-18 -164h-383l-138 -1290h-176zM397 1823l90 82l168 -217l207 217l88 -82l-243 -250h-117z" />
    <glyph glyph-name="tcaron" unicode="&#x165;" horiz-adv-x="684" 
d="M393 -12q-111 0 -168.5 56.5t-44.5 172.5l74 707h-143l14 141h143l29 272h172l-29 -272h211l-14 -141h-211l-70 -674q-10 -107 101 -107q42 0 98 19l-14 -137q-52 -37 -148 -37zM549 1153l166 317h153l-170 -317h-149z" />
    <glyph glyph-name="Tbar" unicode="&#x166;" horiz-adv-x="1083" 
d="M211 889l18 164h279l24 237h-382l18 164h942l-18 -164h-383l-25 -237h299l-20 -164h-297l-95 -889h-176l94 889h-278z" />
    <glyph glyph-name="tbar" unicode="&#x167;" horiz-adv-x="675" 
d="M84 670l14 141h144l12 113h-143l14 141h143l29 272h172l-29 -272h211l-14 -141h-211l-12 -113h211l-15 -141h-211l-43 -420q-10 -107 101 -107q42 0 98 19l-14 -137q-52 -37 -148 -37q-111 0 -168.5 56.5t-44.5 172.5l47 453h-143z" />
    <glyph glyph-name="Utilde" unicode="&#x168;" horiz-adv-x="1286" 
d="M590 -31q-111 0 -203 37.5t-156 107.5t-94 175.5t-16 234.5l98 930h176l-98 -936q-11 -96 9.5 -170.5t65 -119.5t104.5 -68t132 -23q149 0 253.5 97t125.5 290l98 930h177l-99 -938q-18 -170 -100.5 -296t-204.5 -188.5t-268 -62.5zM451 1647q10 101 62.5 153.5
t125.5 52.5q42 0 78 -19t56.5 -42t48 -42t55.5 -19q32 0 54 23.5t25 60.5h127q-10 -101 -61.5 -154t-124.5 -53q-42 0 -78 19t-56.5 41.5t-48 41.5t-55.5 19q-32 0 -54 -22.5t-27 -59.5h-127z" />
    <glyph glyph-name="utilde" unicode="&#x169;" 
d="M1120 1065l-110 -1065h-172l16 170q-55 -83 -148.5 -136.5t-220.5 -53.5q-87 0 -158.5 27.5t-125 81.5t-78 143.5t-12.5 205.5l65 627h172l-61 -602q-18 -156 57 -241t209 -85q135 0 225 84.5t107 241.5l63 602h172zM362 1257q10 101 63 154t126 53q35 0 64 -12.5
t49.5 -31t39 -36.5t40 -30.5t44.5 -12.5q32 0 54.5 23.5t25.5 60.5h127q-10 -101 -61.5 -153.5t-124.5 -52.5q-35 0 -64.5 12.5t-50 30t-39 35t-40 30t-44.5 12.5q-32 0 -54.5 -22.5t-27.5 -59.5h-127z" />
    <glyph glyph-name="Umacron" unicode="&#x16a;" horiz-adv-x="1286" 
d="M590 -31q-111 0 -203 37.5t-156 107.5t-94 175.5t-16 234.5l98 930h176l-98 -936q-11 -96 9.5 -170.5t65 -119.5t104.5 -68t132 -23q149 0 253.5 97t125.5 290l98 930h177l-99 -938q-18 -170 -100.5 -296t-204.5 -188.5t-268 -62.5zM383 1681l14 138h754l-14 -138h-754z
" />
    <glyph glyph-name="umacron" unicode="&#x16b;" 
d="M1120 1065l-110 -1065h-172l16 170q-55 -83 -148.5 -136.5t-220.5 -53.5q-87 0 -158.5 27.5t-125 81.5t-78 143.5t-12.5 205.5l65 627h172l-61 -602q-18 -156 57 -241t209 -85q135 0 225 84.5t107 241.5l63 602h172zM295 1292l14 138h754l-14 -138h-754z" />
    <glyph glyph-name="Ubreve" unicode="&#x16c;" horiz-adv-x="1286" 
d="M590 -31q-111 0 -203 37.5t-156 107.5t-94 175.5t-16 234.5l98 930h176l-98 -936q-11 -96 9.5 -170.5t65 -119.5t104.5 -68t132 -23q149 0 253.5 97t125.5 290l98 930h177l-99 -938q-18 -170 -100.5 -296t-204.5 -188.5t-268 -62.5zM485 1905h119q-7 -76 31 -129.5
t131 -53.5q90 0 135.5 53t54.5 130h119q-5 -56 -26.5 -107t-59.5 -94t-98.5 -68.5t-136.5 -25.5t-133 25.5t-88 68.5t-43 94.5t-5 106.5z" />
    <glyph glyph-name="ubreve" unicode="&#x16d;" 
d="M1120 1065l-110 -1065h-172l16 170q-55 -83 -148.5 -136.5t-220.5 -53.5q-87 0 -158.5 27.5t-125 81.5t-78 143.5t-12.5 205.5l65 627h172l-61 -602q-18 -156 57 -241t209 -85q135 0 225 84.5t107 241.5l63 602h172zM397 1516h119q-7 -76 31 -129.5t131 -53.5
q90 0 135.5 53t54.5 130h119q-5 -56 -26.5 -107t-59.5 -94t-98.5 -68.5t-136.5 -25.5t-133 25.5t-88 68.5t-43 94.5t-5 106.5z" />
    <glyph glyph-name="Uring" unicode="&#x16e;" horiz-adv-x="1286" 
d="M590 -31q-111 0 -203 37.5t-156 107.5t-94 175.5t-16 234.5l98 930h176l-98 -936q-11 -96 9.5 -170.5t65 -119.5t104.5 -68t132 -23q149 0 253.5 97t125.5 290l98 930h177l-99 -938q-18 -170 -100.5 -296t-204.5 -188.5t-268 -62.5zM582 1780q0 82 60.5 142t143.5 60
q74 0 125.5 -51.5t51.5 -124.5q0 -81 -61.5 -140.5t-143.5 -59.5q-76 0 -126 50.5t-50 123.5zM700 1788q0 -29 19 -47.5t47 -18.5q34 0 57 22t23 56q0 29 -20 48.5t-48 19.5q-32 0 -55 -23t-23 -57z" />
    <glyph glyph-name="uring" unicode="&#x16f;" 
d="M1120 1065l-110 -1065h-172l16 170q-55 -83 -148.5 -136.5t-220.5 -53.5q-87 0 -158.5 27.5t-125 81.5t-78 143.5t-12.5 205.5l65 627h172l-61 -602q-18 -156 57 -241t209 -85q135 0 225 84.5t107 241.5l63 602h172zM494 1391q0 82 60.5 142t143.5 60q74 0 125 -51.5
t51 -124.5q0 -81 -61 -140.5t-143 -59.5q-76 0 -126 50.5t-50 123.5zM612 1399q0 -29 19 -47.5t47 -18.5q34 0 57 22t23 56q0 29 -20 48.5t-48 19.5q-32 0 -55 -23t-23 -57z" />
    <glyph glyph-name="Uhungarumlaut" unicode="&#x170;" horiz-adv-x="1286" 
d="M590 -31q-111 0 -203 37.5t-156 107.5t-94 175.5t-16 234.5l98 930h176l-98 -936q-11 -96 9.5 -170.5t65 -119.5t104.5 -68t132 -23q149 0 253.5 97t125.5 290l98 930h177l-99 -938q-18 -170 -100.5 -296t-204.5 -188.5t-268 -62.5zM510 1587l166 318h153l-170 -318h-149
zM819 1587l166 318h154l-170 -318h-150z" />
    <glyph glyph-name="uhungarumlaut" unicode="&#x171;" 
d="M1120 1065l-110 -1065h-172l16 170q-55 -83 -148.5 -136.5t-220.5 -53.5q-87 0 -158.5 27.5t-125 81.5t-78 143.5t-12.5 205.5l65 627h172l-61 -602q-18 -156 57 -241t209 -85q135 0 225 84.5t107 241.5l63 602h172zM422 1198l166 318h153l-170 -318h-149zM731 1198
l166 318h154l-170 -318h-150z" />
    <glyph glyph-name="Uogonek" unicode="&#x172;" horiz-adv-x="1286" 
d="M629 -406q-40 -20 -93 -21.5t-102 14.5t-83 58.5t-34 102.5q0 74 49 131.5t132 95.5q-190 30 -295.5 175.5t-81.5 373.5l98 930h176l-98 -936q-11 -96 9.5 -170.5t65 -119.5t104.5 -68t132 -23q149 0 253.5 97t125.5 290l98 930h177l-99 -938q-24 -225 -154.5 -367
t-320.5 -172q-94 -32 -149.5 -82.5t-55.5 -113.5q0 -61 47.5 -90t106.5 -10z" />
    <glyph glyph-name="uogonek" unicode="&#x173;" 
d="M1120 1065l-110 -1065q-126 -28 -206.5 -85.5t-80.5 -133.5q0 -61 47.5 -90t106.5 -10l-9 -87q-40 -20 -93 -21.5t-101.5 14.5t-82.5 58.5t-34 102.5q0 96 79 163.5t204 100.5l14 158q-55 -83 -148.5 -136.5t-220.5 -53.5q-87 0 -158.5 27.5t-125 81.5t-78 143.5
t-12.5 205.5l65 627h172l-61 -602q-18 -156 57 -241t209 -85q135 0 225 84.5t107 241.5l63 602h172z" />
    <glyph glyph-name="Wcircumflex" unicode="&#x174;" horiz-adv-x="2021" 
d="M436 0l-291 1454h185l219 -1143l487 1143h142l247 -1143l457 1143h186l-595 -1454h-142l-256 1149l-497 -1149h-142zM852 1655l244 250h116l193 -250l-90 -82l-166 217l-209 -217z" />
    <glyph glyph-name="wcircumflex" unicode="&#x175;" horiz-adv-x="1888" 
d="M1223 0l-248 854l-420 -854h-158l-293 1065h175l219 -850l415 850h166l242 -850l395 850h178l-514 -1065h-157zM745 1266l244 250h117l192 -250l-90 -82l-166 217l-208 -217z" />
    <glyph glyph-name="Ycircumflex" unicode="&#x176;" horiz-adv-x="1331" 
d="M518 0l70 618l-432 836h194l338 -674l475 674h205l-604 -836l-70 -618h-176zM504 1655l244 250h116l193 -250l-90 -82l-166 217l-209 -217z" />
    <glyph glyph-name="ycircumflex" unicode="&#x177;" horiz-adv-x="1163" 
d="M223 -389l217 407l-336 1047h179l266 -850l438 850h182l-770 -1454h-176zM367 1266l243 250h117l193 -250l-91 -82l-165 217l-209 -217z" />
    <glyph glyph-name="Ydieresis" unicode="&#x178;" horiz-adv-x="1331" 
d="M518 0l70 618l-432 836h194l338 -674l475 674h205l-604 -836l-70 -618h-176zM473 1681l19 174h163l-18 -174h-164zM909 1681l19 174h166l-21 -174h-164z" />
    <glyph glyph-name="Zacute" unicode="&#x179;" horiz-adv-x="1200" 
d="M4 0l930 1290h-754l17 164h1040l-930 -1290h780l-16 -164h-1067zM639 1587l166 318h153l-170 -318h-149z" />
    <glyph glyph-name="zacute" unicode="&#x17a;" horiz-adv-x="1056" 
d="M-6 0l762 911h-606l16 154h897l-762 -911h643l-16 -154h-934zM530 1198l166 318h154l-170 -318h-150z" />
    <glyph glyph-name="Zdotaccent" unicode="&#x17b;" horiz-adv-x="1200" 
d="M4 0l930 1290h-754l17 164h1040l-930 -1290h780l-16 -164h-1067zM645 1681l19 174h172l-19 -174h-172z" />
    <glyph glyph-name="zdotaccent" unicode="&#x17c;" horiz-adv-x="1056" 
d="M-6 0l762 911h-606l16 154h897l-762 -911h643l-16 -154h-934zM537 1292l18 174h172l-18 -174h-172z" />
    <glyph glyph-name="Zcaron" unicode="&#x17d;" horiz-adv-x="1200" 
d="M4 0l930 1290h-754l17 164h1040l-930 -1290h780l-16 -164h-1067zM469 1823l90 82l168 -217l207 217l88 -82l-244 -250h-116z" />
    <glyph glyph-name="zcaron" unicode="&#x17e;" horiz-adv-x="1056" 
d="M-6 0l762 911h-606l16 154h897l-762 -911h643l-16 -154h-934zM360 1434l91 82l167 -218l207 218l88 -82l-243 -250h-117z" />
    <glyph glyph-name="uni018F" unicode="&#x18f;" horiz-adv-x="1609" 
d="M717 -20q-145 0 -266 52.5t-204 147t-117.5 237t-6.5 312.5h1227q2 18 2 57q0 223 -144 361.5t-362 138.5q-207 0 -377 -125l-94 123q217 170 497 170q185 0 336 -81t238.5 -230t87.5 -338q0 -168 -66 -321t-177 -263.5t-261.5 -175.5t-312.5 -65zM289 580
q6 -213 131.5 -323t314.5 -110q203 0 362 121.5t222 311.5h-1030z" />
    <glyph glyph-name="florin" unicode="&#x192;" horiz-adv-x="739" 
d="M-37 -397q-107 0 -166 41l15 137q54 -29 125 -29q76 0 125 45t59 140l104 987h-125l15 141h125l12 111q8 75 33.5 133t59 92t77 56t82 30t78.5 8q101 0 163 -41l-14 -137q-54 29 -125 29q-165 0 -184 -185l-10 -96h293l-15 -141h-293l-104 -1002q-8 -75 -34 -133
t-59.5 -92t-76.5 -56t-81.5 -30t-78.5 -8z" />
    <glyph glyph-name="Ohorn" unicode="&#x1a0;" horiz-adv-x="1681" 
d="M793 -20q-140 0 -263.5 47.5t-215 133t-144.5 212.5t-53 278q0 169 65.5 322t175.5 262.5t260 174.5t312 65h395q77 0 118 36.5t48 112.5l4 45h143l-8 -88q-12 -108 -87.5 -173.5t-190.5 -66.5q120 -90 187 -227.5t67 -310.5q0 -169 -65.5 -322t-175.5 -262.5t-260 -174
t-312 -64.5zM297 666q0 -155 69 -274t184.5 -180.5t256.5 -61.5q167 0 309 85t225.5 232t83.5 321q0 155 -68.5 274t-184 181t-257.5 62q-124 0 -238 -50.5t-197.5 -136t-133 -204t-49.5 -248.5z" />
    <glyph glyph-name="ohorn" unicode="&#x1a1;" horiz-adv-x="1232" 
d="M563 -20q-70 0 -139.5 19.5t-133.5 60t-113.5 98t-79 139.5t-29.5 178q0 126 48 240t129.5 194.5t191.5 128t231 47.5h256q154 0 166 150l4 45h143l-8 -88q-9 -93 -69 -156t-154 -80q159 -139 159 -368q0 -126 -48 -239t-129.5 -193.5t-192.5 -128t-232 -47.5zM236 479
q0 -84 30.5 -151.5t80 -108.5t109 -62.5t122.5 -21.5q57 0 115.5 18t113 55t97 89t68 126.5t25.5 160.5q0 85 -30.5 153t-80.5 109t-110 62.5t-123 21.5q-72 0 -144 -29t-134 -83.5t-100.5 -143t-38.5 -195.5z" />
    <glyph glyph-name="Uhorn" unicode="&#x1af;" horiz-adv-x="1286" 
d="M590 -31q-111 0 -203 37.5t-156 107.5t-94 175.5t-16 234.5l98 930h176l-98 -936q-11 -96 9.5 -170.5t65 -119.5t104.5 -68t132 -23q149 0 253.5 97t125.5 290l98 930h148q77 0 117 34t49 109l6 72h143l-12 -117q-11 -106 -88.5 -171.5t-192.5 -65.5h-8l-84 -799
q-18 -170 -100.5 -296t-204.5 -188.5t-268 -62.5z" />
    <glyph glyph-name="uhorn" unicode="&#x1b0;" 
d="M111 438l65 627h172l-61 -602q-18 -156 57 -241t209 -85q135 0 225 84.5t107 241.5l63 602h121q77 0 117 34t49 109l6 72h143l-12 -117q-10 -102 -83.5 -167t-182.5 -70l-96 -926h-172l16 170q-55 -83 -148.5 -136.5t-220.5 -53.5q-87 0 -158.5 27.5t-125 81.5t-78 143.5
t-12.5 205.5z" />
    <glyph glyph-name="uni01CD" unicode="&#x1cd;" horiz-adv-x="1409" 
d="M889 1454l416 -1454h-191l-92 336h-676l-162 -336h-190l717 1454h178zM426 500h551l-199 727zM559 1802l90 82l168 -217l207 217l88 -82l-244 -250h-116z" />
    <glyph glyph-name="uni01CE" unicode="&#x1ce;" horiz-adv-x="1292" 
d="M543 -20q-94 0 -178.5 32t-151 91.5t-106 155.5t-39.5 214q0 126 44.5 239.5t120 195t181 129.5t223.5 48q146 0 251 -65t136 -156h10l21 201h172l-111 -1065h-172l21 201h-9q-51 -92 -162 -156.5t-251 -64.5zM242 487q0 -87 28 -155.5t76.5 -110t109.5 -63t130 -21.5
q174 0 298 125t124 316q0 87 -28 155.5t-76.5 110t-109.5 63t-130 21.5q-174 0 -298 -125t-124 -316zM463 1434l90 82l168 -218l207 218l88 -82l-244 -250h-117z" />
    <glyph glyph-name="uni01CF" unicode="&#x1cf;" horiz-adv-x="419" 
d="M66 0l153 1454h176l-153 -1454h-176zM68 1823l90 82l168 -217l206 217l89 -82l-244 -250h-117z" />
    <glyph glyph-name="uni01D0" unicode="&#x1d0;" horiz-adv-x="415" 
d="M66 0l112 1065h172l-112 -1065h-172zM25 1434l90 82l168 -218l206 218l89 -82l-244 -250h-117z" />
    <glyph glyph-name="uni01D1" unicode="&#x1d1;" horiz-adv-x="1681" 
d="M793 -20q-140 0 -263.5 47.5t-215 133t-144.5 212.5t-53 278q0 169 65.5 322t175.5 262.5t260 174.5t312 65q188 0 341 -81t244 -235.5t91 -355.5q0 -169 -65.5 -322t-175.5 -262.5t-260 -174t-312 -64.5zM297 666q0 -155 69 -274t184.5 -180.5t256.5 -61.5q167 0 309 85
t225.5 232t83.5 321q0 155 -68.5 274t-184 181t-257.5 62q-124 0 -238 -50.5t-197.5 -136t-133 -204t-49.5 -248.5zM696 1823l90 82l168 -217l207 217l88 -82l-243 -250h-117z" />
    <glyph glyph-name="uni01D2" unicode="&#x1d2;" horiz-adv-x="1232" 
d="M563 -20q-70 0 -139.5 19.5t-133.5 60t-113.5 98t-79 139.5t-29.5 178q0 126 48 240t129.5 194.5t191.5 128t231 47.5q88 0 174.5 -32t159.5 -91.5t118 -157t45 -216.5q0 -126 -48 -239t-129.5 -193.5t-192.5 -128t-232 -47.5zM236 479q0 -84 30.5 -151.5t80 -108.5
t109 -62.5t122.5 -21.5q57 0 115.5 18t113 55t97 89t68 126.5t25.5 160.5q0 85 -30.5 153t-80.5 109t-110 62.5t-123 21.5q-72 0 -144 -29t-134 -83.5t-100.5 -143t-38.5 -195.5zM432 1434l90 82l168 -218l207 218l88 -82l-244 -250h-116z" />
    <glyph glyph-name="uni01D3" unicode="&#x1d3;" horiz-adv-x="1286" 
d="M590 -31q-111 0 -203 37.5t-156 107.5t-94 175.5t-16 234.5l98 930h176l-98 -936q-11 -96 9.5 -170.5t65 -119.5t104.5 -68t132 -23q149 0 253.5 97t125.5 290l98 930h177l-99 -938q-18 -170 -100.5 -296t-204.5 -188.5t-268 -62.5zM498 1823l90 82l168 -217l207 217
l88 -82l-244 -250h-117z" />
    <glyph glyph-name="uni01D4" unicode="&#x1d4;" 
d="M1120 1065l-110 -1065h-172l16 170q-55 -83 -148.5 -136.5t-220.5 -53.5q-87 0 -158.5 27.5t-125 81.5t-78 143.5t-12.5 205.5l65 627h172l-61 -602q-18 -156 57 -241t209 -85q135 0 225 84.5t107 241.5l63 602h172zM410 1434l90 82l168 -218l206 218l89 -82l-244 -250
h-117z" />
    <glyph glyph-name="uni01D5" unicode="&#x1d5;" horiz-adv-x="1286" 
d="M590 -31q-111 0 -203 37.5t-156 107.5t-94 175.5t-16 234.5l98 930h176l-98 -936q-11 -96 9.5 -170.5t65 -119.5t104.5 -68t132 -23q149 0 253.5 97t125.5 290l98 930h177l-99 -938q-18 -170 -100.5 -296t-204.5 -188.5t-268 -62.5zM412 2042l14 137h754l-15 -137h-753z
M451 1681l18 174h164l-19 -174h-163zM887 1681l18 174h166l-20 -174h-164z" />
    <glyph glyph-name="uni01D6" unicode="&#x1d6;" 
d="M1120 1065l-110 -1065h-172l16 170q-55 -83 -148.5 -136.5t-220.5 -53.5q-87 0 -158.5 27.5t-125 81.5t-78 143.5t-12.5 205.5l65 627h172l-61 -602q-18 -156 57 -241t209 -85q135 0 225 84.5t107 241.5l63 602h172zM324 1653l14 137h754l-15 -137h-753zM362 1292l19 174
h164l-19 -174h-164zM799 1292l18 174h166l-20 -174h-164z" />
    <glyph glyph-name="uni01D7" unicode="&#x1d7;" horiz-adv-x="1286" 
d="M590 -31q-111 0 -203 37.5t-156 107.5t-94 175.5t-16 234.5l98 930h176l-98 -936q-11 -96 9.5 -170.5t65 -119.5t104.5 -68t132 -23q149 0 253.5 97t125.5 290l98 930h177l-99 -938q-18 -170 -100.5 -296t-204.5 -188.5t-268 -62.5zM451 1681l18 174h164l-19 -174h-163z
M694 1948l166 317h154l-170 -317h-150zM887 1681l18 174h166l-20 -174h-164z" />
    <glyph glyph-name="uni01D8" unicode="&#x1d8;" 
d="M1120 1065l-110 -1065h-172l16 170q-55 -83 -148.5 -136.5t-220.5 -53.5q-87 0 -158.5 27.5t-125 81.5t-78 143.5t-12.5 205.5l65 627h172l-61 -602q-18 -156 57 -241t209 -85q135 0 225 84.5t107 241.5l63 602h172zM362 1292l19 174h164l-19 -174h-164zM606 1559
l166 317h154l-170 -317h-150zM799 1292l18 174h166l-20 -174h-164z" />
    <glyph glyph-name="uni01D9" unicode="&#x1d9;" horiz-adv-x="1286" 
d="M590 -31q-111 0 -203 37.5t-156 107.5t-94 175.5t-16 234.5l98 930h176l-98 -936q-11 -96 9.5 -170.5t65 -119.5t104.5 -68t132 -23q149 0 253.5 97t125.5 290l98 930h177l-99 -938q-18 -170 -100.5 -296t-204.5 -188.5t-268 -62.5zM451 1681l18 174h164l-19 -174h-163z
M524 2183l90 82l168 -217l207 217l88 -82l-243 -250h-117zM887 1681l18 174h166l-20 -174h-164z" />
    <glyph glyph-name="uni01DA" unicode="&#x1da;" 
d="M1120 1065l-110 -1065h-172l16 170q-55 -83 -148.5 -136.5t-220.5 -53.5q-87 0 -158.5 27.5t-125 81.5t-78 143.5t-12.5 205.5l65 627h172l-61 -602q-18 -156 57 -241t209 -85q135 0 225 84.5t107 241.5l63 602h172zM362 1292l19 174h164l-19 -174h-164zM436 1794l90 82
l168 -217l207 217l88 -82l-244 -250h-116zM799 1292l18 174h166l-20 -174h-164z" />
    <glyph glyph-name="uni01DB" unicode="&#x1db;" horiz-adv-x="1286" 
d="M590 -31q-111 0 -203 37.5t-156 107.5t-94 175.5t-16 234.5l98 930h176l-98 -936q-11 -96 9.5 -170.5t65 -119.5t104.5 -68t132 -23q149 0 253.5 97t125.5 290l98 930h177l-99 -938q-18 -170 -100.5 -296t-204.5 -188.5t-268 -62.5zM451 1681l18 174h164l-19 -174h-163z
M508 2265h154l165 -317h-149zM887 1681l18 174h166l-20 -174h-164z" />
    <glyph glyph-name="uni01DC" unicode="&#x1dc;" 
d="M1120 1065l-110 -1065h-172l16 170q-55 -83 -148.5 -136.5t-220.5 -53.5q-87 0 -158.5 27.5t-125 81.5t-78 143.5t-12.5 205.5l65 627h172l-61 -602q-18 -156 57 -241t209 -85q135 0 225 84.5t107 241.5l63 602h172zM362 1292l19 174h164l-19 -174h-164zM420 1876h153
l166 -317h-149zM799 1292l18 174h166l-20 -174h-164z" />
    <glyph glyph-name="uni01DE" unicode="&#x1de;" horiz-adv-x="1409" 
d="M889 1454l416 -1454h-191l-92 336h-676l-162 -336h-190l717 1454h178zM426 500h551l-199 727zM473 2021l14 138h754l-14 -138h-754zM512 1661l18 174h164l-18 -174h-164zM948 1661l19 174h166l-21 -174h-164z" />
    <glyph glyph-name="uni01DF" unicode="&#x1df;" horiz-adv-x="1292" 
d="M543 -20q-94 0 -178.5 32t-151 91.5t-106 155.5t-39.5 214q0 126 44.5 239.5t120 195t181 129.5t223.5 48q146 0 251 -65t136 -156h10l21 201h172l-111 -1065h-172l21 201h-9q-51 -92 -162 -156.5t-251 -64.5zM242 487q0 -87 28 -155.5t76.5 -110t109.5 -63t130 -21.5
q174 0 298 125t124 316q0 87 -28 155.5t-76.5 110t-109.5 63t-130 21.5q-174 0 -298 -125t-124 -316zM377 1653l14 137h754l-15 -137h-753zM416 1292l18 174h164l-18 -174h-164zM852 1292l18 174h166l-20 -174h-164z" />
    <glyph glyph-name="Gcaron" unicode="&#x1e6;" horiz-adv-x="1611" 
d="M784 -20q-140 0 -262.5 48.5t-212 134.5t-141 212.5t-51.5 275.5q0 170 65.5 323t175.5 262.5t261 174t317 64.5q73 0 143 -13t144 -43.5t140 -89t112 -139.5l-138 -94q-68 113 -177 162t-232 49q-103 0 -199.5 -32t-174 -91t-136 -137.5t-90 -176.5t-31.5 -204
q0 -234 145 -378.5t369 -144.5q124 0 230 46t188 149t114 252h-413l16 149h584q-4 -173 -67 -318t-165.5 -240.5t-235 -148t-278.5 -52.5zM664 1823l90 82l168 -217l206 217l89 -82l-244 -250h-117z" />
    <glyph glyph-name="gcaron" unicode="&#x1e7;" horiz-adv-x="1292" 
d="M537 -426q-100 0 -185 22t-123 52l17 145q37 -29 110.5 -50.5t165.5 -21.5q81 0 152 19t130.5 58t98 105t47.5 154l15 144h-9q-51 -92 -162.5 -156.5t-250.5 -64.5q-94 0 -178.5 31.5t-151 91t-106 155t-39.5 213.5q0 173 76.5 314.5t206.5 220.5t286 79q146 0 251 -65
t136 -156h10l21 201h172l-105 -1006q-11 -109 -52.5 -195t-99 -139t-133 -88t-149 -49t-151.5 -14zM242 485q0 -85 27.5 -152.5t75.5 -109.5t109.5 -64t131.5 -22q180 0 301 127.5t121 313.5q0 168 -99 259t-245 91q-179 0 -300.5 -128t-121.5 -315zM463 1434l90 82
l168 -218l207 218l88 -82l-244 -250h-117z" />
    <glyph glyph-name="uni01E8" unicode="&#x1e8;" horiz-adv-x="1280" 
d="M66 0l151 1454h176l-84 -809l756 809h207l-633 -674l537 -780h-193l-459 657l-241 -256l-41 -401h-176zM512 1823l90 82l168 -217l207 217l88 -82l-244 -250h-116z" />
    <glyph glyph-name="uni01E9" unicode="&#x1e9;" horiz-adv-x="1114" 
d="M66 0l151 1454h172l-100 -967l561 578h217l-479 -485l422 -580h-197l-338 465l-211 -213l-26 -252h-172zM66 1823l90 82l168 -217l206 217l88 -82l-243 -250h-117z" />
    <glyph glyph-name="uni0218" unicode="&#x218;" horiz-adv-x="1101" 
d="M518 -20q-184 0 -314 100.5t-153 263.5l152 66q22 -123 107.5 -195t215.5 -72q132 0 221 70.5t89 194.5q0 100 -59 156.5t-187 109.5l-101 41q-303 122 -303 368q0 115 60.5 205.5t162 138.5t224.5 48q170 0 280.5 -87.5t143.5 -216.5l-142 -69q-36 102 -108.5 157.5
t-179.5 55.5q-114 0 -189.5 -61.5t-75.5 -161.5q0 -77 49.5 -134.5t161.5 -103.5l97 -39q86 -36 145 -70.5t107.5 -81t72 -107t23.5 -136.5q0 -101 -42 -185.5t-112 -139.5t-159.5 -85t-186.5 -30zM211 -539l209 461h155l-213 -461h-151z" />
    <glyph glyph-name="uni0219" unicode="&#x219;" horiz-adv-x="878" 
d="M397 -20q-153 0 -252.5 77.5t-111.5 210.5l145 39q13 -85 73 -133.5t150 -48.5q86 0 147.5 43t61.5 129q0 63 -39 102t-127 76l-90 37q-221 90 -221 279q0 128 100.5 211t245.5 83q128 0 217 -65t111 -172l-139 -41q-53 133 -193 133q-76 0 -123 -36.5t-47 -104.5
q0 -52 31 -90t102 -68l88 -37q60 -25 102.5 -50.5t80 -60.5t56.5 -82t19 -106q0 -100 -52 -174.5t-139.5 -112.5t-195.5 -38zM100 -539l209 461h156l-213 -461h-152z" />
    <glyph glyph-name="uni021A" unicode="&#x21a;" horiz-adv-x="1083" 
d="M395 0l137 1290h-382l18 164h942l-18 -164h-383l-138 -1290h-176zM201 -539l209 461h155l-213 -461h-151z" />
    <glyph glyph-name="uni021B" unicode="&#x21b;" horiz-adv-x="675" 
d="M393 -12q-111 0 -168.5 56.5t-44.5 172.5l74 707h-143l14 141h143l29 272h172l-29 -272h211l-14 -141h-211l-70 -674q-10 -107 101 -107q42 0 98 19l-14 -137q-52 -37 -148 -37zM104 -539l209 461h156l-213 -461h-152z" />
    <glyph glyph-name="uni0237" unicode="&#x237;" horiz-adv-x="417" 
d="M-283 -395l19 159h47q63 0 109 11.5t85.5 41t63 84t31.5 136.5l108 1028h172l-108 -1040q-13 -119 -50.5 -201.5t-100 -130t-141 -68t-183.5 -20.5h-52z" />
    <glyph glyph-name="uni0259" unicode="&#x259;" 
d="M616 1085q102 0 192.5 -32.5t159.5 -93.5t109.5 -156.5t40.5 -214.5q0 -125 -45.5 -238t-123 -194t-185.5 -128.5t-227 -47.5q-107 0 -199.5 37t-163 113.5t-95.5 192t3 273.5h876q-7 164 -109.5 253t-260.5 89q-198 0 -328 -127l-78 86q80 90 193 139t241 49zM221 465
q-4 -107 41 -184.5t119.5 -114.5t167.5 -37q148 0 256 93.5t141 242.5h-725z" />
    <glyph glyph-name="uni02BC" unicode="&#x2bc;" horiz-adv-x="428" 
d="M104 993l209 461h156l-213 -461h-152z" />
    <glyph glyph-name="circumflex" unicode="&#x2c6;" horiz-adv-x="593" 
d="M184 1184l-88 82l244 250h117l192 -250l-90 -82l-166 217z" />
    <glyph glyph-name="caron" unicode="&#x2c7;" horiz-adv-x="593" 
d="M307 1184l-192 250l90 82l168 -218l207 218l88 -82l-244 -250h-117z" />
    <glyph glyph-name="breve" unicode="&#x2d8;" horiz-adv-x="630" 
d="M391 1221q-76 0 -133 25.5t-87.5 68.5t-42.5 94.5t-5 106.5h119q-7 -76 30.5 -129.5t130.5 -53.5q90 0 136 53t55 130h119q-5 -56 -27 -107t-59.5 -94t-98.5 -68.5t-137 -25.5z" />
    <glyph glyph-name="dotaccent" unicode="&#x2d9;" horiz-adv-x="215" 
d="M100 1292l19 174h172l-19 -174h-172z" />
    <glyph glyph-name="ring" unicode="&#x2da;" horiz-adv-x="423" 
d="M289 1217q-76 0 -126 50.5t-50 123.5q0 82 60.5 142t143.5 60q74 0 125.5 -51.5t51.5 -124.5q0 -81 -61.5 -140.5t-143.5 -59.5zM231 1399q0 -29 19 -47.5t47 -18.5q34 0 57 22t23 56q0 29 -20 48.5t-48 19.5q-32 0 -55 -23t-23 -57z" />
    <glyph glyph-name="ogonek" unicode="&#x2db;" horiz-adv-x="425" 
d="M229 -406q-40 -20 -93 -21.5t-101.5 14.5t-82.5 58.5t-34 102.5q0 100 85.5 169t217.5 101l150 -18q-126 -28 -206.5 -85.5t-80.5 -133.5q0 -61 47.5 -90t106.5 -10z" />
    <glyph glyph-name="tilde" unicode="&#x2dc;" horiz-adv-x="655" 
d="M543 1219q-35 0 -64.5 12.5t-50 30t-39 35t-40 30t-44.5 12.5q-32 0 -54.5 -22.5t-27.5 -59.5h-127q10 101 63 154t126 53q35 0 64 -12.5t49.5 -31t39 -36.5t40 -30.5t44.5 -12.5q32 0 54.5 23.5t25.5 60.5h127q-10 -101 -61.5 -153.5t-124.5 -52.5z" />
    <glyph glyph-name="hungarumlaut" unicode="&#x2dd;" horiz-adv-x="636" 
d="M399 1198l166 318h154l-170 -318h-150zM90 1198l166 318h154l-170 -318h-150z" />
    <glyph glyph-name="gravecomb" unicode="&#x300;" horiz-adv-x="0" 
d="M293 1198l-170 318h153l166 -318h-149z" />
    <glyph glyph-name="acutecomb" unicode="&#x301;" horiz-adv-x="0" 
d="M90 1198l166 318h154l-170 -318h-150z" />
    <glyph glyph-name="uni0302" unicode="&#x302;" horiz-adv-x="0" 
d="M184 1184l-88 82l244 250h117l192 -250l-90 -82l-166 217z" />
    <glyph glyph-name="tildecomb" unicode="&#x303;" horiz-adv-x="0" 
d="M543 1219q-35 0 -64.5 12.5t-50 30t-39 35t-40 30t-44.5 12.5q-32 0 -54.5 -22.5t-27.5 -59.5h-127q10 101 63 154t126 53q35 0 64 -12.5t49.5 -31t39 -36.5t40 -30.5t44.5 -12.5q32 0 54.5 23.5t25.5 60.5h127q-10 -101 -61.5 -153.5t-124.5 -52.5z" />
    <glyph glyph-name="uni0304" unicode="&#x304;" horiz-adv-x="0" 
d="M100 1292l15 138h753l-14 -138h-754z" />
    <glyph glyph-name="uni0306" unicode="&#x306;" horiz-adv-x="0" 
d="M391 1221q-76 0 -133 25.5t-87.5 68.5t-42.5 94.5t-5 106.5h119q-7 -76 30.5 -129.5t130.5 -53.5q90 0 136 53t55 130h119q-5 -56 -27 -107t-59.5 -94t-98.5 -68.5t-137 -25.5z" />
    <glyph glyph-name="uni0307" unicode="&#x307;" horiz-adv-x="0" 
d="M100 1292l19 174h172l-19 -174h-172z" />
    <glyph glyph-name="uni0308" unicode="&#x308;" horiz-adv-x="0" 
d="M537 1292l18 174h166l-21 -174h-163zM100 1292l19 174h164l-19 -174h-164z" />
    <glyph glyph-name="hookabovecomb" unicode="&#x309;" horiz-adv-x="0" 
d="M270 1219l11 116h55q36 0 60 22.5t24 53.5q0 25 -17.5 42t-44.5 17q-42 0 -63 -40l-90 67q25 45 68.5 70.5t95.5 25.5q75 0 125.5 -49.5t50.5 -122.5q0 -84 -62.5 -143t-150.5 -59h-62z" />
    <glyph glyph-name="uni030A" unicode="&#x30a;" horiz-adv-x="0" 
d="M289 1217q-76 0 -126 50.5t-50 123.5q0 82 60.5 142t143.5 60q74 0 125.5 -51.5t51.5 -124.5q0 -81 -61.5 -140.5t-143.5 -59.5zM231 1399q0 -29 19 -47.5t47 -18.5q34 0 57 22t23 56q0 29 -20 48.5t-48 19.5q-32 0 -55 -23t-23 -57z" />
    <glyph glyph-name="uni030B" unicode="&#x30b;" horiz-adv-x="0" 
d="M399 1198l166 318h154l-170 -318h-150zM90 1198l166 318h154l-170 -318h-150z" />
    <glyph glyph-name="uni030C" unicode="&#x30c;" horiz-adv-x="0" 
d="M307 1184l-192 250l90 82l168 -218l207 218l88 -82l-244 -250h-117z" />
    <glyph glyph-name="uni0312" unicode="&#x312;" horiz-adv-x="0" 
d="M90 1198l166 318h154l-170 -318h-150z" />
    <glyph glyph-name="uni031B" unicode="&#x31b;" horiz-adv-x="0" 
d="M158 1065l14 139h117q77 0 117 34.5t49 109.5l6 71h143l-12 -116q-11 -106 -88.5 -172t-192.5 -66h-153z" />
    <glyph glyph-name="dotbelowcomb" unicode="&#x323;" horiz-adv-x="0" 
d="M12 -315l19 163h159l-16 -163h-162z" />
    <glyph glyph-name="uni0326" unicode="&#x326;" horiz-adv-x="0" 
d="M-88 -539l209 461h155l-213 -461h-151z" />
    <glyph glyph-name="uni0327" unicode="&#x327;" horiz-adv-x="0" 
d="M-61 -362q85 -3 140.5 21.5t55.5 84.5q0 102 -160 80l-24 51l92 125h137l-69 -86q73 0 118 -42t45 -112q0 -73 -51.5 -125t-130.5 -70.5t-162 -0.5z" />
    <glyph glyph-name="uni0328" unicode="&#x328;" horiz-adv-x="0" 
d="M229 -406q-40 -20 -93 -21.5t-101.5 14.5t-82.5 58.5t-34 102.5q0 100 85.5 169t217.5 101l150 -18q-126 -28 -206.5 -85.5t-80.5 -133.5q0 -61 47.5 -90t106.5 -10z" />
    <glyph glyph-name="uni0394" unicode="&#x394;" horiz-adv-x="1501" 
d="M-12 0l776 1434h49l471 -1434h-1296zM238 154h837l-313 985z" />
    <glyph glyph-name="uni03A9" unicode="&#x3a9;" horiz-adv-x="1622" 
d="M96 0l17 168h223l16 16q-266 230 -229 553q16 151 90.5 285.5t182.5 226.5t241 145.5t264 53.5q107 0 208.5 -34t185 -99.5t144 -152.5t88.5 -201t15 -238q-35 -321 -340 -545l12 -10h218l-17 -168h-430l25 242l86 63q111 79 183 190t85 242q13 119 -20.5 222t-100 172
t-157 108t-189.5 39q-81 0 -162.5 -25t-154.5 -74t-132 -115t-98 -154.5t-49 -186.5q-13 -127 32.5 -237t137.5 -187l78 -57l-25 -242h-428z" />
    <glyph glyph-name="uni03BC" unicode="&#x3bc;" horiz-adv-x="1204" 
d="M25 -389l153 1454h172l-63 -616q-18 -158 45 -235t184 -77q69 0 135 29.5t115 75.5t83.5 97.5t49.5 100.5l68 625h172l-113 -1065h-172l27 242q-12 -32 -44.5 -72.5t-82 -83.5t-123.5 -72.5t-154 -29.5q-139 0 -227 79l-53 -452h-172z" />
    <glyph glyph-name="pi" unicode="&#x3c0;" horiz-adv-x="1390" 
d="M1016 -12q-61 0 -109 18.5t-79 67.5t-23 123l76 714h-414l-96 -911h-176l96 911h-205l16 154h1174l-16 -154h-203l-70 -661q-7 -68 8.5 -88.5t59.5 -20.5q67 0 147 39l-8 -157q-75 -35 -178 -35z" />
    <glyph glyph-name="uni0400" unicode="&#x400;" horiz-adv-x="1009" 
d="M66 0l151 1454h780l-16 -164h-604l-51 -479h514l-17 -162h-514l-51 -485h623l-17 -164h-798zM350 1905h154l166 -318h-150z" />
    <glyph glyph-name="uni0401" unicode="&#x401;" horiz-adv-x="1009" 
d="M66 0l151 1454h780l-16 -164h-604l-51 -479h514l-17 -162h-514l-51 -485h623l-17 -164h-798zM319 1681l19 174h164l-19 -174h-164zM756 1681l18 174h166l-20 -174h-164z" />
    <glyph glyph-name="uni0403" unicode="&#x403;" horiz-adv-x="1036" 
d="M66 0l153 1454h834l-19 -164h-657l-135 -1290h-176zM594 1587l166 318h153l-170 -318h-149z" />
    <glyph glyph-name="uni0404" unicode="&#x404;" horiz-adv-x="1486" 
d="M795 -20q-142 0 -266.5 48t-215.5 134t-143.5 213t-52.5 278q0 169 66.5 321.5t177.5 262t262 174t315 64.5q73 0 142.5 -13t143 -43.5t139.5 -89t112 -139.5l-138 -94q-69 113 -178 161t-231 48q-226 0 -399.5 -141.5t-217.5 -360.5l414 2l-16 -154l-412 -4
q5 -150 75 -264t185.5 -173.5t259.5 -59.5q274 0 445 208l116 -94q-63 -81 -139 -139.5t-154 -88.5t-148 -43t-142 -13z" />
    <glyph glyph-name="uni0405" unicode="&#x405;" horiz-adv-x="1101" 
d="M518 -20q-184 0 -314 100.5t-153 263.5l152 66q22 -123 107.5 -195t215.5 -72q132 0 221 70.5t89 194.5q0 100 -59 156.5t-187 109.5l-101 41q-303 122 -303 368q0 115 60.5 205.5t162 138.5t224.5 48q170 0 280.5 -87.5t143.5 -216.5l-142 -69q-36 102 -108.5 157.5
t-179.5 55.5q-114 0 -189.5 -61.5t-75.5 -161.5q0 -77 49.5 -134.5t161.5 -103.5l97 -39q86 -36 145 -70.5t107.5 -81t72 -107t23.5 -136.5q0 -101 -42 -185.5t-112 -139.5t-159.5 -85t-186.5 -30z" />
    <glyph glyph-name="uni0406" unicode="&#x406;" horiz-adv-x="419" 
d="M66 0l153 1454h176l-153 -1454h-176z" />
    <glyph glyph-name="uni0407" unicode="&#x407;" horiz-adv-x="419" 
d="M66 0l153 1454h176l-153 -1454h-176zM20 1681l19 174h164l-19 -174h-164zM457 1681l18 174h166l-20 -174h-164z" />
    <glyph glyph-name="uni0408" unicode="&#x408;" horiz-adv-x="991" 
d="M389 -20q-128 0 -225.5 52t-140.5 142l124 115q80 -139 244 -139q116 0 196.5 73.5t98.5 235.5l105 995h176l-107 -1016q-10 -97 -41 -175t-75.5 -130t-102.5 -87t-120.5 -50.5t-131.5 -15.5z" />
    <glyph glyph-name="uni040C" unicode="&#x40c;" horiz-adv-x="1280" 
d="M66 0l151 1454h176l-84 -809l756 809h207l-633 -674l537 -780h-193l-459 657l-241 -256l-41 -401h-176zM682 1587l166 318h153l-170 -318h-149z" />
    <glyph glyph-name="uni040D" unicode="&#x40d;" horiz-adv-x="1415" 
d="M66 0l153 1454h176l-123 -1159l949 1159h170l-154 -1454h-176l123 1157l-948 -1157h-170zM549 1905h153l166 -318h-149z" />
    <glyph glyph-name="uni040E" unicode="&#x40e;" horiz-adv-x="1359" 
d="M264 0l316 481l-424 973h190l344 -799l508 799h199l-936 -1454h-197zM526 1905h119q-7 -76 31 -129.5t131 -53.5q90 0 135.5 53t54.5 130h119q-5 -56 -26.5 -107t-59.5 -94t-98.5 -68.5t-136.5 -25.5t-133 25.5t-88 68.5t-43 94.5t-5 106.5z" />
    <glyph glyph-name="uni0410" unicode="&#x410;" horiz-adv-x="1409" 
d="M889 1454l416 -1454h-191l-92 336h-676l-162 -336h-190l717 1454h178zM426 500h551l-199 727z" />
    <glyph glyph-name="uni0411" unicode="&#x411;" horiz-adv-x="1189" 
d="M66 0l153 1454h846l-18 -164h-670l-39 -370h305q220 0 340.5 -113.5t120.5 -306.5q0 -107 -38 -198.5t-108 -158.5t-174.5 -105t-230.5 -38h-487zM260 164h287q172 0 276.5 88t104.5 242q0 133 -81 200.5t-231 67.5h-294z" />
    <glyph glyph-name="uni0412" unicode="&#x412;" horiz-adv-x="1175" 
d="M66 0l151 1454h498q174 0 266 -87.5t92 -225.5q0 -117 -66.5 -206.5t-183.5 -127.5q122 -30 191 -122.5t69 -233.5q0 -199 -139.5 -325t-398.5 -126h-479zM258 158h293q171 0 265.5 80t94.5 221q0 124 -76 192t-227 68h-291zM332 858h284q128 0 206.5 70t78.5 178
q0 91 -58.5 140.5t-176.5 49.5h-289z" />
    <glyph glyph-name="uni0413" unicode="&#x413;" horiz-adv-x="1036" 
d="M66 0l153 1454h834l-19 -164h-657l-135 -1290h-176z" />
    <glyph glyph-name="uni0414" unicode="&#x414;" horiz-adv-x="1576" 
d="M186 0l-16 -141h-176l33 305h131q35 46 63 116t45 136t34.5 189t27 204.5t26.5 253.5l41 391h1022l-135 -1290h191l-33 -305h-176l16 141h-1094zM342 164h764l119 1126h-670l-25 -227q-45 -425 -70 -564q-43 -231 -118 -335z" />
    <glyph glyph-name="uni0415" unicode="&#x415;" horiz-adv-x="1009" 
d="M66 0l151 1454h780l-16 -164h-604l-51 -479h514l-17 -162h-514l-51 -485h623l-17 -164h-798z" />
    <glyph glyph-name="uni0416" unicode="&#x416;" horiz-adv-x="2207" 
d="M-6 0l731 786l-520 668h217l608 -780l84 780h180l-84 -780l772 780h224l-664 -668l561 -786h-205l-477 666l-235 -228l-45 -438h-180l47 438l-183 228l-612 -666h-219z" />
    <glyph glyph-name="uni0417" unicode="&#x417;" horiz-adv-x="1196" 
d="M543 -20q-230 0 -359.5 125t-107.5 323h180q-10 -128 79 -204.5t232 -76.5q150 0 250.5 80t100.5 215q0 126 -94 190t-267 66l14 133q156 8 254.5 80.5t98.5 188.5q0 98 -71 152.5t-181 54.5q-122 0 -207.5 -70t-99.5 -205h-183q14 137 84 238t179 153t243 52
q185 0 302.5 -94t117.5 -246q0 -132 -87.5 -229.5t-219.5 -129.5q124 -15 210.5 -103.5t86.5 -236.5q0 -134 -76.5 -239.5t-202.5 -161t-276 -55.5z" />
    <glyph glyph-name="uni0418" unicode="&#x418;" horiz-adv-x="1415" 
d="M66 0l153 1454h176l-123 -1159l949 1159h170l-154 -1454h-176l123 1157l-948 -1157h-170z" />
    <glyph glyph-name="uni0419" unicode="&#x419;" horiz-adv-x="1415" 
d="M866 1589q-76 0 -133 25.5t-87.5 68.5t-42.5 94.5t-5 106.5h119q-7 -76 31 -129t131 -53q90 0 135.5 52.5t54.5 129.5h119q-5 -56 -27 -107t-59.5 -94t-98.5 -68.5t-137 -25.5zM66 0l153 1454h176l-123 -1159l949 1159h170l-154 -1454h-176l123 1157l-948 -1157h-170z
" />
    <glyph glyph-name="uni041A" unicode="&#x41a;" horiz-adv-x="1280" 
d="M66 0l151 1454h176l-84 -809l756 809h207l-633 -674l537 -780h-193l-459 657l-241 -256l-41 -401h-176z" />
    <glyph glyph-name="uni041B" unicode="&#x41b;" horiz-adv-x="1443" 
d="M139 -12q-101 0 -157 41l14 143q67 -31 119 -31q94 0 104 103l127 1210h1073l-151 -1454h-176l135 1290h-721l-113 -1069q-23 -233 -254 -233z" />
    <glyph glyph-name="uni041C" unicode="&#x41c;" horiz-adv-x="1730" 
d="M66 0l153 1454h176l439 -1216l690 1216h182l-154 -1454h-176l113 1075l-602 -1075h-150l-381 1075l-114 -1075h-176z" />
    <glyph glyph-name="uni041D" unicode="&#x41d;" horiz-adv-x="1318" 
d="M963 0l65 625h-721l-65 -625h-176l153 1454h176l-69 -666h721l69 666h176l-153 -1454h-176z" />
    <glyph glyph-name="uni041E" unicode="&#x41e;" horiz-adv-x="1681" 
d="M793 -20q-140 0 -263.5 47.5t-215 133t-144.5 212.5t-53 278q0 169 65.5 322t175.5 262.5t260 174.5t312 65q188 0 341 -81t244 -235.5t91 -355.5q0 -169 -65.5 -322t-175.5 -262.5t-260 -174t-312 -64.5zM297 666q0 -155 69 -274t184.5 -180.5t256.5 -61.5q167 0 309 85
t225.5 232t83.5 321q0 155 -68.5 274t-184 181t-257.5 62q-124 0 -238 -50.5t-197.5 -136t-133 -204t-49.5 -248.5z" />
    <glyph glyph-name="uni041F" unicode="&#x41f;" horiz-adv-x="1320" 
d="M66 0l153 1454h1077l-153 -1454h-176l135 1290h-725l-135 -1290h-176z" />
    <glyph glyph-name="uni0420" unicode="&#x420;" horiz-adv-x="1175" 
d="M66 0l151 1454h473q215 0 334 -116.5t121 -313.5q0 -149 -68 -266.5t-194 -184.5t-289 -67h-299l-53 -506h-176zM311 672h283q168 0 269.5 89.5t101.5 250.5q-1 139 -81 208.5t-225 69.5h-282z" />
    <glyph glyph-name="uni0421" unicode="&#x421;" horiz-adv-x="1486" 
d="M795 -20q-142 0 -266.5 48t-215.5 134t-143.5 213t-52.5 278q0 169 66.5 321.5t177.5 262t262 174t315 64.5q73 0 142.5 -13t143 -43.5t139.5 -89t112 -139.5l-138 -94q-69 113 -178 161t-231 48q-129 0 -245.5 -49.5t-201 -133.5t-134.5 -202t-50 -250
q0 -236 147.5 -378t372.5 -142q274 0 445 208l116 -94q-63 -81 -139 -139.5t-154 -88.5t-148 -43t-142 -13z" />
    <glyph glyph-name="uni0422" unicode="&#x422;" horiz-adv-x="1083" 
d="M395 0l137 1290h-382l18 164h942l-18 -164h-383l-138 -1290h-176z" />
    <glyph glyph-name="uni0423" unicode="&#x423;" horiz-adv-x="1359" 
d="M264 0l316 481l-424 973h190l344 -799l508 799h199l-936 -1454h-197z" />
    <glyph glyph-name="uni0424" unicode="&#x424;" horiz-adv-x="1708" 
d="M709 0l14 143q-299 3 -462 146t-163 383q0 142 57 262t156.5 202t237 128t297.5 47l14 143h176l-14 -143q300 -1 464.5 -144t164.5 -381q0 -193 -98 -340t-268 -225t-386 -78l-14 -143h-176zM276 680q0 -177 113.5 -279.5t349.5 -103.5l90 860q-256 -2 -404.5 -128
t-148.5 -349zM915 297q260 2 410 128t150 349q0 180 -113.5 281t-355.5 102z" />
    <glyph glyph-name="uni0425" unicode="&#x425;" horiz-adv-x="1331" 
d="M-6 0l590 745l-410 709h207l321 -557l439 557h215l-563 -709l434 -745h-207l-344 594l-467 -594h-215z" />
    <glyph glyph-name="uni0426" unicode="&#x426;" horiz-adv-x="1429" 
d="M1122 -141l15 141h-1071l153 1454h176l-135 -1290h719l135 1290h176l-135 -1290h176l-33 -305h-176z" />
    <glyph glyph-name="uni0427" unicode="&#x427;" horiz-adv-x="1234" 
d="M526 393q-92 0 -170 28t-137.5 82.5t-88.5 144.5t-17 206l63 600h176l-59 -573q-17 -155 65 -240.5t232 -85.5q148 0 255 81.5t128 227.5l61 590h176l-151 -1454h-176l61 592q-55 -77 -163.5 -138t-254.5 -61z" />
    <glyph glyph-name="uni0428" unicode="&#x428;" horiz-adv-x="2029" 
d="M66 0l153 1454h176l-135 -1290h629l135 1290h176l-135 -1290h629l135 1290h176l-154 -1454h-1785z" />
    <glyph glyph-name="uni0429" unicode="&#x429;" horiz-adv-x="2142" 
d="M1837 -141l14 141h-1785l153 1454h176l-135 -1290h629l135 1290h176l-135 -1290h629l135 1290h176l-135 -1290h174l-33 -305h-174z" />
    <glyph glyph-name="uni042A" unicode="&#x42a;" horiz-adv-x="1314" 
d="M205 0l137 1290h-262l18 164h437l-58 -534h289q221 0 342 -113.5t121 -308.5q0 -218 -150 -358t-403 -140h-471zM399 164h277q168 0 272.5 87t104.5 243q0 134 -81.5 201t-226.5 67h-284z" />
    <glyph glyph-name="uni042B" unicode="&#x42b;" horiz-adv-x="1601" 
d="M66 0l153 1454h176l-57 -534h289q221 0 342 -113.5t121 -308.5q0 -218 -150 -358t-403 -140h-471zM260 164h277q167 0 271.5 87t104.5 243q0 134 -81 201t-226 67h-284zM1247 0l154 1454h176l-154 -1454h-176z" />
    <glyph glyph-name="uni042C" unicode="&#x42c;" horiz-adv-x="1175" 
d="M66 0l153 1454h176l-57 -534h289q221 0 342 -113.5t121 -308.5q0 -218 -150 -358t-403 -140h-471zM260 164h277q167 0 271.5 87t104.5 243q0 134 -81 201t-226 67h-284z" />
    <glyph glyph-name="uni042D" unicode="&#x42d;" horiz-adv-x="1484" 
d="M618 -20q-74 0 -145 13.5t-145 44t-140 88.5t-114 138l139 94q36 -58 86.5 -101t107 -66t112 -33.5t112.5 -10.5q226 0 392.5 143.5t209.5 364.5l-410 -4l17 154l405 4q-6 227 -145.5 362.5t-349.5 135.5q-122 0 -242.5 -51.5t-218.5 -163.5l-119 98q124 154 282 219.5
t316 65.5q188 0 338 -82t237 -236t87 -354q0 -170 -64.5 -322.5t-173.5 -262t-259 -174t-315 -64.5z" />
    <glyph glyph-name="uni042E" unicode="&#x42e;" horiz-adv-x="2111" 
d="M66 0l153 1454h176l-69 -657h233q35 191 150 346t286.5 243.5t364.5 88.5q188 0 341 -81t244 -235.5t91 -355.5q0 -169 -65.5 -322t-175.5 -262.5t-260 -174t-312 -64.5q-187 0 -339 79.5t-243.5 232t-93.5 351.5h-238l-67 -643h-176zM727 666q0 -155 69 -274
t184.5 -180.5t256.5 -61.5q167 0 309 85t225.5 232t83.5 321q0 155 -68.5 274t-183.5 181t-257 62q-124 0 -238 -50.5t-197.5 -136t-133.5 -204t-50 -248.5z" />
    <glyph glyph-name="uni042F" unicode="&#x42f;" horiz-adv-x="1269" 
d="M475 565q-129 38 -200.5 144.5t-71.5 253.5q0 215 146 353t392 138h504l-153 -1454h-177l58 535h-334l-395 -535h-199zM379 971q0 -136 75.5 -207.5t215.5 -71.5h319l62 598h-320q-163 0 -257.5 -83.5t-94.5 -235.5z" />
    <glyph glyph-name="uni0430" unicode="&#x430;" horiz-adv-x="1292" 
d="M543 -20q-94 0 -178.5 32t-151 91.5t-106 155.5t-39.5 214q0 126 44.5 239.5t120 195t181 129.5t223.5 48q146 0 251 -65t136 -156h10l21 201h172l-111 -1065h-172l21 201h-9q-51 -92 -162 -156.5t-251 -64.5zM242 487q0 -87 28 -155.5t76.5 -110t109.5 -63t130 -21.5
q174 0 298 125t124 316q0 87 -28 155.5t-76.5 110t-109.5 63t-130 21.5q-174 0 -298 -125t-124 -316z" />
    <glyph glyph-name="uni0431" unicode="&#x431;" horiz-adv-x="1277" 
d="M633 -20q-144 0 -243.5 65t-127.5 160l-24 -205h-172l114 1098q19 170 115.5 253t290.5 83h231q68 0 97 8t49 35h176q-34 -106 -101 -147.5t-186 -41.5h-260q-220 0 -240 -198l-22 -218q47 87 158 149t247 62q93 0 177 -31.5t151 -90.5t107 -155t40 -216
q0 -128 -46.5 -242t-124.5 -194t-184 -127t-222 -47zM283 475q0 -84 28 -151t75 -107t106 -61t124 -21q83 0 160.5 33t136 90t94 141.5t35.5 180.5q0 86 -28.5 154t-77.5 109.5t-109 63t-127 21.5q-117 0 -213 -61.5t-150 -165t-54 -226.5z" />
    <glyph glyph-name="uni0432" unicode="&#x432;" horiz-adv-x="1148" 
d="M66 0l112 1065h520q152 0 235 -66t83 -178q0 -164 -166 -235q197 -69 197 -260q0 -83 -36.5 -146.5t-102.5 -102t-152.5 -58t-190.5 -19.5h-499zM254 147h338q280 0 280 189q0 166 -237 166h-342zM307 639h324q102 0 156.5 44t54.5 114q0 121 -178 121h-328z" />
    <glyph glyph-name="uni0433" unicode="&#x433;" horiz-adv-x="966" 
d="M66 0l112 1065h762l-16 -154h-590l-96 -911h-172z" />
    <glyph glyph-name="uni0434" unicode="&#x434;" horiz-adv-x="1306" 
d="M-4 -129l31 283l90 4q29 33 52 86.5t35.5 94.5t26.5 132t18 124.5t17 145.5l35 324h879l-97 -911h117l-29 -283h-174l15 129h-830l-12 -129h-174zM289 150l622 4l80 757h-534l-19 -178q-13 -125 -20.5 -180.5t-24.5 -149t-42.5 -152.5t-61.5 -101z" />
    <glyph glyph-name="uni0435" unicode="&#x435;" 
d="M569 -20q-102 0 -192 32.5t-159.5 93.5t-109.5 156.5t-40 214.5q0 125 45.5 238t123 194t185.5 128.5t227 47.5q107 0 199.5 -37t163 -113.5t95.5 -192.5t-3 -273h-877q7 -164 110 -253t261 -89q198 0 328 127l78 -86q-80 -90 -193 -139t-242 -49zM240 600h725
q4 107 -41 184.5t-119.5 114.5t-167.5 37q-148 0 -256 -93.5t-141 -242.5z" />
    <glyph glyph-name="uni0436" unicode="&#x436;" horiz-adv-x="1820" 
d="M-4 0l579 598l-397 467h217l432 -516l54 516h172l-54 -520l543 520h217l-495 -467l452 -598h-209l-364 483l-166 -157l-35 -326h-172l35 328l-133 155l-467 -483h-209z" />
    <glyph glyph-name="uni0437" unicode="&#x437;" horiz-adv-x="1040" 
d="M463 -20q-193 0 -303.5 98t-93.5 260h163q-11 -94 57.5 -153.5t192.5 -59.5q121 0 202 55.5t81 147.5q0 88 -75.5 132t-209.5 44l12 117q118 2 189.5 45.5t71.5 126.5q0 69 -51.5 107t-141.5 38q-100 0 -165.5 -46.5t-72.5 -125.5h-165q14 144 126.5 230.5t292.5 86.5
q163 0 257 -72t94 -184q0 -93 -64 -162t-168 -94q100 -15 170 -77.5t70 -169.5q0 -103 -66 -182.5t-172 -120.5t-231 -41z" />
    <glyph glyph-name="uni0438" unicode="&#x438;" horiz-adv-x="1181" 
d="M66 0l110 1065h172l-84 -813l680 813h172l-110 -1065h-172l84 813l-680 -813h-172z" />
    <glyph glyph-name="uni0439" unicode="&#x439;" horiz-adv-x="1181" 
d="M66 0l110 1065h172l-84 -813l680 813h172l-110 -1065h-172l84 813l-680 -813h-172zM395 1516h119q-7 -76 31 -129.5t131 -53.5q90 0 135.5 53t54.5 130h119q-5 -56 -26.5 -107t-59.5 -94t-98.5 -68.5t-136.5 -25.5t-133 25.5t-88 68.5t-43 94.5t-5 106.5z" />
    <glyph glyph-name="uni043A" unicode="&#x43a;" horiz-adv-x="1116" 
d="M66 0l110 1065h172l-53 -520l543 520h217l-496 -467l453 -598h-209l-365 483l-166 -157l-34 -326h-172z" />
    <glyph glyph-name="uni043B" unicode="&#x43b;" horiz-adv-x="1292" 
d="M156 -12q-101 0 -174 39l14 139q59 -27 115 -27q55 0 80 23.5t30 73.5l88 829h918l-113 -1065h-172l96 911h-573l-72 -690q-7 -70 -28 -117.5t-54 -72t-70 -34t-85 -9.5z" />
    <glyph glyph-name="uni043C" unicode="&#x43c;" horiz-adv-x="1437" 
d="M66 0l110 1065h189l321 -842l496 842h190l-110 -1065h-172l77 752l-434 -752h-129l-287 752l-79 -752h-172z" />
    <glyph glyph-name="uni043D" unicode="&#x43d;" horiz-adv-x="1163" 
d="M66 0l112 1065h172l-47 -467h574l49 467h172l-113 -1065h-172l47 444h-573l-49 -444h-172z" />
    <glyph glyph-name="uni043E" unicode="&#x43e;" horiz-adv-x="1232" 
d="M563 -20q-70 0 -139.5 19.5t-133.5 60t-113.5 98t-79 139.5t-29.5 178q0 126 48 240t129.5 194.5t191.5 128t231 47.5q88 0 174.5 -32t159.5 -91.5t118 -157t45 -216.5q0 -126 -48 -239t-129.5 -193.5t-192.5 -128t-232 -47.5zM236 479q0 -84 30.5 -151.5t80 -108.5
t109 -62.5t122.5 -21.5q57 0 115.5 18t113 55t97 89t68 126.5t25.5 160.5q0 85 -30.5 153t-80.5 109t-110 62.5t-123 21.5q-72 0 -144 -29t-134 -83.5t-100.5 -143t-38.5 -195.5z" />
    <glyph glyph-name="uni043F" unicode="&#x43f;" horiz-adv-x="1169" 
d="M66 0l112 1065h926l-113 -1065h-174l96 911h-579l-96 -911h-172z" />
    <glyph glyph-name="uni0440" unicode="&#x440;" horiz-adv-x="1292" 
d="M25 -389l151 1454h172l-20 -201h10q49 91 163.5 156t254.5 65q92 0 175.5 -31t149.5 -89.5t105 -153t39 -211.5q0 -170 -74.5 -312t-204.5 -225t-287 -83q-143 0 -250.5 65.5t-140.5 155.5h-8l-61 -590h-174zM285 483q0 -87 28.5 -155t77.5 -108.5t109 -61.5t127 -21
q174 0 300 126.5t126 318.5q0 87 -28.5 155t-77.5 108.5t-109 61.5t-127 21q-174 0 -300 -126.5t-126 -318.5z" />
    <glyph glyph-name="uni0441" unicode="&#x441;" horiz-adv-x="1148" 
d="M573 -20q-101 0 -191.5 32.5t-160.5 93.5t-111.5 156.5t-41.5 212.5q0 169 81 309.5t219 220.5t302 80q148 0 266 -68t174 -194l-139 -78q-41 86 -124 134.5t-185 48.5q-106 0 -200.5 -50t-157 -150.5t-62.5 -229.5q0 -169 101 -265t247 -96q101 0 189 48t147 134
l123 -77q-82 -128 -206 -195t-270 -67z" />
    <glyph glyph-name="uni0442" unicode="&#x442;" horiz-adv-x="921" 
d="M317 0l97 911h-310l17 154h790l-16 -154h-307l-96 -911h-175z" />
    <glyph glyph-name="uni0443" unicode="&#x443;" horiz-adv-x="1163" 
d="M223 -389l217 407l-336 1047h179l266 -850l438 850h182l-770 -1454h-176z" />
    <glyph glyph-name="uni0444" unicode="&#x444;" horiz-adv-x="2158" 
d="M897 -389l61 590h-10q-49 -91 -164 -156t-254 -65q-91 0 -173 31t-148 89.5t-104.5 153t-38.5 211.5q0 169 75 311t208 225.5t294 83.5q141 0 243 -65.5t132 -155.5h10l66 621h172l-66 -621h10q49 91 164 156t254 65q91 0 173.5 -31t148 -89t104.5 -151.5t39 -209.5
q0 -171 -75 -314t-208 -226.5t-294 -83.5q-141 0 -243 65.5t-132 155.5h-11l-61 -590h-172zM240 483q0 -112 47.5 -192t121.5 -117t164 -37q174 0 298 124t124 321q0 84 -28 151t-75.5 109t-108 64t-128.5 22q-171 0 -293 -124t-122 -321zM1163 483q0 -84 28 -151t75.5 -109
t108 -64t128.5 -22q83 0 158.5 32t132.5 89t91 141t34 183q0 112 -48 192t-122 117t-164 37q-174 0 -298 -124t-124 -321z" />
    <glyph glyph-name="uni0445" unicode="&#x445;" horiz-adv-x="1099" 
d="M-16 0l471 545l-330 520h194l246 -393l328 393h203l-443 -520l353 -545h-199l-264 416l-353 -416h-206z" />
    <glyph glyph-name="uni0446" unicode="&#x446;" horiz-adv-x="1167" 
d="M864 -141l15 141h-813l112 1065h172l-96 -911h524l96 911h175l-97 -911h115l-31 -295h-172z" />
    <glyph glyph-name="uni0447" unicode="&#x447;" horiz-adv-x="1159" 
d="M496 242q-63 0 -119 12.5t-106 43t-83.5 75.5t-49 115t-5.5 157l43 420h172l-41 -412q-13 -121 54 -188.5t192 -67.5q118 0 207.5 61t113.5 167l46 440h174l-111 -1065h-174l41 389q-55 -65 -145 -106t-209 -41z" />
    <glyph glyph-name="uni0448" unicode="&#x448;" horiz-adv-x="1613" 
d="M66 0l112 1065h172l-96 -911h426l96 911h174l-96 -911h426l96 911h172l-112 -1065h-1370z" />
    <glyph glyph-name="uni0449" unicode="&#x449;" horiz-adv-x="1667" 
d="M1364 -141l14 141h-1312l112 1065h172l-96 -911h426l96 911h174l-96 -911h426l96 911h172l-96 -911h115l-31 -295h-172z" />
    <glyph glyph-name="uni044A" unicode="&#x44a;" horiz-adv-x="1150" 
d="M39 911l16 154h332l-43 -416h387q157 0 243.5 -79.5t86.5 -219.5q0 -161 -108 -255.5t-291 -94.5h-558l95 911h-160zM293 154h364q117 0 174.5 48.5t57.5 135.5q0 158 -195 158h-366z" />
    <glyph glyph-name="uni044B" unicode="&#x44b;" horiz-adv-x="1466" 
d="M1116 0l113 1065h172l-113 -1065h-172zM66 0l110 1065h172l-43 -416h387q157 0 243.5 -79.5t86.5 -219.5q0 -161 -108 -255.5t-291 -94.5h-557zM254 154h364q117 0 174.5 48.5t57.5 135.5q0 158 -195 158h-366z" />
    <glyph glyph-name="uni044C" unicode="&#x44c;" horiz-adv-x="1112" 
d="M66 0l110 1065h172l-43 -416h387q157 0 243.5 -79.5t86.5 -219.5q0 -161 -108 -255.5t-291 -94.5h-557zM254 154h364q117 0 174.5 48.5t57.5 135.5q0 158 -195 158h-366z" />
    <glyph glyph-name="uni044D" unicode="&#x44d;" horiz-adv-x="1142" 
d="M471 -18q-146 0 -260 67t-170 193l141 53q39 -76 121 -118t178 -42q91 0 174.5 36t149 113.5t88.5 184.5l-336 -4l12 127l338 2q-3 161 -102 247.5t-240 86.5q-101 0 -186.5 -44t-142.5 -124l-136 67q83 126 206 191t263 65q97 0 186.5 -32t161.5 -92t115 -156t43 -215
q0 -168 -81.5 -307.5t-220 -219t-302.5 -79.5z" />
    <glyph glyph-name="uni044E" unicode="&#x44e;" horiz-adv-x="1646" 
d="M66 0l112 1065h172l-47 -455h193q46 207 210.5 341t374.5 134q88 0 174.5 -32t160 -91.5t118.5 -157t45 -216.5q0 -126 -48 -239t-129.5 -193.5t-192.5 -128t-232 -47.5q-86 0 -170 30.5t-156 87t-118.5 148.5t-51.5 205h-194l-49 -451h-172zM649 479q0 -84 30.5 -151.5
t80 -108.5t109 -62.5t122.5 -21.5q73 0 145.5 29t134.5 83t101 142t39 195q0 85 -30.5 153t-80.5 109t-110 62.5t-123 21.5q-72 0 -144 -29t-134 -83.5t-101 -143t-39 -195.5z" />
    <glyph glyph-name="uni044F" unicode="&#x44f;" horiz-adv-x="1163" 
d="M45 0l373 381q-137 15 -210 95t-73 212q0 167 111 272t299 105h553l-111 -1065h-172l39 379h-240l-366 -379h-203zM303 707q0 -79 47 -127t146 -48h374l39 379h-372q-119 0 -176.5 -57.5t-57.5 -146.5z" />
    <glyph glyph-name="uni0450" unicode="&#x450;" 
d="M569 -20q-102 0 -192 32.5t-159.5 93.5t-109.5 156.5t-40 214.5q0 125 45.5 238t123 194t185.5 128.5t227 47.5q107 0 199.5 -37t163 -113.5t95.5 -192.5t-3 -273h-877q7 -164 110 -253t261 -89q198 0 328 127l78 -86q-80 -90 -193 -139t-242 -49zM240 600h725
q4 107 -41 184.5t-119.5 114.5t-167.5 37q-148 0 -256 -93.5t-141 -242.5zM358 1516h154l166 -318h-150z" />
    <glyph glyph-name="uni0451" unicode="&#x451;" 
d="M569 -20q-102 0 -192 32.5t-159.5 93.5t-109.5 156.5t-40 214.5q0 125 45.5 238t123 194t185.5 128.5t227 47.5q107 0 199.5 -37t163 -113.5t95.5 -192.5t-3 -273h-877q7 -164 110 -253t261 -89q198 0 328 127l78 -86q-80 -90 -193 -139t-242 -49zM240 600h725
q4 107 -41 184.5t-119.5 114.5t-167.5 37q-148 0 -256 -93.5t-141 -242.5zM360 1292l19 174h164l-19 -174h-164zM797 1292l18 174h166l-20 -174h-164z" />
    <glyph glyph-name="uni0453" unicode="&#x453;" horiz-adv-x="991" 
d="M66 0l112 1065h787l-17 -154h-614l-96 -911h-172zM528 1169l177 265h208l-256 -265h-129z" />
    <glyph glyph-name="uni0454" unicode="&#x454;" horiz-adv-x="1142" 
d="M571 -18q-97 0 -185.5 30.5t-160 89.5t-114.5 154.5t-43 214.5q0 167 78 307.5t215.5 222.5t304.5 82q149 0 263.5 -67.5t170.5 -194.5l-139 -53q-88 160 -293 160q-147 0 -263.5 -89t-154.5 -251l336 4l-15 -127l-333 -2q6 -158 104 -243t238 -85q99 0 184.5 44
t144.5 124l133 -67q-82 -125 -206 -189.5t-265 -64.5z" />
    <glyph glyph-name="uni0455" unicode="&#x455;" horiz-adv-x="878" 
d="M397 -20q-153 0 -252.5 77.5t-111.5 210.5l145 39q13 -85 73 -133.5t150 -48.5q86 0 147.5 43t61.5 129q0 63 -39 102t-127 76l-90 37q-221 90 -221 279q0 128 100.5 211t245.5 83q128 0 217 -65t111 -172l-139 -41q-53 133 -193 133q-76 0 -123 -36.5t-47 -104.5
q0 -52 31 -90t102 -68l88 -37q60 -25 102.5 -50.5t80 -60.5t56.5 -82t19 -106q0 -100 -52 -174.5t-139.5 -112.5t-195.5 -38z" />
    <glyph glyph-name="uni0456" unicode="&#x456;" horiz-adv-x="415" 
d="M66 0l110 1065h172l-110 -1065h-172zM201 1294l16 160h174l-18 -160h-172z" />
    <glyph glyph-name="uni0457" unicode="&#x457;" horiz-adv-x="415" 
d="M66 0l112 1065h172l-112 -1065h-172zM-20 1292l18 174h164l-19 -174h-163zM416 1292l18 174h166l-20 -174h-164z" />
    <glyph glyph-name="uni0458" unicode="&#x458;" horiz-adv-x="417" 
d="M-283 -395l19 159h47q63 0 109 11.5t85.5 41t63 84t31.5 136.5l108 1028h172l-108 -1040q-13 -119 -50.5 -201.5t-100 -130t-141 -68t-183.5 -20.5h-52zM203 1294l18 160h172l-16 -160h-174z" />
    <glyph glyph-name="uni045C" unicode="&#x45c;" horiz-adv-x="1116" 
d="M66 0l110 1065h172l-53 -520l543 520h217l-496 -467l453 -598h-209l-365 483l-166 -157l-34 -326h-172zM539 1198l166 318h153l-170 -318h-149z" />
    <glyph glyph-name="uni045E" unicode="&#x45e;" horiz-adv-x="1163" 
d="M223 -389l217 407l-336 1047h179l266 -850l438 850h182l-770 -1454h-176zM326 1516h118q-7 -76 31 -129.5t131 -53.5q90 0 136 53t55 130h118q-5 -56 -26.5 -107t-59.5 -94t-98.5 -68.5t-136.5 -25.5t-133 25.5t-87.5 68.5t-42.5 94.5t-5 106.5z" />
    <glyph glyph-name="uni0490" unicode="&#x490;" horiz-adv-x="1038" 
d="M377 1290l-135 -1290h-176l153 1454h658l12 96h176l-31 -260h-657z" />
    <glyph glyph-name="uni0491" unicode="&#x491;" horiz-adv-x="966" 
d="M66 0l112 1065h590l10 94h172l-26 -248h-590l-96 -911h-172z" />
    <glyph glyph-name="uni04C0" unicode="&#x4c0;" horiz-adv-x="419" 
d="M66 0l153 1454h176l-153 -1454h-176z" />
    <glyph glyph-name="uni04CF" unicode="&#x4cf;" horiz-adv-x="413" 
d="M66 0l151 1454h172l-151 -1454h-172z" />
    <glyph glyph-name="uni04E2" unicode="&#x4e2;" horiz-adv-x="1415" 
d="M66 0l153 1454h176l-123 -1159l949 1159h170l-154 -1454h-176l123 1157l-948 -1157h-170zM453 1681l14 138h754l-15 -138h-753z" />
    <glyph glyph-name="uni04E3" unicode="&#x4e3;" horiz-adv-x="1181" 
d="M66 0l110 1065h172l-84 -813l680 813h172l-110 -1065h-172l84 813l-680 -813h-172zM295 1292l14 138h754l-14 -138h-754z" />
    <glyph glyph-name="uni1E04" unicode="&#x1e04;" horiz-adv-x="1175" 
d="M66 0l151 1454h498q174 0 266 -87.5t92 -225.5q0 -117 -66.5 -206.5t-183.5 -127.5q122 -30 191 -122.5t69 -233.5q0 -199 -139.5 -325t-398.5 -126h-479zM258 158h293q171 0 265.5 80t94.5 221q0 124 -76 192t-227 68h-291zM332 858h284q128 0 206.5 70t78.5 178
q0 91 -58.5 140.5t-176.5 49.5h-289zM418 -315l18 163h160l-16 -163h-162z" />
    <glyph glyph-name="uni1E05" unicode="&#x1e05;" horiz-adv-x="1292" 
d="M659 -20q-143 0 -250.5 65.5t-140.5 155.5h-8l-22 -201h-172l151 1454h172l-61 -590h10q49 91 163.5 156t254.5 65q92 0 175.5 -31t149.5 -89.5t105 -153t39 -211.5q0 -170 -74.5 -312t-204.5 -225t-287 -83zM285 483q0 -87 28.5 -155t77.5 -108.5t109 -61.5t127 -21
q174 0 300 126.5t126 318.5q0 87 -28.5 155t-77.5 108.5t-109 61.5t-127 21q-174 0 -300 -126.5t-126 -318.5zM475 -315l19 163h159l-16 -163h-162z" />
    <glyph glyph-name="uni1E0C" unicode="&#x1e0c;" horiz-adv-x="1351" 
d="M66 0l151 1454h430q297 0 472 -183t175 -483q0 -169 -59 -315.5t-162.5 -250.5t-251 -163t-317.5 -59h-438zM260 168h248q182 0 320 79t211 218t73 317q0 234 -126 369t-363 135h-248zM508 -315l18 163h160l-16 -163h-162z" />
    <glyph glyph-name="uni1E0D" unicode="&#x1e0d;" horiz-adv-x="1292" 
d="M543 -20q-94 0 -178.5 32t-151 91.5t-106 155.5t-39.5 214q0 126 44.5 239.5t120 195t181 129.5t223.5 48q146 0 251 -65t136 -156h10l62 590h172l-152 -1454h-172l21 201h-9q-51 -92 -162 -156.5t-251 -64.5zM242 487q0 -87 28 -155.5t76.5 -110t109.5 -63t130 -21.5
q174 0 298 125t124 316q0 87 -28 155.5t-76.5 110t-109.5 63t-130 21.5q-174 0 -298 -125t-124 -316zM477 -315l19 163h159l-16 -163h-162z" />
    <glyph glyph-name="uni1E20" unicode="&#x1e20;" horiz-adv-x="1611" 
d="M784 -20q-140 0 -262.5 48.5t-212 134.5t-141 212.5t-51.5 275.5q0 170 65.5 323t175.5 262.5t261 174t317 64.5q73 0 143 -13t144 -43.5t140 -89t112 -139.5l-138 -94q-68 113 -177 162t-232 49q-103 0 -199.5 -32t-174 -91t-136 -137.5t-90 -176.5t-31.5 -204
q0 -234 145 -378.5t369 -144.5q124 0 230 46t188 149t114 252h-413l16 149h584q-4 -173 -67 -318t-165.5 -240.5t-235 -148t-278.5 -52.5zM551 1681l14 138h754l-14 -138h-754z" />
    <glyph glyph-name="uni1E21" unicode="&#x1e21;" horiz-adv-x="1292" 
d="M537 -426q-100 0 -185 22t-123 52l17 145q37 -29 110.5 -50.5t165.5 -21.5q81 0 152 19t130.5 58t98 105t47.5 154l15 144h-9q-51 -92 -162.5 -156.5t-250.5 -64.5q-94 0 -178.5 31.5t-151 91t-106 155t-39.5 213.5q0 173 76.5 314.5t206.5 220.5t286 79q146 0 251 -65
t136 -156h10l21 201h172l-105 -1006q-11 -109 -52.5 -195t-99 -139t-133 -88t-149 -49t-151.5 -14zM242 485q0 -85 27.5 -152.5t75.5 -109.5t109.5 -64t131.5 -22q180 0 301 127.5t121 313.5q0 168 -99 259t-245 91q-179 0 -300.5 -128t-121.5 -315zM350 1292l15 138h753
l-14 -138h-754z" />
    <glyph glyph-name="uni1E24" unicode="&#x1e24;" horiz-adv-x="1318" 
d="M963 0l65 625h-721l-65 -625h-176l153 1454h176l-69 -666h721l69 666h176l-153 -1454h-176zM489 -315l19 163h160l-17 -163h-162z" />
    <glyph glyph-name="uni1E25" unicode="&#x1e25;" 
d="M66 0l153 1454h172l-59 -559q55 84 148 137t220 53q182 0 290 -116t85 -342l-65 -627h-172l61 602q17 156 -57.5 241t-208.5 85q-135 0 -225 -84.5t-107 -241.5l-63 -602h-172zM424 -315l18 163h160l-16 -163h-162z" />
    <glyph glyph-name="uni1E62" unicode="&#x1e62;" horiz-adv-x="1101" 
d="M518 -20q-184 0 -314 100.5t-153 263.5l152 66q22 -123 107.5 -195t215.5 -72q132 0 221 70.5t89 194.5q0 100 -59 156.5t-187 109.5l-101 41q-303 122 -303 368q0 115 60.5 205.5t162 138.5t224.5 48q170 0 280.5 -87.5t143.5 -216.5l-142 -69q-36 102 -108.5 157.5
t-179.5 55.5q-114 0 -189.5 -61.5t-75.5 -161.5q0 -77 49.5 -134.5t161.5 -103.5l97 -39q86 -36 145 -70.5t107.5 -81t72 -107t23.5 -136.5q0 -101 -42 -185.5t-112 -139.5t-159.5 -85t-186.5 -30zM381 -315l18 163h160l-16 -163h-162z" />
    <glyph glyph-name="uni1E63" unicode="&#x1e63;" horiz-adv-x="878" 
d="M397 -20q-153 0 -252.5 77.5t-111.5 210.5l145 39q13 -85 73 -133.5t150 -48.5q86 0 147.5 43t61.5 129q0 63 -39 102t-127 76l-90 37q-221 90 -221 279q0 128 100.5 211t245.5 83q128 0 217 -65t111 -172l-139 -41q-53 133 -193 133q-76 0 -123 -36.5t-47 -104.5
q0 -52 31 -90t102 -68l88 -37q60 -25 102.5 -50.5t80 -60.5t56.5 -82t19 -106q0 -100 -52 -174.5t-139.5 -112.5t-195.5 -38zM270 -315l19 163h160l-17 -163h-162z" />
    <glyph glyph-name="uni1E6C" unicode="&#x1e6c;" horiz-adv-x="1083" 
d="M395 0l137 1290h-382l18 164h942l-18 -164h-383l-138 -1290h-176zM371 -315l18 163h160l-17 -163h-161z" />
    <glyph glyph-name="uni1E6D" unicode="&#x1e6d;" horiz-adv-x="675" 
d="M393 -12q-111 0 -168.5 56.5t-44.5 172.5l74 707h-143l14 141h143l29 272h172l-29 -272h211l-14 -141h-211l-70 -674q-10 -107 101 -107q42 0 98 19l-14 -137q-52 -37 -148 -37zM274 -315l19 163h160l-17 -163h-162z" />
    <glyph glyph-name="Wgrave" unicode="&#x1e80;" horiz-adv-x="2021" 
d="M436 0l-291 1454h185l219 -1143l487 1143h142l247 -1143l457 1143h186l-595 -1454h-142l-256 1149l-497 -1149h-142zM850 1905h154l165 -318h-149z" />
    <glyph glyph-name="wgrave" unicode="&#x1e81;" horiz-adv-x="1888" 
d="M1223 0l-248 854l-420 -854h-158l-293 1065h175l219 -850l415 850h166l242 -850l395 850h178l-514 -1065h-157zM743 1516h154l166 -318h-150z" />
    <glyph glyph-name="Wacute" unicode="&#x1e82;" horiz-adv-x="2021" 
d="M436 0l-291 1454h185l219 -1143l487 1143h142l247 -1143l457 1143h186l-595 -1454h-142l-256 1149l-497 -1149h-142zM1036 1587l166 318h154l-170 -318h-150z" />
    <glyph glyph-name="wacute" unicode="&#x1e83;" horiz-adv-x="1888" 
d="M1223 0l-248 854l-420 -854h-158l-293 1065h175l219 -850l415 850h166l242 -850l395 850h178l-514 -1065h-157zM930 1198l166 318h153l-170 -318h-149z" />
    <glyph glyph-name="Wdieresis" unicode="&#x1e84;" horiz-adv-x="2021" 
d="M436 0l-291 1454h185l219 -1143l487 1143h142l247 -1143l457 1143h186l-595 -1454h-142l-256 1149l-497 -1149h-142zM821 1681l19 174h164l-19 -174h-164zM1257 1681l19 174h166l-21 -174h-164z" />
    <glyph glyph-name="wdieresis" unicode="&#x1e85;" horiz-adv-x="1888" 
d="M1223 0l-248 854l-420 -854h-158l-293 1065h175l219 -850l415 850h166l242 -850l395 850h178l-514 -1065h-157zM713 1292l18 174h164l-18 -174h-164zM1149 1292l18 174h166l-20 -174h-164z" />
    <glyph glyph-name="uni1E92" unicode="&#x1e92;" horiz-adv-x="1200" 
d="M4 0l930 1290h-754l17 164h1040l-930 -1290h780l-16 -164h-1067zM442 -315l19 163h160l-17 -163h-162z" />
    <glyph glyph-name="uni1E93" unicode="&#x1e93;" horiz-adv-x="1056" 
d="M-6 0l762 911h-606l16 154h897l-762 -911h643l-16 -154h-934zM416 -315l18 163h160l-16 -163h-162z" />
    <glyph glyph-name="uni1E9E" unicode="&#x1e9e;" horiz-adv-x="1261" 
d="M66 0l151 1454h961l-19 -170l-436 -438q221 -4 324.5 -102t103.5 -273q0 -219 -150.5 -345t-412.5 -126h-152l15 154h129q179 0 286 76.5t107 226.5q0 137 -92.5 200.5t-257.5 63.5h-95l15 129l434 440h-602l-133 -1290h-176z" />
    <glyph glyph-name="uni1EA0" unicode="&#x1ea0;" horiz-adv-x="1409" 
d="M889 1454l416 -1454h-191l-92 336h-676l-162 -336h-190l717 1454h178zM426 500h551l-199 727zM535 -315l18 163h160l-17 -163h-161z" />
    <glyph glyph-name="uni1EA1" unicode="&#x1ea1;" horiz-adv-x="1292" 
d="M543 -20q-94 0 -178.5 32t-151 91.5t-106 155.5t-39.5 214q0 126 44.5 239.5t120 195t181 129.5t223.5 48q146 0 251 -65t136 -156h10l21 201h172l-111 -1065h-172l21 201h-9q-51 -92 -162 -156.5t-251 -64.5zM242 487q0 -87 28 -155.5t76.5 -110t109.5 -63t130 -21.5
q174 0 298 125t124 316q0 87 -28 155.5t-76.5 110t-109.5 63t-130 21.5q-174 0 -298 -125t-124 -316zM477 -315l19 163h159l-16 -163h-162z" />
    <glyph glyph-name="uni1EA2" unicode="&#x1ea2;" horiz-adv-x="1409" 
d="M889 1454l416 -1454h-191l-92 336h-676l-162 -336h-190l717 1454h178zM426 500h551l-199 727zM670 1866q25 45 68.5 70.5t95.5 25.5q75 0 125.5 -49.5t50.5 -122.5q0 -84 -62.5 -143.5t-150.5 -59.5h-62l10 117h56q36 0 60 22.5t24 53.5q0 25 -17.5 42t-44.5 17
q-42 0 -63 -41z" />
    <glyph glyph-name="uni1EA3" unicode="&#x1ea3;" horiz-adv-x="1292" 
d="M543 -20q-94 0 -178.5 32t-151 91.5t-106 155.5t-39.5 214q0 126 44.5 239.5t120 195t181 129.5t223.5 48q146 0 251 -65t136 -156h10l21 201h172l-111 -1065h-172l21 201h-9q-51 -92 -162 -156.5t-251 -64.5zM242 487q0 -87 28 -155.5t76.5 -110t109.5 -63t130 -21.5
q174 0 298 125t124 316q0 87 -28 155.5t-76.5 110t-109.5 63t-130 21.5q-174 0 -298 -125t-124 -316zM573 1497q25 45 68.5 70.5t95.5 25.5q75 0 125.5 -49.5t50.5 -122.5q0 -84 -62.5 -143t-150.5 -59h-61l10 116h56q36 0 59.5 22.5t23.5 53.5q0 25 -17 42t-44 17
q-42 0 -63 -40z" />
    <glyph glyph-name="uni1EA4" unicode="&#x1ea4;" horiz-adv-x="1409" 
d="M889 1454l416 -1454h-191l-92 336h-676l-162 -336h-190l717 1454h178zM426 500h551l-199 727zM545 1634l243 250h117l193 -250l-90 -82l-166 217l-209 -217zM1006 1823l204 311h140l-209 -311h-135z" />
    <glyph glyph-name="uni1EA5" unicode="&#x1ea5;" horiz-adv-x="1292" 
d="M543 -20q-94 0 -178.5 32t-151 91.5t-106 155.5t-39.5 214q0 126 44.5 239.5t120 195t181 129.5t223.5 48q146 0 251 -65t136 -156h10l21 201h172l-111 -1065h-172l21 201h-9q-51 -92 -162 -156.5t-251 -64.5zM242 487q0 -87 28 -155.5t76.5 -110t109.5 -63t130 -21.5
q174 0 298 125t124 316q0 87 -28 155.5t-76.5 110t-109.5 63t-130 21.5q-174 0 -298 -125t-124 -316zM449 1266l243 250h117l192 -250l-90 -82l-166 217l-208 -217zM909 1454l205 311h139l-209 -311h-135z" />
    <glyph glyph-name="uni1EA6" unicode="&#x1ea6;" horiz-adv-x="1409" 
d="M889 1454l416 -1454h-191l-92 336h-676l-162 -336h-190l717 1454h178zM426 500h551l-199 727zM545 1634l243 250h117l193 -250l-90 -82l-166 217l-209 -217zM838 2134h139l209 -311h-133z" />
    <glyph glyph-name="uni1EA7" unicode="&#x1ea7;" horiz-adv-x="1292" 
d="M543 -20q-94 0 -178.5 32t-151 91.5t-106 155.5t-39.5 214q0 126 44.5 239.5t120 195t181 129.5t223.5 48q146 0 251 -65t136 -156h10l21 201h172l-111 -1065h-172l21 201h-9q-51 -92 -162 -156.5t-251 -64.5zM242 487q0 -87 28 -155.5t76.5 -110t109.5 -63t130 -21.5
q174 0 298 125t124 316q0 87 -28 155.5t-76.5 110t-109.5 63t-130 21.5q-174 0 -298 -125t-124 -316zM449 1266l243 250h117l192 -250l-90 -82l-166 217l-208 -217zM741 1765h140l209 -311h-134z" />
    <glyph glyph-name="uni1EA8" unicode="&#x1ea8;" horiz-adv-x="1409" 
d="M889 1454l416 -1454h-191l-92 336h-676l-162 -336h-190l717 1454h178zM426 500h551l-199 727zM545 1634l243 250h117l193 -250l-90 -82l-166 217l-209 -217zM920 2107q25 45 68 71t95 26q75 0 126 -49.5t51 -122.5q0 -84 -62.5 -143.5t-150.5 -59.5h-62l10 117h56
q36 0 60 22t24 53q0 25 -17.5 42.5t-44.5 17.5q-42 0 -63 -41z" />
    <glyph glyph-name="uni1EA9" unicode="&#x1ea9;" horiz-adv-x="1292" 
d="M543 -20q-94 0 -178.5 32t-151 91.5t-106 155.5t-39.5 214q0 126 44.5 239.5t120 195t181 129.5t223.5 48q146 0 251 -65t136 -156h10l21 201h172l-111 -1065h-172l21 201h-9q-51 -92 -162 -156.5t-251 -64.5zM242 487q0 -87 28 -155.5t76.5 -110t109.5 -63t130 -21.5
q174 0 298 125t124 316q0 87 -28 155.5t-76.5 110t-109.5 63t-130 21.5q-174 0 -298 -125t-124 -316zM449 1266l243 250h117l192 -250l-90 -82l-166 217l-208 -217zM823 1739q25 45 68.5 70.5t95.5 25.5q75 0 125.5 -49.5t50.5 -122.5q0 -84 -62.5 -143.5t-150.5 -59.5h-61
l10 117h55q36 0 60 22.5t24 53.5q0 25 -17 42t-44 17q-43 0 -64 -41z" />
    <glyph glyph-name="uni1EAA" unicode="&#x1eaa;" horiz-adv-x="1409" 
d="M889 1454l416 -1454h-191l-92 336h-676l-162 -336h-190l717 1454h178zM426 500h551l-199 727zM545 1634l243 250h117l193 -250l-90 -82l-166 217l-209 -217zM551 1976q10 101 62.5 154t125.5 53q35 0 64.5 -12.5t50 -30.5t39 -36.5t40 -31t44.5 -12.5q32 0 54.5 23.5
t25.5 60.5h127q-10 -101 -62 -154t-125 -53q-35 0 -64 12.5t-49.5 30.5t-39 35.5t-40 30t-44.5 12.5q-32 0 -55 -22.5t-27 -59.5h-127z" />
    <glyph glyph-name="uni1EAB" unicode="&#x1eab;" horiz-adv-x="1292" 
d="M543 -20q-94 0 -178.5 32t-151 91.5t-106 155.5t-39.5 214q0 126 44.5 239.5t120 195t181 129.5t223.5 48q146 0 251 -65t136 -156h10l21 201h172l-111 -1065h-172l21 201h-9q-51 -92 -162 -156.5t-251 -64.5zM242 487q0 -87 28 -155.5t76.5 -110t109.5 -63t130 -21.5
q174 0 298 125t124 316q0 87 -28 155.5t-76.5 110t-109.5 63t-130 21.5q-174 0 -298 -125t-124 -316zM449 1266l243 250h117l192 -250l-90 -82l-166 217l-208 -217zM455 1608q10 101 62.5 154t125.5 53q35 0 64.5 -12.5t50 -30.5t39 -36.5t40 -31t44.5 -12.5q32 0 54.5 23.5
t25.5 60.5h126q-10 -101 -61.5 -154t-124.5 -53q-35 0 -64 12.5t-49.5 30.5t-39 35.5t-40 30t-44.5 12.5q-32 0 -55 -22.5t-27 -59.5h-127z" />
    <glyph glyph-name="uni1EAC" unicode="&#x1eac;" horiz-adv-x="1409" 
d="M889 1454l416 -1454h-191l-92 336h-676l-162 -336h-190l717 1454h178zM426 500h551l-199 727zM535 -315l18 163h160l-17 -163h-161zM545 1634l243 250h117l193 -250l-90 -82l-166 217l-209 -217z" />
    <glyph glyph-name="uni1EAD" unicode="&#x1ead;" horiz-adv-x="1292" 
d="M543 -20q-94 0 -178.5 32t-151 91.5t-106 155.5t-39.5 214q0 126 44.5 239.5t120 195t181 129.5t223.5 48q146 0 251 -65t136 -156h10l21 201h172l-111 -1065h-172l21 201h-9q-51 -92 -162 -156.5t-251 -64.5zM242 487q0 -87 28 -155.5t76.5 -110t109.5 -63t130 -21.5
q174 0 298 125t124 316q0 87 -28 155.5t-76.5 110t-109.5 63t-130 21.5q-174 0 -298 -125t-124 -316zM449 1266l243 250h117l192 -250l-90 -82l-166 217l-208 -217zM477 -315l19 163h159l-16 -163h-162z" />
    <glyph glyph-name="uni1EAE" unicode="&#x1eae;" horiz-adv-x="1409" 
d="M889 1454l416 -1454h-191l-92 336h-676l-162 -336h-190l717 1454h178zM426 500h551l-199 727zM547 1884h119q-7 -76 30.5 -129t130.5 -53q90 0 136 52.5t55 129.5h119q-5 -56 -27 -107t-59.5 -94t-98.5 -68.5t-137 -25.5t-133 25.5t-87.5 68.5t-42.5 94.5t-5 106.5z
M735 1833l178 301h138l-181 -301h-135z" />
    <glyph glyph-name="uni1EAF" unicode="&#x1eaf;" horiz-adv-x="1292" 
d="M543 -20q-94 0 -178.5 32t-151 91.5t-106 155.5t-39.5 214q0 126 44.5 239.5t120 195t181 129.5t223.5 48q146 0 251 -65t136 -156h10l21 201h172l-111 -1065h-172l21 201h-9q-51 -92 -162 -156.5t-251 -64.5zM242 487q0 -87 28 -155.5t76.5 -110t109.5 -63t130 -21.5
q174 0 298 125t124 316q0 87 -28 155.5t-76.5 110t-109.5 63t-130 21.5q-174 0 -298 -125t-124 -316zM451 1516h118q-7 -76 31 -129.5t131 -53.5q90 0 136 53t55 130h118q-5 -56 -26.5 -107t-59.5 -94t-98.5 -68.5t-136.5 -25.5t-133 25.5t-87.5 68.5t-42.5 94.5t-5 106.5z
M639 1464l178 301h137l-180 -301h-135z" />
    <glyph glyph-name="uni1EB0" unicode="&#x1eb0;" horiz-adv-x="1409" 
d="M889 1454l416 -1454h-191l-92 336h-676l-162 -336h-190l717 1454h178zM426 500h551l-199 727zM547 1884h119q-7 -76 30.5 -129t130.5 -53q90 0 136 52.5t55 129.5h119q-5 -56 -27 -107t-59.5 -94t-98.5 -68.5t-137 -25.5t-133 25.5t-87.5 68.5t-42.5 94.5t-5 106.5z
M645 2140h129l158 -307h-127z" />
    <glyph glyph-name="uni1EB1" unicode="&#x1eb1;" horiz-adv-x="1292" 
d="M543 -20q-94 0 -178.5 32t-151 91.5t-106 155.5t-39.5 214q0 126 44.5 239.5t120 195t181 129.5t223.5 48q146 0 251 -65t136 -156h10l21 201h172l-111 -1065h-172l21 201h-9q-51 -92 -162 -156.5t-251 -64.5zM242 487q0 -87 28 -155.5t76.5 -110t109.5 -63t130 -21.5
q174 0 298 125t124 316q0 87 -28 155.5t-76.5 110t-109.5 63t-130 21.5q-174 0 -298 -125t-124 -316zM451 1516h118q-7 -76 31 -129.5t131 -53.5q90 0 136 53t55 130h118q-5 -56 -26.5 -107t-59.5 -94t-98.5 -68.5t-136.5 -25.5t-133 25.5t-87.5 68.5t-42.5 94.5t-5 106.5z
M549 1772h129l158 -308h-127z" />
    <glyph glyph-name="uni1EB2" unicode="&#x1eb2;" horiz-adv-x="1409" 
d="M889 1454l416 -1454h-191l-92 336h-676l-162 -336h-190l717 1454h178zM426 500h551l-199 727zM547 1884h119q-7 -76 30.5 -129t130.5 -53q90 0 136 52.5t55 129.5h119q-5 -56 -27 -107t-59.5 -94t-98.5 -68.5t-137 -25.5t-133 25.5t-87.5 68.5t-42.5 94.5t-5 106.5z
M666 2107q25 45 68 71t95 26q75 0 126 -49.5t51 -122.5q0 -84 -62.5 -143.5t-150.5 -59.5h-62l10 117h56q36 0 60 22t24 53q0 25 -17.5 42.5t-44.5 17.5q-42 0 -63 -41z" />
    <glyph glyph-name="uni1EB3" unicode="&#x1eb3;" horiz-adv-x="1292" 
d="M543 -20q-94 0 -178.5 32t-151 91.5t-106 155.5t-39.5 214q0 126 44.5 239.5t120 195t181 129.5t223.5 48q146 0 251 -65t136 -156h10l21 201h172l-111 -1065h-172l21 201h-9q-51 -92 -162 -156.5t-251 -64.5zM242 487q0 -87 28 -155.5t76.5 -110t109.5 -63t130 -21.5
q174 0 298 125t124 316q0 87 -28 155.5t-76.5 110t-109.5 63t-130 21.5q-174 0 -298 -125t-124 -316zM451 1516h118q-7 -76 31 -129.5t131 -53.5q90 0 136 53t55 130h118q-5 -56 -26.5 -107t-59.5 -94t-98.5 -68.5t-136.5 -25.5t-133 25.5t-87.5 68.5t-42.5 94.5t-5 106.5z
M569 1739q25 45 68.5 70.5t95.5 25.5q75 0 125.5 -49.5t50.5 -122.5q0 -84 -62.5 -143.5t-150.5 -59.5h-61l10 117h55q36 0 60 22.5t24 53.5q0 25 -17 42t-44 17q-43 0 -64 -41z" />
    <glyph glyph-name="uni1EB4" unicode="&#x1eb4;" horiz-adv-x="1409" 
d="M889 1454l416 -1454h-191l-92 336h-676l-162 -336h-190l717 1454h178zM426 500h551l-199 727zM547 1884h119q-7 -76 30.5 -129t130.5 -53q90 0 136 52.5t55 129.5h119q-5 -56 -27 -107t-59.5 -94t-98.5 -68.5t-137 -25.5t-133 25.5t-87.5 68.5t-42.5 94.5t-5 106.5z
M553 1952q10 101 62.5 154t125.5 53q35 0 64.5 -12.5t50 -30.5t39 -36.5t40 -31t44.5 -12.5q32 0 54.5 23.5t25.5 60.5h127q-10 -101 -62 -154t-125 -53q-35 0 -64 12.5t-49.5 30.5t-39 35.5t-40 30t-44.5 12.5q-32 0 -55 -22.5t-27 -59.5h-127z" />
    <glyph glyph-name="uni1EB5" unicode="&#x1eb5;" horiz-adv-x="1292" 
d="M543 -20q-94 0 -178.5 32t-151 91.5t-106 155.5t-39.5 214q0 126 44.5 239.5t120 195t181 129.5t223.5 48q146 0 251 -65t136 -156h10l21 201h172l-111 -1065h-172l21 201h-9q-51 -92 -162 -156.5t-251 -64.5zM242 487q0 -87 28 -155.5t76.5 -110t109.5 -63t130 -21.5
q174 0 298 125t124 316q0 87 -28 155.5t-76.5 110t-109.5 63t-130 21.5q-174 0 -298 -125t-124 -316zM451 1516h118q-7 -76 31 -129.5t131 -53.5q90 0 136 53t55 130h118q-5 -56 -26.5 -107t-59.5 -94t-98.5 -68.5t-136.5 -25.5t-133 25.5t-87.5 68.5t-42.5 94.5t-5 106.5z
M457 1583q10 101 62.5 154t125.5 53q35 0 64.5 -12.5t50 -31t39 -36.5t40 -30.5t44.5 -12.5q32 0 54.5 23.5t25.5 60.5h127q-10 -101 -62 -154t-125 -53q-35 0 -64 12.5t-49.5 30t-39 35.5t-40 30.5t-44.5 12.5q-32 0 -55 -22.5t-27 -59.5h-127z" />
    <glyph glyph-name="uni1EB6" unicode="&#x1eb6;" horiz-adv-x="1409" 
d="M889 1454l416 -1454h-191l-92 336h-676l-162 -336h-190l717 1454h178zM426 500h551l-199 727zM535 -315l18 163h160l-17 -163h-161zM547 1884h119q-7 -76 30.5 -129t130.5 -53q90 0 136 52.5t55 129.5h119q-5 -56 -27 -107t-59.5 -94t-98.5 -68.5t-137 -25.5t-133 25.5
t-87.5 68.5t-42.5 94.5t-5 106.5z" />
    <glyph glyph-name="uni1EB7" unicode="&#x1eb7;" horiz-adv-x="1292" 
d="M543 -20q-94 0 -178.5 32t-151 91.5t-106 155.5t-39.5 214q0 126 44.5 239.5t120 195t181 129.5t223.5 48q146 0 251 -65t136 -156h10l21 201h172l-111 -1065h-172l21 201h-9q-51 -92 -162 -156.5t-251 -64.5zM242 487q0 -87 28 -155.5t76.5 -110t109.5 -63t130 -21.5
q174 0 298 125t124 316q0 87 -28 155.5t-76.5 110t-109.5 63t-130 21.5q-174 0 -298 -125t-124 -316zM451 1516h118q-7 -76 31 -129.5t131 -53.5q90 0 136 53t55 130h118q-5 -56 -26.5 -107t-59.5 -94t-98.5 -68.5t-136.5 -25.5t-133 25.5t-87.5 68.5t-42.5 94.5t-5 106.5z
M477 -315l19 163h159l-16 -163h-162z" />
    <glyph glyph-name="uni1EB8" unicode="&#x1eb8;" horiz-adv-x="1009" 
d="M66 0l151 1454h780l-16 -164h-604l-51 -479h514l-17 -162h-514l-51 -485h623l-17 -164h-798zM350 -315l19 163h159l-16 -163h-162z" />
    <glyph glyph-name="uni1EB9" unicode="&#x1eb9;" 
d="M569 -20q-102 0 -192 32.5t-159.5 93.5t-109.5 156.5t-40 214.5q0 125 45.5 238t123 194t185.5 128.5t227 47.5q107 0 199.5 -37t163 -113.5t95.5 -192.5t-3 -273h-877q7 -164 110 -253t261 -89q198 0 328 127l78 -86q-80 -90 -193 -139t-242 -49zM240 600h725
q4 107 -41 184.5t-119.5 114.5t-167.5 37q-148 0 -256 -93.5t-141 -242.5zM422 -315l18 163h160l-16 -163h-162z" />
    <glyph glyph-name="uni1EBA" unicode="&#x1eba;" horiz-adv-x="1009" 
d="M66 0l151 1454h780l-16 -164h-604l-51 -479h514l-17 -162h-514l-51 -485h623l-17 -164h-798zM489 1886q25 45 68.5 70.5t95.5 25.5q75 0 125.5 -49.5t50.5 -122.5q0 -84 -62.5 -143t-150.5 -59h-61l10 116h56q36 0 60 22.5t24 53.5q0 25 -17.5 42.5t-44.5 17.5
q-42 0 -63 -41z" />
    <glyph glyph-name="uni1EBB" unicode="&#x1ebb;" 
d="M569 -20q-102 0 -192 32.5t-159.5 93.5t-109.5 156.5t-40 214.5q0 125 45.5 238t123 194t185.5 128.5t227 47.5q107 0 199.5 -37t163 -113.5t95.5 -192.5t-3 -273h-877q7 -164 110 -253t261 -89q198 0 328 127l78 -86q-80 -90 -193 -139t-242 -49zM240 600h725
q4 107 -41 184.5t-119.5 114.5t-167.5 37q-148 0 -256 -93.5t-141 -242.5zM518 1497q25 45 68.5 70.5t95.5 25.5q75 0 125.5 -49.5t50.5 -122.5q0 -84 -62.5 -143t-150.5 -59h-61l10 116h55q36 0 60 22.5t24 53.5q0 25 -17 42t-44 17q-43 0 -64 -40z" />
    <glyph glyph-name="uni1EBC" unicode="&#x1ebc;" horiz-adv-x="1009" 
d="M66 0l151 1454h780l-16 -164h-604l-51 -479h514l-17 -162h-514l-51 -485h623l-17 -164h-798zM332 1647q10 101 62.5 153.5t125.5 52.5q42 0 78 -19t56.5 -42t48 -42t55.5 -19q32 0 54.5 23.5t25.5 60.5h127q-10 -101 -62 -154t-125 -53q-35 0 -64 12.5t-49.5 30t-39 35.5
t-40 30.5t-44.5 12.5q-32 0 -54.5 -22.5t-27.5 -59.5h-127z" />
    <glyph glyph-name="uni1EBD" unicode="&#x1ebd;" 
d="M569 -20q-102 0 -192 32.5t-159.5 93.5t-109.5 156.5t-40 214.5q0 125 45.5 238t123 194t185.5 128.5t227 47.5q107 0 199.5 -37t163 -113.5t95.5 -192.5t-3 -273h-877q7 -164 110 -253t261 -89q198 0 328 127l78 -86q-80 -90 -193 -139t-242 -49zM240 600h725
q4 107 -41 184.5t-119.5 114.5t-167.5 37q-148 0 -256 -93.5t-141 -242.5zM360 1257q10 101 63 154t126 53q35 0 64 -12.5t49.5 -31t39 -36.5t40 -30.5t44.5 -12.5q32 0 54.5 23.5t25.5 60.5h127q-10 -101 -61.5 -153.5t-124.5 -52.5q-35 0 -64.5 12.5t-50 30t-39 35t-40 30
t-44.5 12.5q-32 0 -54.5 -22.5t-27.5 -59.5h-127z" />
    <glyph glyph-name="uni1EBE" unicode="&#x1ebe;" horiz-adv-x="1009" 
d="M66 0l151 1454h780l-16 -164h-604l-51 -479h514l-17 -162h-514l-51 -485h623l-17 -164h-798zM362 1655l244 250h117l192 -250l-90 -82l-166 217l-208 -217zM823 1843l205 311h139l-209 -311h-135z" />
    <glyph glyph-name="uni1EBF" unicode="&#x1ebf;" 
d="M569 -20q-102 0 -192 32.5t-159.5 93.5t-109.5 156.5t-40 214.5q0 125 45.5 238t123 194t185.5 128.5t227 47.5q107 0 199.5 -37t163 -113.5t95.5 -192.5t-3 -273h-877q7 -164 110 -253t261 -89q198 0 328 127l78 -86q-80 -90 -193 -139t-242 -49zM240 600h725
q4 107 -41 184.5t-119.5 114.5t-167.5 37q-148 0 -256 -93.5t-141 -242.5zM391 1266l244 250h117l192 -250l-90 -82l-166 217l-209 -217zM852 1454l205 311h139l-209 -311h-135z" />
    <glyph glyph-name="uni1EC0" unicode="&#x1ec0;" horiz-adv-x="1009" 
d="M66 0l151 1454h780l-16 -164h-604l-51 -479h514l-17 -162h-514l-51 -485h623l-17 -164h-798zM362 1655l244 250h117l192 -250l-90 -82l-166 217l-208 -217zM655 2154h140l209 -311h-134z" />
    <glyph glyph-name="uni1EC1" unicode="&#x1ec1;" 
d="M569 -20q-102 0 -192 32.5t-159.5 93.5t-109.5 156.5t-40 214.5q0 125 45.5 238t123 194t185.5 128.5t227 47.5q107 0 199.5 -37t163 -113.5t95.5 -192.5t-3 -273h-877q7 -164 110 -253t261 -89q198 0 328 127l78 -86q-80 -90 -193 -139t-242 -49zM240 600h725
q4 107 -41 184.5t-119.5 114.5t-167.5 37q-148 0 -256 -93.5t-141 -242.5zM391 1266l244 250h117l192 -250l-90 -82l-166 217l-209 -217zM684 1765h139l209 -311h-133z" />
    <glyph glyph-name="uni1EC2" unicode="&#x1ec2;" horiz-adv-x="1009" 
d="M66 0l151 1454h780l-16 -164h-604l-51 -479h514l-17 -162h-514l-51 -485h623l-17 -164h-798zM362 1655l244 250h117l192 -250l-90 -82l-166 217l-208 -217zM737 2128q25 45 68.5 70.5t95.5 25.5q75 0 125.5 -49.5t50.5 -122.5q0 -84 -62.5 -143.5t-150.5 -59.5h-61
l10 117h55q36 0 60 22.5t24 53.5q0 25 -17 42t-44 17q-43 0 -64 -41z" />
    <glyph glyph-name="uni1EC3" unicode="&#x1ec3;" 
d="M569 -20q-102 0 -192 32.5t-159.5 93.5t-109.5 156.5t-40 214.5q0 125 45.5 238t123 194t185.5 128.5t227 47.5q107 0 199.5 -37t163 -113.5t95.5 -192.5t-3 -273h-877q7 -164 110 -253t261 -89q198 0 328 127l78 -86q-80 -90 -193 -139t-242 -49zM240 600h725
q4 107 -41 184.5t-119.5 114.5t-167.5 37q-148 0 -256 -93.5t-141 -242.5zM391 1266l244 250h117l192 -250l-90 -82l-166 217l-209 -217zM766 1739q25 45 68.5 70.5t95.5 25.5q75 0 125.5 -49.5t50.5 -122.5q0 -84 -62.5 -143.5t-150.5 -59.5h-62l11 117h55q36 0 60 22.5
t24 53.5q0 25 -17 42t-44 17q-43 0 -64 -41z" />
    <glyph glyph-name="uni1EC4" unicode="&#x1ec4;" horiz-adv-x="1009" 
d="M66 0l151 1454h780l-16 -164h-604l-51 -479h514l-17 -162h-514l-51 -485h623l-17 -164h-798zM362 1655l244 250h117l192 -250l-90 -82l-166 217l-208 -217zM369 1997q10 101 62.5 154t125.5 53q35 0 64.5 -12.5t50 -31t39 -36.5t40 -30.5t44.5 -12.5q32 0 54 23.5
t25 60.5h127q-10 -101 -61.5 -154t-124.5 -53q-35 0 -64 12.5t-49.5 30t-39 35.5t-40 30.5t-44.5 12.5q-32 0 -55 -22.5t-27 -59.5h-127z" />
    <glyph glyph-name="uni1EC5" unicode="&#x1ec5;" 
d="M569 -20q-102 0 -192 32.5t-159.5 93.5t-109.5 156.5t-40 214.5q0 125 45.5 238t123 194t185.5 128.5t227 47.5q107 0 199.5 -37t163 -113.5t95.5 -192.5t-3 -273h-877q7 -164 110 -253t261 -89q198 0 328 127l78 -86q-80 -90 -193 -139t-242 -49zM240 600h725
q4 107 -41 184.5t-119.5 114.5t-167.5 37q-148 0 -256 -93.5t-141 -242.5zM391 1266l244 250h117l192 -250l-90 -82l-166 217l-209 -217zM397 1608q10 101 63 154t126 53q35 0 64 -12.5t49.5 -30.5t39 -36.5t40 -31t44.5 -12.5q32 0 54.5 23.5t25.5 60.5h127
q-10 -101 -61.5 -154t-124.5 -53q-42 0 -78 19t-56.5 41.5t-48 41.5t-55.5 19q-32 0 -55 -22.5t-27 -59.5h-127z" />
    <glyph glyph-name="uni1EC6" unicode="&#x1ec6;" horiz-adv-x="1009" 
d="M66 0l151 1454h780l-16 -164h-604l-51 -479h514l-17 -162h-514l-51 -485h623l-17 -164h-798zM350 -315l19 163h159l-16 -163h-162zM362 1655l244 250h117l192 -250l-90 -82l-166 217l-208 -217z" />
    <glyph glyph-name="uni1EC7" unicode="&#x1ec7;" 
d="M569 -20q-102 0 -192 32.5t-159.5 93.5t-109.5 156.5t-40 214.5q0 125 45.5 238t123 194t185.5 128.5t227 47.5q107 0 199.5 -37t163 -113.5t95.5 -192.5t-3 -273h-877q7 -164 110 -253t261 -89q198 0 328 127l78 -86q-80 -90 -193 -139t-242 -49zM240 600h725
q4 107 -41 184.5t-119.5 114.5t-167.5 37q-148 0 -256 -93.5t-141 -242.5zM391 1266l244 250h117l192 -250l-90 -82l-166 217l-209 -217zM422 -315l18 163h160l-16 -163h-162z" />
    <glyph glyph-name="uni1EC8" unicode="&#x1ec8;" horiz-adv-x="419" 
d="M66 0l153 1454h176l-153 -1454h-176zM178 1886q25 45 68.5 70.5t95.5 25.5q75 0 125.5 -49.5t50.5 -122.5q0 -84 -62.5 -143t-150.5 -59h-61l10 116h55q36 0 60 22.5t24 53.5q0 25 -17 42.5t-44 17.5q-43 0 -64 -41z" />
    <glyph glyph-name="uni1EC9" unicode="&#x1ec9;" horiz-adv-x="415" 
d="M66 0l112 1065h172l-112 -1065h-172zM137 1497q25 45 68.5 70.5t95.5 25.5q75 0 125.5 -49.5t50.5 -122.5q0 -84 -62.5 -143t-150.5 -59h-61l10 116h55q36 0 60 22.5t24 53.5q0 25 -17 42t-44 17q-43 0 -64 -40z" />
    <glyph glyph-name="uni1ECA" unicode="&#x1eca;" horiz-adv-x="419" 
d="M66 0l153 1454h176l-153 -1454h-176zM39 -315l18 163h160l-16 -163h-162z" />
    <glyph glyph-name="uni1ECB" unicode="&#x1ecb;" horiz-adv-x="415" 
d="M66 0l110 1065h172l-110 -1065h-172zM37 -315l18 163h160l-16 -163h-162zM201 1294l16 160h174l-18 -160h-172z" />
    <glyph glyph-name="uni1ECC" unicode="&#x1ecc;" horiz-adv-x="1681" 
d="M793 -20q-140 0 -263.5 47.5t-215 133t-144.5 212.5t-53 278q0 169 65.5 322t175.5 262.5t260 174.5t312 65q188 0 341 -81t244 -235.5t91 -355.5q0 -169 -65.5 -322t-175.5 -262.5t-260 -174t-312 -64.5zM297 666q0 -155 69 -274t184.5 -180.5t256.5 -61.5q167 0 309 85
t225.5 232t83.5 321q0 155 -68.5 274t-184 181t-257.5 62q-124 0 -238 -50.5t-197.5 -136t-133 -204t-49.5 -248.5zM672 -315l18 163h160l-16 -163h-162z" />
    <glyph glyph-name="uni1ECD" unicode="&#x1ecd;" horiz-adv-x="1232" 
d="M563 -20q-70 0 -139.5 19.5t-133.5 60t-113.5 98t-79 139.5t-29.5 178q0 126 48 240t129.5 194.5t191.5 128t231 47.5q88 0 174.5 -32t159.5 -91.5t118 -157t45 -216.5q0 -126 -48 -239t-129.5 -193.5t-192.5 -128t-232 -47.5zM236 479q0 -84 30.5 -151.5t80 -108.5
t109 -62.5t122.5 -21.5q57 0 115.5 18t113 55t97 89t68 126.5t25.5 160.5q0 85 -30.5 153t-80.5 109t-110 62.5t-123 21.5q-72 0 -144 -29t-134 -83.5t-100.5 -143t-38.5 -195.5zM498 -315l18 163h160l-17 -163h-161z" />
    <glyph glyph-name="uni1ECE" unicode="&#x1ece;" horiz-adv-x="1681" 
d="M793 -20q-140 0 -263.5 47.5t-215 133t-144.5 212.5t-53 278q0 169 65.5 322t175.5 262.5t260 174.5t312 65q188 0 341 -81t244 -235.5t91 -355.5q0 -169 -65.5 -322t-175.5 -262.5t-260 -174t-312 -64.5zM297 666q0 -155 69 -274t184.5 -180.5t256.5 -61.5q167 0 309 85
t225.5 232t83.5 321q0 155 -68.5 274t-184 181t-257.5 62q-124 0 -238 -50.5t-197.5 -136t-133 -204t-49.5 -248.5zM809 1886q25 45 68.5 70.5t95.5 25.5q75 0 125.5 -49.5t50.5 -122.5q0 -84 -62.5 -143t-150.5 -59h-62l11 116h55q36 0 60 22.5t24 53.5q0 25 -17 42.5
t-44 17.5q-43 0 -64 -41z" />
    <glyph glyph-name="uni1ECF" unicode="&#x1ecf;" horiz-adv-x="1232" 
d="M563 -20q-70 0 -139.5 19.5t-133.5 60t-113.5 98t-79 139.5t-29.5 178q0 126 48 240t129.5 194.5t191.5 128t231 47.5q88 0 174.5 -32t159.5 -91.5t118 -157t45 -216.5q0 -126 -48 -239t-129.5 -193.5t-192.5 -128t-232 -47.5zM236 479q0 -84 30.5 -151.5t80 -108.5
t109 -62.5t122.5 -21.5q57 0 115.5 18t113 55t97 89t68 126.5t25.5 160.5q0 85 -30.5 153t-80.5 109t-110 62.5t-123 21.5q-72 0 -144 -29t-134 -83.5t-100.5 -143t-38.5 -195.5zM545 1497q25 45 68.5 70.5t95.5 25.5q75 0 125.5 -49.5t50.5 -122.5q0 -84 -62.5 -143
t-150.5 -59h-62l11 116h55q36 0 60 22.5t24 53.5q0 25 -17.5 42t-44.5 17q-42 0 -63 -40z" />
    <glyph glyph-name="uni1ED0" unicode="&#x1ed0;" horiz-adv-x="1681" 
d="M793 -20q-140 0 -263.5 47.5t-215 133t-144.5 212.5t-53 278q0 169 65.5 322t175.5 262.5t260 174.5t312 65q188 0 341 -81t244 -235.5t91 -355.5q0 -169 -65.5 -322t-175.5 -262.5t-260 -174t-312 -64.5zM297 666q0 -155 69 -274t184.5 -180.5t256.5 -61.5q167 0 309 85
t225.5 232t83.5 321q0 155 -68.5 274t-184 181t-257.5 62q-124 0 -238 -50.5t-197.5 -136t-133 -204t-49.5 -248.5zM682 1655l244 250h116l193 -250l-90 -82l-166 217l-209 -217zM1143 1843l205 311h139l-209 -311h-135z" />
    <glyph glyph-name="uni1ED1" unicode="&#x1ed1;" horiz-adv-x="1232" 
d="M563 -20q-70 0 -139.5 19.5t-133.5 60t-113.5 98t-79 139.5t-29.5 178q0 126 48 240t129.5 194.5t191.5 128t231 47.5q88 0 174.5 -32t159.5 -91.5t118 -157t45 -216.5q0 -126 -48 -239t-129.5 -193.5t-192.5 -128t-232 -47.5zM236 479q0 -84 30.5 -151.5t80 -108.5
t109 -62.5t122.5 -21.5q57 0 115.5 18t113 55t97 89t68 126.5t25.5 160.5q0 85 -30.5 153t-80.5 109t-110 62.5t-123 21.5q-72 0 -144 -29t-134 -83.5t-100.5 -143t-38.5 -195.5zM418 1266l244 250h116l193 -250l-90 -82l-166 217l-209 -217zM879 1454l204 311h140
l-209 -311h-135z" />
    <glyph glyph-name="uni1ED2" unicode="&#x1ed2;" horiz-adv-x="1681" 
d="M793 -20q-140 0 -263.5 47.5t-215 133t-144.5 212.5t-53 278q0 169 65.5 322t175.5 262.5t260 174.5t312 65q188 0 341 -81t244 -235.5t91 -355.5q0 -169 -65.5 -322t-175.5 -262.5t-260 -174t-312 -64.5zM297 666q0 -155 69 -274t184.5 -180.5t256.5 -61.5q167 0 309 85
t225.5 232t83.5 321q0 155 -68.5 274t-184 181t-257.5 62q-124 0 -238 -50.5t-197.5 -136t-133 -204t-49.5 -248.5zM682 1655l244 250h116l193 -250l-90 -82l-166 217l-209 -217zM975 2154h139l209 -311h-133z" />
    <glyph glyph-name="uni1ED3" unicode="&#x1ed3;" horiz-adv-x="1232" 
d="M563 -20q-70 0 -139.5 19.5t-133.5 60t-113.5 98t-79 139.5t-29.5 178q0 126 48 240t129.5 194.5t191.5 128t231 47.5q88 0 174.5 -32t159.5 -91.5t118 -157t45 -216.5q0 -126 -48 -239t-129.5 -193.5t-192.5 -128t-232 -47.5zM236 479q0 -84 30.5 -151.5t80 -108.5
t109 -62.5t122.5 -21.5q57 0 115.5 18t113 55t97 89t68 126.5t25.5 160.5q0 85 -30.5 153t-80.5 109t-110 62.5t-123 21.5q-72 0 -144 -29t-134 -83.5t-100.5 -143t-38.5 -195.5zM418 1266l244 250h116l193 -250l-90 -82l-166 217l-209 -217zM711 1765h139l209 -311h-133z
" />
    <glyph glyph-name="uni1ED4" unicode="&#x1ed4;" horiz-adv-x="1681" 
d="M793 -20q-140 0 -263.5 47.5t-215 133t-144.5 212.5t-53 278q0 169 65.5 322t175.5 262.5t260 174.5t312 65q188 0 341 -81t244 -235.5t91 -355.5q0 -169 -65.5 -322t-175.5 -262.5t-260 -174t-312 -64.5zM297 666q0 -155 69 -274t184.5 -180.5t256.5 -61.5q167 0 309 85
t225.5 232t83.5 321q0 155 -68.5 274t-184 181t-257.5 62q-124 0 -238 -50.5t-197.5 -136t-133 -204t-49.5 -248.5zM682 1655l244 250h116l193 -250l-90 -82l-166 217l-209 -217zM1057 2128q25 45 68.5 70.5t95.5 25.5q75 0 125.5 -49.5t50.5 -122.5q0 -84 -62.5 -143.5
t-150.5 -59.5h-62l11 117h55q36 0 60 22.5t24 53.5q0 25 -17.5 42t-44.5 17q-42 0 -63 -41z" />
    <glyph glyph-name="uni1ED5" unicode="&#x1ed5;" horiz-adv-x="1232" 
d="M563 -20q-70 0 -139.5 19.5t-133.5 60t-113.5 98t-79 139.5t-29.5 178q0 126 48 240t129.5 194.5t191.5 128t231 47.5q88 0 174.5 -32t159.5 -91.5t118 -157t45 -216.5q0 -126 -48 -239t-129.5 -193.5t-192.5 -128t-232 -47.5zM236 479q0 -84 30.5 -151.5t80 -108.5
t109 -62.5t122.5 -21.5q57 0 115.5 18t113 55t97 89t68 126.5t25.5 160.5q0 85 -30.5 153t-80.5 109t-110 62.5t-123 21.5q-72 0 -144 -29t-134 -83.5t-100.5 -143t-38.5 -195.5zM418 1266l244 250h116l193 -250l-90 -82l-166 217l-209 -217zM793 1739q25 45 68 70.5
t95 25.5q75 0 126 -49.5t51 -122.5q0 -84 -62.5 -143.5t-150.5 -59.5h-62l10 117h56q36 0 60 22.5t24 53.5q0 25 -17.5 42t-44.5 17q-42 0 -63 -41z" />
    <glyph glyph-name="uni1ED6" unicode="&#x1ed6;" horiz-adv-x="1681" 
d="M793 -20q-140 0 -263.5 47.5t-215 133t-144.5 212.5t-53 278q0 169 65.5 322t175.5 262.5t260 174.5t312 65q188 0 341 -81t244 -235.5t91 -355.5q0 -169 -65.5 -322t-175.5 -262.5t-260 -174t-312 -64.5zM297 666q0 -155 69 -274t184.5 -180.5t256.5 -61.5q167 0 309 85
t225.5 232t83.5 321q0 155 -68.5 274t-184 181t-257.5 62q-124 0 -238 -50.5t-197.5 -136t-133 -204t-49.5 -248.5zM682 1655l244 250h116l193 -250l-90 -82l-166 217l-209 -217zM688 1997q10 101 63 154t126 53q35 0 64 -12.5t49.5 -31t39 -36.5t40 -30.5t44.5 -12.5
q32 0 54.5 23.5t25.5 60.5h127q-10 -101 -61.5 -154t-124.5 -53q-42 0 -78 19t-56.5 41.5t-48 41.5t-55.5 19q-32 0 -54.5 -22.5t-27.5 -59.5h-127z" />
    <glyph glyph-name="uni1ED7" unicode="&#x1ed7;" horiz-adv-x="1232" 
d="M563 -20q-70 0 -139.5 19.5t-133.5 60t-113.5 98t-79 139.5t-29.5 178q0 126 48 240t129.5 194.5t191.5 128t231 47.5q88 0 174.5 -32t159.5 -91.5t118 -157t45 -216.5q0 -126 -48 -239t-129.5 -193.5t-192.5 -128t-232 -47.5zM236 479q0 -84 30.5 -151.5t80 -108.5
t109 -62.5t122.5 -21.5q57 0 115.5 18t113 55t97 89t68 126.5t25.5 160.5q0 85 -30.5 153t-80.5 109t-110 62.5t-123 21.5q-72 0 -144 -29t-134 -83.5t-100.5 -143t-38.5 -195.5zM418 1266l244 250h116l193 -250l-90 -82l-166 217l-209 -217zM424 1608q10 101 62.5 154
t125.5 53q35 0 64.5 -12.5t50 -30.5t39 -36.5t40 -31t44.5 -12.5q32 0 54.5 23.5t25.5 60.5h127q-10 -101 -62 -154t-125 -53q-35 0 -64 12.5t-49.5 30.5t-39 35.5t-40 30t-44.5 12.5q-32 0 -54.5 -22.5t-27.5 -59.5h-127z" />
    <glyph glyph-name="uni1ED8" unicode="&#x1ed8;" horiz-adv-x="1681" 
d="M793 -20q-140 0 -263.5 47.5t-215 133t-144.5 212.5t-53 278q0 169 65.5 322t175.5 262.5t260 174.5t312 65q188 0 341 -81t244 -235.5t91 -355.5q0 -169 -65.5 -322t-175.5 -262.5t-260 -174t-312 -64.5zM297 666q0 -155 69 -274t184.5 -180.5t256.5 -61.5q167 0 309 85
t225.5 232t83.5 321q0 155 -68.5 274t-184 181t-257.5 62q-124 0 -238 -50.5t-197.5 -136t-133 -204t-49.5 -248.5zM672 -315l18 163h160l-16 -163h-162zM682 1655l244 250h116l193 -250l-90 -82l-166 217l-209 -217z" />
    <glyph glyph-name="uni1ED9" unicode="&#x1ed9;" horiz-adv-x="1232" 
d="M563 -20q-70 0 -139.5 19.5t-133.5 60t-113.5 98t-79 139.5t-29.5 178q0 126 48 240t129.5 194.5t191.5 128t231 47.5q88 0 174.5 -32t159.5 -91.5t118 -157t45 -216.5q0 -126 -48 -239t-129.5 -193.5t-192.5 -128t-232 -47.5zM236 479q0 -84 30.5 -151.5t80 -108.5
t109 -62.5t122.5 -21.5q57 0 115.5 18t113 55t97 89t68 126.5t25.5 160.5q0 85 -30.5 153t-80.5 109t-110 62.5t-123 21.5q-72 0 -144 -29t-134 -83.5t-100.5 -143t-38.5 -195.5zM418 1266l244 250h116l193 -250l-90 -82l-166 217l-209 -217zM498 -315l18 163h160l-17 -163
h-161z" />
    <glyph glyph-name="uni1EDA" unicode="&#x1eda;" horiz-adv-x="1681" 
d="M793 -20q-140 0 -263.5 47.5t-215 133t-144.5 212.5t-53 278q0 169 65.5 322t175.5 262.5t260 174.5t312 65h395q77 0 118 36.5t48 112.5l4 45h143l-8 -88q-12 -108 -87.5 -173.5t-190.5 -66.5q120 -90 187 -227.5t67 -310.5q0 -169 -65.5 -322t-175.5 -262.5t-260 -174
t-312 -64.5zM297 666q0 -155 69 -274t184.5 -180.5t256.5 -61.5q167 0 309 85t225.5 232t83.5 321q0 155 -68.5 274t-184 181t-257.5 62q-124 0 -238 -50.5t-197.5 -136t-133 -204t-49.5 -248.5zM868 1587l166 318h154l-170 -318h-150z" />
    <glyph glyph-name="uni1EDB" unicode="&#x1edb;" horiz-adv-x="1232" 
d="M563 -20q-70 0 -139.5 19.5t-133.5 60t-113.5 98t-79 139.5t-29.5 178q0 126 48 240t129.5 194.5t191.5 128t231 47.5h256q154 0 166 150l4 45h143l-8 -88q-9 -93 -69 -156t-154 -80q159 -139 159 -368q0 -126 -48 -239t-129.5 -193.5t-192.5 -128t-232 -47.5zM236 479
q0 -84 30.5 -151.5t80 -108.5t109 -62.5t122.5 -21.5q57 0 115.5 18t113 55t97 89t68 126.5t25.5 160.5q0 85 -30.5 153t-80.5 109t-110 62.5t-123 21.5q-72 0 -144 -29t-134 -83.5t-100.5 -143t-38.5 -195.5zM602 1198l166 318h154l-170 -318h-150z" />
    <glyph glyph-name="uni1EDC" unicode="&#x1edc;" horiz-adv-x="1681" 
d="M793 -20q-140 0 -263.5 47.5t-215 133t-144.5 212.5t-53 278q0 169 65.5 322t175.5 262.5t260 174.5t312 65h395q77 0 118 36.5t48 112.5l4 45h143l-8 -88q-12 -108 -87.5 -173.5t-190.5 -66.5q120 -90 187 -227.5t67 -310.5q0 -169 -65.5 -322t-175.5 -262.5t-260 -174
t-312 -64.5zM297 666q0 -155 69 -274t184.5 -180.5t256.5 -61.5q167 0 309 85t225.5 232t83.5 321q0 155 -68.5 274t-184 181t-257.5 62q-124 0 -238 -50.5t-197.5 -136t-133 -204t-49.5 -248.5zM682 1905h154l165 -318h-149z" />
    <glyph glyph-name="uni1EDD" unicode="&#x1edd;" horiz-adv-x="1232" 
d="M563 -20q-70 0 -139.5 19.5t-133.5 60t-113.5 98t-79 139.5t-29.5 178q0 126 48 240t129.5 194.5t191.5 128t231 47.5h256q154 0 166 150l4 45h143l-8 -88q-9 -93 -69 -156t-154 -80q159 -139 159 -368q0 -126 -48 -239t-129.5 -193.5t-192.5 -128t-232 -47.5zM236 479
q0 -84 30.5 -151.5t80 -108.5t109 -62.5t122.5 -21.5q57 0 115.5 18t113 55t97 89t68 126.5t25.5 160.5q0 85 -30.5 153t-80.5 109t-110 62.5t-123 21.5q-72 0 -144 -29t-134 -83.5t-100.5 -143t-38.5 -195.5zM416 1516h153l166 -318h-149z" />
    <glyph glyph-name="uni1EDE" unicode="&#x1ede;" horiz-adv-x="1681" 
d="M793 -20q-140 0 -263.5 47.5t-215 133t-144.5 212.5t-53 278q0 169 65.5 322t175.5 262.5t260 174.5t312 65h395q77 0 118 36.5t48 112.5l4 45h143l-8 -88q-12 -108 -87.5 -173.5t-190.5 -66.5q120 -90 187 -227.5t67 -310.5q0 -169 -65.5 -322t-175.5 -262.5t-260 -174
t-312 -64.5zM297 666q0 -155 69 -274t184.5 -180.5t256.5 -61.5q167 0 309 85t225.5 232t83.5 321q0 155 -68.5 274t-184 181t-257.5 62q-124 0 -238 -50.5t-197.5 -136t-133 -204t-49.5 -248.5zM811 1886q25 45 68.5 70.5t95.5 25.5q75 0 125.5 -49.5t50.5 -122.5
q0 -84 -62.5 -143t-150.5 -59h-61l10 116h55q36 0 60 22.5t24 53.5q0 25 -17 42.5t-44 17.5q-43 0 -64 -41z" />
    <glyph glyph-name="uni1EDF" unicode="&#x1edf;" horiz-adv-x="1232" 
d="M563 -20q-70 0 -139.5 19.5t-133.5 60t-113.5 98t-79 139.5t-29.5 178q0 126 48 240t129.5 194.5t191.5 128t231 47.5h256q154 0 166 150l4 45h143l-8 -88q-9 -93 -69 -156t-154 -80q159 -139 159 -368q0 -126 -48 -239t-129.5 -193.5t-192.5 -128t-232 -47.5zM236 479
q0 -84 30.5 -151.5t80 -108.5t109 -62.5t122.5 -21.5q57 0 115.5 18t113 55t97 89t68 126.5t25.5 160.5q0 85 -30.5 153t-80.5 109t-110 62.5t-123 21.5q-72 0 -144 -29t-134 -83.5t-100.5 -143t-38.5 -195.5zM545 1497q25 45 68.5 70.5t95.5 25.5q75 0 125.5 -49.5
t50.5 -122.5q0 -84 -62.5 -143t-150.5 -59h-62l11 116h55q36 0 60 22.5t24 53.5q0 25 -17.5 42t-44.5 17q-42 0 -63 -40z" />
    <glyph glyph-name="uni1EE0" unicode="&#x1ee0;" horiz-adv-x="1681" 
d="M793 -20q-140 0 -263.5 47.5t-215 133t-144.5 212.5t-53 278q0 169 65.5 322t175.5 262.5t260 174.5t312 65h395q77 0 118 36.5t48 112.5l4 45h143l-8 -88q-12 -108 -87.5 -173.5t-190.5 -66.5q120 -90 187 -227.5t67 -310.5q0 -169 -65.5 -322t-175.5 -262.5t-260 -174
t-312 -64.5zM297 666q0 -155 69 -274t184.5 -180.5t256.5 -61.5q167 0 309 85t225.5 232t83.5 321q0 155 -68.5 274t-184 181t-257.5 62q-124 0 -238 -50.5t-197.5 -136t-133 -204t-49.5 -248.5zM653 1647q10 101 63 153.5t126 52.5q35 0 64 -12.5t49.5 -30.5t39 -36
t40 -30.5t44.5 -12.5q32 0 54.5 23.5t25.5 60.5h127q-10 -101 -61.5 -154t-124.5 -53q-42 0 -78 19t-56.5 41.5t-48 41.5t-55.5 19q-32 0 -55 -22.5t-27 -59.5h-127z" />
    <glyph glyph-name="uni1EE1" unicode="&#x1ee1;" horiz-adv-x="1232" 
d="M563 -20q-70 0 -139.5 19.5t-133.5 60t-113.5 98t-79 139.5t-29.5 178q0 126 48 240t129.5 194.5t191.5 128t231 47.5h256q154 0 166 150l4 45h143l-8 -88q-9 -93 -69 -156t-154 -80q159 -139 159 -368q0 -126 -48 -239t-129.5 -193.5t-192.5 -128t-232 -47.5zM236 479
q0 -84 30.5 -151.5t80 -108.5t109 -62.5t122.5 -21.5q57 0 115.5 18t113 55t97 89t68 126.5t25.5 160.5q0 85 -30.5 153t-80.5 109t-110 62.5t-123 21.5q-72 0 -144 -29t-134 -83.5t-100.5 -143t-38.5 -195.5zM387 1257q10 101 62.5 154t125.5 53q35 0 64.5 -12.5t50 -31
t39 -36.5t40 -30.5t44.5 -12.5q32 0 54.5 23.5t25.5 60.5h127q-10 -101 -61.5 -153.5t-124.5 -52.5q-35 0 -64.5 12.5t-50 30t-39 35t-40 30t-44.5 12.5q-32 0 -55 -22.5t-27 -59.5h-127z" />
    <glyph glyph-name="uni1EE2" unicode="&#x1ee2;" horiz-adv-x="1681" 
d="M793 -20q-140 0 -263.5 47.5t-215 133t-144.5 212.5t-53 278q0 169 65.5 322t175.5 262.5t260 174.5t312 65h395q77 0 118 36.5t48 112.5l4 45h143l-8 -88q-12 -108 -87.5 -173.5t-190.5 -66.5q120 -90 187 -227.5t67 -310.5q0 -169 -65.5 -322t-175.5 -262.5t-260 -174
t-312 -64.5zM297 666q0 -155 69 -274t184.5 -180.5t256.5 -61.5q167 0 309 85t225.5 232t83.5 321q0 155 -68.5 274t-184 181t-257.5 62q-124 0 -238 -50.5t-197.5 -136t-133 -204t-49.5 -248.5zM672 -315l18 163h160l-16 -163h-162z" />
    <glyph glyph-name="uni1EE3" unicode="&#x1ee3;" horiz-adv-x="1232" 
d="M563 -20q-70 0 -139.5 19.5t-133.5 60t-113.5 98t-79 139.5t-29.5 178q0 126 48 240t129.5 194.5t191.5 128t231 47.5h256q154 0 166 150l4 45h143l-8 -88q-9 -93 -69 -156t-154 -80q159 -139 159 -368q0 -126 -48 -239t-129.5 -193.5t-192.5 -128t-232 -47.5zM236 479
q0 -84 30.5 -151.5t80 -108.5t109 -62.5t122.5 -21.5q57 0 115.5 18t113 55t97 89t68 126.5t25.5 160.5q0 85 -30.5 153t-80.5 109t-110 62.5t-123 21.5q-72 0 -144 -29t-134 -83.5t-100.5 -143t-38.5 -195.5zM446 -315l19 163h160l-17 -163h-162z" />
    <glyph glyph-name="uni1EE4" unicode="&#x1ee4;" horiz-adv-x="1286" 
d="M590 -31q-111 0 -203 37.5t-156 107.5t-94 175.5t-16 234.5l98 930h176l-98 -936q-11 -96 9.5 -170.5t65 -119.5t104.5 -68t132 -23q149 0 253.5 97t125.5 290l98 930h177l-99 -938q-18 -170 -100.5 -296t-204.5 -188.5t-268 -62.5zM473 -315l19 163h159l-16 -163h-162z
" />
    <glyph glyph-name="uni1EE5" unicode="&#x1ee5;" 
d="M1120 1065l-110 -1065h-172l16 170q-55 -83 -148.5 -136.5t-220.5 -53.5q-87 0 -158.5 27.5t-125 81.5t-78 143.5t-12.5 205.5l65 627h172l-61 -602q-18 -156 57 -241t209 -85q135 0 225 84.5t107 241.5l63 602h172zM424 -315l18 163h160l-16 -163h-162z" />
    <glyph glyph-name="uni1EE6" unicode="&#x1ee6;" horiz-adv-x="1286" 
d="M590 -31q-111 0 -203 37.5t-156 107.5t-94 175.5t-16 234.5l98 930h176l-98 -936q-11 -96 9.5 -170.5t65 -119.5t104.5 -68t132 -23q149 0 253.5 97t125.5 290l98 930h177l-99 -938q-18 -170 -100.5 -296t-204.5 -188.5t-268 -62.5zM608 1886q25 45 68.5 70.5t95.5 25.5
q75 0 125.5 -49.5t50.5 -122.5q0 -84 -62.5 -143t-150.5 -59h-61l10 116h55q36 0 60 22.5t24 53.5q0 25 -17 42.5t-44 17.5q-43 0 -64 -41z" />
    <glyph glyph-name="uni1EE7" unicode="&#x1ee7;" 
d="M1120 1065l-110 -1065h-172l16 170q-55 -83 -148.5 -136.5t-220.5 -53.5q-87 0 -158.5 27.5t-125 81.5t-78 143.5t-12.5 205.5l65 627h172l-61 -602q-18 -156 57 -241t209 -85q135 0 225 84.5t107 241.5l63 602h172zM520 1497q25 45 68.5 70.5t95.5 25.5
q75 0 125.5 -49.5t50.5 -122.5q0 -84 -62.5 -143t-150.5 -59h-61l10 116h55q36 0 60 22.5t24 53.5q0 25 -17 42t-44 17q-43 0 -64 -40z" />
    <glyph glyph-name="uni1EE8" unicode="&#x1ee8;" horiz-adv-x="1286" 
d="M590 -31q-111 0 -203 37.5t-156 107.5t-94 175.5t-16 234.5l98 930h176l-98 -936q-11 -96 9.5 -170.5t65 -119.5t104.5 -68t132 -23q149 0 253.5 97t125.5 290l98 930h148q77 0 117 34t49 109l6 72h143l-12 -117q-11 -106 -88.5 -171.5t-192.5 -65.5h-8l-84 -799
q-18 -170 -100.5 -296t-204.5 -188.5t-268 -62.5zM668 1587l166 318h153l-170 -318h-149z" />
    <glyph glyph-name="uni1EE9" unicode="&#x1ee9;" 
d="M580 1198l165 318h154l-170 -318h-149zM111 438l65 627h172l-61 -602q-18 -156 57 -241t209 -85q135 0 225 84.5t107 241.5l63 602h121q77 0 117 34t49 109l6 72h143l-12 -117q-10 -102 -83.5 -167t-182.5 -70l-96 -926h-172l16 170q-55 -83 -148.5 -136.5t-220.5 -53.5
q-87 0 -158.5 27.5t-125 81.5t-78 143.5t-12.5 205.5z" />
    <glyph glyph-name="uni1EEA" unicode="&#x1eea;" horiz-adv-x="1286" 
d="M590 -31q-111 0 -203 37.5t-156 107.5t-94 175.5t-16 234.5l98 930h176l-98 -936q-11 -96 9.5 -170.5t65 -119.5t104.5 -68t132 -23q149 0 253.5 97t125.5 290l98 930h148q77 0 117 34t49 109l6 72h143l-12 -117q-11 -106 -88.5 -171.5t-192.5 -65.5h-8l-84 -799
q-18 -170 -100.5 -296t-204.5 -188.5t-268 -62.5zM479 1905h154l166 -318h-150z" />
    <glyph glyph-name="uni1EEB" unicode="&#x1eeb;" 
d="M561 1198l-170 318h154l166 -318h-150zM111 438l65 627h172l-61 -602q-18 -156 57 -241t209 -85q135 0 225 84.5t107 241.5l63 602h121q77 0 117 34t49 109l6 72h143l-12 -117q-10 -102 -83.5 -167t-182.5 -70l-96 -926h-172l16 170q-55 -83 -148.5 -136.5t-220.5 -53.5
q-87 0 -158.5 27.5t-125 81.5t-78 143.5t-12.5 205.5z" />
    <glyph glyph-name="uni1EEC" unicode="&#x1eec;" horiz-adv-x="1286" 
d="M590 -31q-111 0 -203 37.5t-156 107.5t-94 175.5t-16 234.5l98 930h176l-98 -936q-11 -96 9.5 -170.5t65 -119.5t104.5 -68t132 -23q149 0 253.5 97t125.5 290l98 930h148q77 0 117 34t49 109l6 72h143l-12 -117q-11 -106 -88.5 -171.5t-192.5 -65.5h-8l-84 -799
q-18 -170 -100.5 -296t-204.5 -188.5t-268 -62.5zM608 1886q25 45 68.5 70.5t95.5 25.5q75 0 125.5 -49.5t50.5 -122.5q0 -84 -62.5 -143t-150.5 -59h-61l10 116h55q36 0 60 22.5t24 53.5q0 25 -17 42.5t-44 17.5q-43 0 -64 -41z" />
    <glyph glyph-name="uni1EED" unicode="&#x1eed;" 
d="M586 1219l10 116h55q36 0 60 22.5t24 53.5q0 25 -17 42t-44 17q-43 0 -64 -40l-90 67q25 45 68.5 70.5t95.5 25.5q75 0 125.5 -49.5t50.5 -122.5q0 -84 -62.5 -143t-150.5 -59h-61zM111 438l65 627h172l-61 -602q-18 -156 57 -241t209 -85q135 0 225 84.5t107 241.5
l63 602h121q77 0 117 34t49 109l6 72h143l-12 -117q-10 -102 -83.5 -167t-182.5 -70l-96 -926h-172l16 170q-55 -83 -148.5 -136.5t-220.5 -53.5q-87 0 -158.5 27.5t-125 81.5t-78 143.5t-12.5 205.5z" />
    <glyph glyph-name="uni1EEE" unicode="&#x1eee;" horiz-adv-x="1286" 
d="M590 -31q-111 0 -203 37.5t-156 107.5t-94 175.5t-16 234.5l98 930h176l-98 -936q-11 -96 9.5 -170.5t65 -119.5t104.5 -68t132 -23q149 0 253.5 97t125.5 290l98 930h148q77 0 117 34t49 109l6 72h143l-12 -117q-11 -106 -88.5 -171.5t-192.5 -65.5h-8l-84 -799
q-18 -170 -100.5 -296t-204.5 -188.5t-268 -62.5zM451 1647q10 101 62.5 153.5t125.5 52.5q42 0 78 -19t56.5 -42t48 -42t55.5 -19q32 0 54 23.5t25 60.5h127q-10 -101 -61.5 -154t-124.5 -53q-42 0 -78 19t-56.5 41.5t-48 41.5t-55.5 19q-32 0 -54 -22.5t-27 -59.5h-127z
" />
    <glyph glyph-name="uni1EEF" unicode="&#x1eef;" 
d="M809 1219q-35 0 -64.5 12.5t-50 30t-39 35t-40 30t-44.5 12.5q-32 0 -54.5 -22.5t-27.5 -59.5h-127q10 101 63 154t126 53q35 0 64 -12.5t49.5 -31t39 -36.5t40 -30.5t44.5 -12.5q32 0 54.5 23.5t25.5 60.5h127q-10 -101 -61.5 -153.5t-124.5 -52.5zM111 438l65 627h172
l-61 -602q-18 -156 57 -241t209 -85q135 0 225 84.5t107 241.5l63 602h121q77 0 117 34t49 109l6 72h143l-12 -117q-10 -102 -83.5 -167t-182.5 -70l-96 -926h-172l16 170q-55 -83 -148.5 -136.5t-220.5 -53.5q-87 0 -158.5 27.5t-125 81.5t-78 143.5t-12.5 205.5z" />
    <glyph glyph-name="uni1EF0" unicode="&#x1ef0;" horiz-adv-x="1286" 
d="M590 -31q-111 0 -203 37.5t-156 107.5t-94 175.5t-16 234.5l98 930h176l-98 -936q-11 -96 9.5 -170.5t65 -119.5t104.5 -68t132 -23q149 0 253.5 97t125.5 290l98 930h148q77 0 117 34t49 109l6 72h143l-12 -117q-11 -106 -88.5 -171.5t-192.5 -65.5h-8l-84 -799
q-18 -170 -100.5 -296t-204.5 -188.5t-268 -62.5zM473 -315l19 163h159l-16 -163h-162z" />
    <glyph glyph-name="uni1EF1" unicode="&#x1ef1;" 
d="M424 -315l18 163h160l-16 -163h-162zM111 438l65 627h172l-61 -602q-18 -156 57 -241t209 -85q135 0 225 84.5t107 241.5l63 602h121q77 0 117 34t49 109l6 72h143l-12 -117q-10 -102 -83.5 -167t-182.5 -70l-96 -926h-172l16 170q-55 -83 -148.5 -136.5t-220.5 -53.5
q-87 0 -158.5 27.5t-125 81.5t-78 143.5t-12.5 205.5z" />
    <glyph glyph-name="Ygrave" unicode="&#x1ef2;" horiz-adv-x="1331" 
d="M518 0l70 618l-432 836h194l338 -674l475 674h205l-604 -836l-70 -618h-176zM502 1905h153l166 -318h-149z" />
    <glyph glyph-name="ygrave" unicode="&#x1ef3;" horiz-adv-x="1163" 
d="M223 -389l217 407l-336 1047h179l266 -850l438 850h182l-770 -1454h-176zM365 1516h153l166 -318h-149z" />
    <glyph glyph-name="uni1EF4" unicode="&#x1ef4;" horiz-adv-x="1331" 
d="M518 0l70 618l-432 836h194l338 -674l475 674h205l-604 -836l-70 -618h-176zM492 -315l18 163h160l-17 -163h-161z" />
    <glyph glyph-name="uni1EF5" unicode="&#x1ef5;" horiz-adv-x="1163" 
d="M223 -389l217 407l-336 1047h179l266 -850l438 850h182l-770 -1454h-176zM651 -315l19 163h159l-16 -163h-162z" />
    <glyph glyph-name="uni1EF6" unicode="&#x1ef6;" horiz-adv-x="1331" 
d="M518 0l70 618l-432 836h194l338 -674l475 674h205l-604 -836l-70 -618h-176zM631 1886q25 45 68.5 70.5t95.5 25.5q75 0 125.5 -49.5t50.5 -122.5q0 -84 -62.5 -143t-150.5 -59h-62l11 116h55q36 0 60 22.5t24 53.5q0 25 -17.5 42.5t-44.5 17.5q-42 0 -63 -41z" />
    <glyph glyph-name="uni1EF7" unicode="&#x1ef7;" horiz-adv-x="1163" 
d="M223 -389l217 407l-336 1047h179l266 -850l438 850h182l-770 -1454h-176zM494 1497q25 45 68 70.5t95 25.5q75 0 126 -49.5t51 -122.5q0 -84 -62.5 -143t-150.5 -59h-62l10 116h56q36 0 60 22.5t24 53.5q0 25 -17.5 42t-44.5 17q-42 0 -63 -40z" />
    <glyph glyph-name="uni1EF8" unicode="&#x1ef8;" horiz-adv-x="1331" 
d="M518 0l70 618l-432 836h194l338 -674l475 674h205l-604 -836l-70 -618h-176zM473 1647q10 101 63 153.5t126 52.5q35 0 64 -12.5t49.5 -30.5t39 -36t40 -30.5t44.5 -12.5q32 0 54.5 23.5t25.5 60.5h127q-10 -101 -61.5 -154t-124.5 -53q-42 0 -78 19t-56.5 41.5t-48 41.5
t-55.5 19q-32 0 -55 -22.5t-27 -59.5h-127z" />
    <glyph glyph-name="uni1EF9" unicode="&#x1ef9;" horiz-adv-x="1163" 
d="M223 -389l217 407l-336 1047h179l266 -850l438 850h182l-770 -1454h-176zM336 1257q10 101 62.5 154t125.5 53q35 0 64.5 -12.5t50 -31t39 -36.5t40 -30.5t44.5 -12.5q32 0 54.5 23.5t25.5 60.5h127q-10 -101 -62 -153.5t-125 -52.5q-35 0 -64 12.5t-49.5 30t-39 35
t-40 30t-44.5 12.5q-32 0 -54.5 -22.5t-27.5 -59.5h-127z" />
    <glyph glyph-name="endash" unicode="&#x2013;" horiz-adv-x="1230" 
d="M39 500l14 143h1045l-15 -143h-1044z" />
    <glyph glyph-name="emdash" unicode="&#x2014;" horiz-adv-x="1353" 
d="M39 500l14 143h1168l-15 -143h-1167z" />
    <glyph glyph-name="quoteleft" unicode="&#x2018;" horiz-adv-x="428" 
d="M469 1454l-209 -461h-156l213 461h152z" />
    <glyph glyph-name="quoteright" unicode="&#x2019;" horiz-adv-x="428" 
d="M104 993l209 461h156l-213 -461h-152z" />
    <glyph glyph-name="quotesinglbase" unicode="&#x201a;" horiz-adv-x="436" 
d="M-31 -283l209 461h156l-213 -461h-152z" />
    <glyph glyph-name="quotedblleft" unicode="&#x201c;" horiz-adv-x="696" 
d="M469 1454l-209 -461h-156l213 461h152zM371 993l213 461h151l-209 -461h-155z" />
    <glyph glyph-name="quotedblright" unicode="&#x201d;" horiz-adv-x="696" 
d="M373 993l209 461h155l-213 -461h-151zM104 993l209 461h156l-213 -461h-152z" />
    <glyph glyph-name="quotedblbase" unicode="&#x201e;" horiz-adv-x="704" 
d="M238 -283l208 461h156l-213 -461h-151zM-31 -283l209 461h156l-213 -461h-152z" />
    <glyph glyph-name="dagger" unicode="&#x2020;" horiz-adv-x="663" 
d="M309 659l19 394h-183l13 118h176l14 283h162l-43 -283h172l-12 -118h-181l-63 -394h-74z" />
    <glyph glyph-name="daggerdbl" unicode="&#x2021;" horiz-adv-x="663" 
d="M324 786l10 267h-189l15 118h178l10 283h164l-49 -283h178l-14 -118h-185l-45 -267h-73zM63 283l13 118h188l45 267h74l-10 -267h184l-12 -118h-176l-13 -283h-161l49 283h-181z" />
    <glyph glyph-name="bullet" unicode="&#x2022;" horiz-adv-x="331" 
d="M152 492q-103 0 -103 104t103 104q104 0 104 -104t-104 -104z" />
    <glyph glyph-name="ellipsis" unicode="&#x2026;" horiz-adv-x="1372" 
d="M1141 -10q-108 0 -99 110q4 47 32 72t75 25q110 0 98 -111q-9 -96 -106 -96zM31 100q9 97 106 97q54 0 79.5 -28.5t19.5 -82.5q-9 -96 -107 -96q-107 0 -98 110zM537 100q9 97 106 97q110 0 98 -111q-9 -96 -106 -96q-107 0 -98 110z" />
    <glyph glyph-name="perthousand" unicode="&#x2030;" horiz-adv-x="2048" 
d="M1671 -10q-100 0 -167.5 66.5t-67.5 166.5q0 110 81.5 190.5t192.5 80.5q100 0 168 -67t68 -167q0 -110 -82 -190t-193 -80zM139 88l1063 1370l127 -90l-1059 -1368zM143 1194q0 110 82 190t193 80q100 0 167.5 -66.5t67.5 -166.5q0 -110 -81.5 -190t-192.5 -80
q-100 0 -168 67t-68 166zM264 1200q0 -52 34.5 -86.5t84.5 -34.5q61 0 105 42.5t44 103.5q0 52 -34 86.5t-84 34.5q-61 0 -105.5 -42.5t-44.5 -103.5zM819 223q0 110 81.5 190.5t191.5 80.5q101 0 169 -67t68 -167q0 -110 -81.5 -190t-192.5 -80q-100 0 -168 67t-68 166z
M940 229q0 -52 34 -86t85 -34q59 0 103 42t44 103q0 52 -34 86.5t-85 34.5q-59 0 -103 -42.5t-44 -103.5zM1556 229q0 -52 34.5 -86t84.5 -34q61 0 105.5 42t44.5 103q0 52 -34.5 86.5t-84.5 34.5q-61 0 -105.5 -42.5t-44.5 -103.5z" />
    <glyph glyph-name="guilsinglleft" unicode="&#x2039;" horiz-adv-x="493" 
d="M426 936l53 -62l-268 -278l209 -279l-66 -63l-268 299l8 84z" />
    <glyph glyph-name="guilsinglright" unicode="&#x203a;" horiz-adv-x="493" 
d="M82 254l-53 61l268 279l-209 278l66 64l268 -299l-8 -84z" />
    <glyph glyph-name="fraction" unicode="&#x2044;" horiz-adv-x="221" 
d="M-504 0l1045 1434h90l-1032 -1434h-103z" />
    <glyph glyph-name="dong" unicode="&#x20ab;" horiz-adv-x="1280" 
d="M518 127q-89 0 -167.5 28.5t-140.5 82t-98 139.5t-36 192q0 153 71 281t194.5 202t272.5 74q138 0 236.5 -60t126.5 -144h6l33 307h-391l14 125h389l10 100h174l-10 -100h84l-12 -125h-86l-117 -1096h-172l21 199h-7q-46 -84 -153.5 -144.5t-241.5 -60.5zM76 -98l12 125
h961l-15 -125h-958zM252 590q0 -149 90 -230t227 -81q73 0 142.5 26.5t124.5 74t88.5 121t33.5 161.5q0 148 -94 230.5t-231 82.5q-158 0 -269.5 -108t-111.5 -277z" />
    <glyph glyph-name="Euro" unicode="&#x20ac;" horiz-adv-x="1538" 
d="M53 743l10 103h127q33 135 109 252t180.5 200t236.5 130t273 47q73 0 142.5 -13t143 -43.5t139.5 -89t112 -139.5l-137 -94q-69 113 -178.5 161t-231.5 48q-215 0 -382.5 -128t-223.5 -331h446l-10 -103h-457q-4 -50 -4 -73v-6h453l-10 -103h-433q33 -191 173 -301
t337 -110q274 0 445 208l117 -94q-121 -155 -274.5 -219.5t-309.5 -64.5q-176 0 -321 70.5t-238 203t-113 307.5h-139l10 103h123q0 25 4 79h-119z" />
    <glyph glyph-name="uni20BD" unicode="&#x20bd;" horiz-adv-x="1181" 
d="M-6 242l16 157h103l12 115h-102l16 158h102l82 782h473q215 0 334 -116.5t121 -313.5q0 -149 -68 -266.5t-194 -184.5t-289 -67h-299l-12 -107h499l-16 -157h-500l-24 -242h-176l24 242h-102zM317 672h283q168 0 269.5 89.5t101.5 250.5q-1 139 -80.5 208.5t-224.5 69.5
h-283z" />
    <glyph glyph-name="trademark" unicode="&#x2122;" horiz-adv-x="1142" 
d="M612 1085l39 369h82l111 -276l178 276h84l-39 -369h-82l25 224l-138 -224h-63l-88 224l-27 -224h-82zM221 1380l8 74h351l-9 -74h-133l-30 -295h-84l32 295h-135z" />
    <glyph glyph-name="oneeighth" unicode="&#x215b;" horiz-adv-x="1138" 
d="M-59 0l1044 1434h86l-1032 -1434h-98zM94 1395l76 41h76l-56 -535h-75l47 453l-35 -23zM621 162q9 88 100 133q-55 43 -49 111q6 53 53 93t117 40q75 0 115.5 -42.5t35.5 -99.5q-7 -70 -73 -106q82 -42 73 -137q-7 -68 -65.5 -113t-134.5 -45q-77 0 -128 47.5t-44 118.5z
M694 154q-4 -40 25 -67.5t72 -27.5q51 0 86 28.5t41 74.5q4 43 -23 69.5t-74 26.5q-46 0 -84.5 -30t-42.5 -74zM748 397q-3 -29 18.5 -52t52.5 -23q37 0 65 25.5t31 58.5q3 30 -13 49.5t-58 19.5t-67.5 -23t-28.5 -55z" />
    <glyph glyph-name="threeeighths" unicode="&#x215c;" horiz-adv-x="1175" 
d="M-18 0l1042 1434h86l-1030 -1434h-98zM53 1081l78 -4q-5 -50 19.5 -84.5t72.5 -34.5q47 0 84 29t41 74q6 54 -29.5 74t-109.5 20l2 59q66 0 101 25t40 66q3 30 -19.5 50.5t-58.5 20.5q-45 0 -75.5 -30t-36.5 -84l-74 4q6 77 59 125.5t127 48.5q67 0 112.5 -43.5
t39.5 -100.5q-7 -64 -72 -106q35 -15 55.5 -50.5t16.5 -86.5q-7 -68 -67.5 -114t-135.5 -46q-84 0 -132.5 56t-37.5 132zM655 162q9 88 103 133q-57 42 -51 111q6 53 53 93t117 40q76 0 116.5 -43t34.5 -99q-7 -69 -72 -106q83 -44 74 -137q-7 -68 -67 -113t-136 -45
q-77 0 -128 47.5t-44 118.5zM731 154q-4 -40 25 -67.5t71 -27.5q51 0 86 28.5t39 74.5q4 43 -22.5 69.5t-73.5 26.5q-46 0 -83.5 -30t-41.5 -74zM782 397q-3 -29 19 -52t53 -23q37 0 65 25.5t31 58.5q3 30 -13 49.5t-58 19.5t-68 -23t-29 -55z" />
    <glyph glyph-name="fiveeighths" unicode="&#x215d;" horiz-adv-x="1179" 
d="M-20 0l1044 1434h86l-1032 -1434h-98zM47 1022l72 35q-2 -41 26 -70t76 -29q49 0 88 36.5t45 92.5q6 49 -23 84t-69 35q-73 0 -125 -61l-65 18l65 273h283l-6 -66h-213l-31 -119q47 21 92 21q73 0 125 -56t45 -137q-9 -78 -71 -132t-140 -54q-69 0 -117.5 39.5
t-56.5 89.5zM659 162q9 88 101 133q-55 43 -49 111q6 53 53 93t117 40q75 0 115.5 -42.5t35.5 -99.5q-7 -69 -74 -106q83 -42 74 -137q-7 -68 -66 -113t-135 -45q-77 0 -128 47.5t-44 118.5zM733 154q-4 -40 25 -67.5t71 -27.5q51 0 86 28.5t41 74.5q4 43 -22.5 69.5
t-73.5 26.5q-46 0 -84.5 -30t-42.5 -74zM786 397q-3 -29 19 -52t53 -23q37 0 65 25.5t31 58.5q3 30 -13 49.5t-58 19.5t-68 -23t-29 -55z" />
    <glyph glyph-name="seveneighths" unicode="&#x215e;" horiz-adv-x="1136" 
d="M-61 0l1044 1434h86l-1032 -1434h-98zM88 1370l6 66h355l-265 -535h-80l232 469h-248zM618 162q9 88 101 133q-55 43 -49 111q6 53 53 93t117 40q75 0 115.5 -42.5t35.5 -99.5q-7 -70 -73 -106q82 -42 73 -137q-7 -68 -65.5 -113t-134.5 -45q-77 0 -128.5 47.5
t-44.5 118.5zM692 154q-4 -40 25 -67.5t71 -27.5q51 0 86 28.5t41 74.5q5 43 -22 69.5t-74 26.5q-46 0 -84.5 -30t-42.5 -74zM745 397q-3 -29 19 -52t53 -23q37 0 65 25.5t31 58.5q3 30 -13 49.5t-58 19.5t-68 -23t-29 -55z" />
    <glyph glyph-name="partialdiff" unicode="&#x2202;" horiz-adv-x="1124" 
d="M510 -20q-196 0 -323.5 131.5t-106.5 328.5q13 121 87.5 224.5t184.5 163t228 59.5q98 0 168 -53l-386 620h185l295 -481q8 -14 27 -44q32 -51 49 -80t44 -85.5t40 -101.5t20.5 -107.5t1.5 -124.5q-14 -128 -90.5 -232.5t-188.5 -161t-235 -56.5zM244 426
q-13 -128 67 -211.5t201 -83.5q130 0 231.5 87.5t114.5 223.5q14 128 -60 208.5t-208 80.5q-82 0 -157 -36.5t-127 -107.5t-62 -161z" />
    <glyph glyph-name="product" unicode="&#x220f;" horiz-adv-x="1400" 
d="M-4 -389l190 1823h1217l-191 -1823h-165l174 1659h-885l-174 -1659h-166z" />
    <glyph glyph-name="summation" unicode="&#x2211;" horiz-adv-x="1363" 
d="M-4 -389l657 911l-467 912h1180l-16 -164h-889l389 -748l-547 -747h889l-16 -164h-1180z" />
    <glyph glyph-name="minus" unicode="&#x2212;" horiz-adv-x="872" 
d="M90 500l14 143h687l-15 -143h-686z" />
    <glyph glyph-name="radical" unicode="&#x221a;" horiz-adv-x="1492" 
d="M578 -389l-252 930h-232l19 188h348l229 -879l651 1788h177l-744 -2027h-196z" />
    <glyph glyph-name="infinity" unicode="&#x221e;" horiz-adv-x="1673" 
d="M1190 190q-194 0 -367 232q-214 -232 -409 -232q-150 0 -239.5 99.5t-74.5 247.5q15 144 125 242t260 98q192 0 363 -228q221 228 414 228q148 0 237 -98.5t74 -241.5q-15 -148 -124.5 -247.5t-258.5 -99.5zM250 537q-9 -85 43 -144t139 -59q74 0 156 54t157 149
q-54 93 -125.5 145.5t-144.5 52.5q-88 0 -152 -57t-73 -141zM926 537q56 -95 127.5 -149t144.5 -54q88 0 152 58.5t73 144.5q9 84 -43 141t-139 57q-74 0 -156.5 -52.5t-158.5 -145.5z" />
    </font>
</defs>
</svg>
