<?xml version="1.0" standalone="no"?>
<!DOCTYPE svg PUBLIC "-//W3C//DTD SVG 1.1//EN" "http://www.w3.org/Graphics/SVG/1.1/DTD/svg11.dtd" >
<svg xmlns="http://www.w3.org/2000/svg" xmlns:xlink="http://www.w3.org/1999/xlink" version="1.1">
<metadata>
Created by FontForge 20170731 at Fri Jul 14 11:17:24 2023
 By Aleksey,,,
Copyright (c) 2021 by Connary Fagen. All rights reserved.
</metadata>
<defs>
<font id="VisbyCF-ThinOblique" horiz-adv-x="1294" >
  <font-face 
    font-family="Visby CF Thin"
    font-weight="100"
    font-style="oblique"
    font-stretch="normal"
    units-per-em="2048"
    panose-1="0 0 0 0 0 0 0 0 0 0"
    ascent="1638"
    descent="-410"
    x-height="1065"
    cap-height="1454"
    bbox="-502 -512 2343 2247"
    underline-thickness="102"
    underline-position="-358"
    slope="-6"
    unicode-range="U+0020-FB01"
  />
<missing-glyph horiz-adv-x="1075" 
d="M883 1638v-2150h-682v2150h682zM358 -365h359v72h-219l149 100h70v72h-359v-72h152l-152 -100v-72zM358 -72h359v244h-359v-244zM358 301h359v244h-215v-121h71v49h72v-100h-215v172h-72v-244zM358 592h359v215h-72v-143h-287v-72zM358 715h215v149h144v72h-359v-72h144
v-80h-144v-69zM358 993h359v74h-144v150h-215v-224zM358 1274h359v69h-144v80h144v72h-357v-72h142v-80h-144v-69zM430 0v100h215v-100h-215zM430 1067v78h72v-78h-72z" />
    <glyph glyph-name="fi" unicode="fi" horiz-adv-x="925" 
d="M285 1012l-105 -1012h-57l106 1012h-110l6 53h108l19 172q14 136 86 195t168 59q51 0 88 -12.5t53 -28.5l-4 -49q-64 35 -137 35q-176 0 -199 -209l-16 -162h547l-111 -1065h-57l104 1012h-489zM813 1384l10 70h58l-9 -70h-59z" />
    <glyph glyph-name="f_f" unicode="ff" horiz-adv-x="1208" 
d="M285 1012l-105 -1012h-57l106 1012h-110l6 53h108l19 172q14 136 86 195t168 59q51 0 88 -12.5t53 -28.5l-4 -49q-64 35 -137 35q-176 0 -199 -209l-16 -162h489l19 172q14 136 86 195t168 59q51 0 88 -12.5t53 -28.5l-4 -49q-64 35 -137 35q-176 0 -199 -209l-16 -162
h315l-4 -53h-318l-104 -1012h-57l106 1012h-491z" />
    <glyph glyph-name=".notdef" horiz-adv-x="1075" 
d="M883 1638v-2150h-682v2150h682zM358 -365h359v72h-219l149 100h70v72h-359v-72h152l-152 -100v-72zM358 -72h359v244h-359v-244zM358 301h359v244h-215v-121h71v49h72v-100h-215v172h-72v-244zM358 592h359v215h-72v-143h-287v-72zM358 715h215v149h144v72h-359v-72h144
v-80h-144v-69zM358 993h359v74h-144v150h-215v-224zM358 1274h359v69h-144v80h144v72h-357v-72h142v-80h-144v-69zM430 0v100h215v-100h-215zM430 1067v78h72v-78h-72z" />
    <glyph glyph-name=".null" horiz-adv-x="0" 
 />
    <glyph glyph-name="nonmarkingreturn" horiz-adv-x="682" 
 />
    <glyph glyph-name="space" unicode=" " horiz-adv-x="423" 
 />
    <glyph glyph-name="space" unicode="&#xa0;" horiz-adv-x="423" 
 />
    <glyph glyph-name="exclam" unicode="!" horiz-adv-x="366" 
d="M135 348l119 1106h57l-116 -1106h-60zM86 23q0 17 11.5 30t33.5 13q20 0 31.5 -13t11.5 -30t-11.5 -30t-31.5 -13q-22 0 -33.5 13t-11.5 30z" />
    <glyph glyph-name="quotedbl" unicode="&#x22;" horiz-adv-x="389" 
d="M299 1077l41 377h61l-41 -377h-61zM141 1077l41 377h62l-41 -377h-62z" />
    <glyph glyph-name="numbersign" unicode="#" horiz-adv-x="1126" 
d="M147 0l66 369h-195l7 57h196l105 584h-240l6 55h244l65 369h60l-66 -369h375l66 369h59l-66 -369h205l-6 -55h-209l-104 -584h252l-6 -57h-254l-66 -369h-59l65 369h-375l-65 -369h-60zM281 426h374l105 584h-375z" />
    <glyph glyph-name="dollar" unicode="$" horiz-adv-x="860" 
d="M365 0l18 174q-128 9 -209.5 84t-93.5 193l61 14q14 -113 91 -170t184 -57q53 0 102 14t91 41t67.5 74.5t25.5 107.5q0 88 -53 139.5t-174 106.5l-57 29q-221 100 -221 272q0 114 84 186t213 72h4l18 174h64l-21 -180q85 -13 145 -65.5t82 -131.5l-53 -20
q-64 160 -239 160q-103 0 -167.5 -50t-64.5 -145q0 -72 43 -124t137 -95l43 -21q148 -68 213.5 -134t65.5 -171q0 -130 -90.5 -211t-229.5 -90l-16 -176h-63z" />
    <glyph glyph-name="percent" unicode="%" horiz-adv-x="1429" 
d="M209 0l-41 33l1106 1423l39 -33zM143 1192q0 111 84 191.5t195 80.5q97 0 164 -66t67 -165q0 -111 -83.5 -191.5t-194.5 -80.5q-98 0 -165 66t-67 165zM199 1194q0 -78 51.5 -129t126.5 -51q88 0 154.5 62t66.5 155q0 77 -51 128.5t-127 51.5q-88 0 -154.5 -62
t-66.5 -155zM817 221q0 112 83 192.5t194 80.5q99 0 166 -66.5t67 -165.5q0 -111 -83.5 -191.5t-194.5 -80.5q-98 0 -165 66t-67 165zM872 223q0 -78 51 -129t126 -51q89 0 156 62t67 155q0 78 -51 129t-127 51q-88 0 -155 -62.5t-67 -154.5z" />
    <glyph glyph-name="ampersand" unicode="&#x26;" horiz-adv-x="1343" 
d="M535 -20q-187 0 -306.5 120.5t-119.5 309.5q0 204 139.5 340t345.5 147l-250 557h692l-4 -55h-598l244 -557h-53q-197 0 -326 -122.5t-129 -307.5q0 -169 107.5 -272t265.5 -103q93 0 177.5 37t141 94t92.5 123.5t43 128.5l41 399h209l-6 -55h-156l-59 -614
q-8 -107 80 -107q40 0 90 23l-4 -54q-44 -24 -100 -24q-140 0 -123 168l10 82q-68 -117 -185.5 -187.5t-258.5 -70.5z" />
    <glyph glyph-name="quotesingle" unicode="'" horiz-adv-x="233" 
d="M141 1077l41 377h62l-41 -377h-62z" />
    <glyph glyph-name="parenleft" unicode="(" horiz-adv-x="425" 
d="M170 -264q-177 388 -121 921q54 511 309 871l52 -4q-247 -374 -297 -871q-57 -517 110 -921z" />
    <glyph glyph-name="parenright" unicode=")" horiz-adv-x="423" 
d="M-49 -264q245 392 301 921q53 499 -115 871l53 -4q178 -366 125 -871q-57 -535 -313 -921z" />
    <glyph glyph-name="asterisk" unicode="*" horiz-adv-x="864" 
d="M274 885l-43 33l177 206l-240 66l18 51l232 -76l20 248h60l-31 -248l250 76l8 -51l-256 -66l135 -206l-49 -33l-117 205z" />
    <glyph glyph-name="plus" unicode="+" horiz-adv-x="868" 
d="M371 233l32 312h-311l6 61h314l32 312h62l-33 -312h309l-6 -61h-311l-33 -312h-61z" />
    <glyph glyph-name="comma" unicode="," horiz-adv-x="331" 
d="M-20 -293l170 377h61l-172 -377h-59z" />
    <glyph glyph-name="hyphen" unicode="-" horiz-adv-x="819" 
d="M43 559l4 45h635l-4 -45h-635z" />
    <glyph glyph-name="period" unicode="." horiz-adv-x="256" 
d="M76 -20q-22 0 -33.5 13t-11.5 30t11.5 30t33.5 13q20 0 31.5 -13t11.5 -30t-11.5 -30t-31.5 -13z" />
    <glyph glyph-name="slash" unicode="/" horiz-adv-x="868" 
d="M76 0l747 1536h62l-750 -1536h-59z" />
    <glyph glyph-name="zero" unicode="0" horiz-adv-x="1687" 
d="M788 -20q-132 0 -251 49t-207.5 135.5t-140.5 213.5t-52 275q0 162 65 313.5t173 263t257 178.5t308 67q132 0 251 -49t207.5 -136t140.5 -214t52 -275q0 -130 -41 -254t-116.5 -225.5t-174 -179t-221 -120t-250.5 -42.5zM195 651q0 -180 82.5 -322t219 -217t298.5 -75
q151 0 289.5 65t236 171t155.5 246.5t58 287.5q0 180 -82 320.5t-218.5 215t-299.5 74.5q-151 0 -289 -64.5t-236 -170t-156 -245.5t-58 -286z" />
    <glyph glyph-name="one" unicode="1" horiz-adv-x="524" 
d="M240 0l147 1393h-170l6 61h230l-154 -1454h-59z" />
    <glyph glyph-name="two" unicode="2" horiz-adv-x="1056" 
d="M584 580q22 23 63 66t64 67t57.5 64t55 68t45 67t37 72t21.5 72.5t9 78.5q0 130 -81.5 206t-227.5 76q-163 0 -275 -95.5t-135 -266.5l-4 -33h-57l6 39q31 192 155 303t306 111q167 0 268.5 -94t101.5 -244q0 -40 -9 -81t-20.5 -74t-35.5 -73t-41 -65.5t-50.5 -65
t-51.5 -59t-55.5 -60t-51.5 -55.5l-514 -549h723l-4 -55h-838z" />
    <glyph glyph-name="three" unicode="3" horiz-adv-x="1144" 
d="M514 -20q-170 0 -286 85.5t-146 221.5l55 22q28 -120 127 -196t254 -76q196 0 321.5 121.5t125.5 310.5q0 129 -63 216t-167 118.5t-231 7.5l457 588h-672l4 55h780l-452 -580q78 3 150 -22.5t129 -75t91.5 -129t34.5 -176.5q0 -141 -67.5 -253.5t-184.5 -175t-260 -62.5
z" />
    <glyph glyph-name="four" unicode="4" horiz-adv-x="1015" 
d="M672 0l47 422h-651l8 57l751 975h58l-101 -975h154l-6 -57h-154l-47 -422h-59zM145 479h580l90 867z" />
    <glyph glyph-name="five" unicode="5" horiz-adv-x="1155" 
d="M506 -20q-166 0 -279.5 83t-152.5 207l51 29q33 -110 136 -186t251 -76q131 0 240.5 63.5t173 173.5t63.5 242q0 173 -107.5 282t-277.5 109q-230 0 -385 -188l-55 12l174 723h666l-5 -55h-616l-147 -598q72 81 169.5 121.5t202.5 40.5q191 0 316 -124.5t125 -322.5
q0 -148 -70.5 -270.5t-195.5 -194t-277 -71.5z" />
    <glyph glyph-name="six" unicode="6" horiz-adv-x="1128" 
d="M512 -20q-180 0 -298 115t-118 290q0 46 10 94.5t22.5 87.5t38.5 87t42 76t50.5 74t46.5 61t47 56.5t36 43.5l395 489h72l-561 -688l-2 -6q128 110 303 110q179 0 296.5 -113.5t117.5 -293.5q0 -132 -66.5 -243t-181 -175.5t-250.5 -64.5zM154 389q0 -162 103 -257
t261 -95q180 0 307 120.5t127 303.5q0 162 -102 257t-260 95q-180 0 -308 -120.5t-128 -303.5z" />
    <glyph glyph-name="seven" unicode="7" horiz-adv-x="925" 
d="M199 0l675 1399h-720l6 55h801l-703 -1454h-59z" />
    <glyph glyph-name="eight" unicode="8" horiz-adv-x="1105" 
d="M504 -20q-174 0 -292 108t-118 281q0 149 93 265t239 167q-79 44 -129.5 123t-50.5 178q0 152 112 262.5t277 110.5q152 0 248 -96.5t96 -237.5q0 -111 -65 -202t-181 -142q109 -44 180.5 -140t71.5 -225t-68 -234t-177.5 -161.5t-235.5 -56.5zM152 369
q0 -152 100.5 -241t253.5 -89q174 0 298 112t124 283q0 151 -97.5 242.5t-248.5 91.5q-115 0 -213 -50.5t-157.5 -142.5t-59.5 -206zM301 1102q0 -120 78 -201.5t211 -81.5q142 0 239 95t97 229q0 117 -79.5 197.5t-211.5 80.5q-141 0 -237.5 -92.5t-96.5 -226.5z" />
    <glyph glyph-name="nine" unicode="9" horiz-adv-x="1128" 
d="M657 1475q180 0 298 -115.5t118 -290.5q0 -46 -10 -94.5t-22.5 -87.5t-38.5 -87t-42 -76t-50.5 -74t-46.5 -61t-47 -56.5t-36 -43.5l-395 -489h-72l561 688l3 6q-128 -110 -304 -110q-179 0 -296 113.5t-117 293.5q0 99 39 188.5t105.5 154.5t158.5 103t194 38zM217 993
q0 -162 102.5 -257t260.5 -95q180 0 308 120.5t128 303.5q0 162 -103.5 257t-261.5 95q-180 0 -307 -120.5t-127 -303.5z" />
    <glyph glyph-name="colon" unicode=":" horiz-adv-x="245" 
d="M197 928q-22 0 -33.5 13t-11.5 30t11.5 30t33.5 13q20 0 31.5 -13t11.5 -30t-11.5 -30t-31.5 -13zM51 23q0 17 11.5 30t33.5 13q20 0 31.5 -13t11.5 -30t-11.5 -30t-31.5 -13q-22 0 -33.5 13t-11.5 30z" />
    <glyph glyph-name="semicolon" unicode=";" horiz-adv-x="339" 
d="M-20 -293l170 377h61l-172 -377h-59zM203 971q0 17 11.5 30t33.5 13q20 0 31.5 -13t11.5 -30t-11.5 -30t-31.5 -13q-22 0 -33.5 13t-11.5 30z" />
    <glyph glyph-name="less" unicode="&#x3c;" horiz-adv-x="1017" 
d="M891 0l-805 465l4 55l903 465l-6 -63l-837 -430l747 -426z" />
    <glyph glyph-name="equal" unicode="=" horiz-adv-x="872" 
d="M80 397l6 45h686l-4 -45h-688zM113 721l4 45h688l-6 -45h-686z" />
    <glyph glyph-name="greater" unicode="&#x3e;" horiz-adv-x="1017" 
d="M119 985l805 -465l-4 -55l-904 -465l7 63l837 431l-747 426z" />
    <glyph glyph-name="question" unicode="?" horiz-adv-x="972" 
d="M434 459q7 61 34.5 115.5t66.5 96.5t85 82t91.5 80t84.5 82t66.5 97t34.5 116q15 137 -74 214t-243 77q-162 0 -266 -91t-126 -288h-59q20 207 137 321t312 114q193 0 294.5 -101.5t83.5 -255.5q-7 -63 -34.5 -120.5t-66.5 -102t-85.5 -86t-92.5 -81.5t-85 -80.5
t-66.5 -90.5t-33.5 -104l-11 -103h-59zM393 23q0 17 11.5 30t33.5 13q20 0 31.5 -13t11.5 -30t-11.5 -30t-31.5 -13q-22 0 -33.5 13t-11.5 30z" />
    <glyph glyph-name="at" unicode="@" horiz-adv-x="1662" 
d="M788 -20q-137 0 -256 46.5t-206.5 130.5t-138 210t-50.5 278q0 172 64 327t172 264.5t255.5 174t309.5 64.5q131 0 245 -47.5t199 -134t134 -217.5t49 -290q0 -94 -16 -179.5t-47.5 -156.5t-84.5 -113t-121 -42q-80 0 -130 61.5t-42 182.5q-41 -89 -102 -146.5
t-121 -79.5t-125 -22q-64 0 -122 24.5t-103.5 71t-72.5 120.5t-27 165q0 197 114.5 331t284.5 134q48 0 92 -11.5t85 -35.5t71.5 -66.5t44.5 -99.5l35 190h47l-51 -506q-25 -258 124 -258q58 0 101 39.5t65.5 105.5t32.5 136.5t10 146.5q0 152 -44 275t-121.5 202
t-180.5 121.5t-223 42.5q-152 0 -289.5 -60.5t-237 -163t-158 -245.5t-58.5 -301q0 -141 46.5 -257.5t128.5 -194t193 -120t240 -42.5q205 0 356 108l-6 -65q-154 -98 -365 -98zM508 674q0 -162 78 -245t196 -83q146 0 242 126.5t96 303.5q0 81 -22 141.5t-61 95t-85 50.5
t-100 16q-155 0 -249.5 -116t-94.5 -289z" />
    <glyph glyph-name="A" unicode="A" horiz-adv-x="1351" 
d="M795 1454l432 -1454h-64l-123 418h-749l-209 -418h-68l734 1454h47zM322 477h702l-260 885z" />
    <glyph glyph-name="B" unicode="B" horiz-adv-x="1159" 
d="M86 0l152 1454h454q92 0 161.5 -25t110 -68.5t60.5 -97t20 -116.5q0 -115 -66 -209t-210 -137q137 -31 208 -129t71 -238q0 -193 -134.5 -313.5t-394.5 -120.5h-432zM152 57h370q215 0 341 98.5t126 280.5q0 160 -99.5 247t-293.5 87h-371zM229 825h385q162 0 268.5 92
t106.5 232q0 116 -77 182t-230 66h-393z" />
    <glyph glyph-name="C" unicode="C" horiz-adv-x="1497" 
d="M807 -20q-190 0 -342 83.5t-240 237.5t-88 352q0 167 66 320t177 262.5t261.5 174.5t312.5 65q65 0 129.5 -11t136 -37t137 -78t111.5 -126l-51 -37q-41 69 -101 117.5t-127 71t-123.5 31.5t-115.5 9q-153 0 -292 -60.5t-240 -163t-161 -244t-60 -296.5q0 -183 82 -323.5
t222.5 -214.5t315.5 -74q58 0 115 9t127.5 31.5t139.5 71t124 117.5l43 -37q-62 -74 -137 -126t-150.5 -78t-140.5 -36.5t-131 -10.5z" />
    <glyph glyph-name="D" unicode="D" horiz-adv-x="1302" 
d="M86 0l152 1454h337q314 0 483 -176t169 -479q0 -235 -97.5 -416t-279.5 -282t-422 -101h-342zM150 57h278q223 0 391.5 94t258 261t89.5 383q0 281 -155 441.5t-445 160.5h-276z" />
    <glyph glyph-name="E" unicode="E" horiz-adv-x="999" 
d="M86 0l152 1454h731l-6 -59h-672l-66 -635h578l-6 -60h-578l-67 -641h690l-6 -59h-750z" />
    <glyph glyph-name="F" unicode="F" horiz-adv-x="993" 
d="M86 0l152 1454h743l-4 -53h-686l-66 -643h609l-7 -51h-608l-74 -707h-59z" />
    <glyph glyph-name="G" unicode="G" horiz-adv-x="1644" 
d="M791 -20q-186 0 -335 84t-234 237.5t-85 349.5q0 170 65.5 323t176 262.5t262 174t317.5 64.5q65 0 128.5 -11t135 -37t136 -78t110.5 -126l-49 -37q-42 69 -102.5 117t-126.5 70.5t-122 31t-114 8.5q-204 0 -378 -101.5t-276.5 -277.5t-102.5 -385q0 -136 46.5 -251
t127 -193.5t191.5 -122t239 -43.5q118 0 228 39t201.5 112t157 187.5t89.5 257.5h-486l10 59h541q-15 -163 -82 -299t-168.5 -226t-230.5 -139.5t-270 -49.5z" />
    <glyph glyph-name="H" unicode="H" horiz-adv-x="1263" 
d="M1004 0l69 668h-856l-70 -668h-59l154 1454h59l-78 -727h858l76 727h60l-154 -1454h-59z" />
    <glyph glyph-name="I" unicode="I" horiz-adv-x="342" 
d="M86 0l154 1454h59l-154 -1454h-59z" />
    <glyph glyph-name="J" unicode="J" horiz-adv-x="913" 
d="M346 -20q-109 0 -190.5 44.5t-116.5 122.5l43 37q84 -147 266 -147q154 0 242.5 93.5t107.5 262.5l113 1061h59l-110 -1061q-21 -205 -134 -309t-280 -104z" />
    <glyph glyph-name="K" unicode="K" horiz-adv-x="1230" 
d="M86 0l152 1454h59l-96 -932l929 932h87l-699 -692l590 -762h-76l-553 723l-289 -287l-45 -436h-59z" />
    <glyph glyph-name="L" unicode="L" horiz-adv-x="1011" 
d="M86 0l154 1454h59l-149 -1395h712l-4 -59h-772z" />
    <glyph glyph-name="M" unicode="M" horiz-adv-x="1736" 
d="M86 0l154 1454h61l516 -1378l811 1378h66l-154 -1454h-59l145 1343l-790 -1343h-48l-503 1346l-140 -1346h-59z" />
    <glyph glyph-name="N" unicode="N" horiz-adv-x="1392" 
d="M86 0l152 1454h59l840 -1348h12l139 1348h60l-152 -1454h-59l-840 1348h-12l-140 -1348h-59z" />
    <glyph glyph-name="O" unicode="O" horiz-adv-x="1693" 
d="M803 -20q-182 0 -332.5 81t-242 236t-91.5 354q0 166 64 319t171.5 263.5t254.5 176t305 65.5q135 0 256.5 -48t212.5 -133.5t144.5 -213t53.5 -277.5q0 -166 -64.5 -319t-172 -263t-254 -175.5t-305.5 -65.5zM197 653q0 -139 48.5 -255.5t131.5 -194.5t193 -121t233 -43
q146 0 282 61t235 163.5t158.5 243.5t59.5 294q0 139 -48.5 255.5t-131.5 194.5t-193 121t-233 43q-146 0 -282 -61t-235 -163.5t-158.5 -243.5t-59.5 -294z" />
    <glyph glyph-name="P" unicode="P" horiz-adv-x="1148" 
d="M88 0l150 1454h426q210 0 322 -111.5t114 -295.5q2 -217 -141.5 -356.5t-387.5 -139.5h-368l-56 -551h-59zM209 610h366q211 0 337 121.5t124 317.5q-1 167 -101 256.5t-282 89.5h-364z" />
    <glyph glyph-name="Q" unicode="Q" horiz-adv-x="1693" 
d="M1401 0l-115 154q-216 -174 -483 -174q-182 0 -332.5 81t-242 236t-91.5 354q0 166 64 319t171.5 263.5t254.5 176t305 65.5q135 0 256.5 -48t212.5 -133.5t144.5 -213t53.5 -277.5q0 -177 -70.5 -335t-195.5 -275l144 -193h-76zM197 653q0 -139 48.5 -255.5
t131.5 -194.5t193 -121t233 -43q245 0 448 162l-274 366h74l245 -325q113 107 177.5 252.5t64.5 306.5q0 139 -48.5 255.5t-131.5 194.5t-193 121t-233 43q-146 0 -282 -61t-235 -163.5t-158.5 -243.5t-59.5 -294z" />
    <glyph glyph-name="R" unicode="R" horiz-adv-x="1169" 
d="M86 0l152 1454h421q206 0 318.5 -112.5t112.5 -290.5q0 -181 -111 -317t-299 -171l336 -563h-74l-332 555q-14 -2 -45 -2h-362l-58 -553h-59zM209 614h352q209 0 337 122.5t128 312.5q0 169 -100 257.5t-283 88.5h-354z" />
    <glyph glyph-name="S" unicode="S" horiz-adv-x="1073" 
d="M508 -20q-178 0 -299 98t-141 260l55 20q23 -151 127.5 -235t259.5 -84q169 0 283 95.5t114 256.5q0 55 -16 100t-40.5 76.5t-66 61t-79.5 48.5t-95 42l-125 51q-272 115 -272 346q0 157 117.5 258t290.5 101q159 0 262.5 -85.5t128.5 -211.5l-51 -21
q-32 119 -117.5 188.5t-222.5 69.5q-150 0 -249.5 -81.5t-99.5 -215.5q0 -194 230 -291l106 -45q70 -29 113.5 -50.5t95.5 -56.5t81 -71t49 -89.5t20 -117.5q0 -184 -132 -300.5t-327 -116.5z" />
    <glyph glyph-name="T" unicode="T" horiz-adv-x="1087" 
d="M457 0l147 1395h-426l6 59h910l-7 -59h-423l-148 -1395h-59z" />
    <glyph glyph-name="U" unicode="U" horiz-adv-x="1259" 
d="M573 -31q-220 0 -341.5 146t-94.5 407l99 932h59l-98 -932q-24 -236 82.5 -363.5t302.5 -127.5q195 0 323 127t154 366l98 930h60l-99 -936q-18 -173 -95.5 -298.5t-193 -188t-256.5 -62.5z" />
    <glyph glyph-name="V" unicode="V" horiz-adv-x="1351" 
d="M598 0l-432 1454h63l400 -1362l682 1362h67l-733 -1454h-47z" />
    <glyph glyph-name="W" unicode="W" horiz-adv-x="1966" 
d="M442 0l-276 1454h59l256 -1335l572 1335h53l287 -1335l538 1335h64l-584 -1454h-53l-289 1339l-573 -1339h-54z" />
    <glyph glyph-name="X" unicode="X" horiz-adv-x="1286" 
d="M14 0l615 756l-422 698h74l389 -651l530 651h76l-574 -698l459 -756h-74l-423 707l-574 -707h-76z" />
    <glyph glyph-name="Y" unicode="Y" horiz-adv-x="1234" 
d="M530 0l74 664l-428 790h68l393 -735l543 735h71l-587 -790l-74 -664h-60z" />
    <glyph glyph-name="Z" unicode="Z" horiz-adv-x="1181" 
d="M25 0l1054 1395h-860l6 59h973l-1057 -1395h901l-6 -59h-1011z" />
    <glyph glyph-name="bracketleft" unicode="[" horiz-adv-x="436" 
d="M-47 -266l188 1792h252l-8 -56h-190l-179 -1681h191l-2 -55h-252z" />
    <glyph glyph-name="backslash" unicode="\" horiz-adv-x="872" 
d="M631 0l-434 1536h55l434 -1536h-55z" />
    <glyph glyph-name="bracketright" unicode="]" horiz-adv-x="438" 
d="M-45 -266l4 55h193l178 1681h-193l6 56h252l-188 -1792h-252z" />
    <glyph glyph-name="asciicircum" unicode="^" horiz-adv-x="946" 
d="M139 973l389 461h78l295 -461h-92l-248 389l-330 -389h-92z" />
    <glyph glyph-name="underscore" unicode="_" horiz-adv-x="1208" 
d="M-25 -57l5 57h1024l-5 -57h-1024z" />
    <glyph glyph-name="grave" unicode="`" horiz-adv-x="296" 
d="M276 1202l-153 314h70l153 -314h-70z" />
    <glyph glyph-name="a" unicode="a" 
d="M580 -20q-98 0 -185.5 31.5t-156.5 91.5t-109.5 156t-40.5 216q0 128 45.5 241t123 194t185.5 128t228 47q160 0 282.5 -78t165.5 -208h6l29 266h57l-110 -1065h-58l27 266h-6q-75 -133 -201 -209.5t-282 -76.5zM147 477q0 -209 123.5 -324.5t309.5 -115.5
q147 0 268.5 74.5t189.5 200.5t68 276q0 106 -34 191t-93.5 138.5t-137 82t-167.5 28.5q-148 0 -269.5 -74.5t-189.5 -200.5t-68 -276z" />
    <glyph glyph-name="b" unicode="b" horiz-adv-x="1296" 
d="M623 -20q-157 0 -280.5 78.5t-164.5 207.5h-8l-27 -266h-57l152 1454h57l-68 -655h6q66 130 199 208t287 78q76 0 147.5 -19t133.5 -59t108.5 -97t73 -137t26.5 -175q0 -171 -77 -312.5t-211.5 -223.5t-296.5 -82zM190 473q0 -107 36 -192.5t97.5 -137.5t137.5 -79
t160 -27q148 0 270 77t189 204t67 274q0 107 -36 192.5t-97 137.5t-137 79t-160 27q-112 0 -211 -45.5t-167.5 -121.5t-108.5 -177t-40 -211z" />
    <glyph glyph-name="c" unicode="c" horiz-adv-x="1171" 
d="M578 -20q-97 0 -185.5 33.5t-156.5 95.5t-108 157.5t-40 210.5q0 166 78 305.5t213.5 221t296.5 81.5q147 0 265.5 -68t172.5 -194l-53 -22q-48 109 -151 168t-228 59q-99 0 -193 -37t-169.5 -104.5t-121.5 -171.5t-46 -228q0 -110 36 -197.5t97.5 -141.5t139 -82.5
t163.5 -28.5q126 0 235.5 58.5t180.5 168.5l49 -22q-80 -126 -206 -194t-269 -68z" />
    <glyph glyph-name="d" unicode="d" 
d="M580 -20q-98 0 -185.5 31.5t-156.5 91.5t-109.5 156t-40.5 216q0 128 45.5 241t123 194t185.5 128t228 47q160 0 282.5 -78t165.5 -208h6l70 655h57l-151 -1454h-58l27 266h-6q-75 -133 -201 -209.5t-282 -76.5zM147 477q0 -209 123.5 -324.5t309.5 -115.5
q147 0 268.5 74.5t189.5 200.5t68 276q0 106 -34 191t-93.5 138.5t-137 82t-167.5 28.5q-148 0 -269.5 -74.5t-189.5 -200.5t-68 -276z" />
    <glyph glyph-name="e" unicode="e" horiz-adv-x="1202" 
d="M575 -20q-100 0 -187.5 31.5t-154.5 91.5t-106 155t-39 213q0 168 75.5 309t207.5 223t291 82q105 0 195 -37.5t155 -107.5t92.5 -180.5t5.5 -245.5h-960v-35q0 -106 34 -191t94 -138.5t138.5 -82t169.5 -28.5q113 0 213 43t166 121l43 -37q-82 -92 -195.5 -139
t-237.5 -47zM156 571h907q10 105 -18.5 192t-85 144t-134 88t-166.5 31q-192 0 -332 -128.5t-171 -326.5z" />
    <glyph glyph-name="f" unicode="f" horiz-adv-x="661" 
d="M252 1237q14 136 86 195t168 59q51 0 88 -12.5t53 -28.5l-4 -49q-64 35 -137 35q-176 0 -199 -209l-16 -162h315l-4 -53h-317l-105 -1012h-57l106 1012h-110l6 53h108z" />
    <glyph glyph-name="g" unicode="g" 
d="M549 -426q-111 0 -196 25.5t-117 54.5l8 61q104 -84 299 -84q69 0 133 12t128.5 42.5t114 77t85 121t45.5 169.5l20 213h-6q-74 -135 -200.5 -210.5t-282.5 -75.5q-100 0 -188 32t-156 92.5t-108 156.5t-40 216q0 126 44.5 239t122 194t186 128t231.5 47q161 0 282 -77.5
t164 -208.5h6l29 266h57l-106 -1028q-11 -99 -48 -179t-90 -132t-122.5 -87t-142.5 -50t-152 -15zM147 473q0 -107 35.5 -192t96.5 -137.5t138 -79.5t165 -27q148 0 269 74.5t188 201t67 277.5q0 107 -36 192.5t-97 138t-138.5 80t-164.5 27.5q-148 0 -268 -74t-187.5 -201
t-67.5 -280z" />
    <glyph glyph-name="h" unicode="h" horiz-adv-x="1157" 
d="M86 0l150 1454h59l-64 -594q24 42 58.5 79.5t84 71.5t117 54t144.5 20q90 0 165.5 -28t131 -82.5t81 -143.5t13.5 -204l-65 -627h-58l64 625q11 103 -11 182t-70 126.5t-112.5 71t-142.5 23.5q-164 0 -283.5 -101.5t-140.5 -301.5l-64 -625h-57z" />
    <glyph glyph-name="i" unicode="i" horiz-adv-x="342" 
d="M86 0l111 1065h57l-111 -1065h-57zM229 1384l11 70h57l-8 -70h-60z" />
    <glyph glyph-name="j" unicode="j" horiz-adv-x="339" 
d="M-283 -395l7 55h32q68 0 119 13.5t96 47t73 96t38 154.5l115 1094h59l-117 -1092q-9 -89 -35 -155.5t-61.5 -106.5t-86 -64.5t-101 -33t-113.5 -8.5h-25zM229 1384l9 70h59l-10 -70h-58z" />
    <glyph glyph-name="k" unicode="k" horiz-adv-x="1036" 
d="M86 0l152 1454h57l-111 -1069l688 680h84l-489 -479l446 -586h-73l-412 547l-254 -248l-31 -299h-57z" />
    <glyph glyph-name="l" unicode="l" horiz-adv-x="337" 
d="M86 0l152 1454h57l-152 -1454h-57z" />
    <glyph glyph-name="m" unicode="m" horiz-adv-x="1806" 
d="M819 0l70 668q6 167 -68 263.5t-229 96.5q-164 0 -264 -109.5t-119 -293.5l-66 -625h-57l111 1065h57l-21 -191q48 89 138.5 150t224.5 61t224.5 -67t115.5 -201q17 46 47.5 90t78 85.5t118 67t153.5 25.5t150 -27t114.5 -80.5t68.5 -140.5t9 -200l-65 -637h-58l66 625
q19 186 -54 294.5t-237 108.5q-165 0 -265.5 -109t-119.5 -294l-65 -625h-58z" />
    <glyph glyph-name="n" unicode="n" horiz-adv-x="1157" 
d="M86 0l111 1065h57l-23 -205q52 92 155 158.5t249 66.5q90 0 165.5 -28t131 -82.5t81 -143.5t13.5 -204l-65 -627h-58l64 625q23 200 -74 301.5t-262 101.5q-164 0 -283.5 -101.5t-140.5 -301.5l-64 -625h-57z" />
    <glyph glyph-name="o" unicode="o" horiz-adv-x="1245" 
d="M565 -20q-86 0 -170 31.5t-154.5 90.5t-113.5 153.5t-43 209.5q0 169 80.5 312t217 225.5t296.5 82.5q86 0 170 -31.5t154.5 -90.5t113.5 -154t43 -211q0 -168 -80.5 -310.5t-217 -225t-296.5 -82.5zM141 467q0 -105 39 -190t102.5 -136.5t139.5 -78.5t156 -27
q66 0 137 21.5t140.5 68t124 110.5t88.5 158t34 203q0 86 -25.5 158.5t-68.5 122.5t-99.5 85t-118 51.5t-124.5 16.5q-66 0 -137 -21.5t-140.5 -68t-124.5 -111t-89 -159t-34 -203.5z" />
    <glyph glyph-name="p" unicode="p" horiz-adv-x="1296" 
d="M45 -389l152 1454h57l-27 -266h6q66 130 199 208t287 78q76 0 147.5 -19t133.5 -59t108.5 -97t73 -137t26.5 -175q0 -171 -77 -312.5t-211.5 -223.5t-296.5 -82q-157 0 -280.5 78.5t-164.5 207.5h-8l-66 -655h-59zM190 473q0 -107 36 -192.5t97.5 -137.5t137.5 -79
t160 -27q148 0 270 77t189 204t67 274q0 107 -36 192.5t-97 137.5t-137 79t-160 27q-112 0 -211 -45.5t-167.5 -121.5t-108.5 -177t-40 -211z" />
    <glyph glyph-name="q" unicode="q" horiz-adv-x="1296" 
d="M1001 -389l68 655h-6q-75 -133 -201 -209.5t-282 -76.5q-98 0 -185.5 31.5t-156.5 91.5t-109.5 156t-40.5 216q0 128 45.5 241t123 194t185.5 128t228 47q160 0 282.5 -78t165.5 -208h6l29 266h57l-149 -1454h-60zM147 477q0 -209 123.5 -324.5t309.5 -115.5
q147 0 268.5 74.5t189.5 200.5t68 276q0 106 -34 191t-93.5 138.5t-137 82t-167.5 28.5q-148 0 -269.5 -74.5t-189.5 -200.5t-68 -276z" />
    <glyph glyph-name="r" unicode="r" horiz-adv-x="688" 
d="M86 0l111 1065h57l-25 -227q50 107 148 177t229 70q31 0 51 -4l-6 -53q-16 4 -37 4q-156 0 -271.5 -114t-133.5 -308v13l-66 -623h-57z" />
    <glyph glyph-name="s" unicode="s" horiz-adv-x="849" 
d="M381 -20q-140 0 -230 76t-102 200l62 14q14 -113 91 -170t183 -57q53 0 102.5 14t91.5 41.5t67.5 75t25.5 107.5q0 87 -53.5 138.5t-174.5 106.5l-57 29q-221 100 -221 272q0 114 84 186t213 72q111 0 188.5 -54.5t104.5 -147.5l-54 -21q-64 160 -239 160
q-103 0 -167.5 -50t-64.5 -145q0 -72 43.5 -124t137.5 -95l43 -20q148 -67 213 -133.5t65 -171.5q0 -138 -101 -220.5t-251 -82.5z" />
    <glyph glyph-name="t" unicode="t" horiz-adv-x="579" 
d="M319 -12q-73 0 -110.5 36t-30.5 105l92 883h-131l6 53h129l29 272h59l-28 -272h201l-5 -53h-202l-90 -862q-4 -56 18 -81.5t72 -25.5q46 0 98 23l-6 -54q-49 -24 -101 -24z" />
    <glyph glyph-name="u" unicode="u" horiz-adv-x="1157" 
d="M1071 1065l-110 -1065h-58l23 205q-52 -92 -155 -158.5t-249 -66.5q-90 0 -165.5 28t-131 82.5t-81 143.5t-13.5 204l66 627h57l-64 -625q-23 -200 74 -301.5t262 -101.5q164 0 283.5 101.5t140.5 301.5l64 625h57z" />
    <glyph glyph-name="v" unicode="v" horiz-adv-x="1105" 
d="M473 0l-348 1065h63l320 -977l516 977h68l-570 -1065h-49z" />
    <glyph glyph-name="w" unicode="w" horiz-adv-x="1898" 
d="M1305 0l-312 987l-510 -987h-53l-305 1065h63l277 -977l504 977h65l303 -977l480 977h67l-526 -1065h-53z" />
    <glyph glyph-name="x" unicode="x" horiz-adv-x="1017" 
d="M2 0l475 543l-348 522h70l315 -475l416 475h71l-458 -522l362 -543h-76l-323 496l-426 -496h-78z" />
    <glyph glyph-name="y" unicode="y" horiz-adv-x="1105" 
d="M250 -389l217 407l-342 1047h63l320 -977l516 977h68l-777 -1454h-65z" />
    <glyph glyph-name="z" unicode="z" horiz-adv-x="1034" 
d="M14 0l885 1010h-717l6 55h834l-887 -1008h770l-6 -57h-885z" />
    <glyph glyph-name="braceleft" unicode="{" horiz-adv-x="479" 
d="M178 -266q-60 0 -92.5 42t-26.5 95l64 610l-76 146l107 149l65 615q3 54 43.5 94.5t102.5 40.5h71l-6 -56h-72q-32 0 -54 -21t-25 -54l-66 -629l-88 -139l59 -135l-67 -629q-3 -33 13 -53.5t48 -20.5h74l-4 -55h-70z" />
    <glyph glyph-name="bar" unicode="|" horiz-adv-x="399" 
d="M76 -389l213 2027h55l-213 -2027h-55z" />
    <glyph glyph-name="braceright" unicode="}" horiz-adv-x="479" 
d="M-47 -266l4 55h70q32 0 55.5 22t26.5 54l67 627l90 135l-61 139l63 631q6 32 -11.5 52.5t-49.5 20.5h-72l6 56h70q61 0 92.5 -41.5t26.5 -95.5l-66 -613l78 -149l-109 -146l-65 -612q-5 -55 -43.5 -95t-99.5 -40h-72z" />
    <glyph glyph-name="asciitilde" unicode="~" horiz-adv-x="757" 
d="M516 506q-37 0 -67.5 15t-51 36t-40 42.5t-44.5 36.5t-55 15q-45 0 -73 -31t-33 -75h-58q10 84 55.5 124t106.5 40q38 0 68.5 -15t51.5 -37t40.5 -44t44.5 -37t55 -15q45 0 73.5 32.5t33.5 76.5h57q-10 -84 -56.5 -124t-107.5 -40z" />
    <glyph glyph-name="exclamdown" unicode="&#xa1;" horiz-adv-x="366" 
d="M231 717l-118 -1106h-58l117 1106h59zM193 1042q0 17 11.5 30t31.5 13q22 0 33.5 -13t11.5 -30t-11.5 -30t-33.5 -13q-20 0 -31.5 13t-11.5 30z" />
    <glyph glyph-name="cent" unicode="&#xa2;" horiz-adv-x="1171" 
d="M518 -82l27 250q-90 9 -169 46t-139.5 98.5t-95.5 152.5t-35 199q0 120 43 229t117 190t177.5 131.5t218.5 57.5l16 162h57l-16 -162q139 -6 251 -74t163 -188l-54 -23q-46 106 -145.5 165t-220.5 62l-105 -991q124 0 233.5 59t180.5 169l49 -23q-78 -125 -203 -192.5
t-266 -69.5l-27 -248h-57zM170 674q0 -101 30.5 -184t84 -137t121 -86.5t145.5 -41.5l104 987q-94 -9 -180 -49.5t-154.5 -107t-109.5 -165.5t-41 -216z" />
    <glyph glyph-name="sterling" unicode="&#xa3;" horiz-adv-x="1130" 
d="M49 57q135 104 204 214.5t69 242.5q0 48 -15 125h-182l4 51h166q-8 28 -25.5 84.5t-27.5 90.5t-18.5 83.5t-8.5 93.5q0 189 133.5 311t331.5 122q196 0 305 -119.5t80 -315.5l-4 -28h-55l4 28q13 97 -11 172.5t-75 119t-115.5 65.5t-138.5 22q-170 0 -282 -102t-112 -270
q0 -42 8 -91t17.5 -84.5t26 -93.5t24.5 -88h375l-6 -51h-356q14 -75 14 -131q0 -251 -246 -451h811l-6 -57h-893z" />
    <glyph glyph-name="currency" unicode="&#xa4;" horiz-adv-x="1083" 
d="M541 516q-164 0 -275 100l-110 -100l-60 68l109 100q-76 105 -76 244q0 193 137 340l-88 98l72 68l90 -101q135 101 297 101q157 0 274 -99l109 99l61 -68l-106 -98q76 -110 76 -244q0 -195 -140 -342l90 -98l-77 -68l-88 98q-135 -98 -295 -98zM215 932q0 -144 97 -237
t243 -93q105 0 199.5 54t153.5 150t59 208q0 147 -99.5 240.5t-246.5 93.5q-103 0 -196 -54t-151.5 -151t-58.5 -211z" />
    <glyph glyph-name="yen" unicode="&#xa5;" horiz-adv-x="1234" 
d="M307 596l6 59h291v9l-428 790h68l393 -735l543 735h71l-587 -790v-9h303l-6 -59h-306l-8 -86h305l-6 -61h-307l-49 -449h-60l50 449h-287l6 61h289l8 86h-289z" />
    <glyph glyph-name="brokenbar" unicode="&#xa6;" horiz-adv-x="401" 
d="M76 -389l61 573h56l-62 -573h-55zM229 1065l60 573h55l-59 -573h-56z" />
    <glyph glyph-name="section" unicode="&#xa7;" horiz-adv-x="1083" 
d="M393 -389q-150 0 -259 58t-122 112l35 250h59l-32 -234q21 -43 112.5 -86t212.5 -43q68 0 134 14.5t125.5 44.5t104 71.5t71 100t26.5 126.5q0 39 -10 72.5t-23 58.5t-40.5 49t-48 39t-61 34.5t-63.5 29t-71 28.5l-107 41q-147 55 -214.5 133.5t-67.5 191.5
q0 101 50 184.5t142 135.5q-113 91 -113 233q0 164 130.5 273.5t332.5 109.5q135 0 231 -50t126 -103l-35 -256h-60l33 235q-28 39 -105.5 78t-191.5 39q-172 0 -286.5 -88t-114.5 -231q0 -94 58 -159.5t184 -115.5l108 -43q49 -19 76.5 -31t71 -33t68.5 -39t55 -46
t46.5 -58t27.5 -69.5t11 -85.5q0 -103 -49 -185.5t-135 -138.5q103 -89 103 -229q0 -127 -73 -223.5t-191.5 -145.5t-260.5 -49zM211 709q0 -93 58.5 -159t183.5 -116l108 -43q143 -55 211 -98q77 47 123.5 120.5t46.5 164.5q0 136 -118 216q-56 37 -199 95l-109 41
q-70 27 -123 57q-86 -42 -134 -113.5t-48 -164.5z" />
    <glyph glyph-name="dieresis" unicode="&#xa8;" horiz-adv-x="468" 
d="M475 1382l6 66h62l-4 -66h-64zM111 1382l6 66h61l-4 -66h-63z" />
    <glyph glyph-name="copyright" unicode="&#xa9;" horiz-adv-x="1693" 
d="M801 -14q-137 0 -258 46t-211 130t-142.5 210.5t-52.5 278.5q0 169 64 322.5t172 263t255.5 174t307.5 64.5q108 0 207.5 -29t182.5 -86t144 -136.5t95 -186t34 -228.5q0 -171 -64 -325t-172 -262.5t-254.5 -172t-307.5 -63.5zM203 659q0 -142 48 -258.5t130.5 -192
t191 -116.5t230.5 -41q200 0 367.5 100t264.5 274.5t97 383.5q0 112 -31 209t-86 168t-130 121.5t-163.5 76t-185.5 25.5q-150 0 -285.5 -59t-233.5 -159.5t-156 -239.5t-58 -292zM410 686q0 153 73.5 276t191.5 189t253 66q190 0 313 -130l-49 -47q-99 111 -266 111
q-187 0 -319 -133.5t-132 -327.5q0 -174 106 -277.5t263 -103.5q77 0 152 29t132 84l41 -49q-146 -129 -335 -129q-185 0 -304.5 121.5t-119.5 320.5z" />
    <glyph glyph-name="ordfeminine" unicode="&#xaa;" horiz-adv-x="786" 
d="M334 791q-86 0 -141.5 45t-55.5 131q0 94 64 140.5t178 61.5l231 27q12 178 -164 178q-130 0 -217 -94l-43 43q114 117 271 117q121 0 173 -72.5t40 -226.5l-23 -203q-6 -61 0.5 -90t26.5 -51h-74q-33 48 -22 106q-36 -46 -102 -79t-142 -33zM203 971q0 -58 39 -86.5
t102 -28.5q46 0 90 16t75.5 41t51 45.5t31.5 38.5l14 136l-223 -27q-180 -22 -180 -135z" />
    <glyph glyph-name="guillemotleft" unicode="&#xab;" horiz-adv-x="747" 
d="M420 926l26 -31l-307 -289l244 -289l-33 -30l-264 291l8 55zM373 578l8 55l326 293l26 -31l-307 -289l244 -289l-33 -30z" />
    <glyph glyph-name="logicalnot" unicode="&#xac;" horiz-adv-x="897" 
d="M813 618l-29 -258h-47l23 213h-664l4 45h713z" />
    <glyph glyph-name="uni00AD" unicode="&#xad;" horiz-adv-x="819" 
d="M43 559l4 45h635l-4 -45h-635z" />
    <glyph glyph-name="registered" unicode="&#xae;" horiz-adv-x="1693" 
d="M801 -14q-137 0 -258 46t-211 130t-142.5 210.5t-52.5 278.5q0 169 64 322.5t172 263t255.5 174t307.5 64.5q108 0 207.5 -29t182.5 -86t144 -136.5t95 -186t34 -228.5q0 -171 -64 -325t-172 -262.5t-254.5 -172t-307.5 -63.5zM203 659q0 -142 48 -258.5t130.5 -192
t191 -116.5t230.5 -41q200 0 367.5 100t264.5 274.5t97 383.5q0 112 -31 209t-86 168t-130 121.5t-163.5 76t-185.5 25.5q-150 0 -285.5 -59t-233.5 -159.5t-156 -239.5t-58 -292zM551 313l88 832h279q125 0 193.5 -65t68.5 -173q0 -113 -71 -183.5t-173 -86.5l215 -324h-76
l-209 320h-215l-35 -320h-65zM659 694h211q120 0 183 58.5t63 152.5q0 84 -52.5 130t-154.5 46h-211z" />
    <glyph glyph-name="macron" unicode="&#xaf;" horiz-adv-x="778" 
d="M111 1382l6 54h735l-8 -54h-733z" />
    <glyph glyph-name="degree" unicode="&#xb0;" horiz-adv-x="727" 
d="M416 971q-99 0 -166.5 66t-67.5 165q0 113 83.5 193t195.5 80q99 0 165 -66.5t66 -165.5q0 -113 -82 -192.5t-194 -79.5zM233 1204q0 -80 54 -130t131 -50q91 0 156 63.5t65 153.5q0 80 -53 130t-131 50q-91 0 -156.5 -63.5t-65.5 -153.5z" />
    <glyph glyph-name="plusminus" unicode="&#xb1;" horiz-adv-x="870" 
d="M367 193l32 311h-311l6 61h314l32 312h62l-33 -312h309l-6 -61h-311l-33 -311h-61zM37 4l4 45h686l-4 -45h-686z" />
    <glyph glyph-name="uni00B2" unicode="&#xb2;" horiz-adv-x="571" 
d="M147 901l7 66l151 143q11 10 31 28.5t27.5 25.5t21.5 21.5t19.5 20t14.5 16.5t12.5 17.5t8 16t6.5 18t3 18.5q3 36 -21.5 61t-60.5 25q-40 0 -73.5 -27.5t-37.5 -76.5l-4 -27h-76l4 31q7 72 61.5 118t123.5 46q71 0 118 -48t41 -110q-6 -53 -39.5 -96.5t-119.5 -122.5
l-109 -98h242l-6 -66h-345z" />
    <glyph glyph-name="uni00B3" unicode="&#xb3;" horiz-adv-x="591" 
d="M338 893q-84 0 -132.5 56t-37.5 132l78 -4q-6 -49 18 -84t72 -35q47 0 85 29t42 74q6 54 -29.5 74t-109.5 20l2 59q66 0 101 25t38 66q3 31 -19 51t-57 20q-45 0 -76 -30t-37 -84l-75 4q7 77 59.5 125.5t126.5 48.5q67 0 113.5 -43.5t40.5 -100.5q-7 -64 -74 -106
q35 -15 56.5 -50.5t15.5 -86.5q-6 -68 -66 -114t-135 -46z" />
    <glyph glyph-name="acute" unicode="&#xb4;" horiz-adv-x="231" 
d="M90 1202l154 314h69l-155 -314h-68z" />
    <glyph glyph-name="uni00B5" unicode="&#xb5;" horiz-adv-x="1171" 
d="M45 -389l154 1454h57l-66 -633q-11 -97 8.5 -173t63 -123t104 -71t134.5 -24q81 0 159.5 34t137.5 88.5t102 119.5t62 131l67 651h59l-112 -1065h-60l31 291q-9 -29 -33 -66.5t-65 -80.5t-91 -78t-118.5 -58.5t-140.5 -23.5q-107 0 -194.5 42.5t-141.5 127.5l-60 -543
h-57z" />
    <glyph glyph-name="paragraph" unicode="&#xb6;" horiz-adv-x="1339" 
d="M932 0l61 569h-377q-216 0 -331 111.5t-115 290.5q0 100 36 187.5t103 153.5t169.5 104t228.5 38h438l-154 -1454h-59zM229 975q0 -162 100.5 -253t284.5 -91h385l82 764h-385q-209 0 -338 -114t-129 -306zM1081 0l154 1454h59l-153 -1454h-60z" />
    <glyph glyph-name="periodcentered" unicode="&#xb7;" horiz-adv-x="296" 
d="M152 512q-22 0 -34 13t-12 30t12 30t34 13q20 0 31.5 -13t11.5 -30t-11.5 -30t-31.5 -13z" />
    <glyph glyph-name="cedilla" unicode="&#xb8;" horiz-adv-x="299" 
d="M-66 -356q51 -2 91.5 6.5t69 35t28.5 70.5q0 102 -141 84l-31 39l94 121h74l-74 -94q64 2 108 -37.5t44 -108.5q0 -94 -79 -144t-192 -36z" />
    <glyph glyph-name="uni00B9" unicode="&#xb9;" horiz-adv-x="442" 
d="M238 901l49 453l-37 -23l-33 64l76 41h76l-56 -535h-75z" />
    <glyph glyph-name="ordmasculine" unicode="&#xba;" horiz-adv-x="804" 
d="M430 788q-70 0 -132.5 32.5t-105 102t-42.5 162.5q0 83 32.5 153.5t83.5 114t110.5 67.5t117.5 24q111 0 197.5 -79t86.5 -216q0 -83 -33 -153.5t-84.5 -114.5t-112 -68.5t-118.5 -24.5zM211 1085q0 -78 34 -133t82.5 -78.5t104.5 -23.5q68 0 130.5 31.5t106.5 100
t44 159.5q0 118 -66 180.5t-158 62.5q-51 0 -99 -19t-88.5 -54.5t-65.5 -94.5t-25 -131z" />
    <glyph glyph-name="guillemotright" unicode="&#xbb;" horiz-adv-x="747" 
d="M342 287l-27 30l308 289l-244 289l33 31l264 -291l-8 -55zM29 317l307 289l-244 289l33 31l264 -291l-8 -55l-326 -293z" />
    <glyph glyph-name="onequarter" unicode="&#xbc;" horiz-adv-x="1167" 
d="M-59 0l1044 1434h86l-1032 -1434h-98zM94 1395l76 41h76l-56 -535h-75l47 453l-35 -23zM618 156l312 379h76l-33 -316h55l-8 -63h-55l-17 -156h-76l17 156h-271zM764 219h133l21 195z" />
    <glyph glyph-name="onehalf" unicode="&#xbd;" horiz-adv-x="1116" 
d="M-59 0l1044 1434h86l-1032 -1434h-98zM94 1395l76 41h76l-56 -535h-75l47 453l-35 -23zM608 0l8 66l152 143q93 87 111 111q26 33 30 71q4 36 -20 61t-60 25q-40 0 -73 -27.5t-39 -76.5l-2 -27h-76l4 31q7 72 61 118t123 46q71 0 118.5 -48t41.5 -110q-6 -53 -39.5 -96
t-120.5 -123l-108 -98h242l-9 -66h-344z" />
    <glyph glyph-name="threequarters" unicode="&#xbe;" horiz-adv-x="1202" 
d="M-2 0l1042 1434h86l-1030 -1434h-98zM53 1081l78 -4q-5 -50 19.5 -84.5t72.5 -34.5q47 0 84 29t41 74q6 54 -29.5 74t-109.5 20l2 59q66 0 101 25t40 66q3 30 -19.5 50.5t-58.5 20.5q-45 0 -75.5 -30t-36.5 -84l-74 4q6 77 59 125.5t127 48.5q67 0 112.5 -43.5
t39.5 -100.5q-7 -64 -72 -106q35 -15 55.5 -50.5t16.5 -86.5q-7 -68 -67.5 -114t-135.5 -46q-84 0 -132.5 56t-37.5 132zM655 156l310 379h75l-32 -316h55l-6 -63h-56l-16 -156h-76l17 156h-271zM799 219h133l20 195z" />
    <glyph glyph-name="questiondown" unicode="&#xbf;" horiz-adv-x="972" 
d="M539 606q-7 -61 -34.5 -115.5t-66.5 -96.5t-85 -82t-91.5 -80t-84.5 -82t-66.5 -97t-34.5 -116q-15 -137 74 -214t243 -77q162 0 265.5 91t125.5 288h60q-20 -207 -137 -321t-312 -114q-193 0 -295 101.5t-84 255.5q7 63 34.5 120.5t67 102t85.5 86t92.5 81.5t85.5 80.5
t66.5 90.5t33.5 104l11 103h59zM492 1042q0 17 11.5 30t31.5 13q22 0 33.5 -13t11.5 -30t-11.5 -30t-33.5 -13q-20 0 -31.5 13t-11.5 30z" />
    <glyph glyph-name="Agrave" unicode="&#xc0;" horiz-adv-x="1351" 
d="M795 1454l432 -1454h-64l-123 418h-749l-209 -418h-68l734 1454h47zM322 477h702l-260 885zM559 1884h70l153 -313h-69z" />
    <glyph glyph-name="Aacute" unicode="&#xc1;" horiz-adv-x="1351" 
d="M795 1454l432 -1454h-64l-123 418h-749l-209 -418h-68l734 1454h47zM322 477h702l-260 885zM741 1571l154 313h70l-156 -313h-68z" />
    <glyph glyph-name="Acircumflex" unicode="&#xc2;" horiz-adv-x="1351" 
d="M795 1454l432 -1454h-64l-123 418h-749l-209 -418h-68l734 1454h47zM322 477h702l-260 885zM563 1640l230 244h45l182 -244l-47 -38l-156 213l-205 -213z" />
    <glyph glyph-name="Atilde" unicode="&#xc3;" horiz-adv-x="1351" 
d="M795 1454l432 -1454h-64l-123 418h-749l-209 -418h-68l734 1454h47zM322 477h702l-260 885zM537 1649q10 83 50.5 122t100.5 39q35 0 63 -14t46 -34t35 -40.5t39 -34.5t49 -14q39 0 62.5 28.5t29.5 74.5h59q-10 -83 -49.5 -122.5t-97.5 -39.5q-37 0 -66 14t-47.5 34
t-35.5 39.5t-39 33.5t-48 14q-39 0 -63 -28t-29 -72h-59z" />
    <glyph glyph-name="Adieresis" unicode="&#xc4;" horiz-adv-x="1351" 
d="M795 1454l432 -1454h-64l-123 418h-749l-209 -418h-68l734 1454h47zM322 477h702l-260 885zM567 1751l6 66h62l-4 -66h-64zM932 1751l6 66h61l-4 -66h-63z" />
    <glyph glyph-name="Aring" unicode="&#xc5;" horiz-adv-x="1351" 
d="M795 1454l432 -1454h-64l-123 418h-749l-209 -418h-68l734 1454h47zM322 477h702l-260 885zM653 1743q0 64 48 111t114 47q59 0 98 -39.5t39 -94.5q0 -67 -47 -113t-114 -46q-60 0 -99 39t-39 96zM709 1745q0 -36 25 -60t61 -24q41 0 71.5 29.5t30.5 70.5q0 36 -25 61
t-61 25q-42 0 -72 -30t-30 -72z" />
    <glyph glyph-name="AE" unicode="&#xc6;" horiz-adv-x="1908" 
d="M995 0l45 432h-614l-334 -432h-78l1133 1454h731l-6 -59h-672l-65 -635h577l-6 -60h-578l-67 -641h690l-6 -59h-750zM471 489h576l90 861z" />
    <glyph glyph-name="Ccedilla" unicode="&#xc7;" horiz-adv-x="1343" 
d="M807 -20q-51 0 -100 6l-62 -80q64 2 108 -37.5t44 -108.5q0 -94 -79 -144t-192 -36l9 64q51 -2 91 6.5t68.5 35t28.5 70.5q0 102 -141 84l-31 39l92 119q-227 50 -366.5 226t-139.5 429q0 167 66 320t177 262.5t261.5 174.5t312.5 65q65 0 129.5 -11t136 -37t137 -78
t111.5 -126l-51 -37q-41 69 -101 117.5t-127 71t-123.5 31.5t-115.5 9q-153 0 -292 -60.5t-240 -163t-161 -244t-60 -296.5q0 -183 82 -323.5t222.5 -214.5t315.5 -74q58 0 115 9t127.5 31.5t139.5 71t124 117.5l43 -37q-62 -74 -137 -126t-150.5 -78t-140.5 -36.5
t-131 -10.5z" />
    <glyph glyph-name="Egrave" unicode="&#xc8;" horiz-adv-x="999" 
d="M86 0l152 1454h731l-6 -59h-672l-66 -635h578l-6 -60h-578l-67 -641h690l-6 -59h-750zM403 1905h70l154 -314h-70z" />
    <glyph glyph-name="Eacute" unicode="&#xc9;" horiz-adv-x="999" 
d="M86 0l152 1454h731l-6 -59h-672l-66 -635h578l-6 -60h-578l-67 -641h690l-6 -59h-750zM586 1591l153 314h70l-156 -314h-67z" />
    <glyph glyph-name="Ecircumflex" unicode="&#xca;" horiz-adv-x="999" 
d="M86 0l152 1454h731l-6 -59h-672l-66 -635h578l-6 -60h-578l-67 -641h690l-6 -59h-750zM408 1661l229 244h45l182 -244l-47 -39l-155 213l-205 -213z" />
    <glyph glyph-name="Edieresis" unicode="&#xcb;" horiz-adv-x="999" 
d="M86 0l152 1454h731l-6 -59h-672l-66 -635h578l-6 -60h-578l-67 -641h690l-6 -59h-750zM412 1772l6 65h61l-4 -65h-63zM776 1772l6 65h62l-4 -65h-64z" />
    <glyph glyph-name="Igrave" unicode="&#xcc;" horiz-adv-x="342" 
d="M86 0l154 1454h59l-154 -1454h-59zM57 1905h70l154 -314h-70z" />
    <glyph glyph-name="Iacute" unicode="&#xcd;" horiz-adv-x="342" 
d="M86 0l154 1454h59l-154 -1454h-59zM242 1591l153 314h70l-156 -314h-67z" />
    <glyph glyph-name="Icircumflex" unicode="&#xce;" horiz-adv-x="342" 
d="M86 0l154 1454h59l-154 -1454h-59zM61 1661l230 244h45l182 -244l-47 -39l-156 213l-204 -213z" />
    <glyph glyph-name="Idieresis" unicode="&#xcf;" horiz-adv-x="342" 
d="M86 0l154 1454h59l-154 -1454h-59zM66 1772l6 65h61l-4 -65h-63zM430 1772l6 65h62l-4 -65h-64z" />
    <glyph glyph-name="Eth" unicode="&#xd0;" horiz-adv-x="1206" 
d="M-27 0l76 698h-121l6 45h119l72 691h352q210 0 366 -95.5t229 -260.5t52 -369q-16 -147 -83 -277.5t-170 -225.5t-244.5 -150.5t-298.5 -55.5h-355zM39 57h291q146 0 277 51.5t226 139.5t156 208.5t76 256.5q20 188 -46 338.5t-209 237.5t-339 87h-291l-67 -633h456
l-4 -45h-456z" />
    <glyph glyph-name="Ntilde" unicode="&#xd1;" horiz-adv-x="1392" 
d="M86 0l152 1454h59l840 -1348h12l139 1348h60l-152 -1454h-59l-840 1348h-12l-140 -1348h-59zM561 1669q10 83 51 122.5t101 39.5q35 0 63 -14t46 -34.5t34.5 -40.5t38.5 -34t49 -14q39 0 62.5 28t29.5 74h60q-10 -83 -50 -122.5t-98 -39.5q-37 0 -66 14t-47.5 34
t-35 39.5t-38.5 33.5t-48 14q-39 0 -63 -28t-29 -72h-60z" />
    <glyph glyph-name="Ograve" unicode="&#xd2;" horiz-adv-x="1693" 
d="M803 -20q-182 0 -332.5 81t-242 236t-91.5 354q0 166 64 319t171.5 263.5t254.5 176t305 65.5q135 0 256.5 -48t212.5 -133.5t144.5 -213t53.5 -277.5q0 -166 -64.5 -319t-172 -263t-254 -175.5t-305.5 -65.5zM197 653q0 -139 48.5 -255.5t131.5 -194.5t193 -121t233 -43
q146 0 282 61t235 163.5t158.5 243.5t59.5 294q0 139 -48.5 255.5t-131.5 194.5t-193 121t-233 43q-146 0 -282 -61t-235 -163.5t-158.5 -243.5t-59.5 -294zM731 1905h70l153 -314h-69z" />
    <glyph glyph-name="Oacute" unicode="&#xd3;" horiz-adv-x="1693" 
d="M803 -20q-182 0 -332.5 81t-242 236t-91.5 354q0 166 64 319t171.5 263.5t254.5 176t305 65.5q135 0 256.5 -48t212.5 -133.5t144.5 -213t53.5 -277.5q0 -166 -64.5 -319t-172 -263t-254 -175.5t-305.5 -65.5zM197 653q0 -139 48.5 -255.5t131.5 -194.5t193 -121t233 -43
q146 0 282 61t235 163.5t158.5 243.5t59.5 294q0 139 -48.5 255.5t-131.5 194.5t-193 121t-233 43q-146 0 -282 -61t-235 -163.5t-158.5 -243.5t-59.5 -294zM915 1591l154 314h70l-156 -314h-68z" />
    <glyph glyph-name="Ocircumflex" unicode="&#xd4;" horiz-adv-x="1693" 
d="M803 -20q-182 0 -332.5 81t-242 236t-91.5 354q0 166 64 319t171.5 263.5t254.5 176t305 65.5q135 0 256.5 -48t212.5 -133.5t144.5 -213t53.5 -277.5q0 -166 -64.5 -319t-172 -263t-254 -175.5t-305.5 -65.5zM197 653q0 -139 48.5 -255.5t131.5 -194.5t193 -121t233 -43
q146 0 282 61t235 163.5t158.5 243.5t59.5 294q0 139 -48.5 255.5t-131.5 194.5t-193 121t-233 43q-146 0 -282 -61t-235 -163.5t-158.5 -243.5t-59.5 -294zM735 1661l230 244h45l182 -244l-47 -39l-156 213l-205 -213z" />
    <glyph glyph-name="Otilde" unicode="&#xd5;" horiz-adv-x="1693" 
d="M803 -20q-182 0 -332.5 81t-242 236t-91.5 354q0 166 64 319t171.5 263.5t254.5 176t305 65.5q135 0 256.5 -48t212.5 -133.5t144.5 -213t53.5 -277.5q0 -166 -64.5 -319t-172 -263t-254 -175.5t-305.5 -65.5zM197 653q0 -139 48.5 -255.5t131.5 -194.5t193 -121t233 -43
q146 0 282 61t235 163.5t158.5 243.5t59.5 294q0 139 -48.5 255.5t-131.5 194.5t-193 121t-233 43q-146 0 -282 -61t-235 -163.5t-158.5 -243.5t-59.5 -294zM709 1669q10 83 50.5 122.5t100.5 39.5q35 0 63 -14t46 -34.5t35 -40.5t39 -34t49 -14q39 0 62.5 28t29.5 74h59
q-10 -83 -49.5 -122.5t-97.5 -39.5q-37 0 -66 14t-47.5 34t-35.5 39.5t-39 33.5t-48 14q-39 0 -63 -28t-29 -72h-59z" />
    <glyph glyph-name="Odieresis" unicode="&#xd6;" horiz-adv-x="1693" 
d="M803 -20q-182 0 -332.5 81t-242 236t-91.5 354q0 166 64 319t171.5 263.5t254.5 176t305 65.5q135 0 256.5 -48t212.5 -133.5t144.5 -213t53.5 -277.5q0 -166 -64.5 -319t-172 -263t-254 -175.5t-305.5 -65.5zM197 653q0 -139 48.5 -255.5t131.5 -194.5t193 -121t233 -43
q146 0 282 61t235 163.5t158.5 243.5t59.5 294q0 139 -48.5 255.5t-131.5 194.5t-193 121t-233 43q-146 0 -282 -61t-235 -163.5t-158.5 -243.5t-59.5 -294zM739 1772l6 65h62l-4 -65h-64zM1104 1772l6 65h61l-4 -65h-63z" />
    <glyph glyph-name="multiply" unicode="&#xd7;" horiz-adv-x="686" 
d="M102 336l-30 37l241 215l-194 217l37 33l194 -217l244 217l31 -37l-244 -217l194 -217l-34 -31l-195 217z" />
    <glyph glyph-name="Oslash" unicode="&#xd8;" horiz-adv-x="1693" 
d="M340 -102l104 180q-142 86 -224.5 234t-82.5 339q0 166 64 319t171.5 263.5t254.5 176t305 65.5q156 0 289 -62l65 113h68l-80 -140q150 -85 237.5 -235.5t87.5 -347.5q0 -166 -64.5 -319t-172 -263t-254 -175.5t-305.5 -65.5q-166 0 -307 69l-88 -151h-68zM197 653
q0 -175 75 -311t203 -213l715 1233q-118 53 -258 53q-146 0 -282 -61t-235 -163.5t-158.5 -243.5t-59.5 -294zM526 100q125 -61 277 -61q146 0 282 61t235 163.5t158.5 243.5t59.5 294q0 180 -80 319t-215 215z" />
    <glyph glyph-name="Ugrave" unicode="&#xd9;" horiz-adv-x="1259" 
d="M573 -31q-220 0 -341.5 146t-94.5 407l99 932h59l-98 -932q-24 -236 82.5 -363.5t302.5 -127.5q195 0 323 127t154 366l98 930h60l-99 -936q-18 -173 -95.5 -298.5t-193 -188t-256.5 -62.5zM512 1905h70l153 -314h-69z" />
    <glyph glyph-name="Uacute" unicode="&#xda;" horiz-adv-x="1259" 
d="M573 -31q-220 0 -341.5 146t-94.5 407l99 932h59l-98 -932q-24 -236 82.5 -363.5t302.5 -127.5q195 0 323 127t154 366l98 930h60l-99 -936q-18 -173 -95.5 -298.5t-193 -188t-256.5 -62.5zM694 1591l154 314h70l-156 -314h-68z" />
    <glyph glyph-name="Ucircumflex" unicode="&#xdb;" horiz-adv-x="1259" 
d="M573 -31q-220 0 -341.5 146t-94.5 407l99 932h59l-98 -932q-24 -236 82.5 -363.5t302.5 -127.5q195 0 323 127t154 366l98 930h60l-99 -936q-18 -173 -95.5 -298.5t-193 -188t-256.5 -62.5zM516 1661l229 244h46l182 -244l-47 -39l-156 213l-205 -213z" />
    <glyph glyph-name="Udieresis" unicode="&#xdc;" horiz-adv-x="1259" 
d="M573 -31q-220 0 -341.5 146t-94.5 407l99 932h59l-98 -932q-24 -236 82.5 -363.5t302.5 -127.5q195 0 323 127t154 366l98 930h60l-99 -936q-18 -173 -95.5 -298.5t-193 -188t-256.5 -62.5zM520 1772l6 65h62l-4 -65h-64zM885 1772l6 65h61l-4 -65h-63z" />
    <glyph glyph-name="Yacute" unicode="&#xdd;" horiz-adv-x="1234" 
d="M530 0l74 664l-428 790h68l393 -735l543 735h71l-587 -790l-74 -664h-60zM684 1591l154 314h69l-155 -314h-68z" />
    <glyph glyph-name="Thorn" unicode="&#xde;" horiz-adv-x="1191" 
d="M86 0l154 1454h59l-31 -297h396q224 0 337 -107.5t113 -297.5q0 -220 -143 -343.5t-398 -123.5h-397l-31 -285h-59zM182 342h393q224 0 353 108t129 302q0 165 -100.5 257.5t-301.5 92.5h-395z" />
    <glyph glyph-name="germandbls" unicode="&#xdf;" horiz-adv-x="1196" 
d="M201 1092q7 72 38 133t85.5 108.5t140 74t192.5 26.5q197 0 307.5 -86t110.5 -240q0 -115 -67.5 -200t-210.5 -122q286 -62 286 -356q0 -215 -150 -322.5t-411 -107.5h-213l8 57h201q241 0 374.5 93.5t133.5 281.5q0 328 -434 328h-203l8 55h199q198 0 310 72.5
t112 216.5q0 135 -93 204.5t-263 69.5q-183 0 -286.5 -78t-117.5 -213l-115 -1087h-57z" />
    <glyph glyph-name="agrave" unicode="&#xe0;" 
d="M580 -20q-98 0 -185.5 31.5t-156.5 91.5t-109.5 156t-40.5 216q0 128 45.5 241t123 194t185.5 128t228 47q160 0 282.5 -78t165.5 -208h6l29 266h57l-110 -1065h-58l27 266h-6q-75 -133 -201 -209.5t-282 -76.5zM147 477q0 -209 123.5 -324.5t309.5 -115.5
q147 0 268.5 74.5t189.5 200.5t68 276q0 106 -34 191t-93.5 138.5t-137 82t-167.5 28.5q-148 0 -269.5 -74.5t-189.5 -200.5t-68 -276zM492 1516h69l154 -314h-70z" />
    <glyph glyph-name="aacute" unicode="&#xe1;" 
d="M580 -20q-98 0 -185.5 31.5t-156.5 91.5t-109.5 156t-40.5 216q0 128 45.5 241t123 194t185.5 128t228 47q160 0 282.5 -78t165.5 -208h6l29 266h57l-110 -1065h-58l27 266h-6q-75 -133 -201 -209.5t-282 -76.5zM147 477q0 -209 123.5 -324.5t309.5 -115.5
q147 0 268.5 74.5t189.5 200.5t68 276q0 106 -34 191t-93.5 138.5t-137 82t-167.5 28.5q-148 0 -269.5 -74.5t-189.5 -200.5t-68 -276zM676 1202l153 314h70l-156 -314h-67z" />
    <glyph glyph-name="acircumflex" unicode="&#xe2;" 
d="M580 -20q-98 0 -185.5 31.5t-156.5 91.5t-109.5 156t-40.5 216q0 128 45.5 241t123 194t185.5 128t228 47q160 0 282.5 -78t165.5 -208h6l29 266h57l-110 -1065h-58l27 266h-6q-75 -133 -201 -209.5t-282 -76.5zM147 477q0 -209 123.5 -324.5t309.5 -115.5
q147 0 268.5 74.5t189.5 200.5t68 276q0 106 -34 191t-93.5 138.5t-137 82t-167.5 28.5q-148 0 -269.5 -74.5t-189.5 -200.5t-68 -276zM496 1272l229 244h45l182 -244l-47 -39l-155 213l-205 -213z" />
    <glyph glyph-name="atilde" unicode="&#xe3;" 
d="M580 -20q-98 0 -185.5 31.5t-156.5 91.5t-109.5 156t-40.5 216q0 128 45.5 241t123 194t185.5 128t228 47q160 0 282.5 -78t165.5 -208h6l29 266h57l-110 -1065h-58l27 266h-6q-75 -133 -201 -209.5t-282 -76.5zM147 477q0 -209 123.5 -324.5t309.5 -115.5
q147 0 268.5 74.5t189.5 200.5t68 276q0 106 -34 191t-93.5 138.5t-137 82t-167.5 28.5q-148 0 -269.5 -74.5t-189.5 -200.5t-68 -276zM469 1280q10 83 51 122.5t101 39.5q30 0 54.5 -10t40 -25.5t32 -33t29.5 -33t32.5 -25.5t42.5 -10q39 0 62.5 28t29.5 74h60
q-10 -83 -50 -122.5t-98 -39.5q-37 0 -66 14t-47.5 33.5t-35 39.5t-38.5 34t-48 14q-40 0 -64 -28t-29 -72h-59z" />
    <glyph glyph-name="adieresis" unicode="&#xe4;" 
d="M580 -20q-98 0 -185.5 31.5t-156.5 91.5t-109.5 156t-40.5 216q0 128 45.5 241t123 194t185.5 128t228 47q160 0 282.5 -78t165.5 -208h6l29 266h57l-110 -1065h-58l27 266h-6q-75 -133 -201 -209.5t-282 -76.5zM147 477q0 -209 123.5 -324.5t309.5 -115.5
q147 0 268.5 74.5t189.5 200.5t68 276q0 106 -34 191t-93.5 138.5t-137 82t-167.5 28.5q-148 0 -269.5 -74.5t-189.5 -200.5t-68 -276zM500 1382l6 66h61l-4 -66h-63zM864 1382l6 66h62l-4 -66h-64z" />
    <glyph glyph-name="aring" unicode="&#xe5;" 
d="M580 -20q-98 0 -185.5 31.5t-156.5 91.5t-109.5 156t-40.5 216q0 128 45.5 241t123 194t185.5 128t228 47q160 0 282.5 -78t165.5 -208h6l29 266h57l-110 -1065h-58l27 266h-6q-75 -133 -201 -209.5t-282 -76.5zM147 477q0 -209 123.5 -324.5t309.5 -115.5
q147 0 268.5 74.5t189.5 200.5t68 276q0 106 -34 191t-93.5 138.5t-137 82t-167.5 28.5q-148 0 -269.5 -74.5t-189.5 -200.5t-68 -276zM588 1374q0 64 48 111t114 47q59 0 98 -39t39 -94q0 -67 -47.5 -113.5t-114.5 -46.5q-59 0 -98 38.5t-39 96.5zM643 1376q0 -36 25 -60
t61 -24q41 0 71.5 30t30.5 71q0 36 -25 61t-61 25q-42 0 -72 -30.5t-30 -72.5z" />
    <glyph glyph-name="ae" unicode="&#xe6;" horiz-adv-x="2213" 
d="M580 -20q-98 0 -185.5 31.5t-156.5 91.5t-109.5 156t-40.5 216q0 128 45.5 241t123 194t185.5 128t228 47q160 0 282.5 -78t165.5 -208h6l29 266h57l-28 -274q76 136 205.5 215t285.5 79q105 0 195.5 -37.5t155.5 -107.5t92.5 -180.5t5.5 -245.5h-961v-35q0 -106 34 -191
t94 -138.5t138.5 -82t169.5 -28.5q113 0 213 43t166 121l43 -37q-82 -93 -195 -139.5t-237 -46.5q-160 0 -284 78t-175 225l-28 -283h-58l27 266h-6q-75 -133 -201 -209.5t-282 -76.5zM147 477q0 -209 123.5 -324.5t309.5 -115.5q202 0 348 135t174 338q0 15 4 47v31
q0 106 -34 191t-93.5 138.5t-137 82t-167.5 28.5q-148 0 -269.5 -74.5t-189.5 -200.5t-68 -276zM1167 571h908q10 105 -18.5 192t-85 144t-134 88t-166.5 31q-192 0 -332.5 -128.5t-171.5 -326.5z" />
    <glyph glyph-name="ccedilla" unicode="&#xe7;" horiz-adv-x="1171" 
d="M578 -20h-23l-57 -74q64 2 107.5 -37.5t43.5 -108.5q0 -95 -78.5 -144.5t-191.5 -35.5l8 64q51 -2 91 6.5t68.5 35t28.5 70.5q0 102 -141 84l-31 39l84 109q-173 29 -286 158t-113 331q0 166 78 305.5t213.5 221t296.5 81.5q147 0 265.5 -68t172.5 -194l-53 -22
q-48 109 -151 168t-228 59q-99 0 -193 -37t-169.5 -104.5t-121.5 -171.5t-46 -228q0 -110 36 -197.5t97.5 -141.5t139 -82.5t163.5 -28.5q126 0 235.5 58.5t180.5 168.5l49 -22q-80 -126 -206 -194t-269 -68z" />
    <glyph glyph-name="egrave" unicode="&#xe8;" horiz-adv-x="1202" 
d="M575 -20q-100 0 -187.5 31.5t-154.5 91.5t-106 155t-39 213q0 168 75.5 309t207.5 223t291 82q105 0 195 -37.5t155 -107.5t92.5 -180.5t5.5 -245.5h-960v-35q0 -106 34 -191t94 -138.5t138.5 -82t169.5 -28.5q113 0 213 43t166 121l43 -37q-82 -92 -195.5 -139
t-237.5 -47zM156 571h907q10 105 -18.5 192t-85 144t-134 88t-166.5 31q-192 0 -332 -128.5t-171 -326.5zM451 1516h69l154 -314h-70z" />
    <glyph glyph-name="eacute" unicode="&#xe9;" horiz-adv-x="1202" 
d="M575 -20q-100 0 -187.5 31.5t-154.5 91.5t-106 155t-39 213q0 168 75.5 309t207.5 223t291 82q105 0 195 -37.5t155 -107.5t92.5 -180.5t5.5 -245.5h-960v-35q0 -106 34 -191t94 -138.5t138.5 -82t169.5 -28.5q113 0 213 43t166 121l43 -37q-82 -92 -195.5 -139
t-237.5 -47zM156 571h907q10 105 -18.5 192t-85 144t-134 88t-166.5 31q-192 0 -332 -128.5t-171 -326.5zM633 1202l153 314h70l-156 -314h-67z" />
    <glyph glyph-name="ecircumflex" unicode="&#xea;" horiz-adv-x="1202" 
d="M575 -20q-100 0 -187.5 31.5t-154.5 91.5t-106 155t-39 213q0 168 75.5 309t207.5 223t291 82q105 0 195 -37.5t155 -107.5t92.5 -180.5t5.5 -245.5h-960v-35q0 -106 34 -191t94 -138.5t138.5 -82t169.5 -28.5q113 0 213 43t166 121l43 -37q-82 -92 -195.5 -139
t-237.5 -47zM156 571h907q10 105 -18.5 192t-85 144t-134 88t-166.5 31q-192 0 -332 -128.5t-171 -326.5zM455 1272l229 244h45l182 -244l-47 -39l-155 213l-205 -213z" />
    <glyph glyph-name="edieresis" unicode="&#xeb;" horiz-adv-x="1202" 
d="M575 -20q-100 0 -187.5 31.5t-154.5 91.5t-106 155t-39 213q0 168 75.5 309t207.5 223t291 82q105 0 195 -37.5t155 -107.5t92.5 -180.5t5.5 -245.5h-960v-35q0 -106 34 -191t94 -138.5t138.5 -82t169.5 -28.5q113 0 213 43t166 121l43 -37q-82 -92 -195.5 -139
t-237.5 -47zM156 571h907q10 105 -18.5 192t-85 144t-134 88t-166.5 31q-192 0 -332 -128.5t-171 -326.5zM459 1382l6 66h61l-4 -66h-63zM823 1382l6 66h62l-4 -66h-64z" />
    <glyph glyph-name="igrave" unicode="&#xec;" horiz-adv-x="339" 
d="M86 0l113 1065h57l-113 -1065h-57zM18 1516h70l154 -314h-70z" />
    <glyph glyph-name="iacute" unicode="&#xed;" horiz-adv-x="339" 
d="M86 0l113 1065h57l-113 -1065h-57zM201 1202l153 314h70l-156 -314h-67z" />
    <glyph glyph-name="icircumflex" unicode="&#xee;" horiz-adv-x="339" 
d="M86 0l113 1065h57l-113 -1065h-57zM23 1272l229 244h45l182 -244l-47 -39l-156 213l-204 -213z" />
    <glyph glyph-name="idieresis" unicode="&#xef;" horiz-adv-x="339" 
d="M86 0l113 1065h57l-113 -1065h-57zM27 1382l6 66h61l-4 -66h-63zM391 1382l6 66h62l-4 -66h-64z" />
    <glyph glyph-name="eth" unicode="&#xf0;" horiz-adv-x="1169" 
d="M494 -20q-201 0 -316.5 144t-91.5 394q28 261 160 404t354 143q110 0 186 -28.5t132 -94.5l-170 260l-224 -31l6 48l191 26l-127 189h70l124 -183l173 23l-5 -47l-143 -21q122 -181 177.5 -341.5t35.5 -350.5q-27 -252 -172.5 -393t-359.5 -141zM147 514
q-25 -231 75 -354t270 -123q187 0 319 123.5t156 357.5q28 251 -63.5 370.5t-303.5 119.5q-405 0 -453 -494z" />
    <glyph glyph-name="ntilde" unicode="&#xf1;" horiz-adv-x="1157" 
d="M86 0l111 1065h57l-23 -205q52 92 155 158.5t249 66.5q90 0 165.5 -28t131 -82.5t81 -143.5t13.5 -204l-65 -627h-58l64 625q23 200 -74 301.5t-262 101.5q-164 0 -283.5 -101.5t-140.5 -301.5l-64 -625h-57zM399 1280q10 83 51 122.5t101 39.5q30 0 54.5 -10t40 -25.5
t32 -33t29.5 -33t32.5 -25.5t42.5 -10q39 0 62.5 28t29.5 74h60q-10 -83 -50 -122.5t-98 -39.5q-37 0 -66 14t-47.5 33.5t-35 39.5t-38.5 34t-48 14q-39 0 -63 -28t-29 -72h-60z" />
    <glyph glyph-name="ograve" unicode="&#xf2;" horiz-adv-x="1245" 
d="M565 -20q-86 0 -170 31.5t-154.5 90.5t-113.5 153.5t-43 209.5q0 169 80.5 312t217 225.5t296.5 82.5q86 0 170 -31.5t154.5 -90.5t113.5 -154t43 -211q0 -168 -80.5 -310.5t-217 -225t-296.5 -82.5zM141 467q0 -105 39 -190t102.5 -136.5t139.5 -78.5t156 -27
q66 0 137 21.5t140.5 68t124 110.5t88.5 158t34 203q0 86 -25.5 158.5t-68.5 122.5t-99.5 85t-118 51.5t-124.5 16.5q-66 0 -137 -21.5t-140.5 -68t-124.5 -111t-89 -159t-34 -203.5zM467 1516h70l153 -314h-69z" />
    <glyph glyph-name="oacute" unicode="&#xf3;" horiz-adv-x="1245" 
d="M565 -20q-86 0 -170 31.5t-154.5 90.5t-113.5 153.5t-43 209.5q0 169 80.5 312t217 225.5t296.5 82.5q86 0 170 -31.5t154.5 -90.5t113.5 -154t43 -211q0 -168 -80.5 -310.5t-217 -225t-296.5 -82.5zM141 467q0 -105 39 -190t102.5 -136.5t139.5 -78.5t156 -27
q66 0 137 21.5t140.5 68t124 110.5t88.5 158t34 203q0 86 -25.5 158.5t-68.5 122.5t-99.5 85t-118 51.5t-124.5 16.5q-66 0 -137 -21.5t-140.5 -68t-124.5 -111t-89 -159t-34 -203.5zM651 1202l154 314h69l-155 -314h-68z" />
    <glyph glyph-name="ocircumflex" unicode="&#xf4;" horiz-adv-x="1245" 
d="M565 -20q-86 0 -170 31.5t-154.5 90.5t-113.5 153.5t-43 209.5q0 169 80.5 312t217 225.5t296.5 82.5q86 0 170 -31.5t154.5 -90.5t113.5 -154t43 -211q0 -168 -80.5 -310.5t-217 -225t-296.5 -82.5zM141 467q0 -105 39 -190t102.5 -136.5t139.5 -78.5t156 -27
q66 0 137 21.5t140.5 68t124 110.5t88.5 158t34 203q0 86 -25.5 158.5t-68.5 122.5t-99.5 85t-118 51.5t-124.5 16.5q-66 0 -137 -21.5t-140.5 -68t-124.5 -111t-89 -159t-34 -203.5zM471 1272l229 244h45l183 -244l-47 -39l-156 213l-205 -213z" />
    <glyph glyph-name="otilde" unicode="&#xf5;" horiz-adv-x="1245" 
d="M565 -20q-86 0 -170 31.5t-154.5 90.5t-113.5 153.5t-43 209.5q0 169 80.5 312t217 225.5t296.5 82.5q86 0 170 -31.5t154.5 -90.5t113.5 -154t43 -211q0 -168 -80.5 -310.5t-217 -225t-296.5 -82.5zM141 467q0 -105 39 -190t102.5 -136.5t139.5 -78.5t156 -27
q66 0 137 21.5t140.5 68t124 110.5t88.5 158t34 203q0 86 -25.5 158.5t-68.5 122.5t-99.5 85t-118 51.5t-124.5 16.5q-66 0 -137 -21.5t-140.5 -68t-124.5 -111t-89 -159t-34 -203.5zM444 1280q10 83 51 122.5t101 39.5q30 0 54.5 -10t40 -25.5t32 -33t29.5 -33t32.5 -25.5
t42.5 -10q39 0 63 28.5t30 73.5h59q-10 -83 -50 -122.5t-98 -39.5q-37 0 -66 14t-47.5 33.5t-35 39.5t-38.5 34t-48 14q-39 0 -63 -28t-29 -72h-60z" />
    <glyph glyph-name="odieresis" unicode="&#xf6;" horiz-adv-x="1245" 
d="M565 -20q-86 0 -170 31.5t-154.5 90.5t-113.5 153.5t-43 209.5q0 169 80.5 312t217 225.5t296.5 82.5q86 0 170 -31.5t154.5 -90.5t113.5 -154t43 -211q0 -168 -80.5 -310.5t-217 -225t-296.5 -82.5zM141 467q0 -105 39 -190t102.5 -136.5t139.5 -78.5t156 -27
q66 0 137 21.5t140.5 68t124 110.5t88.5 158t34 203q0 86 -25.5 158.5t-68.5 122.5t-99.5 85t-118 51.5t-124.5 16.5q-66 0 -137 -21.5t-140.5 -68t-124.5 -111t-89 -159t-34 -203.5zM475 1382l6 66h62l-4 -66h-64zM840 1382l6 66h61l-4 -66h-63z" />
    <glyph glyph-name="divide" unicode="&#xf7;" horiz-adv-x="821" 
d="M96 559l4 45h637l-4 -45h-637zM324 356q0 17 11.5 30t33.5 13q20 0 31.5 -13t11.5 -30t-11.5 -30t-31.5 -13q-22 0 -33.5 13t-11.5 30zM379 805q0 17 11.5 30t33.5 13q20 0 31.5 -13t11.5 -30t-11.5 -30t-31.5 -13q-22 0 -33.5 13t-11.5 30z" />
    <glyph glyph-name="oslash" unicode="&#xf8;" horiz-adv-x="1245" 
d="M227 -102l88 149q-105 63 -168 169t-63 249q0 169 80.5 312t217 225.5t296.5 82.5q111 0 215 -49l86 148h59l-100 -172q100 -62 160.5 -167.5t60.5 -246.5q0 -168 -80.5 -310.5t-217 -225t-296.5 -82.5q-109 0 -205 45l-73 -127h-60zM141 467q0 -128 55.5 -222
t147.5 -149l520 891q-93 43 -198 43q-66 0 -137 -21.5t-140.5 -68t-124.5 -111t-89 -159t-34 -203.5zM389 74q88 -39 189 -39q66 0 137 21.5t140.5 68t124 110.5t88.5 158t34 203q0 126 -52 218.5t-141 148.5z" />
    <glyph glyph-name="ugrave" unicode="&#xf9;" horiz-adv-x="1157" 
d="M1071 1065l-110 -1065h-58l23 205q-52 -92 -155 -158.5t-249 -66.5q-90 0 -165.5 28t-131 82.5t-81 143.5t-13.5 204l66 627h57l-64 -625q-23 -200 74 -301.5t262 -101.5q164 0 283.5 101.5t140.5 301.5l64 625h57zM424 1516h70l153 -314h-69z" />
    <glyph glyph-name="uacute" unicode="&#xfa;" horiz-adv-x="1157" 
d="M1071 1065l-110 -1065h-58l23 205q-52 -92 -155 -158.5t-249 -66.5q-90 0 -165.5 28t-131 82.5t-81 143.5t-13.5 204l66 627h57l-64 -625q-23 -200 74 -301.5t262 -101.5q164 0 283.5 101.5t140.5 301.5l64 625h57zM606 1202l154 314h69l-155 -314h-68z" />
    <glyph glyph-name="ucircumflex" unicode="&#xfb;" horiz-adv-x="1157" 
d="M1071 1065l-110 -1065h-58l23 205q-52 -92 -155 -158.5t-249 -66.5q-90 0 -165.5 28t-131 82.5t-81 143.5t-13.5 204l66 627h57l-64 -625q-23 -200 74 -301.5t262 -101.5q164 0 283.5 101.5t140.5 301.5l64 625h57zM428 1272l229 244h45l183 -244l-47 -39l-156 213
l-205 -213z" />
    <glyph glyph-name="udieresis" unicode="&#xfc;" horiz-adv-x="1157" 
d="M1071 1065l-110 -1065h-58l23 205q-52 -92 -155 -158.5t-249 -66.5q-90 0 -165.5 28t-131 82.5t-81 143.5t-13.5 204l66 627h57l-64 -625q-23 -200 74 -301.5t262 -101.5q164 0 283.5 101.5t140.5 301.5l64 625h57zM432 1382l6 66h62l-4 -66h-64zM797 1382l6 66h61
l-4 -66h-63z" />
    <glyph glyph-name="yacute" unicode="&#xfd;" horiz-adv-x="1105" 
d="M250 -389l217 407l-342 1047h63l320 -977l516 977h68l-777 -1454h-65zM567 1202l154 314h70l-156 -314h-68z" />
    <glyph glyph-name="thorn" unicode="&#xfe;" horiz-adv-x="1288" 
d="M45 -389l199 1874h57l-72 -686q85 145 212.5 214.5t273.5 69.5q73 0 146 -22t139.5 -68t115 -110.5t72 -156.5t12.5 -198q-11 -105 -53.5 -195.5t-104 -154t-136.5 -109.5t-152 -67.5t-150 -21.5q-147 0 -262 71t-170 213l-70 -653h-57zM197 528q-10 -99 8.5 -181.5
t58 -139t95 -96.5t118 -58t129.5 -18q64 0 132.5 19t136 59.5t123 97.5t94.5 140.5t49 180.5q11 97 -10 180t-64 140t-102 97.5t-122.5 59.5t-127.5 19q-67 0 -134.5 -18.5t-132 -59t-116.5 -98t-88 -141.5t-47 -183z" />
    <glyph glyph-name="ydieresis" unicode="&#xff;" horiz-adv-x="1105" 
d="M250 -389l217 407l-342 1047h63l320 -977l516 977h68l-777 -1454h-65zM391 1382l6 66h62l-4 -66h-64zM756 1382l6 66h61l-4 -66h-63z" />
    <glyph glyph-name="Amacron" unicode="&#x100;" horiz-adv-x="1351" 
d="M795 1454l432 -1454h-64l-123 418h-749l-209 -418h-68l734 1454h47zM322 477h702l-260 885zM434 1751l6 53h736l-9 -53h-733z" />
    <glyph glyph-name="amacron" unicode="&#x101;" 
d="M580 -20q-98 0 -185.5 31.5t-156.5 91.5t-109.5 156t-40.5 216q0 128 45.5 241t123 194t185.5 128t228 47q160 0 282.5 -78t165.5 -208h6l29 266h57l-110 -1065h-58l27 266h-6q-75 -133 -201 -209.5t-282 -76.5zM147 477q0 -209 123.5 -324.5t309.5 -115.5
q147 0 268.5 74.5t189.5 200.5t68 276q0 106 -34 191t-93.5 138.5t-137 82t-167.5 28.5q-148 0 -269.5 -74.5t-189.5 -200.5t-68 -276zM369 1382l6 54h735l-8 -54h-733z" />
    <glyph glyph-name="Abreve" unicode="&#x102;" horiz-adv-x="1351" 
d="M795 1454l432 -1454h-64l-123 418h-749l-209 -418h-68l734 1454h47zM322 477h702l-260 885zM559 1884h64q-7 -80 37.5 -137t146.5 -57t155.5 56.5t63.5 137.5h66q-10 -106 -85 -184t-206 -78q-67 0 -118 23t-79 60.5t-39.5 83.5t-5.5 95z" />
    <glyph glyph-name="abreve" unicode="&#x103;" 
d="M580 -20q-98 0 -185.5 31.5t-156.5 91.5t-109.5 156t-40.5 216q0 128 45.5 241t123 194t185.5 128t228 47q160 0 282.5 -78t165.5 -208h6l29 266h57l-110 -1065h-58l27 266h-6q-75 -133 -201 -209.5t-282 -76.5zM147 477q0 -209 123.5 -324.5t309.5 -115.5
q147 0 268.5 74.5t189.5 200.5t68 276q0 106 -34 191t-93.5 138.5t-137 82t-167.5 28.5q-148 0 -269.5 -74.5t-189.5 -200.5t-68 -276zM492 1516h63q-7 -80 37.5 -137.5t146.5 -57.5q101 0 155 57t64 138h66q-5 -49 -25 -94.5t-54 -84t-89 -61.5t-123 -23q-88 0 -147.5 40
t-80.5 98t-13 125z" />
    <glyph glyph-name="Aogonek" unicode="&#x104;" horiz-adv-x="1351" 
d="M795 1454l432 -1454q-124 -22 -199.5 -85.5t-75.5 -150.5q0 -66 46 -99t112 -19l-6 -52q-32 -16 -70.5 -10.5t-72.5 22.5t-57 55t-23 87q0 95 79 166t197 104l-117 400h-749l-209 -418h-68l734 1454h47zM322 477h702l-260 885z" />
    <glyph glyph-name="aogonek" unicode="&#x105;" 
d="M580 -20q-98 0 -185.5 31.5t-156.5 91.5t-109.5 156t-40.5 216q0 128 45.5 241t123 194t185.5 128t228 47q160 0 282.5 -78t165.5 -208h6l29 266h57l-110 -1065q-124 -22 -199.5 -85.5t-75.5 -150.5q0 -66 46 -99t112 -19l-6 -52q-31 -16 -70 -10.5t-73 22.5t-57 55
t-23 87q0 96 82 168.5t204 103.5l4 -2l25 248h-6q-75 -133 -201 -209.5t-282 -76.5zM147 477q0 -209 123.5 -324.5t309.5 -115.5q147 0 268.5 74.5t189.5 200.5t68 276q0 106 -34 191t-93.5 138.5t-137 82t-167.5 28.5q-148 0 -269.5 -74.5t-189.5 -200.5t-68 -276z" />
    <glyph glyph-name="Cacute" unicode="&#x106;" horiz-adv-x="1343" 
d="M807 -20q-190 0 -342 83.5t-240 237.5t-88 352q0 167 66 320t177 262.5t261.5 174.5t312.5 65q65 0 129.5 -11t136 -37t137 -78t111.5 -126l-51 -37q-41 69 -101 117.5t-127 71t-123.5 31.5t-115.5 9q-153 0 -292 -60.5t-240 -163t-161 -244t-60 -296.5q0 -183 82 -323.5
t222.5 -214.5t315.5 -74q58 0 115 9t127.5 31.5t139.5 71t124 117.5l43 -37q-62 -74 -137 -126t-150.5 -78t-140.5 -36.5t-131 -10.5zM788 1571l154 313h70l-156 -313h-68z" />
    <glyph glyph-name="cacute" unicode="&#x107;" horiz-adv-x="1171" 
d="M578 -20q-97 0 -185.5 33.5t-156.5 95.5t-108 157.5t-40 210.5q0 166 78 305.5t213.5 221t296.5 81.5q147 0 265.5 -68t172.5 -194l-53 -22q-48 109 -151 168t-228 59q-99 0 -193 -37t-169.5 -104.5t-121.5 -171.5t-46 -228q0 -110 36 -197.5t97.5 -141.5t139 -82.5
t163.5 -28.5q126 0 235.5 58.5t180.5 168.5l49 -22q-80 -126 -206 -194t-269 -68zM616 1202l154 314h70l-156 -314h-68z" />
    <glyph glyph-name="Ccircumflex" unicode="&#x108;" horiz-adv-x="1497" 
d="M807 -20q-190 0 -342 83.5t-240 237.5t-88 352q0 167 66 320t177 262.5t261.5 174.5t312.5 65q65 0 129.5 -11t136 -37t137 -78t111.5 -126l-51 -37q-41 69 -101 117.5t-127 71t-123.5 31.5t-115.5 9q-153 0 -292 -60.5t-240 -163t-161 -244t-60 -296.5q0 -183 82 -323.5
t222.5 -214.5t315.5 -74q58 0 115 9t127.5 31.5t139.5 71t124 117.5l43 -37q-62 -74 -137 -126t-150.5 -78t-140.5 -36.5t-131 -10.5zM745 1661l230 244h45l182 -244l-47 -39l-156 213l-204 -213z" />
    <glyph glyph-name="ccircumflex" unicode="&#x109;" horiz-adv-x="1171" 
d="M578 -20q-97 0 -185.5 33.5t-156.5 95.5t-108 157.5t-40 210.5q0 166 78 305.5t213.5 221t296.5 81.5q147 0 265.5 -68t172.5 -194l-53 -22q-48 109 -151 168t-228 59q-99 0 -193 -37t-169.5 -104.5t-121.5 -171.5t-46 -228q0 -110 36 -197.5t97.5 -141.5t139 -82.5
t163.5 -28.5q126 0 235.5 58.5t180.5 168.5l49 -22q-80 -126 -206 -194t-269 -68zM438 1272l230 244h45l182 -244l-47 -39l-156 213l-205 -213z" />
    <glyph glyph-name="Cdotaccent" unicode="&#x10a;" horiz-adv-x="1343" 
d="M807 -20q-190 0 -342 83.5t-240 237.5t-88 352q0 167 66 320t177 262.5t261.5 174.5t312.5 65q65 0 129.5 -11t136 -37t137 -78t111.5 -126l-51 -37q-41 69 -101 117.5t-127 71t-123.5 31.5t-115.5 9q-153 0 -292 -60.5t-240 -163t-161 -244t-60 -296.5q0 -183 82 -323.5
t222.5 -214.5t315.5 -74q58 0 115 9t127.5 31.5t139.5 71t124 117.5l43 -37q-62 -74 -137 -126t-150.5 -78t-140.5 -36.5t-131 -10.5zM807 1751l8 66h57l-8 -66h-57z" />
    <glyph glyph-name="cdotaccent" unicode="&#x10b;" horiz-adv-x="1171" 
d="M578 -20q-97 0 -185.5 33.5t-156.5 95.5t-108 157.5t-40 210.5q0 166 78 305.5t213.5 221t296.5 81.5q147 0 265.5 -68t172.5 -194l-53 -22q-48 109 -151 168t-228 59q-99 0 -193 -37t-169.5 -104.5t-121.5 -171.5t-46 -228q0 -110 36 -197.5t97.5 -141.5t139 -82.5
t163.5 -28.5q126 0 235.5 58.5t180.5 168.5l49 -22q-80 -126 -206 -194t-269 -68zM645 1382l8 66h58l-9 -66h-57z" />
    <glyph glyph-name="Ccaron" unicode="&#x10c;" horiz-adv-x="1343" 
d="M807 -20q-190 0 -342 83.5t-240 237.5t-88 352q0 167 66 320t177 262.5t261.5 174.5t312.5 65q65 0 129.5 -11t136 -37t137 -78t111.5 -126l-51 -37q-41 69 -101 117.5t-127 71t-123.5 31.5t-115.5 9q-153 0 -292 -60.5t-240 -163t-161 -244t-60 -296.5q0 -183 82 -323.5
t222.5 -214.5t315.5 -74q58 0 115 9t127.5 31.5t139.5 71t124 117.5l43 -37q-62 -74 -137 -126t-150.5 -78t-140.5 -36.5t-131 -10.5zM573 1843l48 41l155 -215l205 215l49 -41l-229 -241h-45z" />
    <glyph glyph-name="ccaron" unicode="&#x10d;" horiz-adv-x="1171" 
d="M578 -20q-97 0 -185.5 33.5t-156.5 95.5t-108 157.5t-40 210.5q0 166 78 305.5t213.5 221t296.5 81.5q147 0 265.5 -68t172.5 -194l-53 -22q-48 109 -151 168t-228 59q-99 0 -193 -37t-169.5 -104.5t-121.5 -171.5t-46 -228q0 -110 36 -197.5t97.5 -141.5t139 -82.5
t163.5 -28.5q126 0 235.5 58.5t180.5 168.5l49 -22q-80 -126 -206 -194t-269 -68zM459 1475l47 41l156 -216l204 216l49 -41l-229 -242h-45z" />
    <glyph glyph-name="Dcaron" unicode="&#x10e;" horiz-adv-x="1302" 
d="M86 0l152 1454h337q314 0 483 -176t169 -479q0 -235 -97.5 -416t-279.5 -282t-422 -101h-342zM150 57h278q223 0 391.5 94t258 261t89.5 383q0 281 -155 441.5t-445 160.5h-276zM573 1872l48 41l155 -215l205 215l49 -41l-229 -242h-45z" />
    <glyph glyph-name="dcaron" unicode="&#x10f;" horiz-adv-x="1230" 
d="M580 -20q-98 0 -185.5 31.5t-156.5 91.5t-109.5 156t-40.5 216q0 128 45.5 241t123 194t185.5 128t228 47q160 0 282.5 -78t165.5 -208h6l70 655h57l-151 -1454h-58l27 266h-6q-75 -133 -201 -209.5t-282 -76.5zM147 477q0 -209 123.5 -324.5t309.5 -115.5
q147 0 268.5 74.5t189.5 200.5t68 276q0 106 -34 191t-93.5 138.5t-137 82t-167.5 28.5q-148 0 -269.5 -74.5t-189.5 -200.5t-68 -276zM1278 1171l154 314h69l-155 -314h-68z" />
    <glyph glyph-name="Dcroat" unicode="&#x110;" horiz-adv-x="1222" 
d="M-8 0l74 698h-119l4 45h119l73 691h351q210 0 366.5 -95.5t229.5 -261t51 -368.5q-16 -147 -83 -277.5t-170.5 -225.5t-245 -150.5t-298.5 -55.5h-352zM55 57h291q146 0 277 51.5t226.5 139.5t157 208.5t76.5 256.5q19 188 -47.5 338.5t-209.5 237.5t-339 87h-290
l-68 -633h457l-4 -45h-457z" />
    <glyph glyph-name="dcroat" unicode="&#x111;" horiz-adv-x="1228" 
d="M592 1235l6 57h580l16 162h57l-16 -162h55l-4 -57h-57l-129 -1235h-58l27 266h-6q-75 -133 -201 -209.5t-282 -76.5q-98 0 -185.5 31.5t-156.5 91.5t-109.5 156t-40.5 216q0 128 45.5 241t123 194t185.5 128t228 47q160 0 282.5 -78t165.5 -208h6l47 436h-579zM147 477
q0 -209 123.5 -324.5t309.5 -115.5q147 0 268.5 74.5t189.5 200.5t68 276q0 106 -34 191t-93.5 138.5t-137 82t-167.5 28.5q-148 0 -269.5 -74.5t-189.5 -200.5t-68 -276z" />
    <glyph glyph-name="Emacron" unicode="&#x112;" horiz-adv-x="999" 
d="M86 0l152 1454h731l-6 -59h-672l-66 -635h578l-6 -60h-578l-67 -641h690l-6 -59h-750zM279 1772l6 53h735l-8 -53h-733z" />
    <glyph glyph-name="emacron" unicode="&#x113;" horiz-adv-x="1202" 
d="M575 -20q-100 0 -187.5 31.5t-154.5 91.5t-106 155t-39 213q0 168 75.5 309t207.5 223t291 82q105 0 195 -37.5t155 -107.5t92.5 -180.5t5.5 -245.5h-960v-35q0 -106 34 -191t94 -138.5t138.5 -82t169.5 -28.5q113 0 213 43t166 121l43 -37q-82 -92 -195.5 -139
t-237.5 -47zM156 571h907q10 105 -18.5 192t-85 144t-134 88t-166.5 31q-192 0 -332 -128.5t-171 -326.5zM326 1382l6 54h735l-8 -54h-733z" />
    <glyph glyph-name="Edotaccent" unicode="&#x116;" horiz-adv-x="999" 
d="M86 0l152 1454h731l-6 -59h-672l-66 -635h578l-6 -60h-578l-67 -641h690l-6 -59h-750zM614 1772l9 65h57l-8 -65h-58z" />
    <glyph glyph-name="edotaccent" unicode="&#x117;" horiz-adv-x="1202" 
d="M575 -20q-100 0 -187.5 31.5t-154.5 91.5t-106 155t-39 213q0 168 75.5 309t207.5 223t291 82q105 0 195 -37.5t155 -107.5t92.5 -180.5t5.5 -245.5h-960v-35q0 -106 34 -191t94 -138.5t138.5 -82t169.5 -28.5q113 0 213 43t166 121l43 -37q-82 -92 -195.5 -139
t-237.5 -47zM156 571h907q10 105 -18.5 192t-85 144t-134 88t-166.5 31q-192 0 -332 -128.5t-171 -326.5zM664 1382l8 66h57l-8 -66h-57z" />
    <glyph glyph-name="Eogonek" unicode="&#x118;" horiz-adv-x="999" 
d="M86 0l152 1454h731l-6 -59h-672l-66 -635h578l-6 -60h-578l-67 -641h690l-6 -59q-124 -22 -199.5 -85.5t-75.5 -150.5q0 -66 46 -99t112 -19l-6 -52q-25 -11 -55.5 -11.5t-60 10.5t-54 31t-39.5 52.5t-15 71.5q0 83 62.5 149t161.5 103h-627z" />
    <glyph glyph-name="eogonek" unicode="&#x119;" horiz-adv-x="1202" 
d="M614 -406q-32 -16 -70.5 -10.5t-72.5 22.5t-57 55t-23 87q0 72 48 131.5t128 100.5q-99 2 -185 34.5t-152 92.5t-104 154t-38 210q0 168 75.5 309t207.5 223t291 82q105 0 195 -37.5t155 -107.5t92.5 -180.5t5.5 -245.5h-960v-35q0 -106 34 -191t94 -138.5t138.5 -82
t169.5 -28.5q113 0 213 43t166 121l43 -37q-108 -122 -273 -166h2l-8 -2q-22 -4 -35 -8q-106 -27 -168.5 -87t-62.5 -139q0 -66 46 -99t112 -19zM156 571h907q10 105 -18.5 192t-85 144t-134 88t-166.5 31q-192 0 -332 -128.5t-171 -326.5z" />
    <glyph glyph-name="Ecaron" unicode="&#x11a;" horiz-adv-x="999" 
d="M86 0l152 1454h731l-6 -59h-672l-66 -635h578l-6 -60h-578l-67 -641h690l-6 -59h-750zM428 1864l47 41l156 -215l205 215l49 -41l-230 -242h-45z" />
    <glyph glyph-name="ecaron" unicode="&#x11b;" horiz-adv-x="1202" 
d="M575 -20q-100 0 -187.5 31.5t-154.5 91.5t-106 155t-39 213q0 168 75.5 309t207.5 223t291 82q105 0 195 -37.5t155 -107.5t92.5 -180.5t5.5 -245.5h-960v-35q0 -106 34 -191t94 -138.5t138.5 -82t169.5 -28.5q113 0 213 43t166 121l43 -37q-82 -92 -195.5 -139
t-237.5 -47zM156 571h907q10 105 -18.5 192t-85 144t-134 88t-166.5 31q-192 0 -332 -128.5t-171 -326.5zM475 1475l47 41l156 -216l205 216l49 -41l-230 -242h-45z" />
    <glyph glyph-name="Gcircumflex" unicode="&#x11c;" horiz-adv-x="1644" 
d="M791 -20q-186 0 -335 84t-234 237.5t-85 349.5q0 170 65.5 323t176 262.5t262 174t317.5 64.5q65 0 128.5 -11t135 -37t136 -78t110.5 -126l-49 -37q-42 69 -102.5 117t-126.5 70.5t-122 31t-114 8.5q-204 0 -378 -101.5t-276.5 -277.5t-102.5 -385q0 -136 46.5 -251
t127 -193.5t191.5 -122t239 -43.5q118 0 228 39t201.5 112t157 187.5t89.5 257.5h-486l10 59h541q-15 -163 -82 -299t-168.5 -226t-230.5 -139.5t-270 -49.5zM713 1661l229 244h45l182 -244l-47 -39l-155 213l-205 -213z" />
    <glyph glyph-name="gcircumflex" unicode="&#x11d;" 
d="M549 -426q-111 0 -196 25.5t-117 54.5l8 61q104 -84 299 -84q69 0 133 12t128.5 42.5t114 77t85 121t45.5 169.5l20 213h-6q-74 -135 -200.5 -210.5t-282.5 -75.5q-100 0 -188 32t-156 92.5t-108 156.5t-40 216q0 126 44.5 239t122 194t186 128t231.5 47q161 0 282 -77.5
t164 -208.5h6l29 266h57l-106 -1028q-11 -99 -48 -179t-90 -132t-122.5 -87t-142.5 -50t-152 -15zM147 473q0 -107 35.5 -192t96.5 -137.5t138 -79.5t165 -27q148 0 269 74.5t188 201t67 277.5q0 107 -36 192.5t-97 138t-138.5 80t-164.5 27.5q-148 0 -268 -74t-187.5 -201
t-67.5 -280zM496 1272l229 244h45l182 -244l-47 -39l-155 213l-205 -213z" />
    <glyph glyph-name="Gbreve" unicode="&#x11e;" horiz-adv-x="1570" 
d="M791 -20q-186 0 -335 84t-234 237.5t-85 349.5q0 170 65.5 323t176 262.5t262 174t317.5 64.5q65 0 128.5 -11t135 -37t136 -78t110.5 -126l-49 -37q-42 69 -102.5 117t-126.5 70.5t-122 31t-114 8.5q-204 0 -378 -101.5t-276.5 -277.5t-102.5 -385q0 -136 46.5 -251
t127 -193.5t191.5 -122t239 -43.5q118 0 228 39t201.5 112t157 187.5t89.5 257.5h-486l10 59h541q-15 -163 -82 -299t-168.5 -226t-230.5 -139.5t-270 -49.5zM623 1884h63q-7 -80 37.5 -137t146.5 -57t156 56.5t64 137.5h65q-10 -106 -85 -184t-206 -78q-67 0 -118 23
t-78.5 60.5t-39 83.5t-5.5 95z" />
    <glyph glyph-name="gbreve" unicode="&#x11f;" horiz-adv-x="1302" 
d="M549 -426q-111 0 -196 25.5t-117 54.5l8 61q104 -84 299 -84q69 0 133 12t128.5 42.5t114 77t85 121t45.5 169.5l20 213h-6q-74 -135 -200.5 -210.5t-282.5 -75.5q-100 0 -188 32t-156 92.5t-108 156.5t-40 216q0 126 44.5 239t122 194t186 128t231.5 47q161 0 282 -77.5
t164 -208.5h6l29 266h57l-106 -1028q-11 -99 -48 -179t-90 -132t-122.5 -87t-142.5 -50t-152 -15zM147 473q0 -107 35.5 -192t96.5 -137.5t138 -79.5t165 -27q148 0 269 74.5t188 201t67 277.5q0 107 -36 192.5t-97 138t-138.5 80t-164.5 27.5q-148 0 -268 -74t-187.5 -201
t-67.5 -280zM477 1516h64q-7 -80 37.5 -137.5t146.5 -57.5q101 0 155 57t64 138h66q-5 -49 -25 -94.5t-54 -84t-89 -61.5t-123 -23q-67 0 -118 23t-79 61t-39.5 84t-5.5 95z" />
    <glyph glyph-name="Gdotaccent" unicode="&#x120;" horiz-adv-x="1570" 
d="M791 -20q-186 0 -335 84t-234 237.5t-85 349.5q0 170 65.5 323t176 262.5t262 174t317.5 64.5q65 0 128.5 -11t135 -37t136 -78t110.5 -126l-49 -37q-42 69 -102.5 117t-126.5 70.5t-122 31t-114 8.5q-204 0 -378 -101.5t-276.5 -277.5t-102.5 -385q0 -136 46.5 -251
t127 -193.5t191.5 -122t239 -43.5q118 0 228 39t201.5 112t157 187.5t89.5 257.5h-486l10 59h541q-15 -163 -82 -299t-168.5 -226t-230.5 -139.5t-270 -49.5zM840 1751l8 66h57l-8 -66h-57z" />
    <glyph glyph-name="gdotaccent" unicode="&#x121;" 
d="M549 -426q-111 0 -196 25.5t-117 54.5l8 61q104 -84 299 -84q69 0 133 12t128.5 42.5t114 77t85 121t45.5 169.5l20 213h-6q-74 -135 -200.5 -210.5t-282.5 -75.5q-100 0 -188 32t-156 92.5t-108 156.5t-40 216q0 126 44.5 239t122 194t186 128t231.5 47q161 0 282 -77.5
t164 -208.5h6l29 266h57l-106 -1028q-11 -99 -48 -179t-90 -132t-122.5 -87t-142.5 -50t-152 -15zM147 473q0 -107 35.5 -192t96.5 -137.5t138 -79.5t165 -27q148 0 269 74.5t188 201t67 277.5q0 107 -36 192.5t-97 138t-138.5 80t-164.5 27.5q-148 0 -268 -74t-187.5 -201
t-67.5 -280zM705 1382l8 66h57l-8 -66h-57z" />
    <glyph glyph-name="uni0122" unicode="&#x122;" horiz-adv-x="1644" 
d="M791 -20q-186 0 -335 84t-234 237.5t-85 349.5q0 170 65.5 323t176 262.5t262 174t317.5 64.5q65 0 128.5 -11t135 -37t136 -78t110.5 -126l-49 -37q-42 69 -102.5 117t-126.5 70.5t-122 31t-114 8.5q-204 0 -378 -101.5t-276.5 -277.5t-102.5 -385q0 -136 46.5 -251
t127 -193.5t191.5 -122t239 -43.5q118 0 228 39t201.5 112t157 187.5t89.5 257.5h-486l10 59h541q-15 -163 -82 -299t-168.5 -226t-230.5 -139.5t-270 -49.5zM575 -449l170 377h62l-172 -377h-60z" />
    <glyph glyph-name="uni0123" unicode="&#x123;" 
d="M549 -426q-111 0 -196 25.5t-117 54.5l8 61q104 -84 299 -84q69 0 133 12t128.5 42.5t114 77t85 121t45.5 169.5l20 213h-6q-74 -135 -200.5 -210.5t-282.5 -75.5q-100 0 -188 32t-156 92.5t-108 156.5t-40 216q0 126 44.5 239t122 194t186 128t231.5 47q161 0 282 -77.5
t164 -208.5h6l29 266h57l-106 -1028q-11 -99 -48 -179t-90 -132t-122.5 -87t-142.5 -50t-152 -15zM147 473q0 -107 35.5 -192t96.5 -137.5t138 -79.5t165 -27q148 0 269 74.5t188 201t67 277.5q0 107 -36 192.5t-97 138t-138.5 80t-164.5 27.5q-148 0 -268 -74t-187.5 -201
t-67.5 -280zM664 1137l172 376h59l-170 -376h-61z" />
    <glyph glyph-name="Hcircumflex" unicode="&#x124;" horiz-adv-x="1263" 
d="M1004 0l69 668h-856l-70 -668h-59l154 1454h59l-78 -727h858l76 727h60l-154 -1454h-59zM524 1661l230 244h45l182 -244l-47 -39l-156 213l-205 -213z" />
    <glyph glyph-name="hcircumflex" unicode="&#x125;" horiz-adv-x="1157" 
d="M86 0l150 1454h59l-64 -594q24 42 58.5 79.5t84 71.5t117 54t144.5 20q90 0 165.5 -28t131 -82.5t81 -143.5t13.5 -204l-65 -627h-58l64 625q11 103 -11 182t-70 126.5t-112.5 71t-142.5 23.5q-164 0 -283.5 -101.5t-140.5 -301.5l-64 -625h-57zM57 1661l230 244h45
l182 -244l-47 -39l-156 213l-205 -213z" />
    <glyph glyph-name="Hbar" unicode="&#x126;" horiz-adv-x="1259" 
d="M86 0l152 1434h59l-39 -363h856l39 363h59l-151 -1434h-60l72 668h-856l-72 -668h-59zM221 727h858l29 283h-856z" />
    <glyph glyph-name="hbar" unicode="&#x127;" horiz-adv-x="1169" 
d="M20 1200l7 51h200l21 203h59l-22 -203h170l-6 -51h-168l-37 -340q53 93 154.5 159t248.5 66q90 0 165.5 -28t131 -82.5t81 -143.5t13.5 -204l-65 -627h-58l64 625q11 103 -11 182t-70 126.5t-112.5 71t-142.5 23.5q-164 0 -283.5 -101.5t-140.5 -301.5l-63 -625h-58
l123 1200h-201z" />
    <glyph glyph-name="Itilde" unicode="&#x128;" horiz-adv-x="342" 
d="M86 0l154 1454h59l-154 -1454h-59zM35 1669q10 83 50.5 122.5t100.5 39.5q35 0 63 -14t46 -34.5t35 -40.5t39 -34t49 -14q39 0 62.5 28t29.5 74h59q-10 -83 -49.5 -122.5t-97.5 -39.5q-37 0 -66 14t-47.5 34t-35.5 39.5t-39 33.5t-48 14q-39 0 -63 -28t-29 -72h-59z" />
    <glyph glyph-name="itilde" unicode="&#x129;" horiz-adv-x="339" 
d="M86 0l113 1065h57l-113 -1065h-57zM-6 1280q10 83 50.5 122.5t100.5 39.5q35 0 63 -14t46 -34t35 -40.5t39 -34.5t49 -14q39 0 62.5 28t29.5 74h59q-10 -83 -49.5 -122.5t-97.5 -39.5q-37 0 -66 14t-47.5 33.5t-35.5 39.5t-39 34t-48 14q-39 0 -63 -28t-29 -72h-59z" />
    <glyph glyph-name="Imacron" unicode="&#x12a;" horiz-adv-x="342" 
d="M86 0l154 1454h59l-154 -1454h-59zM-66 1772l7 53h735l-8 -53h-734z" />
    <glyph glyph-name="imacron" unicode="&#x12b;" horiz-adv-x="339" 
d="M86 0l113 1065h57l-113 -1065h-57zM-106 1382l6 54h735l-8 -54h-733z" />
    <glyph glyph-name="Iogonek" unicode="&#x12e;" horiz-adv-x="342" 
d="M23 -406q-25 -11 -55.5 -11.5t-60 10.5t-54 31t-39.5 52.5t-15 71.5q0 96 82.5 168.5t204.5 103.5h2l152 1434h59l-154 -1454q-124 -22 -199 -85.5t-75 -150.5q0 -66 46 -99t112 -19z" />
    <glyph glyph-name="iogonek" unicode="&#x12f;" horiz-adv-x="339" 
d="M231 1382l9 66h57l-8 -66h-58zM-203 -252q0 96 82.5 168.5t204.5 103.5l4 -2l111 1047h57l-113 -1065q-124 -22 -199 -85.5t-75 -150.5q0 -66 46 -99t112 -19l-7 -52q-32 -16 -70.5 -10.5t-72.5 22.5t-57 55t-23 87z" />
    <glyph glyph-name="Idotaccent" unicode="&#x130;" horiz-adv-x="342" 
d="M86 0l154 1454h59l-154 -1454h-59zM270 1772l9 65h57l-8 -65h-58z" />
    <glyph glyph-name="dotlessi" unicode="&#x131;" horiz-adv-x="339" 
d="M86 0l113 1065h57l-113 -1065h-57z" />
    <glyph glyph-name="IJ" unicode="&#x132;" horiz-adv-x="1255" 
d="M664 -25q-107 0 -194 52.5t-122 142.5l45 31q79 -168 275 -168q169 0 262 102.5t119 337.5l100 961h59l-100 -959q-28 -266 -138 -383t-306 -117zM86 0l152 1434h59l-152 -1434h-59z" />
    <glyph glyph-name="ij" unicode="&#x133;" horiz-adv-x="681" 
d="M86 0l111 1065h57l-111 -1065h-57zM59 -395l7 55h32q68 0 119 13.5t96 47t73 96t38 154.5l115 1094h59l-117 -1092q-9 -89 -35 -155.5t-61.5 -106.5t-86 -64.5t-101 -33t-113.5 -8.5h-25zM229 1384l11 70h57l-8 -70h-60zM571 1384l9 70h59l-10 -70h-58z" />
    <glyph glyph-name="Jcircumflex" unicode="&#x134;" horiz-adv-x="913" 
d="M346 -20q-109 0 -190.5 44.5t-116.5 122.5l43 37q84 -147 266 -147q154 0 242.5 93.5t107.5 262.5l113 1061h59l-110 -1061q-21 -205 -134 -309t-280 -104zM633 1661l229 244h45l183 -244l-48 -39l-155 213l-205 -213z" />
    <glyph glyph-name="jcircumflex" unicode="&#x135;" horiz-adv-x="339" 
d="M-283 -395l7 55h32q68 0 119 13.5t96 47t73 96t38 154.5l115 1094h59l-117 -1092q-9 -89 -35 -155.5t-61.5 -106.5t-86 -64.5t-101 -33t-113.5 -8.5h-25zM16 1272l230 244h45l182 -244l-47 -39l-156 213l-204 -213z" />
    <glyph glyph-name="uni0136" unicode="&#x136;" horiz-adv-x="1230" 
d="M86 0l152 1454h59l-96 -932l929 932h87l-699 -692l590 -762h-76l-553 723l-289 -287l-45 -436h-59zM369 -449l170 377h61l-172 -377h-59z" />
    <glyph glyph-name="uni0137" unicode="&#x137;" horiz-adv-x="1036" 
d="M162 -420l190 342h86l-229 -342h-47zM86 0l152 1454h57l-111 -1069l688 680h84l-489 -479l446 -586h-73l-412 547l-254 -248l-31 -299h-57z" />
    <glyph glyph-name="Lacute" unicode="&#x139;" horiz-adv-x="1011" 
d="M86 0l154 1454h59l-149 -1395h712l-4 -59h-772zM242 1591l153 314h70l-156 -314h-67z" />
    <glyph glyph-name="lacute" unicode="&#x13a;" horiz-adv-x="382" 
d="M86 0l154 1448h57l-154 -1448h-57zM262 1552l189 265h67l-221 -265h-35z" />
    <glyph glyph-name="uni013B" unicode="&#x13b;" horiz-adv-x="1011" 
d="M86 0l154 1454h59l-149 -1395h712l-4 -59h-772zM281 -449l170 377h61l-172 -377h-59z" />
    <glyph glyph-name="uni013C" unicode="&#x13c;" horiz-adv-x="337" 
d="M86 0l152 1454h57l-152 -1454h-57zM-78 -449l170 377h62l-172 -377h-60z" />
    <glyph glyph-name="Lcaron" unicode="&#x13d;" horiz-adv-x="1011" 
d="M395 1057l197 377h61l-202 -377h-56zM86 0l154 1454h59l-149 -1395h712l-4 -59h-772z" />
    <glyph glyph-name="lcaron" unicode="&#x13e;" horiz-adv-x="391" 
d="M86 0l152 1454h57l-152 -1454h-57zM340 1098l170 377h61l-172 -377h-59z" />
    <glyph glyph-name="Ldot" unicode="&#x13f;" horiz-adv-x="1011" 
d="M506 700q-35 0 -39.5 5.5t-1.5 39.5q3 32 8 36.5t37 4.5q35 0 39.5 -5.5t1.5 -39.5q-3 -33 -7.5 -37t-37.5 -4zM86 0l154 1454h59l-149 -1395h712l-4 -59h-772z" />
    <glyph glyph-name="ldot" unicode="&#x140;" horiz-adv-x="292" 
d="M86 0l152 1454h57l-152 -1454h-57zM367 729q0 17 11.5 30t33.5 13q20 0 31.5 -13t11.5 -30t-11.5 -30t-31.5 -13q-22 0 -33.5 13t-11.5 30z" />
    <glyph glyph-name="Lslash" unicode="&#x141;" horiz-adv-x="1048" 
d="M125 0l55 522l-139 -131l12 98l140 132l83 813h60l-80 -750l375 354h2l-12 -98l-373 -356l-58 -525h711l-6 -59h-770z" />
    <glyph glyph-name="lslash" unicode="&#x142;" horiz-adv-x="382" 
d="M-61 412l10 86l260 274l72 682h57l-64 -614l209 219h2l-6 -84l-215 -223l-78 -752h-57l72 684z" />
    <glyph glyph-name="Nacute" unicode="&#x143;" horiz-adv-x="1392" 
d="M86 0l152 1454h59l840 -1348h12l139 1348h60l-152 -1454h-59l-840 1348h-12l-140 -1348h-59zM766 1591l154 314h69l-155 -314h-68z" />
    <glyph glyph-name="nacute" unicode="&#x144;" horiz-adv-x="1157" 
d="M86 0l111 1065h57l-23 -205q52 92 155 158.5t249 66.5q90 0 165.5 -28t131 -82.5t81 -143.5t13.5 -204l-65 -627h-58l64 625q23 200 -74 301.5t-262 101.5q-164 0 -283.5 -101.5t-140.5 -301.5l-64 -625h-57zM606 1202l154 314h69l-155 -314h-68z" />
    <glyph glyph-name="uni0145" unicode="&#x145;" horiz-adv-x="1392" 
d="M86 0l152 1454h59l840 -1348h12l139 1348h60l-152 -1454h-59l-840 1348h-12l-140 -1348h-59zM449 -449l169 377h62l-172 -377h-59z" />
    <glyph glyph-name="uni0146" unicode="&#x146;" horiz-adv-x="1157" 
d="M86 0l111 1065h57l-23 -205q52 92 155 158.5t249 66.5q90 0 165.5 -28t131 -82.5t81 -143.5t13.5 -204l-65 -627h-58l64 625q23 200 -74 301.5t-262 101.5q-164 0 -283.5 -101.5t-140.5 -301.5l-64 -625h-57zM330 -449l170 377h61l-172 -377h-59z" />
    <glyph glyph-name="Ncaron" unicode="&#x147;" horiz-adv-x="1392" 
d="M86 0l152 1454h59l840 -1348h12l139 1348h60l-152 -1454h-59l-840 1348h-12l-140 -1348h-59zM608 1864l47 41l156 -215l205 215l49 -41l-229 -242h-45z" />
    <glyph glyph-name="ncaron" unicode="&#x148;" horiz-adv-x="1157" 
d="M86 0l111 1065h57l-23 -205q52 92 155 158.5t249 66.5q90 0 165.5 -28t131 -82.5t81 -143.5t13.5 -204l-65 -627h-58l64 625q23 200 -74 301.5t-262 101.5q-164 0 -283.5 -101.5t-140.5 -301.5l-64 -625h-57zM449 1475l47 41l155 -216l205 216l49 -41l-229 -242h-45z" />
    <glyph glyph-name="Eng" unicode="&#x14a;" horiz-adv-x="1392" 
d="M758 -430q-107 0 -195.5 52t-122.5 142l52 31q73 -168 270 -168q161 0 253 91.5t122 301.5l-854 1297l-138 -1317h-59l152 1434h43l868 -1323l139 1323h58l-144 -1364q-28 -266 -138 -383t-306 -117z" />
    <glyph glyph-name="eng" unicode="&#x14b;" horiz-adv-x="1157" 
d="M537 -395l6 55h35q67 0 118 14t95.5 47.5t72.5 97.5t37 158l66 648q11 103 -11 182t-70 126.5t-112.5 71t-142.5 23.5q-164 0 -283.5 -101.5t-140.5 -301.5l-64 -625h-57l111 1065h57l-23 -205q51 92 155 158.5t249 66.5q90 0 165.5 -28t131 -82.5t81 -143.5t13.5 -204
l-65 -643q-10 -92 -36 -160.5t-62 -110t-86.5 -66.5t-100.5 -33.5t-113 -8.5h-26z" />
    <glyph glyph-name="Omacron" unicode="&#x14c;" horiz-adv-x="1693" 
d="M803 -20q-182 0 -332.5 81t-242 236t-91.5 354q0 166 64 319t171.5 263.5t254.5 176t305 65.5q135 0 256.5 -48t212.5 -133.5t144.5 -213t53.5 -277.5q0 -166 -64.5 -319t-172 -263t-254 -175.5t-305.5 -65.5zM197 653q0 -139 48.5 -255.5t131.5 -194.5t193 -121t233 -43
q146 0 282 61t235 163.5t158.5 243.5t59.5 294q0 139 -48.5 255.5t-131.5 194.5t-193 121t-233 43q-146 0 -282 -61t-235 -163.5t-158.5 -243.5t-59.5 -294zM608 1772l6 53h736l-9 -53h-733z" />
    <glyph glyph-name="omacron" unicode="&#x14d;" horiz-adv-x="1245" 
d="M565 -20q-86 0 -170 31.5t-154.5 90.5t-113.5 153.5t-43 209.5q0 169 80.5 312t217 225.5t296.5 82.5q86 0 170 -31.5t154.5 -90.5t113.5 -154t43 -211q0 -168 -80.5 -310.5t-217 -225t-296.5 -82.5zM141 467q0 -105 39 -190t102.5 -136.5t139.5 -78.5t156 -27
q66 0 137 21.5t140.5 68t124 110.5t88.5 158t34 203q0 86 -25.5 158.5t-68.5 122.5t-99.5 85t-118 51.5t-124.5 16.5q-66 0 -137 -21.5t-140.5 -68t-124.5 -111t-89 -159t-34 -203.5zM344 1382l6 54h735l-8 -54h-733z" />
    <glyph glyph-name="Ohungarumlaut" unicode="&#x150;" horiz-adv-x="1693" 
d="M803 -20q-182 0 -332.5 81t-242 236t-91.5 354q0 166 64 319t171.5 263.5t254.5 176t305 65.5q135 0 256.5 -48t212.5 -133.5t144.5 -213t53.5 -277.5q0 -166 -64.5 -319t-172 -263t-254 -175.5t-305.5 -65.5zM197 653q0 -139 48.5 -255.5t131.5 -194.5t193 -121t233 -43
q146 0 282 61t235 163.5t158.5 243.5t59.5 294q0 139 -48.5 255.5t-131.5 194.5t-193 121t-233 43q-146 0 -282 -61t-235 -163.5t-158.5 -243.5t-59.5 -294zM776 1591l154 314h69l-155 -314h-68zM1018 1591l153 314h70l-156 -314h-67z" />
    <glyph glyph-name="ohungarumlaut" unicode="&#x151;" horiz-adv-x="1245" 
d="M565 -20q-86 0 -170 31.5t-154.5 90.5t-113.5 153.5t-43 209.5q0 169 80.5 312t217 225.5t296.5 82.5q86 0 170 -31.5t154.5 -90.5t113.5 -154t43 -211q0 -168 -80.5 -310.5t-217 -225t-296.5 -82.5zM141 467q0 -105 39 -190t102.5 -136.5t139.5 -78.5t156 -27
q66 0 137 21.5t140.5 68t124 110.5t88.5 158t34 203q0 86 -25.5 158.5t-68.5 122.5t-99.5 85t-118 51.5t-124.5 16.5q-66 0 -137 -21.5t-140.5 -68t-124.5 -111t-89 -159t-34 -203.5zM512 1202l154 314h69l-155 -314h-68zM754 1202l153 314h70l-156 -314h-67z" />
    <glyph glyph-name="OE" unicode="&#x152;" horiz-adv-x="2373" 
d="M803 -20q-182 0 -332.5 81t-242 236t-91.5 354q0 166 64 319t171.5 263.5t254.5 176t305 65.5q222 0 396 -121.5t239 -329.5l45 430h731l-6 -59h-672l-66 -635h578l-6 -60h-578l-2 -18l-65 -623h690l-6 -59h-750l43 416q-104 -198 -292 -317t-408 -119zM197 653
q0 -139 48.5 -255.5t131.5 -194.5t193 -121t233 -43q146 0 282 61t235 163.5t158.5 243.5t59.5 294q0 139 -48.5 255.5t-131.5 194.5t-193 121t-233 43q-146 0 -282 -61t-235 -163.5t-158.5 -243.5t-59.5 -294z" />
    <glyph glyph-name="oe" unicode="&#x153;" horiz-adv-x="2217" 
d="M1591 -20q-181 0 -312.5 99t-164.5 281q-70 -170 -219 -275t-330 -105q-86 0 -170 31.5t-154.5 90.5t-113.5 153.5t-43 209.5q0 169 80.5 312t217 225.5t296.5 82.5q102 0 197.5 -40.5t172 -127.5t101.5 -206q64 169 206 271.5t322 102.5q105 0 195.5 -37.5t155.5 -107.5
t92.5 -180.5t5.5 -245.5h-961v-35q0 -106 34.5 -191t94.5 -138.5t138.5 -82t169.5 -28.5q113 0 212.5 43t165.5 121l43 -37q-82 -93 -195 -139.5t-237 -46.5zM141 467q0 -105 39 -190t102.5 -136.5t139.5 -78.5t156 -27q66 0 137 21.5t140.5 68t124 110.5t88.5 158t34 203
q0 86 -25.5 158.5t-68.5 122.5t-99.5 85t-118 51.5t-124.5 16.5q-66 0 -137 -21.5t-140.5 -68t-124.5 -111t-89 -159t-34 -203.5zM1171 571h908q10 105 -18.5 192t-85 144t-134 88t-166.5 31q-192 0 -332.5 -128.5t-171.5 -326.5z" />
    <glyph glyph-name="Racute" unicode="&#x154;" horiz-adv-x="1169" 
d="M86 0l152 1454h421q206 0 318.5 -112.5t112.5 -290.5q0 -181 -111 -317t-299 -171l336 -563h-74l-332 555q-14 -2 -45 -2h-362l-58 -553h-59zM209 614h352q209 0 337 122.5t128 312.5q0 169 -100 257.5t-283 88.5h-354zM651 1571l154 313h69l-155 -313h-68z" />
    <glyph glyph-name="racute" unicode="&#x155;" horiz-adv-x="688" 
d="M86 0l111 1065h57l-25 -227q50 107 148 177t229 70q31 0 51 -4l-6 -53q-16 4 -37 4q-156 0 -271.5 -114t-133.5 -308v13l-66 -623h-57zM358 1202l154 314h70l-156 -314h-68z" />
    <glyph glyph-name="uni0156" unicode="&#x156;" horiz-adv-x="1169" 
d="M86 0l152 1454h421q206 0 318.5 -112.5t112.5 -290.5q0 -181 -111 -317t-299 -171l336 -563h-74l-332 555q-14 -2 -45 -2h-362l-58 -553h-59zM209 614h352q209 0 337 122.5t128 312.5q0 169 -100 257.5t-283 88.5h-354zM336 -449l170 377h61l-172 -377h-59z" />
    <glyph glyph-name="uni0157" unicode="&#x157;" horiz-adv-x="688" 
d="M86 0l111 1065h57l-25 -227q50 107 148 177t229 70q31 0 51 -4l-6 -53q-16 4 -37 4q-156 0 -271.5 -114t-133.5 -308v13l-66 -623h-57zM-92 -449l170 377h61l-172 -377h-59z" />
    <glyph glyph-name="Rcaron" unicode="&#x158;" horiz-adv-x="1169" 
d="M86 0l152 1454h421q206 0 318.5 -112.5t112.5 -290.5q0 -181 -111 -317t-299 -171l336 -563h-74l-332 555q-14 -2 -45 -2h-362l-58 -553h-59zM209 614h352q209 0 337 122.5t128 312.5q0 169 -100 257.5t-283 88.5h-354zM494 1843l47 41l155 -215l205 215l49 -41
l-229 -241h-45z" />
    <glyph glyph-name="rcaron" unicode="&#x159;" horiz-adv-x="688" 
d="M86 0l111 1065h57l-25 -227q50 107 148 177t229 70q31 0 51 -4l-6 -53q-16 4 -37 4q-156 0 -271.5 -114t-133.5 -308v13l-66 -623h-57zM201 1475l47 41l155 -216l205 216l49 -41l-229 -242h-45z" />
    <glyph glyph-name="Sacute" unicode="&#x15a;" horiz-adv-x="1073" 
d="M508 -20q-178 0 -299 98t-141 260l55 20q23 -151 127.5 -235t259.5 -84q169 0 283 95.5t114 256.5q0 55 -16 100t-40.5 76.5t-66 61t-79.5 48.5t-95 42l-125 51q-272 115 -272 346q0 157 117.5 258t290.5 101q159 0 262.5 -85.5t128.5 -211.5l-51 -21
q-32 119 -117.5 188.5t-222.5 69.5q-150 0 -249.5 -81.5t-99.5 -215.5q0 -194 230 -291l106 -45q70 -29 113.5 -50.5t95.5 -56.5t81 -71t49 -89.5t20 -117.5q0 -184 -132 -300.5t-327 -116.5zM602 1591l154 314h69l-155 -314h-68z" />
    <glyph glyph-name="sacute" unicode="&#x15b;" horiz-adv-x="849" 
d="M381 -20q-140 0 -230 76t-102 200l62 14q14 -113 91 -170t183 -57q53 0 102.5 14t91.5 41.5t67.5 75t25.5 107.5q0 87 -53.5 138.5t-174.5 106.5l-57 29q-221 100 -221 272q0 114 84 186t213 72q111 0 188.5 -54.5t104.5 -147.5l-54 -21q-64 160 -239 160
q-103 0 -167.5 -50t-64.5 -145q0 -72 43.5 -124t137.5 -95l43 -20q148 -67 213 -133.5t65 -171.5q0 -138 -101 -220.5t-251 -82.5zM453 1202l153 314h70l-156 -314h-67z" />
    <glyph glyph-name="Scircumflex" unicode="&#x15c;" horiz-adv-x="1073" 
d="M508 -20q-178 0 -299 98t-141 260l55 20q23 -151 127.5 -235t259.5 -84q169 0 283 95.5t114 256.5q0 55 -16 100t-40.5 76.5t-66 61t-79.5 48.5t-95 42l-125 51q-272 115 -272 346q0 157 117.5 258t290.5 101q159 0 262.5 -85.5t128.5 -211.5l-51 -21
q-32 119 -117.5 188.5t-222.5 69.5q-150 0 -249.5 -81.5t-99.5 -215.5q0 -194 230 -291l106 -45q70 -29 113.5 -50.5t95.5 -56.5t81 -71t49 -89.5t20 -117.5q0 -184 -132 -300.5t-327 -116.5zM424 1661l229 244h45l183 -244l-47 -39l-156 213l-205 -213z" />
    <glyph glyph-name="scircumflex" unicode="&#x15d;" horiz-adv-x="849" 
d="M381 -20q-140 0 -230 76t-102 200l62 14q14 -113 91 -170t183 -57q53 0 102.5 14t91.5 41.5t67.5 75t25.5 107.5q0 87 -53.5 138.5t-174.5 106.5l-57 29q-221 100 -221 272q0 114 84 186t213 72q111 0 188.5 -54.5t104.5 -147.5l-54 -21q-64 160 -239 160
q-103 0 -167.5 -50t-64.5 -145q0 -72 43.5 -124t137.5 -95l43 -20q148 -67 213 -133.5t65 -171.5q0 -138 -101 -220.5t-251 -82.5zM274 1272l230 244h45l182 -244l-47 -39l-156 213l-204 -213z" />
    <glyph glyph-name="Scedilla" unicode="&#x15e;" horiz-adv-x="1073" 
d="M508 -20h-6l-58 -74q64 2 108 -37.5t44 -108.5q0 -95 -78.5 -144.5t-191.5 -35.5l8 64q51 -2 91 6.5t68.5 35t28.5 70.5q0 102 -141 84l-31 39l82 105q-149 22 -247 116.5t-117 237.5l55 20q23 -151 127.5 -235t259.5 -84q169 0 283 95.5t114 256.5q0 55 -16 100
t-40.5 76.5t-66 61t-79.5 48.5t-95 42l-125 51q-272 115 -272 346q0 157 117.5 258t290.5 101q159 0 262.5 -85.5t128.5 -211.5l-51 -21q-32 119 -117.5 188.5t-222.5 69.5q-150 0 -249.5 -81.5t-99.5 -215.5q0 -194 230 -291l106 -45q70 -29 113.5 -50.5t95.5 -56.5t81 -71
t49 -89.5t20 -117.5q0 -184 -132 -300.5t-327 -116.5z" />
    <glyph glyph-name="scedilla" unicode="&#x15f;" horiz-adv-x="849" 
d="M223 -356q51 -2 91.5 6.5t69 35t28.5 70.5q0 50 -36.5 71.5t-105.5 12.5l-30 39l82 105q-116 15 -189 88.5t-84 183.5l62 14q14 -113 91 -170t183 -57q53 0 102.5 14t91.5 41.5t67.5 75t25.5 107.5q0 87 -53.5 138.5t-174.5 106.5l-57 29q-221 100 -221 272q0 114 84 186
t213 72q111 0 188.5 -54.5t104.5 -147.5l-54 -21q-64 160 -239 160q-103 0 -167.5 -50t-64.5 -145q0 -72 43.5 -124t137.5 -95l43 -20q148 -67 213 -133.5t65 -171.5q0 -135 -97.5 -217.5t-244.5 -85.5l-57 -74q64 2 107.5 -37.5t43.5 -108.5q0 -95 -78.5 -144.5
t-191.5 -35.5z" />
    <glyph glyph-name="Scaron" unicode="&#x160;" horiz-adv-x="1073" 
d="M508 -20q-178 0 -299 98t-141 260l55 20q23 -151 127.5 -235t259.5 -84q169 0 283 95.5t114 256.5q0 55 -16 100t-40.5 76.5t-66 61t-79.5 48.5t-95 42l-125 51q-272 115 -272 346q0 157 117.5 258t290.5 101q159 0 262.5 -85.5t128.5 -211.5l-51 -21
q-32 119 -117.5 188.5t-222.5 69.5q-150 0 -249.5 -81.5t-99.5 -215.5q0 -194 230 -291l106 -45q70 -29 113.5 -50.5t95.5 -56.5t81 -71t49 -89.5t20 -117.5q0 -184 -132 -300.5t-327 -116.5zM444 1864l48 41l155 -215l205 215l49 -41l-229 -242h-45z" />
    <glyph glyph-name="scaron" unicode="&#x161;" horiz-adv-x="849" 
d="M381 -20q-140 0 -230 76t-102 200l62 14q14 -113 91 -170t183 -57q53 0 102.5 14t91.5 41.5t67.5 75t25.5 107.5q0 87 -53.5 138.5t-174.5 106.5l-57 29q-221 100 -221 272q0 114 84 186t213 72q111 0 188.5 -54.5t104.5 -147.5l-54 -21q-64 160 -239 160
q-103 0 -167.5 -50t-64.5 -145q0 -72 43.5 -124t137.5 -95l43 -20q148 -67 213 -133.5t65 -171.5q0 -138 -101 -220.5t-251 -82.5zM295 1475l47 41l156 -216l204 216l50 -41l-230 -242h-45z" />
    <glyph glyph-name="uni0162" unicode="&#x162;" horiz-adv-x="1087" 
d="M457 0l147 1395h-426l6 59h910l-7 -59h-423l-148 -1395h8l-73 -94q64 2 107.5 -37.5t43.5 -108.5q0 -95 -78.5 -144.5t-191.5 -35.5l8 64q51 -2 91 6.5t68.5 35t28.5 70.5q0 102 -141 84l-31 39l95 121h6z" />
    <glyph glyph-name="uni0163" unicode="&#x163;" horiz-adv-x="579" 
d="M139 1012l6 53h129l29 272h59l-28 -272h201l-5 -53h-202l-90 -862q-4 -56 18 -81.5t72 -25.5q46 0 98 23l-6 -54q-43 -21 -84 -24l-64 -82q64 2 108 -37.5t44 -108.5q0 -95 -78.5 -144.5t-191.5 -35.5l8 64q51 -2 91 6.5t68.5 35t28.5 70.5q0 102 -141 84l-31 39l88 115
q-47 11 -70.5 45t-17.5 90l92 883h-131z" />
    <glyph glyph-name="Tcaron" unicode="&#x164;" horiz-adv-x="1087" 
d="M457 0l147 1395h-426l6 59h910l-7 -59h-423l-148 -1395h-59zM455 1864l47 41l155 -215l205 215l49 -41l-229 -242h-45z" />
    <glyph glyph-name="tcaron" unicode="&#x165;" horiz-adv-x="557" 
d="M319 -12q-73 0 -110.5 36t-30.5 105l92 883h-131l6 53h129l29 272h59l-28 -272h201l-5 -53h-202l-90 -862q-4 -56 18 -81.5t72 -25.5q46 0 98 23l-6 -54q-49 -24 -101 -24zM432 1157l154 313h69l-155 -313h-68z" />
    <glyph glyph-name="Tbar" unicode="&#x166;" horiz-adv-x="1087" 
d="M238 1012l8 61h323l35 322h-426l6 59h910l-7 -59h-423l-35 -322h348l-8 -61h-346l-107 -1012h-59l106 1012h-325z" />
    <glyph glyph-name="tbar" unicode="&#x167;" horiz-adv-x="579" 
d="M119 815l6 55h129l16 142h-131l6 53h129l29 272h59l-28 -272h201l-5 -53h-202l-15 -142h201l-4 -55h-203l-69 -665q-4 -56 18 -81.5t72 -25.5q46 0 98 23l-6 -54q-49 -24 -101 -24q-73 0 -110.5 36t-30.5 105l72 686h-131z" />
    <glyph glyph-name="Utilde" unicode="&#x168;" horiz-adv-x="1259" 
d="M573 -31q-220 0 -341.5 146t-94.5 407l99 932h59l-98 -932q-24 -236 82.5 -363.5t302.5 -127.5q195 0 323 127t154 366l98 930h60l-99 -936q-18 -173 -95.5 -298.5t-193 -188t-256.5 -62.5zM487 1669q10 83 51 122.5t101 39.5q35 0 63 -14t46 -34.5t34.5 -40.5t38.5 -34
t49 -14q39 0 63 28.5t30 73.5h59q-10 -83 -50 -122.5t-98 -39.5q-37 0 -66 14t-47.5 34t-35 39.5t-38.5 33.5t-48 14q-39 0 -63 -28t-29 -72h-60z" />
    <glyph glyph-name="utilde" unicode="&#x169;" horiz-adv-x="1157" 
d="M1071 1065l-110 -1065h-58l23 205q-52 -92 -155 -158.5t-249 -66.5q-90 0 -165.5 28t-131 82.5t-81 143.5t-13.5 204l66 627h57l-64 -625q-23 -200 74 -301.5t262 -101.5q164 0 283.5 101.5t140.5 301.5l64 625h57zM399 1280q10 83 51 122.5t101 39.5q30 0 54.5 -10
t40 -25.5t32 -33t29.5 -33t32.5 -25.5t42.5 -10q39 0 62.5 28t29.5 74h60q-10 -83 -50 -122.5t-98 -39.5q-37 0 -66 14t-47.5 33.5t-35 39.5t-38.5 34t-48 14q-39 0 -63 -28t-29 -72h-60z" />
    <glyph glyph-name="Umacron" unicode="&#x16a;" horiz-adv-x="1259" 
d="M573 -31q-220 0 -341.5 146t-94.5 407l99 932h59l-98 -932q-24 -236 82.5 -363.5t302.5 -127.5q195 0 323 127t154 366l98 930h60l-99 -936q-18 -173 -95.5 -298.5t-193 -188t-256.5 -62.5zM387 1772l6 53h735l-8 -53h-733z" />
    <glyph glyph-name="umacron" unicode="&#x16b;" horiz-adv-x="1157" 
d="M1071 1065l-110 -1065h-58l23 205q-52 -92 -155 -158.5t-249 -66.5q-90 0 -165.5 28t-131 82.5t-81 143.5t-13.5 204l66 627h57l-64 -625q-23 -200 74 -301.5t262 -101.5q164 0 283.5 101.5t140.5 301.5l64 625h57zM299 1382l6 54h735l-8 -54h-733z" />
    <glyph glyph-name="Ubreve" unicode="&#x16c;" horiz-adv-x="1259" 
d="M573 -31q-220 0 -341.5 146t-94.5 407l99 932h59l-98 -932q-24 -236 82.5 -363.5t302.5 -127.5q195 0 323 127t154 366l98 930h60l-99 -936q-18 -173 -95.5 -298.5t-193 -188t-256.5 -62.5zM512 1905h63q-7 -80 38 -137.5t147 -57.5q101 0 155 57t64 138h65
q-5 -50 -24.5 -95t-54 -83.5t-89 -61.5t-122.5 -23q-67 0 -118 23t-79 61t-39.5 84t-5.5 95z" />
    <glyph glyph-name="ubreve" unicode="&#x16d;" horiz-adv-x="1157" 
d="M1071 1065l-110 -1065h-58l23 205q-52 -92 -155 -158.5t-249 -66.5q-90 0 -165.5 28t-131 82.5t-81 143.5t-13.5 204l66 627h57l-64 -625q-23 -200 74 -301.5t262 -101.5q164 0 283.5 101.5t140.5 301.5l64 625h57zM424 1516h63q-7 -80 38 -137.5t147 -57.5q101 0 155 57
t64 138h65q-5 -50 -24.5 -95t-54 -83.5t-89 -61.5t-122.5 -23q-67 0 -118 23t-79 61t-39.5 84t-5.5 95z" />
    <glyph glyph-name="Uring" unicode="&#x16e;" horiz-adv-x="1259" 
d="M573 -31q-220 0 -341.5 146t-94.5 407l99 932h59l-98 -932q-24 -236 82.5 -363.5t302.5 -127.5q195 0 323 127t154 366l98 930h60l-99 -936q-18 -173 -95.5 -298.5t-193 -188t-256.5 -62.5zM606 1763q0 64 48 111t114 47q59 0 98 -39t39 -94q0 -67 -47.5 -113.5
t-114.5 -46.5q-59 0 -98 39t-39 96zM662 1765q0 -36 25 -60t61 -24q41 0 71.5 30t30.5 71q0 36 -25 61t-61 25q-42 0 -72 -30.5t-30 -72.5z" />
    <glyph glyph-name="uring" unicode="&#x16f;" horiz-adv-x="1157" 
d="M1071 1065l-110 -1065h-58l23 205q-52 -92 -155 -158.5t-249 -66.5q-90 0 -165.5 28t-131 82.5t-81 143.5t-13.5 204l66 627h57l-64 -625q-23 -200 74 -301.5t262 -101.5q164 0 283.5 101.5t140.5 301.5l64 625h57zM518 1374q0 64 48 111t114 47q59 0 98 -39t39 -94
q0 -67 -47.5 -113.5t-114.5 -46.5q-59 0 -98 38.5t-39 96.5zM573 1376q0 -36 25 -60t61 -24q41 0 72 30t31 71q0 36 -25 61t-61 25q-42 0 -72.5 -30.5t-30.5 -72.5z" />
    <glyph glyph-name="Uhungarumlaut" unicode="&#x170;" horiz-adv-x="1259" 
d="M573 -31q-220 0 -341.5 146t-94.5 407l99 932h59l-98 -932q-24 -236 82.5 -363.5t302.5 -127.5q195 0 323 127t154 366l98 930h60l-99 -936q-18 -173 -95.5 -298.5t-193 -188t-256.5 -62.5zM555 1591l154 314h69l-155 -314h-68zM797 1591l153 314h70l-156 -314h-67z" />
    <glyph glyph-name="uhungarumlaut" unicode="&#x171;" horiz-adv-x="1157" 
d="M1071 1065l-110 -1065h-58l23 205q-52 -92 -155 -158.5t-249 -66.5q-90 0 -165.5 28t-131 82.5t-81 143.5t-13.5 204l66 627h57l-64 -625q-23 -200 74 -301.5t262 -101.5q164 0 283.5 101.5t140.5 301.5l64 625h57zM467 1202l154 314h69l-155 -314h-68zM709 1202l153 314
h70l-156 -314h-67z" />
    <glyph glyph-name="Uogonek" unicode="&#x172;" horiz-adv-x="1259" 
d="M618 -406q-32 -16 -70.5 -10.5t-72.5 22.5t-57 55t-23 87q0 133 158 221q-211 8 -327 153.5t-89 399.5l99 932h59l-98 -932q-24 -236 82.5 -363.5t302.5 -127.5q195 0 323 127t154 366l98 930h60l-99 -936q-24 -236 -153 -378.5t-320 -166.5q-84 -31 -131 -85.5
t-47 -123.5q0 -66 46 -99t112 -19z" />
    <glyph glyph-name="uogonek" unicode="&#x173;" horiz-adv-x="1157" 
d="M1071 1065l-110 -1065h2q-124 -22 -199.5 -85.5t-75.5 -150.5q0 -66 46 -99t112 -19l-6 -52q-32 -16 -70.5 -10.5t-73 22.5t-57.5 55t-23 87q0 96 82.5 168.5t204.5 103.5h2l21 185q-52 -92 -155 -158.5t-249 -66.5q-90 0 -165.5 28t-131 82.5t-81 143.5t-13.5 204
l66 627h57l-64 -625q-23 -200 74 -301.5t262 -101.5q164 0 283.5 101.5t140.5 301.5l64 625h57z" />
    <glyph glyph-name="Wcircumflex" unicode="&#x174;" horiz-adv-x="1966" 
d="M442 0l-276 1454h59l256 -1335l572 1335h53l287 -1335l538 1335h64l-584 -1454h-53l-289 1339l-573 -1339h-54zM874 1661l230 244h45l182 -244l-47 -39l-156 213l-204 -213z" />
    <glyph glyph-name="wcircumflex" unicode="&#x175;" horiz-adv-x="1898" 
d="M1305 0l-312 987l-510 -987h-53l-305 1065h63l277 -977l504 977h65l303 -977l480 977h67l-526 -1065h-53zM799 1272l229 244h45l182 -244l-47 -39l-155 213l-205 -213z" />
    <glyph glyph-name="Ycircumflex" unicode="&#x176;" horiz-adv-x="1234" 
d="M530 0l74 664l-428 790h68l393 -735l543 735h71l-587 -790l-74 -664h-60zM506 1661l229 244h45l183 -244l-48 -39l-155 213l-205 -213z" />
    <glyph glyph-name="ycircumflex" unicode="&#x177;" horiz-adv-x="1105" 
d="M250 -389l217 407l-342 1047h63l320 -977l516 977h68l-777 -1454h-65zM389 1272l229 244h46l182 -244l-47 -39l-156 213l-205 -213z" />
    <glyph glyph-name="Ydieresis" unicode="&#x178;" horiz-adv-x="1234" 
d="M530 0l74 664l-428 790h68l393 -735l543 735h71l-587 -790l-74 -664h-60zM510 1772l6 65h62l-5 -65h-63zM874 1772l7 65h61l-4 -65h-64z" />
    <glyph glyph-name="Zacute" unicode="&#x179;" horiz-adv-x="1181" 
d="M25 0l1054 1395h-860l6 59h973l-1057 -1395h901l-6 -59h-1011zM655 1591l154 314h70l-156 -314h-68z" />
    <glyph glyph-name="zacute" unicode="&#x17a;" horiz-adv-x="1034" 
d="M14 0l885 1010h-717l6 55h834l-887 -1008h770l-6 -57h-885zM557 1202l154 314h69l-155 -314h-68z" />
    <glyph glyph-name="Zdotaccent" unicode="&#x17b;" horiz-adv-x="1181" 
d="M25 0l1054 1395h-860l6 59h973l-1057 -1395h901l-6 -59h-1011zM684 1772l8 65h58l-9 -65h-57z" />
    <glyph glyph-name="zdotaccent" unicode="&#x17c;" horiz-adv-x="1034" 
d="M14 0l885 1010h-717l6 55h834l-887 -1008h770l-6 -57h-885zM586 1382l8 66h57l-8 -66h-57z" />
    <glyph glyph-name="Zcaron" unicode="&#x17d;" horiz-adv-x="1181" 
d="M25 0l1054 1395h-860l6 59h973l-1057 -1395h901l-6 -59h-1011zM498 1864l47 41l155 -215l205 215l49 -41l-229 -242h-45z" />
    <glyph glyph-name="zcaron" unicode="&#x17e;" horiz-adv-x="1034" 
d="M14 0l885 1010h-717l6 55h834l-887 -1008h770l-6 -57h-885zM399 1475l47 41l156 -216l205 216l49 -41l-229 -242h-45z" />
    <glyph glyph-name="uni018F" unicode="&#x18f;" horiz-adv-x="1638" 
d="M723 -20q-137 0 -253 49.5t-197 138.5t-119 223t-19 293h1342q8 47 8 109q0 175 -83.5 313.5t-221.5 212.5t-301 74q-247 0 -447 -156l-35 47q223 170 492 170q178 0 327.5 -81.5t238.5 -231.5t89 -338q0 -166 -67 -319t-178.5 -263t-262.5 -175.5t-313 -65.5zM190 625
q-7 -138 34.5 -250.5t117 -184.5t176 -110.5t215.5 -38.5q169 0 323 77t261 210t147 297h-1274z" />
    <glyph glyph-name="florin" unicode="&#x192;" horiz-adv-x="667" 
d="M-88 -418q-73 0 -137 41l4 53q56 -36 137 -36q176 0 199 208l121 1164h-109l4 53h109l18 172q14 136 87 195t171 59q78 0 139 -41l-6 -51q-64 37 -137 37q-177 0 -197 -209l-16 -162h315l-6 -53h-315l-123 -1174q-7 -71 -32.5 -123t-63 -80t-77.5 -40.5t-85 -12.5z" />
    <glyph glyph-name="Ohorn" unicode="&#x1a0;" horiz-adv-x="1693" 
d="M803 -20q-182 0 -332.5 81t-242 236t-91.5 354q0 166 64 319t171.5 263.5t254.5 176t305 65.5h364q85 0 125 35.5t47 119.5l5 39h65l-4 -51q-11 -91 -69 -147t-144 -56h-102q173 -78 276.5 -237.5t103.5 -374.5q0 -166 -64.5 -319t-172 -263t-254 -175.5t-305.5 -65.5z
M197 653q0 -139 48.5 -255.5t131.5 -194.5t193 -121t233 -43q146 0 282 61t235 163.5t158.5 243.5t59.5 294q0 139 -48.5 255.5t-131.5 194.5t-193 121t-233 43q-146 0 -282 -61t-235 -163.5t-158.5 -243.5t-59.5 -294z" />
    <glyph glyph-name="ohorn" unicode="&#x1a1;" horiz-adv-x="1245" 
d="M672 1026v4h-6q-66 0 -137 -21.5t-140.5 -68t-124.5 -111t-89 -159t-34 -203.5q0 -105 39 -190t102.5 -136.5t139.5 -78.5t156 -27q66 0 137 21.5t140.5 68t124 110.5t88.5 158t34 203q0 96 -32 175t-85.5 131t-119 83t-138.5 41h-55zM84 465q0 169 80.5 312t217 225.5
t296.5 82.5h307q85 0 125 36t47 120l4 39h66l-4 -51q-9 -91 -67.5 -147t-143.5 -56h-101q112 -59 180 -168.5t68 -259.5q0 -168 -80.5 -310.5t-217 -225t-296.5 -82.5q-86 0 -170 31.5t-154.5 90.5t-113.5 153.5t-43 209.5z" />
    <glyph glyph-name="Uhorn" unicode="&#x1af;" horiz-adv-x="1259" 
d="M573 -31q-220 0 -341.5 146t-94.5 407l99 932h59l-98 -932q-24 -236 82.5 -363.5t302.5 -127.5q195 0 323 127t154 366l98 930h105q84 0 123.5 37.5t48.5 122.5l6 55h65l-8 -70q-7 -90 -66.5 -145t-146.5 -55h-74l-92 -881q-18 -173 -95.5 -298.5t-193 -188t-256.5 -62.5
z" />
    <glyph glyph-name="uhorn" unicode="&#x1b0;" horiz-adv-x="1157" 
d="M1110 1065q84 0 123.5 37.5t48.5 122.5l6 55h66l-8 -70q-7 -90 -66.5 -145t-146.5 -55h-68l-104 -1010h-58l23 205q-52 -92 -155 -158.5t-249 -66.5q-90 0 -165.5 28t-131 82.5t-81 143.5t-13.5 204l66 627h57l-64 -625q-23 -200 74 -301.5t262 -101.5q164 0 283.5 101.5
t140.5 301.5l64 625h96z" />
    <glyph glyph-name="uni01CD" unicode="&#x1cd;" horiz-adv-x="1351" 
d="M795 1454l432 -1454h-64l-123 418h-749l-209 -418h-68l734 1454h47zM322 477h702l-260 885zM586 1843l47 41l155 -215l205 215l49 -41l-229 -241h-45z" />
    <glyph glyph-name="uni01CE" unicode="&#x1ce;" 
d="M580 -20q-98 0 -185.5 31.5t-156.5 91.5t-109.5 156t-40.5 216q0 128 45.5 241t123 194t185.5 128t228 47q160 0 282.5 -78t165.5 -208h6l29 266h57l-110 -1065h-58l27 266h-6q-75 -133 -201 -209.5t-282 -76.5zM147 477q0 -209 123.5 -324.5t309.5 -115.5
q147 0 268.5 74.5t189.5 200.5t68 276q0 106 -34 191t-93.5 138.5t-137 82t-167.5 28.5q-148 0 -269.5 -74.5t-189.5 -200.5t-68 -276zM518 1475l47 41l156 -216l205 216l49 -41l-230 -242h-45z" />
    <glyph glyph-name="uni01CF" unicode="&#x1cf;" horiz-adv-x="342" 
d="M86 0l154 1454h59l-154 -1454h-59zM84 1864l47 41l156 -215l205 215l49 -41l-230 -242h-45z" />
    <glyph glyph-name="uni01D0" unicode="&#x1d0;" horiz-adv-x="339" 
d="M86 0l113 1065h57l-113 -1065h-57zM43 1475l47 41l156 -216l205 216l49 -41l-230 -242h-45z" />
    <glyph glyph-name="uni01D1" unicode="&#x1d1;" horiz-adv-x="1693" 
d="M803 -20q-182 0 -332.5 81t-242 236t-91.5 354q0 166 64 319t171.5 263.5t254.5 176t305 65.5q135 0 256.5 -48t212.5 -133.5t144.5 -213t53.5 -277.5q0 -166 -64.5 -319t-172 -263t-254 -175.5t-305.5 -65.5zM197 653q0 -139 48.5 -255.5t131.5 -194.5t193 -121t233 -43
q146 0 282 61t235 163.5t158.5 243.5t59.5 294q0 139 -48.5 255.5t-131.5 194.5t-193 121t-233 43q-146 0 -282 -61t-235 -163.5t-158.5 -243.5t-59.5 -294zM758 1864l47 41l156 -215l204 215l49 -41l-229 -242h-45z" />
    <glyph glyph-name="uni01D2" unicode="&#x1d2;" horiz-adv-x="1245" 
d="M565 -20q-86 0 -170 31.5t-154.5 90.5t-113.5 153.5t-43 209.5q0 169 80.5 312t217 225.5t296.5 82.5q86 0 170 -31.5t154.5 -90.5t113.5 -154t43 -211q0 -168 -80.5 -310.5t-217 -225t-296.5 -82.5zM141 467q0 -105 39 -190t102.5 -136.5t139.5 -78.5t156 -27
q66 0 137 21.5t140.5 68t124 110.5t88.5 158t34 203q0 86 -25.5 158.5t-68.5 122.5t-99.5 85t-118 51.5t-124.5 16.5q-66 0 -137 -21.5t-140.5 -68t-124.5 -111t-89 -159t-34 -203.5zM494 1475l47 41l155 -216l205 216l49 -41l-229 -242h-45z" />
    <glyph glyph-name="uni01D3" unicode="&#x1d3;" horiz-adv-x="1259" 
d="M573 -31q-220 0 -341.5 146t-94.5 407l99 932h59l-98 -932q-24 -236 82.5 -363.5t302.5 -127.5q195 0 323 127t154 366l98 930h60l-99 -936q-18 -173 -95.5 -298.5t-193 -188t-256.5 -62.5zM537 1864l47 41l155 -215l205 215l49 -41l-229 -242h-45z" />
    <glyph glyph-name="uni01D4" unicode="&#x1d4;" horiz-adv-x="1157" 
d="M1071 1065l-110 -1065h-58l23 205q-52 -92 -155 -158.5t-249 -66.5q-90 0 -165.5 28t-131 82.5t-81 143.5t-13.5 204l66 627h57l-64 -625q-23 -200 74 -301.5t262 -101.5q164 0 283.5 101.5t140.5 301.5l64 625h57zM449 1475l47 41l155 -216l205 216l49 -41l-229 -242
h-45z" />
    <glyph glyph-name="uni01D5" unicode="&#x1d5;" horiz-adv-x="1259" 
d="M573 -31q-220 0 -341.5 146t-94.5 407l99 932h59l-98 -932q-24 -236 82.5 -363.5t302.5 -127.5q195 0 323 127t154 366l98 930h60l-99 -936q-18 -173 -95.5 -298.5t-193 -188t-256.5 -62.5zM395 2114l6 53h736l-9 -53h-733zM520 1772l6 65h62l-4 -65h-64zM885 1772l6 65
h61l-4 -65h-63z" />
    <glyph glyph-name="uni01D6" unicode="&#x1d6;" horiz-adv-x="1157" 
d="M1071 1065l-110 -1065h-58l23 205q-52 -92 -155 -158.5t-249 -66.5q-90 0 -165.5 28t-131 82.5t-81 143.5t-13.5 204l66 627h57l-64 -625q-23 -200 74 -301.5t262 -101.5q164 0 283.5 101.5t140.5 301.5l64 625h57zM307 1724l6 54h736l-9 -54h-733zM432 1382l6 66h62
l-4 -66h-64zM797 1382l6 66h61l-4 -66h-63z" />
    <glyph glyph-name="uni01D7" unicode="&#x1d7;" horiz-adv-x="1259" 
d="M573 -31q-220 0 -341.5 146t-94.5 407l99 932h59l-98 -932q-24 -236 82.5 -363.5t302.5 -127.5q195 0 323 127t154 366l98 930h60l-99 -936q-18 -173 -95.5 -298.5t-193 -188t-256.5 -62.5zM520 1772l6 65h62l-4 -65h-64zM705 1933l153 314h70l-156 -314h-67zM885 1772
l6 65h61l-4 -65h-63z" />
    <glyph glyph-name="uni01D8" unicode="&#x1d8;" horiz-adv-x="1157" 
d="M1071 1065l-110 -1065h-58l23 205q-52 -92 -155 -158.5t-249 -66.5q-90 0 -165.5 28t-131 82.5t-81 143.5t-13.5 204l66 627h57l-64 -625q-23 -200 74 -301.5t262 -101.5q164 0 283.5 101.5t140.5 301.5l64 625h57zM432 1382l6 66h62l-4 -66h-64zM616 1544l154 314h70
l-156 -314h-68zM797 1382l6 66h61l-4 -66h-63z" />
    <glyph glyph-name="uni01D9" unicode="&#x1d9;" horiz-adv-x="1259" 
d="M573 -31q-220 0 -341.5 146t-94.5 407l99 932h59l-98 -932q-24 -236 82.5 -363.5t302.5 -127.5q195 0 323 127t154 366l98 930h60l-99 -936q-18 -173 -95.5 -298.5t-193 -188t-256.5 -62.5zM520 1772l6 65h62l-4 -65h-64zM547 2206l47 41l156 -215l204 215l50 -41
l-230 -242h-45zM885 1772l6 65h61l-4 -65h-63z" />
    <glyph glyph-name="uni01DA" unicode="&#x1da;" horiz-adv-x="1157" 
d="M1071 1065l-110 -1065h-58l23 205q-52 -92 -155 -158.5t-249 -66.5q-90 0 -165.5 28t-131 82.5t-81 143.5t-13.5 204l66 627h57l-64 -625q-23 -200 74 -301.5t262 -101.5q164 0 283.5 101.5t140.5 301.5l64 625h57zM432 1382l6 66h62l-4 -66h-64zM459 1817l47 41
l156 -216l204 216l49 -41l-229 -242h-45zM797 1382l6 66h61l-4 -66h-63z" />
    <glyph glyph-name="uni01DB" unicode="&#x1db;" horiz-adv-x="1259" 
d="M573 -31q-220 0 -341.5 146t-94.5 407l99 932h59l-98 -932q-24 -236 82.5 -363.5t302.5 -127.5q195 0 323 127t154 366l98 930h60l-99 -936q-18 -173 -95.5 -298.5t-193 -188t-256.5 -62.5zM520 1772l6 65h62l-4 -65h-64zM520 2247h70l153 -314h-69zM885 1772l6 65h61
l-4 -65h-63z" />
    <glyph glyph-name="uni01DC" unicode="&#x1dc;" horiz-adv-x="1157" 
d="M1071 1065l-110 -1065h-58l23 205q-52 -92 -155 -158.5t-249 -66.5q-90 0 -165.5 28t-131 82.5t-81 143.5t-13.5 204l66 627h57l-64 -625q-23 -200 74 -301.5t262 -101.5q164 0 283.5 101.5t140.5 301.5l64 625h57zM432 1382l6 66h62l-4 -66h-64zM432 1858h70l153 -314
h-69zM797 1382l6 66h61l-4 -66h-63z" />
    <glyph glyph-name="uni01DE" unicode="&#x1de;" horiz-adv-x="1351" 
d="M795 1454l432 -1454h-64l-123 418h-749l-209 -418h-68l734 1454h47zM322 477h702l-260 885zM444 2093l7 53h735l-8 -53h-734zM567 1751l6 66h62l-4 -66h-64zM932 1751l6 66h61l-4 -66h-63z" />
    <glyph glyph-name="uni01DF" unicode="&#x1df;" 
d="M580 -20q-98 0 -185.5 31.5t-156.5 91.5t-109.5 156t-40.5 216q0 128 45.5 241t123 194t185.5 128t228 47q160 0 282.5 -78t165.5 -208h6l29 266h57l-110 -1065h-58l27 266h-6q-75 -133 -201 -209.5t-282 -76.5zM147 477q0 -209 123.5 -324.5t309.5 -115.5
q147 0 268.5 74.5t189.5 200.5t68 276q0 106 -34 191t-93.5 138.5t-137 82t-167.5 28.5q-148 0 -269.5 -74.5t-189.5 -200.5t-68 -276zM377 1724l6 54h735l-8 -54h-733zM500 1382l6 66h61l-4 -66h-63zM864 1382l6 66h62l-4 -66h-64z" />
    <glyph glyph-name="Gcaron" unicode="&#x1e6;" horiz-adv-x="1644" 
d="M791 -20q-186 0 -335 84t-234 237.5t-85 349.5q0 170 65.5 323t176 262.5t262 174t317.5 64.5q65 0 128.5 -11t135 -37t136 -78t110.5 -126l-49 -37q-42 69 -102.5 117t-126.5 70.5t-122 31t-114 8.5q-204 0 -378 -101.5t-276.5 -277.5t-102.5 -385q0 -136 46.5 -251
t127 -193.5t191.5 -122t239 -43.5q118 0 228 39t201.5 112t157 187.5t89.5 257.5h-486l10 59h541q-15 -163 -82 -299t-168.5 -226t-230.5 -139.5t-270 -49.5zM735 1864l47 41l156 -215l205 215l49 -41l-229 -242h-45z" />
    <glyph glyph-name="gcaron" unicode="&#x1e7;" 
d="M549 -426q-111 0 -196 25.5t-117 54.5l8 61q104 -84 299 -84q69 0 133 12t128.5 42.5t114 77t85 121t45.5 169.5l20 213h-6q-74 -135 -200.5 -210.5t-282.5 -75.5q-100 0 -188 32t-156 92.5t-108 156.5t-40 216q0 126 44.5 239t122 194t186 128t231.5 47q161 0 282 -77.5
t164 -208.5h6l29 266h57l-106 -1028q-11 -99 -48 -179t-90 -132t-122.5 -87t-142.5 -50t-152 -15zM147 473q0 -107 35.5 -192t96.5 -137.5t138 -79.5t165 -27q148 0 269 74.5t188 201t67 277.5q0 107 -36 192.5t-97 138t-138.5 80t-164.5 27.5q-148 0 -268 -74t-187.5 -201
t-67.5 -280zM518 1475l47 41l156 -216l205 216l49 -41l-230 -242h-45z" />
    <glyph glyph-name="uni01E8" unicode="&#x1e8;" horiz-adv-x="1230" 
d="M86 0l152 1454h59l-96 -932l929 932h87l-699 -692l590 -762h-76l-553 723l-289 -287l-45 -436h-59zM528 1864l47 41l156 -215l205 215l49 -41l-229 -242h-45z" />
    <glyph glyph-name="uni01E9" unicode="&#x1e9;" horiz-adv-x="1036" 
d="M86 0l152 1454h57l-111 -1069l688 680h84l-489 -479l446 -586h-73l-412 547l-254 -248l-31 -299h-57zM78 1864l47 41l156 -215l204 215l50 -41l-230 -242h-45z" />
    <glyph glyph-name="uni0218" unicode="&#x218;" horiz-adv-x="1073" 
d="M508 -20q-178 0 -299 98t-141 260l55 20q23 -151 127.5 -235t259.5 -84q169 0 283 95.5t114 256.5q0 55 -16 100t-40.5 76.5t-66 61t-79.5 48.5t-95 42l-125 51q-272 115 -272 346q0 157 117.5 258t290.5 101q159 0 262.5 -85.5t128.5 -211.5l-51 -21
q-32 119 -117.5 188.5t-222.5 69.5q-150 0 -249.5 -81.5t-99.5 -215.5q0 -194 230 -291l106 -45q70 -29 113.5 -50.5t95.5 -56.5t81 -71t49 -89.5t20 -117.5q0 -184 -132 -300.5t-327 -116.5zM287 -449l170 377h61l-172 -377h-59z" />
    <glyph glyph-name="uni0219" unicode="&#x219;" horiz-adv-x="849" 
d="M381 -20q-140 0 -230 76t-102 200l62 14q14 -113 91 -170t183 -57q53 0 102.5 14t91.5 41.5t67.5 75t25.5 107.5q0 87 -53.5 138.5t-174.5 106.5l-57 29q-221 100 -221 272q0 114 84 186t213 72q111 0 188.5 -54.5t104.5 -147.5l-54 -21q-64 160 -239 160
q-103 0 -167.5 -50t-64.5 -145q0 -72 43.5 -124t137.5 -95l43 -20q148 -67 213 -133.5t65 -171.5q0 -138 -101 -220.5t-251 -82.5zM176 -449l170 377h62l-172 -377h-60z" />
    <glyph glyph-name="uni021A" unicode="&#x21a;" horiz-adv-x="1087" 
d="M457 0l147 1395h-426l6 59h910l-7 -59h-423l-148 -1395h-59zM293 -449l170 377h61l-172 -377h-59z" />
    <glyph glyph-name="uni021B" unicode="&#x21b;" horiz-adv-x="579" 
d="M319 -12q-73 0 -110.5 36t-30.5 105l92 883h-131l6 53h129l29 272h59l-28 -272h201l-5 -53h-202l-90 -862q-4 -56 18 -81.5t72 -25.5q46 0 98 23l-6 -54q-49 -24 -101 -24zM115 -449l170 377h61l-172 -377h-59z" />
    <glyph glyph-name="uni0237" unicode="&#x237;" horiz-adv-x="339" 
d="M-283 -395l7 55h32q68 0 119 13.5t96 47t73 96t38 154.5l115 1094h59l-117 -1092q-9 -89 -35 -155.5t-61.5 -106.5t-86 -64.5t-101 -33t-113.5 -8.5h-25z" />
    <glyph glyph-name="uni0259" unicode="&#x259;" horiz-adv-x="1202" 
d="M627 1085q100 0 187.5 -31.5t154.5 -91.5t106 -155t39 -213q0 -168 -75 -309t-207 -223t-291 -82q-105 0 -195.5 37.5t-155.5 107.5t-92.5 180.5t-5.5 245.5h961v35q0 106 -34.5 191t-94.5 138.5t-138.5 82t-169.5 28.5q-113 0 -212.5 -43t-165.5 -121l-43 37
q82 93 195 139.5t237 46.5zM139 494q-10 -105 18.5 -192t85 -144t134 -88t166.5 -31q192 0 332.5 128.5t171.5 326.5h-908z" />
    <glyph glyph-name="uni02BC" unicode="&#x2bc;" horiz-adv-x="321" 
d="M121 1077l170 377h61l-172 -377h-59z" />
    <glyph glyph-name="circumflex" unicode="&#x2c6;" horiz-adv-x="497" 
d="M147 1233l-49 39l230 244h45l182 -244l-47 -39l-156 213z" />
    <glyph glyph-name="caron" unicode="&#x2c7;" horiz-adv-x="497" 
d="M303 1233l-182 242l47 41l156 -216l204 216l50 -41l-230 -242h-45z" />
    <glyph glyph-name="breve" unicode="&#x2d8;" horiz-adv-x="573" 
d="M365 1253q-67 0 -118 23t-79 61t-39.5 84t-5.5 95h63q-7 -80 38 -137.5t147 -57.5q101 0 155 57t64 138h65q-5 -50 -24.5 -95t-54 -83.5t-89 -61.5t-122.5 -23z" />
    <glyph glyph-name="dotaccent" unicode="&#x2d9;" horiz-adv-x="102" 
d="M111 1382l8 66h57l-8 -66h-57z" />
    <glyph glyph-name="ring" unicode="&#x2da;" horiz-adv-x="339" 
d="M248 1239q-60 0 -98.5 38.5t-38.5 96.5q0 65 47.5 111.5t113.5 46.5q59 0 98.5 -39t39.5 -94q0 -67 -47.5 -113.5t-114.5 -46.5zM166 1376q0 -36 25 -60t61 -24q41 0 71.5 30t30.5 71q0 36 -25 61t-61 25q-42 0 -72 -30.5t-30 -72.5z" />
    <glyph glyph-name="ogonek" unicode="&#x2db;" horiz-adv-x="319" 
d="M141 -406q-31 -16 -70 -10.5t-73 22.5t-57 55t-23 87q0 96 82.5 168.5t204.5 103.5l59 -20q-124 -22 -199 -85.5t-75 -150.5q0 -66 45.5 -99t111.5 -19z" />
    <glyph glyph-name="tilde" unicode="&#x2dc;" horiz-adv-x="561" 
d="M485 1245q-37 0 -66 14t-47.5 33.5t-35 39.5t-38.5 34t-48 14q-39 0 -63 -28t-29 -72h-60q10 83 51 122.5t101 39.5q30 0 54.5 -10t40 -25.5t32 -33t29.5 -33t32.5 -25.5t42.5 -10q39 0 62.5 28t29.5 74h60q-10 -83 -50 -122.5t-98 -39.5z" />
    <glyph glyph-name="hungarumlaut" unicode="&#x2dd;" horiz-adv-x="471" 
d="M332 1202l153 314h70l-156 -314h-67zM90 1202l154 314h69l-155 -314h-68z" />
    <glyph glyph-name="gravecomb" unicode="&#x300;" horiz-adv-x="0" 
d="M276 1202l-153 314h70l153 -314h-70z" />
    <glyph glyph-name="acutecomb" unicode="&#x301;" horiz-adv-x="0" 
d="M90 1202l154 314h69l-155 -314h-68z" />
    <glyph glyph-name="uni0302" unicode="&#x302;" horiz-adv-x="0" 
d="M147 1233l-49 39l230 244h45l182 -244l-47 -39l-156 213z" />
    <glyph glyph-name="tildecomb" unicode="&#x303;" horiz-adv-x="0" 
d="M485 1245q-37 0 -66 14t-47.5 33.5t-35 39.5t-38.5 34t-48 14q-39 0 -63 -28t-29 -72h-60q10 83 51 122.5t101 39.5q30 0 54.5 -10t40 -25.5t32 -33t29.5 -33t32.5 -25.5t42.5 -10q39 0 62.5 28t29.5 74h60q-10 -83 -50 -122.5t-98 -39.5z" />
    <glyph glyph-name="uni0304" unicode="&#x304;" horiz-adv-x="0" 
d="M111 1382l6 54h735l-8 -54h-733z" />
    <glyph glyph-name="uni0306" unicode="&#x306;" horiz-adv-x="0" 
d="M365 1253q-67 0 -118 23t-79 61t-39.5 84t-5.5 95h63q-7 -80 38 -137.5t147 -57.5q101 0 155 57t64 138h65q-5 -50 -24.5 -95t-54 -83.5t-89 -61.5t-122.5 -23z" />
    <glyph glyph-name="uni0307" unicode="&#x307;" horiz-adv-x="0" 
d="M111 1382l8 66h57l-8 -66h-57z" />
    <glyph glyph-name="uni0308" unicode="&#x308;" horiz-adv-x="0" 
d="M475 1382l6 66h62l-4 -66h-64zM111 1382l6 66h61l-4 -66h-63z" />
    <glyph glyph-name="hookabovecomb" unicode="&#x309;" horiz-adv-x="0" 
d="M238 1241l6 57h43q46 0 78 29t32 68q0 33 -21.5 55.5t-56.5 22.5q-42 0 -73 -39l-43 34q43 64 123 64q61 0 98 -36.5t37 -92.5q0 -67 -50 -114.5t-118 -47.5h-55z" />
    <glyph glyph-name="uni030A" unicode="&#x30a;" horiz-adv-x="0" 
d="M248 1239q-60 0 -98.5 38.5t-38.5 96.5q0 65 47.5 111.5t113.5 46.5q59 0 98.5 -39t39.5 -94q0 -67 -47.5 -113.5t-114.5 -46.5zM166 1376q0 -36 25 -60t61 -24q41 0 71.5 30t30.5 71q0 36 -25 61t-61 25q-42 0 -72 -30.5t-30 -72.5z" />
    <glyph glyph-name="uni030B" unicode="&#x30b;" horiz-adv-x="0" 
d="M332 1202l153 314h70l-156 -314h-67zM90 1202l154 314h69l-155 -314h-68z" />
    <glyph glyph-name="uni030C" unicode="&#x30c;" horiz-adv-x="0" 
d="M303 1233l-182 242l47 41l156 -216l204 216l50 -41l-230 -242h-45z" />
    <glyph glyph-name="uni0312" unicode="&#x312;" horiz-adv-x="0" 
d="M90 1202l154 314h69l-155 -314h-68z" />
    <glyph glyph-name="uni031B" unicode="&#x31b;" horiz-adv-x="0" 
d="M158 1065l8 55h90q84 0 123.5 37.5t48.5 122.5l6 55h66l-8 -69q-7 -90 -66.5 -145.5t-146.5 -55.5h-121z" />
    <glyph glyph-name="dotbelowcomb" unicode="&#x323;" horiz-adv-x="0" 
d="M18 -258l11 86h84l-11 -86h-84z" />
    <glyph glyph-name="uni0326" unicode="&#x326;" horiz-adv-x="0" 
d="M-78 -449l170 377h62l-172 -377h-60z" />
    <glyph glyph-name="uni0327" unicode="&#x327;" horiz-adv-x="0" 
d="M-66 -356q51 -2 91.5 6.5t69 35t28.5 70.5q0 102 -141 84l-31 39l94 121h74l-74 -94q64 2 108 -37.5t44 -108.5q0 -94 -79 -144t-192 -36z" />
    <glyph glyph-name="uni0328" unicode="&#x328;" horiz-adv-x="0" 
d="M141 -406q-31 -16 -70 -10.5t-73 22.5t-57 55t-23 87q0 96 82.5 168.5t204.5 103.5l59 -20q-124 -22 -199 -85.5t-75 -150.5q0 -66 45.5 -99t111.5 -19z" />
    <glyph glyph-name="uni0394" unicode="&#x394;" horiz-adv-x="1501" 
d="M-10 0l784 1434h33l479 -1434h-1296zM88 57h1110l-420 1258z" />
    <glyph glyph-name="uni03A9" unicode="&#x3a9;" horiz-adv-x="1660" 
d="M113 0l6 57h360v45q-382 248 -340 631q13 122 63.5 234t128.5 198t174 150.5t204 98.5t215 34q135 0 258 -54.5t212.5 -147.5t136.5 -229t32 -288q-44 -384 -471 -629l-17 -43h363l-6 -57h-375l18 152l103 75q297 207 325 506q12 113 -14 217.5t-81 184.5t-131 140.5
t-167.5 92t-185.5 31.5q-96 0 -195 -32t-188 -92.5t-162 -141t-121 -185.5t-61 -219q-18 -155 40.5 -283t176.5 -223l94 -71l-19 -152h-376z" />
    <glyph glyph-name="uni03BC" unicode="&#x3bc;" horiz-adv-x="1171" 
d="M45 -389l154 1454h57l-66 -633q-11 -97 8.5 -173t63 -123t104 -71t134.5 -24q81 0 159.5 34t137.5 88.5t102 119.5t62 131l67 651h59l-112 -1065h-60l31 291q-9 -29 -33 -66.5t-65 -80.5t-91 -78t-118.5 -58.5t-140.5 -23.5q-107 0 -194.5 42.5t-141.5 127.5l-60 -543
h-57z" />
    <glyph glyph-name="pi" unicode="&#x3c0;" horiz-adv-x="1273" 
d="M954 -12q-88 0 -124.5 46.5t-24.5 160.5l86 815h-531l-106 -1010h-59l106 1010h-205l6 55h1057l-6 -55h-203l-90 -854q-7 -68 9.5 -89.5t62.5 -21.5q71 0 143 35v-55q-4 -2 -15.5 -7.5t-14.5 -6.5t-12.5 -5.5t-13 -5.5t-11.5 -4t-13 -3.5t-12.5 -2t-14 -2t-14.5 -0.5z
" />
    <glyph glyph-name="uni0400" unicode="&#x400;" horiz-adv-x="999" 
d="M86 0l152 1454h731l-6 -59h-672l-66 -635h578l-6 -60h-578l-67 -641h690l-6 -59h-750zM393 1905h70l153 -314h-69z" />
    <glyph glyph-name="uni0401" unicode="&#x401;" horiz-adv-x="999" 
d="M86 0l152 1454h731l-6 -59h-672l-66 -635h578l-6 -60h-578l-67 -641h690l-6 -59h-750zM401 1772l7 65h61l-4 -65h-64zM766 1772l6 65h62l-5 -65h-63z" />
    <glyph glyph-name="uni0403" unicode="&#x403;" horiz-adv-x="1017" 
d="M86 0l154 1454h774l-6 -59h-715l-148 -1395h-59zM610 1591l154 314h70l-156 -314h-68z" />
    <glyph glyph-name="uni0404" unicode="&#x404;" horiz-adv-x="1497" 
d="M807 -20q-190 0 -342 83.5t-240 237.5t-88 352q0 167 66 320t177 262.5t261.5 174.5t312.5 65q65 0 129.5 -11t136 -37t137 -78t111.5 -126l-51 -37q-41 69 -101 117.5t-127 71t-123.5 31.5t-115.5 9q-140 0 -269 -51t-227.5 -139t-165 -210.5t-85.5 -260.5l479 2l-6 -56
l-477 -2q-2 -16 -2 -47q0 -183 82 -323.5t222.5 -214.5t315.5 -74q58 0 115 9t127.5 31.5t139.5 71t124 117.5l43 -37q-62 -74 -137 -126t-150.5 -78t-140.5 -36.5t-131 -10.5z" />
    <glyph glyph-name="uni0405" unicode="&#x405;" horiz-adv-x="1073" 
d="M508 -20q-178 0 -299 98t-141 260l55 20q23 -151 127.5 -235t259.5 -84q169 0 283 95.5t114 256.5q0 55 -16 100t-40.5 76.5t-66 61t-79.5 48.5t-95 42l-125 51q-272 115 -272 346q0 157 117.5 258t290.5 101q159 0 262.5 -85.5t128.5 -211.5l-51 -21
q-32 119 -117.5 188.5t-222.5 69.5q-150 0 -249.5 -81.5t-99.5 -215.5q0 -194 230 -291l106 -45q70 -29 113.5 -50.5t95.5 -56.5t81 -71t49 -89.5t20 -117.5q0 -184 -132 -300.5t-327 -116.5z" />
    <glyph glyph-name="uni0406" unicode="&#x406;" horiz-adv-x="342" 
d="M86 0l154 1454h59l-154 -1454h-59z" />
    <glyph glyph-name="uni0407" unicode="&#x407;" horiz-adv-x="342" 
d="M86 0l154 1454h59l-154 -1454h-59zM66 1772l6 65h61l-4 -65h-63zM430 1772l6 65h62l-4 -65h-64z" />
    <glyph glyph-name="uni0408" unicode="&#x408;" horiz-adv-x="913" 
d="M346 -20q-109 0 -190.5 44.5t-116.5 122.5l43 37q84 -147 266 -147q154 0 242.5 93.5t107.5 262.5l113 1061h59l-110 -1061q-21 -205 -134 -309t-280 -104z" />
    <glyph glyph-name="uni040C" unicode="&#x40c;" horiz-adv-x="1230" 
d="M86 0l152 1454h59l-96 -932l929 932h87l-699 -692l590 -762h-76l-553 723l-289 -287l-45 -436h-59zM676 1591l153 314h70l-156 -314h-67z" />
    <glyph glyph-name="uni040D" unicode="&#x40d;" horiz-adv-x="1392" 
d="M86 0l154 1454h59l-143 -1354l1136 1354h56l-154 -1454h-59l143 1350l-1137 -1350h-55zM582 1905h69l154 -314h-70z" />
    <glyph glyph-name="uni040E" unicode="&#x40e;" horiz-adv-x="1282" 
d="M291 0l315 481l-430 973h66l399 -917l592 917h67l-944 -1454h-65zM510 1905h63q-7 -80 38 -137.5t147 -57.5q101 0 155 57t64 138h65q-5 -50 -24.5 -95t-54 -83.5t-89 -61.5t-122.5 -23q-67 0 -118 23t-79 61t-39.5 84t-5.5 95z" />
    <glyph glyph-name="uni0410" unicode="&#x410;" horiz-adv-x="1351" 
d="M795 1454l432 -1454h-64l-123 418h-749l-209 -418h-68l734 1454h47zM322 477h702l-260 885z" />
    <glyph glyph-name="uni0411" unicode="&#x411;" horiz-adv-x="1171" 
d="M86 0l154 1454h807l-7 -59h-747l-55 -510h383q217 0 329.5 -110t112.5 -292q0 -100 -35.5 -187.5t-101.5 -153.5t-168 -104t-228 -38h-444zM150 59h380q213 0 344.5 118t131.5 306q0 163 -102.5 251.5t-291.5 88.5h-381z" />
    <glyph glyph-name="uni0412" unicode="&#x412;" horiz-adv-x="1159" 
d="M86 0l152 1454h454q92 0 161.5 -25t110 -68.5t60.5 -97t20 -116.5q0 -115 -66 -209t-210 -137q137 -31 208 -129t71 -238q0 -193 -134.5 -313.5t-394.5 -120.5h-432zM152 57h370q215 0 341 98.5t126 280.5q0 160 -99.5 247t-293.5 87h-371zM229 825h385q162 0 268.5 92
t106.5 232q0 116 -77 182t-230 66h-393z" />
    <glyph glyph-name="uni0413" unicode="&#x413;" horiz-adv-x="1017" 
d="M86 0l154 1454h774l-6 -59h-715l-148 -1395h-59z" />
    <glyph glyph-name="uni0414" unicode="&#x414;" horiz-adv-x="1382" 
d="M80 0l-17 -141h-59l23 200h59q63 77 104.5 227t59 280t51.5 461q3 23 4 34l41 393h926l-146 -1395h134l-25 -200h-59l16 141h-1112zM152 59h915l139 1336h-807l-34 -334q-13 -130 -19.5 -191.5t-18 -165t-19.5 -155t-21 -128t-25.5 -118.5t-29 -93t-36.5 -86.5t-44 -64.5
z" />
    <glyph glyph-name="uni0415" unicode="&#x415;" horiz-adv-x="999" 
d="M86 0l152 1454h731l-6 -59h-672l-66 -635h578l-6 -60h-578l-67 -641h690l-6 -59h-750z" />
    <glyph glyph-name="uni0416" unicode="&#x416;" horiz-adv-x="2125" 
d="M14 0l770 754l-575 700h80l747 -909l94 909h60l-94 -909l938 909h77l-718 -700l610 -754h-78l-575 715l-265 -250l-49 -465h-59l51 465l-209 250l-721 -715h-84z" />
    <glyph glyph-name="uni0417" unicode="&#x417;" horiz-adv-x="1169" 
d="M537 -20q-110 0 -200 34.5t-148.5 93.5t-87 139t-19.5 169h59q-14 -160 98.5 -269.5t305.5 -109.5q124 0 227.5 47.5t166 137t62.5 204.5q0 85 -34.5 148.5t-96.5 101t-141 57t-176 21.5l6 51q120 5 221.5 48t164.5 121t63 175q0 121 -91 194.5t-241 73.5
q-171 0 -286 -99t-132 -274h-59q19 193 150.5 312t328.5 119q174 0 281.5 -90.5t107.5 -237.5q0 -130 -92.5 -225t-245.5 -136q157 -32 244.5 -120t87.5 -234q0 -197 -151 -324.5t-373 -127.5z" />
    <glyph glyph-name="uni0418" unicode="&#x418;" horiz-adv-x="1392" 
d="M86 0l154 1454h59l-143 -1354l1136 1354h56l-154 -1454h-59l143 1350l-1137 -1350h-55z" />
    <glyph glyph-name="uni0419" unicode="&#x419;" horiz-adv-x="1392" 
d="M840 1622q-67 0 -118 23t-79 60.5t-39.5 83.5t-5.5 95h64q-7 -80 37.5 -137t146.5 -57t155.5 56.5t63.5 137.5h65q-5 -50 -24.5 -95t-54 -83t-89 -61t-122.5 -23zM86 0l154 1454h59l-143 -1354l1136 1354h56l-154 -1454h-59l143 1350l-1137 -1350h-55z" />
    <glyph glyph-name="uni041A" unicode="&#x41a;" horiz-adv-x="1230" 
d="M86 0l152 1454h59l-96 -932l929 932h87l-699 -692l590 -762h-76l-553 723l-289 -287l-45 -436h-59z" />
    <glyph glyph-name="uni041B" unicode="&#x41b;" horiz-adv-x="1394" 
d="M113 -12q-70 0 -121 39l6 51q68 -33 115 -33q43 0 68 23t32 82l135 1304h1004l-152 -1454h-59l145 1395h-885l-131 -1278q-6 -62 -52 -95.5t-105 -33.5z" />
    <glyph glyph-name="uni041C" unicode="&#x41c;" horiz-adv-x="1736" 
d="M86 0l154 1454h61l516 -1378l811 1378h66l-154 -1454h-59l145 1343l-790 -1343h-48l-503 1346l-140 -1346h-59z" />
    <glyph glyph-name="uni041D" unicode="&#x41d;" horiz-adv-x="1263" 
d="M1004 0l69 668h-856l-70 -668h-59l154 1454h59l-78 -727h858l76 727h60l-154 -1454h-59z" />
    <glyph glyph-name="uni041E" unicode="&#x41e;" horiz-adv-x="1693" 
d="M803 -20q-182 0 -332.5 81t-242 236t-91.5 354q0 166 64 319t171.5 263.5t254.5 176t305 65.5q135 0 256.5 -48t212.5 -133.5t144.5 -213t53.5 -277.5q0 -166 -64.5 -319t-172 -263t-254 -175.5t-305.5 -65.5zM197 653q0 -139 48.5 -255.5t131.5 -194.5t193 -121t233 -43
q146 0 282 61t235 163.5t158.5 243.5t59.5 294q0 139 -48.5 255.5t-131.5 194.5t-193 121t-233 43q-146 0 -282 -61t-235 -163.5t-158.5 -243.5t-59.5 -294z" />
    <glyph glyph-name="uni041F" unicode="&#x41f;" horiz-adv-x="1253" 
d="M86 0l154 1454h968l-153 -1454h-60l148 1395h-850l-148 -1395h-59z" />
    <glyph glyph-name="uni0420" unicode="&#x420;" horiz-adv-x="1148" 
d="M88 0l150 1454h426q210 0 322 -111.5t114 -295.5q2 -217 -141.5 -356.5t-387.5 -139.5h-368l-56 -551h-59zM209 610h366q211 0 337 121.5t124 317.5q-1 167 -101 256.5t-282 89.5h-364z" />
    <glyph glyph-name="uni0421" unicode="&#x421;" horiz-adv-x="1497" 
d="M807 -20q-190 0 -342 83.5t-240 237.5t-88 352q0 167 66 320t177 262.5t261.5 174.5t312.5 65q65 0 129.5 -11t136 -37t137 -78t111.5 -126l-51 -37q-41 69 -101 117.5t-127 71t-123.5 31.5t-115.5 9q-153 0 -292 -60.5t-240 -163t-161 -244t-60 -296.5q0 -183 82 -323.5
t222.5 -214.5t315.5 -74q58 0 115 9t127.5 31.5t139.5 71t124 117.5l43 -37q-62 -74 -137 -126t-150.5 -78t-140.5 -36.5t-131 -10.5z" />
    <glyph glyph-name="uni0422" unicode="&#x422;" horiz-adv-x="1087" 
d="M457 0l147 1395h-426l6 59h910l-7 -59h-423l-148 -1395h-59z" />
    <glyph glyph-name="uni0423" unicode="&#x423;" horiz-adv-x="1282" 
d="M291 0l315 481l-430 973h66l399 -917l592 917h67l-944 -1454h-65z" />
    <glyph glyph-name="uni0424" unicode="&#x424;" horiz-adv-x="1669" 
d="M715 143q-281 0 -438.5 143.5t-157.5 379.5q0 141 53 262t146.5 204.5t225 131t283.5 47.5h58l14 143h59l-14 -143h55q278 0 436 -142t158 -376q0 -190 -92.5 -339t-255.5 -230t-368 -81h-56l-14 -143h-59l14 143h-47zM176 668q0 -218 144 -342.5t399 -124.5h49l111 1054
h-48q-290 0 -472.5 -163t-182.5 -424zM827 201h56q191 0 339 73t230 206t82 306q0 218 -143.5 343.5t-395.5 125.5h-57z" />
    <glyph glyph-name="uni0425" unicode="&#x425;" horiz-adv-x="1286" 
d="M14 0l615 756l-422 698h74l389 -651l530 651h76l-574 -698l459 -756h-74l-423 707l-574 -707h-76z" />
    <glyph glyph-name="uni0426" unicode="&#x426;" horiz-adv-x="1224" 
d="M1018 -141l14 141h-946l154 1454h59l-149 -1395h829l147 1395h60l-148 -1395h58l-21 -200h-57z" />
    <glyph glyph-name="uni0427" unicode="&#x427;" horiz-adv-x="1177" 
d="M539 420q-88 0 -164.5 27t-135.5 79t-87.5 138t-16.5 196l62 594h59l-63 -590q-18 -173 76.5 -277t277.5 -104q184 0 314.5 104.5t150.5 272.5l61 594h60l-152 -1454h-59l67 645q-17 -25 -41 -51.5t-65.5 -58.5t-89 -56.5t-115 -41.5t-139.5 -17z" />
    <glyph glyph-name="uni0428" unicode="&#x428;" horiz-adv-x="1990" 
d="M86 0l154 1454h59l-149 -1395h765l148 1395h59l-147 -1395h764l149 1395h60l-154 -1454h-1708z" />
    <glyph glyph-name="uni0429" unicode="&#x429;" horiz-adv-x="1986" 
d="M1780 -141l14 141h-1708l154 1454h59l-149 -1395h765l148 1395h59l-147 -1395h764l149 1395h60l-150 -1395h57l-18 -200h-57z" />
    <glyph glyph-name="uni042A" unicode="&#x42a;" horiz-adv-x="1247" 
d="M186 0l148 1395h-244l6 59h303l-61 -569h360q217 0 329 -111.5t112 -298.5q0 -208 -140.5 -341.5t-390.5 -133.5h-422zM250 59h360q210 0 340.5 114t130.5 308q0 167 -101.5 254.5t-285.5 87.5h-362z" />
    <glyph glyph-name="uni042B" unicode="&#x42b;" horiz-adv-x="1466" 
d="M86 0l154 1454h59l-61 -569h360q217 0 328.5 -111.5t111.5 -298.5q0 -208 -140 -341.5t-390 -133.5h-422zM150 59h360q210 0 340.5 114t130.5 308q0 167 -101.5 254.5t-285.5 87.5h-363zM1210 0l154 1454h59l-153 -1454h-60z" />
    <glyph glyph-name="uni042C" unicode="&#x42c;" horiz-adv-x="1146" 
d="M86 0l154 1454h59l-61 -569h360q217 0 328.5 -111.5t111.5 -298.5q0 -208 -140 -341.5t-390 -133.5h-422zM150 59h360q210 0 340.5 114t130.5 308q0 167 -101.5 254.5t-285.5 87.5h-363z" />
    <glyph glyph-name="uni042D" unicode="&#x42d;" horiz-adv-x="1495" 
d="M612 -20q-67 0 -132 11.5t-136.5 37.5t-137.5 77.5t-116 124.5l51 39q36 -55 85.5 -97.5t97.5 -67t103.5 -39.5t100 -20t90.5 -5q140 0 268.5 51t224.5 139t160 209.5t81 259.5h-478l9 56l473 2q2 14 2 43q0 184 -78 324t-213 214t-305 74q-132 0 -271 -52t-253 -179
l-45 41q68 73 146 125t154.5 78.5t142 37.5t130.5 11q187 0 335.5 -83.5t233 -237.5t84.5 -351q0 -169 -64.5 -322.5t-173.5 -262.5t-258 -173.5t-311 -64.5z" />
    <glyph glyph-name="uni042E" unicode="&#x42e;" horiz-adv-x="2039" 
d="M86 0l154 1454h59l-74 -709l264 3q17 151 87 285.5t175 231.5t242.5 153.5t284.5 56.5q135 0 257 -48t213 -133.5t144.5 -213t53.5 -277.5q0 -222 -109 -412t-292.5 -300.5t-395.5 -110.5q-182 0 -332.5 81t-242 236t-91.5 354v41l-264 -4l-74 -688h-59zM543 653
q0 -139 48.5 -255.5t131.5 -194.5t193 -121t233 -43q146 0 282 61t235 163.5t158.5 243.5t59.5 294q0 139 -48.5 255.5t-131.5 194.5t-193 121t-233 43q-146 0 -282 -61t-235 -163.5t-158.5 -243.5t-59.5 -294z" />
    <glyph glyph-name="uni042F" unicode="&#x42f;" horiz-adv-x="1220" 
d="M512 578q-153 25 -236 138.5t-83 272.5q0 203 136 334t378 131h471l-154 -1454h-59l59 569h-446l-435 -569h-77zM256 987q0 -169 96 -262.5t266 -93.5h414l80 764h-414q-201 0 -321.5 -107.5t-120.5 -300.5z" />
    <glyph glyph-name="uni0430" unicode="&#x430;" 
d="M580 -20q-98 0 -185.5 31.5t-156.5 91.5t-109.5 156t-40.5 216q0 128 45.5 241t123 194t185.5 128t228 47q160 0 282.5 -78t165.5 -208h6l29 266h57l-110 -1065h-58l27 266h-6q-75 -133 -201 -209.5t-282 -76.5zM147 477q0 -209 123.5 -324.5t309.5 -115.5
q147 0 268.5 74.5t189.5 200.5t68 276q0 106 -34 191t-93.5 138.5t-137 82t-167.5 28.5q-148 0 -269.5 -74.5t-189.5 -200.5t-68 -276z" />
    <glyph glyph-name="uni0431" unicode="&#x431;" horiz-adv-x="1290" 
d="M604 -20q-144 0 -260.5 71.5t-171.5 212.5l-29 -264h-57l117 1114q18 160 109.5 240t283.5 80h276q81 0 101 6q25 9 41 35h63q-42 -97 -176 -97h-315q-159 0 -234 -63.5t-90 -202.5l-33 -313q85 145 213.5 214.5t274.5 69.5q96 0 182 -31.5t155 -90.5t109.5 -154.5
t40.5 -214.5q0 -126 -48 -240t-129 -195.5t-192 -129t-231 -47.5zM193 457q0 -104 35.5 -187t95 -133t132.5 -76t154 -26q145 0 269.5 78t196 207t71.5 276q0 104 -37.5 188t-100 136t-138.5 80t-158 28q-141 0 -261 -76.5t-189.5 -208t-69.5 -286.5z" />
    <glyph glyph-name="uni0432" unicode="&#x432;" horiz-adv-x="1103" 
d="M86 0l113 1065h465q142 0 214 -64.5t72 -169.5q0 -92 -48.5 -154t-131.5 -91q104 -30 156.5 -100.5t52.5 -166.5q0 -159 -122.5 -239t-334.5 -80h-436zM150 57h374q398 0 398 267q0 233 -336 233h-383zM207 612h387q136 0 217.5 52t81.5 165q0 91 -63 135t-195 44h-387z
" />
    <glyph glyph-name="uni0433" unicode="&#x433;" horiz-adv-x="927" 
d="M86 0l113 1065h702l-6 -55h-645l-107 -1010h-57z" />
    <glyph glyph-name="uni0434" unicode="&#x434;" horiz-adv-x="1150" 
d="M2 -150l23 207h47q19 18 35 42.5t30 63t24 67.5t20.5 87.5t16 89.5t14.5 107t12.5 106t13.5 119l34 326h785l-107 -1008h76l-22 -207h-58l15 150h-885l-17 -150h-57zM135 55l758 2l98 953h-667l-29 -275q-36 -331 -59 -441q-37 -176 -101 -239z" />
    <glyph glyph-name="uni0435" unicode="&#x435;" horiz-adv-x="1202" 
d="M575 -20q-100 0 -187.5 31.5t-154.5 91.5t-106 155t-39 213q0 168 75.5 309t207.5 223t291 82q105 0 195 -37.5t155 -107.5t92.5 -180.5t5.5 -245.5h-960v-35q0 -106 34 -191t94 -138.5t138.5 -82t169.5 -28.5q113 0 213 43t166 121l43 -37q-82 -92 -195.5 -139
t-237.5 -47zM156 571h907q10 105 -18.5 192t-85 144t-134 88t-166.5 31q-192 0 -332 -128.5t-171 -326.5z" />
    <glyph glyph-name="uni0436" unicode="&#x436;" horiz-adv-x="1687" 
d="M-4 0l610 575l-440 490h80l555 -621l63 621h58l-64 -614l680 614h80l-543 -490l488 -575h-76l-455 537l-182 -164l-39 -373h-57l39 369l-154 168l-567 -537h-76z" />
    <glyph glyph-name="uni0437" unicode="&#x437;" horiz-adv-x="1001" 
d="M444 -20q-181 0 -283.5 92.5t-88.5 238.5h61q-13 -126 77 -201t243 -75q158 0 263 75.5t105 200.5q0 117 -92 171.5t-250 54.5l6 55q145 -2 237.5 64.5t92.5 172.5q0 91 -70 145t-190 54q-134 0 -226 -66t-104 -180h-59q14 135 120.5 218t268.5 83q146 0 231.5 -69
t85.5 -180q0 -95 -63 -165.5t-172 -99.5q116 -17 180 -88.5t64 -173.5q0 -146 -128 -236.5t-309 -90.5z" />
    <glyph glyph-name="uni0438" unicode="&#x438;" horiz-adv-x="1142" 
d="M86 0l111 1065h57l-102 -975l847 975h60l-111 -1065h-59l102 975l-848 -975h-57z" />
    <glyph glyph-name="uni0439" unicode="&#x439;" horiz-adv-x="1142" 
d="M86 0l111 1065h57l-102 -975l847 975h60l-111 -1065h-59l102 975l-848 -975h-57zM418 1516h63q-7 -80 38 -137.5t147 -57.5q101 0 155 57t64 138h65q-5 -49 -25 -94.5t-54 -84t-89 -61.5t-123 -23q-88 0 -147.5 40t-80.5 98t-13 125z" />
    <glyph glyph-name="uni043A" unicode="&#x43a;" horiz-adv-x="1019" 
d="M86 0l111 1065h57l-64 -614l680 614h80l-542 -490l487 -575h-76l-454 537l-183 -164l-39 -373h-57z" />
    <glyph glyph-name="uni043B" unicode="&#x43b;" horiz-adv-x="1226" 
d="M139 -12q-86 0 -147 39l6 55q67 -39 119 -39q54 0 77 18.5t29 77.5l99 926h821l-113 -1065h-59l106 1010h-702l-94 -904q-6 -59 -45.5 -88.5t-96.5 -29.5z" />
    <glyph glyph-name="uni043C" unicode="&#x43c;" horiz-adv-x="1398" 
d="M86 0l111 1065h57l395 -1002l604 1002h62l-111 -1065h-59l100 946l-573 -946h-51l-377 946l-101 -946h-57z" />
    <glyph glyph-name="uni043D" unicode="&#x43d;" horiz-adv-x="1130" 
d="M86 0l113 1065h57l-53 -508h733l51 508h60l-113 -1065h-60l54 500h-731l-54 -500h-57z" />
    <glyph glyph-name="uni043E" unicode="&#x43e;" horiz-adv-x="1245" 
d="M565 -20q-86 0 -170 31.5t-154.5 90.5t-113.5 153.5t-43 209.5q0 169 80.5 312t217 225.5t296.5 82.5q86 0 170 -31.5t154.5 -90.5t113.5 -154t43 -211q0 -168 -80.5 -310.5t-217 -225t-296.5 -82.5zM141 467q0 -105 39 -190t102.5 -136.5t139.5 -78.5t156 -27
q66 0 137 21.5t140.5 68t124 110.5t88.5 158t34 203q0 86 -25.5 158.5t-68.5 122.5t-99.5 85t-118 51.5t-124.5 16.5q-66 0 -137 -21.5t-140.5 -68t-124.5 -111t-89 -159t-34 -203.5z" />
    <glyph glyph-name="uni043F" unicode="&#x43f;" horiz-adv-x="1103" 
d="M86 0l113 1065h821l-113 -1065h-57l104 1010h-704l-107 -1010h-57z" />
    <glyph glyph-name="uni0440" unicode="&#x440;" horiz-adv-x="1296" 
d="M45 -389l152 1454h57l-27 -266h6q66 130 199 208t287 78q76 0 147.5 -19t133.5 -59t108.5 -97t73 -137t26.5 -175q0 -171 -77 -312.5t-211.5 -223.5t-296.5 -82q-157 0 -280.5 78.5t-164.5 207.5h-8l-66 -655h-59zM190 473q0 -107 36 -192.5t97.5 -137.5t137.5 -79
t160 -27q148 0 270 77t189 204t67 274q0 107 -36 192.5t-97 137.5t-137 79t-160 27q-112 0 -211 -45.5t-167.5 -121.5t-108.5 -177t-40 -211z" />
    <glyph glyph-name="uni0441" unicode="&#x441;" horiz-adv-x="1171" 
d="M578 -20q-97 0 -185.5 33.5t-156.5 95.5t-108 157.5t-40 210.5q0 166 78 305.5t213.5 221t296.5 81.5q147 0 265.5 -68t172.5 -194l-53 -22q-48 109 -151 168t-228 59q-99 0 -193 -37t-169.5 -104.5t-121.5 -171.5t-46 -228q0 -110 36 -197.5t97.5 -141.5t139 -82.5
t163.5 -28.5q126 0 235.5 58.5t180.5 168.5l49 -22q-80 -126 -206 -194t-269 -68z" />
    <glyph glyph-name="uni0442" unicode="&#x442;" horiz-adv-x="884" 
d="M358 0l107 1010h-338l6 55h733l-8 -55h-336l-104 -1010h-60z" />
    <glyph glyph-name="uni0443" unicode="&#x443;" horiz-adv-x="1105" 
d="M250 -389l217 407l-342 1047h63l320 -977l516 977h68l-777 -1454h-65z" />
    <glyph glyph-name="uni0444" unicode="&#x444;" horiz-adv-x="2226" 
d="M987 -389l70 655h-8q-72 -130 -206 -208t-286 -78q-94 0 -178.5 31.5t-150 90.5t-104 152.5t-38.5 208.5q0 172 76 314.5t209.5 225t294.5 82.5q157 0 276.5 -77.5t163.5 -208.5h6l72 686h59l-72 -686h7q72 131 205.5 208.5t285.5 77.5q94 0 178.5 -31.5t150.5 -90.5
t105 -152.5t39 -208.5q0 -172 -76.5 -314.5t-210 -225t-294.5 -82.5q-157 0 -276.5 78t-162.5 208h-8l-67 -655h-60zM145 467q0 -106 34.5 -190t93.5 -135.5t132.5 -78t155.5 -26.5q152 0 274.5 78t188.5 206t66 277q0 105 -36 188.5t-97 135.5t-136.5 79t-158.5 27
q-151 0 -270.5 -78.5t-183 -206t-63.5 -276.5zM1137 467q0 -105 36 -188.5t97 -135.5t136.5 -79t158.5 -27q114 0 212 46t164 123t103 179t37 213q0 106 -34.5 190t-93 135.5t-131.5 78t-155 26.5q-152 0 -275 -78t-189 -206t-66 -277z" />
    <glyph glyph-name="uni0445" unicode="&#x445;" horiz-adv-x="1017" 
d="M2 0l475 543l-348 522h70l315 -475l416 475h71l-458 -522l362 -543h-76l-323 496l-426 -496h-78z" />
    <glyph glyph-name="uni0446" unicode="&#x446;" horiz-adv-x="1071" 
d="M862 -141l15 141h-791l113 1065h57l-106 -1008h641l106 1008h57l-106 -1008h92l-20 -198h-58z" />
    <glyph glyph-name="uni0447" unicode="&#x447;" horiz-adv-x="1085" 
d="M498 252q-57 0 -109 11.5t-100 39.5t-81.5 69.5t-49.5 107t-8 147.5l47 438h57l-47 -444q-14 -146 64 -230t233 -84q158 0 268 86t123 228v-7l47 451h57l-110 -1065h-58l46 428q-50 -73 -151.5 -124.5t-227.5 -51.5z" />
    <glyph glyph-name="uni0448" unicode="&#x448;" horiz-adv-x="1542" 
d="M86 0l113 1065h57l-106 -1008h542l107 1008h57l-106 -1008h542l107 1008h59l-112 -1065h-1260z" />
    <glyph glyph-name="uni0449" unicode="&#x449;" horiz-adv-x="1572" 
d="M1364 -141l14 141h-1292l113 1065h57l-106 -1008h542l107 1008h57l-106 -1008h542l107 1008h59l-106 -1008h92l-23 -198h-57z" />
    <glyph glyph-name="uni044A" unicode="&#x44a;" horiz-adv-x="1075" 
d="M51 1010l6 55h199l-47 -451h414q168 0 254 -74t86 -208q0 -154 -104.5 -243t-299.5 -89h-471l105 1010h-142zM152 57h413q162 0 250 69.5t88 205.5q0 107 -65.5 166t-219.5 59h-415z" />
    <glyph glyph-name="uni044B" unicode="&#x44b;" horiz-adv-x="1300" 
d="M1044 0l113 1065h60l-113 -1065h-60zM86 0l111 1065h57l-47 -451h414q168 0 254 -74t86 -208q0 -154 -104.5 -243t-299.5 -89h-471zM150 57h413q162 0 250 69.5t88 205.5q0 107 -65.5 166t-219.5 59h-415z" />
    <glyph glyph-name="uni044C" unicode="&#x44c;" horiz-adv-x="1073" 
d="M86 0l111 1065h57l-47 -451h414q168 0 254 -74t86 -208q0 -154 -104.5 -243t-299.5 -89h-471zM150 57h413q162 0 250 69.5t88 205.5q0 107 -65.5 166t-219.5 59h-415z" />
    <glyph glyph-name="uni044D" unicode="&#x44d;" horiz-adv-x="1169" 
d="M483 -20q-146 0 -260.5 69t-165.5 195l58 14q45 -106 148.5 -164.5t223.5 -58.5q67 0 134.5 18.5t132.5 57t118.5 93.5t91.5 133.5t52 170.5l-410 -2l4 53l412 2q5 115 -30 206.5t-98.5 147t-142 84.5t-165.5 29q-125 0 -235 -58.5t-177 -168.5l-53 20q77 127 200 194.5
t265 67.5q97 0 185 -32.5t157.5 -93.5t111 -156.5t41.5 -212.5q0 -168 -81 -308t-218.5 -220t-298.5 -80z" />
    <glyph glyph-name="uni044E" unicode="&#x44e;" horiz-adv-x="1568" 
d="M86 0l113 1065h57l-53 -506h211q34 225 201 375.5t386 150.5q86 0 170.5 -31.5t154.5 -90.5t113.5 -154t43.5 -211q0 -168 -80.5 -310.5t-217 -225t-296.5 -82.5q-86 0 -170 31.5t-154.5 90.5t-113.5 153.5t-43 209.5l2 41h-213l-54 -506h-57zM465 467q0 -105 38.5 -190
t102 -136.5t139.5 -78.5t156 -27q66 0 137 21.5t140.5 68t124 110.5t88.5 158t34 203q0 86 -25.5 158.5t-68.5 122.5t-99.5 85t-118 51.5t-124.5 16.5q-66 0 -137 -21.5t-140.5 -68t-124 -111t-88.5 -159t-34 -203.5z" />
    <glyph glyph-name="uni044F" unicode="&#x44f;" horiz-adv-x="1105" 
d="M473 455q-157 0 -236 75t-79 203q0 147 97 239.5t280 92.5h485l-111 -1065h-57l47 455h-328l-428 -455h-77l436 455h-29zM215 739q0 -101 59.5 -165t194.5 -64h436l51 500h-432q-85 0 -148 -23.5t-96.5 -63.5t-49 -85.5t-15.5 -98.5z" />
    <glyph glyph-name="uni0450" unicode="&#x450;" horiz-adv-x="1202" 
d="M575 -20q-100 0 -187.5 31.5t-154.5 91.5t-106 155t-39 213q0 168 75.5 309t207.5 223t291 82q105 0 195 -37.5t155 -107.5t92.5 -180.5t5.5 -245.5h-960v-35q0 -106 34 -191t94 -138.5t138.5 -82t169.5 -28.5q113 0 213 43t166 121l43 -37q-82 -92 -195.5 -139
t-237.5 -47zM156 571h907q10 105 -18.5 192t-85 144t-134 88t-166.5 31q-192 0 -332 -128.5t-171 -326.5zM403 1516h70l154 -314h-70z" />
    <glyph glyph-name="uni0451" unicode="&#x451;" horiz-adv-x="1202" 
d="M575 -20q-100 0 -187.5 31.5t-154.5 91.5t-106 155t-39 213q0 168 75.5 309t207.5 223t291 82q105 0 195 -37.5t155 -107.5t92.5 -180.5t5.5 -245.5h-960v-35q0 -106 34 -191t94 -138.5t138.5 -82t169.5 -28.5q113 0 213 43t166 121l43 -37q-82 -92 -195.5 -139
t-237.5 -47zM156 571h907q10 105 -18.5 192t-85 144t-134 88t-166.5 31q-192 0 -332 -128.5t-171 -326.5zM459 1382l6 66h61l-4 -66h-63zM823 1382l6 66h62l-4 -66h-64z" />
    <glyph glyph-name="uni0453" unicode="&#x453;" horiz-adv-x="954" 
d="M86 0l113 1065h729l-6 -55h-672l-107 -1010h-57zM584 1169l188 265h68l-222 -265h-34z" />
    <glyph glyph-name="uni0454" unicode="&#x454;" horiz-adv-x="1169" 
d="M578 -20q-96 0 -183 32.5t-156 93t-110 156t-41 213.5q0 165 79 305t215 221.5t296 81.5q148 0 264.5 -69t167.5 -195l-59 -14q-43 107 -143 165t-224 58q-70 0 -138.5 -18t-133 -56.5t-116.5 -93t-89 -132t-51 -169.5h407l-4 -53h-412q-6 -93 16.5 -171.5t64.5 -132.5
t99.5 -92.5t121.5 -56.5t131 -18q124 0 235.5 59t177.5 168l56 -20q-78 -126 -203 -194t-268 -68z" />
    <glyph glyph-name="uni0455" unicode="&#x455;" horiz-adv-x="849" 
d="M381 -20q-140 0 -230 76t-102 200l62 14q14 -113 91 -170t183 -57q53 0 102.5 14t91.5 41.5t67.5 75t25.5 107.5q0 87 -53.5 138.5t-174.5 106.5l-57 29q-221 100 -221 272q0 114 84 186t213 72q111 0 188.5 -54.5t104.5 -147.5l-54 -21q-64 160 -239 160
q-103 0 -167.5 -50t-64.5 -145q0 -72 43.5 -124t137.5 -95l43 -20q148 -67 213 -133.5t65 -171.5q0 -138 -101 -220.5t-251 -82.5z" />
    <glyph glyph-name="uni0456" unicode="&#x456;" horiz-adv-x="342" 
d="M86 0l111 1065h57l-111 -1065h-57zM229 1384l11 70h57l-8 -70h-60z" />
    <glyph glyph-name="uni0457" unicode="&#x457;" horiz-adv-x="339" 
d="M86 0l113 1065h57l-113 -1065h-57zM27 1382l6 66h61l-4 -66h-63zM391 1382l6 66h62l-4 -66h-64z" />
    <glyph glyph-name="uni0458" unicode="&#x458;" horiz-adv-x="339" 
d="M-283 -395l7 55h32q68 0 119 13.5t96 47t73 96t38 154.5l115 1094h59l-117 -1092q-9 -89 -35 -155.5t-61.5 -106.5t-86 -64.5t-101 -33t-113.5 -8.5h-25zM229 1384l9 70h59l-10 -70h-58z" />
    <glyph glyph-name="uni045C" unicode="&#x45c;" horiz-adv-x="1019" 
d="M86 0l111 1065h57l-64 -614l680 614h80l-542 -490l487 -575h-76l-454 537l-183 -164l-39 -373h-57zM532 1202l154 314h70l-156 -314h-68z" />
    <glyph glyph-name="uni045E" unicode="&#x45e;" horiz-adv-x="1105" 
d="M250 -389l217 407l-342 1047h63l320 -977l516 977h68l-777 -1454h-65zM332 1516h63q-7 -80 38 -137.5t147 -57.5q101 0 155 57t64 138h65q-5 -49 -25 -94.5t-54 -84t-89 -61.5t-123 -23q-88 0 -147.5 40t-80.5 98t-13 125z" />
    <glyph glyph-name="uni0490" unicode="&#x490;" horiz-adv-x="1019" 
d="M293 1395l-148 -1395h-59l154 1454h714l13 96h59l-18 -155h-715z" />
    <glyph glyph-name="uni0491" unicode="&#x491;" horiz-adv-x="927" 
d="M86 0l113 1065h645l10 94h57l-16 -149h-645l-107 -1010h-57z" />
    <glyph glyph-name="uni04C0" unicode="&#x4c0;" horiz-adv-x="342" 
d="M86 0l154 1454h59l-154 -1454h-59z" />
    <glyph glyph-name="uni04CF" unicode="&#x4cf;" horiz-adv-x="337" 
d="M86 0l152 1454h57l-152 -1454h-57z" />
    <glyph glyph-name="uni04E2" unicode="&#x4e2;" horiz-adv-x="1392" 
d="M86 0l154 1454h59l-143 -1354l1136 1354h56l-154 -1454h-59l143 1350l-1137 -1350h-55zM457 1772l6 53h735l-8 -53h-733z" />
    <glyph glyph-name="uni04E3" unicode="&#x4e3;" horiz-adv-x="1142" 
d="M86 0l111 1065h57l-102 -975l847 975h60l-111 -1065h-59l102 975l-848 -975h-57zM293 1382l6 54h735l-8 -54h-733z" />
    <glyph glyph-name="uni1E04" unicode="&#x1e04;" horiz-adv-x="1159" 
d="M86 0l152 1454h454q92 0 161.5 -25t110 -68.5t60.5 -97t20 -116.5q0 -115 -66 -209t-210 -137q137 -31 208 -129t71 -238q0 -193 -134.5 -313.5t-394.5 -120.5h-432zM152 57h370q215 0 341 98.5t126 280.5q0 160 -99.5 247t-293.5 87h-371zM229 825h385q162 0 268.5 92
t106.5 232q0 116 -77 182t-230 66h-393zM457 -258l10 86h84l-10 -86h-84z" />
    <glyph glyph-name="uni1E05" unicode="&#x1e05;" horiz-adv-x="1296" 
d="M623 -20q-157 0 -280.5 78.5t-164.5 207.5h-8l-27 -266h-57l152 1454h57l-68 -655h6q66 130 199 208t287 78q76 0 147.5 -19t133.5 -59t108.5 -97t73 -137t26.5 -175q0 -171 -77 -312.5t-211.5 -223.5t-296.5 -82zM190 473q0 -107 36 -192.5t97.5 -137.5t137.5 -79
t160 -27q148 0 270 77t189 204t67 274q0 107 -36 192.5t-97 137.5t-137 79t-160 27q-112 0 -211 -45.5t-167.5 -121.5t-108.5 -177t-40 -211zM522 -258l10 86h84l-10 -86h-84z" />
    <glyph glyph-name="uni1E0C" unicode="&#x1e0c;" horiz-adv-x="1302" 
d="M86 0l152 1454h337q314 0 483 -176t169 -479q0 -235 -97.5 -416t-279.5 -282t-422 -101h-342zM150 57h278q223 0 391.5 94t258 261t89.5 383q0 281 -155 441.5t-445 160.5h-276zM537 -258l10 86h84l-10 -86h-84z" />
    <glyph glyph-name="uni1E0D" unicode="&#x1e0d;" 
d="M580 -20q-98 0 -185.5 31.5t-156.5 91.5t-109.5 156t-40.5 216q0 128 45.5 241t123 194t185.5 128t228 47q160 0 282.5 -78t165.5 -208h6l70 655h57l-151 -1454h-58l27 266h-6q-75 -133 -201 -209.5t-282 -76.5zM147 477q0 -209 123.5 -324.5t309.5 -115.5
q147 0 268.5 74.5t189.5 200.5t68 276q0 106 -34 191t-93.5 138.5t-137 82t-167.5 28.5q-148 0 -269.5 -74.5t-189.5 -200.5t-68 -276zM522 -258l10 86h84l-10 -86h-84z" />
    <glyph glyph-name="uni1E20" unicode="&#x1e20;" horiz-adv-x="1644" 
d="M791 -20q-186 0 -335 84t-234 237.5t-85 349.5q0 170 65.5 323t176 262.5t262 174t317.5 64.5q65 0 128.5 -11t135 -37t136 -78t110.5 -126l-49 -37q-42 69 -102.5 117t-126.5 70.5t-122 31t-114 8.5q-204 0 -378 -101.5t-276.5 -277.5t-102.5 -385q0 -136 46.5 -251
t127 -193.5t191.5 -122t239 -43.5q118 0 228 39t201.5 112t157 187.5t89.5 257.5h-486l10 59h541q-15 -163 -82 -299t-168.5 -226t-230.5 -139.5t-270 -49.5zM584 1772l6 53h735l-8 -53h-733z" />
    <glyph glyph-name="uni1E21" unicode="&#x1e21;" 
d="M549 -426q-111 0 -196 25.5t-117 54.5l8 61q104 -84 299 -84q69 0 133 12t128.5 42.5t114 77t85 121t45.5 169.5l20 213h-6q-74 -135 -200.5 -210.5t-282.5 -75.5q-100 0 -188 32t-156 92.5t-108 156.5t-40 216q0 126 44.5 239t122 194t186 128t231.5 47q161 0 282 -77.5
t164 -208.5h6l29 266h57l-106 -1028q-11 -99 -48 -179t-90 -132t-122.5 -87t-142.5 -50t-152 -15zM147 473q0 -107 35.5 -192t96.5 -137.5t138 -79.5t165 -27q148 0 269 74.5t188 201t67 277.5q0 107 -36 192.5t-97 138t-138.5 80t-164.5 27.5q-148 0 -268 -74t-187.5 -201
t-67.5 -280zM367 1382l6 54h735l-8 -54h-733z" />
    <glyph glyph-name="uni1E24" unicode="&#x1e24;" horiz-adv-x="1263" 
d="M1004 0l69 668h-856l-70 -668h-59l154 1454h59l-78 -727h858l76 727h60l-154 -1454h-59zM508 -258l10 86h84l-10 -86h-84z" />
    <glyph glyph-name="uni1E25" unicode="&#x1e25;" horiz-adv-x="1157" 
d="M86 0l150 1454h59l-64 -594q24 42 58.5 79.5t84 71.5t117 54t144.5 20q90 0 165.5 -28t131 -82.5t81 -143.5t13.5 -204l-65 -627h-58l64 625q11 103 -11 182t-70 126.5t-112.5 71t-142.5 23.5q-164 0 -283.5 -101.5t-140.5 -301.5l-64 -625h-57zM453 -258l10 86h84
l-10 -86h-84z" />
    <glyph glyph-name="uni1E62" unicode="&#x1e62;" horiz-adv-x="1073" 
d="M508 -20q-178 0 -299 98t-141 260l55 20q23 -151 127.5 -235t259.5 -84q169 0 283 95.5t114 256.5q0 55 -16 100t-40.5 76.5t-66 61t-79.5 48.5t-95 42l-125 51q-272 115 -272 346q0 157 117.5 258t290.5 101q159 0 262.5 -85.5t128.5 -211.5l-51 -21
q-32 119 -117.5 188.5t-222.5 69.5q-150 0 -249.5 -81.5t-99.5 -215.5q0 -194 230 -291l106 -45q70 -29 113.5 -50.5t95.5 -56.5t81 -71t49 -89.5t20 -117.5q0 -184 -132 -300.5t-327 -116.5zM410 -258l10 86h84l-10 -86h-84z" />
    <glyph glyph-name="uni1E63" unicode="&#x1e63;" horiz-adv-x="849" 
d="M381 -20q-140 0 -230 76t-102 200l62 14q14 -113 91 -170t183 -57q53 0 102.5 14t91.5 41.5t67.5 75t25.5 107.5q0 87 -53.5 138.5t-174.5 106.5l-57 29q-221 100 -221 272q0 114 84 186t213 72q111 0 188.5 -54.5t104.5 -147.5l-54 -21q-64 160 -239 160
q-103 0 -167.5 -50t-64.5 -145q0 -72 43.5 -124t137.5 -95l43 -20q148 -67 213 -133.5t65 -171.5q0 -138 -101 -220.5t-251 -82.5zM299 -258l10 86h84l-10 -86h-84z" />
    <glyph glyph-name="uni1E6C" unicode="&#x1e6c;" horiz-adv-x="1087" 
d="M457 0l147 1395h-426l6 59h910l-7 -59h-423l-148 -1395h-59zM416 -258l10 86h84l-10 -86h-84z" />
    <glyph glyph-name="uni1E6D" unicode="&#x1e6d;" horiz-adv-x="579" 
d="M319 -12q-73 0 -110.5 36t-30.5 105l92 883h-131l6 53h129l29 272h59l-28 -272h201l-5 -53h-202l-90 -862q-4 -56 18 -81.5t72 -25.5q46 0 98 23l-6 -54q-49 -24 -101 -24zM238 -258l10 86h84l-10 -86h-84z" />
    <glyph glyph-name="Wgrave" unicode="&#x1e80;" horiz-adv-x="1966" 
d="M442 0l-276 1454h59l256 -1335l572 1335h53l287 -1335l538 1335h64l-584 -1454h-53l-289 1339l-573 -1339h-54zM870 1905h70l154 -314h-70z" />
    <glyph glyph-name="wgrave" unicode="&#x1e81;" horiz-adv-x="1898" 
d="M1305 0l-312 987l-510 -987h-53l-305 1065h63l277 -977l504 977h65l303 -977l480 977h67l-526 -1065h-53zM795 1516h69l154 -314h-70z" />
    <glyph glyph-name="Wacute" unicode="&#x1e82;" horiz-adv-x="1966" 
d="M442 0l-276 1454h59l256 -1335l572 1335h53l287 -1335l538 1335h64l-584 -1454h-53l-289 1339l-573 -1339h-54zM1053 1591l153 314h70l-156 -314h-67z" />
    <glyph glyph-name="wacute" unicode="&#x1e83;" horiz-adv-x="1898" 
d="M1305 0l-312 987l-510 -987h-53l-305 1065h63l277 -977l504 977h65l303 -977l480 977h67l-526 -1065h-53zM979 1202l154 314h69l-155 -314h-68z" />
    <glyph glyph-name="Wdieresis" unicode="&#x1e84;" horiz-adv-x="1966" 
d="M442 0l-276 1454h59l256 -1335l572 1335h53l287 -1335l538 1335h64l-584 -1454h-53l-289 1339l-573 -1339h-54zM877 1772l6 65h61l-4 -65h-63zM1241 1772l6 65h62l-4 -65h-64z" />
    <glyph glyph-name="wdieresis" unicode="&#x1e85;" horiz-adv-x="1898" 
d="M1305 0l-312 987l-510 -987h-53l-305 1065h63l277 -977l504 977h65l303 -977l480 977h67l-526 -1065h-53zM803 1382l6 66h61l-4 -66h-63zM1167 1382l7 66h61l-4 -66h-64z" />
    <glyph glyph-name="uni1E92" unicode="&#x1e92;" horiz-adv-x="1181" 
d="M25 0l1054 1395h-860l6 59h973l-1057 -1395h901l-6 -59h-1011zM461 -258l10 86h84l-10 -86h-84z" />
    <glyph glyph-name="uni1E93" unicode="&#x1e93;" horiz-adv-x="1034" 
d="M14 0l885 1010h-717l6 55h834l-887 -1008h770l-6 -57h-885zM449 -258l10 86h84l-11 -86h-83z" />
    <glyph glyph-name="uni1E9E" unicode="&#x1e9e;" horiz-adv-x="1193" 
d="M86 0l152 1454h856l-7 -65l-532 -517q141 1 243 -28t159.5 -85t83.5 -125t26 -157q0 -219 -151 -348t-412 -129h-139l4 57h133q234 0 369 112t135 308q0 338 -435 338h-98l4 57l537 523h-723l-146 -1395h-59z" />
    <glyph glyph-name="uni1EA0" unicode="&#x1ea0;" horiz-adv-x="1351" 
d="M795 1454l432 -1454h-64l-123 418h-749l-209 -418h-68l734 1454h47zM322 477h702l-260 885zM551 -258l10 86h84l-10 -86h-84z" />
    <glyph glyph-name="uni1EA1" unicode="&#x1ea1;" 
d="M580 -20q-98 0 -185.5 31.5t-156.5 91.5t-109.5 156t-40.5 216q0 128 45.5 241t123 194t185.5 128t228 47q160 0 282.5 -78t165.5 -208h6l29 266h57l-110 -1065h-58l27 266h-6q-75 -133 -201 -209.5t-282 -76.5zM147 477q0 -209 123.5 -324.5t309.5 -115.5
q147 0 268.5 74.5t189.5 200.5t68 276q0 106 -34 191t-93.5 138.5t-137 82t-167.5 28.5q-148 0 -269.5 -74.5t-189.5 -200.5t-68 -276zM522 -258l10 86h84l-10 -86h-84z" />
    <glyph glyph-name="uni1EA2" unicode="&#x1ea2;" horiz-adv-x="1351" 
d="M795 1454l432 -1454h-64l-123 418h-749l-209 -418h-68l734 1454h47zM322 477h702l-260 885zM680 1837q43 64 123 64q61 0 98 -36.5t37 -92.5q0 -67 -50 -114.5t-118 -47.5h-55l6 57h43q46 0 78 28.5t32 67.5q0 33 -21.5 55.5t-55.5 22.5q-43 0 -74 -39z" />
    <glyph glyph-name="uni1EA3" unicode="&#x1ea3;" 
d="M580 -20q-98 0 -185.5 31.5t-156.5 91.5t-109.5 156t-40.5 216q0 128 45.5 241t123 194t185.5 128t228 47q160 0 282.5 -78t165.5 -208h6l29 266h57l-110 -1065h-58l27 266h-6q-75 -133 -201 -209.5t-282 -76.5zM147 477q0 -209 123.5 -324.5t309.5 -115.5
q147 0 268.5 74.5t189.5 200.5t68 276q0 106 -34 191t-93.5 138.5t-137 82t-167.5 28.5q-148 0 -269.5 -74.5t-189.5 -200.5t-68 -276zM612 1468q43 64 123 64q61 0 98 -36.5t37 -92.5q0 -67 -50 -114.5t-118 -47.5h-55l6 57h43q46 0 78.5 29t32.5 68q0 33 -21.5 55.5
t-56.5 22.5q-43 0 -74 -39z" />
    <glyph glyph-name="uni1EA4" unicode="&#x1ea4;" horiz-adv-x="1351" 
d="M795 1454l432 -1454h-64l-123 418h-749l-209 -418h-68l734 1454h47zM322 477h702l-260 885zM563 1640l230 244h45l182 -244l-47 -38l-156 213l-205 -213zM934 1823l192 288h72l-192 -288h-72z" />
    <glyph glyph-name="uni1EA5" unicode="&#x1ea5;" 
d="M580 -20q-98 0 -185.5 31.5t-156.5 91.5t-109.5 156t-40.5 216q0 128 45.5 241t123 194t185.5 128t228 47q160 0 282.5 -78t165.5 -208h6l29 266h57l-110 -1065h-58l27 266h-6q-75 -133 -201 -209.5t-282 -76.5zM147 477q0 -209 123.5 -324.5t309.5 -115.5
q147 0 268.5 74.5t189.5 200.5t68 276q0 106 -34 191t-93.5 138.5t-137 82t-167.5 28.5q-148 0 -269.5 -74.5t-189.5 -200.5t-68 -276zM496 1272l229 244h45l182 -244l-47 -39l-155 213l-205 -213zM866 1454l193 289h71l-192 -289h-72z" />
    <glyph glyph-name="uni1EA6" unicode="&#x1ea6;" horiz-adv-x="1351" 
d="M795 1454l432 -1454h-64l-123 418h-749l-209 -418h-68l734 1454h47zM322 477h702l-260 885zM563 1640l230 244h45l182 -244l-47 -38l-156 213l-205 -213zM799 2111h65l183 -288h-68z" />
    <glyph glyph-name="uni1EA7" unicode="&#x1ea7;" 
d="M580 -20q-98 0 -185.5 31.5t-156.5 91.5t-109.5 156t-40.5 216q0 128 45.5 241t123 194t185.5 128t228 47q160 0 282.5 -78t165.5 -208h6l29 266h57l-110 -1065h-58l27 266h-6q-75 -133 -201 -209.5t-282 -76.5zM147 477q0 -209 123.5 -324.5t309.5 -115.5
q147 0 268.5 74.5t189.5 200.5t68 276q0 106 -34 191t-93.5 138.5t-137 82t-167.5 28.5q-148 0 -269.5 -74.5t-189.5 -200.5t-68 -276zM496 1272l229 244h45l182 -244l-47 -39l-155 213l-205 -213zM731 1743h66l182 -289h-68z" />
    <glyph glyph-name="uni1EA8" unicode="&#x1ea8;" horiz-adv-x="1351" 
d="M795 1454l432 -1454h-64l-123 418h-749l-209 -418h-68l734 1454h47zM322 477h702l-260 885zM563 1640l230 244h45l182 -244l-47 -38l-156 213l-205 -213zM889 2046q42 63 123 63q61 0 98 -36.5t37 -92.5q0 -67 -50 -114t-118 -47h-55l6 57h43q46 0 78 28.5t32 67.5
q0 33 -21.5 55.5t-55.5 22.5q-43 0 -74 -39z" />
    <glyph glyph-name="uni1EA9" unicode="&#x1ea9;" 
d="M580 -20q-98 0 -185.5 31.5t-156.5 91.5t-109.5 156t-40.5 216q0 128 45.5 241t123 194t185.5 128t228 47q160 0 282.5 -78t165.5 -208h6l29 266h57l-110 -1065h-58l27 266h-6q-75 -133 -201 -209.5t-282 -76.5zM147 477q0 -209 123.5 -324.5t309.5 -115.5
q147 0 268.5 74.5t189.5 200.5t68 276q0 106 -34 191t-93.5 138.5t-137 82t-167.5 28.5q-148 0 -269.5 -74.5t-189.5 -200.5t-68 -276zM496 1272l229 244h45l182 -244l-47 -39l-155 213l-205 -213zM821 1677q43 64 123 64q61 0 98 -36.5t37 -92.5q0 -67 -50 -114.5
t-118 -47.5h-55l6 57h43q46 0 78.5 29t32.5 68q0 33 -21.5 55t-56.5 22q-43 0 -74 -39z" />
    <glyph glyph-name="uni1EAA" unicode="&#x1eaa;" horiz-adv-x="1351" 
d="M795 1454l432 -1454h-64l-123 418h-749l-209 -418h-68l734 1454h47zM322 477h702l-260 885zM563 1640l230 244h45l182 -244l-47 -38l-156 213l-205 -213zM565 1982q10 83 51 122.5t101 39.5q30 0 54.5 -10t40 -25.5t32 -33t29.5 -33t32.5 -25.5t42.5 -10q39 0 62.5 28
t29.5 74h60q-10 -83 -50 -122t-98 -39q-37 0 -66 14t-47.5 34t-35 39.5t-38.5 33.5t-48 14q-39 0 -63 -28.5t-29 -72.5h-60z" />
    <glyph glyph-name="uni1EAB" unicode="&#x1eab;" 
d="M580 -20q-98 0 -185.5 31.5t-156.5 91.5t-109.5 156t-40.5 216q0 128 45.5 241t123 194t185.5 128t228 47q160 0 282.5 -78t165.5 -208h6l29 266h57l-110 -1065h-58l27 266h-6q-75 -133 -201 -209.5t-282 -76.5zM147 477q0 -209 123.5 -324.5t309.5 -115.5
q147 0 268.5 74.5t189.5 200.5t68 276q0 106 -34 191t-93.5 138.5t-137 82t-167.5 28.5q-148 0 -269.5 -74.5t-189.5 -200.5t-68 -276zM496 1272l229 244h45l182 -244l-47 -39l-155 213l-205 -213zM498 1614q10 83 50.5 122.5t100.5 39.5q35 0 63 -14t46 -34.5t35 -41
t39 -34.5t49 -14q39 0 62.5 28.5t29.5 74.5h59q-10 -83 -49.5 -122.5t-97.5 -39.5q-37 0 -66 14t-47.5 33.5t-35.5 39.5t-39 34t-48 14q-39 0 -63 -28t-29 -72h-59z" />
    <glyph glyph-name="uni1EAC" unicode="&#x1eac;" horiz-adv-x="1351" 
d="M795 1454l432 -1454h-64l-123 418h-749l-209 -418h-68l734 1454h47zM322 477h702l-260 885zM551 -258l10 86h84l-10 -86h-84zM563 1640l230 244h45l182 -244l-47 -38l-156 213l-205 -213z" />
    <glyph glyph-name="uni1EAD" unicode="&#x1ead;" 
d="M580 -20q-98 0 -185.5 31.5t-156.5 91.5t-109.5 156t-40.5 216q0 128 45.5 241t123 194t185.5 128t228 47q160 0 282.5 -78t165.5 -208h6l29 266h57l-110 -1065h-58l27 266h-6q-75 -133 -201 -209.5t-282 -76.5zM147 477q0 -209 123.5 -324.5t309.5 -115.5
q147 0 268.5 74.5t189.5 200.5t68 276q0 106 -34 191t-93.5 138.5t-137 82t-167.5 28.5q-148 0 -269.5 -74.5t-189.5 -200.5t-68 -276zM496 1272l229 244h45l182 -244l-47 -39l-155 213l-205 -213zM522 -258l10 86h84l-10 -86h-84z" />
    <glyph glyph-name="uni1EAE" unicode="&#x1eae;" horiz-adv-x="1351" 
d="M795 1454l432 -1454h-64l-123 418h-749l-209 -418h-68l734 1454h47zM322 477h702l-260 885zM559 1884h64q-7 -80 37.5 -137t146.5 -57t155.5 56.5t63.5 137.5h66q-10 -106 -85 -184t-206 -78q-67 0 -118 23t-79 60.5t-39.5 83.5t-5.5 95zM735 1817l156 294h72l-158 -294
h-70z" />
    <glyph glyph-name="uni1EAF" unicode="&#x1eaf;" 
d="M580 -20q-98 0 -185.5 31.5t-156.5 91.5t-109.5 156t-40.5 216q0 128 45.5 241t123 194t185.5 128t228 47q160 0 282.5 -78t165.5 -208h6l29 266h57l-110 -1065h-58l27 266h-6q-75 -133 -201 -209.5t-282 -76.5zM147 477q0 -209 123.5 -324.5t309.5 -115.5
q147 0 268.5 74.5t189.5 200.5t68 276q0 106 -34 191t-93.5 138.5t-137 82t-167.5 28.5q-148 0 -269.5 -74.5t-189.5 -200.5t-68 -276zM492 1516h63q-7 -80 37.5 -137.5t146.5 -57.5q101 0 155 57t64 138h66q-5 -49 -25 -94.5t-54 -84t-89 -61.5t-123 -23q-88 0 -147.5 40
t-80.5 98t-13 125zM668 1448l155 295h72l-158 -295h-69z" />
    <glyph glyph-name="uni1EB0" unicode="&#x1eb0;" horiz-adv-x="1351" 
d="M795 1454l432 -1454h-64l-123 418h-749l-209 -418h-68l734 1454h47zM322 477h702l-260 885zM559 1884h64q-7 -80 37.5 -137t146.5 -57t155.5 56.5t63.5 137.5h66q-10 -106 -85 -184t-206 -78q-67 0 -118 23t-79 60.5t-39.5 83.5t-5.5 95zM664 2136h71l160 -319h-72z" />
    <glyph glyph-name="uni1EB1" unicode="&#x1eb1;" 
d="M580 -20q-98 0 -185.5 31.5t-156.5 91.5t-109.5 156t-40.5 216q0 128 45.5 241t123 194t185.5 128t228 47q160 0 282.5 -78t165.5 -208h6l29 266h57l-110 -1065h-58l27 266h-6q-75 -133 -201 -209.5t-282 -76.5zM147 477q0 -209 123.5 -324.5t309.5 -115.5
q147 0 268.5 74.5t189.5 200.5t68 276q0 106 -34 191t-93.5 138.5t-137 82t-167.5 28.5q-148 0 -269.5 -74.5t-189.5 -200.5t-68 -276zM492 1516h63q-7 -80 37.5 -137.5t146.5 -57.5q101 0 155 57t64 138h66q-5 -49 -25 -94.5t-54 -84t-89 -61.5t-123 -23q-88 0 -147.5 40
t-80.5 98t-13 125zM596 1767h72l159 -319h-71z" />
    <glyph glyph-name="uni1EB2" unicode="&#x1eb2;" horiz-adv-x="1351" 
d="M795 1454l432 -1454h-64l-123 418h-749l-209 -418h-68l734 1454h47zM322 477h702l-260 885zM559 1884h64q-7 -80 37.5 -137t146.5 -57t155.5 56.5t63.5 137.5h66q-10 -106 -85 -184t-206 -78q-67 0 -118 23t-79 60.5t-39.5 83.5t-5.5 95zM686 2046q42 63 123 63
q61 0 98 -36.5t37 -92.5q0 -67 -50 -114t-118 -47h-55l6 57h43q47 0 79 28.5t32 67.5q0 33 -21.5 55.5t-56.5 22.5q-43 0 -74 -39z" />
    <glyph glyph-name="uni1EB3" unicode="&#x1eb3;" 
d="M580 -20q-98 0 -185.5 31.5t-156.5 91.5t-109.5 156t-40.5 216q0 128 45.5 241t123 194t185.5 128t228 47q160 0 282.5 -78t165.5 -208h6l29 266h57l-110 -1065h-58l27 266h-6q-75 -133 -201 -209.5t-282 -76.5zM147 477q0 -209 123.5 -324.5t309.5 -115.5
q147 0 268.5 74.5t189.5 200.5t68 276q0 106 -34 191t-93.5 138.5t-137 82t-167.5 28.5q-148 0 -269.5 -74.5t-189.5 -200.5t-68 -276zM492 1516h63q-7 -80 37.5 -137.5t146.5 -57.5q101 0 155 57t64 138h66q-5 -49 -25 -94.5t-54 -84t-89 -61.5t-123 -23q-88 0 -147.5 40
t-80.5 98t-13 125zM618 1677q43 64 123 64q61 0 98.5 -36.5t37.5 -92.5q0 -67 -50 -114.5t-118 -47.5h-56l6 57h43q46 0 78.5 29t32.5 68q0 33 -21.5 55t-56.5 22q-42 0 -73 -39z" />
    <glyph glyph-name="uni1EB4" unicode="&#x1eb4;" horiz-adv-x="1351" 
d="M795 1454l432 -1454h-64l-123 418h-749l-209 -418h-68l734 1454h47zM322 477h702l-260 885zM559 1884h64q-7 -80 37.5 -137t146.5 -57t155.5 56.5t63.5 137.5h66q-10 -106 -85 -184t-206 -78q-67 0 -118 23t-79 60.5t-39.5 83.5t-5.5 95zM573 1946q10 83 51 122t101 39
q35 0 63 -14t46 -34.5t34.5 -40.5t38.5 -34t49 -14q39 0 63 28.5t30 74.5h59q-10 -83 -49.5 -122.5t-97.5 -39.5q-37 0 -66 14t-47.5 33.5t-35.5 39.5t-39 34t-48 14q-39 0 -63 -28t-29 -72h-60z" />
    <glyph glyph-name="uni1EB5" unicode="&#x1eb5;" 
d="M580 -20q-98 0 -185.5 31.5t-156.5 91.5t-109.5 156t-40.5 216q0 128 45.5 241t123 194t185.5 128t228 47q160 0 282.5 -78t165.5 -208h6l29 266h57l-110 -1065h-58l27 266h-6q-75 -133 -201 -209.5t-282 -76.5zM147 477q0 -209 123.5 -324.5t309.5 -115.5
q147 0 268.5 74.5t189.5 200.5t68 276q0 106 -34 191t-93.5 138.5t-137 82t-167.5 28.5q-148 0 -269.5 -74.5t-189.5 -200.5t-68 -276zM492 1516h63q-7 -80 37.5 -137.5t146.5 -57.5q101 0 155 57t64 138h66q-5 -49 -25 -94.5t-54 -84t-89 -61.5t-123 -23q-88 0 -147.5 40
t-80.5 98t-13 125zM506 1577q10 83 50.5 122.5t100.5 39.5q35 0 63 -14t46 -34.5t35 -40.5t39 -34t49 -14q39 0 62.5 28t29.5 74h59q-10 -83 -49.5 -122.5t-97.5 -39.5q-37 0 -66 14t-47.5 34t-35.5 39.5t-39 33.5t-48 14q-39 0 -63 -28t-29 -72h-59z" />
    <glyph glyph-name="uni1EB6" unicode="&#x1eb6;" horiz-adv-x="1351" 
d="M795 1454l432 -1454h-64l-123 418h-749l-209 -418h-68l734 1454h47zM322 477h702l-260 885zM551 -258l10 86h84l-10 -86h-84zM559 1884h64q-7 -80 37.5 -137t146.5 -57t155.5 56.5t63.5 137.5h66q-10 -106 -85 -184t-206 -78q-67 0 -118 23t-79 60.5t-39.5 83.5t-5.5 95z
" />
    <glyph glyph-name="uni1EB7" unicode="&#x1eb7;" 
d="M580 -20q-98 0 -185.5 31.5t-156.5 91.5t-109.5 156t-40.5 216q0 128 45.5 241t123 194t185.5 128t228 47q160 0 282.5 -78t165.5 -208h6l29 266h57l-110 -1065h-58l27 266h-6q-75 -133 -201 -209.5t-282 -76.5zM147 477q0 -209 123.5 -324.5t309.5 -115.5
q147 0 268.5 74.5t189.5 200.5t68 276q0 106 -34 191t-93.5 138.5t-137 82t-167.5 28.5q-148 0 -269.5 -74.5t-189.5 -200.5t-68 -276zM492 1516h63q-7 -80 37.5 -137.5t146.5 -57.5q101 0 155 57t64 138h66q-5 -49 -25 -94.5t-54 -84t-89 -61.5t-123 -23q-88 0 -147.5 40
t-80.5 98t-13 125zM522 -258l10 86h84l-10 -86h-84z" />
    <glyph glyph-name="uni1EB8" unicode="&#x1eb8;" horiz-adv-x="999" 
d="M86 0l152 1454h731l-6 -59h-672l-66 -635h578l-6 -60h-578l-67 -641h690l-6 -59h-750zM391 -258l10 86h84l-10 -86h-84z" />
    <glyph glyph-name="uni1EB9" unicode="&#x1eb9;" horiz-adv-x="1202" 
d="M575 -20q-100 0 -187.5 31.5t-154.5 91.5t-106 155t-39 213q0 168 75.5 309t207.5 223t291 82q105 0 195 -37.5t155 -107.5t92.5 -180.5t5.5 -245.5h-960v-35q0 -106 34 -191t94 -138.5t138.5 -82t169.5 -28.5q113 0 213 43t166 121l43 -37q-82 -92 -195.5 -139
t-237.5 -47zM156 571h907q10 105 -18.5 192t-85 144t-134 88t-166.5 31q-192 0 -332 -128.5t-171 -326.5zM479 -258l10 86h84l-10 -86h-84z" />
    <glyph glyph-name="uni1EBA" unicode="&#x1eba;" horiz-adv-x="999" 
d="M86 0l152 1454h731l-6 -59h-672l-66 -635h578l-6 -60h-578l-67 -641h690l-6 -59h-750zM524 1858q42 63 123 63q61 0 98 -36.5t37 -92.5q0 -67 -50 -114.5t-118 -47.5h-55l6 58h43q47 0 79 28.5t32 67.5q0 33 -21.5 55.5t-56.5 22.5q-43 0 -74 -39z" />
    <glyph glyph-name="uni1EBB" unicode="&#x1ebb;" horiz-adv-x="1202" 
d="M575 -20q-100 0 -187.5 31.5t-154.5 91.5t-106 155t-39 213q0 168 75.5 309t207.5 223t291 82q105 0 195 -37.5t155 -107.5t92.5 -180.5t5.5 -245.5h-960v-35q0 -106 34 -191t94 -138.5t138.5 -82t169.5 -28.5q113 0 213 43t166 121l43 -37q-82 -92 -195.5 -139
t-237.5 -47zM156 571h907q10 105 -18.5 192t-85 144t-134 88t-166.5 31q-192 0 -332 -128.5t-171 -326.5zM571 1468q43 64 123 64q61 0 98 -36.5t37 -92.5q0 -67 -49.5 -114.5t-117.5 -47.5h-56l6 57h43q46 0 78.5 29t32.5 68q0 33 -21.5 55.5t-56.5 22.5q-43 0 -74 -39z
" />
    <glyph glyph-name="uni1EBC" unicode="&#x1ebc;" horiz-adv-x="999" 
d="M86 0l152 1454h731l-6 -59h-672l-66 -635h578l-6 -60h-578l-67 -641h690l-6 -59h-750zM379 1669q10 83 50.5 122.5t100.5 39.5q35 0 63 -14t46 -34.5t35 -40.5t39 -34t49 -14q39 0 62.5 28t29.5 74h59q-10 -83 -49.5 -122.5t-97.5 -39.5q-37 0 -66 14t-47.5 34
t-35.5 39.5t-39 33.5t-48 14q-39 0 -63 -28t-29 -72h-59z" />
    <glyph glyph-name="uni1EBD" unicode="&#x1ebd;" horiz-adv-x="1202" 
d="M575 -20q-100 0 -187.5 31.5t-154.5 91.5t-106 155t-39 213q0 168 75.5 309t207.5 223t291 82q105 0 195 -37.5t155 -107.5t92.5 -180.5t5.5 -245.5h-960v-35q0 -106 34 -191t94 -138.5t138.5 -82t169.5 -28.5q113 0 213 43t166 121l43 -37q-82 -92 -195.5 -139
t-237.5 -47zM156 571h907q10 105 -18.5 192t-85 144t-134 88t-166.5 31q-192 0 -332 -128.5t-171 -326.5zM428 1280q10 83 51 122.5t101 39.5q30 0 54.5 -10t40 -25.5t32 -33t29.5 -33t32.5 -25.5t42.5 -10q39 0 62.5 28t29.5 74h60q-10 -83 -50 -122.5t-98 -39.5
q-37 0 -66 14t-47.5 33.5t-35 39.5t-38.5 34t-48 14q-40 0 -64 -28t-29 -72h-59z" />
    <glyph glyph-name="uni1EBE" unicode="&#x1ebe;" horiz-adv-x="999" 
d="M86 0l152 1454h731l-6 -59h-672l-66 -635h578l-6 -60h-578l-67 -641h690l-6 -59h-750zM408 1661l229 244h45l182 -244l-47 -39l-155 213l-205 -213zM778 1843l193 289h71l-192 -289h-72z" />
    <glyph glyph-name="uni1EBF" unicode="&#x1ebf;" horiz-adv-x="1202" 
d="M575 -20q-100 0 -187.5 31.5t-154.5 91.5t-106 155t-39 213q0 168 75.5 309t207.5 223t291 82q105 0 195 -37.5t155 -107.5t92.5 -180.5t5.5 -245.5h-960v-35q0 -106 34 -191t94 -138.5t138.5 -82t169.5 -28.5q113 0 213 43t166 121l43 -37q-82 -92 -195.5 -139
t-237.5 -47zM156 571h907q10 105 -18.5 192t-85 144t-134 88t-166.5 31q-192 0 -332 -128.5t-171 -326.5zM455 1272l229 244h45l182 -244l-47 -39l-155 213l-205 -213zM825 1454l193 289h72l-193 -289h-72z" />
    <glyph glyph-name="uni1EC0" unicode="&#x1ec0;" horiz-adv-x="999" 
d="M86 0l152 1454h731l-6 -59h-672l-66 -635h578l-6 -60h-578l-67 -641h690l-6 -59h-750zM408 1661l229 244h45l182 -244l-47 -39l-155 213l-205 -213zM643 2132h66l182 -289h-68z" />
    <glyph glyph-name="uni1EC1" unicode="&#x1ec1;" horiz-adv-x="1202" 
d="M575 -20q-100 0 -187.5 31.5t-154.5 91.5t-106 155t-39 213q0 168 75.5 309t207.5 223t291 82q105 0 195 -37.5t155 -107.5t92.5 -180.5t5.5 -245.5h-960v-35q0 -106 34 -191t94 -138.5t138.5 -82t169.5 -28.5q113 0 213 43t166 121l43 -37q-82 -92 -195.5 -139
t-237.5 -47zM156 571h907q10 105 -18.5 192t-85 144t-134 88t-166.5 31q-192 0 -332 -128.5t-171 -326.5zM455 1272l229 244h45l182 -244l-47 -39l-155 213l-205 -213zM690 1743h66l182 -289h-68z" />
    <glyph glyph-name="uni1EC2" unicode="&#x1ec2;" horiz-adv-x="999" 
d="M86 0l152 1454h731l-6 -59h-672l-66 -635h578l-6 -60h-578l-67 -641h690l-6 -59h-750zM408 1661l229 244h45l182 -244l-47 -39l-155 213l-205 -213zM733 2066q43 64 123 64q61 0 98 -36.5t37 -92.5q0 -67 -50 -114.5t-118 -47.5h-55l6 57h43q46 0 78.5 29t32.5 68
q0 33 -21.5 55.5t-56.5 22.5q-43 0 -74 -39z" />
    <glyph glyph-name="uni1EC3" unicode="&#x1ec3;" horiz-adv-x="1202" 
d="M575 -20q-100 0 -187.5 31.5t-154.5 91.5t-106 155t-39 213q0 168 75.5 309t207.5 223t291 82q105 0 195 -37.5t155 -107.5t92.5 -180.5t5.5 -245.5h-960v-35q0 -106 34 -191t94 -138.5t138.5 -82t169.5 -28.5q113 0 213 43t166 121l43 -37q-82 -92 -195.5 -139
t-237.5 -47zM156 571h907q10 105 -18.5 192t-85 144t-134 88t-166.5 31q-192 0 -332 -128.5t-171 -326.5zM455 1272l229 244h45l182 -244l-47 -39l-155 213l-205 -213zM780 1677q43 64 123 64q61 0 98 -36.5t37 -92.5q0 -67 -50 -114.5t-118 -47.5h-55l6 57h43q46 0 78.5 29
t32.5 68q0 33 -21.5 55t-56.5 22q-43 0 -74 -39z" />
    <glyph glyph-name="uni1EC4" unicode="&#x1ec4;" horiz-adv-x="999" 
d="M86 0l152 1454h731l-6 -59h-672l-66 -635h578l-6 -60h-578l-67 -641h690l-6 -59h-750zM408 1661l229 244h45l182 -244l-47 -39l-155 213l-205 -213zM410 2003q10 83 50.5 122.5t100.5 39.5q35 0 63 -14t46 -34.5t35 -40.5t39 -34t49 -14q39 0 62.5 28t29.5 74h59
q-10 -83 -49.5 -122.5t-97.5 -39.5q-37 0 -66 14t-47.5 34t-35.5 39.5t-39 33.5t-48 14q-39 0 -63 -28t-29 -72h-59z" />
    <glyph glyph-name="uni1EC5" unicode="&#x1ec5;" horiz-adv-x="1202" 
d="M575 -20q-100 0 -187.5 31.5t-154.5 91.5t-106 155t-39 213q0 168 75.5 309t207.5 223t291 82q105 0 195 -37.5t155 -107.5t92.5 -180.5t5.5 -245.5h-960v-35q0 -106 34 -191t94 -138.5t138.5 -82t169.5 -28.5q113 0 213 43t166 121l43 -37q-82 -92 -195.5 -139
t-237.5 -47zM156 571h907q10 105 -18.5 192t-85 144t-134 88t-166.5 31q-192 0 -332 -128.5t-171 -326.5zM455 1272l229 244h45l182 -244l-47 -39l-155 213l-205 -213zM457 1614q10 83 50.5 122.5t100.5 39.5q35 0 63 -14t46 -34.5t35 -41t39 -34.5t49 -14q39 0 62.5 28.5
t29.5 74.5h59q-10 -83 -49.5 -122.5t-97.5 -39.5q-37 0 -66 14t-47.5 33.5t-35.5 39.5t-39 34t-48 14q-39 0 -63 -28t-29 -72h-59z" />
    <glyph glyph-name="uni1EC6" unicode="&#x1ec6;" horiz-adv-x="999" 
d="M86 0l152 1454h731l-6 -59h-672l-66 -635h578l-6 -60h-578l-67 -641h690l-6 -59h-750zM391 -258l10 86h84l-10 -86h-84zM408 1661l229 244h45l182 -244l-47 -39l-155 213l-205 -213z" />
    <glyph glyph-name="uni1EC7" unicode="&#x1ec7;" horiz-adv-x="1202" 
d="M575 -20q-100 0 -187.5 31.5t-154.5 91.5t-106 155t-39 213q0 168 75.5 309t207.5 223t291 82q105 0 195 -37.5t155 -107.5t92.5 -180.5t5.5 -245.5h-960v-35q0 -106 34 -191t94 -138.5t138.5 -82t169.5 -28.5q113 0 213 43t166 121l43 -37q-82 -92 -195.5 -139
t-237.5 -47zM156 571h907q10 105 -18.5 192t-85 144t-134 88t-166.5 31q-192 0 -332 -128.5t-171 -326.5zM455 1272l229 244h45l182 -244l-47 -39l-155 213l-205 -213zM479 -258l10 86h84l-10 -86h-84z" />
    <glyph glyph-name="uni1EC8" unicode="&#x1ec8;" horiz-adv-x="342" 
d="M86 0l154 1454h59l-154 -1454h-59zM178 1858q42 63 123 63q61 0 98 -36.5t37 -92.5q0 -67 -50 -114.5t-118 -47.5h-55l6 58h43q47 0 79 28.5t32 67.5q0 33 -21.5 55.5t-56.5 22.5q-43 0 -74 -39z" />
    <glyph glyph-name="uni1EC9" unicode="&#x1ec9;" horiz-adv-x="339" 
d="M86 0l113 1065h57l-113 -1065h-57zM139 1468q43 64 123 64q61 0 98 -36.5t37 -92.5q0 -67 -50 -114.5t-118 -47.5h-55l6 57h43q46 0 78.5 29t32.5 68q0 33 -21.5 55.5t-56.5 22.5q-43 0 -74 -39z" />
    <glyph glyph-name="uni1ECA" unicode="&#x1eca;" horiz-adv-x="342" 
d="M86 0l154 1454h59l-154 -1454h-59zM45 -258l10 86h84l-10 -86h-84z" />
    <glyph glyph-name="uni1ECB" unicode="&#x1ecb;" horiz-adv-x="342" 
d="M86 0l111 1065h57l-111 -1065h-57zM45 -258l10 86h84l-10 -86h-84zM229 1384l11 70h57l-8 -70h-60z" />
    <glyph glyph-name="uni1ECC" unicode="&#x1ecc;" horiz-adv-x="1693" 
d="M803 -20q-182 0 -332.5 81t-242 236t-91.5 354q0 166 64 319t171.5 263.5t254.5 176t305 65.5q135 0 256.5 -48t212.5 -133.5t144.5 -213t53.5 -277.5q0 -166 -64.5 -319t-172 -263t-254 -175.5t-305.5 -65.5zM197 653q0 -139 48.5 -255.5t131.5 -194.5t193 -121t233 -43
q146 0 282 61t235 163.5t158.5 243.5t59.5 294q0 139 -48.5 255.5t-131.5 194.5t-193 121t-233 43q-146 0 -282 -61t-235 -163.5t-158.5 -243.5t-59.5 -294zM723 -258l10 86h84l-10 -86h-84z" />
    <glyph glyph-name="uni1ECD" unicode="&#x1ecd;" horiz-adv-x="1245" 
d="M565 -20q-86 0 -170 31.5t-154.5 90.5t-113.5 153.5t-43 209.5q0 169 80.5 312t217 225.5t296.5 82.5q86 0 170 -31.5t154.5 -90.5t113.5 -154t43 -211q0 -168 -80.5 -310.5t-217 -225t-296.5 -82.5zM141 467q0 -105 39 -190t102.5 -136.5t139.5 -78.5t156 -27
q66 0 137 21.5t140.5 68t124 110.5t88.5 158t34 203q0 86 -25.5 158.5t-68.5 122.5t-99.5 85t-118 51.5t-124.5 16.5q-66 0 -137 -21.5t-140.5 -68t-124.5 -111t-89 -159t-34 -203.5zM549 -258l10 86h84l-10 -86h-84z" />
    <glyph glyph-name="uni1ECE" unicode="&#x1ece;" horiz-adv-x="1693" 
d="M803 -20q-182 0 -332.5 81t-242 236t-91.5 354q0 166 64 319t171.5 263.5t254.5 176t305 65.5q135 0 256.5 -48t212.5 -133.5t144.5 -213t53.5 -277.5q0 -166 -64.5 -319t-172 -263t-254 -175.5t-305.5 -65.5zM197 653q0 -139 48.5 -255.5t131.5 -194.5t193 -121t233 -43
q146 0 282 61t235 163.5t158.5 243.5t59.5 294q0 139 -48.5 255.5t-131.5 194.5t-193 121t-233 43q-146 0 -282 -61t-235 -163.5t-158.5 -243.5t-59.5 -294zM852 1858q42 63 123 63q61 0 98 -36.5t37 -92.5q0 -67 -50 -114.5t-118 -47.5h-55l6 58h43q47 0 79 28.5t32 67.5
q0 33 -21.5 55.5t-56.5 22.5q-43 0 -74 -39z" />
    <glyph glyph-name="uni1ECF" unicode="&#x1ecf;" horiz-adv-x="1245" 
d="M565 -20q-86 0 -170 31.5t-154.5 90.5t-113.5 153.5t-43 209.5q0 169 80.5 312t217 225.5t296.5 82.5q86 0 170 -31.5t154.5 -90.5t113.5 -154t43 -211q0 -168 -80.5 -310.5t-217 -225t-296.5 -82.5zM141 467q0 -105 39 -190t102.5 -136.5t139.5 -78.5t156 -27
q66 0 137 21.5t140.5 68t124 110.5t88.5 158t34 203q0 86 -25.5 158.5t-68.5 122.5t-99.5 85t-118 51.5t-124.5 16.5q-66 0 -137 -21.5t-140.5 -68t-124.5 -111t-89 -159t-34 -203.5zM588 1468q43 64 123 64q61 0 98 -36.5t37 -92.5q0 -67 -50 -114.5t-118 -47.5h-55l6 57
h43q46 0 78 29t32 68q0 33 -21.5 55.5t-55.5 22.5q-43 0 -74 -39z" />
    <glyph glyph-name="uni1ED0" unicode="&#x1ed0;" horiz-adv-x="1693" 
d="M803 -20q-182 0 -332.5 81t-242 236t-91.5 354q0 166 64 319t171.5 263.5t254.5 176t305 65.5q135 0 256.5 -48t212.5 -133.5t144.5 -213t53.5 -277.5q0 -166 -64.5 -319t-172 -263t-254 -175.5t-305.5 -65.5zM197 653q0 -139 48.5 -255.5t131.5 -194.5t193 -121t233 -43
q146 0 282 61t235 163.5t158.5 243.5t59.5 294q0 139 -48.5 255.5t-131.5 194.5t-193 121t-233 43q-146 0 -282 -61t-235 -163.5t-158.5 -243.5t-59.5 -294zM735 1661l230 244h45l182 -244l-47 -39l-156 213l-205 -213zM1106 1843l192 289h72l-192 -289h-72z" />
    <glyph glyph-name="uni1ED1" unicode="&#x1ed1;" horiz-adv-x="1245" 
d="M565 -20q-86 0 -170 31.5t-154.5 90.5t-113.5 153.5t-43 209.5q0 169 80.5 312t217 225.5t296.5 82.5q86 0 170 -31.5t154.5 -90.5t113.5 -154t43 -211q0 -168 -80.5 -310.5t-217 -225t-296.5 -82.5zM141 467q0 -105 39 -190t102.5 -136.5t139.5 -78.5t156 -27
q66 0 137 21.5t140.5 68t124 110.5t88.5 158t34 203q0 86 -25.5 158.5t-68.5 122.5t-99.5 85t-118 51.5t-124.5 16.5q-66 0 -137 -21.5t-140.5 -68t-124.5 -111t-89 -159t-34 -203.5zM471 1272l229 244h45l183 -244l-47 -39l-156 213l-205 -213zM842 1454l192 289h72
l-193 -289h-71z" />
    <glyph glyph-name="uni1ED2" unicode="&#x1ed2;" horiz-adv-x="1693" 
d="M803 -20q-182 0 -332.5 81t-242 236t-91.5 354q0 166 64 319t171.5 263.5t254.5 176t305 65.5q135 0 256.5 -48t212.5 -133.5t144.5 -213t53.5 -277.5q0 -166 -64.5 -319t-172 -263t-254 -175.5t-305.5 -65.5zM197 653q0 -139 48.5 -255.5t131.5 -194.5t193 -121t233 -43
q146 0 282 61t235 163.5t158.5 243.5t59.5 294q0 139 -48.5 255.5t-131.5 194.5t-193 121t-233 43q-146 0 -282 -61t-235 -163.5t-158.5 -243.5t-59.5 -294zM735 1661l230 244h45l182 -244l-47 -39l-156 213l-205 -213zM971 2132h65l183 -289h-68z" />
    <glyph glyph-name="uni1ED3" unicode="&#x1ed3;" horiz-adv-x="1245" 
d="M565 -20q-86 0 -170 31.5t-154.5 90.5t-113.5 153.5t-43 209.5q0 169 80.5 312t217 225.5t296.5 82.5q86 0 170 -31.5t154.5 -90.5t113.5 -154t43 -211q0 -168 -80.5 -310.5t-217 -225t-296.5 -82.5zM141 467q0 -105 39 -190t102.5 -136.5t139.5 -78.5t156 -27
q66 0 137 21.5t140.5 68t124 110.5t88.5 158t34 203q0 86 -25.5 158.5t-68.5 122.5t-99.5 85t-118 51.5t-124.5 16.5q-66 0 -137 -21.5t-140.5 -68t-124.5 -111t-89 -159t-34 -203.5zM471 1272l229 244h45l183 -244l-47 -39l-156 213l-205 -213zM707 1743h65l182 -289h-67z
" />
    <glyph glyph-name="uni1ED4" unicode="&#x1ed4;" horiz-adv-x="1693" 
d="M803 -20q-182 0 -332.5 81t-242 236t-91.5 354q0 166 64 319t171.5 263.5t254.5 176t305 65.5q135 0 256.5 -48t212.5 -133.5t144.5 -213t53.5 -277.5q0 -166 -64.5 -319t-172 -263t-254 -175.5t-305.5 -65.5zM197 653q0 -139 48.5 -255.5t131.5 -194.5t193 -121t233 -43
q146 0 282 61t235 163.5t158.5 243.5t59.5 294q0 139 -48.5 255.5t-131.5 194.5t-193 121t-233 43q-146 0 -282 -61t-235 -163.5t-158.5 -243.5t-59.5 -294zM735 1661l230 244h45l182 -244l-47 -39l-156 213l-205 -213zM1061 2066q43 64 123 64q61 0 98 -36.5t37 -92.5
q0 -67 -50 -114.5t-118 -47.5h-55l6 57h43q46 0 78 29t32 68q0 33 -21.5 55.5t-55.5 22.5q-43 0 -74 -39z" />
    <glyph glyph-name="uni1ED5" unicode="&#x1ed5;" horiz-adv-x="1245" 
d="M565 -20q-86 0 -170 31.5t-154.5 90.5t-113.5 153.5t-43 209.5q0 169 80.5 312t217 225.5t296.5 82.5q86 0 170 -31.5t154.5 -90.5t113.5 -154t43 -211q0 -168 -80.5 -310.5t-217 -225t-296.5 -82.5zM141 467q0 -105 39 -190t102.5 -136.5t139.5 -78.5t156 -27
q66 0 137 21.5t140.5 68t124 110.5t88.5 158t34 203q0 86 -25.5 158.5t-68.5 122.5t-99.5 85t-118 51.5t-124.5 16.5q-66 0 -137 -21.5t-140.5 -68t-124.5 -111t-89 -159t-34 -203.5zM471 1272l229 244h45l183 -244l-47 -39l-156 213l-205 -213zM797 1677q43 64 123 64
q61 0 98 -36.5t37 -92.5q0 -67 -50 -114.5t-118 -47.5h-56l7 57h43q46 0 78 29t32 68q0 33 -21.5 55t-56.5 22q-42 0 -73 -39z" />
    <glyph glyph-name="uni1ED6" unicode="&#x1ed6;" horiz-adv-x="1693" 
d="M803 -20q-182 0 -332.5 81t-242 236t-91.5 354q0 166 64 319t171.5 263.5t254.5 176t305 65.5q135 0 256.5 -48t212.5 -133.5t144.5 -213t53.5 -277.5q0 -166 -64.5 -319t-172 -263t-254 -175.5t-305.5 -65.5zM197 653q0 -139 48.5 -255.5t131.5 -194.5t193 -121t233 -43
q146 0 282 61t235 163.5t158.5 243.5t59.5 294q0 139 -48.5 255.5t-131.5 194.5t-193 121t-233 43q-146 0 -282 -61t-235 -163.5t-158.5 -243.5t-59.5 -294zM735 1661l230 244h45l182 -244l-47 -39l-156 213l-205 -213zM737 2003q10 83 51 122.5t101 39.5q35 0 63 -14
t46 -34.5t34.5 -40.5t38.5 -34t49 -14q39 0 62.5 28t29.5 74h60q-10 -83 -50 -122.5t-98 -39.5q-37 0 -66 14t-47.5 34t-35 39.5t-38.5 33.5t-48 14q-39 0 -63 -28t-29 -72h-60z" />
    <glyph glyph-name="uni1ED7" unicode="&#x1ed7;" horiz-adv-x="1245" 
d="M565 -20q-86 0 -170 31.5t-154.5 90.5t-113.5 153.5t-43 209.5q0 169 80.5 312t217 225.5t296.5 82.5q86 0 170 -31.5t154.5 -90.5t113.5 -154t43 -211q0 -168 -80.5 -310.5t-217 -225t-296.5 -82.5zM141 467q0 -105 39 -190t102.5 -136.5t139.5 -78.5t156 -27
q66 0 137 21.5t140.5 68t124 110.5t88.5 158t34 203q0 86 -25.5 158.5t-68.5 122.5t-99.5 85t-118 51.5t-124.5 16.5q-66 0 -137 -21.5t-140.5 -68t-124.5 -111t-89 -159t-34 -203.5zM471 1272l229 244h45l183 -244l-47 -39l-156 213l-205 -213zM473 1614q10 83 51 122.5
t101 39.5q35 0 63 -14t46 -34.5t34.5 -41t38.5 -34.5t49 -14q39 0 62.5 28.5t29.5 74.5h60q-10 -83 -50 -122.5t-98 -39.5q-37 0 -66 14t-47.5 33.5t-35 39.5t-38.5 34t-48 14q-40 0 -64 -28t-29 -72h-59z" />
    <glyph glyph-name="uni1ED8" unicode="&#x1ed8;" horiz-adv-x="1693" 
d="M803 -20q-182 0 -332.5 81t-242 236t-91.5 354q0 166 64 319t171.5 263.5t254.5 176t305 65.5q135 0 256.5 -48t212.5 -133.5t144.5 -213t53.5 -277.5q0 -166 -64.5 -319t-172 -263t-254 -175.5t-305.5 -65.5zM197 653q0 -139 48.5 -255.5t131.5 -194.5t193 -121t233 -43
q146 0 282 61t235 163.5t158.5 243.5t59.5 294q0 139 -48.5 255.5t-131.5 194.5t-193 121t-233 43q-146 0 -282 -61t-235 -163.5t-158.5 -243.5t-59.5 -294zM723 -258l10 86h84l-10 -86h-84zM735 1661l230 244h45l182 -244l-47 -39l-156 213l-205 -213z" />
    <glyph glyph-name="uni1ED9" unicode="&#x1ed9;" horiz-adv-x="1245" 
d="M565 -20q-86 0 -170 31.5t-154.5 90.5t-113.5 153.5t-43 209.5q0 169 80.5 312t217 225.5t296.5 82.5q86 0 170 -31.5t154.5 -90.5t113.5 -154t43 -211q0 -168 -80.5 -310.5t-217 -225t-296.5 -82.5zM141 467q0 -105 39 -190t102.5 -136.5t139.5 -78.5t156 -27
q66 0 137 21.5t140.5 68t124 110.5t88.5 158t34 203q0 86 -25.5 158.5t-68.5 122.5t-99.5 85t-118 51.5t-124.5 16.5q-66 0 -137 -21.5t-140.5 -68t-124.5 -111t-89 -159t-34 -203.5zM471 1272l229 244h45l183 -244l-47 -39l-156 213l-205 -213zM549 -258l10 86h84l-10 -86
h-84z" />
    <glyph glyph-name="uni1EDA" unicode="&#x1eda;" horiz-adv-x="1693" 
d="M803 -20q-182 0 -332.5 81t-242 236t-91.5 354q0 166 64 319t171.5 263.5t254.5 176t305 65.5h364q85 0 125 35.5t47 119.5l5 39h65l-4 -51q-11 -91 -69 -147t-144 -56h-102q173 -78 276.5 -237.5t103.5 -374.5q0 -166 -64.5 -319t-172 -263t-254 -175.5t-305.5 -65.5z
M197 653q0 -139 48.5 -255.5t131.5 -194.5t193 -121t233 -43q146 0 282 61t235 163.5t158.5 243.5t59.5 294q0 139 -48.5 255.5t-131.5 194.5t-193 121t-233 43q-146 0 -282 -61t-235 -163.5t-158.5 -243.5t-59.5 -294zM918 1591l153 314h70l-156 -314h-67z" />
    <glyph glyph-name="uni1EDB" unicode="&#x1edb;" horiz-adv-x="1245" 
d="M672 1026v4h-6q-66 0 -137 -21.5t-140.5 -68t-124.5 -111t-89 -159t-34 -203.5q0 -105 39 -190t102.5 -136.5t139.5 -78.5t156 -27q66 0 137 21.5t140.5 68t124 110.5t88.5 158t34 203q0 96 -32 175t-85.5 131t-119 83t-138.5 41h-55zM84 465q0 169 80.5 312t217 225.5
t296.5 82.5h307q85 0 125 36t47 120l4 39h66l-4 -51q-9 -91 -67.5 -147t-143.5 -56h-101q112 -59 180 -168.5t68 -259.5q0 -168 -80.5 -310.5t-217 -225t-296.5 -82.5q-86 0 -170 31.5t-154.5 90.5t-113.5 153.5t-43 209.5zM651 1202l154 314h69l-155 -314h-68z" />
    <glyph glyph-name="uni1EDC" unicode="&#x1edc;" horiz-adv-x="1693" 
d="M803 -20q-182 0 -332.5 81t-242 236t-91.5 354q0 166 64 319t171.5 263.5t254.5 176t305 65.5h364q85 0 125 35.5t47 119.5l5 39h65l-4 -51q-11 -91 -69 -147t-144 -56h-102q173 -78 276.5 -237.5t103.5 -374.5q0 -166 -64.5 -319t-172 -263t-254 -175.5t-305.5 -65.5z
M197 653q0 -139 48.5 -255.5t131.5 -194.5t193 -121t233 -43q146 0 282 61t235 163.5t158.5 243.5t59.5 294q0 139 -48.5 255.5t-131.5 194.5t-193 121t-233 43q-146 0 -282 -61t-235 -163.5t-158.5 -243.5t-59.5 -294zM733 1905h70l153 -314h-69z" />
    <glyph glyph-name="uni1EDD" unicode="&#x1edd;" horiz-adv-x="1245" 
d="M672 1026v4h-6q-66 0 -137 -21.5t-140.5 -68t-124.5 -111t-89 -159t-34 -203.5q0 -105 39 -190t102.5 -136.5t139.5 -78.5t156 -27q66 0 137 21.5t140.5 68t124 110.5t88.5 158t34 203q0 96 -32 175t-85.5 131t-119 83t-138.5 41h-55zM84 465q0 169 80.5 312t217 225.5
t296.5 82.5h307q85 0 125 36t47 120l4 39h66l-4 -51q-9 -91 -67.5 -147t-143.5 -56h-101q112 -59 180 -168.5t68 -259.5q0 -168 -80.5 -310.5t-217 -225t-296.5 -82.5q-86 0 -170 31.5t-154.5 90.5t-113.5 153.5t-43 209.5zM467 1516h70l153 -314h-69z" />
    <glyph glyph-name="uni1EDE" unicode="&#x1ede;" horiz-adv-x="1693" 
d="M803 -20q-182 0 -332.5 81t-242 236t-91.5 354q0 166 64 319t171.5 263.5t254.5 176t305 65.5h364q85 0 125 35.5t47 119.5l5 39h65l-4 -51q-11 -91 -69 -147t-144 -56h-102q173 -78 276.5 -237.5t103.5 -374.5q0 -166 -64.5 -319t-172 -263t-254 -175.5t-305.5 -65.5z
M197 653q0 -139 48.5 -255.5t131.5 -194.5t193 -121t233 -43q146 0 282 61t235 163.5t158.5 243.5t59.5 294q0 139 -48.5 255.5t-131.5 194.5t-193 121t-233 43q-146 0 -282 -61t-235 -163.5t-158.5 -243.5t-59.5 -294zM854 1858q42 63 123 63q61 0 98 -36.5t37 -92.5
q0 -67 -50 -114.5t-118 -47.5h-55l6 58h43q47 0 79 28.5t32 67.5q0 33 -21.5 55.5t-56.5 22.5q-43 0 -74 -39z" />
    <glyph glyph-name="uni1EDF" unicode="&#x1edf;" horiz-adv-x="1245" 
d="M672 1026v4h-6q-66 0 -137 -21.5t-140.5 -68t-124.5 -111t-89 -159t-34 -203.5q0 -105 39 -190t102.5 -136.5t139.5 -78.5t156 -27q66 0 137 21.5t140.5 68t124 110.5t88.5 158t34 203q0 96 -32 175t-85.5 131t-119 83t-138.5 41h-55zM84 465q0 169 80.5 312t217 225.5
t296.5 82.5h307q85 0 125 36t47 120l4 39h66l-4 -51q-9 -91 -67.5 -147t-143.5 -56h-101q112 -59 180 -168.5t68 -259.5q0 -168 -80.5 -310.5t-217 -225t-296.5 -82.5q-86 0 -170 31.5t-154.5 90.5t-113.5 153.5t-43 209.5zM588 1468q43 64 123 64q61 0 98 -36.5t37 -92.5
q0 -67 -50 -114.5t-118 -47.5h-55l6 57h43q46 0 78 29t32 68q0 33 -21.5 55.5t-55.5 22.5q-43 0 -74 -39z" />
    <glyph glyph-name="uni1EE0" unicode="&#x1ee0;" horiz-adv-x="1693" 
d="M803 -20q-182 0 -332.5 81t-242 236t-91.5 354q0 166 64 319t171.5 263.5t254.5 176t305 65.5h364q85 0 125 35.5t47 119.5l5 39h65l-4 -51q-11 -91 -69 -147t-144 -56h-102q173 -78 276.5 -237.5t103.5 -374.5q0 -166 -64.5 -319t-172 -263t-254 -175.5t-305.5 -65.5z
M197 653q0 -139 48.5 -255.5t131.5 -194.5t193 -121t233 -43q146 0 282 61t235 163.5t158.5 243.5t59.5 294q0 139 -48.5 255.5t-131.5 194.5t-193 121t-233 43q-146 0 -282 -61t-235 -163.5t-158.5 -243.5t-59.5 -294zM711 1669q10 83 50.5 122.5t100.5 39.5q35 0 63 -14
t46 -34.5t35 -40.5t39 -34t49 -14q39 0 62.5 28t29.5 74h59q-10 -83 -49.5 -122.5t-97.5 -39.5q-37 0 -66 14t-47.5 34t-35.5 39.5t-39 33.5t-48 14q-39 0 -63 -28t-29 -72h-59z" />
    <glyph glyph-name="uni1EE1" unicode="&#x1ee1;" horiz-adv-x="1245" 
d="M672 1026v4h-6q-66 0 -137 -21.5t-140.5 -68t-124.5 -111t-89 -159t-34 -203.5q0 -105 39 -190t102.5 -136.5t139.5 -78.5t156 -27q66 0 137 21.5t140.5 68t124 110.5t88.5 158t34 203q0 96 -32 175t-85.5 131t-119 83t-138.5 41h-55zM84 465q0 169 80.5 312t217 225.5
t296.5 82.5h307q85 0 125 36t47 120l4 39h66l-4 -51q-9 -91 -67.5 -147t-143.5 -56h-101q112 -59 180 -168.5t68 -259.5q0 -168 -80.5 -310.5t-217 -225t-296.5 -82.5q-86 0 -170 31.5t-154.5 90.5t-113.5 153.5t-43 209.5zM444 1280q10 83 51 122.5t101 39.5q30 0 54.5 -10
t40 -25.5t32 -33t29.5 -33t32.5 -25.5t42.5 -10q39 0 63 28.5t30 73.5h59q-10 -83 -50 -122.5t-98 -39.5q-37 0 -66 14t-47.5 33.5t-35 39.5t-38.5 34t-48 14q-39 0 -63 -28t-29 -72h-60z" />
    <glyph glyph-name="uni1EE2" unicode="&#x1ee2;" horiz-adv-x="1693" 
d="M803 -20q-182 0 -332.5 81t-242 236t-91.5 354q0 166 64 319t171.5 263.5t254.5 176t305 65.5h364q85 0 125 35.5t47 119.5l5 39h65l-4 -51q-11 -91 -69 -147t-144 -56h-102q173 -78 276.5 -237.5t103.5 -374.5q0 -166 -64.5 -319t-172 -263t-254 -175.5t-305.5 -65.5z
M197 653q0 -139 48.5 -255.5t131.5 -194.5t193 -121t233 -43q146 0 282 61t235 163.5t158.5 243.5t59.5 294q0 139 -48.5 255.5t-131.5 194.5t-193 121t-233 43q-146 0 -282 -61t-235 -163.5t-158.5 -243.5t-59.5 -294zM723 -258l10 86h84l-10 -86h-84z" />
    <glyph glyph-name="uni1EE3" unicode="&#x1ee3;" horiz-adv-x="1245" 
d="M672 1026v4h-6q-66 0 -137 -21.5t-140.5 -68t-124.5 -111t-89 -159t-34 -203.5q0 -105 39 -190t102.5 -136.5t139.5 -78.5t156 -27q66 0 137 21.5t140.5 68t124 110.5t88.5 158t34 203q0 96 -32 175t-85.5 131t-119 83t-138.5 41h-55zM84 465q0 169 80.5 312t217 225.5
t296.5 82.5h307q85 0 125 36t47 120l4 39h66l-4 -51q-9 -91 -67.5 -147t-143.5 -56h-101q112 -59 180 -168.5t68 -259.5q0 -168 -80.5 -310.5t-217 -225t-296.5 -82.5q-86 0 -170 31.5t-154.5 90.5t-113.5 153.5t-43 209.5zM498 -258l10 86h84l-10 -86h-84z" />
    <glyph glyph-name="uni1EE4" unicode="&#x1ee4;" horiz-adv-x="1259" 
d="M573 -31q-220 0 -341.5 146t-94.5 407l99 932h59l-98 -932q-24 -236 82.5 -363.5t302.5 -127.5q195 0 323 127t154 366l98 930h60l-99 -936q-18 -173 -95.5 -298.5t-193 -188t-256.5 -62.5zM506 -258l10 86h84l-10 -86h-84z" />
    <glyph glyph-name="uni1EE5" unicode="&#x1ee5;" horiz-adv-x="1157" 
d="M1071 1065l-110 -1065h-58l23 205q-52 -92 -155 -158.5t-249 -66.5q-90 0 -165.5 28t-131 82.5t-81 143.5t-13.5 204l66 627h57l-64 -625q-23 -200 74 -301.5t262 -101.5q164 0 283.5 101.5t140.5 301.5l64 625h57zM453 -258l10 86h84l-10 -86h-84z" />
    <glyph glyph-name="uni1EE6" unicode="&#x1ee6;" horiz-adv-x="1259" 
d="M573 -31q-220 0 -341.5 146t-94.5 407l99 932h59l-98 -932q-24 -236 82.5 -363.5t302.5 -127.5q195 0 323 127t154 366l98 930h60l-99 -936q-18 -173 -95.5 -298.5t-193 -188t-256.5 -62.5zM633 1858q42 63 123 63q61 0 98 -36.5t37 -92.5q0 -67 -50 -114.5t-118 -47.5
h-55l6 58h43q46 0 78 28.5t32 67.5q0 33 -21.5 55.5t-55.5 22.5q-43 0 -74 -39z" />
    <glyph glyph-name="uni1EE7" unicode="&#x1ee7;" horiz-adv-x="1157" 
d="M1071 1065l-110 -1065h-58l23 205q-52 -92 -155 -158.5t-249 -66.5q-90 0 -165.5 28t-131 82.5t-81 143.5t-13.5 204l66 627h57l-64 -625q-23 -200 74 -301.5t262 -101.5q164 0 283.5 101.5t140.5 301.5l64 625h57zM545 1468q43 64 123 64q61 0 98 -36.5t37 -92.5
q0 -67 -50 -114.5t-118 -47.5h-55l6 57h43q46 0 78 29t32 68q0 33 -21.5 55.5t-55.5 22.5q-43 0 -74 -39z" />
    <glyph glyph-name="uni1EE8" unicode="&#x1ee8;" horiz-adv-x="1259" 
d="M573 -31q-220 0 -341.5 146t-94.5 407l99 932h59l-98 -932q-24 -236 82.5 -363.5t302.5 -127.5q195 0 323 127t154 366l98 930h105q84 0 123.5 37.5t48.5 122.5l6 55h65l-8 -70q-7 -90 -66.5 -145t-146.5 -55h-74l-92 -881q-18 -173 -95.5 -298.5t-193 -188t-256.5 -62.5
zM694 1591l154 314h70l-156 -314h-68z" />
    <glyph glyph-name="uni1EE9" unicode="&#x1ee9;" horiz-adv-x="1157" 
d="M1110 1065q84 0 123.5 37.5t48.5 122.5l6 55h66l-8 -70q-7 -90 -66.5 -145t-146.5 -55h-68l-104 -1010h-58l23 205q-52 -92 -155 -158.5t-249 -66.5q-90 0 -165.5 28t-131 82.5t-81 143.5t-13.5 204l66 627h57l-64 -625q-23 -200 74 -301.5t262 -101.5q164 0 283.5 101.5
t140.5 301.5l64 625h96zM606 1202l154 314h69l-155 -314h-68z" />
    <glyph glyph-name="uni1EEA" unicode="&#x1eea;" horiz-adv-x="1259" 
d="M573 -31q-220 0 -341.5 146t-94.5 407l99 932h59l-98 -932q-24 -236 82.5 -363.5t302.5 -127.5q195 0 323 127t154 366l98 930h105q84 0 123.5 37.5t48.5 122.5l6 55h65l-8 -70q-7 -90 -66.5 -145t-146.5 -55h-74l-92 -881q-18 -173 -95.5 -298.5t-193 -188t-256.5 -62.5
zM512 1905h70l153 -314h-69z" />
    <glyph glyph-name="uni1EEB" unicode="&#x1eeb;" horiz-adv-x="1157" 
d="M1110 1065q84 0 123.5 37.5t48.5 122.5l6 55h66l-8 -70q-7 -90 -66.5 -145t-146.5 -55h-68l-104 -1010h-58l23 205q-52 -92 -155 -158.5t-249 -66.5q-90 0 -165.5 28t-131 82.5t-81 143.5t-13.5 204l66 627h57l-64 -625q-23 -200 74 -301.5t262 -101.5q164 0 283.5 101.5
t140.5 301.5l64 625h96zM424 1516h70l153 -314h-69z" />
    <glyph glyph-name="uni1EEC" unicode="&#x1eec;" horiz-adv-x="1259" 
d="M573 -31q-220 0 -341.5 146t-94.5 407l99 932h59l-98 -932q-24 -236 82.5 -363.5t302.5 -127.5q195 0 323 127t154 366l98 930h105q84 0 123.5 37.5t48.5 122.5l6 55h65l-8 -70q-7 -90 -66.5 -145t-146.5 -55h-74l-92 -881q-18 -173 -95.5 -298.5t-193 -188t-256.5 -62.5
zM633 1858q42 63 123 63q61 0 98 -36.5t37 -92.5q0 -67 -50 -114.5t-118 -47.5h-55l6 58h43q46 0 78 28.5t32 67.5q0 33 -21.5 55.5t-55.5 22.5q-43 0 -74 -39z" />
    <glyph glyph-name="uni1EED" unicode="&#x1eed;" horiz-adv-x="1157" 
d="M1110 1065q84 0 123.5 37.5t48.5 122.5l6 55h66l-8 -70q-7 -90 -66.5 -145t-146.5 -55h-68l-104 -1010h-58l23 205q-52 -92 -155 -158.5t-249 -66.5q-90 0 -165.5 28t-131 82.5t-81 143.5t-13.5 204l66 627h57l-64 -625q-23 -200 74 -301.5t262 -101.5q164 0 283.5 101.5
t140.5 301.5l64 625h96zM545 1468q43 64 123 64q61 0 98 -36.5t37 -92.5q0 -67 -50 -114.5t-118 -47.5h-55l6 57h43q46 0 78 29t32 68q0 33 -21.5 55.5t-55.5 22.5q-43 0 -74 -39z" />
    <glyph glyph-name="uni1EEE" unicode="&#x1eee;" horiz-adv-x="1259" 
d="M573 -31q-220 0 -341.5 146t-94.5 407l99 932h59l-98 -932q-24 -236 82.5 -363.5t302.5 -127.5q195 0 323 127t154 366l98 930h105q84 0 123.5 37.5t48.5 122.5l6 55h65l-8 -70q-7 -90 -66.5 -145t-146.5 -55h-74l-92 -881q-18 -173 -95.5 -298.5t-193 -188t-256.5 -62.5
zM487 1669q10 83 51 122.5t101 39.5q35 0 63 -14t46 -34.5t34.5 -40.5t38.5 -34t49 -14q39 0 63 28.5t30 73.5h59q-10 -83 -50 -122.5t-98 -39.5q-37 0 -66 14t-47.5 34t-35 39.5t-38.5 33.5t-48 14q-39 0 -63 -28t-29 -72h-60z" />
    <glyph glyph-name="uni1EEF" unicode="&#x1eef;" horiz-adv-x="1157" 
d="M1110 1065q84 0 123.5 37.5t48.5 122.5l6 55h66l-8 -70q-7 -90 -66.5 -145t-146.5 -55h-68l-104 -1010h-58l23 205q-52 -92 -155 -158.5t-249 -66.5q-90 0 -165.5 28t-131 82.5t-81 143.5t-13.5 204l66 627h57l-64 -625q-23 -200 74 -301.5t262 -101.5q164 0 283.5 101.5
t140.5 301.5l64 625h96zM399 1280q10 83 51 122.5t101 39.5q30 0 54.5 -10t40 -25.5t32 -33t29.5 -33t32.5 -25.5t42.5 -10q39 0 62.5 28t29.5 74h60q-10 -83 -50 -122.5t-98 -39.5q-37 0 -66 14t-47.5 33.5t-35 39.5t-38.5 34t-48 14q-39 0 -63 -28t-29 -72h-60z" />
    <glyph glyph-name="uni1EF0" unicode="&#x1ef0;" horiz-adv-x="1259" 
d="M573 -31q-220 0 -341.5 146t-94.5 407l99 932h59l-98 -932q-24 -236 82.5 -363.5t302.5 -127.5q195 0 323 127t154 366l98 930h105q84 0 123.5 37.5t48.5 122.5l6 55h65l-8 -70q-7 -90 -66.5 -145t-146.5 -55h-74l-92 -881q-18 -173 -95.5 -298.5t-193 -188t-256.5 -62.5
zM506 -258l10 86h84l-10 -86h-84z" />
    <glyph glyph-name="uni1EF1" unicode="&#x1ef1;" horiz-adv-x="1157" 
d="M1110 1065q84 0 123.5 37.5t48.5 122.5l6 55h66l-8 -70q-7 -90 -66.5 -145t-146.5 -55h-68l-104 -1010h-58l23 205q-52 -92 -155 -158.5t-249 -66.5q-90 0 -165.5 28t-131 82.5t-81 143.5t-13.5 204l66 627h57l-64 -625q-23 -200 74 -301.5t262 -101.5q164 0 283.5 101.5
t140.5 301.5l64 625h96zM453 -258l10 86h84l-10 -86h-84z" />
    <glyph glyph-name="Ygrave" unicode="&#x1ef2;" horiz-adv-x="1234" 
d="M530 0l74 664l-428 790h68l393 -735l543 735h71l-587 -790l-74 -664h-60zM502 1905h69l154 -314h-70z" />
    <glyph glyph-name="ygrave" unicode="&#x1ef3;" horiz-adv-x="1105" 
d="M250 -389l217 407l-342 1047h63l320 -977l516 977h68l-777 -1454h-65zM385 1516h70l153 -314h-69z" />
    <glyph glyph-name="uni1EF4" unicode="&#x1ef4;" horiz-adv-x="1234" 
d="M530 0l74 664l-428 790h68l393 -735l543 735h71l-587 -790l-74 -664h-60zM492 -258l10 86h84l-11 -86h-83z" />
    <glyph glyph-name="uni1EF5" unicode="&#x1ef5;" horiz-adv-x="1105" 
d="M250 -389l217 407l-342 1047h63l320 -977l516 977h68l-777 -1454h-65zM600 -258l10 86h84l-10 -86h-84z" />
    <glyph glyph-name="uni1EF6" unicode="&#x1ef6;" horiz-adv-x="1234" 
d="M530 0l74 664l-428 790h68l393 -735l543 735h71l-587 -790l-74 -664h-60zM623 1858q42 63 122 63q61 0 98.5 -36.5t37.5 -92.5q0 -67 -50 -114.5t-118 -47.5h-56l7 58h43q46 0 78 28.5t32 67.5q0 33 -21.5 55.5t-56.5 22.5q-42 0 -73 -39z" />
    <glyph glyph-name="uni1EF7" unicode="&#x1ef7;" horiz-adv-x="1105" 
d="M250 -389l217 407l-342 1047h63l320 -977l516 977h68l-777 -1454h-65zM504 1468q43 64 123 64q61 0 98 -36.5t37 -92.5q0 -67 -50 -114.5t-118 -47.5h-55l6 57h43q46 0 78 29t32 68q0 33 -21.5 55.5t-55.5 22.5q-43 0 -74 -39z" />
    <glyph glyph-name="uni1EF8" unicode="&#x1ef8;" horiz-adv-x="1234" 
d="M530 0l74 664l-428 790h68l393 -735l543 735h71l-587 -790l-74 -664h-60zM479 1669q10 83 51 122.5t101 39.5q35 0 63 -14t46 -34.5t34.5 -40.5t38.5 -34t49 -14q39 0 62.5 28t29.5 74h60q-10 -83 -50 -122.5t-98 -39.5q-37 0 -66 14t-47.5 34t-35 39.5t-38.5 33.5
t-48 14q-39 0 -63 -28t-29 -72h-60z" />
    <glyph glyph-name="uni1EF9" unicode="&#x1ef9;" horiz-adv-x="1105" 
d="M250 -389l217 407l-342 1047h63l320 -977l516 977h68l-777 -1454h-65zM360 1280q10 83 51 122.5t101 39.5q30 0 54.5 -10t40 -25.5t32 -33t29.5 -33t32.5 -25.5t42.5 -10q39 0 63 28.5t30 73.5h59q-10 -83 -49.5 -122.5t-97.5 -39.5q-37 0 -66 14t-47.5 33.5t-35.5 39.5
t-39 34t-48 14q-39 0 -63 -28t-29 -72h-60z" />
    <glyph glyph-name="endash" unicode="&#x2013;" horiz-adv-x="1228" 
d="M43 559l4 45h1045l-5 -45h-1044z" />
    <glyph glyph-name="emdash" unicode="&#x2014;" horiz-adv-x="1351" 
d="M43 559l4 45h1167l-4 -45h-1167z" />
    <glyph glyph-name="quoteleft" unicode="&#x2018;" horiz-adv-x="321" 
d="M352 1454l-170 -377h-61l172 377h59z" />
    <glyph glyph-name="quoteright" unicode="&#x2019;" horiz-adv-x="321" 
d="M121 1077l170 377h61l-172 -377h-59z" />
    <glyph glyph-name="quotesinglbase" unicode="&#x201a;" horiz-adv-x="331" 
d="M-20 -293l170 377h61l-172 -377h-59z" />
    <glyph glyph-name="quotedblleft" unicode="&#x201c;" horiz-adv-x="499" 
d="M352 1454l-170 -377h-61l172 377h59zM299 1077l172 377h59l-170 -377h-61z" />
    <glyph glyph-name="quotedblright" unicode="&#x201d;" horiz-adv-x="499" 
d="M299 1077l170 377h61l-172 -377h-59zM121 1077l170 377h61l-172 -377h-59z" />
    <glyph glyph-name="quotedblbase" unicode="&#x201e;" horiz-adv-x="509" 
d="M158 -293l170 377h61l-172 -377h-59zM-20 -293l170 377h61l-172 -377h-59z" />
    <glyph glyph-name="dagger" unicode="&#x2020;" horiz-adv-x="583" 
d="M287 659l35 445h-154l6 51h154l24 299h74l-39 -299h152l-7 -51h-151l-59 -445h-35z" />
    <glyph glyph-name="daggerdbl" unicode="&#x2021;" horiz-adv-x="585" 
d="M305 786l23 318h-156l4 51h156l22 299h74l-41 -299h154l-4 -51h-156l-41 -318h-35zM86 299l6 51h156l45 318h35l-27 -318h156l-6 -51h-154l-23 -299h-73l41 299h-156z" />
    <glyph glyph-name="bullet" unicode="&#x2022;" horiz-adv-x="210" 
d="M90 524q-34 0 -38.5 4.5t-4.5 38.5t4.5 38.5t38.5 4.5t38.5 -4.5t4.5 -38.5t-4.5 -38.5t-38.5 -4.5z" />
    <glyph glyph-name="ellipsis" unicode="&#x2026;" horiz-adv-x="1271" 
d="M1090 -10q-35 0 -40.5 5.5t-2.5 39.5q3 33 8 37t39 4t39 -5.5t0 -39.5q-3 -33 -7 -37t-36 -4zM35 35q3 33 8 37t39 4t39 -5.5t0 -39.5q-3 -33 -7 -37t-36 -4q-35 0 -40.5 5.5t-2.5 39.5zM541 35q3 33 8 37t39 4t39 -5.5t0 -39.5q-3 -33 -7 -37t-36 -4q-35 0 -40.5 5.5
t-2.5 39.5z" />
    <glyph glyph-name="perthousand" unicode="&#x2030;" horiz-adv-x="2048" 
d="M1667 -10q-97 0 -164 66t-67 165q0 112 83.5 192.5t194.5 80.5q97 0 164.5 -66.5t67.5 -165.5q0 -111 -84 -191.5t-195 -80.5zM143 1192q0 111 84 191.5t195 80.5q97 0 164 -66t67 -165q0 -111 -83.5 -191.5t-194.5 -80.5q-98 0 -165 66t-67 165zM168 33l1106 1423
l39 -33l-1104 -1423zM199 1194q0 -78 51.5 -129t126.5 -51q88 0 154.5 62t66.5 155q0 77 -51 128.5t-127 51.5q-88 0 -154.5 -62t-66.5 -155zM817 221q0 112 83 192.5t194 80.5q99 0 166 -66.5t67 -165.5q0 -111 -83.5 -191.5t-194.5 -80.5q-98 0 -165 66t-67 165zM872 223
q0 -78 51 -129t126 -51q89 0 156 62t67 155q0 78 -51 129t-127 51q-88 0 -155 -62.5t-67 -154.5zM1491 223q0 -77 51.5 -128.5t126.5 -51.5q88 0 154.5 62t66.5 155q0 78 -51 129t-127 51q-88 0 -154.5 -62t-66.5 -155z" />
    <glyph glyph-name="guilsinglleft" unicode="&#x2039;" horiz-adv-x="460" 
d="M420 926l26 -31l-307 -289l244 -289l-33 -30l-264 291l8 55z" />
    <glyph glyph-name="guilsinglright" unicode="&#x203a;" horiz-adv-x="460" 
d="M55 287l-26 30l307 289l-244 289l33 31l264 -291l-8 -55z" />
    <glyph glyph-name="fraction" unicode="&#x2044;" horiz-adv-x="221" 
d="M-502 0l1045 1434h86l-1032 -1434h-99z" />
    <glyph glyph-name="dong" unicode="&#x20ab;" horiz-adv-x="1318" 
d="M561 143q-93 0 -175.5 29.5t-147 85t-102.5 143t-38 195.5q0 123 47 230.5t125 181.5t181.5 116.5t214.5 42.5q152 0 269 -73t163 -195h6l41 397h-475l6 52h475l10 106h58l-11 -106h99l-7 -52h-98l-121 -1146h-59l31 262h-6q-72 -122 -205 -195.5t-281 -73.5zM102 -27
l9 56h966l-8 -56h-967zM162 600q0 -99 33.5 -176.5t91 -125.5t129 -72.5t151.5 -24.5q71 0 143 19.5t139 61.5t118.5 100.5t82.5 142.5t31 182q0 79 -23.5 146t-64 114t-94.5 80.5t-115 49t-125 15.5q-100 0 -191 -38t-158.5 -104.5t-107.5 -163t-40 -206.5z" />
    <glyph glyph-name="Euro" unicode="&#x20ac;" horiz-adv-x="1538" 
d="M53 748l6 59h134q37 188 152.5 341t286.5 240t363 87q65 0 129.5 -11t136 -37t137 -78t111.5 -126l-51 -37q-41 69 -101 117.5t-127 71t-123.5 31.5t-115.5 9q-177 0 -333.5 -79t-262 -218t-141.5 -311h459l-8 -59h-461q-6 -44 -6 -89h458l-6 -59h-450q17 -255 190 -408
t428 -153q58 0 115 9t127.5 31.5t139.5 71t124 117.5l43 -37q-62 -74 -137 -126t-150.5 -78t-140.5 -36.5t-131 -10.5q-276 0 -462.5 170.5t-205.5 449.5h-141l6 59h133q0 45 6 89h-131z" />
    <glyph glyph-name="uni20BD" unicode="&#x20bd;" horiz-adv-x="1144" 
d="M16 346l4 53h105l16 158h-102l4 53h104l86 844h426q210 0 322.5 -111.5t114.5 -295.5q2 -217 -141.5 -356.5t-387.5 -139.5h-368l-15 -152h547l-4 -53h-549l-35 -346h-59l35 346h-103zM205 610h366q211 0 337 121.5t124 317.5q-1 167 -101 256.5t-282 89.5h-364z" />
    <glyph glyph-name="trademark" unicode="&#x2122;" horiz-adv-x="1107" 
d="M612 1085l39 369h60l116 -295l185 295h59l-39 -369h-59l26 256l-153 -256h-49l-99 256l-26 -256h-60zM223 1401l6 53h351l-7 -53h-145l-33 -316h-59l33 316h-146z" />
    <glyph glyph-name="oneeighth" unicode="&#x215b;" horiz-adv-x="1138" 
d="M-59 0l1044 1434h86l-1032 -1434h-98zM94 1395l76 41h76l-56 -535h-75l47 453l-35 -23zM621 162q9 88 100 133q-55 43 -49 111q6 53 53 93t117 40q75 0 115.5 -42.5t35.5 -99.5q-7 -70 -73 -106q82 -42 73 -137q-7 -68 -65.5 -113t-134.5 -45q-77 0 -128 47.5t-44 118.5z
M694 154q-4 -40 25 -67.5t72 -27.5q51 0 86 28.5t41 74.5q4 43 -23 69.5t-74 26.5q-46 0 -84.5 -30t-42.5 -74zM748 397q-3 -29 18.5 -52t52.5 -23q37 0 65 25.5t31 58.5q3 30 -13 49.5t-58 19.5t-67.5 -23t-28.5 -55z" />
    <glyph glyph-name="threeeighths" unicode="&#x215c;" horiz-adv-x="1175" 
d="M-18 0l1042 1434h86l-1030 -1434h-98zM53 1081l78 -4q-5 -50 19.5 -84.5t72.5 -34.5q47 0 84 29t41 74q6 54 -29.5 74t-109.5 20l2 59q66 0 101 25t40 66q3 30 -19.5 50.5t-58.5 20.5q-45 0 -75.5 -30t-36.5 -84l-74 4q6 77 59 125.5t127 48.5q67 0 112.5 -43.5
t39.5 -100.5q-7 -64 -72 -106q35 -15 55.5 -50.5t16.5 -86.5q-7 -68 -67.5 -114t-135.5 -46q-84 0 -132.5 56t-37.5 132zM655 162q9 88 103 133q-57 42 -51 111q6 53 53 93t117 40q76 0 116.5 -43t34.5 -99q-7 -69 -72 -106q83 -44 74 -137q-7 -68 -67 -113t-136 -45
q-77 0 -128 47.5t-44 118.5zM731 154q-4 -40 25 -67.5t71 -27.5q51 0 86 28.5t39 74.5q4 43 -22.5 69.5t-73.5 26.5q-46 0 -83.5 -30t-41.5 -74zM782 397q-3 -29 19 -52t53 -23q37 0 65 25.5t31 58.5q3 30 -13 49.5t-58 19.5t-68 -23t-29 -55z" />
    <glyph glyph-name="fiveeighths" unicode="&#x215d;" horiz-adv-x="1179" 
d="M-20 0l1044 1434h86l-1032 -1434h-98zM47 1022l72 35q-2 -41 26 -70t76 -29q49 0 88 36.5t45 92.5q6 49 -23 84t-69 35q-73 0 -125 -61l-65 18l65 273h283l-6 -66h-213l-31 -119q47 21 92 21q73 0 125 -56t45 -137q-9 -78 -71 -132t-140 -54q-69 0 -117.5 39.5
t-56.5 89.5zM659 162q9 88 101 133q-55 43 -49 111q6 53 53 93t117 40q75 0 115.5 -42.5t35.5 -99.5q-7 -69 -74 -106q83 -42 74 -137q-7 -68 -66 -113t-135 -45q-77 0 -128 47.5t-44 118.5zM733 154q-4 -40 25 -67.5t71 -27.5q51 0 86 28.5t41 74.5q4 43 -22.5 69.5
t-73.5 26.5q-46 0 -84.5 -30t-42.5 -74zM786 397q-3 -29 19 -52t53 -23q37 0 65 25.5t31 58.5q3 30 -13 49.5t-58 19.5t-68 -23t-29 -55z" />
    </font>
</defs>
</svg>
