<?xml version="1.0" standalone="no"?>
<!DOCTYPE svg PUBLIC "-//W3C//DTD SVG 1.1//EN" "http://www.w3.org/Graphics/SVG/1.1/DTD/svg11.dtd" >
<svg xmlns="http://www.w3.org/2000/svg" xmlns:xlink="http://www.w3.org/1999/xlink" version="1.1">
<metadata>
Created by FontForge 20170731 at Fri Jul 14 11:17:23 2023
 By Aleksey,,,
Copyright (c) 2021 by Connary Fagen. All rights reserved.
</metadata>
<defs>
<font id="VisbyCF-ExtraBoldOblique" horiz-adv-x="1290" >
  <font-face 
    font-family="Visby CF Extra Bold"
    font-weight="800"
    font-style="oblique"
    font-stretch="normal"
    units-per-em="2048"
    panose-1="0 0 0 0 0 0 0 0 0 0"
    ascent="1638"
    descent="-410"
    x-height="1065"
    cap-height="1454"
    bbox="-506 -653 2322 2339"
    underline-thickness="102"
    underline-position="-358"
    slope="-6"
    unicode-range="U+0020-FB01"
  />
<missing-glyph horiz-adv-x="1075" 
d="M883 1638v-2150h-682v2150h682zM358 -365h359v72h-219l149 100h70v72h-359v-72h152l-152 -100v-72zM358 -72h359v244h-359v-244zM358 301h359v244h-215v-121h71v49h72v-100h-215v172h-72v-244zM358 592h359v215h-72v-143h-287v-72zM358 715h215v149h144v72h-359v-72h144
v-80h-144v-69zM358 993h359v74h-144v150h-215v-224zM358 1274h359v69h-144v80h144v72h-357v-72h142v-80h-144v-69zM430 0v100h215v-100h-215zM430 1067v78h72v-78h-72z" />
    <glyph glyph-name="fi" unicode="fi" horiz-adv-x="1277" 
d="M512 813l-84 -813h-317l86 813h-144l27 252h141l4 31q10 98 44 172.5t78 117.5t101.5 70t107.5 36t103 9q121 0 187 -41l-27 -248q-45 21 -110 21q-152 0 -168 -152l-2 -16h700l-111 -1065h-317l84 813h-383zM934 1178l27 276h317l-27 -276h-317z" />
    <glyph glyph-name="f_f" unicode="ff" horiz-adv-x="1511" 
d="M922 1096q10 98 44 172.5t78 117.5t101.5 70t107.5 36t103 9q120 0 186 -41l-26 -248q-45 21 -111 21q-152 0 -168 -152l-2 -16h266l-26 -252h-267l-84 -813h-317l86 813h-381l-84 -813h-317l86 813h-144l27 252h141l4 31q10 98 44 172.5t78 117.5t101.5 70t107.5 36
t103 9q121 0 187 -41l-27 -248q-45 21 -110 21q-152 0 -168 -152l-2 -16h379z" />
    <glyph glyph-name=".notdef" horiz-adv-x="1075" 
d="M883 1638v-2150h-682v2150h682zM358 -365h359v72h-219l149 100h70v72h-359v-72h152l-152 -100v-72zM358 -72h359v244h-359v-244zM358 301h359v244h-215v-121h71v49h72v-100h-215v172h-72v-244zM358 592h359v215h-72v-143h-287v-72zM358 715h215v149h144v72h-359v-72h144
v-80h-144v-69zM358 993h359v74h-144v150h-215v-224zM358 1274h359v69h-144v80h144v72h-357v-72h142v-80h-144v-69zM430 0v100h215v-100h-215zM430 1067v78h72v-78h-72z" />
    <glyph glyph-name=".null" horiz-adv-x="0" 
 />
    <glyph glyph-name="nonmarkingreturn" horiz-adv-x="682" 
 />
    <glyph glyph-name="space" unicode=" " horiz-adv-x="466" 
 />
    <glyph glyph-name="space" unicode="&#xa0;" horiz-adv-x="466" 
 />
    <glyph glyph-name="exclam" unicode="!" horiz-adv-x="555" 
d="M104 479l105 975h328l-105 -975h-328zM59 160q0 79 53.5 129.5t127.5 50.5t127 -50t53 -130t-53 -130t-127 -50t-127.5 50.5t-53.5 129.5z" />
    <glyph glyph-name="quotedbl" unicode="&#x22;" horiz-adv-x="763" 
d="M467 889l57 565h273l-58 -565h-272zM102 889l58 565h272l-57 -565h-273z" />
    <glyph glyph-name="numbersign" unicode="#" horiz-adv-x="1126" 
d="M14 0l66 369h-62l29 276h82l25 143h-91l29 277h111l65 369h324l-66 -369h111l65 369h324l-65 -369h73l-28 -277h-95l-24 -143h102l-28 -276h-123l-66 -369h-323l65 369h-111l-65 -369h-324zM453 645h110l25 143h-111z" />
    <glyph glyph-name="dollar" unicode="$" horiz-adv-x="925" 
d="M334 0l20 182q-133 21 -217 96.5t-96 198.5l254 72q39 -125 160 -125q47 0 78.5 21.5t31.5 64.5q0 34 -19.5 54.5t-70.5 37.5l-129 49q-114 41 -169.5 116.5t-55.5 170.5q0 133 99.5 226t248.5 112l16 178h199l-18 -192q99 -30 163 -99.5t76 -163.5l-250 -69
q-36 100 -131 100q-46 0 -71 -19.5t-25 -54.5q0 -53 72 -77l145 -58q234 -82 234 -295q0 -137 -90 -227.5t-236 -116.5l-21 -182h-198z" />
    <glyph glyph-name="percent" unicode="%" horiz-adv-x="1433" 
d="M346 0l-244 160l1008 1300l242 -160zM143 1196q0 109 79.5 188.5t189.5 79.5q104 0 172.5 -67.5t68.5 -167.5q0 -109 -79 -188.5t-189 -79.5q-104 0 -173 67.5t-69 167.5zM348 1206q0 -19 13 -31t32 -12q25 0 40.5 17t15.5 39q0 18 -13.5 30.5t-32.5 12.5q-25 0 -40 -17
t-15 -39zM821 225q0 109 79.5 189t189.5 80q104 0 172.5 -68t68.5 -168q0 -109 -80 -188.5t-190 -79.5q-103 0 -171.5 67.5t-68.5 167.5zM1026 236q0 -19 13 -31t32 -12q25 0 40 16.5t15 38.5q0 19 -13 31t-32 12q-25 0 -40 -16.5t-15 -38.5z" />
    <glyph glyph-name="ampersand" unicode="&#x26;" horiz-adv-x="1454" 
d="M539 -20q-204 0 -336.5 118.5t-132.5 323.5q0 186 109.5 326.5t271.5 166.5l-191 539h834l-27 -262h-461l150 -473h-66q-132 0 -213.5 -64t-81.5 -182q0 -105 66 -161t166 -56q49 0 94.5 14.5t89.5 46.5t75 95t40 149l37 350h450l-27 -252h-151l-33 -280
q-5 -46 16.5 -78.5t75.5 -32.5q40 0 78 17l-26 -242q-18 -28 -64.5 -41.5t-91.5 -13.5q-104 0 -160.5 65t-48.5 168q-51 -103 -167.5 -172t-274.5 -69z" />
    <glyph glyph-name="quotesingle" unicode="'" horiz-adv-x="399" 
d="M102 889l58 565h272l-57 -565h-273z" />
    <glyph glyph-name="parenleft" unicode="(" horiz-adv-x="729" 
d="M174 -260q-182 398 -121 930q48 496 301 862l316 -12q-246 -382 -303 -879q-51 -522 108 -913z" />
    <glyph glyph-name="parenright" unicode=")" horiz-adv-x="731" 
d="M-45 -260q253 404 307 930q53 486 -112 862l301 -12q187 -371 129 -879q-51 -523 -310 -913z" />
    <glyph glyph-name="asterisk" unicode="*" horiz-adv-x="1112" 
d="M406 739l-220 140l150 174l-178 53l86 266l213 -61l16 225h258l-22 -225l215 61l39 -266l-195 -53l117 -174l-242 -140l-100 164z" />
    <glyph glyph-name="plus" unicode="+" horiz-adv-x="868" 
d="M305 233l27 246h-244l21 193h243l27 246h192l-26 -246h248l-21 -193h-248l-26 -246h-193z" />
    <glyph glyph-name="comma" unicode="," horiz-adv-x="569" 
d="M-43 -270l262 565h273l-265 -565h-270z" />
    <glyph glyph-name="hyphen" unicode="-" horiz-adv-x="823" 
d="M33 426l26 266h635l-26 -266h-635z" />
    <glyph glyph-name="period" unicode="." horiz-adv-x="489" 
d="M207 -20q-74 0 -127 50t-53 130t53 130t127 50t127 -50t53 -130t-53 -130t-127 -50z" />
    <glyph glyph-name="slash" unicode="/" horiz-adv-x="1071" 
d="M31 0l762 1536h340l-764 -1536h-338z" />
    <glyph glyph-name="zero" unicode="0" horiz-adv-x="1642" 
d="M772 -20q-144 0 -269.5 48.5t-216 135t-142.5 213t-52 276.5q0 172 65 325t174.5 261.5t259.5 172t314 63.5q192 0 347 -83.5t245 -239t90 -355.5q0 -171 -65.5 -324t-176 -260.5t-260 -170t-313.5 -62.5zM420 682q0 -179 105 -295.5t266 -116.5q83 0 165.5 34.5
t150.5 96t110.5 157.5t42.5 210q0 181 -106.5 298.5t-268.5 117.5q-84 0 -166 -35t-149 -97.5t-108.5 -159t-41.5 -210.5z" />
    <glyph glyph-name="one" unicode="1" horiz-adv-x="823" 
d="M297 0l125 1182h-250l29 272h573l-153 -1454h-324z" />
    <glyph glyph-name="two" unicode="2" horiz-adv-x="1140" 
d="M526 618q140 164 174 211q82 113 82 201q0 46 -16.5 78t-42.5 46.5t-48 20t-44 5.5q-61 0 -115 -44t-65 -147l-5 -39h-321l6 66q7 93 46.5 175t107 146t168.5 101t223 37q212 0 330 -105t118 -272q0 -50 -9.5 -97t-32 -94t-42 -81.5t-58.5 -83.5t-60 -74t-68 -77
q-3 -4 -5 -6t-5 -5.5t-6 -6.5l-250 -292h452l-30 -281h-1010z" />
    <glyph glyph-name="three" unicode="3" horiz-adv-x="1193" 
d="M524 -20q-189 0 -316.5 90.5t-164.5 232.5l248 143q29 -96 96 -143t148 -47q109 0 187.5 76t78.5 186q0 86 -49.5 144.5t-134.5 72t-197 -27.5l280 471h-489l29 276h938l-342 -536q122 -27 205 -135t83 -263q0 -152 -80.5 -276t-218 -194t-301.5 -70z" />
    <glyph glyph-name="four" unicode="4" horiz-adv-x="1245" 
d="M641 0l33 307h-611l25 277l705 870h325l-92 -870h154l-29 -277h-154l-32 -307h-324zM422 584h280l52 444z" />
    <glyph glyph-name="five" unicode="5" horiz-adv-x="1177" 
d="M489 -20q-176 0 -299 83t-161 218l260 133q13 -54 73 -103t154 -49q109 0 176.5 69t67.5 175q0 99 -59.5 156t-149.5 57q-83 0 -138.5 -38.5t-74.5 -72.5l-232 111l170 735h754l-31 -276h-505l-66 -260q5 7 29 20t78.5 27t115.5 14q86 0 161.5 -28t134.5 -80.5t93.5 -136
t34.5 -187.5q0 -244 -167 -405.5t-419 -161.5z" />
    <glyph glyph-name="six" unicode="6" horiz-adv-x="1128" 
d="M535 -20q-202 0 -338 125.5t-136 332.5q0 32 4.5 64t8.5 56.5t18 57.5t19.5 50t28.5 53t29.5 47.5t37 52.5t36.5 48.5t43 54.5t42 53l381 479h358l-453 -557h25q172 0 293 -118t121 -306q0 -143 -74.5 -257.5t-192 -175t-251.5 -60.5zM360 424q0 -76 51 -124t130 -48
q91 0 150 61.5t59 147.5q0 76 -52 124t-131 48q-92 0 -149.5 -61t-57.5 -148z" />
    <glyph glyph-name="seven" unicode="7" horiz-adv-x="1089" 
d="M49 0l619 1178h-541l29 276h968l-755 -1454h-320z" />
    <glyph glyph-name="eight" unicode="8" horiz-adv-x="1177" 
d="M543 -20q-96 0 -183.5 29.5t-155.5 83t-108.5 135.5t-40.5 180q0 137 73 246.5t194 168.5q-50 37 -78.5 100.5t-28.5 143.5q0 81 33 155t92 130.5t147 89.5t191 33q183 0 291 -101.5t108 -249.5q0 -94 -44.5 -176.5t-119.5 -134.5q90 -42 140.5 -130t50.5 -208
q0 -113 -49 -208.5t-129 -157t-179.5 -95.5t-203.5 -34zM377 446q0 -84 53 -133t133 -49q91 0 153 59.5t62 145.5q0 84 -55 132t-137 48q-88 0 -148.5 -58t-60.5 -145zM508 1053q0 -57 36 -90t89 -33q64 0 103.5 40t39.5 101q0 58 -36 91.5t-89 33.5q-64 0 -103.5 -40.5
t-39.5 -102.5z" />
    <glyph glyph-name="nine" unicode="9" horiz-adv-x="1128" 
d="M635 1475q202 0 337.5 -126t135.5 -333q0 -95 -36.5 -188t-74.5 -147t-126 -165q-19 -24 -29 -37l-381 -479h-359l453 557h-25q-112 0 -205.5 51.5t-150.5 149.5t-57 223q0 143 74.5 257.5t192 175.5t251.5 61zM420 993q0 -76 51.5 -124t130.5 -48q92 0 149.5 61
t57.5 148q0 76 -51 124t-129 48q-91 0 -150 -61.5t-59 -147.5z" />
    <glyph glyph-name="colon" unicode=":" horiz-adv-x="514" 
d="M305 713q-74 0 -127 50t-53 130t53 130t127 50t127 -50t53 -130t-53 -130t-127 -50zM47 160q0 80 53 130t127 50t127.5 -50.5t53.5 -129.5t-53.5 -129.5t-127.5 -50.5t-127 50t-53 130z" />
    <glyph glyph-name="semicolon" unicode=";" horiz-adv-x="593" 
d="M-43 -270l262 565h273l-265 -565h-270zM215 893q0 80 53 130t127 50t127 -50t53 -130t-53 -130t-127 -50t-127 50t-53 130z" />
    <glyph glyph-name="less" unicode="&#x3c;" horiz-adv-x="1017" 
d="M891 0l-815 387l24 211l893 387l-32 -297l-490 -196l453 -193z" />
    <glyph glyph-name="equal" unicode="=" horiz-adv-x="872" 
d="M61 252l29 266h686l-28 -266h-687zM98 600l29 266h686l-29 -266h-686z" />
    <glyph glyph-name="greater" unicode="&#x3e;" horiz-adv-x="1017" 
d="M119 985l815 -387l-25 -211l-893 -387l33 297l490 197l-453 192z" />
    <glyph glyph-name="question" unicode="?" horiz-adv-x="1103" 
d="M438 520q3 64 22.5 116.5t48.5 88t63.5 65.5t69.5 54.5t64.5 48.5t50 54.5t25.5 66.5q3 26 -2 55t-20.5 59.5t-52 50t-89.5 19.5q-47 0 -84 -16.5t-57.5 -39.5t-34 -54t-18 -53.5t-6.5 -43.5h-316q4 152 77.5 263.5t191 166t264.5 54.5q142 0 252 -53t169 -156t46 -240
q-6 -62 -26.5 -110.5t-49.5 -79.5t-62 -57.5t-66.5 -51t-61 -52.5t-47 -70t-23.5 -95l-4 -41h-328zM401 160q0 79 53.5 129.5t127.5 50.5t127 -50t53 -130t-53 -130t-127 -50t-127.5 50.5t-53.5 129.5z" />
    <glyph glyph-name="at" unicode="@" horiz-adv-x="1624" 
d="M776 -20q-192 0 -346.5 81.5t-246 236.5t-91.5 357q0 171 69.5 325t184 261.5t267 170.5t315.5 63q134 0 252.5 -43t206.5 -120.5t139 -195t51 -258.5q0 -137 -43.5 -247t-131 -177t-204.5 -67q-57 0 -100.5 17.5t-64.5 43.5t-31 46t-11 34q-3 -9 -22 -29.5t-50 -46
t-80.5 -44.5t-101.5 -19q-106 0 -179 78.5t-73 228.5q0 168 89 285.5t227 117.5q32 0 59.5 -6.5t45 -16.5t32.5 -22.5t22.5 -23t15 -18.5t10 -10t7.5 3l25 80h168l-43 -395q-3 -32 11 -55t46 -23q27 0 46 20.5t28.5 55.5t13.5 70t4 75q0 201 -108 304.5t-291 103.5
q-225 0 -373.5 -156t-148.5 -393q0 -206 121.5 -322.5t314.5 -116.5q146 0 299 70l-29 -264q-137 -59 -301 -59zM745 713q0 -43 20.5 -73t55.5 -30q44 0 68 36t24 91q0 101 -73 101q-42 0 -68.5 -36.5t-26.5 -88.5z" />
    <glyph glyph-name="A" unicode="A" horiz-adv-x="1482" 
d="M1010 1454l393 -1454h-350l-56 231h-575l-105 -231h-348l699 1454h342zM559 530h365l-127 525z" />
    <glyph glyph-name="B" unicode="B" horiz-adv-x="1193" 
d="M41 0l152 1454h548q168 0 268.5 -89t100.5 -230q0 -81 -36 -151t-82 -109.5t-97 -61.5q100 -28 167.5 -114t67.5 -230q0 -206 -146 -337.5t-404 -131.5h-539zM393 283h195q117 0 171 56t54 146q0 166 -190 166h-191zM459 901h159q87 0 130 41.5t43 108.5q0 120 -148 120
h-156z" />
    <glyph glyph-name="C" unicode="C" horiz-adv-x="1474" 
d="M776 -20q-191 0 -345.5 80.5t-246.5 235t-92 357.5q0 171 66.5 324t178 262t264 172.5t319.5 63.5q81 0 157 -16.5t152 -52.5t143 -102t113 -157l-248 -164q-120 184 -340 184q-198 0 -334.5 -134.5t-136.5 -338.5q0 -186 111 -296.5t280 -110.5q107 0 195.5 45.5
t169.5 138.5l215 -164q-66 -91 -144 -157t-159 -102t-159 -52t-159 -16z" />
    <glyph glyph-name="D" unicode="D" horiz-adv-x="1413" 
d="M41 0l152 1454h546q179 0 325.5 -86t231 -241.5t84.5 -350.5q0 -161 -62.5 -305.5t-167.5 -247.5t-249 -163t-301 -60h-559zM397 305h211q197 0 316.5 132.5t119.5 330.5q0 172 -92 276.5t-258 104.5h-211z" />
    <glyph glyph-name="E" unicode="E" horiz-adv-x="1021" 
d="M41 0l152 1454h841l-28 -297h-521l-28 -278h430l-29 -293h-432l-31 -289h535l-29 -297h-860z" />
    <glyph glyph-name="F" unicode="F" horiz-adv-x="993" 
d="M41 0l152 1454h831l-31 -295h-508l-30 -291h479l-29 -276h-479l-61 -592h-324z" />
    <glyph glyph-name="G" unicode="G" horiz-adv-x="1572" 
d="M774 -20q-141 0 -265 47t-216.5 132t-146.5 212.5t-54 279.5q0 170 64.5 323t174 262.5t260.5 174t318 64.5q83 0 160.5 -16.5t154.5 -52.5t143.5 -102t113.5 -157l-248 -164q-113 188 -336 188q-202 0 -336.5 -140t-134.5 -343q0 -184 111 -298t286 -114
q79 0 145.5 23.5t123.5 82t86 148.5h-328l29 269h637q7 -151 -29 -283t-105.5 -229t-165 -167t-208.5 -105t-234 -35z" />
    <glyph glyph-name="H" unicode="H" horiz-adv-x="1386" 
d="M911 0l60 569h-549l-60 -569h-323l154 1454h323l-61 -586h549l61 586h324l-154 -1454h-324z" />
    <glyph glyph-name="I" unicode="I" horiz-adv-x="518" 
d="M41 0l154 1454h323l-153 -1454h-324z" />
    <glyph glyph-name="J" unicode="J" horiz-adv-x="1089" 
d="M444 -20q-153 0 -270 62.5t-174 166.5l231 209q32 -51 85.5 -89t129.5 -38q22 0 41 2.5t52 16.5t57.5 38.5t46.5 75t29 119.5l94 911h324l-101 -956q-15 -141 -68.5 -245.5t-131.5 -162t-163.5 -84t-181.5 -26.5z" />
    <glyph glyph-name="K" unicode="K" horiz-adv-x="1341" 
d="M41 0l152 1454h323l-67 -645l536 645h358l-559 -647l478 -807h-340l-344 565l-175 -200l-38 -365h-324z" />
    <glyph glyph-name="L" unicode="L" horiz-adv-x="1015" 
d="M41 0l154 1454h323l-121 -1157h537l-33 -297h-860z" />
    <glyph glyph-name="M" unicode="M" horiz-adv-x="1720" 
d="M41 0l154 1454h321l336 -1014l543 1014h325l-153 -1454h-324l74 737l-363 -737h-280l-230 733l-79 -733h-324z" />
    <glyph glyph-name="N" unicode="N" horiz-adv-x="1458" 
d="M41 0l152 1454h329l504 -924h12l97 924h323l-151 -1454h-330l-504 924h-12l-96 -924h-324z" />
    <glyph glyph-name="O" unicode="O" horiz-adv-x="1667" 
d="M780 -20q-195 0 -350.5 80.5t-246.5 234.5t-91 356q0 171 67 324.5t179.5 262.5t266.5 173t323 64q145 0 271.5 -47.5t218.5 -133t145 -212.5t53 -279q0 -171 -67.5 -324.5t-180.5 -262t-266.5 -172.5t-321.5 -64zM426 684q0 -181 108.5 -289t278.5 -108
q196 0 333.5 139.5t137.5 343.5q0 181 -109 289t-278 108q-197 0 -334 -139t-137 -344z" />
    <glyph glyph-name="P" unicode="P" horiz-adv-x="1210" 
d="M39 0l154 1454h532q221 0 348.5 -122t126.5 -335q0 -159 -74.5 -283.5t-206.5 -193.5t-298 -69h-209l-50 -451h-323zM442 748h176q254 0 254 217q1 102 -52.5 147t-153.5 45h-179z" />
    <glyph glyph-name="Q" unicode="Q" horiz-adv-x="1667" 
d="M1176 0l-39 57q-171 -77 -357 -77q-195 0 -350.5 80.5t-246.5 234.5t-91 356q0 171 67 324.5t179.5 262.5t266.5 173t323 64q145 0 271.5 -47.5t218.5 -133t145 -212.5t53 -279q0 -164 -61 -309.5t-169 -257.5l156 -236h-366zM426 684q0 -181 108.5 -289t278.5 -108
q76 0 156 26l-226 342h365l100 -151q76 123 76 266q0 181 -109 289t-278 108q-197 0 -334 -139t-137 -344z" />
    <glyph glyph-name="R" unicode="R" horiz-adv-x="1280" 
d="M41 0l152 1454h528q217 0 345 -120t128 -328q0 -161 -81 -286.5t-220 -191.5l276 -528h-342l-237 469h-176l-49 -469h-324zM444 745h170q108 0 180 62t72 176q0 95 -53.5 134.5t-153.5 39.5h-172z" />
    <glyph glyph-name="S" unicode="S" horiz-adv-x="1138" 
d="M530 -20q-192 0 -333.5 104t-167.5 270l274 123q22 -90 83.5 -147.5t162.5 -57.5q84 0 139 38.5t55 119.5q0 63 -39 103t-139 81l-69 29q-76 30 -132 63.5t-106 81t-76 112t-26 144.5q0 128 66.5 227t178 151.5t246.5 52.5q94 0 174.5 -26.5t137 -71.5t94.5 -98.5
t59 -113.5l-256 -135q-77 156 -219 156q-70 0 -116 -35.5t-46 -93.5q0 -51 42.5 -88.5t144.5 -79.5l88 -35q175 -72 253 -166.5t78 -236.5q0 -92 -33 -171t-87.5 -133t-126 -92.5t-149 -56.5t-155.5 -18z" />
    <glyph glyph-name="T" unicode="T" horiz-adv-x="1077" 
d="M319 0l121 1157h-327l32 297h983l-30 -297h-334l-121 -1157h-324z" />
    <glyph glyph-name="U" unicode="U" horiz-adv-x="1316" 
d="M612 -31q-117 0 -217 38.5t-170.5 109t-105.5 176.5t-21 233l99 928h323l-98 -942q-6 -53 5 -96t33 -69t53 -43.5t62 -24.5t64 -7q43 0 82 12t77 39t64 78.5t33 122.5l98 930h324l-98 -940q-18 -168 -106.5 -293.5t-218.5 -188.5t-282 -63z" />
    <glyph glyph-name="V" unicode="V" horiz-adv-x="1482" 
d="M514 0l-393 1454h350l256 -1055l479 1055h348l-698 -1454h-342z" />
    <glyph glyph-name="W" unicode="W" horiz-adv-x="2088" 
d="M426 0l-305 1454h342l172 -899l379 899h256l194 -899l357 899h340l-609 -1454h-256l-215 909l-399 -909h-256z" />
    <glyph glyph-name="X" unicode="X" horiz-adv-x="1386" 
d="M-31 0l559 733l-397 721h375l235 -440l326 440h389l-547 -721l398 -733h-373l-240 453l-336 -453h-389z" />
    <glyph glyph-name="Y" unicode="Y" horiz-adv-x="1454" 
d="M504 0l65 563l-438 891h354l271 -598l385 598h375l-623 -891l-66 -563h-323z" />
    <glyph glyph-name="Z" unicode="Z" horiz-adv-x="1224" 
d="M-20 0l770 1157h-619l29 297h1126l-770 -1157h627l-29 -297h-1134z" />
    <glyph glyph-name="bracketleft" unicode="[" horiz-adv-x="655" 
d="M-47 -266l188 1792h471l-28 -277h-148l-129 -1239h148l-31 -276h-471z" />
    <glyph glyph-name="backslash" unicode="\" horiz-adv-x="1052" 
d="M586 0l-434 1536h325l434 -1536h-325z" />
    <glyph glyph-name="bracketright" unicode="]" horiz-adv-x="653" 
d="M-49 -266l31 276h147l129 1239h-147l28 277h471l-188 -1792h-471z" />
    <glyph glyph-name="asciicircum" unicode="^" horiz-adv-x="1034" 
d="M139 973l389 461h166l295 -461h-268l-133 213l-180 -213h-269z" />
    <glyph glyph-name="underscore" unicode="_" horiz-adv-x="1208" 
d="M-51 -276l31 276h1024l-31 -276h-1024z" />
    <glyph glyph-name="grave" unicode="`" horiz-adv-x="516" 
d="M311 1192l-188 324h258l184 -324h-254z" />
    <glyph glyph-name="a" unicode="a" 
d="M496 -20q-87 0 -167.5 32t-144.5 92t-102.5 155t-38.5 212q0 167 72.5 308t200.5 223.5t282 82.5q68 0 126.5 -16t95 -40t58 -46t29.5 -39h11l14 121h317l-110 -1065h-318l15 121h-15q-21 -41 -114.5 -91t-210.5 -50zM358 500q0 -63 21 -111t56.5 -74.5t75 -39.5
t81.5 -13q52 0 103 19t94 55t69.5 95.5t26.5 133.5q0 121 -70 179.5t-164 58.5q-52 0 -103 -19t-94 -55t-69.5 -95.5t-26.5 -133.5z" />
    <glyph glyph-name="b" unicode="b" horiz-adv-x="1286" 
d="M707 -20q-125 0 -212.5 49t-109.5 92h-12l-15 -121h-317l152 1454h317l-53 -510h10q14 18 41 39t68.5 45.5t102 40.5t124.5 16q86 0 164.5 -30.5t141.5 -88.5t100.5 -152.5t37.5 -211.5q0 -168 -70.5 -311t-195 -227t-274.5 -84zM406 496q0 -116 66.5 -175t160.5 -59
q51 0 101.5 18t96 53t73.5 96.5t28 139.5q0 116 -66.5 175t-160.5 59q-51 0 -101.5 -18t-96 -53t-73.5 -96.5t-28 -139.5z" />
    <glyph glyph-name="c" unicode="c" horiz-adv-x="1118" 
d="M567 -20q-104 0 -197.5 32t-167 92t-116.5 155.5t-43 213.5q0 174 84 315t225 219t307 78q151 0 268.5 -67.5t176.5 -194.5l-246 -149q-77 125 -221 125q-112 0 -195.5 -80.5t-83.5 -208.5q0 -110 66.5 -177t167.5 -67q70 0 131.5 34.5t103.5 90.5l215 -149
q-175 -262 -475 -262z" />
    <glyph glyph-name="d" unicode="d" 
d="M496 -20q-87 0 -167.5 32t-144.5 92t-102.5 155t-38.5 212q0 167 72.5 308t200.5 223.5t282 82.5q68 0 126.5 -16t95 -40t58 -46t29.5 -39h11l55 510h317l-151 -1454h-318l15 121h-15q-21 -41 -114.5 -91t-210.5 -50zM358 500q0 -63 21 -111t56.5 -74.5t75 -39.5
t81.5 -13q52 0 103 19t94 55t69.5 95.5t26.5 133.5q0 121 -70 179.5t-164 58.5q-52 0 -103 -19t-94 -55t-69.5 -95.5t-26.5 -133.5z" />
    <glyph glyph-name="e" unicode="e" horiz-adv-x="1163" 
d="M559 -20q-104 0 -196.5 33.5t-164 95.5t-113.5 160t-42 218q0 167 80 304.5t216 215.5t296 78q86 0 165 -24t149.5 -75t113.5 -130.5t56.5 -190.5t-21.5 -255h-760q26 -84 98 -128t176 -44q145 0 265 84l120 -152q-78 -87 -190.5 -138.5t-247.5 -51.5zM348 637h490
q-9 90 -73 136t-155 46q-95 0 -162.5 -49.5t-99.5 -132.5z" />
    <glyph glyph-name="f" unicode="f" horiz-adv-x="815" 
d="M225 1096q10 98 44 172.5t78 117.5t101.5 70t107.5 36t103 9q121 0 187 -41l-27 -248q-45 21 -110 21q-152 0 -168 -152l-2 -16h266l-27 -252h-266l-84 -813h-317l86 813h-144l27 252h141z" />
    <glyph glyph-name="g" unicode="g" 
d="M522 -426q-213 0 -303 64l29 253q34 -24 105 -38.5t145 -14.5q145 0 232.5 62t96.5 163l9 58h-15q-22 -40 -115 -90.5t-210 -50.5q-85 0 -165 31t-145 90t-104 153.5t-39 210.5q0 134 45.5 251t121 197t175.5 126t209 46q86 0 159 -28.5t108 -58.5t46 -54h11l14 121h317
l-102 -975q-9 -88 -36.5 -161.5t-65.5 -125.5t-88.5 -93t-103.5 -66t-112 -41.5t-112 -22.5t-107 -6zM358 504q0 -115 66 -178.5t168 -63.5q122 0 207.5 85t85.5 216q0 114 -65.5 177t-166.5 63q-122 0 -208.5 -87t-86.5 -212z" />
    <glyph glyph-name="h" unicode="h" horiz-adv-x="1222" 
d="M41 0l156 1454h317l-57 -520q117 151 323 151q83 0 151 -26.5t119.5 -79.5t75 -143.5t11.5 -208.5l-66 -627h-317l59 571q12 103 -34.5 167.5t-143.5 64.5q-99 0 -151.5 -62.5t-65.5 -169.5l-60 -571h-317z" />
    <glyph glyph-name="i" unicode="i" horiz-adv-x="507" 
d="M41 0l111 1065h317l-111 -1065h-317zM164 1178l26 276h318l-27 -276h-317z" />
    <glyph glyph-name="j" unicode="j" horiz-adv-x="516" 
d="M-283 -395l33 293h64q58 0 97 9t71.5 32.5t51 68t25.5 113.5l99 944h317l-102 -977q-26 -254 -162.5 -368.5t-411.5 -114.5h-82zM172 1178l27 276h317l-27 -276h-317z" />
    <glyph glyph-name="k" unicode="k" horiz-adv-x="1212" 
d="M41 0l152 1454h317l-86 -829l399 440h385l-473 -496l398 -569h-355l-248 356l-151 -157l-21 -199h-317z" />
    <glyph glyph-name="l" unicode="l" horiz-adv-x="509" 
d="M41 0l152 1454h317l-152 -1454h-317z" />
    <glyph glyph-name="m" unicode="m" horiz-adv-x="1845" 
d="M709 0l61 602q12 98 -31.5 149.5t-124.5 51.5q-80 0 -131 -51t-63 -150l-62 -602h-317l111 1065h317l-14 -127q108 147 301 147q99 0 175.5 -41.5t117.5 -125.5q58 77 147.5 122t208.5 45q88 0 157 -28t118 -84t70 -147.5t9 -211.5l-65 -614h-318l62 602
q12 98 -31.5 149.5t-124.5 51.5q-80 0 -131.5 -51t-63.5 -150l-61 -602h-317z" />
    <glyph glyph-name="n" unicode="n" horiz-adv-x="1222" 
d="M41 0l111 1065h317l-14 -133q118 153 325 153q83 0 151 -26.5t119.5 -79.5t75 -143.5t11.5 -208.5l-66 -627h-317l59 571q11 103 -35 167.5t-143 64.5q-99 0 -151.5 -62.5t-65.5 -169.5l-60 -571h-317z" />
    <glyph glyph-name="o" unicode="o" horiz-adv-x="1214" 
d="M561 -20q-90 0 -179.5 32t-165.5 92.5t-123.5 160t-47.5 222.5q0 168 83 306t222.5 215t304.5 77q72 0 144 -19.5t139.5 -61.5t119 -100.5t82.5 -143.5t31 -185q0 -167 -83 -304.5t-222.5 -214t-304.5 -76.5zM352 498q0 -112 69 -175t157 -63q120 0 203 82.5t83 222.5
q0 113 -68.5 176.5t-156.5 63.5q-121 0 -204 -83t-83 -224z" />
    <glyph glyph-name="p" unicode="p" horiz-adv-x="1286" 
d="M0 -389l152 1454h317l-12 -121h10q14 18 41 39t68.5 45.5t102 40.5t124.5 16q86 0 164.5 -30.5t141.5 -88.5t100.5 -152.5t37.5 -211.5q0 -168 -70.5 -311t-195 -227t-274.5 -84q-125 0 -212.5 49t-109.5 92h-12l-58 -510h-315zM406 496q0 -116 66.5 -175t160.5 -59
q51 0 101.5 18t96 53t73.5 96.5t28 139.5q0 116 -66.5 175t-160.5 59q-51 0 -101.5 -18t-96 -53t-73.5 -96.5t-28 -139.5z" />
    <glyph glyph-name="q" unicode="q" horiz-adv-x="1292" 
d="M780 -389l43 389h-2l15 121h-15q-21 -41 -114.5 -91t-210.5 -50q-87 0 -167.5 32t-144.5 92t-102.5 155t-38.5 212q0 167 72.5 308t200.5 223.5t282 82.5q68 0 126.5 -16t95 -40t58 -46t29.5 -39h11l14 121h317l-149 -1454h-320zM358 500q0 -63 21 -111t56.5 -74.5
t75 -39.5t81.5 -13q52 0 103 19t94 55t69.5 95.5t26.5 133.5q0 121 -70 179.5t-164 58.5q-52 0 -103 -19t-94 -55t-69.5 -95.5t-26.5 -133.5z" />
    <glyph glyph-name="r" unicode="r" horiz-adv-x="864" 
d="M41 0l111 1065h317l-31 -305q40 147 129.5 236t231.5 89q47 0 78 -14l-33 -297q-30 6 -84 6q-142 0 -232.5 -80.5t-119.5 -218.5l-50 -481h-317z" />
    <glyph glyph-name="s" unicode="s" horiz-adv-x="915" 
d="M420 -20q-169 0 -282 78.5t-128 224.5l254 71q39 -125 160 -125q47 0 79 21.5t32 64.5q0 34 -20 55t-71 38l-129 49q-114 41 -169.5 116t-55.5 170q0 99 57.5 178t151 121.5t203.5 42.5q149 0 252 -77.5t120 -202.5l-249 -70q-36 101 -131 101q-46 0 -71.5 -19.5
t-25.5 -54.5q0 -54 72 -78l145 -57q234 -82 234 -295q0 -162 -121.5 -257t-306.5 -95z" />
    <glyph glyph-name="t" unicode="t" horiz-adv-x="798" 
d="M485 -12q-157 0 -239.5 82.5t-63.5 257.5l51 485h-159l26 252h158l29 272h317l-29 -272h224l-27 -252h-221l-45 -434q-5 -46 20.5 -78.5t91.5 -32.5q45 0 103 17l-27 -242q-55 -55 -209 -55z" />
    <glyph glyph-name="u" unicode="u" horiz-adv-x="1222" 
d="M1182 1065l-111 -1065h-317l14 133q-118 -153 -326 -153q-82 0 -150 26.5t-119.5 79.5t-75 143.5t-11.5 208.5l66 627h317l-59 -571q-11 -103 35 -167.5t143 -64.5q99 0 151.5 62.5t65.5 169.5l59 571h318z" />
    <glyph glyph-name="v" unicode="v" horiz-adv-x="1236" 
d="M416 0l-336 1065h323l197 -690l340 690h328l-557 -1065h-295z" />
    <glyph glyph-name="w" unicode="w" horiz-adv-x="1875" 
d="M1118 0l-168 657l-303 -657h-293l-274 1065h315l146 -690l305 690h293l164 -690l284 690h320l-496 -1065h-293z" />
    <glyph glyph-name="x" unicode="x" horiz-adv-x="1204" 
d="M-41 0l465 547l-305 518h354l156 -289l217 289h366l-421 -518l344 -547h-359l-186 315l-258 -315h-373z" />
    <glyph glyph-name="y" unicode="y" horiz-adv-x="1236" 
d="M193 -389l217 409l-330 1045h323l197 -690l340 690h328l-760 -1454h-315z" />
    <glyph glyph-name="z" unicode="z" horiz-adv-x="1083" 
d="M-31 0l604 788h-467l29 277h979l-604 -789h483l-28 -276h-996z" />
    <glyph glyph-name="braceleft" unicode="{" horiz-adv-x="743" 
d="M293 -266q-32 0 -62 5t-63.5 21.5t-56.5 42.5t-35.5 72.5t-5.5 106.5l57 499l-80 146l103 149l57 514q30 236 262 236h231l-28 -277h-66q-34 0 -58.5 -17t-27.5 -48l-39 -418l-137 -139l100 -135l-41 -426q-3 -31 12.5 -43.5t49.5 -12.5h78l-31 -276h-219z" />
    <glyph glyph-name="bar" unicode="|" horiz-adv-x="530" 
d="M31 -389l213 2027h276l-213 -2027h-276z" />
    <glyph glyph-name="braceright" unicode="}" horiz-adv-x="743" 
d="M-47 -266l31 276h65q33 0 56 17.5t26 48.5l41 416l137 135l-100 139l43 428q1 31 -13.5 43t-48.5 12h-77l28 277h219q31 0 60.5 -5t63 -21.5t56.5 -42.5t36 -72.5t6 -106.5l-58 -502l82 -149l-104 -146l-58 -512q-26 -235 -260 -235h-231z" />
    <glyph glyph-name="asciitilde" unicode="~" horiz-adv-x="1021" 
d="M662 408q-55 0 -97 16t-62.5 35t-48.5 35t-59 16q-71 0 -78 -49h-233q11 122 84.5 198t198.5 76q55 0 97 -16t62.5 -35t49 -35t59.5 -16q69 0 76 49h233q-11 -123 -83.5 -198.5t-198.5 -75.5z" />
    <glyph glyph-name="exclamdown" unicode="&#xa1;" horiz-adv-x="555" 
d="M451 586l-105 -975h-328l105 975h328zM135 905q0 80 53 130t127 50t127.5 -50.5t53.5 -129.5t-53.5 -129.5t-127.5 -50.5t-127 50t-53 130z" />
    <glyph glyph-name="cent" unicode="&#xa2;" horiz-adv-x="1118" 
d="M465 -82l27 254q-90 13 -167 50.5t-136.5 97t-93.5 147t-34 192.5q0 162 73.5 296.5t197 215t274.5 97.5l19 166h149l-18 -166q126 -18 220.5 -83t145.5 -175l-245 -150q-56 89 -152 117l-53 -516q104 23 174 117l215 -150q-157 -236 -420 -260l-27 -250h-149zM377 696
q0 -84 39.5 -143.5t105.5 -83.5l53 504q-86 -24 -142 -98t-56 -179z" />
    <glyph glyph-name="sterling" unicode="&#xa3;" horiz-adv-x="1169" 
d="M27 260q237 122 237 285l-2 22h-209l27 234h102q-45 113 -45 215q0 135 71 240.5t194 162t278 56.5q228 0 355.5 -119.5t107.5 -337.5l-4 -41h-305l4 37q1 17 -1.5 38t-14 48t-31.5 48t-57.5 35.5t-86.5 14.5q-97 0 -152 -57.5t-55 -147.5q0 -71 52 -192h339l-26 -234
h-246v-20q0 -91 -41.5 -167t-116.5 -120h648l-27 -260h-1022z" />
    <glyph glyph-name="currency" unicode="&#xa4;" horiz-adv-x="1122" 
d="M553 516q-136 0 -240 68l-80 -72l-172 190l99 89q-19 62 -19 127q0 133 64 249l-84 95l213 188l72 -80q112 64 243 64q136 0 242 -70l94 86l168 -188l-111 -101q21 -75 21 -137q0 -122 -53 -225l84 -97l-209 -190l-70 78q-120 -74 -262 -74zM387 954q0 -34 10 -66
t31.5 -61t60 -47t89.5 -18q61 0 110 24t76.5 61t42 76t14.5 74q0 32 -10 63.5t-31 61t-59.5 48t-89.5 18.5q-62 0 -111 -24t-76.5 -61t-42 -75.5t-14.5 -73.5z" />
    <glyph glyph-name="yen" unicode="&#xa5;" horiz-adv-x="1454" 
d="M276 381l21 156h268l4 26l-438 891h354l271 -598l385 598h375l-623 -891l-4 -26h293l-19 -156h-291l-8 -70h291l-16 -157h-293l-19 -154h-323l18 154h-268l14 157h273l8 70h-273z" />
    <glyph glyph-name="brokenbar" unicode="&#xa6;" horiz-adv-x="532" 
d="M31 -389l61 573h277l-62 -573h-276zM184 1065l60 573h276l-59 -573h-277z" />
    <glyph glyph-name="section" unicode="&#xa7;" horiz-adv-x="1144" 
d="M455 -389q-179 0 -303.5 57t-184.5 129l45 312h287l-18 -148q18 -23 62.5 -43t113.5 -20q114 0 175.5 50t61.5 126q0 49 -25.5 77.5t-90.5 51.5l-168 63q-314 119 -314 383q0 200 152 326q-76 95 -76 227q0 104 43 188.5t116 137.5t166.5 81.5t198.5 28.5
q163 0 303.5 -61.5t167.5 -118.5l-45 -307h-286l18 141q-8 24 -55.5 42t-114.5 18q-88 0 -143.5 -41t-55.5 -107q0 -91 115 -133l184 -70q161 -60 240.5 -153.5t79.5 -235.5q0 -202 -150 -323q74 -95 74 -230q0 -142 -76.5 -245t-204.5 -153t-292 -50zM410 651
q0 -91 114 -133l140 -53q106 55 106 162q0 49 -25.5 77t-89.5 52l-127 47q-56 -20 -87 -60t-31 -92z" />
    <glyph glyph-name="dieresis" unicode="&#xa8;" horiz-adv-x="864" 
d="M616 1180l31 311h297l-37 -311h-291zM88 1180l33 311h295l-35 -311h-293z" />
    <glyph glyph-name="copyright" unicode="&#xa9;" horiz-adv-x="1605" 
d="M743 -14q-132 0 -250.5 48t-207 133t-141 211t-52.5 273q0 167 67 320.5t178 263.5t260 175t308 65q177 0 324.5 -80.5t236 -231.5t88.5 -342q0 -166 -66 -321t-176 -267t-259.5 -179.5t-309.5 -67.5zM367 676q0 -191 114 -304.5t291 -113.5q216 0 362 149t146 371
q0 196 -114.5 310t-291.5 114q-213 0 -360 -151.5t-147 -374.5zM475 686q0 173 113.5 296.5t285.5 123.5q79 0 139 -29t91 -82l-164 -176q-38 33 -72 33q-48 0 -86.5 -37.5t-38.5 -97.5q0 -46 27.5 -77.5t69.5 -31.5q44 0 82 33l129 -176q-90 -111 -252 -111q-142 0 -233 90
t-91 242z" />
    <glyph glyph-name="ordfeminine" unicode="&#xaa;" horiz-adv-x="851" 
d="M334 760q-111 0 -176.5 56t-65.5 155q0 58 25.5 101.5t70.5 69.5t97.5 40t115.5 18l148 6q6 42 -23 66t-75 24q-84 0 -199 -61l-78 131q41 39 121.5 71.5t177.5 32.5q154 0 230 -87.5t59 -245.5l-17 -160q-7 -62 0 -112.5t33 -102.5h-190q-4 4 -9.5 12.5t-13.5 31
t-10 48.5q-59 -51 -107 -72.5t-114 -21.5zM301 987q0 -55 74 -55q56 0 99 32t52 76l4 17l-143 -8q-45 -3 -65.5 -18t-20.5 -44z" />
    <glyph glyph-name="guillemotleft" unicode="&#xab;" horiz-adv-x="911" 
d="M434 948l84 -102l-219 -266l166 -267l-109 -102l-274 309l8 117zM457 520l8 117l344 311l84 -102l-219 -266l166 -267l-109 -102z" />
    <glyph glyph-name="logicalnot" unicode="&#xac;" horiz-adv-x="1116" 
d="M1032 618l-49 -479h-303l22 213h-628l26 266h932z" />
    <glyph glyph-name="uni00AD" unicode="&#xad;" horiz-adv-x="823" 
d="M33 426l26 266h635l-26 -266h-635z" />
    <glyph glyph-name="registered" unicode="&#xae;" horiz-adv-x="1605" 
d="M743 -14q-132 0 -250.5 48t-207 133t-141 211t-52.5 273q0 167 67 320.5t178 263.5t260 175t308 65q177 0 324.5 -80.5t236 -231.5t88.5 -342q0 -166 -66 -321t-176 -267t-259.5 -179.5t-309.5 -67.5zM367 676q0 -191 114 -304.5t291 -113.5q216 0 362 149t146 371
q0 196 -114.5 310t-291.5 114q-213 0 -360 -151.5t-147 -374.5zM541 406l71 634h283q105 0 159 -55.5t54 -142.5q0 -148 -145 -217l122 -219h-198l-105 210h-26l-25 -210h-190zM764 766h72q73 0 73 61q0 29 -15.5 38t-45.5 9h-72z" />
    <glyph glyph-name="macron" unicode="&#xaf;" horiz-adv-x="821" 
d="M88 1180l25 239h778l-25 -239h-778z" />
    <glyph glyph-name="degree" unicode="&#xb0;" horiz-adv-x="638" 
d="M381 971q-105 0 -174.5 67.5t-69.5 167.5q0 108 78.5 188.5t187.5 80.5q104 0 174 -68t70 -168q0 -108 -78.5 -188t-187.5 -80zM344 1221q0 -20 11.5 -33.5t31.5 -13.5t36.5 14t16.5 37q0 20 -11.5 33.5t-31.5 13.5t-36.5 -14t-16.5 -37z" />
    <glyph glyph-name="plusminus" unicode="&#xb1;" horiz-adv-x="870" 
d="M328 440l26 246h-243l20 193h244l26 245h193l-27 -245h248l-20 -193h-248l-27 -246h-192zM37 2l26 266h687l-27 -266h-686z" />
    <glyph glyph-name="uni00B2" unicode="&#xb2;" horiz-adv-x="483" 
d="M102 901l7 66l151 143q94 88 110 108q29 36 33 74q3 36 -21 61t-60 25q-40 0 -73.5 -27.5t-37.5 -76.5l-4 -27h-76l4 31q7 72 61 118t123 46q71 0 118.5 -48t41.5 -110q-6 -53 -39.5 -96t-120.5 -123l-108 -98h242l-7 -66h-344z" />
    <glyph glyph-name="uni00B3" unicode="&#xb3;" horiz-adv-x="503" 
d="M293 893q-84 0 -132.5 56t-37.5 132l78 -4q-6 -49 18 -84t72 -35q47 0 85 29t42 74q6 54 -29.5 74t-109.5 20l2 59q66 0 101 25t38 66q3 31 -19 51t-57 20q-45 0 -76 -30t-37 -84l-75 4q7 77 59.5 125.5t126.5 48.5q67 0 113.5 -43.5t40.5 -100.5q-7 -64 -74 -106
q35 -15 56.5 -50.5t15.5 -86.5q-6 -68 -66 -114t-135 -46z" />
    <glyph glyph-name="acute" unicode="&#xb4;" horiz-adv-x="450" 
d="M90 1192l184 324h258l-188 -324h-254z" />
    <glyph glyph-name="uni00B5" unicode="&#xb5;" horiz-adv-x="1247" 
d="M0 -389l154 1454h317l-61 -594q-13 -118 18 -164.5t107 -46.5q55 0 105.5 23.5t85.5 59t58 68t35 60.5l68 594h319l-112 -1065h-320l27 180q-14 -24 -40.5 -53t-69.5 -63.5t-106 -57t-132 -22.5q-39 0 -93 -33l-43 -340h-317z" />
    <glyph glyph-name="paragraph" unicode="&#xb6;" horiz-adv-x="1757" 
d="M739 0l52 492h-179q-226 0 -358.5 118t-132.5 326q0 229 161.5 373.5t419.5 144.5h515l-154 -1454h-324zM440 944q0 -176 209 -176h170l41 389h-174q-117 0 -181.5 -56t-64.5 -157zM1280 0l154 1454h323l-153 -1454h-324z" />
    <glyph glyph-name="periodcentered" unicode="&#xb7;" horiz-adv-x="530" 
d="M270 379q-74 0 -127 50t-53 130t53 130t127 50t127.5 -50.5t53.5 -129.5t-53.5 -129.5t-127.5 -50.5z" />
    <glyph glyph-name="cedilla" unicode="&#xb8;" horiz-adv-x="475" 
d="M-55 -369q42 -2 77.5 2t66 15t48 31.5t17.5 50.5q0 96 -185 75l-18 64l90 131h219l-57 -74q78 -3 124 -49.5t46 -116.5q0 -53 -27 -97.5t-71.5 -72.5t-102 -46t-117.5 -17t-118 14z" />
    <glyph glyph-name="uni00B9" unicode="&#xb9;" horiz-adv-x="397" 
d="M215 901l49 453l-37 -23l-32 64l75 41h76l-55 -535h-76z" />
    <glyph glyph-name="ordmasculine" unicode="&#xba;" horiz-adv-x="751" 
d="M418 772q-79 0 -149.5 35.5t-117.5 109t-47 168.5q0 80 33.5 149.5t86.5 114t116 70t123 25.5q120 0 212.5 -86t92.5 -225q0 -81 -33 -151.5t-84.5 -115t-112.5 -69.5t-120 -25zM309 1096q0 -54 35 -86.5t84 -32.5q56 0 97.5 43.5t41.5 107.5q0 48 -35.5 79.5t-80.5 31.5
q-54 0 -98 -42.5t-44 -100.5z" />
    <glyph glyph-name="guillemotright" unicode="&#xbb;" horiz-adv-x="911" 
d="M487 211l-84 102l220 267l-166 266l108 102l275 -309l-9 -117zM29 313l219 267l-166 266l108 102l275 -309l-8 -117l-344 -311z" />
    <glyph glyph-name="onequarter" unicode="&#xbc;" horiz-adv-x="1167" 
d="M-59 0l1044 1434h86l-1032 -1434h-98zM94 1395l76 41h76l-56 -535h-75l47 453l-35 -23zM618 156l312 379h76l-33 -316h55l-8 -63h-55l-17 -156h-76l17 156h-271zM764 219h133l21 195z" />
    <glyph glyph-name="onehalf" unicode="&#xbd;" horiz-adv-x="1116" 
d="M-59 0l1044 1434h86l-1032 -1434h-98zM94 1395l76 41h76l-56 -535h-75l47 453l-35 -23zM608 0l8 66l152 143q93 87 111 111q26 33 30 71q4 36 -20 61t-60 25q-40 0 -73 -27.5t-39 -76.5l-2 -27h-76l4 31q7 72 61 118t123 46q71 0 118.5 -48t41.5 -110q-6 -53 -39.5 -96
t-120.5 -123l-108 -98h242l-9 -66h-344z" />
    <glyph glyph-name="threequarters" unicode="&#xbe;" horiz-adv-x="1202" 
d="M-2 0l1042 1434h86l-1030 -1434h-98zM53 1081l78 -4q-5 -50 19.5 -84.5t72.5 -34.5q47 0 84 29t41 74q6 54 -29.5 74t-109.5 20l2 59q66 0 101 25t40 66q3 30 -19.5 50.5t-58.5 20.5q-45 0 -75.5 -30t-36.5 -84l-74 4q6 77 59 125.5t127 48.5q67 0 112.5 -43.5
t39.5 -100.5q-7 -64 -72 -106q35 -15 55.5 -50.5t16.5 -86.5q-7 -68 -67.5 -114t-135.5 -46q-84 0 -132.5 56t-37.5 132zM655 156l310 379h75l-32 -316h55l-6 -63h-56l-16 -156h-76l17 156h-271zM799 219h133l20 195z" />
    <glyph glyph-name="questiondown" unicode="&#xbf;" horiz-adv-x="1103" 
d="M666 545q-3 -64 -22.5 -116.5t-48.5 -88t-63.5 -65.5t-69.5 -54.5t-64.5 -48.5t-50 -54.5t-25.5 -66.5q-1 -19 -0.5 -42.5t11.5 -48.5t27.5 -45.5t49 -34t75.5 -13.5q47 0 84 16.5t57.5 39.5t34.5 54t19 53.5t6 43.5h315q-6 -227 -156.5 -355.5t-375.5 -128.5
q-142 0 -252 53t-169 156t-46 240q6 62 26.5 110.5t49.5 79.5t62 57.5t66.5 51t61 52.5t47 70t23.5 95l4 41h328zM342 905q0 80 53 130t127 50t127 -50t53 -130t-53 -130t-127 -50t-127 50t-53 130z" />
    <glyph glyph-name="Agrave" unicode="&#xc0;" horiz-adv-x="1482" 
d="M1010 1454l393 -1454h-350l-56 231h-575l-105 -231h-348l699 1454h342zM520 1884h258l185 -323h-254zM559 530h365l-127 525z" />
    <glyph glyph-name="Aacute" unicode="&#xc1;" horiz-adv-x="1482" 
d="M1010 1454l393 -1454h-350l-56 231h-575l-105 -231h-348l699 1454h342zM559 530h365l-127 525zM711 1561l184 323h258l-188 -323h-254z" />
    <glyph glyph-name="Acircumflex" unicode="&#xc2;" horiz-adv-x="1482" 
d="M1010 1454l393 -1454h-350l-56 231h-575l-105 -231h-348l699 1454h342zM520 1624l264 260h207l205 -260l-143 -133l-183 219l-213 -219zM559 530h365l-127 525z" />
    <glyph glyph-name="Atilde" unicode="&#xc3;" horiz-adv-x="1482" 
d="M1010 1454l393 -1454h-350l-56 231h-575l-105 -231h-348l699 1454h342zM483 1595q10 126 76 195.5t158 69.5q52 0 99 -26t83.5 -51.5t63.5 -25.5q24 0 44 16t21 46h213q-10 -124 -76.5 -193.5t-158.5 -69.5q-40 0 -78 16t-61.5 34.5t-51 34.5t-49.5 16q-25 0 -47 -16
t-23 -46h-213zM559 530h365l-127 525z" />
    <glyph glyph-name="Adieresis" unicode="&#xc4;" horiz-adv-x="1482" 
d="M1010 1454l393 -1454h-350l-56 231h-575l-105 -231h-348l699 1454h342zM444 1548l33 312h295l-35 -312h-293zM559 530h365l-127 525zM973 1548l31 312h296l-36 -312h-291z" />
    <glyph glyph-name="Aring" unicode="&#xc5;" horiz-adv-x="1482" 
d="M1010 1454l393 -1454h-350l-56 231h-575l-105 -231h-348l699 1454h342zM559 530h365l-127 525zM627 1782q0 101 79 178.5t183 77.5q94 0 159.5 -66.5t65.5 -161.5q0 -100 -79.5 -178t-182.5 -78q-96 0 -160.5 66.5t-64.5 161.5zM823 1798q0 -21 12 -33t33 -12
q23 0 37.5 13.5t14.5 37.5q0 19 -14.5 31t-33.5 12q-21 0 -35 -14t-14 -35z" />
    <glyph glyph-name="AE" unicode="&#xc6;" horiz-adv-x="1957" 
d="M977 0l33 305h-432l-234 -305h-375l1133 1454h868l-28 -297h-521l-28 -278h430l-29 -293h-432l-31 -289h535l-29 -297h-860zM791 582h247l39 370z" />
    <glyph glyph-name="Ccedilla" unicode="&#xc7;" horiz-adv-x="1386" 
d="M776 -20h-16l-41 -54q78 -3 124 -49.5t46 -116.5q0 -53 -27 -97.5t-71.5 -72.5t-102 -46t-117.5 -17t-118 14l8 90q42 -2 77.5 2t66 15t48 31.5t17.5 50.5q0 96 -185 75l-18 64l90 131h39q-226 54 -365 226.5t-139 426.5q0 171 66.5 324t178 262t264 172.5t319.5 63.5
q81 0 157 -16.5t152 -52.5t143 -102t113 -157l-248 -164q-120 184 -340 184q-198 0 -334.5 -134.5t-136.5 -338.5q0 -186 111 -296.5t280 -110.5q107 0 195.5 45.5t169.5 138.5l215 -164q-66 -91 -144 -157t-159 -102t-159 -52t-159 -16z" />
    <glyph glyph-name="Egrave" unicode="&#xc8;" horiz-adv-x="1021" 
d="M41 0l152 1454h841l-28 -297h-521l-28 -278h430l-29 -293h-432l-31 -289h535l-29 -297h-860zM305 1905h258l185 -324h-254z" />
    <glyph glyph-name="Eacute" unicode="&#xc9;" horiz-adv-x="1021" 
d="M41 0l152 1454h841l-28 -297h-521l-28 -278h430l-29 -293h-432l-31 -289h535l-29 -297h-860zM498 1581l184 324h258l-188 -324h-254z" />
    <glyph glyph-name="Ecircumflex" unicode="&#xca;" horiz-adv-x="1021" 
d="M41 0l152 1454h841l-28 -297h-521l-28 -278h430l-29 -293h-432l-31 -289h535l-29 -297h-860zM305 1645l264 260h207l205 -260l-143 -134l-183 220l-213 -220z" />
    <glyph glyph-name="Edieresis" unicode="&#xcb;" horiz-adv-x="1021" 
d="M41 0l152 1454h841l-28 -297h-521l-28 -278h430l-29 -293h-432l-31 -289h535l-29 -297h-860zM229 1569l33 311h295l-35 -311h-293zM758 1569l30 311h297l-36 -311h-291z" />
    <glyph glyph-name="Igrave" unicode="&#xcc;" horiz-adv-x="518" 
d="M41 0l154 1454h323l-153 -1454h-324zM41 1905h258l184 -324h-254z" />
    <glyph glyph-name="Iacute" unicode="&#xcd;" horiz-adv-x="518" 
d="M41 0l154 1454h323l-153 -1454h-324zM231 1581l185 324h258l-189 -324h-254z" />
    <glyph glyph-name="Icircumflex" unicode="&#xce;" horiz-adv-x="518" 
d="M41 0l154 1454h323l-153 -1454h-324zM41 1645l264 260h207l205 -260l-144 -134l-182 220l-213 -220z" />
    <glyph glyph-name="Idieresis" unicode="&#xcf;" horiz-adv-x="518" 
d="M41 0l154 1454h323l-153 -1454h-324zM-35 1569l33 311h295l-35 -311h-293zM494 1569l30 311h297l-37 -311h-290z" />
    <glyph glyph-name="Eth" unicode="&#xd0;" horiz-adv-x="1662" 
d="M295 0l61 565h-118l26 266h119l63 603h525q199 0 357 -97.5t237.5 -263t60.5 -360.5q-21 -197 -133.5 -360.5t-288 -258t-375.5 -94.5h-534zM651 305h197q191 0 310.5 124t139.5 314q9 77 -8.5 145.5t-59.5 122.5t-115 85.5t-169 31.5h-207l-32 -297h192l-27 -266h-192z
" />
    <glyph glyph-name="Ntilde" unicode="&#xd1;" horiz-adv-x="1458" 
d="M41 0l152 1454h329l504 -924h12l97 924h323l-151 -1454h-330l-504 924h-12l-96 -924h-324zM473 1616q10 126 76 195t158 69q52 0 98.5 -25.5t83 -51t63.5 -25.5q25 0 45 15.5t21 45.5h213q-10 -124 -77 -193t-159 -69q-51 0 -96 25t-80.5 50t-62.5 25q-25 0 -47 -15.5
t-23 -45.5h-213z" />
    <glyph glyph-name="Ograve" unicode="&#xd2;" horiz-adv-x="1667" 
d="M780 -20q-195 0 -350.5 80.5t-246.5 234.5t-91 356q0 171 67 324.5t179.5 262.5t266.5 173t323 64q145 0 271.5 -47.5t218.5 -133t145 -212.5t53 -279q0 -171 -67.5 -324.5t-180.5 -262t-266.5 -172.5t-321.5 -64zM426 684q0 -181 108.5 -289t278.5 -108
q196 0 333.5 139.5t137.5 343.5q0 181 -109 289t-278 108q-197 0 -334 -139t-137 -344zM612 1905h258l185 -324h-254z" />
    <glyph glyph-name="Oacute" unicode="&#xd3;" horiz-adv-x="1667" 
d="M780 -20q-195 0 -350.5 80.5t-246.5 234.5t-91 356q0 171 67 324.5t179.5 262.5t266.5 173t323 64q145 0 271.5 -47.5t218.5 -133t145 -212.5t53 -279q0 -171 -67.5 -324.5t-180.5 -262t-266.5 -172.5t-321.5 -64zM426 684q0 -181 108.5 -289t278.5 -108
q196 0 333.5 139.5t137.5 343.5q0 181 -109 289t-278 108q-197 0 -334 -139t-137 -344zM805 1581l184 324h258l-188 -324h-254z" />
    <glyph glyph-name="Ocircumflex" unicode="&#xd4;" horiz-adv-x="1667" 
d="M780 -20q-195 0 -350.5 80.5t-246.5 234.5t-91 356q0 171 67 324.5t179.5 262.5t266.5 173t323 64q145 0 271.5 -47.5t218.5 -133t145 -212.5t53 -279q0 -171 -67.5 -324.5t-180.5 -262t-266.5 -172.5t-321.5 -64zM426 684q0 -181 108.5 -289t278.5 -108
q196 0 333.5 139.5t137.5 343.5q0 181 -109 289t-278 108q-197 0 -334 -139t-137 -344zM612 1645l265 260h206l205 -260l-143 -134l-182 220l-213 -220z" />
    <glyph glyph-name="Otilde" unicode="&#xd5;" horiz-adv-x="1667" 
d="M780 -20q-195 0 -350.5 80.5t-246.5 234.5t-91 356q0 171 67 324.5t179.5 262.5t266.5 173t323 64q145 0 271.5 -47.5t218.5 -133t145 -212.5t53 -279q0 -171 -67.5 -324.5t-180.5 -262t-266.5 -172.5t-321.5 -64zM426 684q0 -181 108.5 -289t278.5 -108
q196 0 333.5 139.5t137.5 343.5q0 181 -109 289t-278 108q-197 0 -334 -139t-137 -344zM578 1616q10 126 75.5 195t157.5 69q41 0 80 -16t63.5 -35t52.5 -35t50 -16q25 0 44.5 15.5t20.5 45.5h213q-10 -124 -76.5 -193t-158.5 -69q-40 0 -78 15.5t-61.5 34.5t-51 34.5
t-49.5 15.5q-25 0 -46.5 -15.5t-22.5 -45.5h-213z" />
    <glyph glyph-name="Odieresis" unicode="&#xd6;" horiz-adv-x="1667" 
d="M780 -20q-195 0 -350.5 80.5t-246.5 234.5t-91 356q0 171 67 324.5t179.5 262.5t266.5 173t323 64q145 0 271.5 -47.5t218.5 -133t145 -212.5t53 -279q0 -171 -67.5 -324.5t-180.5 -262t-266.5 -172.5t-321.5 -64zM426 684q0 -181 108.5 -289t278.5 -108
q196 0 333.5 139.5t137.5 343.5q0 181 -109 289t-278 108q-197 0 -334 -139t-137 -344zM537 1569l32 311h295l-35 -311h-292zM1065 1569l31 311h297l-37 -311h-291z" />
    <glyph glyph-name="multiply" unicode="&#xd7;" horiz-adv-x="937" 
d="M244 164l-168 186l207 189l-168 188l207 186l167 -186l205 186l168 -184l-207 -188l172 -191l-209 -186l-167 188z" />
    <glyph glyph-name="Oslash" unicode="&#xd8;" horiz-adv-x="1667" 
d="M174 -102l141 241q-106 88 -164.5 218.5t-58.5 293.5q0 171 67 324.5t179.5 262.5t266.5 173t323 64q63 0 159 -15l39 66h359l-113 -193q116 -90 180 -225.5t64 -304.5q0 -171 -67.5 -324.5t-180.5 -262t-266.5 -172.5t-321.5 -64q-95 0 -188 22l-62 -104h-356zM426 684
q0 -140 68 -240l424 723h-21q-197 0 -334 -139t-137 -344zM760 289q18 -2 53 -2q196 0 333.5 139.5t137.5 343.5q0 157 -86 264z" />
    <glyph glyph-name="Ugrave" unicode="&#xd9;" horiz-adv-x="1316" 
d="M612 -31q-117 0 -217 38.5t-170.5 109t-105.5 176.5t-21 233l99 928h323l-98 -942q-6 -53 5 -96t33 -69t53 -43.5t62 -24.5t64 -7q43 0 82 12t77 39t64 78.5t33 122.5l98 930h324l-98 -940q-18 -168 -106.5 -293.5t-218.5 -188.5t-282 -63zM440 1905h258l185 -324h-254z
" />
    <glyph glyph-name="Uacute" unicode="&#xda;" horiz-adv-x="1316" 
d="M612 -31q-117 0 -217 38.5t-170.5 109t-105.5 176.5t-21 233l99 928h323l-98 -942q-6 -53 5 -96t33 -69t53 -43.5t62 -24.5t64 -7q43 0 82 12t77 39t64 78.5t33 122.5l98 930h324l-98 -940q-18 -168 -106.5 -293.5t-218.5 -188.5t-282 -63zM633 1581l184 324h258
l-188 -324h-254z" />
    <glyph glyph-name="Ucircumflex" unicode="&#xdb;" horiz-adv-x="1316" 
d="M612 -31q-117 0 -217 38.5t-170.5 109t-105.5 176.5t-21 233l99 928h323l-98 -942q-6 -53 5 -96t33 -69t53 -43.5t62 -24.5t64 -7q43 0 82 12t77 39t64 78.5t33 122.5l98 930h324l-98 -940q-18 -168 -106.5 -293.5t-218.5 -188.5t-282 -63zM440 1645l265 260h206
l205 -260l-143 -134l-182 220l-213 -220z" />
    <glyph glyph-name="Udieresis" unicode="&#xdc;" horiz-adv-x="1316" 
d="M612 -31q-117 0 -217 38.5t-170.5 109t-105.5 176.5t-21 233l99 928h323l-98 -942q-6 -53 5 -96t33 -69t53 -43.5t62 -24.5t64 -7q43 0 82 12t77 39t64 78.5t33 122.5l98 930h324l-98 -940q-18 -168 -106.5 -293.5t-218.5 -188.5t-282 -63zM365 1569l32 311h295l-35 -311
h-292zM893 1569l31 311h297l-37 -311h-291z" />
    <glyph glyph-name="Yacute" unicode="&#xdd;" horiz-adv-x="1454" 
d="M504 0l65 563l-438 891h354l271 -598l385 598h375l-623 -891l-66 -563h-323zM694 1581l185 324h258l-189 -324h-254z" />
    <glyph glyph-name="Thorn" unicode="&#xde;" horiz-adv-x="1329" 
d="M41 0l154 1454h323l-31 -297h353q200 0 325 -114t125 -308q0 -111 -44.5 -199t-120 -141.5t-169 -81.5t-196.5 -28h-365l-30 -285h-324zM424 561h256q142 0 215.5 39.5t73.5 128.5q0 42 -17.5 72t-41 45t-60.5 23.5t-62 10t-61 1.5h-268z" />
    <glyph glyph-name="germandbls" unicode="&#xdf;" horiz-adv-x="1280" 
d="M143 946q13 134 62.5 231t127.5 152t171 80t207 25q101 0 186.5 -21t153 -62.5t105.5 -110.5t38 -159q0 -69 -22.5 -126t-59.5 -91.5t-76.5 -55t-79.5 -26.5q116 -24 187 -104.5t71 -224.5q0 -213 -156 -333t-435 -120h-142l29 276h131q126 0 189 48t63 135
q0 46 -17.5 79.5t-43 51t-64.5 28t-71 13t-74 2.5h-74l29 258h61q110 0 169.5 31.5t59.5 105.5q0 129 -190 129q-100 0 -154 -48.5t-67 -174.5l-99 -934h-317z" />
    <glyph glyph-name="agrave" unicode="&#xe0;" 
d="M496 -20q-87 0 -167.5 32t-144.5 92t-102.5 155t-38.5 212q0 167 72.5 308t200.5 223.5t282 82.5q68 0 126.5 -16t95 -40t58 -46t29.5 -39h11l14 121h317l-110 -1065h-318l15 121h-15q-21 -41 -114.5 -91t-210.5 -50zM358 500q0 -63 21 -111t56.5 -74.5t75 -39.5
t81.5 -13q52 0 103 19t94 55t69.5 95.5t26.5 133.5q0 121 -70 179.5t-164 58.5q-52 0 -103 -19t-94 -55t-69.5 -95.5t-26.5 -133.5zM387 1516h258l184 -324h-254z" />
    <glyph glyph-name="aacute" unicode="&#xe1;" 
d="M496 -20q-87 0 -167.5 32t-144.5 92t-102.5 155t-38.5 212q0 167 72.5 308t200.5 223.5t282 82.5q68 0 126.5 -16t95 -40t58 -46t29.5 -39h11l14 121h317l-110 -1065h-318l15 121h-15q-21 -41 -114.5 -91t-210.5 -50zM358 500q0 -63 21 -111t56.5 -74.5t75 -39.5
t81.5 -13q52 0 103 19t94 55t69.5 95.5t26.5 133.5q0 121 -70 179.5t-164 58.5q-52 0 -103 -19t-94 -55t-69.5 -95.5t-26.5 -133.5zM578 1192l184 324h258l-189 -324h-253z" />
    <glyph glyph-name="acircumflex" unicode="&#xe2;" 
d="M496 -20q-87 0 -167.5 32t-144.5 92t-102.5 155t-38.5 212q0 167 72.5 308t200.5 223.5t282 82.5q68 0 126.5 -16t95 -40t58 -46t29.5 -39h11l14 121h317l-110 -1065h-318l15 121h-15q-21 -41 -114.5 -91t-210.5 -50zM358 500q0 -63 21 -111t56.5 -74.5t75 -39.5
t81.5 -13q52 0 103 19t94 55t69.5 95.5t26.5 133.5q0 121 -70 179.5t-164 58.5q-52 0 -103 -19t-94 -55t-69.5 -95.5t-26.5 -133.5zM387 1255l264 261h207l205 -261l-143 -133l-183 219l-213 -219z" />
    <glyph glyph-name="atilde" unicode="&#xe3;" 
d="M496 -20q-87 0 -167.5 32t-144.5 92t-102.5 155t-38.5 212q0 167 72.5 308t200.5 223.5t282 82.5q68 0 126.5 -16t95 -40t58 -46t29.5 -39h11l14 121h317l-110 -1065h-318l15 121h-15q-21 -41 -114.5 -91t-210.5 -50zM350 1227q10 126 76 195t158 69q52 0 98.5 -25.5
t83 -51t63.5 -25.5q25 0 45 15.5t21 45.5h213q-10 -124 -77 -193t-159 -69q-51 0 -96 25t-80.5 50t-62.5 25q-25 0 -47 -15.5t-23 -45.5h-213zM358 500q0 -63 21 -111t56.5 -74.5t75 -39.5t81.5 -13q52 0 103 19t94 55t69.5 95.5t26.5 133.5q0 121 -70 179.5t-164 58.5
q-52 0 -103 -19t-94 -55t-69.5 -95.5t-26.5 -133.5z" />
    <glyph glyph-name="adieresis" unicode="&#xe4;" 
d="M496 -20q-87 0 -167.5 32t-144.5 92t-102.5 155t-38.5 212q0 167 72.5 308t200.5 223.5t282 82.5q68 0 126.5 -16t95 -40t58 -46t29.5 -39h11l14 121h317l-110 -1065h-318l15 121h-15q-21 -41 -114.5 -91t-210.5 -50zM311 1180l33 311h295l-35 -311h-293zM358 500
q0 -63 21 -111t56.5 -74.5t75 -39.5t81.5 -13q52 0 103 19t94 55t69.5 95.5t26.5 133.5q0 121 -70 179.5t-164 58.5q-52 0 -103 -19t-94 -55t-69.5 -95.5t-26.5 -133.5zM840 1180l30 311h297l-37 -311h-290z" />
    <glyph glyph-name="aring" unicode="&#xe5;" 
d="M496 -20q-87 0 -167.5 32t-144.5 92t-102.5 155t-38.5 212q0 167 72.5 308t200.5 223.5t282 82.5q68 0 126.5 -16t95 -40t58 -46t29.5 -39h11l14 121h317l-110 -1065h-318l15 121h-15q-21 -41 -114.5 -91t-210.5 -50zM358 500q0 -63 21 -111t56.5 -74.5t75 -39.5
t81.5 -13q52 0 103 19t94 55t69.5 95.5t26.5 133.5q0 121 -70 179.5t-164 58.5q-52 0 -103 -19t-94 -55t-69.5 -95.5t-26.5 -133.5zM494 1413q0 101 79 178.5t183 77.5q94 0 159.5 -66t65.5 -161q0 -100 -79.5 -178t-182.5 -78q-96 0 -160.5 66t-64.5 161zM690 1430
q0 -21 12 -33.5t33 -12.5q22 0 36.5 14t14.5 38q0 19 -14.5 31t-32.5 12q-21 0 -35 -14t-14 -35z" />
    <glyph glyph-name="ae" unicode="&#xe6;" horiz-adv-x="2021" 
d="M496 -20q-87 0 -167.5 32t-144.5 92t-102.5 155t-38.5 212q0 167 72.5 308t200.5 223.5t282 82.5q68 0 126.5 -16t95 -40t58 -46t29.5 -39h11l14 121h317l-4 -33q115 53 248 53q86 0 165 -24t149.5 -75t113.5 -130.5t56.5 -190.5t-21.5 -255h-760q26 -84 98 -128t176 -44
q145 0 265 84l120 -152q-78 -87 -190.5 -138.5t-247.5 -51.5q-152 0 -274 67l-4 -47h-318l15 121h-15q-21 -41 -114.5 -91t-210.5 -50zM358 500q0 -63 21 -111t56.5 -74.5t75 -39.5t81.5 -13q52 0 103 19t94 55t69.5 95.5t26.5 133.5q0 121 -70 179.5t-164 58.5
q-52 0 -103 -19t-94 -55t-69.5 -95.5t-26.5 -133.5zM1206 637h490q-9 90 -73 136t-155 46q-95 0 -162.5 -49.5t-99.5 -132.5z" />
    <glyph glyph-name="ccedilla" unicode="&#xe7;" horiz-adv-x="1118" 
d="M309 -369q42 -2 77.5 2t66 15t48 31.5t17.5 50.5q0 96 -184 75l-19 64l91 131q-161 42 -262 164t-101 309q0 174 84 315t225 219t307 78q151 0 268.5 -67.5t176.5 -194.5l-246 -149q-77 125 -221 125q-112 0 -195.5 -80.5t-83.5 -208.5q0 -110 66.5 -177t167.5 -67
q70 0 131.5 34.5t103.5 90.5l215 -149q-162 -245 -432 -260l-43 -56q78 -3 124 -49.5t46 -116.5q0 -53 -27 -97.5t-71.5 -72.5t-102 -46t-117.5 -17t-118 14z" />
    <glyph glyph-name="egrave" unicode="&#xe8;" horiz-adv-x="1163" 
d="M559 -20q-104 0 -196.5 33.5t-164 95.5t-113.5 160t-42 218q0 167 80 304.5t216 215.5t296 78q86 0 165 -24t149.5 -75t113.5 -130.5t56.5 -190.5t-21.5 -255h-760q26 -84 98 -128t176 -44q145 0 265 84l120 -152q-78 -87 -190.5 -138.5t-247.5 -51.5zM313 1516h258
l185 -324h-254zM348 637h490q-9 90 -73 136t-155 46q-95 0 -162.5 -49.5t-99.5 -132.5z" />
    <glyph glyph-name="eacute" unicode="&#xe9;" horiz-adv-x="1163" 
d="M559 -20q-104 0 -196.5 33.5t-164 95.5t-113.5 160t-42 218q0 167 80 304.5t216 215.5t296 78q86 0 165 -24t149.5 -75t113.5 -130.5t56.5 -190.5t-21.5 -255h-760q26 -84 98 -128t176 -44q145 0 265 84l120 -152q-78 -87 -190.5 -138.5t-247.5 -51.5zM348 637h490
q-9 90 -73 136t-155 46q-95 0 -162.5 -49.5t-99.5 -132.5zM506 1192l184 324h258l-188 -324h-254z" />
    <glyph glyph-name="ecircumflex" unicode="&#xea;" horiz-adv-x="1163" 
d="M559 -20q-104 0 -196.5 33.5t-164 95.5t-113.5 160t-42 218q0 167 80 304.5t216 215.5t296 78q86 0 165 -24t149.5 -75t113.5 -130.5t56.5 -190.5t-21.5 -255h-760q26 -84 98 -128t176 -44q145 0 265 84l120 -152q-78 -87 -190.5 -138.5t-247.5 -51.5zM313 1255l265 261
h206l205 -261l-143 -133l-182 219l-213 -219zM348 637h490q-9 90 -73 136t-155 46q-95 0 -162.5 -49.5t-99.5 -132.5z" />
    <glyph glyph-name="edieresis" unicode="&#xeb;" horiz-adv-x="1163" 
d="M559 -20q-104 0 -196.5 33.5t-164 95.5t-113.5 160t-42 218q0 167 80 304.5t216 215.5t296 78q86 0 165 -24t149.5 -75t113.5 -130.5t56.5 -190.5t-21.5 -255h-760q26 -84 98 -128t176 -44q145 0 265 84l120 -152q-78 -87 -190.5 -138.5t-247.5 -51.5zM238 1180l32 311
h295l-35 -311h-292zM348 637h490q-9 90 -73 136t-155 46q-95 0 -162.5 -49.5t-99.5 -132.5zM766 1180l31 311h297l-37 -311h-291z" />
    <glyph glyph-name="igrave" unicode="&#xec;" horiz-adv-x="512" 
d="M41 0l113 1065h317l-113 -1065h-317zM-4 1516h258l184 -324h-254z" />
    <glyph glyph-name="iacute" unicode="&#xed;" horiz-adv-x="512" 
d="M41 0l113 1065h317l-113 -1065h-317zM188 1192l185 324h258l-189 -324h-254z" />
    <glyph glyph-name="icircumflex" unicode="&#xee;" horiz-adv-x="512" 
d="M41 0l113 1065h317l-113 -1065h-317zM-4 1255l264 261h207l205 -261l-144 -133l-182 219l-213 -219z" />
    <glyph glyph-name="idieresis" unicode="&#xef;" horiz-adv-x="512" 
d="M41 0l113 1065h317l-113 -1065h-317zM-80 1180l33 311h295l-35 -311h-293zM449 1180l30 311h297l-37 -311h-290z" />
    <glyph glyph-name="eth" unicode="&#xf0;" horiz-adv-x="1212" 
d="M524 -20q-81 0 -155 20.5t-138 65t-109 108t-65.5 155t-9.5 201.5q30 262 185 398.5t384 136.5q26 0 48 -2.5t32.5 -4.5t14.5 -1l-29 73l-184 -30l16 149l84 13l-104 172h350l71 -121l209 37l-14 -150l-111 -24q66 -114 97 -223.5t31.5 -216t-13.5 -234.5
q-11 -105 -49.5 -192t-95.5 -147.5t-130 -102t-152 -61t-163 -19.5zM367 502q-7 -65 6 -115.5t40 -77.5t56.5 -40t60.5 -13q104 0 177.5 66.5t87.5 207.5q7 71 -6.5 123.5t-42.5 80t-62.5 40t-73.5 12.5q-38 0 -74.5 -15t-72 -46t-61.5 -88.5t-35 -134.5z" />
    <glyph glyph-name="ntilde" unicode="&#xf1;" horiz-adv-x="1222" 
d="M41 0l111 1065h317l-14 -133q118 153 325 153q83 0 151 -26.5t119.5 -79.5t75 -143.5t11.5 -208.5l-66 -627h-317l59 571q11 103 -35 167.5t-143 64.5q-99 0 -151.5 -62.5t-65.5 -169.5l-60 -571h-317zM317 1227q10 126 76 195t158 69q41 0 80 -16t63.5 -35t52.5 -35
t50 -16q25 0 44.5 15.5t20.5 45.5h213q-10 -124 -76.5 -193t-158.5 -69q-40 0 -78 15.5t-61.5 34.5t-51 34.5t-49.5 15.5q-25 0 -47 -15.5t-23 -45.5h-213z" />
    <glyph glyph-name="ograve" unicode="&#xf2;" horiz-adv-x="1214" 
d="M561 -20q-90 0 -179.5 32t-165.5 92.5t-123.5 160t-47.5 222.5q0 168 83 306t222.5 215t304.5 77q72 0 144 -19.5t139.5 -61.5t119 -100.5t82.5 -143.5t31 -185q0 -167 -83 -304.5t-222.5 -214t-304.5 -76.5zM348 1516h258l185 -324h-254zM352 498q0 -112 69 -175
t157 -63q120 0 203 82.5t83 222.5q0 113 -68.5 176.5t-156.5 63.5q-121 0 -204 -83t-83 -224z" />
    <glyph glyph-name="oacute" unicode="&#xf3;" horiz-adv-x="1214" 
d="M561 -20q-90 0 -179.5 32t-165.5 92.5t-123.5 160t-47.5 222.5q0 168 83 306t222.5 215t304.5 77q72 0 144 -19.5t139.5 -61.5t119 -100.5t82.5 -143.5t31 -185q0 -167 -83 -304.5t-222.5 -214t-304.5 -76.5zM352 498q0 -112 69 -175t157 -63q120 0 203 82.5t83 222.5
q0 113 -68.5 176.5t-156.5 63.5q-121 0 -204 -83t-83 -224zM541 1192l184 324h258l-188 -324h-254z" />
    <glyph glyph-name="ocircumflex" unicode="&#xf4;" horiz-adv-x="1214" 
d="M561 -20q-90 0 -179.5 32t-165.5 92.5t-123.5 160t-47.5 222.5q0 168 83 306t222.5 215t304.5 77q72 0 144 -19.5t139.5 -61.5t119 -100.5t82.5 -143.5t31 -185q0 -167 -83 -304.5t-222.5 -214t-304.5 -76.5zM348 1255l264 261h207l205 -261l-143 -133l-183 219
l-213 -219zM352 498q0 -112 69 -175t157 -63q120 0 203 82.5t83 222.5q0 113 -68.5 176.5t-156.5 63.5q-121 0 -204 -83t-83 -224z" />
    <glyph glyph-name="otilde" unicode="&#xf5;" horiz-adv-x="1214" 
d="M561 -20q-90 0 -179.5 32t-165.5 92.5t-123.5 160t-47.5 222.5q0 168 83 306t222.5 215t304.5 77q72 0 144 -19.5t139.5 -61.5t119 -100.5t82.5 -143.5t31 -185q0 -167 -83 -304.5t-222.5 -214t-304.5 -76.5zM313 1227q10 126 76 195t158 69q41 0 80 -16t63.5 -35
t52.5 -35t50 -16q25 0 44.5 15.5t20.5 45.5h213q-10 -124 -76.5 -193t-158.5 -69q-40 0 -78 15.5t-61.5 34.5t-51 34.5t-49.5 15.5q-25 0 -47 -15.5t-23 -45.5h-213zM352 498q0 -112 69 -175t157 -63q120 0 203 82.5t83 222.5q0 113 -68.5 176.5t-156.5 63.5
q-121 0 -204 -83t-83 -224z" />
    <glyph glyph-name="odieresis" unicode="&#xf6;" horiz-adv-x="1214" 
d="M561 -20q-90 0 -179.5 32t-165.5 92.5t-123.5 160t-47.5 222.5q0 168 83 306t222.5 215t304.5 77q72 0 144 -19.5t139.5 -61.5t119 -100.5t82.5 -143.5t31 -185q0 -167 -83 -304.5t-222.5 -214t-304.5 -76.5zM272 1180l33 311h295l-35 -311h-293zM352 498q0 -112 69 -175
t157 -63q120 0 203 82.5t83 222.5q0 113 -68.5 176.5t-156.5 63.5q-121 0 -204 -83t-83 -224zM801 1180l30 311h297l-36 -311h-291z" />
    <glyph glyph-name="divide" unicode="&#xf7;" horiz-adv-x="1138" 
d="M76 426l39 266h948l-41 -266h-946zM369 176q0 80 53 130t127 50t127 -50t53 -130t-53 -130t-127 -50t-127 50t-53 130zM467 946q0 80 53 130t127 50t127 -50t53 -130t-53 -130t-127 -50t-127 50t-53 130z" />
    <glyph glyph-name="oslash" unicode="&#xf8;" horiz-adv-x="1214" 
d="M86 -102l125 213q-166 142 -166 376q0 168 83 306t222.5 215t304.5 77q59 0 117 -12l66 111h299l-133 -228q167 -143 167 -381q0 -167 -83 -304.5t-222.5 -214t-304.5 -76.5q-64 0 -121 14l-55 -96h-299zM352 498q0 -58 23 -109l241 416q-112 -9 -188 -91.5t-76 -215.5z
M598 260q112 8 189 90t77 215q0 64 -22 113z" />
    <glyph glyph-name="ugrave" unicode="&#xf9;" horiz-adv-x="1222" 
d="M1182 1065l-111 -1065h-317l14 133q-118 -153 -326 -153q-82 0 -150 26.5t-119.5 79.5t-75 143.5t-11.5 208.5l66 627h317l-59 -571q-11 -103 35 -167.5t143 -64.5q99 0 151.5 62.5t65.5 169.5l59 571h318zM352 1516h258l185 -324h-254z" />
    <glyph glyph-name="uacute" unicode="&#xfa;" horiz-adv-x="1222" 
d="M1182 1065l-111 -1065h-317l14 133q-118 -153 -326 -153q-82 0 -150 26.5t-119.5 79.5t-75 143.5t-11.5 208.5l66 627h317l-59 -571q-11 -103 35 -167.5t143 -64.5q99 0 151.5 62.5t65.5 169.5l59 571h318zM545 1192l184 324h258l-188 -324h-254z" />
    <glyph glyph-name="ucircumflex" unicode="&#xfb;" horiz-adv-x="1222" 
d="M1182 1065l-111 -1065h-317l14 133q-118 -153 -326 -153q-82 0 -150 26.5t-119.5 79.5t-75 143.5t-11.5 208.5l66 627h317l-59 -571q-11 -103 35 -167.5t143 -64.5q99 0 151.5 62.5t65.5 169.5l59 571h318zM352 1255l264 261h207l205 -261l-143 -133l-183 219l-213 -219z
" />
    <glyph glyph-name="udieresis" unicode="&#xfc;" horiz-adv-x="1222" 
d="M1182 1065l-111 -1065h-317l14 133q-118 -153 -326 -153q-82 0 -150 26.5t-119.5 79.5t-75 143.5t-11.5 208.5l66 627h317l-59 -571q-11 -103 35 -167.5t143 -64.5q99 0 151.5 62.5t65.5 169.5l59 571h318zM276 1180l33 311h295l-35 -311h-293zM805 1180l31 311h297
l-37 -311h-291z" />
    <glyph glyph-name="yacute" unicode="&#xfd;" horiz-adv-x="1236" 
d="M193 -389l217 409l-330 1045h323l197 -690l340 690h328l-760 -1454h-315zM532 1192l185 324h258l-189 -324h-254z" />
    <glyph glyph-name="thorn" unicode="&#xfe;" horiz-adv-x="1265" 
d="M0 -389l199 1874h317l-57 -514q25 32 101.5 72t180.5 40q76 0 148.5 -22t137 -68.5t111 -112t68.5 -159.5t11 -203q-12 -107 -52 -197t-97.5 -152t-129 -105.5t-145 -63.5t-146.5 -20q-114 0 -187 46.5t-83 88.5l-60 -504h-317zM399 518q-13 -123 46.5 -190.5
t160.5 -67.5q75 0 140.5 32t111 99.5t53.5 157.5q13 120 -51.5 187t-171.5 67q-110 0 -192.5 -75.5t-96.5 -209.5z" />
    <glyph glyph-name="ydieresis" unicode="&#xff;" horiz-adv-x="1236" 
d="M193 -389l217 409l-330 1045h323l197 -690l340 690h328l-760 -1454h-315zM264 1180l33 311h295l-35 -311h-293zM793 1180l30 311h297l-37 -311h-290z" />
    <glyph glyph-name="Amacron" unicode="&#x100;" horiz-adv-x="1482" 
d="M1010 1454l393 -1454h-350l-56 231h-575l-105 -231h-348l699 1454h342zM457 1548l24 240h779l-25 -240h-778zM559 530h365l-127 525z" />
    <glyph glyph-name="amacron" unicode="&#x101;" 
d="M496 -20q-87 0 -167.5 32t-144.5 92t-102.5 155t-38.5 212q0 167 72.5 308t200.5 223.5t282 82.5q68 0 126.5 -16t95 -40t58 -46t29.5 -39h11l14 121h317l-110 -1065h-318l15 121h-15q-21 -41 -114.5 -91t-210.5 -50zM324 1180l24 239h778l-24 -239h-778zM358 500
q0 -63 21 -111t56.5 -74.5t75 -39.5t81.5 -13q52 0 103 19t94 55t69.5 95.5t26.5 133.5q0 121 -70 179.5t-164 58.5q-52 0 -103 -19t-94 -55t-69.5 -95.5t-26.5 -133.5z" />
    <glyph glyph-name="Abreve" unicode="&#x102;" horiz-adv-x="1482" 
d="M1010 1454l393 -1454h-350l-56 231h-575l-105 -231h-348l699 1454h342zM532 1884h187q-7 -71 23.5 -119.5t109.5 -48.5t116 48t42 120h186q-6 -65 -30.5 -123t-67 -107.5t-111.5 -78.5t-156 -29q-86 0 -150 29t-97.5 78t-46.5 107.5t-5 123.5zM559 530h365l-127 525z" />
    <glyph glyph-name="abreve" unicode="&#x103;" 
d="M496 -20q-87 0 -167.5 32t-144.5 92t-102.5 155t-38.5 212q0 167 72.5 308t200.5 223.5t282 82.5q68 0 126.5 -16t95 -40t58 -46t29.5 -39h11l14 121h317l-110 -1065h-318l15 121h-15q-21 -41 -114.5 -91t-210.5 -50zM358 500q0 -63 21 -111t56.5 -74.5t75 -39.5
t81.5 -13q52 0 103 19t94 55t69.5 95.5t26.5 133.5q0 121 -70 179.5t-164 58.5q-52 0 -103 -19t-94 -55t-69.5 -95.5t-26.5 -133.5zM399 1516h187q-7 -71 23.5 -119.5t109.5 -48.5t116 48t42 120h186q-6 -65 -30.5 -123t-67 -107.5t-111.5 -78.5t-156 -29q-86 0 -150 29
t-97.5 78t-46.5 107.5t-5 123.5z" />
    <glyph glyph-name="Aogonek" unicode="&#x104;" horiz-adv-x="1482" 
d="M1010 1454l393 -1454q-305 -82 -305 -201q0 -52 53 -76t100 1l-14 -130q-49 -29 -120.5 -37t-139 6.5t-115 62.5t-47.5 122q0 91 71.5 154t188.5 98h-22l-56 231h-575l-105 -231h-348l699 1454h342zM559 530h365l-127 525z" />
    <glyph glyph-name="aogonek" unicode="&#x105;" 
d="M496 -20q-87 0 -167.5 32t-144.5 92t-102.5 155t-38.5 212q0 167 72.5 308t200.5 223.5t282 82.5q68 0 126.5 -16t95 -40t58 -46t29.5 -39h11l14 121h317l-110 -1065q-305 -82 -305 -201q0 -52 53 -76t100 1l-14 -130q-49 -29 -120.5 -37t-139 6.5t-115 62.5t-47.5 122
q0 93 74.5 156.5t195.5 99.5l15 117h-15q-21 -41 -114.5 -91t-210.5 -50zM358 500q0 -63 21 -111t56.5 -74.5t75 -39.5t81.5 -13q52 0 103 19t94 55t69.5 95.5t26.5 133.5q0 121 -70 179.5t-164 58.5q-52 0 -103 -19t-94 -55t-69.5 -95.5t-26.5 -133.5z" />
    <glyph glyph-name="Cacute" unicode="&#x106;" horiz-adv-x="1386" 
d="M776 -20q-191 0 -345.5 80.5t-246.5 235t-92 357.5q0 171 66.5 324t178 262t264 172.5t319.5 63.5q81 0 157 -16.5t152 -52.5t143 -102t113 -157l-248 -164q-120 184 -340 184q-198 0 -334.5 -134.5t-136.5 -338.5q0 -186 111 -296.5t280 -110.5q107 0 195.5 45.5
t169.5 138.5l215 -164q-66 -91 -144 -157t-159 -102t-159 -52t-159 -16zM743 1561l185 323h258l-189 -323h-254z" />
    <glyph glyph-name="cacute" unicode="&#x107;" horiz-adv-x="1118" 
d="M567 -20q-104 0 -197.5 32t-167 92t-116.5 155.5t-43 213.5q0 174 84 315t225 219t307 78q151 0 268.5 -67.5t176.5 -194.5l-246 -149q-77 125 -221 125q-112 0 -195.5 -80.5t-83.5 -208.5q0 -110 66.5 -177t167.5 -67q70 0 131.5 34.5t103.5 90.5l215 -149
q-175 -262 -475 -262zM494 1192l184 324h258l-188 -324h-254z" />
    <glyph glyph-name="Ccircumflex" unicode="&#x108;" horiz-adv-x="1474" 
d="M776 -20q-191 0 -345.5 80.5t-246.5 235t-92 357.5q0 171 66.5 324t178 262t264 172.5t319.5 63.5q81 0 157 -16.5t152 -52.5t143 -102t113 -157l-248 -164q-120 184 -340 184q-198 0 -334.5 -134.5t-136.5 -338.5q0 -186 111 -296.5t280 -110.5q107 0 195.5 45.5
t169.5 138.5l215 -164q-66 -91 -144 -157t-159 -102t-159 -52t-159 -16zM600 1645l264 260h207l205 -260l-143 -134l-183 220l-213 -220z" />
    <glyph glyph-name="ccircumflex" unicode="&#x109;" horiz-adv-x="1118" 
d="M567 -20q-104 0 -197.5 32t-167 92t-116.5 155.5t-43 213.5q0 174 84 315t225 219t307 78q151 0 268.5 -67.5t176.5 -194.5l-246 -149q-77 125 -221 125q-112 0 -195.5 -80.5t-83.5 -208.5q0 -110 66.5 -177t167.5 -67q70 0 131.5 34.5t103.5 90.5l215 -149
q-175 -262 -475 -262zM301 1255l264 261h207l205 -261l-143 -133l-183 219l-213 -219z" />
    <glyph glyph-name="Cdotaccent" unicode="&#x10a;" horiz-adv-x="1386" 
d="M776 -20q-191 0 -345.5 80.5t-246.5 235t-92 357.5q0 171 66.5 324t178 262t264 172.5t319.5 63.5q81 0 157 -16.5t152 -52.5t143 -102t113 -157l-248 -164q-120 184 -340 184q-198 0 -334.5 -134.5t-136.5 -338.5q0 -186 111 -296.5t280 -110.5q107 0 195.5 45.5
t169.5 138.5l215 -164q-66 -91 -144 -157t-159 -102t-159 -52t-159 -16zM719 1548l31 312h317l-31 -312h-317z" />
    <glyph glyph-name="cdotaccent" unicode="&#x10b;" horiz-adv-x="1118" 
d="M567 -20q-104 0 -197.5 32t-167 92t-116.5 155.5t-43 213.5q0 174 84 315t225 219t307 78q151 0 268.5 -67.5t176.5 -194.5l-246 -149q-77 125 -221 125q-112 0 -195.5 -80.5t-83.5 -208.5q0 -110 66.5 -177t167.5 -67q70 0 131.5 34.5t103.5 90.5l215 -149
q-175 -262 -475 -262zM469 1180l31 311h317l-31 -311h-317z" />
    <glyph glyph-name="Ccaron" unicode="&#x10c;" horiz-adv-x="1386" 
d="M776 -20q-191 0 -345.5 80.5t-246.5 235t-92 357.5q0 171 66.5 324t178 262t264 172.5t319.5 63.5q81 0 157 -16.5t152 -52.5t143 -102t113 -157l-248 -164q-120 184 -340 184q-198 0 -334.5 -134.5t-136.5 -338.5q0 -186 111 -296.5t280 -110.5q107 0 195.5 45.5
t169.5 138.5l215 -164q-66 -91 -144 -157t-159 -102t-159 -52t-159 -16zM561 1751l144 133l182 -219l213 219l137 -133l-264 -260h-207z" />
    <glyph glyph-name="ccaron" unicode="&#x10d;" horiz-adv-x="1118" 
d="M567 -20q-104 0 -197.5 32t-167 92t-116.5 155.5t-43 213.5q0 174 84 315t225 219t307 78q151 0 268.5 -67.5t176.5 -194.5l-246 -149q-77 125 -221 125q-112 0 -195.5 -80.5t-83.5 -208.5q0 -110 66.5 -177t167.5 -67q70 0 131.5 34.5t103.5 90.5l215 -149
q-175 -262 -475 -262zM309 1382l144 134l182 -220l213 220l137 -134l-264 -260h-207z" />
    <glyph glyph-name="Dcaron" unicode="&#x10e;" horiz-adv-x="1413" 
d="M41 0l152 1454h546q179 0 325.5 -86t231 -241.5t84.5 -350.5q0 -161 -62.5 -305.5t-167.5 -247.5t-249 -163t-301 -60h-559zM397 305h211q197 0 316.5 132.5t119.5 330.5q0 172 -92 276.5t-258 104.5h-211zM485 1735l144 133l182 -219l213 219l137 -133l-264 -260h-207z
" />
    <glyph glyph-name="dcaron" unicode="&#x10f;" horiz-adv-x="1384" 
d="M496 -20q-87 0 -167.5 32t-144.5 92t-102.5 155t-38.5 212q0 167 72.5 308t200.5 223.5t282 82.5q68 0 126.5 -16t95 -40t58 -46t29.5 -39h11l55 510h317l-151 -1454h-318l15 121h-15q-21 -41 -114.5 -91t-210.5 -50zM358 500q0 -63 21 -111t56.5 -74.5t75 -39.5
t81.5 -13q52 0 103 19t94 55t69.5 95.5t26.5 133.5q0 121 -70 179.5t-164 58.5q-52 0 -103 -19t-94 -55t-69.5 -95.5t-26.5 -133.5zM1366 1161l184 324h258l-188 -324h-254z" />
    <glyph glyph-name="Dcroat" unicode="&#x110;" horiz-adv-x="1579" 
d="M211 0l61 565h-118l26 266h119l63 603h523q199 0 357.5 -97.5t238.5 -263t61 -360.5q-21 -197 -133.5 -360.5t-288 -258t-375.5 -94.5h-534zM567 305h197q127 0 226 59.5t154.5 157.5t69.5 221q12 103 -21.5 189t-119 141t-211.5 55h-209l-30 -297h192l-27 -266h-192z
" />
    <glyph glyph-name="dcroat" unicode="&#x111;" horiz-adv-x="1351" 
d="M575 1147l23 237h367l8 70h317l-8 -70h119l-23 -237h-121l-118 -1147h-318l15 121h-15q-21 -41 -114.5 -91t-210.5 -50q-87 0 -167.5 32t-144.5 92t-102.5 155t-38.5 212q0 167 72.5 308t200.5 223.5t282 82.5q68 0 126.5 -16t95 -40t58 -46t29.5 -39h11l22 203h-365z
M358 500q0 -63 21 -111t56.5 -74.5t75 -39.5t81.5 -13q52 0 103 19t94 55t69.5 95.5t26.5 133.5q0 121 -70 179.5t-164 58.5q-52 0 -103 -19t-94 -55t-69.5 -95.5t-26.5 -133.5z" />
    <glyph glyph-name="Emacron" unicode="&#x112;" horiz-adv-x="1021" 
d="M41 0l152 1454h841l-28 -297h-521l-28 -278h430l-29 -293h-432l-31 -289h535l-29 -297h-860zM244 1569l24 239h779l-25 -239h-778z" />
    <glyph glyph-name="emacron" unicode="&#x113;" horiz-adv-x="1163" 
d="M559 -20q-104 0 -196.5 33.5t-164 95.5t-113.5 160t-42 218q0 167 80 304.5t216 215.5t296 78q86 0 165 -24t149.5 -75t113.5 -130.5t56.5 -190.5t-21.5 -255h-760q26 -84 98 -128t176 -44q145 0 265 84l120 -152q-78 -87 -190.5 -138.5t-247.5 -51.5zM250 1180l24 239
h779l-25 -239h-778zM348 637h490q-9 90 -73 136t-155 46q-95 0 -162.5 -49.5t-99.5 -132.5z" />
    <glyph glyph-name="Edotaccent" unicode="&#x116;" horiz-adv-x="1021" 
d="M41 0l152 1454h841l-28 -297h-521l-28 -278h430l-29 -293h-432l-31 -289h535l-29 -297h-860zM473 1569l31 311h317l-30 -311h-318z" />
    <glyph glyph-name="edotaccent" unicode="&#x117;" horiz-adv-x="1163" 
d="M559 -20q-104 0 -196.5 33.5t-164 95.5t-113.5 160t-42 218q0 167 80 304.5t216 215.5t296 78q86 0 165 -24t149.5 -75t113.5 -130.5t56.5 -190.5t-21.5 -255h-760q26 -84 98 -128t176 -44q145 0 265 84l120 -152q-78 -87 -190.5 -138.5t-247.5 -51.5zM348 637h490
q-9 90 -73 136t-155 46q-95 0 -162.5 -49.5t-99.5 -132.5zM481 1180l31 311h317l-30 -311h-318z" />
    <glyph glyph-name="Eogonek" unicode="&#x118;" horiz-adv-x="1021" 
d="M41 0l152 1454h841l-28 -297h-521l-28 -278h430l-29 -293h-432l-31 -289h535l-29 -297q-305 -82 -305 -201q0 -52 53.5 -76t100.5 1l-15 -130q-49 -29 -120.5 -37t-139 6.5t-115 62.5t-47.5 122q0 91 71.5 154t188.5 98h-532z" />
    <glyph glyph-name="eogonek" unicode="&#x119;" horiz-adv-x="1163" 
d="M539 -406q-49 -29 -120.5 -37t-139 6.5t-115 62.5t-47.5 122q0 94 74.5 157.5t197.5 98.5q-155 47 -250.5 171.5t-95.5 311.5q0 167 80 304.5t216 215.5t296 78q86 0 165 -24t149.5 -75t113.5 -130.5t56.5 -190.5t-21.5 -255h-760q26 -84 98 -128t176 -44q145 0 265 84
l120 -152q-133 -146 -335 -182q-263 -80 -263 -189q0 -52 53.5 -76t100.5 1zM348 637h490q-9 90 -73 136t-155 46q-95 0 -162.5 -49.5t-99.5 -132.5z" />
    <glyph glyph-name="Ecaron" unicode="&#x11a;" horiz-adv-x="1021" 
d="M41 0l152 1454h841l-28 -297h-521l-28 -278h430l-29 -293h-432l-31 -289h535l-29 -297h-860zM315 1772l144 133l182 -219l213 219l137 -133l-264 -261h-207z" />
    <glyph glyph-name="ecaron" unicode="&#x11b;" horiz-adv-x="1163" 
d="M559 -20q-104 0 -196.5 33.5t-164 95.5t-113.5 160t-42 218q0 167 80 304.5t216 215.5t296 78q86 0 165 -24t149.5 -75t113.5 -130.5t56.5 -190.5t-21.5 -255h-760q26 -84 98 -128t176 -44q145 0 265 84l120 -152q-78 -87 -190.5 -138.5t-247.5 -51.5zM322 1382l143 134
l182 -220l213 220l137 -134l-264 -260h-207zM348 637h490q-9 90 -73 136t-155 46q-95 0 -162.5 -49.5t-99.5 -132.5z" />
    <glyph glyph-name="Gcircumflex" unicode="&#x11c;" horiz-adv-x="1572" 
d="M774 -20q-141 0 -265 47t-216.5 132t-146.5 212.5t-54 279.5q0 170 64.5 323t174 262.5t260.5 174t318 64.5q83 0 160.5 -16.5t154.5 -52.5t143.5 -102t113.5 -157l-248 -164q-113 188 -336 188q-202 0 -336.5 -140t-134.5 -343q0 -184 111 -298t286 -114
q79 0 145.5 23.5t123.5 82t86 148.5h-328l29 269h637q7 -151 -29 -283t-105.5 -229t-165 -167t-208.5 -105t-234 -35zM567 1645l264 260h207l205 -260l-143 -134l-182 220l-213 -220z" />
    <glyph glyph-name="gcircumflex" unicode="&#x11d;" 
d="M522 -426q-213 0 -303 64l29 253q34 -24 105 -38.5t145 -14.5q145 0 232.5 62t96.5 163l9 58h-15q-22 -40 -115 -90.5t-210 -50.5q-85 0 -165 31t-145 90t-104 153.5t-39 210.5q0 134 45.5 251t121 197t175.5 126t209 46q86 0 159 -28.5t108 -58.5t46 -54h11l14 121h317
l-102 -975q-9 -88 -36.5 -161.5t-65.5 -125.5t-88.5 -93t-103.5 -66t-112 -41.5t-112 -22.5t-107 -6zM358 504q0 -115 66 -178.5t168 -63.5q122 0 207.5 85t85.5 216q0 114 -65.5 177t-166.5 63q-122 0 -208.5 -87t-86.5 -212zM387 1255l264 261h207l205 -261l-143 -133
l-183 219l-213 -219z" />
    <glyph glyph-name="Gbreve" unicode="&#x11e;" horiz-adv-x="1558" 
d="M774 -20q-141 0 -265 47t-216.5 132t-146.5 212.5t-54 279.5q0 170 64.5 323t174 262.5t260.5 174t318 64.5q83 0 160.5 -16.5t154.5 -52.5t143.5 -102t113.5 -157l-248 -164q-113 188 -336 188q-202 0 -336.5 -140t-134.5 -343q0 -184 111 -298t286 -114
q79 0 145.5 23.5t123.5 82t86 148.5h-328l29 269h637q7 -151 -29 -283t-105.5 -229t-165 -167t-208.5 -105t-234 -35zM530 1884h187q-7 -71 23.5 -119.5t109.5 -48.5t116 48t42 120h186q-6 -65 -30.5 -123t-67 -107.5t-111.5 -78.5t-156 -29q-86 0 -150 29t-97.5 78
t-46.5 107.5t-5 123.5z" />
    <glyph glyph-name="gbreve" unicode="&#x11f;" horiz-adv-x="1257" 
d="M522 -426q-213 0 -303 64l29 253q34 -24 105 -38.5t145 -14.5q145 0 232.5 62t96.5 163l9 58h-15q-22 -40 -115 -90.5t-210 -50.5q-85 0 -165 31t-145 90t-104 153.5t-39 210.5q0 134 45.5 251t121 197t175.5 126t209 46q86 0 159 -28.5t108 -58.5t46 -54h11l14 121h317
l-102 -975q-9 -88 -36.5 -161.5t-65.5 -125.5t-88.5 -93t-103.5 -66t-112 -41.5t-112 -22.5t-107 -6zM358 504q0 -115 66 -178.5t168 -63.5q122 0 207.5 85t85.5 216q0 114 -65.5 177t-166.5 63q-122 0 -208.5 -87t-86.5 -212zM481 1516h187q-7 -71 23.5 -119.5t109.5 -48.5
t115.5 48t41.5 120h187q-6 -65 -30.5 -123t-67 -107.5t-111.5 -78.5t-156 -29q-86 0 -150 29t-97.5 78t-46.5 107.5t-5 123.5z" />
    <glyph glyph-name="Gdotaccent" unicode="&#x120;" horiz-adv-x="1558" 
d="M774 -20q-141 0 -265 47t-216.5 132t-146.5 212.5t-54 279.5q0 170 64.5 323t174 262.5t260.5 174t318 64.5q83 0 160.5 -16.5t154.5 -52.5t143.5 -102t113.5 -157l-248 -164q-113 188 -336 188q-202 0 -336.5 -140t-134.5 -343q0 -184 111 -298t286 -114
q79 0 145.5 23.5t123.5 82t86 148.5h-328l29 269h637q7 -151 -29 -283t-105.5 -229t-165 -167t-208.5 -105t-234 -35zM707 1548l30 312h318l-31 -312h-317z" />
    <glyph glyph-name="gdotaccent" unicode="&#x121;" 
d="M522 -426q-213 0 -303 64l29 253q34 -24 105 -38.5t145 -14.5q145 0 232.5 62t96.5 163l9 58h-15q-22 -40 -115 -90.5t-210 -50.5q-85 0 -165 31t-145 90t-104 153.5t-39 210.5q0 134 45.5 251t121 197t175.5 126t209 46q86 0 159 -28.5t108 -58.5t46 -54h11l14 121h317
l-102 -975q-9 -88 -36.5 -161.5t-65.5 -125.5t-88.5 -93t-103.5 -66t-112 -41.5t-112 -22.5t-107 -6zM358 504q0 -115 66 -178.5t168 -63.5q122 0 207.5 85t85.5 216q0 114 -65.5 177t-166.5 63q-122 0 -208.5 -87t-86.5 -212zM555 1180l31 311h317l-31 -311h-317z" />
    <glyph glyph-name="uni0122" unicode="&#x122;" horiz-adv-x="1572" 
d="M774 -20q-141 0 -265 47t-216.5 132t-146.5 212.5t-54 279.5q0 170 64.5 323t174 262.5t260.5 174t318 64.5q83 0 160.5 -16.5t154.5 -52.5t143.5 -102t113.5 -157l-248 -164q-113 188 -336 188q-202 0 -336.5 -140t-134.5 -343q0 -184 111 -298t286 -114
q79 0 145.5 23.5t123.5 82t86 148.5h-328l29 269h637q7 -151 -29 -283t-105.5 -229t-165 -167t-208.5 -105t-234 -35zM332 -653l262 565h272l-264 -565h-270z" />
    <glyph glyph-name="uni0123" unicode="&#x123;" 
d="M522 -426q-213 0 -303 64l29 253q34 -24 105 -38.5t145 -14.5q145 0 232.5 62t96.5 163l9 58h-15q-22 -40 -115 -90.5t-210 -50.5q-85 0 -165 31t-145 90t-104 153.5t-39 210.5q0 134 45.5 251t121 197t175.5 126t209 46q86 0 159 -28.5t108 -58.5t46 -54h11l14 121h317
l-102 -975q-9 -88 -36.5 -161.5t-65.5 -125.5t-88.5 -93t-103.5 -66t-112 -41.5t-112 -22.5t-107 -6zM358 504q0 -115 66 -178.5t168 -63.5q122 0 207.5 85t85.5 216q0 114 -65.5 177t-166.5 63q-122 0 -208.5 -87t-86.5 -212zM569 1153l265 565h270l-262 -565h-273z" />
    <glyph glyph-name="Hcircumflex" unicode="&#x124;" horiz-adv-x="1386" 
d="M911 0l60 569h-549l-60 -569h-323l154 1454h323l-61 -586h549l61 586h324l-154 -1454h-324zM475 1645l264 260h207l205 -260l-143 -134l-183 220l-213 -220z" />
    <glyph glyph-name="hcircumflex" unicode="&#x125;" horiz-adv-x="1222" 
d="M41 0l156 1454h317l-57 -520q117 151 323 151q83 0 151 -26.5t119.5 -79.5t75 -143.5t11.5 -208.5l-66 -627h-317l59 571q12 103 -34.5 167.5t-143.5 64.5q-99 0 -151.5 -62.5t-65.5 -169.5l-60 -571h-317zM41 1645l264 260h207l205 -260l-144 -134l-182 220l-213 -220z
" />
    <glyph glyph-name="Hbar" unicode="&#x126;" horiz-adv-x="1390" 
d="M41 0l152 1434h323l-16 -144h549l16 144h324l-152 -1434h-324l60 569h-549l-59 -569h-324zM455 868h549l16 125h-549z" />
    <glyph glyph-name="hbar" unicode="&#x127;" horiz-adv-x="1230" 
d="M10 1128l17 166h161l17 160h317l-18 -160h215l-17 -166h-217l-20 -194q117 151 323 151q83 0 151 -26.5t119.5 -79.5t75 -143.5t11.5 -208.5l-66 -627h-317l59 571q12 103 -34.5 167.5t-143.5 64.5q-99 0 -151.5 -62.5t-65.5 -169.5l-59 -571h-318l121 1128h-160z" />
    <glyph glyph-name="Itilde" unicode="&#x128;" horiz-adv-x="518" 
d="M41 0l154 1454h323l-153 -1454h-324zM4 1616q10 126 76 195t158 69q52 0 98.5 -25.5t83 -51t63.5 -25.5q25 0 45 15.5t21 45.5h213q-10 -124 -77 -193t-159 -69q-51 0 -96 25t-80.5 50t-62.5 25q-25 0 -47 -15.5t-23 -45.5h-213z" />
    <glyph glyph-name="itilde" unicode="&#x129;" horiz-adv-x="512" 
d="M41 0l113 1065h317l-113 -1065h-317zM-41 1227q10 126 76 195t158 69q52 0 98.5 -25.5t83 -51t63.5 -25.5q25 0 45 15.5t21 45.5h213q-10 -124 -77 -193t-159 -69q-51 0 -96 25t-80.5 50t-62.5 25q-25 0 -47 -15.5t-23 -45.5h-213z" />
    <glyph glyph-name="Imacron" unicode="&#x12a;" horiz-adv-x="518" 
d="M41 0l154 1454h323l-153 -1454h-324zM-23 1569l25 239h778l-24 -239h-779z" />
    <glyph glyph-name="imacron" unicode="&#x12b;" horiz-adv-x="512" 
d="M41 0l113 1065h317l-113 -1065h-317zM-68 1180l25 239h778l-24 -239h-779z" />
    <glyph glyph-name="Iogonek" unicode="&#x12e;" horiz-adv-x="518" 
d="M199 -406q-49 -29 -120.5 -37t-139 6.5t-115 62.5t-47.5 122q0 172 264 254l154 1452h323l-153 -1454q-306 -83 -306 -201q0 -52 53.5 -76t100.5 1z" />
    <glyph glyph-name="iogonek" unicode="&#x12f;" horiz-adv-x="512" 
d="M164 1180l31 311h317l-31 -311h-317zM-229 -252q0 93 74.5 156.5t195.5 99.5l113 1061h317l-113 -1065q-305 -82 -305 -201q0 -52 53.5 -76t100.5 1l-14 -130q-49 -29 -120.5 -37t-139 6.5t-115 62.5t-47.5 122z" />
    <glyph glyph-name="Idotaccent" unicode="&#x130;" horiz-adv-x="518" 
d="M41 0l154 1454h323l-153 -1454h-324zM209 1569l31 311h317l-31 -311h-317z" />
    <glyph glyph-name="dotlessi" unicode="&#x131;" horiz-adv-x="512" 
d="M41 0l113 1065h317l-113 -1065h-317z" />
    <glyph glyph-name="IJ" unicode="&#x132;" horiz-adv-x="1673" 
d="M1012 -25q-294 0 -445 205l213 228q99 -121 224 -121q25 0 50.5 4.5t59.5 20.5t61 41.5t49.5 72.5t30.5 109l93 899h323l-100 -955q-11 -109 -54.5 -197.5t-102.5 -144t-132 -93.5t-140.5 -53.5t-129.5 -15.5zM41 0l152 1434h323l-151 -1434h-324z" />
    <glyph glyph-name="ij" unicode="&#x133;" horiz-adv-x="1024" 
d="M41 0l111 1065h317l-111 -1065h-317zM164 1178l26 276h318l-27 -276h-317zM225 -395l33 293h64q58 0 97 9t71.5 32.5t51 68t25.5 113.5l99 944h317l-102 -977q-26 -254 -162.5 -368.5t-411.5 -114.5h-82zM680 1178l27 276h317l-27 -276h-317z" />
    <glyph glyph-name="Jcircumflex" unicode="&#x134;" horiz-adv-x="1089" 
d="M444 -20q-153 0 -270 62.5t-174 166.5l231 209q32 -51 85.5 -89t129.5 -38q22 0 41 2.5t52 16.5t57.5 38.5t46.5 75t29 119.5l94 911h324l-101 -956q-15 -141 -68.5 -245.5t-131.5 -162t-163.5 -84t-181.5 -26.5zM616 1645l265 260h206l205 -260l-143 -134l-182 220
l-213 -220z" />
    <glyph glyph-name="jcircumflex" unicode="&#x135;" horiz-adv-x="516" 
d="M-283 -395l33 293h64q58 0 97 9t71.5 32.5t51 68t25.5 113.5l99 944h317l-102 -977q-26 -254 -162.5 -368.5t-411.5 -114.5h-82zM-4 1255l264 261h207l205 -261l-144 -133l-182 219l-213 -219z" />
    <glyph glyph-name="uni0136" unicode="&#x136;" horiz-adv-x="1341" 
d="M41 0l152 1454h323l-67 -645l536 645h358l-559 -647l478 -807h-340l-344 565l-175 -200l-38 -365h-324zM248 -653l262 565h272l-264 -565h-270z" />
    <glyph glyph-name="uni0137" unicode="&#x137;" horiz-adv-x="1212" 
d="M158 -551l149 500h422l-278 -500h-293zM41 0l152 1454h317l-86 -829l399 440h385l-473 -496l398 -569h-355l-248 356l-151 -157l-21 -199h-317z" />
    <glyph glyph-name="Lacute" unicode="&#x139;" horiz-adv-x="1015" 
d="M41 0l154 1454h323l-121 -1157h537l-33 -297h-860zM225 1581l185 324h258l-189 -324h-254z" />
    <glyph glyph-name="lacute" unicode="&#x13a;" horiz-adv-x="575" 
d="M41 0l154 1448h317l-154 -1448h-317zM236 1552l161 265h389l-301 -265h-249z" />
    <glyph glyph-name="uni013B" unicode="&#x13b;" horiz-adv-x="1015" 
d="M41 0l154 1454h323l-121 -1157h537l-33 -297h-860zM66 -653l262 565h272l-264 -565h-270z" />
    <glyph glyph-name="uni013C" unicode="&#x13c;" horiz-adv-x="509" 
d="M41 0l152 1454h317l-152 -1454h-317zM-201 -653l262 565h273l-264 -565h-271z" />
    <glyph glyph-name="Lcaron" unicode="&#x13d;" horiz-adv-x="1015" 
d="M541 864l262 566h280l-268 -566h-274zM41 0l154 1454h323l-121 -1157h537l-33 -297h-860z" />
    <glyph glyph-name="lcaron" unicode="&#x13e;" horiz-adv-x="841" 
d="M41 0l152 1454h317l-152 -1454h-317zM489 909l263 566h272l-264 -566h-271z" />
    <glyph glyph-name="Ldot" unicode="&#x13f;" horiz-adv-x="1015" 
d="M836 567q-77 0 -128 58t-44 137q9 67 63.5 116.5t122.5 49.5q77 0 127.5 -57.5t44.5 -139.5q-9 -67 -63.5 -115.5t-122.5 -48.5zM41 0l154 1454h323l-121 -1157h537l-33 -297h-860z" />
    <glyph glyph-name="ldot" unicode="&#x140;" horiz-adv-x="786" 
d="M41 0l152 1454h317l-152 -1454h-317zM569 733q0 79 53.5 129.5t127.5 50.5t127 -50t53 -130t-53 -130t-127 -50t-127.5 50.5t-53.5 129.5z" />
    <glyph glyph-name="Lslash" unicode="&#x141;" horiz-adv-x="1110" 
d="M125 0l45 389l-139 -131l26 320l140 131l79 725h324l-45 -385l164 155h6l-29 -317l-168 -158l-47 -432h547l-33 -297h-870z" />
    <glyph glyph-name="lslash" unicode="&#x142;" horiz-adv-x="555" 
d="M-27 324l29 262l162 145l76 723h317l-43 -405l111 98h2l-29 -260l-111 -101l-81 -786h-318l49 471z" />
    <glyph glyph-name="Nacute" unicode="&#x143;" horiz-adv-x="1458" 
d="M41 0l152 1454h329l504 -924h12l97 924h323l-151 -1454h-330l-504 924h-12l-96 -924h-324zM700 1581l185 324h258l-189 -324h-254z" />
    <glyph glyph-name="nacute" unicode="&#x144;" horiz-adv-x="1222" 
d="M41 0l111 1065h317l-14 -133q118 153 325 153q83 0 151 -26.5t119.5 -79.5t75 -143.5t11.5 -208.5l-66 -627h-317l59 571q11 103 -35 167.5t-143 64.5q-99 0 -151.5 -62.5t-65.5 -169.5l-60 -571h-317zM545 1192l184 324h258l-188 -324h-254z" />
    <glyph glyph-name="uni0145" unicode="&#x145;" horiz-adv-x="1458" 
d="M41 0l152 1454h329l504 -924h12l97 924h323l-151 -1454h-330l-504 924h-12l-96 -924h-324zM272 -653l263 565h272l-264 -565h-271z" />
    <glyph glyph-name="uni0146" unicode="&#x146;" horiz-adv-x="1222" 
d="M41 0l111 1065h317l-14 -133q118 153 325 153q83 0 151 -26.5t119.5 -79.5t75 -143.5t11.5 -208.5l-66 -627h-317l59 571q11 103 -35 167.5t-143 64.5q-99 0 -151.5 -62.5t-65.5 -169.5l-60 -571h-317zM158 -653l262 565h272l-264 -565h-270z" />
    <glyph glyph-name="Ncaron" unicode="&#x147;" horiz-adv-x="1458" 
d="M41 0l152 1454h329l504 -924h12l97 924h323l-151 -1454h-330l-504 924h-12l-96 -924h-324zM518 1772l144 133l182 -219l213 219l137 -133l-264 -261h-207z" />
    <glyph glyph-name="ncaron" unicode="&#x148;" horiz-adv-x="1222" 
d="M41 0l111 1065h317l-14 -133q118 153 325 153q83 0 151 -26.5t119.5 -79.5t75 -143.5t11.5 -208.5l-66 -627h-317l59 571q11 103 -35 167.5t-143 64.5q-99 0 -151.5 -62.5t-65.5 -169.5l-60 -571h-317zM360 1382l144 134l182 -220l213 220l137 -134l-264 -260h-207z" />
    <glyph glyph-name="Eng" unicode="&#x14a;" horiz-adv-x="1445" 
d="M741 -430q-161 0 -265.5 55t-176.5 150l209 227q108 -121 223 -121q32 0 64 8t72 29.5t71.5 69t44.5 116.5l-524 742l-94 -846h-324l152 1434h247l586 -848l86 848h332l-144 -1360q-11 -109 -54.5 -197.5t-103 -144t-132.5 -93.5t-140 -53.5t-129 -15.5z" />
    <glyph glyph-name="eng" unicode="&#x14b;" horiz-adv-x="1222" 
d="M422 -395l33 293h65q117 0 173.5 45t70.5 176l49 452q12 103 -34.5 167.5t-143.5 64.5q-99 0 -151.5 -62.5t-65.5 -169.5l-60 -571h-317l111 1065h317l-12 -129q117 149 323 149q83 0 151.5 -26.5t120.5 -79.5t75 -143.5t10 -208.5l-58 -545q-28 -250 -164 -363.5
t-409 -113.5h-84z" />
    <glyph glyph-name="Omacron" unicode="&#x14c;" horiz-adv-x="1667" 
d="M780 -20q-195 0 -350.5 80.5t-246.5 234.5t-91 356q0 171 67 324.5t179.5 262.5t266.5 173t323 64q145 0 271.5 -47.5t218.5 -133t145 -212.5t53 -279q0 -171 -67.5 -324.5t-180.5 -262t-266.5 -172.5t-321.5 -64zM426 684q0 -181 108.5 -289t278.5 -108
q196 0 333.5 139.5t137.5 343.5q0 181 -109 289t-278 108q-197 0 -334 -139t-137 -344zM551 1569l24 239h779l-25 -239h-778z" />
    <glyph glyph-name="omacron" unicode="&#x14d;" horiz-adv-x="1214" 
d="M561 -20q-90 0 -179.5 32t-165.5 92.5t-123.5 160t-47.5 222.5q0 168 83 306t222.5 215t304.5 77q72 0 144 -19.5t139.5 -61.5t119 -100.5t82.5 -143.5t31 -185q0 -167 -83 -304.5t-222.5 -214t-304.5 -76.5zM287 1180l24 239h779l-25 -239h-778zM352 498q0 -112 69 -175
t157 -63q120 0 203 82.5t83 222.5q0 113 -68.5 176.5t-156.5 63.5q-121 0 -204 -83t-83 -224z" />
    <glyph glyph-name="Ohungarumlaut" unicode="&#x150;" horiz-adv-x="1667" 
d="M780 -20q-195 0 -350.5 80.5t-246.5 234.5t-91 356q0 171 67 324.5t179.5 262.5t266.5 173t323 64q145 0 271.5 -47.5t218.5 -133t145 -212.5t53 -279q0 -171 -67.5 -324.5t-180.5 -262t-266.5 -172.5t-321.5 -64zM426 684q0 -181 108.5 -289t278.5 -108
q196 0 333.5 139.5t137.5 343.5q0 181 -109 289t-278 108q-197 0 -334 -139t-137 -344zM627 1581l184 324h258l-188 -324h-254zM1022 1581l184 324h258l-188 -324h-254z" />
    <glyph glyph-name="ohungarumlaut" unicode="&#x151;" horiz-adv-x="1214" 
d="M561 -20q-90 0 -179.5 32t-165.5 92.5t-123.5 160t-47.5 222.5q0 168 83 306t222.5 215t304.5 77q72 0 144 -19.5t139.5 -61.5t119 -100.5t82.5 -143.5t31 -185q0 -167 -83 -304.5t-222.5 -214t-304.5 -76.5zM352 498q0 -112 69 -175t157 -63q120 0 203 82.5t83 222.5
q0 113 -68.5 176.5t-156.5 63.5q-121 0 -204 -83t-83 -224zM362 1192l185 324h258l-189 -324h-254zM758 1192l184 324h258l-188 -324h-254z" />
    <glyph glyph-name="OE" unicode="&#x152;" horiz-adv-x="2193" 
d="M780 -20q-195 0 -350.5 80.5t-246.5 234.5t-91 356q0 171 67 324.5t179.5 262.5t266.5 173t323 64q245 0 426 -127l10 106h842l-29 -297h-520l-29 -278h430l-28 -293h-433l-30 -289h534l-28 -297h-861l11 104q-200 -124 -443 -124zM426 684q0 -181 108.5 -289t278.5 -108
q196 0 333.5 139.5t137.5 343.5q0 181 -109 289t-278 108q-197 0 -334 -139t-137 -344z" />
    <glyph glyph-name="oe" unicode="&#x153;" horiz-adv-x="1992" 
d="M1389 -20q-120 0 -224.5 42.5t-175.5 124.5q-85 -79 -195 -123t-233 -44q-90 0 -179.5 32t-165.5 92.5t-123.5 160t-47.5 222.5q0 168 83 306t222.5 215t304.5 77q108 0 213.5 -43.5t180.5 -126.5q81 81 188 125.5t227 44.5q86 0 165 -24t149.5 -75t113.5 -130.5
t56.5 -190.5t-21.5 -255h-760q26 -84 98.5 -128t176.5 -44q144 0 264 84l121 -152q-78 -87 -190.5 -138.5t-247.5 -51.5zM352 498q0 -112 69 -175t157 -63q120 0 203 82.5t83 222.5q0 113 -68.5 176.5t-156.5 63.5q-121 0 -204 -83t-83 -224zM1178 637h489q-9 90 -72.5 136
t-154.5 46q-95 0 -162.5 -49.5t-99.5 -132.5z" />
    <glyph glyph-name="Racute" unicode="&#x154;" horiz-adv-x="1280" 
d="M41 0l152 1454h528q217 0 345 -120t128 -328q0 -161 -81 -286.5t-220 -191.5l276 -528h-342l-237 469h-176l-49 -469h-324zM444 745h170q108 0 180 62t72 176q0 95 -53.5 134.5t-153.5 39.5h-172zM612 1561l185 323h258l-189 -323h-254z" />
    <glyph glyph-name="racute" unicode="&#x155;" horiz-adv-x="864" 
d="M41 0l111 1065h317l-31 -305q40 147 129.5 236t231.5 89q47 0 78 -14l-33 -297q-30 6 -84 6q-142 0 -232.5 -80.5t-119.5 -218.5l-50 -481h-317zM371 1192l184 324h258l-188 -324h-254z" />
    <glyph glyph-name="uni0156" unicode="&#x156;" horiz-adv-x="1280" 
d="M41 0l152 1454h528q217 0 345 -120t128 -328q0 -161 -81 -286.5t-220 -191.5l276 -528h-342l-237 469h-176l-49 -469h-324zM186 -653l263 565h272l-264 -565h-271zM444 745h170q108 0 180 62t72 176q0 95 -53.5 134.5t-153.5 39.5h-172z" />
    <glyph glyph-name="uni0157" unicode="&#x157;" horiz-adv-x="864" 
d="M41 0l111 1065h317l-31 -305q40 147 129.5 236t231.5 89q47 0 78 -14l-33 -297q-30 6 -84 6q-142 0 -232.5 -80.5t-119.5 -218.5l-50 -481h-317zM-215 -653l262 565h272l-264 -565h-270z" />
    <glyph glyph-name="Rcaron" unicode="&#x158;" horiz-adv-x="1280" 
d="M41 0l152 1454h528q217 0 345 -120t128 -328q0 -161 -81 -286.5t-220 -191.5l276 -528h-342l-237 469h-176l-49 -469h-324zM428 1751l143 133l183 -219l213 219l137 -133l-264 -260h-207zM444 745h170q108 0 180 62t72 176q0 95 -53.5 134.5t-153.5 39.5h-172z" />
    <glyph glyph-name="rcaron" unicode="&#x159;" horiz-adv-x="864" 
d="M41 0l111 1065h317l-31 -305q40 147 129.5 236t231.5 89q47 0 78 -14l-33 -297q-30 6 -84 6q-142 0 -232.5 -80.5t-119.5 -218.5l-50 -481h-317zM188 1382l144 134l182 -220l213 220l137 -134l-264 -260h-207z" />
    <glyph glyph-name="Sacute" unicode="&#x15a;" horiz-adv-x="1138" 
d="M530 -20q-192 0 -333.5 104t-167.5 270l274 123q22 -90 83.5 -147.5t162.5 -57.5q84 0 139 38.5t55 119.5q0 63 -39 103t-139 81l-69 29q-76 30 -132 63.5t-106 81t-76 112t-26 144.5q0 128 66.5 227t178 151.5t246.5 52.5q94 0 174.5 -26.5t137 -71.5t94.5 -98.5
t59 -113.5l-256 -135q-77 156 -219 156q-70 0 -116 -35.5t-46 -93.5q0 -51 42.5 -88.5t144.5 -79.5l88 -35q175 -72 253 -166.5t78 -236.5q0 -92 -33 -171t-87.5 -133t-126 -92.5t-149 -56.5t-155.5 -18zM541 1581l184 324h258l-188 -324h-254z" />
    <glyph glyph-name="sacute" unicode="&#x15b;" horiz-adv-x="915" 
d="M420 -20q-169 0 -282 78.5t-128 224.5l254 71q39 -125 160 -125q47 0 79 21.5t32 64.5q0 34 -20 55t-71 38l-129 49q-114 41 -169.5 116t-55.5 170q0 99 57.5 178t151 121.5t203.5 42.5q149 0 252 -77.5t120 -202.5l-249 -70q-36 101 -131 101q-46 0 -71.5 -19.5
t-25.5 -54.5q0 -54 72 -78l145 -57q234 -82 234 -295q0 -162 -121.5 -257t-306.5 -95zM391 1192l184 324h259l-189 -324h-254z" />
    <glyph glyph-name="Scircumflex" unicode="&#x15c;" horiz-adv-x="1138" 
d="M530 -20q-192 0 -333.5 104t-167.5 270l274 123q22 -90 83.5 -147.5t162.5 -57.5q84 0 139 38.5t55 119.5q0 63 -39 103t-139 81l-69 29q-76 30 -132 63.5t-106 81t-76 112t-26 144.5q0 128 66.5 227t178 151.5t246.5 52.5q94 0 174.5 -26.5t137 -71.5t94.5 -98.5
t59 -113.5l-256 -135q-77 156 -219 156q-70 0 -116 -35.5t-46 -93.5q0 -51 42.5 -88.5t144.5 -79.5l88 -35q175 -72 253 -166.5t78 -236.5q0 -92 -33 -171t-87.5 -133t-126 -92.5t-149 -56.5t-155.5 -18zM348 1645l264 260h207l205 -260l-143 -134l-183 220l-213 -220z" />
    <glyph glyph-name="scircumflex" unicode="&#x15d;" horiz-adv-x="915" 
d="M420 -20q-169 0 -282 78.5t-128 224.5l254 71q39 -125 160 -125q47 0 79 21.5t32 64.5q0 34 -20 55t-71 38l-129 49q-114 41 -169.5 116t-55.5 170q0 99 57.5 178t151 121.5t203.5 42.5q149 0 252 -77.5t120 -202.5l-249 -70q-36 101 -131 101q-46 0 -71.5 -19.5
t-25.5 -54.5q0 -54 72 -78l145 -57q234 -82 234 -295q0 -162 -121.5 -257t-306.5 -95zM199 1255l264 261h207l204 -261l-143 -133l-182 219l-213 -219z" />
    <glyph glyph-name="Scedilla" unicode="&#x15e;" horiz-adv-x="1138" 
d="M317 -369q42 -2 77.5 2t66 15t48 31.5t17.5 50.5q0 96 -184 75l-18 64l84 123q-150 31 -254 128t-125 234l274 123q22 -90 83.5 -147.5t162.5 -57.5q84 0 139 38.5t55 119.5q0 63 -39 103t-139 81l-69 29q-76 30 -132 63.5t-106 81t-76 112t-26 144.5q0 128 66.5 227
t178 151.5t246.5 52.5q94 0 174.5 -26.5t137 -71.5t94.5 -98.5t59 -113.5l-256 -135q-77 156 -219 156q-70 0 -116 -35.5t-46 -93.5q0 -51 42.5 -88.5t144.5 -79.5l88 -35q175 -72 253 -166.5t78 -236.5q0 -102 -39 -186.5t-105 -140.5t-145.5 -90.5t-168.5 -47.5l-48 -60
q78 -3 124 -49.5t46 -116.5q0 -53 -27 -97.5t-71.5 -72.5t-102 -46t-117.5 -17t-118 14z" />
    <glyph glyph-name="scedilla" unicode="&#x15f;" horiz-adv-x="915" 
d="M207 -369q42 -2 77.5 2t66 15t48 31.5t17.5 50.5q0 96 -185 75l-18 64l84 123q-122 26 -198.5 100t-88.5 191l254 71q39 -125 160 -125q47 0 79 21.5t32 64.5q0 34 -20 55t-71 38l-129 49q-114 41 -169.5 116t-55.5 170q0 99 57.5 178t151 121.5t203.5 42.5
q149 0 252 -77.5t120 -202.5l-249 -70q-36 101 -131 101q-46 0 -71.5 -19.5t-25.5 -54.5q0 -54 72 -78l145 -57q234 -82 234 -295q0 -141 -92.5 -231.5t-243.5 -114.5l-47 -60q78 -3 124 -49.5t46 -116.5q0 -53 -27 -97.5t-71.5 -72.5t-102 -46t-117.5 -17t-118 14z" />
    <glyph glyph-name="Scaron" unicode="&#x160;" horiz-adv-x="1138" 
d="M530 -20q-192 0 -333.5 104t-167.5 270l274 123q22 -90 83.5 -147.5t162.5 -57.5q84 0 139 38.5t55 119.5q0 63 -39 103t-139 81l-69 29q-76 30 -132 63.5t-106 81t-76 112t-26 144.5q0 128 66.5 227t178 151.5t246.5 52.5q94 0 174.5 -26.5t137 -71.5t94.5 -98.5
t59 -113.5l-256 -135q-77 156 -219 156q-70 0 -116 -35.5t-46 -93.5q0 -51 42.5 -88.5t144.5 -79.5l88 -35q175 -72 253 -166.5t78 -236.5q0 -92 -33 -171t-87.5 -133t-126 -92.5t-149 -56.5t-155.5 -18zM356 1772l144 133l182 -219l213 219l137 -133l-264 -261h-207z" />
    <glyph glyph-name="scaron" unicode="&#x161;" horiz-adv-x="915" 
d="M420 -20q-169 0 -282 78.5t-128 224.5l254 71q39 -125 160 -125q47 0 79 21.5t32 64.5q0 34 -20 55t-71 38l-129 49q-114 41 -169.5 116t-55.5 170q0 99 57.5 178t151 121.5t203.5 42.5q149 0 252 -77.5t120 -202.5l-249 -70q-36 101 -131 101q-46 0 -71.5 -19.5
t-25.5 -54.5q0 -54 72 -78l145 -57q234 -82 234 -295q0 -162 -121.5 -257t-306.5 -95zM207 1382l143 134l182 -220l213 220l138 -134l-265 -260h-206z" />
    <glyph glyph-name="uni0162" unicode="&#x162;" horiz-adv-x="1077" 
d="M319 0l121 1157h-327l32 297h983l-30 -297h-334l-121 -1157h-39l-57 -74q78 -3 124 -49.5t46 -116.5q0 -53 -27 -97.5t-71.5 -72.5t-102 -46t-117.5 -17t-118 14l8 90q42 -2 77.5 2t66 15t48 31.5t17.5 50.5q0 96 -185 75l-18 64l90 131h-66z" />
    <glyph glyph-name="uni0163" unicode="&#x163;" horiz-adv-x="798" 
d="M74 813l26 252h158l29 272h317l-29 -272h224l-27 -252h-221l-45 -434q-5 -46 20.5 -78.5t91.5 -32.5q45 0 103 17l-27 -242q-30 -30 -92 -43h8l-57 -74q78 -3 124 -49.5t46 -116.5q0 -53 -27 -97.5t-71.5 -72.5t-102 -46t-117.5 -17t-118 14l8 90q42 -2 77.5 2t66 15
t48 31.5t17.5 50.5q0 96 -185 75l-18 64l88 127q-112 25 -168 106.5t-39 225.5l51 485h-159z" />
    <glyph glyph-name="Tcaron" unicode="&#x164;" horiz-adv-x="1077" 
d="M319 0l121 1157h-327l32 297h983l-30 -297h-334l-121 -1157h-324zM328 1772l143 133l182 -219l213 219l138 -133l-265 -261h-207z" />
    <glyph glyph-name="tcaron" unicode="&#x165;" horiz-adv-x="843" 
d="M485 -12q-157 0 -239.5 82.5t-63.5 257.5l51 485h-159l26 252h158l29 272h317l-29 -272h224l-27 -252h-221l-45 -434q-5 -46 20.5 -78.5t91.5 -32.5q45 0 103 17l-27 -242q-55 -55 -209 -55zM696 1147l185 323h258l-189 -323h-254z" />
    <glyph glyph-name="Tbar" unicode="&#x166;" horiz-adv-x="1077" 
d="M176 731l35 297h215l14 129h-327l32 297h983l-30 -297h-334l-14 -129h239l-33 -297h-237l-76 -731h-324l76 731h-219z" />
    <glyph glyph-name="tbar" unicode="&#x167;" horiz-adv-x="798" 
d="M41 485l27 252h157l8 76h-159l26 252h158l29 272h317l-29 -272h224l-27 -252h-221l-8 -76h223l-27 -252h-223l-10 -106q-5 -46 20.5 -78.5t91.5 -32.5q45 0 103 17l-27 -242q-55 -55 -209 -55q-157 0 -239.5 82.5t-63.5 257.5l17 157h-158z" />
    <glyph glyph-name="Utilde" unicode="&#x168;" horiz-adv-x="1316" 
d="M612 -31q-117 0 -217 38.5t-170.5 109t-105.5 176.5t-21 233l99 928h323l-98 -942q-6 -53 5 -96t33 -69t53 -43.5t62 -24.5t64 -7q43 0 82 12t77 39t64 78.5t33 122.5l98 930h324l-98 -940q-18 -168 -106.5 -293.5t-218.5 -188.5t-282 -63zM406 1616q10 126 75.5 195
t157.5 69q41 0 80 -16t63.5 -35t52.5 -35t50 -16q25 0 44.5 15.5t20.5 45.5h213q-10 -124 -76.5 -193t-158.5 -69q-40 0 -78 15.5t-61.5 34.5t-51 34.5t-49.5 15.5q-25 0 -47 -15.5t-23 -45.5h-212z" />
    <glyph glyph-name="utilde" unicode="&#x169;" horiz-adv-x="1222" 
d="M1182 1065l-111 -1065h-317l14 133q-118 -153 -326 -153q-82 0 -150 26.5t-119.5 79.5t-75 143.5t-11.5 208.5l66 627h317l-59 -571q-11 -103 35 -167.5t143 -64.5q99 0 151.5 62.5t65.5 169.5l59 571h318zM317 1227q10 126 76 195t158 69q41 0 80 -16t63.5 -35t52.5 -35
t50 -16q25 0 44.5 15.5t20.5 45.5h213q-10 -124 -76.5 -193t-158.5 -69q-40 0 -78 15.5t-61.5 34.5t-51 34.5t-49.5 15.5q-25 0 -47 -15.5t-23 -45.5h-213z" />
    <glyph glyph-name="Umacron" unicode="&#x16a;" horiz-adv-x="1316" 
d="M612 -31q-117 0 -217 38.5t-170.5 109t-105.5 176.5t-21 233l99 928h323l-98 -942q-6 -53 5 -96t33 -69t53 -43.5t62 -24.5t64 -7q43 0 82 12t77 39t64 78.5t33 122.5l98 930h324l-98 -940q-18 -168 -106.5 -293.5t-218.5 -188.5t-282 -63zM377 1569l24 239h779l-25 -239
h-778z" />
    <glyph glyph-name="umacron" unicode="&#x16b;" horiz-adv-x="1222" 
d="M1182 1065l-111 -1065h-317l14 133q-118 -153 -326 -153q-82 0 -150 26.5t-119.5 79.5t-75 143.5t-11.5 208.5l66 627h317l-59 -571q-11 -103 35 -167.5t143 -64.5q99 0 151.5 62.5t65.5 169.5l59 571h318zM289 1180l24 239h779l-25 -239h-778z" />
    <glyph glyph-name="Ubreve" unicode="&#x16c;" horiz-adv-x="1316" 
d="M612 -31q-117 0 -217 38.5t-170.5 109t-105.5 176.5t-21 233l99 928h323l-98 -942q-6 -53 5 -96t33 -69t53 -43.5t62 -24.5t64 -7q43 0 82 12t77 39t64 78.5t33 122.5l98 930h324l-98 -940q-18 -168 -106.5 -293.5t-218.5 -188.5t-282 -63zM455 1905h186
q-7 -71 23.5 -119.5t109.5 -48.5t116 48t42 120h186q-6 -65 -30 -123t-66.5 -107.5t-111.5 -78.5t-156 -29q-86 0 -150 29t-97.5 78t-46.5 107.5t-5 123.5z" />
    <glyph glyph-name="ubreve" unicode="&#x16d;" horiz-adv-x="1222" 
d="M1182 1065l-111 -1065h-317l14 133q-118 -153 -326 -153q-82 0 -150 26.5t-119.5 79.5t-75 143.5t-11.5 208.5l66 627h317l-59 -571q-11 -103 35 -167.5t143 -64.5q99 0 151.5 62.5t65.5 169.5l59 571h318zM367 1516h186q-7 -71 23.5 -119.5t109.5 -48.5t116 48t42 120
h186q-6 -65 -30 -123t-66.5 -107.5t-111.5 -78.5t-156 -29q-86 0 -150 29t-97.5 78t-46.5 107.5t-5 123.5z" />
    <glyph glyph-name="Uring" unicode="&#x16e;" horiz-adv-x="1316" 
d="M612 -31q-117 0 -217 38.5t-170.5 109t-105.5 176.5t-21 233l99 928h323l-98 -942q-6 -53 5 -96t33 -69t53 -43.5t62 -24.5t64 -7q43 0 82 12t77 39t64 78.5t33 122.5l98 930h324l-98 -940q-18 -168 -106.5 -293.5t-218.5 -188.5t-282 -63zM549 1802q0 101 79 178.5
t183 77.5q94 0 159.5 -66t65.5 -161q0 -100 -79.5 -178t-182.5 -78q-96 0 -160.5 66t-64.5 161zM745 1819q0 -21 12.5 -33t33.5 -12q22 0 36.5 13.5t14.5 37.5q0 19 -14.5 31t-32.5 12q-21 0 -35.5 -14t-14.5 -35z" />
    <glyph glyph-name="uring" unicode="&#x16f;" horiz-adv-x="1222" 
d="M1182 1065l-111 -1065h-317l14 133q-118 -153 -326 -153q-82 0 -150 26.5t-119.5 79.5t-75 143.5t-11.5 208.5l66 627h317l-59 -571q-11 -103 35 -167.5t143 -64.5q99 0 151.5 62.5t65.5 169.5l59 571h318zM461 1413q0 101 79 178.5t183 77.5q94 0 159.5 -66t65.5 -161
q0 -100 -79.5 -178t-182.5 -78q-96 0 -160.5 66t-64.5 161zM657 1430q0 -21 12 -33.5t33 -12.5q22 0 37 14t15 38q0 19 -14.5 31t-32.5 12q-21 0 -35.5 -14t-14.5 -35z" />
    <glyph glyph-name="Uhungarumlaut" unicode="&#x170;" horiz-adv-x="1316" 
d="M612 -31q-117 0 -217 38.5t-170.5 109t-105.5 176.5t-21 233l99 928h323l-98 -942q-6 -53 5 -96t33 -69t53 -43.5t62 -24.5t64 -7q43 0 82 12t77 39t64 78.5t33 122.5l98 930h324l-98 -940q-18 -168 -106.5 -293.5t-218.5 -188.5t-282 -63zM455 1581l184 324h258
l-188 -324h-254zM850 1581l184 324h258l-188 -324h-254z" />
    <glyph glyph-name="uhungarumlaut" unicode="&#x171;" horiz-adv-x="1222" 
d="M1182 1065l-111 -1065h-317l14 133q-118 -153 -326 -153q-82 0 -150 26.5t-119.5 79.5t-75 143.5t-11.5 208.5l66 627h317l-59 -571q-11 -103 35 -167.5t143 -64.5q99 0 151.5 62.5t65.5 169.5l59 571h318zM367 1192l184 324h258l-188 -324h-254zM762 1192l184 324h258
l-188 -324h-254z" />
    <glyph glyph-name="Uogonek" unicode="&#x172;" horiz-adv-x="1316" 
d="M641 -406q-49 -29 -120.5 -37t-139 6.5t-115 62.5t-47.5 122q0 162 230 242q-177 48 -275 188.5t-76 347.5l99 928h323l-98 -942q-6 -53 5 -96t33 -69t53 -43.5t62 -24.5t64 -7q43 0 82 12t77 39t64 78.5t33 122.5l98 930h324l-98 -940q-23 -213 -151.5 -351.5
t-317.5 -178.5q-248 -78 -248 -185q0 -52 53 -76t100 1z" />
    <glyph glyph-name="uogonek" unicode="&#x173;" horiz-adv-x="1222" 
d="M1182 1065l-111 -1065q-305 -82 -305 -201q0 -52 53.5 -76t100.5 1l-15 -130q-49 -29 -120.5 -37t-139 6.5t-115 62.5t-47.5 122q0 93 74.5 156.5t196.5 99.5l14 129q-118 -153 -326 -153q-82 0 -150 26.5t-119.5 79.5t-75 143.5t-11.5 208.5l66 627h317l-59 -571
q-11 -103 35 -167.5t143 -64.5q99 0 151.5 62.5t65.5 169.5l59 571h318z" />
    <glyph glyph-name="Wcircumflex" unicode="&#x174;" horiz-adv-x="2088" 
d="M426 0l-305 1454h342l172 -899l379 899h256l194 -899l357 899h340l-609 -1454h-256l-215 909l-399 -909h-256zM825 1645l265 260h206l205 -260l-143 -134l-182 220l-213 -220z" />
    <glyph glyph-name="wcircumflex" unicode="&#x175;" horiz-adv-x="1875" 
d="M1118 0l-168 657l-303 -657h-293l-274 1065h315l146 -690l305 690h293l164 -690l284 690h320l-496 -1065h-293zM676 1255l264 261h207l205 -261l-144 -133l-182 219l-213 -219z" />
    <glyph glyph-name="Ycircumflex" unicode="&#x176;" horiz-adv-x="1454" 
d="M504 0l65 563l-438 891h354l271 -598l385 598h375l-623 -891l-66 -563h-323zM502 1645l264 260h207l205 -260l-144 -134l-182 220l-213 -220z" />
    <glyph glyph-name="ycircumflex" unicode="&#x177;" horiz-adv-x="1236" 
d="M193 -389l217 409l-330 1045h323l197 -690l340 690h328l-760 -1454h-315zM340 1255l264 261h207l205 -261l-144 -133l-182 219l-213 -219z" />
    <glyph glyph-name="Ydieresis" unicode="&#x178;" horiz-adv-x="1454" 
d="M504 0l65 563l-438 891h354l271 -598l385 598h375l-623 -891l-66 -563h-323zM426 1569l33 311h295l-35 -311h-293zM954 1569l31 311h297l-37 -311h-291z" />
    <glyph glyph-name="Zacute" unicode="&#x179;" horiz-adv-x="1224" 
d="M-20 0l770 1157h-619l29 297h1126l-770 -1157h627l-29 -297h-1134zM621 1581l184 324h258l-189 -324h-253z" />
    <glyph glyph-name="zacute" unicode="&#x17a;" horiz-adv-x="1083" 
d="M-31 0l604 788h-467l29 277h979l-604 -789h483l-28 -276h-996zM500 1192l184 324h258l-188 -324h-254z" />
    <glyph glyph-name="Zdotaccent" unicode="&#x17b;" horiz-adv-x="1224" 
d="M-20 0l770 1157h-619l29 297h1126l-770 -1157h627l-29 -297h-1134zM596 1569l31 311h317l-31 -311h-317z" />
    <glyph glyph-name="zdotaccent" unicode="&#x17c;" horiz-adv-x="1083" 
d="M-31 0l604 788h-467l29 277h979l-604 -789h483l-28 -276h-996zM475 1180l31 311h317l-30 -311h-318z" />
    <glyph glyph-name="Zcaron" unicode="&#x17d;" horiz-adv-x="1224" 
d="M-20 0l770 1157h-619l29 297h1126l-770 -1157h627l-29 -297h-1134zM436 1772l144 133l182 -219l213 219l137 -133l-264 -261h-207z" />
    <glyph glyph-name="zcaron" unicode="&#x17e;" horiz-adv-x="1083" 
d="M-31 0l604 788h-467l29 277h979l-604 -789h483l-28 -276h-996zM315 1382l144 134l182 -220l213 220l137 -134l-264 -260h-207z" />
    <glyph glyph-name="uni018F" unicode="&#x18f;" horiz-adv-x="1572" 
d="M707 -20q-153 0 -280 55t-212 159t-115.5 254t9.5 340h1077q-3 165 -105 264t-274 99q-154 0 -291 -86l-172 219q101 82 232.5 126t273.5 44q195 0 348 -81t238.5 -228.5t85.5 -337.5q0 -169 -65.5 -323t-175 -264t-260 -175t-314.5 -65zM416 520q47 -237 321 -237
q135 0 235 63.5t156 173.5h-712z" />
    <glyph glyph-name="florin" unicode="&#x192;" horiz-adv-x="831" 
d="M27 -373q-141 0 -203 41l26 246q38 -20 111 -20q75 0 117.5 40.5t48.5 112.5l84 766h-141l26 252h142l4 31q11 97 46 172t79.5 118t100.5 70t102.5 36t91.5 9q136 0 200 -41l-26 -248q-38 21 -113 21q-74 0 -117 -40.5t-49 -111.5l-2 -16h266l-26 -252h-267l-82 -782
q-11 -97 -45.5 -171.5t-79 -117t-100.5 -70t-102.5 -36.5t-91.5 -9z" />
    <glyph glyph-name="Ohorn" unicode="&#x1a0;" horiz-adv-x="1667" 
d="M780 -20q-195 0 -350.5 80.5t-246.5 234.5t-91 356q0 171 67 324.5t179.5 262.5t266.5 173t323 64h434q68 0 110.5 38t49.5 105l4 51h241l-14 -135q-12 -112 -91.5 -187t-205.5 -94q160 -181 160 -450q0 -171 -67.5 -324.5t-180.5 -262t-266.5 -172.5t-321.5 -64z
M426 684q0 -181 108.5 -289t278.5 -108q196 0 333.5 139.5t137.5 343.5q0 181 -109 289t-278 108q-197 0 -334 -139t-137 -344z" />
    <glyph glyph-name="ohorn" unicode="&#x1a1;" horiz-adv-x="1214" 
d="M561 -20q-90 0 -179.5 32t-165.5 92.5t-123.5 160t-47.5 222.5q0 168 83 306t222.5 215t304.5 77h189q68 0 112 38.5t48 105.5l4 51h241l-14 -135q-7 -82 -52.5 -145t-121.5 -99q110 -133 110 -326q0 -167 -83 -304.5t-222.5 -214t-304.5 -76.5zM352 498q0 -112 69 -175
t157 -63q120 0 203 82.5t83 222.5q0 113 -68.5 176.5t-156.5 63.5q-121 0 -204 -83t-83 -224z" />
    <glyph glyph-name="Uhorn" unicode="&#x1af;" horiz-adv-x="1316" 
d="M612 -31q-117 0 -217 38.5t-170.5 109t-105.5 176.5t-21 233l99 928h323l-98 -942q-6 -53 5 -96t33 -69t53 -43.5t62 -24.5t64 -7q43 0 82 12t77 39t64 78.5t33 122.5l98 930h207q142 0 154 125l10 90h242l-17 -174q-13 -112 -92.5 -187t-204.5 -94l-73 -700
q-18 -168 -106.5 -293.5t-218.5 -188.5t-282 -63z" />
    <glyph glyph-name="uhorn" unicode="&#x1b0;" horiz-adv-x="1222" 
d="M86 438l66 627h317l-59 -571q-11 -103 35 -167.5t143 -64.5q99 0 151.5 62.5t65.5 169.5l59 571h156q142 0 154 125l10 90h241l-16 -174q-12 -101 -79 -172.5t-173 -97.5l-86 -836h-317l14 133q-118 -153 -326 -153q-82 0 -150 26.5t-119.5 79.5t-75 143.5t-11.5 208.5z
" />
    <glyph glyph-name="uni01CD" unicode="&#x1cd;" horiz-adv-x="1482" 
d="M1010 1454l393 -1454h-350l-56 231h-575l-105 -231h-348l699 1454h342zM528 1751l144 133l182 -219l213 219l137 -133l-264 -260h-207zM559 530h365l-127 525z" />
    <glyph glyph-name="uni01CE" unicode="&#x1ce;" 
d="M496 -20q-87 0 -167.5 32t-144.5 92t-102.5 155t-38.5 212q0 167 72.5 308t200.5 223.5t282 82.5q68 0 126.5 -16t95 -40t58 -46t29.5 -39h11l14 121h317l-110 -1065h-318l15 121h-15q-21 -41 -114.5 -91t-210.5 -50zM358 500q0 -63 21 -111t56.5 -74.5t75 -39.5
t81.5 -13q52 0 103 19t94 55t69.5 95.5t26.5 133.5q0 121 -70 179.5t-164 58.5q-52 0 -103 -19t-94 -55t-69.5 -95.5t-26.5 -133.5zM395 1382l144 134l182 -220l213 220l137 -134l-264 -260h-207z" />
    <glyph glyph-name="uni01CF" unicode="&#x1cf;" horiz-adv-x="518" 
d="M41 0l154 1454h323l-153 -1454h-324zM49 1772l144 133l182 -219l213 219l137 -133l-264 -261h-207z" />
    <glyph glyph-name="uni01D0" unicode="&#x1d0;" horiz-adv-x="512" 
d="M41 0l113 1065h317l-113 -1065h-317zM4 1382l143 134l183 -220l213 220l137 -134l-264 -260h-207z" />
    <glyph glyph-name="uni01D1" unicode="&#x1d1;" horiz-adv-x="1667" 
d="M780 -20q-195 0 -350.5 80.5t-246.5 234.5t-91 356q0 171 67 324.5t179.5 262.5t266.5 173t323 64q145 0 271.5 -47.5t218.5 -133t145 -212.5t53 -279q0 -171 -67.5 -324.5t-180.5 -262t-266.5 -172.5t-321.5 -64zM426 684q0 -181 108.5 -289t278.5 -108
q196 0 333.5 139.5t137.5 343.5q0 181 -109 289t-278 108q-197 0 -334 -139t-137 -344zM623 1772l143 133l182 -219l213 219l137 -133l-264 -261h-207z" />
    <glyph glyph-name="uni01D2" unicode="&#x1d2;" horiz-adv-x="1214" 
d="M561 -20q-90 0 -179.5 32t-165.5 92.5t-123.5 160t-47.5 222.5q0 168 83 306t222.5 215t304.5 77q72 0 144 -19.5t139.5 -61.5t119 -100.5t82.5 -143.5t31 -185q0 -167 -83 -304.5t-222.5 -214t-304.5 -76.5zM352 498q0 -112 69 -175t157 -63q120 0 203 82.5t83 222.5
q0 113 -68.5 176.5t-156.5 63.5q-121 0 -204 -83t-83 -224zM358 1382l144 134l182 -220l213 220l137 -134l-264 -260h-207z" />
    <glyph glyph-name="uni01D3" unicode="&#x1d3;" horiz-adv-x="1316" 
d="M612 -31q-117 0 -217 38.5t-170.5 109t-105.5 176.5t-21 233l99 928h323l-98 -942q-6 -53 5 -96t33 -69t53 -43.5t62 -24.5t64 -7q43 0 82 12t77 39t64 78.5t33 122.5l98 930h324l-98 -940q-18 -168 -106.5 -293.5t-218.5 -188.5t-282 -63zM449 1772l143 133l182 -219
l213 219l137 -133l-264 -261h-207z" />
    <glyph glyph-name="uni01D4" unicode="&#x1d4;" horiz-adv-x="1222" 
d="M1182 1065l-111 -1065h-317l14 133q-118 -153 -326 -153q-82 0 -150 26.5t-119.5 79.5t-75 143.5t-11.5 208.5l66 627h317l-59 -571q-11 -103 35 -167.5t143 -64.5q99 0 151.5 62.5t65.5 169.5l59 571h318zM360 1382l144 134l182 -220l213 220l137 -134l-264 -260h-207z
" />
    <glyph glyph-name="uni01D5" unicode="&#x1d5;" horiz-adv-x="1316" 
d="M612 -31q-117 0 -217 38.5t-170.5 109t-105.5 176.5t-21 233l99 928h323l-98 -942q-6 -53 5 -96t33 -69t53 -43.5t62 -24.5t64 -7q43 0 82 12t77 39t64 78.5t33 122.5l98 930h324l-98 -940q-18 -168 -106.5 -293.5t-218.5 -188.5t-282 -63zM365 1569l32 311h295l-35 -311
h-292zM430 1954l25 239h778l-25 -239h-778zM893 1569l31 311h297l-37 -311h-291z" />
    <glyph glyph-name="uni01D6" unicode="&#x1d6;" horiz-adv-x="1222" 
d="M1182 1065l-111 -1065h-317l14 133q-118 -153 -326 -153q-82 0 -150 26.5t-119.5 79.5t-75 143.5t-11.5 208.5l66 627h317l-59 -571q-11 -103 35 -167.5t143 -64.5q99 0 151.5 62.5t65.5 169.5l59 571h318zM276 1180l33 311h295l-35 -311h-293zM342 1565l25 239h778
l-25 -239h-778zM805 1180l31 311h297l-37 -311h-291z" />
    <glyph glyph-name="uni01D7" unicode="&#x1d7;" horiz-adv-x="1316" 
d="M612 -31q-117 0 -217 38.5t-170.5 109t-105.5 176.5t-21 233l99 928h323l-98 -942q-6 -53 5 -96t33 -69t53 -43.5t62 -24.5t64 -7q43 0 82 12t77 39t64 78.5t33 122.5l98 930h324l-98 -940q-18 -168 -106.5 -293.5t-218.5 -188.5t-282 -63zM365 1569l32 311h295l-35 -311
h-292zM682 1966l184 324h258l-188 -324h-254zM893 1569l31 311h297l-37 -311h-291z" />
    <glyph glyph-name="uni01D8" unicode="&#x1d8;" horiz-adv-x="1222" 
d="M1182 1065l-111 -1065h-317l14 133q-118 -153 -326 -153q-82 0 -150 26.5t-119.5 79.5t-75 143.5t-11.5 208.5l66 627h317l-59 -571q-11 -103 35 -167.5t143 -64.5q99 0 151.5 62.5t65.5 169.5l59 571h318zM276 1180l33 311h295l-35 -311h-293zM594 1577l184 324h258
l-188 -324h-254zM805 1180l31 311h297l-37 -311h-291z" />
    <glyph glyph-name="uni01D9" unicode="&#x1d9;" horiz-adv-x="1316" 
d="M612 -31q-117 0 -217 38.5t-170.5 109t-105.5 176.5t-21 233l99 928h323l-98 -942q-6 -53 5 -96t33 -69t53 -43.5t62 -24.5t64 -7q43 0 82 12t77 39t64 78.5t33 122.5l98 930h324l-98 -940q-18 -168 -106.5 -293.5t-218.5 -188.5t-282 -63zM365 1569l32 311h295l-35 -311
h-292zM500 2157l143 133l182 -219l213 219l138 -133l-265 -261h-206zM893 1569l31 311h297l-37 -311h-291z" />
    <glyph glyph-name="uni01DA" unicode="&#x1da;" horiz-adv-x="1222" 
d="M1182 1065l-111 -1065h-317l14 133q-118 -153 -326 -153q-82 0 -150 26.5t-119.5 79.5t-75 143.5t-11.5 208.5l66 627h317l-59 -571q-11 -103 35 -167.5t143 -64.5q99 0 151.5 62.5t65.5 169.5l59 571h318zM276 1180l33 311h295l-35 -311h-293zM412 1767l143 134
l182 -220l213 220l137 -134l-264 -260h-207zM805 1180l31 311h297l-37 -311h-291z" />
    <glyph glyph-name="uni01DB" unicode="&#x1db;" horiz-adv-x="1316" 
d="M612 -31q-117 0 -217 38.5t-170.5 109t-105.5 176.5t-21 233l99 928h323l-98 -942q-6 -53 5 -96t33 -69t53 -43.5t62 -24.5t64 -7q43 0 82 12t77 39t64 78.5t33 122.5l98 930h324l-98 -940q-18 -168 -106.5 -293.5t-218.5 -188.5t-282 -63zM365 1569l32 311h295l-35 -311
h-292zM489 2290h259l184 -324h-254zM893 1569l31 311h297l-37 -311h-291z" />
    <glyph glyph-name="uni01DC" unicode="&#x1dc;" horiz-adv-x="1222" 
d="M1182 1065l-111 -1065h-317l14 133q-118 -153 -326 -153q-82 0 -150 26.5t-119.5 79.5t-75 143.5t-11.5 208.5l66 627h317l-59 -571q-11 -103 35 -167.5t143 -64.5q99 0 151.5 62.5t65.5 169.5l59 571h318zM276 1180l33 311h295l-35 -311h-293zM401 1901h258l185 -324
h-254zM805 1180l31 311h297l-37 -311h-291z" />
    <glyph glyph-name="uni01DE" unicode="&#x1de;" horiz-adv-x="1482" 
d="M1010 1454l393 -1454h-350l-56 231h-575l-105 -231h-348l699 1454h342zM444 1548l33 312h295l-35 -312h-293zM510 1933l25 240h778l-25 -240h-778zM559 530h365l-127 525zM973 1548l31 312h296l-36 -312h-291z" />
    <glyph glyph-name="uni01DF" unicode="&#x1df;" 
d="M496 -20q-87 0 -167.5 32t-144.5 92t-102.5 155t-38.5 212q0 167 72.5 308t200.5 223.5t282 82.5q68 0 126.5 -16t95 -40t58 -46t29.5 -39h11l14 121h317l-110 -1065h-318l15 121h-15q-21 -41 -114.5 -91t-210.5 -50zM311 1180l33 311h295l-35 -311h-293zM358 500
q0 -63 21 -111t56.5 -74.5t75 -39.5t81.5 -13q52 0 103 19t94 55t69.5 95.5t26.5 133.5q0 121 -70 179.5t-164 58.5q-52 0 -103 -19t-94 -55t-69.5 -95.5t-26.5 -133.5zM377 1565l24 239h779l-25 -239h-778zM840 1180l30 311h297l-37 -311h-290z" />
    <glyph glyph-name="Gcaron" unicode="&#x1e6;" horiz-adv-x="1572" 
d="M774 -20q-141 0 -265 47t-216.5 132t-146.5 212.5t-54 279.5q0 170 64.5 323t174 262.5t260.5 174t318 64.5q83 0 160.5 -16.5t154.5 -52.5t143.5 -102t113.5 -157l-248 -164q-113 188 -336 188q-202 0 -336.5 -140t-134.5 -343q0 -184 111 -298t286 -114
q79 0 145.5 23.5t123.5 82t86 148.5h-328l29 269h637q7 -151 -29 -283t-105.5 -229t-165 -167t-208.5 -105t-234 -35zM578 1772l143 133l182 -219l213 219l137 -133l-264 -261h-207z" />
    <glyph glyph-name="gcaron" unicode="&#x1e7;" 
d="M522 -426q-213 0 -303 64l29 253q34 -24 105 -38.5t145 -14.5q145 0 232.5 62t96.5 163l9 58h-15q-22 -40 -115 -90.5t-210 -50.5q-85 0 -165 31t-145 90t-104 153.5t-39 210.5q0 134 45.5 251t121 197t175.5 126t209 46q86 0 159 -28.5t108 -58.5t46 -54h11l14 121h317
l-102 -975q-9 -88 -36.5 -161.5t-65.5 -125.5t-88.5 -93t-103.5 -66t-112 -41.5t-112 -22.5t-107 -6zM358 504q0 -115 66 -178.5t168 -63.5q122 0 207.5 85t85.5 216q0 114 -65.5 177t-166.5 63q-122 0 -208.5 -87t-86.5 -212zM395 1382l144 134l182 -220l213 220l137 -134
l-264 -260h-207z" />
    <glyph glyph-name="uni01E8" unicode="&#x1e8;" horiz-adv-x="1341" 
d="M41 0l152 1454h323l-67 -645l536 645h358l-559 -647l478 -807h-340l-344 565l-175 -200l-38 -365h-324zM494 1772l143 133l182 -219l213 219l137 -133l-264 -261h-207z" />
    <glyph glyph-name="uni01E9" unicode="&#x1e9;" horiz-adv-x="1212" 
d="M41 0l152 1454h317l-86 -829l399 440h385l-473 -496l398 -569h-355l-248 356l-151 -157l-21 -199h-317zM49 1772l144 133l182 -219l213 219l137 -133l-264 -261h-207z" />
    <glyph glyph-name="uni0218" unicode="&#x218;" horiz-adv-x="1138" 
d="M530 -20q-192 0 -333.5 104t-167.5 270l274 123q22 -90 83.5 -147.5t162.5 -57.5q84 0 139 38.5t55 119.5q0 63 -39 103t-139 81l-69 29q-76 30 -132 63.5t-106 81t-76 112t-26 144.5q0 128 66.5 227t178 151.5t246.5 52.5q94 0 174.5 -26.5t137 -71.5t94.5 -98.5
t59 -113.5l-256 -135q-77 156 -219 156q-70 0 -116 -35.5t-46 -93.5q0 -51 42.5 -88.5t144.5 -79.5l88 -35q175 -72 253 -166.5t78 -236.5q0 -92 -33 -171t-87.5 -133t-126 -92.5t-149 -56.5t-155.5 -18zM115 -653l262 565h272l-264 -565h-270z" />
    <glyph glyph-name="uni0219" unicode="&#x219;" horiz-adv-x="915" 
d="M420 -20q-169 0 -282 78.5t-128 224.5l254 71q39 -125 160 -125q47 0 79 21.5t32 64.5q0 34 -20 55t-71 38l-129 49q-114 41 -169.5 116t-55.5 170q0 99 57.5 178t151 121.5t203.5 42.5q149 0 252 -77.5t120 -202.5l-249 -70q-36 101 -131 101q-46 0 -71.5 -19.5
t-25.5 -54.5q0 -54 72 -78l145 -57q234 -82 234 -295q0 -162 -121.5 -257t-306.5 -95zM4 -653l262 565h273l-265 -565h-270z" />
    <glyph glyph-name="uni021A" unicode="&#x21a;" horiz-adv-x="1077" 
d="M319 0l121 1157h-327l32 297h983l-30 -297h-334l-121 -1157h-324zM84 -653l262 565h272l-264 -565h-270z" />
    <glyph glyph-name="uni021B" unicode="&#x21b;" horiz-adv-x="798" 
d="M485 -12q-157 0 -239.5 82.5t-63.5 257.5l51 485h-159l26 252h158l29 272h317l-29 -272h224l-27 -252h-221l-45 -434q-5 -46 20.5 -78.5t91.5 -32.5q45 0 103 17l-27 -242q-55 -55 -209 -55zM92 -653l262 565h273l-265 -565h-270z" />
    <glyph glyph-name="uni0237" unicode="&#x237;" horiz-adv-x="516" 
d="M-283 -395l33 293h64q58 0 97 9t71.5 32.5t51 68t25.5 113.5l99 944h317l-102 -977q-26 -254 -162.5 -368.5t-411.5 -114.5h-82z" />
    <glyph glyph-name="uni0259" unicode="&#x259;" horiz-adv-x="1163" 
d="M604 1085q104 0 196.5 -33.5t164 -95.5t113.5 -160t42 -218q0 -167 -80 -304.5t-216 -215.5t-296 -78q-86 0 -165 24t-149.5 75t-113.5 130.5t-56 190.5t22 255h759q-26 84 -98 128t-176 44q-144 0 -264 -84l-121 152q78 87 190.5 138.5t247.5 51.5zM326 428
q9 -90 72.5 -136t154.5 -46q95 0 162.5 49.5t99.5 132.5h-489z" />
    <glyph glyph-name="uni02BC" unicode="&#x2bc;" horiz-adv-x="563" 
d="M82 889l262 565h272l-264 -565h-270z" />
    <glyph glyph-name="circumflex" unicode="&#x2c6;" horiz-adv-x="716" 
d="M231 1122l-137 133l264 261h207l205 -261l-143 -133l-183 219z" />
    <glyph glyph-name="caron" unicode="&#x2c7;" horiz-adv-x="716" 
d="M313 1122l-204 260l143 134l182 -220l213 220l137 -134l-264 -260h-207z" />
    <glyph glyph-name="breve" unicode="&#x2d8;" horiz-adv-x="704" 
d="M422 1178q-86 0 -150 29t-97.5 78t-46.5 107.5t-5 123.5h186q-7 -71 23.5 -119.5t109.5 -48.5t116 48t42 120h186q-6 -65 -30 -123t-66.5 -107.5t-111.5 -78.5t-156 -29z" />
    <glyph glyph-name="dotaccent" unicode="&#x2d9;" horiz-adv-x="356" 
d="M88 1180l31 311h317l-30 -311h-318z" />
    <glyph glyph-name="ring" unicode="&#x2da;" horiz-adv-x="528" 
d="M340 1186q-96 0 -160.5 66t-64.5 161q0 101 79 178.5t183 77.5q94 0 159.5 -66t65.5 -161q0 -100 -79.5 -178t-182.5 -78zM311 1430q0 -21 12 -33.5t33 -12.5q22 0 37 14t15 38q0 19 -14.5 31t-33.5 12q-21 0 -35 -14t-14 -35z" />
    <glyph glyph-name="ogonek" unicode="&#x2db;" horiz-adv-x="561" 
d="M340 -406q-49 -29 -120.5 -37t-139 6.5t-115 62.5t-47.5 122q0 53 26 98t72 77t101.5 55t122.5 38l266 -16q-305 -82 -305 -201q0 -52 53 -76t100 1z" />
    <glyph glyph-name="tilde" unicode="&#x2dc;" horiz-adv-x="776" 
d="M616 1188q-51 0 -96 25t-80.5 50t-62.5 25q-25 0 -47 -15.5t-23 -45.5h-213q10 126 76 195t158 69q52 0 98.5 -25.5t83 -51t63.5 -25.5q25 0 45 15.5t21 45.5h213q-10 -124 -77 -193t-159 -69z" />
    <glyph glyph-name="hungarumlaut" unicode="&#x2dd;" horiz-adv-x="845" 
d="M485 1192l185 324h258l-189 -324h-254zM90 1192l184 324h258l-188 -324h-254z" />
    <glyph glyph-name="gravecomb" unicode="&#x300;" horiz-adv-x="0" 
d="M311 1192l-188 324h258l184 -324h-254z" />
    <glyph glyph-name="acutecomb" unicode="&#x301;" horiz-adv-x="0" 
d="M90 1192l184 324h258l-188 -324h-254z" />
    <glyph glyph-name="uni0302" unicode="&#x302;" horiz-adv-x="0" 
d="M231 1122l-137 133l264 261h207l205 -261l-143 -133l-183 219z" />
    <glyph glyph-name="tildecomb" unicode="&#x303;" horiz-adv-x="0" 
d="M616 1188q-51 0 -96 25t-80.5 50t-62.5 25q-25 0 -47 -15.5t-23 -45.5h-213q10 126 76 195t158 69q52 0 98.5 -25.5t83 -51t63.5 -25.5q25 0 45 15.5t21 45.5h213q-10 -124 -77 -193t-159 -69z" />
    <glyph glyph-name="uni0304" unicode="&#x304;" horiz-adv-x="0" 
d="M88 1180l25 239h778l-25 -239h-778z" />
    <glyph glyph-name="uni0306" unicode="&#x306;" horiz-adv-x="0" 
d="M422 1178q-86 0 -150 29t-97.5 78t-46.5 107.5t-5 123.5h186q-7 -71 23.5 -119.5t109.5 -48.5t116 48t42 120h186q-6 -65 -30 -123t-66.5 -107.5t-111.5 -78.5t-156 -29z" />
    <glyph glyph-name="uni0307" unicode="&#x307;" horiz-adv-x="0" 
d="M88 1180l31 311h317l-30 -311h-318z" />
    <glyph glyph-name="uni0308" unicode="&#x308;" horiz-adv-x="0" 
d="M616 1180l31 311h297l-37 -311h-291zM88 1180l33 311h295l-35 -311h-293z" />
    <glyph glyph-name="hookabovecomb" unicode="&#x309;" horiz-adv-x="0" 
d="M309 1192l19 190h69q24 0 39 13.5t15 34.5q0 18 -12 28t-31 10t-33.5 -12.5t-18.5 -32.5l-149 111q28 61 87 98t130 37q95 0 162 -64t67 -159q0 -106 -80.5 -180t-191.5 -74h-72z" />
    <glyph glyph-name="uni030A" unicode="&#x30a;" horiz-adv-x="0" 
d="M340 1186q-96 0 -160.5 66t-64.5 161q0 101 79 178.5t183 77.5q94 0 159.5 -66t65.5 -161q0 -100 -79.5 -178t-182.5 -78zM311 1430q0 -21 12 -33.5t33 -12.5q22 0 37 14t15 38q0 19 -14.5 31t-33.5 12q-21 0 -35 -14t-14 -35z" />
    <glyph glyph-name="uni030B" unicode="&#x30b;" horiz-adv-x="0" 
d="M485 1192l185 324h258l-189 -324h-254zM90 1192l184 324h258l-188 -324h-254z" />
    <glyph glyph-name="uni030C" unicode="&#x30c;" horiz-adv-x="0" 
d="M313 1122l-204 260l143 134l182 -220l213 220l137 -134l-264 -260h-207z" />
    <glyph glyph-name="uni0312" unicode="&#x312;" horiz-adv-x="0" 
d="M90 1192l184 324h258l-188 -324h-254z" />
    <glyph glyph-name="uni031B" unicode="&#x31b;" horiz-adv-x="0" 
d="M158 1065l24 244h150q141 0 153 125l11 90h241l-16 -174q-15 -128 -116 -206.5t-255 -78.5h-192z" />
    <glyph glyph-name="dotbelowcomb" unicode="&#x323;" horiz-adv-x="0" 
d="M6 -389l27 262h256l-27 -262h-256z" />
    <glyph glyph-name="uni0326" unicode="&#x326;" horiz-adv-x="0" 
d="M-100 -653l262 565h272l-264 -565h-270z" />
    <glyph glyph-name="uni0327" unicode="&#x327;" horiz-adv-x="0" 
d="M-55 -369q42 -2 77.5 2t66 15t48 31.5t17.5 50.5q0 96 -185 75l-18 64l90 131h219l-57 -74q78 -3 124 -49.5t46 -116.5q0 -53 -27 -97.5t-71.5 -72.5t-102 -46t-117.5 -17t-118 14z" />
    <glyph glyph-name="uni0328" unicode="&#x328;" horiz-adv-x="0" 
d="M340 -406q-49 -29 -120.5 -37t-139 6.5t-115 62.5t-47.5 122q0 53 26 98t72 77t101.5 55t122.5 38l266 -16q-305 -82 -305 -201q0 -52 53 -76t100 1z" />
    <glyph glyph-name="uni0394" unicode="&#x394;" horiz-adv-x="1501" 
d="M-14 0l766 1434h67l463 -1434h-1296zM424 276h494l-179 642z" />
    <glyph glyph-name="uni03A9" unicode="&#x3a9;" horiz-adv-x="1572" 
d="M74 0l32 309h48l39 -20q-118 208 -93 454q16 151 91 285t183 224.5t238.5 143t257.5 52.5q106 0 208 -34t187 -100t147 -154t91 -204.5t15 -242.5q-29 -254 -175 -437l46 33h36l-32 -309h-496l33 354l61 49q78 60 132.5 149.5t66.5 190.5q11 92 -10.5 166t-68 120
t-110 70.5t-139.5 24.5q-80 0 -152.5 -26.5t-131.5 -76.5t-98 -129.5t-50 -178.5q-8 -91 23 -176t92 -142l55 -41l-33 -354h-493z" />
    <glyph glyph-name="uni03BC" unicode="&#x3bc;" horiz-adv-x="1247" 
d="M0 -389l154 1454h317l-61 -594q-13 -118 18 -164.5t107 -46.5q55 0 105.5 23.5t85.5 59t58 68t35 60.5l68 594h319l-112 -1065h-320l27 180q-14 -24 -40.5 -53t-69.5 -63.5t-106 -57t-132 -22.5q-39 0 -93 -33l-43 -340h-317z" />
    <glyph glyph-name="pi" unicode="&#x3c0;" horiz-adv-x="1538" 
d="M1096 -12q-48 0 -98 11.5t-97 35t-74.5 66.5t-21.5 98l63 589h-266l-84 -788h-323l84 788h-205l28 277h1321l-28 -277h-203l-45 -417q-7 -67 8 -87t57 -20q66 0 150 41l-19 -285q-68 -32 -247 -32z" />
    <glyph glyph-name="uni0400" unicode="&#x400;" horiz-adv-x="1021" 
d="M41 0l152 1454h841l-28 -297h-521l-28 -278h430l-29 -293h-432l-31 -289h535l-29 -297h-860zM295 1905h258l184 -324h-254z" />
    <glyph glyph-name="uni0401" unicode="&#x401;" horiz-adv-x="1021" 
d="M41 0l152 1454h841l-28 -297h-521l-28 -278h430l-29 -293h-432l-31 -289h535l-29 -297h-860zM219 1569l33 311h295l-35 -311h-293zM748 1569l30 311h297l-37 -311h-290z" />
    <glyph glyph-name="uni0403" unicode="&#x403;" horiz-adv-x="1060" 
d="M41 0l154 1454h907l-33 -297h-584l-120 -1157h-324zM571 1581l185 324h258l-189 -324h-254z" />
    <glyph glyph-name="uni0404" unicode="&#x404;" horiz-adv-x="1474" 
d="M776 -20q-191 0 -345.5 80.5t-246.5 235t-92 357.5q0 171 66.5 324t178 262t264 172.5t319.5 63.5q81 0 157 -16.5t152 -52.5t143 -102t113 -157l-248 -164q-120 184 -340 184q-151 0 -271 -83t-171 -220l325 2l-28 -276l-314 -4q30 -139 133.5 -219t245.5 -80
q107 0 195.5 45.5t169.5 138.5l215 -164q-66 -91 -144 -157t-159 -102t-159 -52t-159 -16z" />
    <glyph glyph-name="uni0405" unicode="&#x405;" horiz-adv-x="1138" 
d="M530 -20q-192 0 -333.5 104t-167.5 270l274 123q22 -90 83.5 -147.5t162.5 -57.5q84 0 139 38.5t55 119.5q0 63 -39 103t-139 81l-69 29q-76 30 -132 63.5t-106 81t-76 112t-26 144.5q0 128 66.5 227t178 151.5t246.5 52.5q94 0 174.5 -26.5t137 -71.5t94.5 -98.5
t59 -113.5l-256 -135q-77 156 -219 156q-70 0 -116 -35.5t-46 -93.5q0 -51 42.5 -88.5t144.5 -79.5l88 -35q175 -72 253 -166.5t78 -236.5q0 -92 -33 -171t-87.5 -133t-126 -92.5t-149 -56.5t-155.5 -18z" />
    <glyph glyph-name="uni0406" unicode="&#x406;" horiz-adv-x="518" 
d="M41 0l154 1454h323l-153 -1454h-324z" />
    <glyph glyph-name="uni0407" unicode="&#x407;" horiz-adv-x="518" 
d="M41 0l154 1454h323l-153 -1454h-324zM-35 1569l33 311h295l-35 -311h-293zM494 1569l30 311h297l-37 -311h-290z" />
    <glyph glyph-name="uni0408" unicode="&#x408;" horiz-adv-x="1089" 
d="M444 -20q-153 0 -270 62.5t-174 166.5l231 209q32 -51 85.5 -89t129.5 -38q22 0 41 2.5t52 16.5t57.5 38.5t46.5 75t29 119.5l94 911h324l-101 -956q-15 -141 -68.5 -245.5t-131.5 -162t-163.5 -84t-181.5 -26.5z" />
    <glyph glyph-name="uni040C" unicode="&#x40c;" horiz-adv-x="1341" 
d="M41 0l152 1454h323l-67 -645l536 645h358l-559 -647l478 -807h-340l-344 565l-175 -200l-38 -365h-324zM688 1581l184 324h258l-188 -324h-254z" />
    <glyph glyph-name="uni040D" unicode="&#x40d;" horiz-adv-x="1445" 
d="M41 0l154 1454h323l-98 -913l708 913h318l-154 -1454h-323l98 913l-715 -913h-311zM506 1905h258l184 -324h-254z" />
    <glyph glyph-name="uni040E" unicode="&#x40e;" horiz-adv-x="1458" 
d="M229 0l316 481l-414 973h348l273 -649l403 649h365l-930 -1454h-361zM549 1905h186q-7 -71 23.5 -119.5t109.5 -48.5t116 48t42 120h186q-6 -65 -30 -123t-66.5 -107.5t-111.5 -78.5t-156 -29q-86 0 -150 29t-97.5 78t-46.5 107.5t-5 123.5z" />
    <glyph glyph-name="uni0410" unicode="&#x410;" horiz-adv-x="1482" 
d="M1010 1454l393 -1454h-350l-56 231h-575l-105 -231h-348l699 1454h342zM559 530h365l-127 525z" />
    <glyph glyph-name="uni0411" unicode="&#x411;" horiz-adv-x="1214" 
d="M41 0l154 1454h895l-33 -297h-572l-18 -194h207q224 0 352.5 -118.5t128.5 -322.5q0 -233 -157 -377.5t-414 -144.5h-543zM397 297h172q119 0 189.5 50t70.5 159q0 180 -206 180h-185z" />
    <glyph glyph-name="uni0412" unicode="&#x412;" horiz-adv-x="1193" 
d="M41 0l152 1454h548q168 0 268.5 -89t100.5 -230q0 -81 -36 -151t-82 -109.5t-97 -61.5q100 -28 167.5 -114t67.5 -230q0 -206 -146 -337.5t-404 -131.5h-539zM393 283h195q117 0 171 56t54 146q0 166 -190 166h-191zM459 901h159q87 0 130 41.5t43 108.5q0 120 -148 120
h-156z" />
    <glyph glyph-name="uni0413" unicode="&#x413;" horiz-adv-x="1060" 
d="M41 0l154 1454h907l-33 -297h-584l-120 -1157h-324z" />
    <glyph glyph-name="uni0414" unicode="&#x414;" horiz-adv-x="1822" 
d="M322 0l-17 -141h-323l45 438h223q30 44 53.5 110t38 121.5t30 166t22 168t22.5 202.5l41 389h1145l-121 -1157h262l-45 -438h-324l17 141h-1069zM582 297h575l92 860h-497l-13 -92q-4 -30 -12 -100.5t-11.5 -99t-11 -89t-12 -88.5t-12.5 -78t-14.5 -77t-16.5 -66.5
t-19.5 -65t-21.5 -53.5t-26 -51z" />
    <glyph glyph-name="uni0415" unicode="&#x415;" horiz-adv-x="1021" 
d="M41 0l152 1454h841l-28 -297h-521l-28 -278h430l-29 -293h-432l-31 -289h535l-29 -297h-860z" />
    <glyph glyph-name="uni0416" unicode="&#x416;" horiz-adv-x="2312" 
d="M-31 0l682 829l-452 625h389l436 -614l68 614h331l-67 -614l563 614h403l-593 -625l503 -829h-364l-359 604l-194 -196l-45 -408h-332l45 408l-147 196l-478 -604h-389z" />
    <glyph glyph-name="uni0417" unicode="&#x417;" horiz-adv-x="1230" 
d="M549 -20q-241 0 -374 123.5t-109 342.5h335q-4 -49 13.5 -83t50 -50t64 -22t69.5 -6q96 0 155.5 43.5t59.5 132.5q0 80 -56 124.5t-194 45.5l23 235q118 7 173.5 49.5t55.5 122.5q0 68 -44.5 99.5t-104.5 31.5q-26 0 -51 -6.5t-50 -22.5t-42.5 -47t-22.5 -75h-336
q24 220 172.5 338.5t363.5 118.5q200 0 329.5 -99.5t129.5 -259.5q0 -133 -80 -232t-186 -120q34 3 76 -16.5t82 -57.5t67 -104t27 -144q0 -107 -49.5 -195.5t-132.5 -146t-190 -89t-224 -31.5z" />
    <glyph glyph-name="uni0418" unicode="&#x418;" horiz-adv-x="1445" 
d="M41 0l154 1454h323l-98 -913l708 913h318l-154 -1454h-323l98 913l-715 -913h-311z" />
    <glyph glyph-name="uni0419" unicode="&#x419;" horiz-adv-x="1445" 
d="M897 1546q-86 0 -150 29t-97.5 78t-46.5 107.5t-5 123.5h186q-7 -71 24 -119.5t110 -48.5t115.5 48t41.5 120h187q-6 -65 -30.5 -123t-67 -107.5t-111.5 -78.5t-156 -29zM41 0l154 1454h323l-98 -913l708 913h318l-154 -1454h-323l98 913l-715 -913h-311z" />
    <glyph glyph-name="uni041A" unicode="&#x41a;" horiz-adv-x="1341" 
d="M41 0l152 1454h323l-67 -645l536 645h358l-559 -647l478 -807h-340l-344 565l-175 -200l-38 -365h-324z" />
    <glyph glyph-name="uni041B" unicode="&#x41b;" horiz-adv-x="1505" 
d="M170 -12q-143 0 -201 43l25 258q73 -25 123 -25q56 0 82 30t30 66l115 1094h1161l-151 -1454h-324l123 1157h-514l-88 -803q-10 -91 -36.5 -158t-60.5 -106.5t-82.5 -62.5t-95.5 -31t-106 -8z" />
    <glyph glyph-name="uni041C" unicode="&#x41c;" horiz-adv-x="1720" 
d="M41 0l154 1454h321l336 -1014l543 1014h325l-153 -1454h-324l74 737l-363 -737h-280l-230 733l-79 -733h-324z" />
    <glyph glyph-name="uni041D" unicode="&#x41d;" horiz-adv-x="1386" 
d="M911 0l60 569h-549l-60 -569h-323l154 1454h323l-61 -586h549l61 586h324l-154 -1454h-324z" />
    <glyph glyph-name="uni041E" unicode="&#x41e;" horiz-adv-x="1667" 
d="M780 -20q-195 0 -350.5 80.5t-246.5 234.5t-91 356q0 171 67 324.5t179.5 262.5t266.5 173t323 64q145 0 271.5 -47.5t218.5 -133t145 -212.5t53 -279q0 -171 -67.5 -324.5t-180.5 -262t-266.5 -172.5t-321.5 -64zM426 684q0 -181 108.5 -289t278.5 -108
q196 0 333.5 139.5t137.5 343.5q0 181 -109 289t-278 108q-197 0 -334 -139t-137 -344z" />
    <glyph glyph-name="uni041F" unicode="&#x41f;" horiz-adv-x="1406" 
d="M41 0l154 1454h1212l-154 -1454h-323l121 1157h-566l-120 -1157h-324z" />
    <glyph glyph-name="uni0420" unicode="&#x420;" horiz-adv-x="1210" 
d="M39 0l154 1454h532q221 0 348.5 -122t126.5 -335q0 -159 -74.5 -283.5t-206.5 -193.5t-298 -69h-209l-50 -451h-323zM442 748h176q254 0 254 217q1 102 -52.5 147t-153.5 45h-179z" />
    <glyph glyph-name="uni0421" unicode="&#x421;" horiz-adv-x="1474" 
d="M776 -20q-191 0 -345.5 80.5t-246.5 235t-92 357.5q0 171 66.5 324t178 262t264 172.5t319.5 63.5q81 0 157 -16.5t152 -52.5t143 -102t113 -157l-248 -164q-120 184 -340 184q-198 0 -334.5 -134.5t-136.5 -338.5q0 -186 111 -296.5t280 -110.5q107 0 195.5 45.5
t169.5 138.5l215 -164q-66 -91 -144 -157t-159 -102t-159 -52t-159 -16z" />
    <glyph glyph-name="uni0422" unicode="&#x422;" horiz-adv-x="1077" 
d="M319 0l121 1157h-327l32 297h983l-30 -297h-334l-121 -1157h-324z" />
    <glyph glyph-name="uni0423" unicode="&#x423;" horiz-adv-x="1458" 
d="M229 0l316 481l-414 973h348l273 -649l403 649h365l-930 -1454h-361z" />
    <glyph glyph-name="uni0424" unicode="&#x424;" horiz-adv-x="1757" 
d="M659 0l15 145q-293 18 -446.5 160t-153.5 373q0 182 94 321.5t256 217t373 92.5l14 145h324l-15 -145q294 -17 449 -159.5t155 -373.5q0 -185 -94.5 -325.5t-257.5 -217t-375 -88.5l-14 -145h-324zM401 698q0 -57 12.5 -100t44 -82t93.5 -63t154 -31l61 610
q-365 -28 -365 -334zM1026 422q188 14 281.5 96t93.5 242q0 57 -12 99.5t-43.5 81t-95 61.5t-158.5 30z" />
    <glyph glyph-name="uni0425" unicode="&#x425;" horiz-adv-x="1386" 
d="M-31 0l559 733l-397 721h375l235 -440l326 440h389l-547 -721l398 -733h-373l-240 453l-336 -453h-389z" />
    <glyph glyph-name="uni0426" unicode="&#x426;" horiz-adv-x="1687" 
d="M1255 -141l15 141h-1229l154 1454h323l-121 -1157h582l121 1157h323l-120 -1157h325l-47 -438h-326z" />
    <glyph glyph-name="uni0427" unicode="&#x427;" horiz-adv-x="1308" 
d="M508 358q-94 0 -174.5 29t-141.5 86t-90 152.5t-16 218.5l66 610h323l-57 -555q-6 -67 10 -117.5t49.5 -79t75.5 -42t92 -13.5q67 0 123 21t100.5 74.5t57.5 134.5l59 577h324l-152 -1454h-323l55 522q-60 -71 -157.5 -117.5t-223.5 -46.5z" />
    <glyph glyph-name="uni0428" unicode="&#x428;" horiz-adv-x="2078" 
d="M41 0l154 1454h323l-121 -1157h457l121 1157h323l-120 -1157h456l121 1157h324l-154 -1454h-1884z" />
    <glyph glyph-name="uni0429" unicode="&#x429;" horiz-adv-x="2338" 
d="M1911 -141l14 141h-1884l154 1454h323l-121 -1157h457l121 1157h323l-120 -1157h456l121 1157h324l-121 -1157h321l-47 -438h-321z" />
    <glyph glyph-name="uni042A" unicode="&#x42a;" horiz-adv-x="1400" 
d="M229 0l123 1157h-284l32 297h607l-52 -491h197q226 0 357.5 -115.5t131.5 -319.5q0 -230 -161.5 -379t-417.5 -149h-533zM586 297h170q117 0 188.5 53t71.5 158q0 178 -207 178h-182z" />
    <glyph glyph-name="uni042B" unicode="&#x42b;" horiz-adv-x="1773" 
d="M41 0l154 1454h323l-51 -491h197q226 0 357.5 -115.5t131.5 -319.5q0 -230 -162 -379t-418 -149h-532zM397 297h170q117 0 188.5 53t71.5 158q0 178 -206 178h-183zM1296 0l154 1454h324l-154 -1454h-324z" />
    <glyph glyph-name="uni042C" unicode="&#x42c;" horiz-adv-x="1212" 
d="M41 0l154 1454h323l-51 -491h197q226 0 357.5 -115.5t131.5 -319.5q0 -230 -162 -379t-418 -149h-532zM397 297h170q117 0 188.5 53t71.5 158q0 178 -206 178h-183z" />
    <glyph glyph-name="uni042D" unicode="&#x42d;" horiz-adv-x="1472" 
d="M629 -20q-84 0 -163.5 17t-157 53t-143.5 102t-110 155l246 162q53 -91 142.5 -138.5t201.5 -47.5q151 0 265.5 85.5t162.5 225.5l-317 -4l28 276l312 4q-26 143 -125.5 222t-239.5 79q-224 0 -375 -196l-217 172q62 90 140.5 156t162 102.5t164.5 53t164 16.5
q141 0 264 -47t213.5 -132t142.5 -212.5t52 -280.5q0 -170 -63.5 -322.5t-172 -262.5t-259 -174t-318.5 -64z" />
    <glyph glyph-name="uni042E" unicode="&#x42e;" horiz-adv-x="2203" 
d="M41 0l154 1454h323l-63 -594l198 -2q46 178 163.5 318.5t286.5 219.5t359 79q145 0 271.5 -47.5t218.5 -133t145 -212.5t53 -279q0 -171 -67 -324.5t-180 -262t-266.5 -172.5t-321.5 -64q-183 0 -332.5 72t-243.5 209.5t-110 320.5l-203 2l-61 -584h-324zM961 684
q0 -181 108.5 -289t278.5 -108q196 0 333.5 139.5t137.5 343.5q0 181 -109 289t-278 108q-197 0 -334 -139t-137 -344z" />
    <glyph glyph-name="uni042F" unicode="&#x42f;" horiz-adv-x="1331" 
d="M428 551q-213 121 -213 381q0 227 160 374.5t409 147.5h547l-153 -1454h-324l51 492h-190l-346 -492h-349zM537 948q0 -92 48.5 -136t151.5 -44h197l41 389h-205q-115 0 -174 -53.5t-59 -155.5z" />
    <glyph glyph-name="uni0430" unicode="&#x430;" 
d="M496 -20q-87 0 -167.5 32t-144.5 92t-102.5 155t-38.5 212q0 167 72.5 308t200.5 223.5t282 82.5q68 0 126.5 -16t95 -40t58 -46t29.5 -39h11l14 121h317l-110 -1065h-318l15 121h-15q-21 -41 -114.5 -91t-210.5 -50zM358 500q0 -63 21 -111t56.5 -74.5t75 -39.5
t81.5 -13q52 0 103 19t94 55t69.5 95.5t26.5 133.5q0 121 -70 179.5t-164 58.5q-52 0 -103 -19t-94 -55t-69.5 -95.5t-26.5 -133.5z" />
    <glyph glyph-name="uni0431" unicode="&#x431;" horiz-adv-x="1263" 
d="M670 -20q-129 0 -207 47.5t-86 89.5l-19 -117h-317l113 1075q20 184 121 271.5t298 87.5h177q68 0 96.5 10.5t52.5 34.5h315q-50 -176 -143.5 -242t-279.5 -66h-193q-48 0 -86.5 -27t-42.5 -81l-10 -94q25 32 107 73t194 41q88 0 169 -31.5t147 -91t105.5 -156
t39.5 -216.5q0 -129 -44 -243t-119 -193.5t-176 -125.5t-212 -46zM399 500q0 -118 65 -179t163 -61q51 0 99 16.5t91 50t69.5 94t26.5 140.5q0 122 -63 182t-164 60q-128 0 -207.5 -88.5t-79.5 -214.5z" />
    <glyph glyph-name="uni0432" unicode="&#x432;" horiz-adv-x="1208" 
d="M41 0l113 1065h587q169 0 262 -66t93 -190q0 -145 -146 -223q95 -39 139 -100.5t44 -149.5q0 -87 -41 -153t-113.5 -105.5t-162.5 -58.5t-195 -19h-580zM387 260h291q67 0 100 24.5t33 65.5q0 15 -2.5 25.5t-12 26t-35 24t-65.5 8.5h-290zM432 674h246q30 0 50.5 8t29 20
t13 24t3.5 20v8q0 11 -4 21t-22 20t-48 10h-254z" />
    <glyph glyph-name="uni0433" unicode="&#x433;" horiz-adv-x="1015" 
d="M41 0l113 1065h835l-28 -277h-519l-84 -788h-317z" />
    <glyph glyph-name="uni0434" unicode="&#x434;" horiz-adv-x="1503" 
d="M-10 -104l39 380l143 7q42 60 70.5 146t38.5 148t20 146q1 14 2 20l35 322h999l-84 -789h168l-39 -380h-317l10 104h-758l-10 -104h-317zM483 270l453 6l55 512h-364l-6 -57q-6 -63 -12.5 -110t-21 -114.5t-41 -128t-63.5 -108.5z" />
    <glyph glyph-name="uni0435" unicode="&#x435;" horiz-adv-x="1163" 
d="M559 -20q-104 0 -196.5 33.5t-164 95.5t-113.5 160t-42 218q0 167 80 304.5t216 215.5t296 78q86 0 165 -24t149.5 -75t113.5 -130.5t56.5 -190.5t-21.5 -255h-760q26 -84 98 -128t176 -44q145 0 265 84l120 -152q-78 -87 -190.5 -138.5t-247.5 -51.5zM348 637h490
q-9 90 -73 136t-155 46q-95 0 -162.5 -49.5t-99.5 -132.5z" />
    <glyph glyph-name="uni0436" unicode="&#x436;" horiz-adv-x="1990" 
d="M-4 0l545 629l-348 436h389l282 -375l39 375h318l-39 -383l368 383h389l-438 -434l410 -631h-379l-254 408l-139 -138l-29 -270h-317l28 279l-104 131l-342 -410h-379z" />
    <glyph glyph-name="uni0437" unicode="&#x437;" horiz-adv-x="1089" 
d="M487 -20q-208 0 -328.5 105t-99.5 288h293q-6 -58 35 -96.5t127 -38.5q75 0 124.5 31t49.5 81q0 52 -54 81.5t-159 29.5l21 196q30 1 46 2.5t40 4.5t37 8.5t26.5 15t19 24t5.5 33.5q0 76 -111 76q-58 0 -89 -21.5t-34 -56.5h-301q18 156 139 248t324 92q184 0 286.5 -74
t102.5 -188q0 -92 -65 -160t-158 -88q26 -4 50 -10t59 -23t60 -40.5t43.5 -64.5t18.5 -93q0 -108 -73 -192.5t-187.5 -127t-247.5 -42.5z" />
    <glyph glyph-name="uni0438" unicode="&#x438;" horiz-adv-x="1230" 
d="M41 0l111 1065h317l-63 -606l466 606h318l-111 -1065h-317l63 606l-467 -606h-317z" />
    <glyph glyph-name="uni0439" unicode="&#x439;" horiz-adv-x="1230" 
d="M41 0l111 1065h317l-63 -606l466 606h318l-111 -1065h-317l63 606l-467 -606h-317zM369 1516h186q-7 -71 23.5 -119.5t109.5 -48.5t116 48t42 120h186q-6 -65 -30 -123t-66.5 -107.5t-111.5 -78.5t-156 -29q-86 0 -150 29t-97.5 78t-46.5 107.5t-5 123.5z" />
    <glyph glyph-name="uni043A" unicode="&#x43a;" horiz-adv-x="1239" 
d="M41 0l111 1065h317l-39 -383l369 383h389l-438 -434l409 -631h-379l-254 408l-139 -138l-29 -270h-317z" />
    <glyph glyph-name="uni043B" unicode="&#x43b;" horiz-adv-x="1376" 
d="M178 -12q-121 0 -209 39l25 247q37 -12 106 -12q59 0 87 28.5t32 67.5l72 707h1044l-112 -1065h-318l84 788h-407l-47 -421q-10 -96 -33.5 -165.5t-55 -110t-77 -64.5t-89.5 -31.5t-102 -7.5z" />
    <glyph glyph-name="uni043C" unicode="&#x43c;" horiz-adv-x="1486" 
d="M41 0l111 1065h354l227 -639l357 639h356l-111 -1065h-317l51 506l-260 -506h-227l-172 506l-52 -506h-317z" />
    <glyph glyph-name="uni043D" unicode="&#x43d;" horiz-adv-x="1206" 
d="M41 0l113 1065h317l-43 -416h375l43 416h319l-112 -1065h-320l41 373h-375l-41 -373h-317z" />
    <glyph glyph-name="uni043E" unicode="&#x43e;" horiz-adv-x="1214" 
d="M561 -20q-90 0 -179.5 32t-165.5 92.5t-123.5 160t-47.5 222.5q0 168 83 306t222.5 215t304.5 77q72 0 144 -19.5t139.5 -61.5t119 -100.5t82.5 -143.5t31 -185q0 -167 -83 -304.5t-222.5 -214t-304.5 -76.5zM352 498q0 -112 69 -175t157 -63q120 0 203 82.5t83 222.5
q0 113 -68.5 176.5t-156.5 63.5q-121 0 -204 -83t-83 -224z" />
    <glyph glyph-name="uni043F" unicode="&#x43f;" horiz-adv-x="1249" 
d="M41 0l113 1065h1054l-112 -1065h-318l84 788h-420l-84 -788h-317z" />
    <glyph glyph-name="uni0440" unicode="&#x440;" horiz-adv-x="1286" 
d="M0 -389l152 1454h317l-12 -121h10q14 18 41 39t68.5 45.5t102 40.5t124.5 16q86 0 164.5 -30.5t141.5 -88.5t100.5 -152.5t37.5 -211.5q0 -168 -70.5 -311t-195 -227t-274.5 -84q-125 0 -212.5 49t-109.5 92h-12l-58 -510h-315zM406 496q0 -116 66.5 -175t160.5 -59
q51 0 101.5 18t96 53t73.5 96.5t28 139.5q0 116 -66.5 175t-160.5 59q-51 0 -101.5 -18t-96 -53t-73.5 -96.5t-28 -139.5z" />
    <glyph glyph-name="uni0441" unicode="&#x441;" horiz-adv-x="1118" 
d="M567 -20q-104 0 -197.5 32t-167 92t-116.5 155.5t-43 213.5q0 174 84 315t225 219t307 78q151 0 268.5 -67.5t176.5 -194.5l-246 -149q-77 125 -221 125q-112 0 -195.5 -80.5t-83.5 -208.5q0 -110 66.5 -177t167.5 -67q70 0 131.5 34.5t103.5 90.5l215 -149
q-175 -262 -475 -262z" />
    <glyph glyph-name="uni0442" unicode="&#x442;" horiz-adv-x="968" 
d="M266 0l84 788h-272l28 277h865l-29 -277h-274l-84 -788h-318z" />
    <glyph glyph-name="uni0443" unicode="&#x443;" horiz-adv-x="1236" 
d="M193 -389l217 409l-330 1045h323l197 -690l340 690h328l-760 -1454h-315z" />
    <glyph glyph-name="uni0444" unicode="&#x444;" horiz-adv-x="2072" 
d="M780 -389l56 510h-13q-21 -42 -112.5 -91.5t-214.5 -49.5q-87 0 -166.5 30t-145 88t-104.5 153.5t-39 215.5q0 166 73.5 307.5t205.5 226t292 84.5q122 0 203 -50t92 -91h13l57 541h319l-59 -541h12q21 42 113 91.5t215 49.5q69 0 134 -18.5t123.5 -57.5t102.5 -94
t69.5 -135t25.5 -174q0 -169 -74 -312.5t-206 -228.5t-292 -85q-122 0 -203 50t-92 91h-12l-53 -510h-320zM356 506q0 -115 68.5 -179.5t167.5 -64.5q36 0 72.5 8t76 29.5t69.5 54t49.5 85.5t19.5 120q0 117 -64.5 180.5t-165.5 63.5q-35 0 -71.5 -8t-77 -29t-72 -53
t-52 -86t-20.5 -121zM1194 506q0 -117 64 -180.5t165 -63.5q35 0 71.5 8t77 29t72 53t52 86t20.5 121q0 115 -68 179.5t-167 64.5q-36 0 -72.5 -8t-76 -29.5t-69.5 -54t-49.5 -85.5t-19.5 -120z" />
    <glyph glyph-name="uni0445" unicode="&#x445;" horiz-adv-x="1204" 
d="M-41 0l465 547l-305 518h354l156 -289l217 289h366l-421 -518l344 -547h-359l-186 315l-258 -315h-373z" />
    <glyph glyph-name="uni0446" unicode="&#x446;" 
d="M866 -141l15 141h-840l113 1065h317l-84 -789h377l84 789h317l-84 -789h146l-43 -417h-318z" />
    <glyph glyph-name="uni0447" unicode="&#x447;" horiz-adv-x="1251" 
d="M494 229q-90 0 -162.5 23.5t-128 74t-80.5 138t-12 205.5l41 395h317l-37 -369q-10 -90 43.5 -138t138.5 -48q82 0 151 43t87 121l41 391h317l-110 -1065h-318l37 348q-119 -119 -325 -119z" />
    <glyph glyph-name="uni0448" unicode="&#x448;" horiz-adv-x="1705" 
d="M41 0l113 1065h317l-84 -789h279l84 789h317l-84 -789h279l84 789h319l-113 -1065h-1511z" />
    <glyph glyph-name="uni0449" unicode="&#x449;" horiz-adv-x="1787" 
d="M1364 -141l14 141h-1337l113 1065h317l-84 -789h279l84 789h317l-84 -789h279l84 789h319l-84 -789h143l-43 -417h-317z" />
    <glyph glyph-name="uni044A" unicode="&#x44a;" horiz-adv-x="1247" 
d="M25 788l28 277h502l-39 -373h350q144 0 231 -84.5t87 -232.5q0 -170 -112.5 -272.5t-278.5 -102.5h-666l82 788h-184zM473 276h303q96 0 96 72q0 68 -81 68h-304z" />
    <glyph glyph-name="uni044B" unicode="&#x44b;" horiz-adv-x="1675" 
d="M1204 0l113 1065h317l-112 -1065h-318zM41 0l111 1065h317l-39 -373h350q144 0 231 -84.5t87 -232.5q0 -170 -112.5 -272.5t-278.5 -102.5h-666zM387 276h303q96 0 96 72q0 68 -81 68h-304z" />
    <glyph glyph-name="uni044C" unicode="&#x44c;" horiz-adv-x="1161" 
d="M41 0l111 1065h317l-39 -373h350q144 0 231 -84.5t87 -232.5q0 -170 -112.5 -272.5t-278.5 -102.5h-666zM387 276h303q96 0 96 72q0 68 -81 68h-304z" />
    <glyph glyph-name="uni044D" unicode="&#x44d;" horiz-adv-x="1107" 
d="M457 -16q-149 0 -262.5 64.5t-176.5 191.5l250 102q30 -37 85.5 -57.5t121.5 -20.5q91 0 158 40t102 116l-239 -6l22 217l244 6q-18 81 -77 123.5t-144 42.5q-120 0 -226 -94l-239 125q86 124 211 186.5t264 62.5q98 0 188 -31t164 -90.5t118 -156t44 -217.5
q0 -168 -80.5 -307t-220 -218t-307.5 -79z" />
    <glyph glyph-name="uni044E" unicode="&#x44e;" horiz-adv-x="1744" 
d="M41 0l113 1065h317l-39 -391h172q60 184 220.5 297.5t361.5 113.5q72 0 144 -19.5t139.5 -61.5t119 -100.5t82.5 -143.5t31 -185q0 -167 -83 -304.5t-222.5 -214t-304.5 -76.5q-108 0 -211 42.5t-186.5 135.5t-108.5 221h-187l-41 -379h-317zM883 498q0 -112 68.5 -175
t156.5 -63q121 0 204 82.5t83 222.5q0 113 -69 176.5t-157 63.5q-121 0 -203.5 -83t-82.5 -224z" />
    <glyph glyph-name="uni044F" unicode="&#x44f;" horiz-adv-x="1236" 
d="M20 0l304 305q-104 35 -162 118.5t-58 209.5q0 192 129.5 312t323.5 120h639l-111 -1065h-317l29 283h-135l-281 -283h-361zM414 664q0 -51 29.5 -78t82.5 -27h299l25 229h-299q-60 0 -98.5 -33t-38.5 -91z" />
    <glyph glyph-name="uni0450" unicode="&#x450;" horiz-adv-x="1163" 
d="M559 -20q-104 0 -196.5 33.5t-164 95.5t-113.5 160t-42 218q0 167 80 304.5t216 215.5t296 78q86 0 165 -24t149.5 -75t113.5 -130.5t56.5 -190.5t-21.5 -255h-760q26 -84 98 -128t176 -44q145 0 265 84l120 -152q-78 -87 -190.5 -138.5t-247.5 -51.5zM299 1516h258
l184 -324h-254zM348 637h490q-9 90 -73 136t-155 46q-95 0 -162.5 -49.5t-99.5 -132.5z" />
    <glyph glyph-name="uni0451" unicode="&#x451;" horiz-adv-x="1163" 
d="M559 -20q-104 0 -196.5 33.5t-164 95.5t-113.5 160t-42 218q0 167 80 304.5t216 215.5t296 78q86 0 165 -24t149.5 -75t113.5 -130.5t56.5 -190.5t-21.5 -255h-760q26 -84 98 -128t176 -44q145 0 265 84l120 -152q-78 -87 -190.5 -138.5t-247.5 -51.5zM238 1180l32 311
h295l-35 -311h-292zM348 637h490q-9 90 -73 136t-155 46q-95 0 -162.5 -49.5t-99.5 -132.5zM766 1180l31 311h297l-37 -311h-291z" />
    <glyph glyph-name="uni0453" unicode="&#x453;" horiz-adv-x="1038" 
d="M41 0l113 1065h858l-29 -277h-541l-84 -788h-317zM457 1169l161 265h388l-299 -265h-250z" />
    <glyph glyph-name="uni0454" unicode="&#x454;" horiz-adv-x="1112" 
d="M561 -16q-77 0 -150.5 17.5t-140.5 55.5t-117 93t-80 136t-30 179q0 170 77 311t217 224t314 83q150 0 262.5 -66t173.5 -194l-243 -102q-42 42 -85 62t-110 20q-188 0 -278 -178l241 6l-22 -217l-236 -6q31 -74 85.5 -109t140.5 -35q70 0 120 23t105 67l231 -125
q-178 -245 -475 -245z" />
    <glyph glyph-name="uni0455" unicode="&#x455;" horiz-adv-x="915" 
d="M420 -20q-169 0 -282 78.5t-128 224.5l254 71q39 -125 160 -125q47 0 79 21.5t32 64.5q0 34 -20 55t-71 38l-129 49q-114 41 -169.5 116t-55.5 170q0 99 57.5 178t151 121.5t203.5 42.5q149 0 252 -77.5t120 -202.5l-249 -70q-36 101 -131 101q-46 0 -71.5 -19.5
t-25.5 -54.5q0 -54 72 -78l145 -57q234 -82 234 -295q0 -162 -121.5 -257t-306.5 -95z" />
    <glyph glyph-name="uni0456" unicode="&#x456;" horiz-adv-x="507" 
d="M41 0l111 1065h317l-111 -1065h-317zM164 1178l26 276h318l-27 -276h-317z" />
    <glyph glyph-name="uni0457" unicode="&#x457;" horiz-adv-x="512" 
d="M41 0l113 1065h317l-113 -1065h-317zM-80 1180l33 311h295l-35 -311h-293zM449 1180l30 311h297l-37 -311h-290z" />
    <glyph glyph-name="uni0458" unicode="&#x458;" horiz-adv-x="516" 
d="M-283 -395l33 293h64q58 0 97 9t71.5 32.5t51 68t25.5 113.5l99 944h317l-102 -977q-26 -254 -162.5 -368.5t-411.5 -114.5h-82zM172 1178l27 276h317l-27 -276h-317z" />
    <glyph glyph-name="uni045C" unicode="&#x45c;" horiz-adv-x="1239" 
d="M41 0l111 1065h317l-39 -383l369 383h389l-438 -434l409 -631h-379l-254 408l-139 -138l-29 -270h-317zM545 1192l184 324h258l-188 -324h-254z" />
    <glyph glyph-name="uni045E" unicode="&#x45e;" horiz-adv-x="1236" 
d="M193 -389l217 409l-330 1045h323l197 -690l340 690h328l-760 -1454h-315zM315 1516h187q-7 -71 23.5 -119.5t109.5 -48.5t116 48t42 120h186q-6 -65 -30.5 -123t-67 -107.5t-111.5 -78.5t-156 -29q-86 0 -150 29t-97.5 78t-46.5 107.5t-5 123.5z" />
    <glyph glyph-name="uni0490" unicode="&#x490;" horiz-adv-x="1062" 
d="M485 1157l-120 -1157h-324l154 1454h585l11 96h323l-45 -393h-584z" />
    <glyph glyph-name="uni0491" unicode="&#x491;" horiz-adv-x="1015" 
d="M41 0l113 1065h518l10 94h317l-38 -371h-519l-84 -788h-317z" />
    <glyph glyph-name="uni04C0" unicode="&#x4c0;" horiz-adv-x="518" 
d="M41 0l154 1454h323l-153 -1454h-324z" />
    <glyph glyph-name="uni04CF" unicode="&#x4cf;" horiz-adv-x="509" 
d="M41 0l152 1454h317l-152 -1454h-317z" />
    <glyph glyph-name="uni04E2" unicode="&#x4e2;" horiz-adv-x="1445" 
d="M41 0l154 1454h323l-98 -913l708 913h318l-154 -1454h-323l98 913l-715 -913h-311zM446 1569l25 239h778l-24 -239h-779z" />
    <glyph glyph-name="uni04E3" unicode="&#x4e3;" horiz-adv-x="1230" 
d="M41 0l111 1065h317l-63 -606l466 606h318l-111 -1065h-317l63 606l-467 -606h-317zM297 1180l25 239h778l-25 -239h-778z" />
    <glyph glyph-name="uni1E04" unicode="&#x1e04;" horiz-adv-x="1193" 
d="M41 0l152 1454h548q168 0 268.5 -89t100.5 -230q0 -81 -36 -151t-82 -109.5t-97 -61.5q100 -28 167.5 -114t67.5 -230q0 -206 -146 -337.5t-404 -131.5h-539zM373 -389l26 262h256l-26 -262h-256zM393 283h195q117 0 171 56t54 146q0 166 -190 166h-191zM459 901h159
q87 0 130 41.5t43 108.5q0 120 -148 120h-156z" />
    <glyph glyph-name="uni1E05" unicode="&#x1e05;" horiz-adv-x="1286" 
d="M707 -20q-125 0 -212.5 49t-109.5 92h-12l-15 -121h-317l152 1454h317l-53 -510h10q14 18 41 39t68.5 45.5t102 40.5t124.5 16q86 0 164.5 -30.5t141.5 -88.5t100.5 -152.5t37.5 -211.5q0 -168 -70.5 -311t-195 -227t-274.5 -84zM406 496q0 -116 66.5 -175t160.5 -59
q51 0 101.5 18t96 53t73.5 96.5t28 139.5q0 116 -66.5 175t-160.5 59q-51 0 -101.5 -18t-96 -53t-73.5 -96.5t-28 -139.5zM418 -389l26 262h256l-26 -262h-256z" />
    <glyph glyph-name="uni1E0C" unicode="&#x1e0c;" horiz-adv-x="1413" 
d="M41 0l152 1454h546q179 0 325.5 -86t231 -241.5t84.5 -350.5q0 -161 -62.5 -305.5t-167.5 -247.5t-249 -163t-301 -60h-559zM397 305h211q197 0 316.5 132.5t119.5 330.5q0 172 -92 276.5t-258 104.5h-211zM475 -389l27 262h256l-27 -262h-256z" />
    <glyph glyph-name="uni1E0D" unicode="&#x1e0d;" 
d="M496 -20q-87 0 -167.5 32t-144.5 92t-102.5 155t-38.5 212q0 167 72.5 308t200.5 223.5t282 82.5q68 0 126.5 -16t95 -40t58 -46t29.5 -39h11l55 510h317l-151 -1454h-318l15 121h-15q-21 -41 -114.5 -91t-210.5 -50zM358 500q0 -63 21 -111t56.5 -74.5t75 -39.5
t81.5 -13q52 0 103 19t94 55t69.5 95.5t26.5 133.5q0 121 -70 179.5t-164 58.5q-52 0 -103 -19t-94 -55t-69.5 -95.5t-26.5 -133.5zM422 -389l27 262h256l-27 -262h-256z" />
    <glyph glyph-name="uni1E20" unicode="&#x1e20;" horiz-adv-x="1572" 
d="M774 -20q-141 0 -265 47t-216.5 132t-146.5 212.5t-54 279.5q0 170 64.5 323t174 262.5t260.5 174t318 64.5q83 0 160.5 -16.5t154.5 -52.5t143.5 -102t113.5 -157l-248 -164q-113 188 -336 188q-202 0 -336.5 -140t-134.5 -343q0 -184 111 -298t286 -114
q79 0 145.5 23.5t123.5 82t86 148.5h-328l29 269h637q7 -151 -29 -283t-105.5 -229t-165 -167t-208.5 -105t-234 -35zM508 1569l24 239h779l-25 -239h-778z" />
    <glyph glyph-name="uni1E21" unicode="&#x1e21;" 
d="M522 -426q-213 0 -303 64l29 253q34 -24 105 -38.5t145 -14.5q145 0 232.5 62t96.5 163l9 58h-15q-22 -40 -115 -90.5t-210 -50.5q-85 0 -165 31t-145 90t-104 153.5t-39 210.5q0 134 45.5 251t121 197t175.5 126t209 46q86 0 159 -28.5t108 -58.5t46 -54h11l14 121h317
l-102 -975q-9 -88 -36.5 -161.5t-65.5 -125.5t-88.5 -93t-103.5 -66t-112 -41.5t-112 -22.5t-107 -6zM328 1180l24 239h778l-24 -239h-778zM358 504q0 -115 66 -178.5t168 -63.5q122 0 207.5 85t85.5 216q0 114 -65.5 177t-166.5 63q-122 0 -208.5 -87t-86.5 -212z" />
    <glyph glyph-name="uni1E24" unicode="&#x1e24;" horiz-adv-x="1386" 
d="M911 0l60 569h-549l-60 -569h-323l154 1454h323l-61 -586h549l61 586h324l-154 -1454h-324zM469 -389l27 262h256l-27 -262h-256z" />
    <glyph glyph-name="uni1E25" unicode="&#x1e25;" horiz-adv-x="1222" 
d="M41 0l156 1454h317l-57 -520q117 151 323 151q83 0 151 -26.5t119.5 -79.5t75 -143.5t11.5 -208.5l-66 -627h-317l59 571q12 103 -34.5 167.5t-143.5 64.5q-99 0 -151.5 -62.5t-65.5 -169.5l-60 -571h-317zM387 -389l27 262h256l-27 -262h-256z" />
    <glyph glyph-name="uni1E62" unicode="&#x1e62;" horiz-adv-x="1138" 
d="M530 -20q-192 0 -333.5 104t-167.5 270l274 123q22 -90 83.5 -147.5t162.5 -57.5q84 0 139 38.5t55 119.5q0 63 -39 103t-139 81l-69 29q-76 30 -132 63.5t-106 81t-76 112t-26 144.5q0 128 66.5 227t178 151.5t246.5 52.5q94 0 174.5 -26.5t137 -71.5t94.5 -98.5
t59 -113.5l-256 -135q-77 156 -219 156q-70 0 -116 -35.5t-46 -93.5q0 -51 42.5 -88.5t144.5 -79.5l88 -35q175 -72 253 -166.5t78 -236.5q0 -92 -33 -171t-87.5 -133t-126 -92.5t-149 -56.5t-155.5 -18zM344 -389l27 262h256l-27 -262h-256z" />
    <glyph glyph-name="uni1E63" unicode="&#x1e63;" horiz-adv-x="915" 
d="M420 -20q-169 0 -282 78.5t-128 224.5l254 71q39 -125 160 -125q47 0 79 21.5t32 64.5q0 34 -20 55t-71 38l-129 49q-114 41 -169.5 116t-55.5 170q0 99 57.5 178t151 121.5t203.5 42.5q149 0 252 -77.5t120 -202.5l-249 -70q-36 101 -131 101q-46 0 -71.5 -19.5
t-25.5 -54.5q0 -54 72 -78l145 -57q234 -82 234 -295q0 -162 -121.5 -257t-306.5 -95zM233 -389l27 262h256l-27 -262h-256z" />
    <glyph glyph-name="uni1E6C" unicode="&#x1e6c;" horiz-adv-x="1077" 
d="M319 0l121 1157h-327l32 297h983l-30 -297h-334l-121 -1157h-324zM315 -389l27 262h256l-27 -262h-256z" />
    <glyph glyph-name="uni1E6D" unicode="&#x1e6d;" horiz-adv-x="798" 
d="M485 -12q-157 0 -239.5 82.5t-63.5 257.5l51 485h-159l26 252h158l29 272h317l-29 -272h224l-27 -252h-221l-45 -434q-5 -46 20.5 -78.5t91.5 -32.5q45 0 103 17l-27 -242q-55 -55 -209 -55zM324 -389l26 262h256l-26 -262h-256z" />
    <glyph glyph-name="Wgrave" unicode="&#x1e80;" horiz-adv-x="2088" 
d="M426 0l-305 1454h342l172 -899l379 899h256l194 -899l357 899h340l-609 -1454h-256l-215 909l-399 -909h-256zM825 1905h258l185 -324h-254z" />
    <glyph glyph-name="wgrave" unicode="&#x1e81;" horiz-adv-x="1875" 
d="M1118 0l-168 657l-303 -657h-293l-274 1065h315l146 -690l305 690h293l164 -690l284 690h320l-496 -1065h-293zM676 1516h258l184 -324h-254z" />
    <glyph glyph-name="Wacute" unicode="&#x1e82;" horiz-adv-x="2088" 
d="M426 0l-305 1454h342l172 -899l379 899h256l194 -899l357 899h340l-609 -1454h-256l-215 909l-399 -909h-256zM1018 1581l184 324h258l-188 -324h-254z" />
    <glyph glyph-name="wacute" unicode="&#x1e83;" horiz-adv-x="1875" 
d="M1118 0l-168 657l-303 -657h-293l-274 1065h315l146 -690l305 690h293l164 -690l284 690h320l-496 -1065h-293zM868 1192l185 324h258l-189 -324h-254z" />
    <glyph glyph-name="Wdieresis" unicode="&#x1e84;" horiz-adv-x="2088" 
d="M426 0l-305 1454h342l172 -899l379 899h256l194 -899l357 899h340l-609 -1454h-256l-215 909l-399 -909h-256zM750 1569l32 311h295l-35 -311h-292zM1278 1569l31 311h297l-37 -311h-291z" />
    <glyph glyph-name="wdieresis" unicode="&#x1e85;" horiz-adv-x="1875" 
d="M1118 0l-168 657l-303 -657h-293l-274 1065h315l146 -690l305 690h293l164 -690l284 690h320l-496 -1065h-293zM600 1180l33 311h295l-35 -311h-293zM1128 1180l31 311h297l-37 -311h-291z" />
    <glyph glyph-name="uni1E92" unicode="&#x1e92;" horiz-adv-x="1224" 
d="M-20 0l770 1157h-619l29 297h1126l-770 -1157h627l-29 -297h-1134zM422 -389l27 262h256l-27 -262h-256z" />
    <glyph glyph-name="uni1E93" unicode="&#x1e93;" horiz-adv-x="1083" 
d="M-31 0l604 788h-467l29 277h979l-604 -789h483l-28 -276h-996zM375 -389l26 262h256l-26 -262h-256z" />
    <glyph glyph-name="uni1E9E" unicode="&#x1e9e;" horiz-adv-x="1347" 
d="M41 0l152 1454h1089l-31 -303l-313 -340q152 -14 237 -100.5t85 -245.5q0 -218 -151 -341.5t-417 -123.5h-168l31 276h123q54 0 93 5t78.5 20.5t60 48t20.5 82.5q0 44 -16 76t-39.5 49t-59 27.5t-64.5 13t-65 2.5h-86l23 219l307 338h-447l-118 -1157h-324z" />
    <glyph glyph-name="uni1EA0" unicode="&#x1ea0;" horiz-adv-x="1482" 
d="M1010 1454l393 -1454h-350l-56 231h-575l-105 -231h-348l699 1454h342zM516 -389l27 262h256l-27 -262h-256zM559 530h365l-127 525z" />
    <glyph glyph-name="uni1EA1" unicode="&#x1ea1;" 
d="M496 -20q-87 0 -167.5 32t-144.5 92t-102.5 155t-38.5 212q0 167 72.5 308t200.5 223.5t282 82.5q68 0 126.5 -16t95 -40t58 -46t29.5 -39h11l14 121h317l-110 -1065h-318l15 121h-15q-21 -41 -114.5 -91t-210.5 -50zM358 500q0 -63 21 -111t56.5 -74.5t75 -39.5
t81.5 -13q52 0 103 19t94 55t69.5 95.5t26.5 133.5q0 121 -70 179.5t-164 58.5q-52 0 -103 -19t-94 -55t-69.5 -95.5t-26.5 -133.5zM422 -389l27 262h256l-27 -262h-256z" />
    <glyph glyph-name="uni1EA2" unicode="&#x1ea2;" horiz-adv-x="1482" 
d="M1010 1454l393 -1454h-350l-56 231h-575l-105 -231h-348l699 1454h342zM559 530h365l-127 525zM657 1903q28 61 87 98t130 37q95 0 162.5 -64t67.5 -159q0 -106 -81 -180t-192 -74h-71l18 190h70q24 0 38.5 13t14.5 34q0 18 -12 28.5t-31 10.5t-32.5 -12.5t-18.5 -32.5z
" />
    <glyph glyph-name="uni1EA3" unicode="&#x1ea3;" 
d="M496 -20q-87 0 -167.5 32t-144.5 92t-102.5 155t-38.5 212q0 167 72.5 308t200.5 223.5t282 82.5q68 0 126.5 -16t95 -40t58 -46t29.5 -39h11l14 121h317l-110 -1065h-318l15 121h-15q-21 -41 -114.5 -91t-210.5 -50zM358 500q0 -63 21 -111t56.5 -74.5t75 -39.5
t81.5 -13q52 0 103 19t94 55t69.5 95.5t26.5 133.5q0 121 -70 179.5t-164 58.5q-52 0 -103 -19t-94 -55t-69.5 -95.5t-26.5 -133.5zM524 1534q28 61 87 98t130 37q95 0 162.5 -64t67.5 -159q0 -106 -81 -180t-192 -74h-71l18 190h70q23 0 38 13t15 35q0 18 -12 28t-31 10
t-32.5 -12.5t-18.5 -32.5z" />
    <glyph glyph-name="uni1EA4" unicode="&#x1ea4;" horiz-adv-x="1482" 
d="M1010 1454l393 -1454h-350l-56 231h-575l-105 -231h-348l699 1454h342zM520 1624l264 260h207l205 -260l-143 -133l-183 219l-213 -219zM559 530h365l-127 525zM1094 1823l223 338h221l-229 -338h-215z" />
    <glyph glyph-name="uni1EA5" unicode="&#x1ea5;" 
d="M496 -20q-87 0 -167.5 32t-144.5 92t-102.5 155t-38.5 212q0 167 72.5 308t200.5 223.5t282 82.5q68 0 126.5 -16t95 -40t58 -46t29.5 -39h11l14 121h317l-110 -1065h-318l15 121h-15q-21 -41 -114.5 -91t-210.5 -50zM358 500q0 -63 21 -111t56.5 -74.5t75 -39.5
t81.5 -13q52 0 103 19t94 55t69.5 95.5t26.5 133.5q0 121 -70 179.5t-164 58.5q-52 0 -103 -19t-94 -55t-69.5 -95.5t-26.5 -133.5zM387 1255l264 261h207l205 -261l-143 -133l-183 219l-213 -219zM961 1454l223 338h221l-229 -338h-215z" />
    <glyph glyph-name="uni1EA6" unicode="&#x1ea6;" horiz-adv-x="1482" 
d="M1010 1454l393 -1454h-350l-56 231h-575l-105 -231h-348l699 1454h342zM520 1624l264 260h207l205 -260l-143 -133l-183 219l-213 -219zM559 530h365l-127 525zM887 2161h229l244 -338h-217z" />
    <glyph glyph-name="uni1EA7" unicode="&#x1ea7;" 
d="M496 -20q-87 0 -167.5 32t-144.5 92t-102.5 155t-38.5 212q0 167 72.5 308t200.5 223.5t282 82.5q68 0 126.5 -16t95 -40t58 -46t29.5 -39h11l14 121h317l-110 -1065h-318l15 121h-15q-21 -41 -114.5 -91t-210.5 -50zM358 500q0 -63 21 -111t56.5 -74.5t75 -39.5
t81.5 -13q52 0 103 19t94 55t69.5 95.5t26.5 133.5q0 121 -70 179.5t-164 58.5q-52 0 -103 -19t-94 -55t-69.5 -95.5t-26.5 -133.5zM387 1255l264 261h207l205 -261l-143 -133l-183 219l-213 -219zM754 1792h229l244 -338h-217z" />
    <glyph glyph-name="uni1EA8" unicode="&#x1ea8;" horiz-adv-x="1482" 
d="M1010 1454l393 -1454h-350l-56 231h-575l-105 -231h-348l699 1454h342zM520 1624l264 260h207l205 -260l-143 -133l-183 219l-213 -219zM559 530h365l-127 525zM958 2183q28 61 87.5 98t130.5 37q95 0 162 -64t67 -159q0 -106 -80.5 -180t-191.5 -74h-72l18 191h70
q24 0 38.5 13t14.5 34q0 18 -12 28.5t-31 10.5t-32.5 -12.5t-18.5 -32.5z" />
    <glyph glyph-name="uni1EA9" unicode="&#x1ea9;" 
d="M496 -20q-87 0 -167.5 32t-144.5 92t-102.5 155t-38.5 212q0 167 72.5 308t200.5 223.5t282 82.5q68 0 126.5 -16t95 -40t58 -46t29.5 -39h11l14 121h317l-110 -1065h-318l15 121h-15q-21 -41 -114.5 -91t-210.5 -50zM358 500q0 -63 21 -111t56.5 -74.5t75 -39.5
t81.5 -13q52 0 103 19t94 55t69.5 95.5t26.5 133.5q0 121 -70 179.5t-164 58.5q-52 0 -103 -19t-94 -55t-69.5 -95.5t-26.5 -133.5zM387 1255l264 261h207l205 -261l-143 -133l-183 219l-213 -219zM825 1815q28 61 87 98t130 37q95 0 162.5 -64t67.5 -160
q0 -106 -80.5 -179.5t-192.5 -73.5h-71l18 190h70q24 0 38.5 13t14.5 34q0 18 -12 28.5t-31 10.5t-32.5 -12.5t-18.5 -32.5z" />
    <glyph glyph-name="uni1EAA" unicode="&#x1eaa;" horiz-adv-x="1482" 
d="M1010 1454l393 -1454h-350l-56 231h-575l-105 -231h-348l699 1454h342zM520 1624l264 260h207l205 -260l-143 -133l-183 219l-213 -219zM532 1968q10 126 76 195t158 69q41 0 80 -16t63.5 -35t52.5 -35t50 -16q25 0 44.5 15.5t20.5 45.5h213q-10 -124 -76.5 -193
t-158.5 -69q-51 0 -96.5 25.5t-81 50.5t-62.5 25q-25 0 -47 -16t-23 -46h-213zM559 530h365l-127 525z" />
    <glyph glyph-name="uni1EAB" unicode="&#x1eab;" 
d="M496 -20q-87 0 -167.5 32t-144.5 92t-102.5 155t-38.5 212q0 167 72.5 308t200.5 223.5t282 82.5q68 0 126.5 -16t95 -40t58 -46t29.5 -39h11l14 121h317l-110 -1065h-318l15 121h-15q-21 -41 -114.5 -91t-210.5 -50zM358 500q0 -63 21 -111t56.5 -74.5t75 -39.5
t81.5 -13q52 0 103 19t94 55t69.5 95.5t26.5 133.5q0 121 -70 179.5t-164 58.5q-52 0 -103 -19t-94 -55t-69.5 -95.5t-26.5 -133.5zM387 1255l264 261h207l205 -261l-143 -133l-183 219l-213 -219zM399 1599q10 126 76 195.5t158 69.5q52 0 99 -26t83.5 -51.5t63.5 -25.5
q24 0 44 16t21 46h213q-10 -124 -76.5 -193t-158.5 -69q-40 0 -78 15.5t-61.5 34.5t-51 34.5t-49.5 15.5q-25 0 -47 -16t-23 -46h-213z" />
    <glyph glyph-name="uni1EAC" unicode="&#x1eac;" horiz-adv-x="1482" 
d="M1010 1454l393 -1454h-350l-56 231h-575l-105 -231h-348l699 1454h342zM516 -389l27 262h256l-27 -262h-256zM520 1624l264 260h207l205 -260l-143 -133l-183 219l-213 -219zM559 530h365l-127 525z" />
    <glyph glyph-name="uni1EAD" unicode="&#x1ead;" 
d="M496 -20q-87 0 -167.5 32t-144.5 92t-102.5 155t-38.5 212q0 167 72.5 308t200.5 223.5t282 82.5q68 0 126.5 -16t95 -40t58 -46t29.5 -39h11l14 121h317l-110 -1065h-318l15 121h-15q-21 -41 -114.5 -91t-210.5 -50zM358 500q0 -63 21 -111t56.5 -74.5t75 -39.5
t81.5 -13q52 0 103 19t94 55t69.5 95.5t26.5 133.5q0 121 -70 179.5t-164 58.5q-52 0 -103 -19t-94 -55t-69.5 -95.5t-26.5 -133.5zM387 1255l264 261h207l205 -261l-143 -133l-183 219l-213 -219zM422 -389l27 262h256l-27 -262h-256z" />
    <glyph glyph-name="uni1EAE" unicode="&#x1eae;" horiz-adv-x="1482" 
d="M1010 1454l393 -1454h-350l-56 231h-575l-105 -231h-348l699 1454h342zM532 1884h187q-7 -71 23.5 -119.5t109.5 -48.5t116 48t42 120h186q-6 -65 -30.5 -123t-67 -107.5t-111.5 -78.5t-156 -29q-86 0 -150 29t-97.5 78t-46.5 107.5t-5 123.5zM559 530h365l-127 525z
M739 1851l203 310h223l-211 -310h-215z" />
    <glyph glyph-name="uni1EAF" unicode="&#x1eaf;" 
d="M496 -20q-87 0 -167.5 32t-144.5 92t-102.5 155t-38.5 212q0 167 72.5 308t200.5 223.5t282 82.5q68 0 126.5 -16t95 -40t58 -46t29.5 -39h11l14 121h317l-110 -1065h-318l15 121h-15q-21 -41 -114.5 -91t-210.5 -50zM358 500q0 -63 21 -111t56.5 -74.5t75 -39.5
t81.5 -13q52 0 103 19t94 55t69.5 95.5t26.5 133.5q0 121 -70 179.5t-164 58.5q-52 0 -103 -19t-94 -55t-69.5 -95.5t-26.5 -133.5zM399 1516h187q-7 -71 23.5 -119.5t109.5 -48.5t116 48t42 120h186q-6 -65 -30.5 -123t-67 -107.5t-111.5 -78.5t-156 -29q-86 0 -150 29
t-97.5 78t-46.5 107.5t-5 123.5zM606 1483l203 309h223l-211 -309h-215z" />
    <glyph glyph-name="uni1EB0" unicode="&#x1eb0;" horiz-adv-x="1482" 
d="M1010 1454l393 -1454h-350l-56 231h-575l-105 -231h-348l699 1454h342zM532 1884h187q-7 -71 23.5 -119.5t109.5 -48.5t116 48t42 120h186q-6 -65 -30.5 -123t-67 -107.5t-111.5 -78.5t-156 -29q-86 0 -150 29t-97.5 78t-46.5 107.5t-5 123.5zM559 530h365l-127 525z
M621 2146h206l152 -295h-199z" />
    <glyph glyph-name="uni1EB1" unicode="&#x1eb1;" 
d="M496 -20q-87 0 -167.5 32t-144.5 92t-102.5 155t-38.5 212q0 167 72.5 308t200.5 223.5t282 82.5q68 0 126.5 -16t95 -40t58 -46t29.5 -39h11l14 121h317l-110 -1065h-318l15 121h-15q-21 -41 -114.5 -91t-210.5 -50zM358 500q0 -63 21 -111t56.5 -74.5t75 -39.5
t81.5 -13q52 0 103 19t94 55t69.5 95.5t26.5 133.5q0 121 -70 179.5t-164 58.5q-52 0 -103 -19t-94 -55t-69.5 -95.5t-26.5 -133.5zM399 1516h187q-7 -71 23.5 -119.5t109.5 -48.5t116 48t42 120h186q-6 -65 -30.5 -123t-67 -107.5t-111.5 -78.5t-156 -29q-86 0 -150 29
t-97.5 78t-46.5 107.5t-5 123.5zM487 1778h207l152 -295h-199z" />
    <glyph glyph-name="uni1EB2" unicode="&#x1eb2;" horiz-adv-x="1482" 
d="M1010 1454l393 -1454h-350l-56 231h-575l-105 -231h-348l699 1454h342zM532 1884h187q-7 -71 23.5 -119.5t109.5 -48.5t116 48t42 120h186q-6 -65 -30.5 -123t-67 -107.5t-111.5 -78.5t-156 -29q-86 0 -150 29t-97.5 78t-46.5 107.5t-5 123.5zM559 530h365l-127 525z
M641 2183q28 61 87 98t130 37q95 0 162 -64t67 -159q0 -106 -80.5 -180t-191.5 -74h-72l19 191h69q24 0 39 13t15 34q0 18 -12 28.5t-31 10.5t-32.5 -12.5t-18.5 -32.5z" />
    <glyph glyph-name="uni1EB3" unicode="&#x1eb3;" 
d="M496 -20q-87 0 -167.5 32t-144.5 92t-102.5 155t-38.5 212q0 167 72.5 308t200.5 223.5t282 82.5q68 0 126.5 -16t95 -40t58 -46t29.5 -39h11l14 121h317l-110 -1065h-318l15 121h-15q-21 -41 -114.5 -91t-210.5 -50zM358 500q0 -63 21 -111t56.5 -74.5t75 -39.5
t81.5 -13q52 0 103 19t94 55t69.5 95.5t26.5 133.5q0 121 -70 179.5t-164 58.5q-52 0 -103 -19t-94 -55t-69.5 -95.5t-26.5 -133.5zM399 1516h187q-7 -71 23.5 -119.5t109.5 -48.5t116 48t42 120h186q-6 -65 -30.5 -123t-67 -107.5t-111.5 -78.5t-156 -29q-86 0 -150 29
t-97.5 78t-46.5 107.5t-5 123.5zM508 1815q28 61 87 98t130 37q95 0 162 -64t67 -160q0 -106 -80.5 -179.5t-191.5 -73.5h-72l19 190h69q24 0 39 13t15 34q0 18 -12 28.5t-31 10.5t-33.5 -12.5t-18.5 -32.5z" />
    <glyph glyph-name="uni1EB4" unicode="&#x1eb4;" horiz-adv-x="1482" 
d="M1010 1454l393 -1454h-350l-56 231h-575l-105 -231h-348l699 1454h342zM530 1958q10 126 76 195t158 69q41 0 80 -16t63.5 -35t52.5 -35t50 -16q25 0 44.5 15.5t20.5 45.5h213q-10 -124 -76.5 -193t-158.5 -69q-40 0 -78 15.5t-61.5 34.5t-51 34.5t-49.5 15.5
q-25 0 -47 -15.5t-23 -45.5h-213zM532 1884h187q-7 -71 23.5 -119.5t109.5 -48.5t116 48t42 120h186q-6 -65 -30.5 -123t-67 -107.5t-111.5 -78.5t-156 -29q-86 0 -150 29t-97.5 78t-46.5 107.5t-5 123.5zM559 530h365l-127 525z" />
    <glyph glyph-name="uni1EB5" unicode="&#x1eb5;" 
d="M496 -20q-87 0 -167.5 32t-144.5 92t-102.5 155t-38.5 212q0 167 72.5 308t200.5 223.5t282 82.5q68 0 126.5 -16t95 -40t58 -46t29.5 -39h11l14 121h317l-110 -1065h-318l15 121h-15q-21 -41 -114.5 -91t-210.5 -50zM358 500q0 -63 21 -111t56.5 -74.5t75 -39.5
t81.5 -13q52 0 103 19t94 55t69.5 95.5t26.5 133.5q0 121 -70 179.5t-164 58.5q-52 0 -103 -19t-94 -55t-69.5 -95.5t-26.5 -133.5zM397 1589q10 126 76 195t158 69q41 0 80 -16t63.5 -35t52.5 -35t50 -16q25 0 44.5 15.5t20.5 45.5h213q-10 -124 -76.5 -193t-158.5 -69
q-40 0 -78 16t-61.5 34.5t-51 34.5t-49.5 16q-25 0 -47 -16t-23 -46h-213zM399 1516h187q-7 -71 23.5 -119.5t109.5 -48.5t116 48t42 120h186q-6 -65 -30.5 -123t-67 -107.5t-111.5 -78.5t-156 -29q-86 0 -150 29t-97.5 78t-46.5 107.5t-5 123.5z" />
    <glyph glyph-name="uni1EB6" unicode="&#x1eb6;" horiz-adv-x="1482" 
d="M1010 1454l393 -1454h-350l-56 231h-575l-105 -231h-348l699 1454h342zM516 -389l27 262h256l-27 -262h-256zM532 1884h187q-7 -71 23.5 -119.5t109.5 -48.5t116 48t42 120h186q-6 -65 -30.5 -123t-67 -107.5t-111.5 -78.5t-156 -29q-86 0 -150 29t-97.5 78t-46.5 107.5
t-5 123.5zM559 530h365l-127 525z" />
    <glyph glyph-name="uni1EB7" unicode="&#x1eb7;" 
d="M496 -20q-87 0 -167.5 32t-144.5 92t-102.5 155t-38.5 212q0 167 72.5 308t200.5 223.5t282 82.5q68 0 126.5 -16t95 -40t58 -46t29.5 -39h11l14 121h317l-110 -1065h-318l15 121h-15q-21 -41 -114.5 -91t-210.5 -50zM358 500q0 -63 21 -111t56.5 -74.5t75 -39.5
t81.5 -13q52 0 103 19t94 55t69.5 95.5t26.5 133.5q0 121 -70 179.5t-164 58.5q-52 0 -103 -19t-94 -55t-69.5 -95.5t-26.5 -133.5zM399 1516h187q-7 -71 23.5 -119.5t109.5 -48.5t116 48t42 120h186q-6 -65 -30.5 -123t-67 -107.5t-111.5 -78.5t-156 -29q-86 0 -150 29
t-97.5 78t-46.5 107.5t-5 123.5zM422 -389l27 262h256l-27 -262h-256z" />
    <glyph glyph-name="uni1EB8" unicode="&#x1eb8;" horiz-adv-x="1021" 
d="M41 0l152 1454h841l-28 -297h-521l-28 -278h430l-29 -293h-432l-31 -289h535l-29 -297h-860zM301 -389l27 262h256l-27 -262h-256z" />
    <glyph glyph-name="uni1EB9" unicode="&#x1eb9;" horiz-adv-x="1163" 
d="M559 -20q-104 0 -196.5 33.5t-164 95.5t-113.5 160t-42 218q0 167 80 304.5t216 215.5t296 78q86 0 165 -24t149.5 -75t113.5 -130.5t56.5 -190.5t-21.5 -255h-760q26 -84 98 -128t176 -44q145 0 265 84l120 -152q-78 -87 -190.5 -138.5t-247.5 -51.5zM348 -389l27 262
h256l-27 -262h-256zM348 637h490q-9 90 -73 136t-155 46q-95 0 -162.5 -49.5t-99.5 -132.5z" />
    <glyph glyph-name="uni1EBA" unicode="&#x1eba;" horiz-adv-x="1021" 
d="M41 0l152 1454h841l-28 -297h-521l-28 -278h430l-29 -293h-432l-31 -289h535l-29 -297h-860zM444 1923q28 61 87.5 98t130.5 37q95 0 162 -64t67 -159q0 -106 -81 -180t-192 -74h-71l18 191h70q24 0 38.5 13t14.5 34q0 18 -12 28.5t-31 10.5t-32.5 -13t-18.5 -33z" />
    <glyph glyph-name="uni1EBB" unicode="&#x1ebb;" horiz-adv-x="1163" 
d="M559 -20q-104 0 -196.5 33.5t-164 95.5t-113.5 160t-42 218q0 167 80 304.5t216 215.5t296 78q86 0 165 -24t149.5 -75t113.5 -130.5t56.5 -190.5t-21.5 -255h-760q26 -84 98 -128t176 -44q145 0 265 84l120 -152q-78 -87 -190.5 -138.5t-247.5 -51.5zM348 637h490
q-9 90 -73 136t-155 46q-95 0 -162.5 -49.5t-99.5 -132.5zM453 1534q28 61 87 98t130 37q95 0 162 -64t67 -159q0 -106 -80.5 -180t-191.5 -74h-72l18 190h70q23 0 38 13t15 35q0 18 -12 28t-31 10t-32.5 -12.5t-18.5 -32.5z" />
    <glyph glyph-name="uni1EBC" unicode="&#x1ebc;" horiz-adv-x="1021" 
d="M41 0l152 1454h841l-28 -297h-521l-28 -278h430l-29 -293h-432l-31 -289h535l-29 -297h-860zM270 1616q10 126 76 195t158 69q41 0 80 -16t63.5 -35t52.5 -35t50 -16q25 0 44.5 15.5t20.5 45.5h213q-10 -124 -76.5 -193t-158.5 -69q-40 0 -78 15.5t-61.5 34.5t-51 34.5
t-49.5 15.5q-25 0 -47 -15.5t-23 -45.5h-213z" />
    <glyph glyph-name="uni1EBD" unicode="&#x1ebd;" horiz-adv-x="1163" 
d="M559 -20q-104 0 -196.5 33.5t-164 95.5t-113.5 160t-42 218q0 167 80 304.5t216 215.5t296 78q86 0 165 -24t149.5 -75t113.5 -130.5t56.5 -190.5t-21.5 -255h-760q26 -84 98 -128t176 -44q145 0 265 84l120 -152q-78 -87 -190.5 -138.5t-247.5 -51.5zM279 1227
q10 126 75.5 195t157.5 69q41 0 80 -16t63.5 -35t52.5 -35t50 -16q25 0 44.5 15.5t20.5 45.5h213q-10 -124 -76.5 -193t-158.5 -69q-40 0 -78 15.5t-61.5 34.5t-51 34.5t-49.5 15.5q-25 0 -46.5 -15.5t-22.5 -45.5h-213zM348 637h490q-9 90 -73 136t-155 46
q-95 0 -162.5 -49.5t-99.5 -132.5z" />
    <glyph glyph-name="uni1EBE" unicode="&#x1ebe;" horiz-adv-x="1021" 
d="M41 0l152 1454h841l-28 -297h-521l-28 -278h430l-29 -293h-432l-31 -289h535l-29 -297h-860zM305 1645l264 260h207l205 -260l-143 -134l-183 220l-213 -220zM879 1843l223 338h221l-229 -338h-215z" />
    <glyph glyph-name="uni1EBF" unicode="&#x1ebf;" horiz-adv-x="1163" 
d="M559 -20q-104 0 -196.5 33.5t-164 95.5t-113.5 160t-42 218q0 167 80 304.5t216 215.5t296 78q86 0 165 -24t149.5 -75t113.5 -130.5t56.5 -190.5t-21.5 -255h-760q26 -84 98 -128t176 -44q145 0 265 84l120 -152q-78 -87 -190.5 -138.5t-247.5 -51.5zM313 1255l265 261
h206l205 -261l-143 -133l-182 219l-213 -219zM348 637h490q-9 90 -73 136t-155 46q-95 0 -162.5 -49.5t-99.5 -132.5zM887 1454l223 338h221l-229 -338h-215z" />
    <glyph glyph-name="uni1EC0" unicode="&#x1ec0;" horiz-adv-x="1021" 
d="M41 0l152 1454h841l-28 -297h-521l-28 -278h430l-29 -293h-432l-31 -289h535l-29 -297h-860zM305 1645l264 260h207l205 -260l-143 -134l-183 220l-213 -220zM672 2181h229l244 -338h-217z" />
    <glyph glyph-name="uni1EC1" unicode="&#x1ec1;" horiz-adv-x="1163" 
d="M559 -20q-104 0 -196.5 33.5t-164 95.5t-113.5 160t-42 218q0 167 80 304.5t216 215.5t296 78q86 0 165 -24t149.5 -75t113.5 -130.5t56.5 -190.5t-21.5 -255h-760q26 -84 98 -128t176 -44q145 0 265 84l120 -152q-78 -87 -190.5 -138.5t-247.5 -51.5zM313 1255l265 261
h206l205 -261l-143 -133l-182 219l-213 -219zM348 637h490q-9 90 -73 136t-155 46q-95 0 -162.5 -49.5t-99.5 -132.5zM680 1792h229l244 -338h-217z" />
    <glyph glyph-name="uni1EC2" unicode="&#x1ec2;" horiz-adv-x="1021" 
d="M41 0l152 1454h841l-28 -297h-521l-28 -278h430l-29 -293h-432l-31 -289h535l-29 -297h-860zM305 1645l264 260h207l205 -260l-143 -134l-183 220l-213 -220zM743 2204q28 61 87.5 98t130.5 37q95 0 162 -64t67 -159q0 -106 -80.5 -180t-191.5 -74h-72l18 190h70
q24 0 38.5 13t14.5 34q0 18 -12 28.5t-31 10.5t-32.5 -12.5t-18.5 -32.5z" />
    <glyph glyph-name="uni1EC3" unicode="&#x1ec3;" horiz-adv-x="1163" 
d="M559 -20q-104 0 -196.5 33.5t-164 95.5t-113.5 160t-42 218q0 167 80 304.5t216 215.5t296 78q86 0 165 -24t149.5 -75t113.5 -130.5t56.5 -190.5t-21.5 -255h-760q26 -84 98 -128t176 -44q145 0 265 84l120 -152q-78 -87 -190.5 -138.5t-247.5 -51.5zM313 1255l265 261
h206l205 -261l-143 -133l-182 219l-213 -219zM348 637h490q-9 90 -73 136t-155 46q-95 0 -162.5 -49.5t-99.5 -132.5zM752 1815q28 61 87 98t130 37q95 0 162 -64t67 -160q0 -106 -80.5 -179.5t-191.5 -73.5h-72l18 190h70q24 0 38.5 13t14.5 34q0 18 -12 28.5t-31 10.5
t-32.5 -12.5t-18.5 -32.5z" />
    <glyph glyph-name="uni1EC4" unicode="&#x1ec4;" horiz-adv-x="1021" 
d="M41 0l152 1454h841l-28 -297h-521l-28 -278h430l-29 -293h-432l-31 -289h535l-29 -297h-860zM305 1645l264 260h207l205 -260l-143 -134l-183 220l-213 -220zM317 1989q10 126 76 195t158 69q52 0 99 -26t83.5 -51.5t63.5 -25.5q24 0 44 16t21 46h213
q-10 -124 -76.5 -193t-158.5 -69q-40 0 -78 15.5t-61.5 34.5t-51 34.5t-49.5 15.5q-25 0 -47 -15.5t-23 -45.5h-213z" />
    <glyph glyph-name="uni1EC5" unicode="&#x1ec5;" horiz-adv-x="1163" 
d="M559 -20q-104 0 -196.5 33.5t-164 95.5t-113.5 160t-42 218q0 167 80 304.5t216 215.5t296 78q86 0 165 -24t149.5 -75t113.5 -130.5t56.5 -190.5t-21.5 -255h-760q26 -84 98 -128t176 -44q145 0 265 84l120 -152q-78 -87 -190.5 -138.5t-247.5 -51.5zM313 1255l265 261
h206l205 -261l-143 -133l-182 219l-213 -219zM326 1599q10 126 75.5 195.5t157.5 69.5q52 0 99 -26t83.5 -51.5t63.5 -25.5q24 0 44 16t21 46h213q-10 -124 -76.5 -193t-158.5 -69q-40 0 -78 15.5t-61.5 34.5t-51 34.5t-49.5 15.5q-25 0 -46.5 -16t-22.5 -46h-213zM348 637
h490q-9 90 -73 136t-155 46q-95 0 -162.5 -49.5t-99.5 -132.5z" />
    <glyph glyph-name="uni1EC6" unicode="&#x1ec6;" horiz-adv-x="1021" 
d="M41 0l152 1454h841l-28 -297h-521l-28 -278h430l-29 -293h-432l-31 -289h535l-29 -297h-860zM301 -389l27 262h256l-27 -262h-256zM305 1645l264 260h207l205 -260l-143 -134l-183 220l-213 -220z" />
    <glyph glyph-name="uni1EC7" unicode="&#x1ec7;" horiz-adv-x="1163" 
d="M559 -20q-104 0 -196.5 33.5t-164 95.5t-113.5 160t-42 218q0 167 80 304.5t216 215.5t296 78q86 0 165 -24t149.5 -75t113.5 -130.5t56.5 -190.5t-21.5 -255h-760q26 -84 98 -128t176 -44q145 0 265 84l120 -152q-78 -87 -190.5 -138.5t-247.5 -51.5zM313 1255l265 261
h206l205 -261l-143 -133l-182 219l-213 -219zM348 -389l27 262h256l-27 -262h-256zM348 637h490q-9 90 -73 136t-155 46q-95 0 -162.5 -49.5t-99.5 -132.5z" />
    <glyph glyph-name="uni1EC8" unicode="&#x1ec8;" horiz-adv-x="518" 
d="M41 0l154 1454h323l-153 -1454h-324zM178 1923q28 61 87 98t130 37q95 0 162.5 -64t67.5 -159q0 -106 -81 -180t-192 -74h-71l18 191h70q24 0 38.5 13t14.5 34q0 18 -12 28.5t-31 10.5t-32.5 -13t-18.5 -33z" />
    <glyph glyph-name="uni1EC9" unicode="&#x1ec9;" horiz-adv-x="512" 
d="M41 0l113 1065h317l-113 -1065h-317zM133 1534q28 61 87 98t130 37q95 0 162.5 -64t67.5 -159q0 -106 -81 -180t-192 -74h-71l18 190h70q23 0 38 13t15 35q0 18 -12 28t-31 10t-32.5 -12.5t-18.5 -32.5z" />
    <glyph glyph-name="uni1ECA" unicode="&#x1eca;" horiz-adv-x="518" 
d="M41 0l154 1454h323l-153 -1454h-324zM33 -389l26 262h256l-26 -262h-256z" />
    <glyph glyph-name="uni1ECB" unicode="&#x1ecb;" horiz-adv-x="507" 
d="M41 0l111 1065h317l-111 -1065h-317zM29 -389l26 262h256l-26 -262h-256zM164 1178l26 276h318l-27 -276h-317z" />
    <glyph glyph-name="uni1ECC" unicode="&#x1ecc;" horiz-adv-x="1667" 
d="M780 -20q-195 0 -350.5 80.5t-246.5 234.5t-91 356q0 171 67 324.5t179.5 262.5t266.5 173t323 64q145 0 271.5 -47.5t218.5 -133t145 -212.5t53 -279q0 -171 -67.5 -324.5t-180.5 -262t-266.5 -172.5t-321.5 -64zM426 684q0 -181 108.5 -289t278.5 -108
q196 0 333.5 139.5t137.5 343.5q0 181 -109 289t-278 108q-197 0 -334 -139t-137 -344zM610 -389l27 262h256l-27 -262h-256z" />
    <glyph glyph-name="uni1ECD" unicode="&#x1ecd;" horiz-adv-x="1214" 
d="M561 -20q-90 0 -179.5 32t-165.5 92.5t-123.5 160t-47.5 222.5q0 168 83 306t222.5 215t304.5 77q72 0 144 -19.5t139.5 -61.5t119 -100.5t82.5 -143.5t31 -185q0 -167 -83 -304.5t-222.5 -214t-304.5 -76.5zM352 498q0 -112 69 -175t157 -63q120 0 203 82.5t83 222.5
q0 113 -68.5 176.5t-156.5 63.5q-121 0 -204 -83t-83 -224zM436 -389l27 262h256l-27 -262h-256z" />
    <glyph glyph-name="uni1ECE" unicode="&#x1ece;" horiz-adv-x="1667" 
d="M780 -20q-195 0 -350.5 80.5t-246.5 234.5t-91 356q0 171 67 324.5t179.5 262.5t266.5 173t323 64q145 0 271.5 -47.5t218.5 -133t145 -212.5t53 -279q0 -171 -67.5 -324.5t-180.5 -262t-266.5 -172.5t-321.5 -64zM426 684q0 -181 108.5 -289t278.5 -108
q196 0 333.5 139.5t137.5 343.5q0 181 -109 289t-278 108q-197 0 -334 -139t-137 -344zM752 1923q28 61 87 98t130 37q95 0 162 -64t67 -159q0 -106 -80.5 -180t-191.5 -74h-72l18 191h70q24 0 38.5 13t14.5 34q0 18 -12 28.5t-31 10.5t-32.5 -13t-18.5 -33z" />
    <glyph glyph-name="uni1ECF" unicode="&#x1ecf;" horiz-adv-x="1214" 
d="M561 -20q-90 0 -179.5 32t-165.5 92.5t-123.5 160t-47.5 222.5q0 168 83 306t222.5 215t304.5 77q72 0 144 -19.5t139.5 -61.5t119 -100.5t82.5 -143.5t31 -185q0 -167 -83 -304.5t-222.5 -214t-304.5 -76.5zM352 498q0 -112 69 -175t157 -63q120 0 203 82.5t83 222.5
q0 113 -68.5 176.5t-156.5 63.5q-121 0 -204 -83t-83 -224zM487 1534q28 61 87.5 98t130.5 37q95 0 162 -64t67 -159q0 -106 -80.5 -180t-191.5 -74h-72l18 190h70q23 0 38 13t15 35q0 18 -12 28t-31 10t-32.5 -12.5t-18.5 -32.5z" />
    <glyph glyph-name="uni1ED0" unicode="&#x1ed0;" horiz-adv-x="1667" 
d="M780 -20q-195 0 -350.5 80.5t-246.5 234.5t-91 356q0 171 67 324.5t179.5 262.5t266.5 173t323 64q145 0 271.5 -47.5t218.5 -133t145 -212.5t53 -279q0 -171 -67.5 -324.5t-180.5 -262t-266.5 -172.5t-321.5 -64zM426 684q0 -181 108.5 -289t278.5 -108
q196 0 333.5 139.5t137.5 343.5q0 181 -109 289t-278 108q-197 0 -334 -139t-137 -344zM612 1645l265 260h206l205 -260l-143 -134l-182 220l-213 -220zM1186 1843l223 338h221l-229 -338h-215z" />
    <glyph glyph-name="uni1ED1" unicode="&#x1ed1;" horiz-adv-x="1214" 
d="M561 -20q-90 0 -179.5 32t-165.5 92.5t-123.5 160t-47.5 222.5q0 168 83 306t222.5 215t304.5 77q72 0 144 -19.5t139.5 -61.5t119 -100.5t82.5 -143.5t31 -185q0 -167 -83 -304.5t-222.5 -214t-304.5 -76.5zM348 1255l264 261h207l205 -261l-143 -133l-183 219
l-213 -219zM352 498q0 -112 69 -175t157 -63q120 0 203 82.5t83 222.5q0 113 -68.5 176.5t-156.5 63.5q-121 0 -204 -83t-83 -224zM922 1454l223 338h221l-229 -338h-215z" />
    <glyph glyph-name="uni1ED2" unicode="&#x1ed2;" horiz-adv-x="1667" 
d="M780 -20q-195 0 -350.5 80.5t-246.5 234.5t-91 356q0 171 67 324.5t179.5 262.5t266.5 173t323 64q145 0 271.5 -47.5t218.5 -133t145 -212.5t53 -279q0 -171 -67.5 -324.5t-180.5 -262t-266.5 -172.5t-321.5 -64zM426 684q0 -181 108.5 -289t278.5 -108
q196 0 333.5 139.5t137.5 343.5q0 181 -109 289t-278 108q-197 0 -334 -139t-137 -344zM612 1645l265 260h206l205 -260l-143 -134l-182 220l-213 -220zM979 2181h229l244 -338h-217z" />
    <glyph glyph-name="uni1ED3" unicode="&#x1ed3;" horiz-adv-x="1214" 
d="M561 -20q-90 0 -179.5 32t-165.5 92.5t-123.5 160t-47.5 222.5q0 168 83 306t222.5 215t304.5 77q72 0 144 -19.5t139.5 -61.5t119 -100.5t82.5 -143.5t31 -185q0 -167 -83 -304.5t-222.5 -214t-304.5 -76.5zM348 1255l264 261h207l205 -261l-143 -133l-183 219
l-213 -219zM352 498q0 -112 69 -175t157 -63q120 0 203 82.5t83 222.5q0 113 -68.5 176.5t-156.5 63.5q-121 0 -204 -83t-83 -224zM715 1792h229l244 -338h-217z" />
    <glyph glyph-name="uni1ED4" unicode="&#x1ed4;" horiz-adv-x="1667" 
d="M780 -20q-195 0 -350.5 80.5t-246.5 234.5t-91 356q0 171 67 324.5t179.5 262.5t266.5 173t323 64q145 0 271.5 -47.5t218.5 -133t145 -212.5t53 -279q0 -171 -67.5 -324.5t-180.5 -262t-266.5 -172.5t-321.5 -64zM426 684q0 -181 108.5 -289t278.5 -108
q196 0 333.5 139.5t137.5 343.5q0 181 -109 289t-278 108q-197 0 -334 -139t-137 -344zM612 1645l265 260h206l205 -260l-143 -134l-182 220l-213 -220zM1051 2204q28 61 87 98t130 37q95 0 162 -64t67 -159q0 -106 -80.5 -180t-191.5 -74h-72l18 190h70q24 0 38.5 13
t14.5 34q0 18 -12 28.5t-31 10.5t-32.5 -12.5t-18.5 -32.5z" />
    <glyph glyph-name="uni1ED5" unicode="&#x1ed5;" horiz-adv-x="1214" 
d="M561 -20q-90 0 -179.5 32t-165.5 92.5t-123.5 160t-47.5 222.5q0 168 83 306t222.5 215t304.5 77q72 0 144 -19.5t139.5 -61.5t119 -100.5t82.5 -143.5t31 -185q0 -167 -83 -304.5t-222.5 -214t-304.5 -76.5zM348 1255l264 261h207l205 -261l-143 -133l-183 219
l-213 -219zM352 498q0 -112 69 -175t157 -63q120 0 203 82.5t83 222.5q0 113 -68.5 176.5t-156.5 63.5q-121 0 -204 -83t-83 -224zM786 1815q28 61 87.5 98t130.5 37q95 0 162 -64t67 -160q0 -106 -80.5 -179.5t-191.5 -73.5h-72l18 190h70q24 0 38.5 13t14.5 34
q0 18 -12 28.5t-31 10.5t-32.5 -12.5t-18.5 -32.5z" />
    <glyph glyph-name="uni1ED6" unicode="&#x1ed6;" horiz-adv-x="1667" 
d="M780 -20q-195 0 -350.5 80.5t-246.5 234.5t-91 356q0 171 67 324.5t179.5 262.5t266.5 173t323 64q145 0 271.5 -47.5t218.5 -133t145 -212.5t53 -279q0 -171 -67.5 -324.5t-180.5 -262t-266.5 -172.5t-321.5 -64zM426 684q0 -181 108.5 -289t278.5 -108
q196 0 333.5 139.5t137.5 343.5q0 181 -109 289t-278 108q-197 0 -334 -139t-137 -344zM612 1645l265 260h206l205 -260l-143 -134l-182 220l-213 -220zM625 1989q10 126 75.5 195t157.5 69q52 0 99 -26t83.5 -51.5t63.5 -25.5q24 0 44 16t21 46h213q-10 -124 -76.5 -193
t-158.5 -69q-40 0 -78 15.5t-61.5 34.5t-51 34.5t-49.5 15.5q-25 0 -46.5 -15.5t-22.5 -45.5h-213z" />
    <glyph glyph-name="uni1ED7" unicode="&#x1ed7;" horiz-adv-x="1214" 
d="M561 -20q-90 0 -179.5 32t-165.5 92.5t-123.5 160t-47.5 222.5q0 168 83 306t222.5 215t304.5 77q72 0 144 -19.5t139.5 -61.5t119 -100.5t82.5 -143.5t31 -185q0 -167 -83 -304.5t-222.5 -214t-304.5 -76.5zM348 1255l264 261h207l205 -261l-143 -133l-183 219
l-213 -219zM352 498q0 -112 69 -175t157 -63q120 0 203 82.5t83 222.5q0 113 -68.5 176.5t-156.5 63.5q-121 0 -204 -83t-83 -224zM360 1599q10 126 76 195.5t158 69.5q52 0 99 -26t83.5 -51.5t63.5 -25.5q24 0 44 16t21 46h213q-10 -124 -76.5 -193t-158.5 -69
q-40 0 -78 15.5t-61.5 34.5t-51 34.5t-49.5 15.5q-25 0 -47 -16t-23 -46h-213z" />
    <glyph glyph-name="uni1ED8" unicode="&#x1ed8;" horiz-adv-x="1667" 
d="M780 -20q-195 0 -350.5 80.5t-246.5 234.5t-91 356q0 171 67 324.5t179.5 262.5t266.5 173t323 64q145 0 271.5 -47.5t218.5 -133t145 -212.5t53 -279q0 -171 -67.5 -324.5t-180.5 -262t-266.5 -172.5t-321.5 -64zM426 684q0 -181 108.5 -289t278.5 -108
q196 0 333.5 139.5t137.5 343.5q0 181 -109 289t-278 108q-197 0 -334 -139t-137 -344zM610 -389l27 262h256l-27 -262h-256zM612 1645l265 260h206l205 -260l-143 -134l-182 220l-213 -220z" />
    <glyph glyph-name="uni1ED9" unicode="&#x1ed9;" horiz-adv-x="1214" 
d="M561 -20q-90 0 -179.5 32t-165.5 92.5t-123.5 160t-47.5 222.5q0 168 83 306t222.5 215t304.5 77q72 0 144 -19.5t139.5 -61.5t119 -100.5t82.5 -143.5t31 -185q0 -167 -83 -304.5t-222.5 -214t-304.5 -76.5zM348 1255l264 261h207l205 -261l-143 -133l-183 219
l-213 -219zM352 498q0 -112 69 -175t157 -63q120 0 203 82.5t83 222.5q0 113 -68.5 176.5t-156.5 63.5q-121 0 -204 -83t-83 -224zM436 -389l27 262h256l-27 -262h-256z" />
    <glyph glyph-name="uni1EDA" unicode="&#x1eda;" horiz-adv-x="1667" 
d="M780 -20q-195 0 -350.5 80.5t-246.5 234.5t-91 356q0 171 67 324.5t179.5 262.5t266.5 173t323 64h434q68 0 110.5 38t49.5 105l4 51h241l-14 -135q-12 -112 -91.5 -187t-205.5 -94q160 -181 160 -450q0 -171 -67.5 -324.5t-180.5 -262t-266.5 -172.5t-321.5 -64z
M426 684q0 -181 108.5 -289t278.5 -108q196 0 333.5 139.5t137.5 343.5q0 181 -109 289t-278 108q-197 0 -334 -139t-137 -344zM807 1581l184 324h258l-188 -324h-254z" />
    <glyph glyph-name="uni1EDB" unicode="&#x1edb;" horiz-adv-x="1214" 
d="M561 -20q-90 0 -179.5 32t-165.5 92.5t-123.5 160t-47.5 222.5q0 168 83 306t222.5 215t304.5 77h189q68 0 112 38.5t48 105.5l4 51h241l-14 -135q-7 -82 -52.5 -145t-121.5 -99q110 -133 110 -326q0 -167 -83 -304.5t-222.5 -214t-304.5 -76.5zM352 498q0 -112 69 -175
t157 -63q120 0 203 82.5t83 222.5q0 113 -68.5 176.5t-156.5 63.5q-121 0 -204 -83t-83 -224zM541 1192l184 324h258l-188 -324h-254z" />
    <glyph glyph-name="uni1EDC" unicode="&#x1edc;" horiz-adv-x="1667" 
d="M780 -20q-195 0 -350.5 80.5t-246.5 234.5t-91 356q0 171 67 324.5t179.5 262.5t266.5 173t323 64h434q68 0 110.5 38t49.5 105l4 51h241l-14 -135q-12 -112 -91.5 -187t-205.5 -94q160 -181 160 -450q0 -171 -67.5 -324.5t-180.5 -262t-266.5 -172.5t-321.5 -64z
M426 684q0 -181 108.5 -289t278.5 -108q196 0 333.5 139.5t137.5 343.5q0 181 -109 289t-278 108q-197 0 -334 -139t-137 -344zM614 1905h258l185 -324h-254z" />
    <glyph glyph-name="uni1EDD" unicode="&#x1edd;" horiz-adv-x="1214" 
d="M561 -20q-90 0 -179.5 32t-165.5 92.5t-123.5 160t-47.5 222.5q0 168 83 306t222.5 215t304.5 77h189q68 0 112 38.5t48 105.5l4 51h241l-14 -135q-7 -82 -52.5 -145t-121.5 -99q110 -133 110 -326q0 -167 -83 -304.5t-222.5 -214t-304.5 -76.5zM348 1516h258l185 -324
h-254zM352 498q0 -112 69 -175t157 -63q120 0 203 82.5t83 222.5q0 113 -68.5 176.5t-156.5 63.5q-121 0 -204 -83t-83 -224z" />
    <glyph glyph-name="uni1EDE" unicode="&#x1ede;" horiz-adv-x="1667" 
d="M780 -20q-195 0 -350.5 80.5t-246.5 234.5t-91 356q0 171 67 324.5t179.5 262.5t266.5 173t323 64h434q68 0 110.5 38t49.5 105l4 51h241l-14 -135q-12 -112 -91.5 -187t-205.5 -94q160 -181 160 -450q0 -171 -67.5 -324.5t-180.5 -262t-266.5 -172.5t-321.5 -64z
M426 684q0 -181 108.5 -289t278.5 -108q196 0 333.5 139.5t137.5 343.5q0 181 -109 289t-278 108q-197 0 -334 -139t-137 -344zM754 1923q28 61 87 98t130 37q95 0 162 -64t67 -159q0 -106 -80.5 -180t-191.5 -74h-72l18 191h70q24 0 38.5 13t14.5 34q0 18 -12 28.5
t-31 10.5t-32.5 -13t-18.5 -33z" />
    <glyph glyph-name="uni1EDF" unicode="&#x1edf;" horiz-adv-x="1214" 
d="M561 -20q-90 0 -179.5 32t-165.5 92.5t-123.5 160t-47.5 222.5q0 168 83 306t222.5 215t304.5 77h189q68 0 112 38.5t48 105.5l4 51h241l-14 -135q-7 -82 -52.5 -145t-121.5 -99q110 -133 110 -326q0 -167 -83 -304.5t-222.5 -214t-304.5 -76.5zM352 498q0 -112 69 -175
t157 -63q120 0 203 82.5t83 222.5q0 113 -68.5 176.5t-156.5 63.5q-121 0 -204 -83t-83 -224zM487 1534q28 61 87.5 98t130.5 37q95 0 162 -64t67 -159q0 -106 -80.5 -180t-191.5 -74h-72l18 190h70q23 0 38 13t15 35q0 18 -12 28t-31 10t-32.5 -12.5t-18.5 -32.5z" />
    <glyph glyph-name="uni1EE0" unicode="&#x1ee0;" horiz-adv-x="1667" 
d="M780 -20q-195 0 -350.5 80.5t-246.5 234.5t-91 356q0 171 67 324.5t179.5 262.5t266.5 173t323 64h434q68 0 110.5 38t49.5 105l4 51h241l-14 -135q-12 -112 -91.5 -187t-205.5 -94q160 -181 160 -450q0 -171 -67.5 -324.5t-180.5 -262t-266.5 -172.5t-321.5 -64z
M426 684q0 -181 108.5 -289t278.5 -108q196 0 333.5 139.5t137.5 343.5q0 181 -109 289t-278 108q-197 0 -334 -139t-137 -344zM580 1616q10 126 75.5 195t157.5 69q41 0 80 -16t63.5 -35t52.5 -35t50 -16q25 0 44.5 15.5t20.5 45.5h213q-10 -124 -76.5 -193t-158.5 -69
q-40 0 -78 15.5t-61.5 34.5t-51 34.5t-49.5 15.5q-25 0 -46.5 -15.5t-22.5 -45.5h-213z" />
    <glyph glyph-name="uni1EE1" unicode="&#x1ee1;" horiz-adv-x="1214" 
d="M561 -20q-90 0 -179.5 32t-165.5 92.5t-123.5 160t-47.5 222.5q0 168 83 306t222.5 215t304.5 77h189q68 0 112 38.5t48 105.5l4 43q-69 -84 -172 -84q-40 0 -78 15.5t-61.5 34.5t-51 34.5t-49.5 15.5q-25 0 -47 -15.5t-23 -45.5h-213q10 126 76 195t158 69q41 0 80 -16
t63.5 -35t52.5 -35t50 -16q25 0 44.5 15.5t20.5 45.5h213q-9 -103 -57 -170h235l-14 -135q-7 -82 -52.5 -145t-121.5 -99q110 -133 110 -326q0 -167 -83 -304.5t-222.5 -214t-304.5 -76.5zM352 498q0 -112 69 -175t157 -63q120 0 203 82.5t83 222.5q0 113 -68.5 176.5
t-156.5 63.5q-121 0 -204 -83t-83 -224z" />
    <glyph glyph-name="uni1EE2" unicode="&#x1ee2;" horiz-adv-x="1667" 
d="M780 -20q-195 0 -350.5 80.5t-246.5 234.5t-91 356q0 171 67 324.5t179.5 262.5t266.5 173t323 64h434q68 0 110.5 38t49.5 105l4 51h241l-14 -135q-12 -112 -91.5 -187t-205.5 -94q160 -181 160 -450q0 -171 -67.5 -324.5t-180.5 -262t-266.5 -172.5t-321.5 -64z
M426 684q0 -181 108.5 -289t278.5 -108q196 0 333.5 139.5t137.5 343.5q0 181 -109 289t-278 108q-197 0 -334 -139t-137 -344zM610 -389l27 262h256l-27 -262h-256z" />
    <glyph glyph-name="uni1EE3" unicode="&#x1ee3;" horiz-adv-x="1214" 
d="M561 -20q-90 0 -179.5 32t-165.5 92.5t-123.5 160t-47.5 222.5q0 168 83 306t222.5 215t304.5 77h189q68 0 112 38.5t48 105.5l4 51h241l-14 -135q-7 -82 -52.5 -145t-121.5 -99q110 -133 110 -326q0 -167 -83 -304.5t-222.5 -214t-304.5 -76.5zM352 498q0 -112 69 -175
t157 -63q120 0 203 82.5t83 222.5q0 113 -68.5 176.5t-156.5 63.5q-121 0 -204 -83t-83 -224zM385 -389l27 262h256l-27 -262h-256z" />
    <glyph glyph-name="uni1EE4" unicode="&#x1ee4;" horiz-adv-x="1316" 
d="M612 -31q-117 0 -217 38.5t-170.5 109t-105.5 176.5t-21 233l99 928h323l-98 -942q-6 -53 5 -96t33 -69t53 -43.5t62 -24.5t64 -7q43 0 82 12t77 39t64 78.5t33 122.5l98 930h324l-98 -940q-18 -168 -106.5 -293.5t-218.5 -188.5t-282 -63zM436 -389l27 262h256l-27 -262
h-256z" />
    <glyph glyph-name="uni1EE5" unicode="&#x1ee5;" horiz-adv-x="1222" 
d="M1182 1065l-111 -1065h-317l14 133q-118 -153 -326 -153q-82 0 -150 26.5t-119.5 79.5t-75 143.5t-11.5 208.5l66 627h317l-59 -571q-11 -103 35 -167.5t143 -64.5q99 0 151.5 62.5t65.5 169.5l59 571h318zM387 -389l27 262h256l-27 -262h-256z" />
    <glyph glyph-name="uni1EE6" unicode="&#x1ee6;" horiz-adv-x="1316" 
d="M612 -31q-117 0 -217 38.5t-170.5 109t-105.5 176.5t-21 233l99 928h323l-98 -942q-6 -53 5 -96t33 -69t53 -43.5t62 -24.5t64 -7q43 0 82 12t77 39t64 78.5t33 122.5l98 930h324l-98 -940q-18 -168 -106.5 -293.5t-218.5 -188.5t-282 -63zM580 1923q28 61 87 98t130 37
q95 0 162 -64t67 -159q0 -106 -80.5 -180t-191.5 -74h-72l18 191h70q24 0 38.5 13t14.5 34q0 18 -12 28.5t-31 10.5t-32.5 -13t-18.5 -33z" />
    <glyph glyph-name="uni1EE7" unicode="&#x1ee7;" horiz-adv-x="1222" 
d="M1182 1065l-111 -1065h-317l14 133q-118 -153 -326 -153q-82 0 -150 26.5t-119.5 79.5t-75 143.5t-11.5 208.5l66 627h317l-59 -571q-11 -103 35 -167.5t143 -64.5q99 0 151.5 62.5t65.5 169.5l59 571h318zM492 1534q28 61 87 98t130 37q95 0 162 -64t67 -159
q0 -106 -80.5 -180t-191.5 -74h-72l18 190h70q23 0 38 13t15 35q0 18 -12 28t-31 10t-32.5 -12.5t-18.5 -32.5z" />
    <glyph glyph-name="uni1EE8" unicode="&#x1ee8;" horiz-adv-x="1316" 
d="M612 -31q-117 0 -217 38.5t-170.5 109t-105.5 176.5t-21 233l99 928h323l-98 -942q-6 -53 5 -96t33 -69t53 -43.5t62 -24.5t64 -7q43 0 82 12t77 39t64 78.5t33 122.5l98 930h207q142 0 154 125l10 90h242l-17 -174q-13 -112 -92.5 -187t-204.5 -94l-73 -700
q-18 -168 -106.5 -293.5t-218.5 -188.5t-282 -63zM633 1581l184 324h258l-188 -324h-254z" />
    <glyph glyph-name="uni1EE9" unicode="&#x1ee9;" horiz-adv-x="1222" 
d="M545 1192l184 324h258l-188 -324h-254zM86 438l66 627h317l-59 -571q-11 -103 35 -167.5t143 -64.5q99 0 151.5 62.5t65.5 169.5l59 571h156q142 0 154 125l10 90h241l-16 -174q-12 -101 -79 -172.5t-173 -97.5l-86 -836h-317l14 133q-118 -153 -326 -153
q-82 0 -150 26.5t-119.5 79.5t-75 143.5t-11.5 208.5z" />
    <glyph glyph-name="uni1EEA" unicode="&#x1eea;" horiz-adv-x="1316" 
d="M612 -31q-117 0 -217 38.5t-170.5 109t-105.5 176.5t-21 233l99 928h323l-98 -942q-6 -53 5 -96t33 -69t53 -43.5t62 -24.5t64 -7q43 0 82 12t77 39t64 78.5t33 122.5l98 930h207q142 0 154 125l10 90h242l-17 -174q-13 -112 -92.5 -187t-204.5 -94l-73 -700
q-18 -168 -106.5 -293.5t-218.5 -188.5t-282 -63zM440 1905h258l185 -324h-254z" />
    <glyph glyph-name="uni1EEB" unicode="&#x1eeb;" horiz-adv-x="1222" 
d="M541 1192l-189 324h258l185 -324h-254zM86 438l66 627h317l-59 -571q-11 -103 35 -167.5t143 -64.5q99 0 151.5 62.5t65.5 169.5l59 571h156q142 0 154 125l10 90h241l-16 -174q-12 -101 -79 -172.5t-173 -97.5l-86 -836h-317l14 133q-118 -153 -326 -153
q-82 0 -150 26.5t-119.5 79.5t-75 143.5t-11.5 208.5z" />
    <glyph glyph-name="uni1EEC" unicode="&#x1eec;" horiz-adv-x="1316" 
d="M612 -31q-117 0 -217 38.5t-170.5 109t-105.5 176.5t-21 233l99 928h323l-98 -942q-6 -53 5 -96t33 -69t53 -43.5t62 -24.5t64 -7q43 0 82 12t77 39t64 78.5t33 122.5l98 930h207q142 0 154 125l10 90h242l-17 -174q-13 -112 -92.5 -187t-204.5 -94l-73 -700
q-18 -168 -106.5 -293.5t-218.5 -188.5t-282 -63zM580 1923q28 61 87 98t130 37q95 0 162 -64t67 -159q0 -106 -80.5 -180t-191.5 -74h-72l18 191h70q24 0 38.5 13t14.5 34q0 18 -12 28.5t-31 10.5t-32.5 -13t-18.5 -33z" />
    <glyph glyph-name="uni1EED" unicode="&#x1eed;" horiz-adv-x="1222" 
d="M594 1192l18 190h70q23 0 38 13t15 35q0 18 -12 28t-31 10t-32.5 -12.5t-18.5 -32.5l-149 111q28 61 87 98t130 37q95 0 162 -64t67 -159q0 -106 -80.5 -180t-191.5 -74h-72zM86 438l66 627h317l-59 -571q-11 -103 35 -167.5t143 -64.5q99 0 151.5 62.5t65.5 169.5
l59 571h156q142 0 154 125l10 90h241l-16 -174q-12 -101 -79 -172.5t-173 -97.5l-86 -836h-317l14 133q-118 -153 -326 -153q-82 0 -150 26.5t-119.5 79.5t-75 143.5t-11.5 208.5z" />
    <glyph glyph-name="uni1EEE" unicode="&#x1eee;" horiz-adv-x="1316" 
d="M612 -31q-117 0 -217 38.5t-170.5 109t-105.5 176.5t-21 233l99 928h323l-98 -942q-6 -53 5 -96t33 -69t53 -43.5t62 -24.5t64 -7q43 0 82 12t77 39t64 78.5t33 122.5l98 930h207q142 0 154 125l10 90h242l-17 -174q-13 -112 -92.5 -187t-204.5 -94l-73 -700
q-18 -168 -106.5 -293.5t-218.5 -188.5t-282 -63zM406 1616q10 126 75.5 195t157.5 69q41 0 80 -16t63.5 -35t52.5 -35t50 -16q25 0 44.5 15.5t20.5 45.5h213q-10 -124 -76.5 -193t-158.5 -69q-40 0 -78 15.5t-61.5 34.5t-51 34.5t-49.5 15.5q-25 0 -47 -15.5t-23 -45.5
h-212z" />
    <glyph glyph-name="uni1EEF" unicode="&#x1eef;" horiz-adv-x="1222" 
d="M840 1188q-40 0 -78 15.5t-61.5 34.5t-51 34.5t-49.5 15.5q-25 0 -47 -15.5t-23 -45.5h-213q10 126 76 195t158 69q41 0 80 -16t63.5 -35t52.5 -35t50 -16q25 0 44.5 15.5t20.5 45.5h213q-10 -124 -76.5 -193t-158.5 -69zM86 438l66 627h317l-59 -571q-11 -103 35 -167.5
t143 -64.5q99 0 151.5 62.5t65.5 169.5l59 571h156q142 0 154 125l10 90h241l-16 -174q-12 -101 -79 -172.5t-173 -97.5l-86 -836h-317l14 133q-118 -153 -326 -153q-82 0 -150 26.5t-119.5 79.5t-75 143.5t-11.5 208.5z" />
    <glyph glyph-name="uni1EF0" unicode="&#x1ef0;" horiz-adv-x="1316" 
d="M612 -31q-117 0 -217 38.5t-170.5 109t-105.5 176.5t-21 233l99 928h323l-98 -942q-6 -53 5 -96t33 -69t53 -43.5t62 -24.5t64 -7q43 0 82 12t77 39t64 78.5t33 122.5l98 930h207q142 0 154 125l10 90h242l-17 -174q-13 -112 -92.5 -187t-204.5 -94l-73 -700
q-18 -168 -106.5 -293.5t-218.5 -188.5t-282 -63zM436 -389l27 262h256l-27 -262h-256z" />
    <glyph glyph-name="uni1EF1" unicode="&#x1ef1;" horiz-adv-x="1222" 
d="M387 -389l27 262h256l-27 -262h-256zM86 438l66 627h317l-59 -571q-11 -103 35 -167.5t143 -64.5q99 0 151.5 62.5t65.5 169.5l59 571h156q142 0 154 125l10 90h241l-16 -174q-12 -101 -79 -172.5t-173 -97.5l-86 -836h-317l14 133q-118 -153 -326 -153q-82 0 -150 26.5
t-119.5 79.5t-75 143.5t-11.5 208.5z" />
    <glyph glyph-name="Ygrave" unicode="&#x1ef2;" horiz-adv-x="1454" 
d="M504 0l65 563l-438 891h354l271 -598l385 598h375l-623 -891l-66 -563h-323zM502 1905h258l184 -324h-254z" />
    <glyph glyph-name="ygrave" unicode="&#x1ef3;" horiz-adv-x="1236" 
d="M193 -389l217 409l-330 1045h323l197 -690l340 690h328l-760 -1454h-315zM340 1516h258l184 -324h-254z" />
    <glyph glyph-name="uni1EF4" unicode="&#x1ef4;" horiz-adv-x="1454" 
d="M504 0l65 563l-438 891h354l271 -598l385 598h375l-623 -891l-66 -563h-323zM492 -389l26 262h256l-26 -262h-256z" />
    <glyph glyph-name="uni1EF5" unicode="&#x1ef5;" horiz-adv-x="1236" 
d="M193 -389l217 409l-330 1045h323l197 -690l340 690h328l-760 -1454h-315zM719 -389l26 262h256l-26 -262h-256z" />
    <glyph glyph-name="uni1EF6" unicode="&#x1ef6;" horiz-adv-x="1454" 
d="M504 0l65 563l-438 891h354l271 -598l385 598h375l-623 -891l-66 -563h-323zM639 1923q28 61 87 98t130 37q95 0 162 -64t67 -159q0 -106 -80.5 -180t-191.5 -74h-72l19 191h69q24 0 39 13t15 34q0 18 -12 28.5t-31 10.5t-33 -13t-19 -33z" />
    <glyph glyph-name="uni1EF7" unicode="&#x1ef7;" horiz-adv-x="1236" 
d="M193 -389l217 409l-330 1045h323l197 -690l340 690h328l-760 -1454h-315zM477 1534q28 61 87 98t130 37q95 0 162.5 -64t67.5 -159q0 -106 -81 -180t-192 -74h-71l18 190h70q23 0 38 13t15 35q0 18 -12 28t-31 10t-32.5 -12.5t-18.5 -32.5z" />
    <glyph glyph-name="uni1EF8" unicode="&#x1ef8;" horiz-adv-x="1454" 
d="M504 0l65 563l-438 891h354l271 -598l385 598h375l-623 -891l-66 -563h-323zM465 1616q10 126 75.5 195t157.5 69q41 0 80 -16t63.5 -35t52.5 -35t50 -16q25 0 45 15.5t21 45.5h213q-10 -124 -77 -193t-159 -69q-51 0 -96 25t-80.5 50t-62.5 25q-25 0 -47 -15.5
t-23 -45.5h-213z" />
    <glyph glyph-name="uni1EF9" unicode="&#x1ef9;" horiz-adv-x="1236" 
d="M193 -389l217 409l-330 1045h323l197 -690l340 690h328l-760 -1454h-315zM303 1227q10 126 76 195t158 69q52 0 98.5 -25.5t83 -51t63.5 -25.5q25 0 45 15.5t21 45.5h213q-10 -124 -77 -193t-159 -69q-51 0 -96 25t-80.5 50t-62.5 25q-25 0 -47 -15.5t-23 -45.5h-213z
" />
    <glyph glyph-name="endash" unicode="&#x2013;" horiz-adv-x="1232" 
d="M33 426l26 266h1045l-27 -266h-1044z" />
    <glyph glyph-name="emdash" unicode="&#x2014;" horiz-adv-x="1355" 
d="M33 426l26 266h1168l-27 -266h-1167z" />
    <glyph glyph-name="quoteleft" unicode="&#x2018;" horiz-adv-x="563" 
d="M616 1454l-262 -565h-272l264 565h270z" />
    <glyph glyph-name="quoteright" unicode="&#x2019;" horiz-adv-x="563" 
d="M82 889l262 565h272l-264 -565h-270z" />
    <glyph glyph-name="quotesinglbase" unicode="&#x201a;" horiz-adv-x="569" 
d="M-43 -270l262 565h273l-265 -565h-270z" />
    <glyph glyph-name="quotedblleft" unicode="&#x201c;" horiz-adv-x="944" 
d="M616 1454l-262 -565h-272l264 565h270zM463 889l264 565h270l-262 -565h-272z" />
    <glyph glyph-name="quotedblright" unicode="&#x201d;" horiz-adv-x="944" 
d="M463 889l262 565h272l-264 -565h-270zM82 889l262 565h272l-264 -565h-270z" />
    <glyph glyph-name="quotedblbase" unicode="&#x201e;" horiz-adv-x="950" 
d="M338 -270l262 565h272l-264 -565h-270zM-43 -270l262 565h273l-265 -565h-270z" />
    <glyph glyph-name="dagger" unicode="&#x2020;" horiz-adv-x="763" 
d="M336 659l-2 326h-219l24 205h201l2 264h276l-51 -264h201l-25 -205h-217l-67 -326h-123z" />
    <glyph glyph-name="daggerdbl" unicode="&#x2021;" horiz-adv-x="761" 
d="M348 786l-8 199h-225l22 205h207l-2 264h274l-57 -264h207l-23 -205h-225l-47 -199h-123zM37 264l20 205h226l49 199h123l6 -199h225l-20 -205h-205v-264h-277l62 264h-209z" />
    <glyph glyph-name="bullet" unicode="&#x2022;" horiz-adv-x="485" 
d="M231 453q-73 0 -126.5 53.5t-53.5 126.5t53.5 126.5t126.5 53.5q72 0 125.5 -53.5t53.5 -126.5t-53.5 -126.5t-125.5 -53.5z" />
    <glyph glyph-name="ellipsis" unicode="&#x2026;" horiz-adv-x="1497" 
d="M1208 -10q-78 0 -129 57t-43 137q8 67 62.5 116.5t122.5 49.5q78 0 128.5 -57.5t43.5 -138.5q-8 -66 -63 -115t-122 -49zM25 184q8 67 62 116.5t122 49.5q78 0 128.5 -57.5t43.5 -138.5q-8 -66 -62.5 -115t-121.5 -49q-78 0 -129 57t-43 137zM530 184q8 67 62.5 116.5
t122.5 49.5q78 0 128.5 -57.5t43.5 -138.5q-8 -66 -63 -115t-122 -49q-78 0 -129 57t-43 137z" />
    <glyph glyph-name="perthousand" unicode="&#x2030;" horiz-adv-x="2048" 
d="M1677 -10q-104 0 -172.5 67.5t-68.5 167.5q0 109 79 189t189 80q104 0 173 -68t69 -168q0 -109 -79.5 -188.5t-189.5 -79.5zM102 160l1008 1300l242 -160l-1006 -1300zM143 1196q0 109 79.5 188.5t189.5 79.5q104 0 172.5 -67.5t68.5 -167.5q0 -109 -79 -188.5
t-189 -79.5q-104 0 -173 67.5t-69 167.5zM348 1206q0 -19 13 -31t32 -12q25 0 40.5 17t15.5 39q0 18 -13.5 30.5t-32.5 12.5q-25 0 -40 -17t-15 -39zM821 225q0 109 79.5 189t189.5 80q104 0 172.5 -68t68.5 -168q0 -109 -80 -188.5t-190 -79.5q-103 0 -171.5 67.5
t-68.5 167.5zM1026 236q0 -19 13 -31t32 -12q25 0 40 16.5t15 38.5q0 19 -13 31t-32 12q-25 0 -40 -16.5t-15 -38.5zM1640 236q0 -18 13.5 -30.5t32.5 -12.5q25 0 40 16.5t15 38.5q0 19 -13 31t-32 12q-25 0 -40.5 -16.5t-15.5 -38.5z" />
    <glyph glyph-name="guilsinglleft" unicode="&#x2039;" horiz-adv-x="536" 
d="M434 948l84 -102l-219 -266l166 -267l-109 -102l-274 309l8 117z" />
    <glyph glyph-name="guilsinglright" unicode="&#x203a;" horiz-adv-x="536" 
d="M113 211l-84 102l219 267l-166 266l108 102l275 -309l-8 -117z" />
    <glyph glyph-name="fraction" unicode="&#x2044;" horiz-adv-x="221" 
d="M-506 0l1045 1434h94l-1032 -1434h-107z" />
    <glyph glyph-name="dong" unicode="&#x20ab;" horiz-adv-x="1230" 
d="M463 104q-84 0 -158 28t-131.5 80.5t-91 135.5t-33.5 187q0 143 59.5 265t176 198.5t266.5 76.5q63 0 117.5 -14.5t86 -36t49.5 -42t19 -34.5h6l21 195h-281l23 217h282l11 94h317l-10 -94h70l-23 -217h-70l-110 -1032h-318l13 120h-6q-5 -21 -36 -48.5t-99 -53
t-150 -25.5zM41 -186l20 211h951l-21 -211h-950zM365 578q0 -93 55 -147t151 -54q102 0 166 66t64 159t-55 147t-148 54q-96 0 -164.5 -61t-68.5 -164z" />
    <glyph glyph-name="Euro" unicode="&#x20ac;" horiz-adv-x="1538" 
d="M53 737l17 158h120q78 257 297.5 418.5t495.5 161.5q81 0 157 -16.5t152 -52.5t143 -102t113 -157l-248 -164q-120 184 -339 184q-144 0 -259.5 -73.5t-171.5 -198.5h424l-16 -158h-446q-3 -21 -3 -43v-24h441l-15 -158h-391q45 -106 140.5 -165.5t216.5 -59.5
q107 0 195 45t169 139l215 -164q-236 -327 -620 -327q-256 0 -441.5 143.5t-230.5 388.5h-139l16 158h111q0 21 4 67h-107z" />
    <glyph glyph-name="uni20BD" unicode="&#x20bd;" horiz-adv-x="1228" 
d="M-33 113l31 286h102l6 60h-102l29 289h104l74 706h532q221 0 349 -122t127 -335q0 -240 -163.5 -393t-416.5 -153h-209l-6 -52h438l-31 -286h-438l-12 -113h-324l13 113h-103zM461 748h176q254 0 254 217q1 102 -53 147t-154 45h-178z" />
    <glyph glyph-name="trademark" unicode="&#x2122;" horiz-adv-x="1185" 
d="M612 1085l39 369h109l106 -252l168 252h115l-39 -369h-111l23 185l-115 -185h-84l-75 185l-23 -185h-113zM219 1356l10 98h351l-11 -98h-118l-29 -271h-113l29 271h-119z" />
    <glyph glyph-name="oneeighth" unicode="&#x215b;" horiz-adv-x="1138" 
d="M-59 0l1044 1434h86l-1032 -1434h-98zM94 1395l76 41h76l-56 -535h-75l47 453l-35 -23zM621 162q9 88 100 133q-55 43 -49 111q6 53 53 93t117 40q75 0 115.5 -42.5t35.5 -99.5q-7 -70 -73 -106q82 -42 73 -137q-7 -68 -65.5 -113t-134.5 -45q-77 0 -128 47.5t-44 118.5z
M694 154q-4 -40 25 -67.5t72 -27.5q51 0 86 28.5t41 74.5q4 43 -23 69.5t-74 26.5q-46 0 -84.5 -30t-42.5 -74zM748 397q-3 -29 18.5 -52t52.5 -23q37 0 65 25.5t31 58.5q3 30 -13 49.5t-58 19.5t-67.5 -23t-28.5 -55z" />
    <glyph glyph-name="threeeighths" unicode="&#x215c;" horiz-adv-x="1175" 
d="M-18 0l1042 1434h86l-1030 -1434h-98zM53 1081l78 -4q-5 -50 19.5 -84.5t72.5 -34.5q47 0 84 29t41 74q6 54 -29.5 74t-109.5 20l2 59q66 0 101 25t40 66q3 30 -19.5 50.5t-58.5 20.5q-45 0 -75.5 -30t-36.5 -84l-74 4q6 77 59 125.5t127 48.5q67 0 112.5 -43.5
t39.5 -100.5q-7 -64 -72 -106q35 -15 55.5 -50.5t16.5 -86.5q-7 -68 -67.5 -114t-135.5 -46q-84 0 -132.5 56t-37.5 132zM655 162q9 88 103 133q-57 42 -51 111q6 53 53 93t117 40q76 0 116.5 -43t34.5 -99q-7 -69 -72 -106q83 -44 74 -137q-7 -68 -67 -113t-136 -45
q-77 0 -128 47.5t-44 118.5zM731 154q-4 -40 25 -67.5t71 -27.5q51 0 86 28.5t39 74.5q4 43 -22.5 69.5t-73.5 26.5q-46 0 -83.5 -30t-41.5 -74zM782 397q-3 -29 19 -52t53 -23q37 0 65 25.5t31 58.5q3 30 -13 49.5t-58 19.5t-68 -23t-29 -55z" />
    <glyph glyph-name="fiveeighths" unicode="&#x215d;" horiz-adv-x="1179" 
d="M-20 0l1044 1434h86l-1032 -1434h-98zM47 1022l72 35q-2 -41 26 -70t76 -29q49 0 88 36.5t45 92.5q6 49 -23 84t-69 35q-73 0 -125 -61l-65 18l65 273h283l-6 -66h-213l-31 -119q47 21 92 21q73 0 125 -56t45 -137q-9 -78 -71 -132t-140 -54q-69 0 -117.5 39.5
t-56.5 89.5zM659 162q9 88 101 133q-55 43 -49 111q6 53 53 93t117 40q75 0 115.5 -42.5t35.5 -99.5q-7 -69 -74 -106q83 -42 74 -137q-7 -68 -66 -113t-135 -45q-77 0 -128 47.5t-44 118.5zM733 154q-4 -40 25 -67.5t71 -27.5q51 0 86 28.5t41 74.5q4 43 -22.5 69.5
t-73.5 26.5q-46 0 -84.5 -30t-42.5 -74zM786 397q-3 -29 19 -52t53 -23q37 0 65 25.5t31 58.5q3 30 -13 49.5t-58 19.5t-68 -23t-29 -55z" />
    <glyph glyph-name="seveneighths" unicode="&#x215e;" horiz-adv-x="1136" 
d="M-61 0l1044 1434h86l-1032 -1434h-98zM88 1370l6 66h355l-265 -535h-80l232 469h-248zM618 162q9 88 101 133q-55 43 -49 111q6 53 53 93t117 40q75 0 115.5 -42.5t35.5 -99.5q-7 -70 -73 -106q82 -42 73 -137q-7 -68 -65.5 -113t-134.5 -45q-77 0 -128.5 47.5
t-44.5 118.5zM692 154q-4 -40 25 -67.5t71 -27.5q51 0 86 28.5t41 74.5q5 43 -22 69.5t-74 26.5q-46 0 -84.5 -30t-42.5 -74zM745 397q-3 -29 19 -52t53 -23q37 0 65 25.5t31 58.5q3 30 -13 49.5t-58 19.5t-68 -23t-29 -55z" />
    <glyph glyph-name="partialdiff" unicode="&#x2202;" horiz-adv-x="1114" 
d="M512 -20q-96 0 -183.5 35t-152 95.5t-98.5 150.5t-23 192q13 114 87 218t184 167t223 63q14 0 31 -1l8 1l-361 553h322l317 -491q83 -130 109 -182q85 -172 63 -353q-12 -129 -93.5 -233.5t-197 -159.5t-235.5 -55zM354 426q-9 -76 36.5 -125t127.5 -49q90 0 153 57.5
t70 147.5q5 61 -36 115.5t-125 54.5q-92 0 -155 -60.5t-71 -140.5z" />
    <glyph glyph-name="product" unicode="&#x220f;" horiz-adv-x="1548" 
d="M-4 -389l190 1823h1364l-190 -1823h-313l161 1536h-737l-162 -1536h-313z" />
    <glyph glyph-name="summation" unicode="&#x2211;" horiz-adv-x="1437" 
d="M-4 -389l657 911l-467 912h1254l-29 -285h-747l333 -627l-467 -626h748l-29 -285h-1253z" />
    <glyph glyph-name="minus" unicode="&#x2212;" horiz-adv-x="874" 
d="M84 426l27 266h686l-27 -266h-686z" />
    <glyph glyph-name="radical" unicode="&#x221a;" horiz-adv-x="1789" 
d="M649 -389l-301 856h-260l35 360h467l266 -802l631 1613h328l-789 -2027h-377z" />
    <glyph glyph-name="infinity" unicode="&#x221e;" horiz-adv-x="1679" 
d="M1190 172q-181 0 -369 195q-227 -195 -407 -195q-169 0 -261 104.5t-77 260.5q15 151 131 254.5t285 103.5q182 0 362 -195q231 195 414 195q166 0 258.5 -103t77.5 -255q-15 -155 -130 -260t-284 -105zM324 537q-5 -51 28 -85t90 -34q23 0 34 0.5t40.5 6t51.5 17
t53.5 36t60.5 59.5q-23 35 -49 59t-45.5 35t-46.5 17t-38 6.5t-34 0.5q-57 0 -98.5 -35t-46.5 -83zM993 537q22 -35 48.5 -59.5t46 -36t47.5 -17t39 -6t34 -0.5q58 0 100 34.5t48 84.5q5 49 -29 83.5t-92 34.5q-23 0 -34.5 -0.5t-41 -6.5t-52.5 -17t-54.5 -35.5t-59.5 -58.5
z" />
    <glyph glyph-name="integral" unicode="&#x222b;" horiz-adv-x="831" 
d="M27 -373q-141 0 -203 41l26 246q38 -20 111 -20q75 0 117.5 40.5t48.5 112.5l115 1049q11 97 46 172t79.5 118t100.5 70t102.5 36t91.5 9q136 0 200 -41l-26 -248q-38 21 -113 21q-74 0 -117 -40.5t-49 -111.5l-111 -1050q-11 -97 -45.5 -171.5t-79 -117t-100.5 -70
t-102.5 -36.5t-91.5 -9z" />
    <glyph glyph-name="approxequal" unicode="&#x2248;" horiz-adv-x="1019" 
d="M641 211q-55 0 -96.5 16t-62 35t-48.5 35t-59 16q-71 0 -78 -49h-234q11 122 84.5 198.5t198.5 76.5q45 0 80.5 -10.5t57.5 -25.5t40.5 -30.5t41 -26t48.5 -10.5q69 0 76 49h234q-11 -122 -84 -198t-199 -76zM100 608q11 122 84.5 198.5t198.5 76.5q45 0 80.5 -10.5
t57.5 -25.5t40.5 -30.5t41 -26t48.5 -10.5q69 0 76 49h234q-11 -122 -84 -198t-199 -76q-55 0 -96.5 16t-62 35t-48.5 35t-59 16q-71 0 -78 -49h-234z" />
    <glyph glyph-name="notequal" unicode="&#x2260;" horiz-adv-x="872" 
d="M76 0l98 252h-113l29 266h186l33 82h-211l29 266h285l110 283h273l-111 -283h129l-29 -266h-202l-33 -82h227l-28 -266h-302l-98 -252h-272z" />
    <glyph glyph-name="lessequal" unicode="&#x2264;" horiz-adv-x="849" 
d="M772 322l-661 399l12 92l743 401l-28 -268l-346 -178l309 -176zM51 4l29 266h686l-29 -266h-686z" />
    <glyph glyph-name="greaterequal" unicode="&#x2265;" horiz-adv-x="888" 
d="M72 322l28 270l346 176l-309 178l29 268l661 -401l-12 -92zM37 4l29 266h686l-29 -266h-686z" />
    <glyph glyph-name="lozenge" unicode="&#x25ca;" horiz-adv-x="1277" 
d="M356 0l-245 717l389 717h458l246 -717l-389 -717h-459zM438 717l166 -496l273 496l-166 495z" />
    <glyph glyph-name="uniA78B" unicode="&#xa78b;" horiz-adv-x="509" 
d="M90 479l103 975h317l-102 -975h-318z" />
    <glyph glyph-name="uniA78C" unicode="&#xa78c;" horiz-adv-x="509" 
d="M131 856l62 598h317l-61 -598h-318z" />
    <glyph glyph-name="uni004A0301" horiz-adv-x="1089" 
d="M444 -20q-153 0 -270 62.5t-174 166.5l231 209q32 -51 85.5 -89t129.5 -38q22 0 41 2.5t52 16.5t57.5 38.5t46.5 75t29 119.5l94 911h324l-101 -956q-15 -141 -68.5 -245.5t-131.5 -162t-163.5 -84t-181.5 -26.5zM807 1581l184 324h258l-188 -324h-254z" />
    <glyph glyph-name="Thorn.001" horiz-adv-x="1329" 
d="M41 0l152 1434h323l-29 -277h326q132 0 239.5 -50t172.5 -147.5t65 -224.5q0 -89 -32 -164.5t-86.5 -127t-126.5 -88t-151 -53.5t-161 -17h-338l-30 -285h-324zM424 561h256q142 0 215.5 39.5t73.5 128.5q0 42 -17.5 72t-41 45t-60.5 23.5t-62 10t-61 1.5h-268z" />
    <glyph glyph-name="M.ss01" horiz-adv-x="1859" 
d="M41 0l274 1454h322l283 -1022l485 1022h332l-29 -1454h-334l25 858l-385 -858h-279l-205 858l-151 -858h-338z" />
    <glyph glyph-name="i.loclTRK" horiz-adv-x="512" 
d="M41 0l113 1065h317l-113 -1065h-317zM164 1180l31 311h317l-31 -311h-317z" />
    <glyph glyph-name="uni006A0301" horiz-adv-x="516" 
d="M-283 -395l33 293h64q58 0 97 9t71.5 32.5t51 68t25.5 113.5l99 944h317l-102 -977q-26 -254 -162.5 -368.5t-411.5 -114.5h-82zM186 1192l185 324h258l-189 -324h-254z" />
    <glyph glyph-name="f_t" horiz-adv-x="1462" 
d="M512 813l-84 -813h-317l86 813h-144l27 252h141l4 31q10 98 44 172.5t78 117.5t101.5 70t107.5 36t103 9q121 0 187 -41l-27 -248q-45 21 -110 21q-152 0 -168 -152l-2 -16h383l28 272h318l-29 -272h223l-26 -252h-222l-45 -434q-5 -46 21 -78.5t92 -32.5q44 0 102 17
l-26 -242q-55 -55 -209 -55q-157 0 -239.5 82.5t-63.5 257.5l51 485h-385z" />
    <glyph glyph-name="t_t" horiz-adv-x="1495" 
d="M551 813l-45 -434q-5 -46 20.5 -78.5t91.5 -32.5q45 0 103 17l-27 -242q-55 -55 -209 -55q-157 0 -239.5 82.5t-63.5 257.5l51 485h-159l26 252h158l29 272h317l-29 -272h379l29 272h317l-28 -272h223l-27 -252h-221l-45 -434q-5 -46 21 -78.5t92 -32.5q44 0 102 17
l-26 -242q-55 -55 -209 -55q-157 0 -239.5 82.5t-63.5 257.5l51 485h-379z" />
    <glyph glyph-name="zero.ss01" horiz-adv-x="1337" 
d="M623 -20q-112 0 -207.5 39.5t-168.5 116.5t-115 200.5t-42 281.5q0 176 46 331.5t129.5 272.5t210 185t278.5 68q113 0 209 -39.5t169 -116t114.5 -199t41.5 -278.5q0 -243 -77.5 -436.5t-230.5 -309.5t-357 -116zM397 608q0 -54 6 -101t23 -94.5t43.5 -81t70 -54.5
t99.5 -21q70 0 128 33t97 89t66 131.5t39 159t12 173.5q0 356 -242 356q-71 0 -129 -35t-97 -93t-65.5 -135t-38.5 -159t-12 -168z" />
    <glyph glyph-name="zero.tf" horiz-adv-x="1433" 
d="M668 -20q-112 0 -207.5 39.5t-168.5 116.5t-115 200.5t-42 281.5q0 176 46 331.5t129.5 272.5t210 185t278.5 68q113 0 209 -39.5t169 -116t114.5 -199t41.5 -278.5q0 -243 -77.5 -436.5t-230.5 -309.5t-357 -116zM442 608q0 -54 6 -101t23 -94.5t43.5 -81t70 -54.5
t99.5 -21q70 0 128 33t97 89t66 131.5t39 159t12 173.5q0 356 -242 356q-71 0 -129 -35t-97 -93t-65.5 -135t-38.5 -159t-12 -168z" />
    <glyph glyph-name="one.tf" horiz-adv-x="1433" 
d="M563 0l125 1182h-250l29 272h573l-153 -1454h-324z" />
    </font>
</defs>
</svg>
