<?xml version="1.0" standalone="no"?>
<!DOCTYPE svg PUBLIC "-//W3C//DTD SVG 1.1//EN" "http://www.w3.org/Graphics/SVG/1.1/DTD/svg11.dtd" >
<svg xmlns="http://www.w3.org/2000/svg" xmlns:xlink="http://www.w3.org/1999/xlink" version="1.1">
<metadata>
Created by FontForge 20170731 at Fri Jul 14 11:17:23 2023
 By Aleksey,,,
Copyright (c) 2021 by Connary Fagen. All rights reserved.
</metadata>
<defs>
<font id="VisbyCF-Medium" horiz-adv-x="1185" >
  <font-face 
    font-family="Visby CF Medium"
    font-weight="500"
    font-stretch="normal"
    units-per-em="2048"
    panose-1="0 0 0 0 0 0 0 0 0 0"
    ascent="1638"
    descent="-410"
    x-height="1065"
    cap-height="1454"
    bbox="-389 -539 2202 2265"
    underline-thickness="102"
    underline-position="-358"
    unicode-range="U+0020-FB01"
  />
<missing-glyph horiz-adv-x="1075" 
d="M883 1638v-2150h-682v2150h682zM358 -365h359v72h-219l149 100h70v72h-359v-72h152l-152 -100v-72zM358 -72h359v244h-359v-244zM358 301h359v244h-215v-121h71v49h72v-100h-215v172h-72v-244zM358 592h359v215h-72v-143h-287v-72zM358 715h215v149h144v72h-359v-72h144
v-80h-144v-69zM358 993h359v74h-144v150h-215v-224zM358 1274h359v69h-144v80h144v72h-357v-72h142v-80h-144v-69zM430 0v100h215v-100h-215zM430 1067v78h72v-78h-72z" />
    <glyph glyph-name="fi" unicode="fi" horiz-adv-x="1079" 
d="M172 1176q0 75 19.5 133t50 92t71 56t78.5 30t78 8q105 0 170 -41v-137q-57 29 -129 29q-164 0 -164 -185v-96h612v-1065h-172v924h-440v-924h-174v924h-123v141h123v111zM786 1294v160h172v-160h-172z" />
    <glyph glyph-name="f_f" unicode="ff" horiz-adv-x="1341" 
d="M346 924v-924h-174v924h-123v141h123v117q0 74 19.5 131t49.5 90.5t71.5 55t80 29t80.5 7.5q101 0 166 -41v-137q-62 29 -129 29q-164 0 -164 -185v-96h438v117q0 74 19.5 131t49.5 90.5t71.5 55t80 29t80.5 7.5q101 0 166 -41v-137q-62 29 -129 29q-164 0 -164 -185v-96
h293v-141h-293v-924h-174v924h-438z" />
    <glyph glyph-name=".notdef" horiz-adv-x="1075" 
d="M883 1638v-2150h-682v2150h682zM358 -365h359v72h-219l149 100h70v72h-359v-72h152l-152 -100v-72zM358 -72h359v244h-359v-244zM358 301h359v244h-215v-121h71v49h72v-100h-215v172h-72v-244zM358 592h359v215h-72v-143h-287v-72zM358 715h215v149h144v72h-359v-72h144
v-80h-144v-69zM358 993h359v74h-144v150h-215v-224zM358 1274h359v69h-144v80h144v72h-357v-72h142v-80h-144v-69zM430 0v100h215v-100h-215zM430 1067v78h72v-78h-72z" />
    <glyph glyph-name=".null" horiz-adv-x="0" 
 />
    <glyph glyph-name="nonmarkingreturn" horiz-adv-x="682" 
 />
    <glyph glyph-name="space" unicode=" " horiz-adv-x="438" 
 />
    <glyph glyph-name="space" unicode="&#xa0;" horiz-adv-x="438" 
 />
    <glyph glyph-name="exclam" unicode="!" horiz-adv-x="448" 
d="M131 406v1048h178v-1048h-178zM121 84q0 44 30 73t74 29t73.5 -29t29.5 -73t-29.5 -74t-73.5 -30t-74 30t-30 74z" />
    <glyph glyph-name="quotedbl" unicode="&#x22;" horiz-adv-x="555" 
d="M324 993v461h155v-461h-155zM76 993v461h155v-461h-155z" />
    <glyph glyph-name="numbersign" unicode="#" horiz-adv-x="1126" 
d="M635 0l27 369h-259l-26 -369h-176l26 369h-135v153h146l28 389h-174v154h184l27 369h176l-26 -369h258l26 369h176l-26 -369h147v-154h-157l-29 -389h186v-153h-196l-27 -369h-176zM414 522h258l28 389h-258z" />
    <glyph glyph-name="dollar" unicode="$" horiz-adv-x="884" 
d="M389 0v176q-129 14 -213 89t-106 198l143 39q22 -86 82.5 -135.5t148.5 -49.5q83 0 142 42t59 124q0 63 -43 103.5t-141 81.5l-96 37q-250 102 -250 296q0 112 76.5 186.5t197.5 88.5v178h121v-178q103 -17 173 -78.5t95 -155.5l-137 -41q-52 138 -190 138
q-72 0 -119 -37.5t-47 -102.5q0 -52 36 -92t117 -73l86 -35q70 -28 117.5 -53.5t90 -62.5t63 -86.5t20.5 -113.5q0 -133 -86 -211t-219 -94v-178h-121z" />
    <glyph glyph-name="percent" unicode="%" horiz-adv-x="1429" 
d="M324 0l-131 86l899 1372l131 -86zM72 1212q0 106 74 179t180 73t180 -73t74 -179q0 -105 -74 -178t-180 -73t-180 73t-74 178zM195 1212q0 -58 37.5 -94.5t93.5 -36.5t93.5 36.5t37.5 94.5t-37.5 94.5t-93.5 36.5t-93.5 -36.5t-37.5 -94.5zM850 242q0 106 74 179t180 73
t180 -73t74 -179t-74 -179t-180 -73t-180 73t-74 179zM973 242q0 -58 37.5 -94.5t93.5 -36.5t93.5 36.5t37.5 94.5t-37.5 94.5t-93.5 36.5t-93.5 -36.5t-37.5 -94.5z" />
    <glyph glyph-name="ampersand" unicode="&#x26;" horiz-adv-x="1392" 
d="M584 -20q-134 0 -243 56t-175 164.5t-66 250.5q0 100 32.5 183.5t87.5 139t124 89t145 42.5l-276 549h756v-145h-539l256 -521h-63q-151 0 -249 -87.5t-98 -237.5q0 -101 47.5 -177.5t123.5 -114.5t165 -38q153 0 256 100t103 248v379h315v-141h-153v-469q0 -51 25 -79
t73 -28q40 0 82 19v-137q-37 -37 -121 -37q-86 0 -133 51.5t-47 148.5v45q-50 -112 -161 -182.5t-267 -70.5z" />
    <glyph glyph-name="quotesingle" unicode="'" horiz-adv-x="307" 
d="M76 993v461h155v-461h-155z" />
    <glyph glyph-name="parenleft" unicode="(" horiz-adv-x="559" 
d="M309 -266q-217 388 -217 921q0 507 217 871h166q-207 -377 -207 -871q0 -523 207 -921h-166z" />
    <glyph glyph-name="parenright" unicode=")" horiz-adv-x="559" 
d="M92 -266q207 398 207 921q0 494 -207 871h166q217 -364 217 -871q0 -533 -217 -921h-166z" />
    <glyph glyph-name="asterisk" unicode="*" horiz-adv-x="974" 
d="M618 819l-131 187l-131 -187l-127 82l144 191l-219 61l36 145l228 -67l-6 237h147l-4 -237l229 67l37 -145l-219 -59l143 -193zM457 1126l30 -26l31 26l-8 29h-45z" />
    <glyph glyph-name="plus" unicode="+" horiz-adv-x="907" 
d="M92 506v143h289v289h143v-289h291v-143h-291v-289h-143v289h-289z" />
    <glyph glyph-name="comma" unicode="," horiz-adv-x="438" 
d="M55 -283l162 461h156l-164 -461h-154z" />
    <glyph glyph-name="hyphen" unicode="-" horiz-adv-x="819" 
d="M92 500v143h635v-143h-635z" />
    <glyph glyph-name="period" unicode="." horiz-adv-x="358" 
d="M180 -20q-44 0 -74 30t-30 74t30 73t74 29t73.5 -29t29.5 -73t-29.5 -74t-73.5 -30z" />
    <glyph glyph-name="slash" unicode="/" horiz-adv-x="954" 
d="M111 0l591 1536h183l-592 -1536h-182z" />
    <glyph glyph-name="zero" unicode="0" horiz-adv-x="1667" 
d="M834 -20q-147 0 -281 54.5t-234 151t-159.5 237.5t-59.5 304t59.5 304.5t159.5 237.5t234 151t281 55t281 -55t234 -151t159 -237.5t59 -304.5t-59 -304t-159 -237.5t-234 -151t-281 -54.5zM276 727q0 -129 45.5 -239.5t122 -186t178 -118t212.5 -42.5t212.5 42.5
t177.5 118t121.5 186t45.5 239.5t-45.5 239.5t-121.5 186t-177.5 118t-212.5 42.5t-212.5 -42.5t-178 -118t-122 -186t-45.5 -239.5z" />
    <glyph glyph-name="one" unicode="1" horiz-adv-x="655" 
d="M324 0v1292h-207v162h381v-1454h-174z" />
    <glyph glyph-name="two" unicode="2" horiz-adv-x="1093" 
d="M553 596q16 21 56 70.5t53 66.5t42 56.5t39 57t27.5 49.5t23.5 54.5t11.5 51t5.5 57.5q0 122 -74.5 188t-187.5 66q-118 0 -199.5 -73t-81.5 -214v-37h-174v51q0 191 124 313t333 122q200 0 320 -112t120 -284q0 -38 -7 -76t-15.5 -68t-28 -66.5t-32 -59t-40 -59.5
t-40 -53.5t-44 -54.5t-41.5 -50l-354 -436h604v-156h-913z" />
    <glyph glyph-name="three" unicode="3" horiz-adv-x="1165" 
d="M565 -20q-175 0 -301.5 87.5t-173.5 225.5l131 78q42 -110 132 -174t210 -64q141 0 238.5 86.5t97.5 239.5q0 90 -37 160.5t-99.5 110t-145.5 51.5t-175 -15l324 534h-592v154h848l-346 -561q76 -5 147 -36.5t127.5 -86t90.5 -137.5t34 -182q0 -142 -69 -250.5
t-184.5 -164.5t-256.5 -56z" />
    <glyph glyph-name="four" unicode="4" horiz-adv-x="1132" 
d="M723 0v371h-633v153l633 930h176v-930h154v-153h-154v-371h-176zM268 524h455v684z" />
    <glyph glyph-name="five" unicode="5" horiz-adv-x="1153" 
d="M549 -20q-170 0 -292.5 82t-176.5 212l135 76q32 -85 122 -149t210 -64q144 0 245 92.5t101 247.5q0 154 -97 250t-241 96q-96 0 -174 -42.5t-125 -110.5l-139 55l98 729h705v-154h-570l-63 -448q41 50 121 83.5t178 33.5q95 0 181.5 -34.5t152 -96.5t104.5 -155t39 -204
q0 -224 -147 -361.5t-367 -137.5z" />
    <glyph glyph-name="six" unicode="6" horiz-adv-x="1126" 
d="M561 -20q-199 0 -335 129t-136 340q0 37 4 72.5t14.5 71.5t19 63.5t27.5 63t28.5 54.5t33 54.5t31 46.5t33 46.5t28.5 39.5l355 493h194l-434 -608q77 39 172 39q186 0 313 -124t127 -321q0 -205 -138 -332.5t-337 -127.5zM256 434q0 -134 88.5 -217.5t218.5 -83.5
t218.5 83.5t88.5 217.5q0 135 -88 218t-219 83t-219 -83t-88 -218z" />
    <glyph glyph-name="seven" unicode="7" horiz-adv-x="995" 
d="M190 0l515 1300h-644v154h873l-569 -1454h-175z" />
    <glyph glyph-name="eight" unicode="8" horiz-adv-x="1128" 
d="M565 -20q-126 0 -233.5 52t-174.5 153.5t-67 232.5q0 137 69 238t181 151q-77 51 -120.5 129.5t-43.5 173.5q0 98 46.5 180.5t136.5 133.5t206 51t206 -51t136.5 -133.5t46.5 -180.5q0 -95 -44.5 -173.5t-121.5 -129.5q112 -50 181 -151t69 -238q0 -131 -67 -232.5
t-174 -153.5t-232 -52zM266 426q0 -127 87 -207t212 -80q124 0 210.5 80t86.5 207q0 128 -85.5 208.5t-211.5 80.5q-127 0 -213 -80.5t-86 -208.5zM334 1098q0 -96 66 -163t165 -67q98 0 164 67t66 163q0 95 -64 160t-166 65q-103 0 -167 -65t-64 -160z" />
    <glyph glyph-name="nine" unicode="9" horiz-adv-x="1126" 
d="M565 1475q199 0 335 -129t136 -340q0 -37 -4 -72.5t-14.5 -71.5t-19 -63.5t-27.5 -63t-28.5 -54.5t-33 -54.5t-31 -46.5t-33 -46.5t-28.5 -39.5l-354 -494h-195l434 608q-77 -39 -172 -39q-186 0 -313 124t-127 321q0 205 138 333t337 128zM256 1020q0 -135 88 -218
t219 -83t219 83t88 218q0 134 -88.5 217.5t-218.5 83.5t-218.5 -83.5t-88.5 -217.5z" />
    <glyph glyph-name="colon" unicode=":" horiz-adv-x="411" 
d="M211 -20q-44 0 -74.5 30t-30.5 74t30 73t75 29q44 0 73 -29t29 -73t-29 -74t-73 -30zM106 940q0 44 30 73t75 29q44 0 73 -29t29 -73t-29 -74t-73 -30t-74.5 30t-30.5 74z" />
    <glyph glyph-name="semicolon" unicode=";" horiz-adv-x="466" 
d="M289 836q-44 0 -74.5 30t-30.5 74t30 73t75 29q44 0 73 -29t29 -73t-29 -74t-73 -30zM55 -283l162 461h156l-164 -461h-154z" />
    <glyph glyph-name="less" unicode="&#x3c;" horiz-adv-x="1017" 
d="M946 0l-854 430v125l854 430v-168l-649 -325l649 -322v-170z" />
    <glyph glyph-name="equal" unicode="=" horiz-adv-x="870" 
d="M92 332v143h686v-143h-686zM92 668v143h686v-143h-686z" />
    <glyph glyph-name="greater" unicode="&#x3e;" horiz-adv-x="1017" 
d="M72 0v170l649 322l-649 325v168l854 -430v-125z" />
    <glyph glyph-name="question" unicode="?" horiz-adv-x="1019" 
d="M414 471q0 69 20 126t52 96t71 73t78 64.5t71 63.5t52 78t20 99q0 108 -70.5 178t-191.5 70q-126 0 -202 -77.5t-76 -201.5v-32h-172v32q0 204 122.5 319.5t329.5 115.5q203 0 319.5 -107t116.5 -281q0 -70 -20 -128.5t-52 -98.5t-71 -75t-78 -67t-71 -65.5t-52 -78
t-20 -97.5v-76h-176v70zM395 84q0 44 30 73t75 29q44 0 73 -29t29 -73t-29 -74t-73 -30t-74.5 30t-30.5 74z" />
    <glyph glyph-name="at" unicode="@" horiz-adv-x="1644" 
d="M807 463q86 0 144.5 69t58.5 191q0 121 -58 185.5t-145 64.5q-90 0 -149.5 -65t-59.5 -185q0 -121 60 -190.5t149 -69.5zM100 727q0 165 61 306.5t163 237.5t236 150t280 54q112 0 217 -32.5t193 -96.5t154 -152t103 -206t37 -253q0 -204 -76.5 -305.5t-197.5 -101.5
q-89 0 -144.5 54.5t-64.5 139.5q-30 -83 -107.5 -138.5t-175.5 -55.5q-62 0 -119 24.5t-104 71.5t-74.5 124.5t-27.5 174.5q0 95 27.5 170.5t74 121.5t103.5 69.5t120 23.5q93 0 160.5 -47t93.5 -111l21 140h98v-459q0 -86 30.5 -130t82.5 -44q127 0 127 256
q0 146 -43.5 265t-119.5 195t-175.5 117t-214.5 41q-158 0 -290 -73.5t-212 -213t-80 -317.5q0 -138 46.5 -253t126.5 -191t187.5 -118t229.5 -42q186 0 323 92v-154q-141 -81 -331 -81q-118 0 -228.5 34t-203 99t-161 155t-107 208t-38.5 251z" />
    <glyph glyph-name="A" unicode="A" horiz-adv-x="1409" 
d="M616 1454h177l577 -1454h-190l-131 336h-689l-131 -336h-190zM424 500h561l-280 727z" />
    <glyph glyph-name="B" unicode="B" horiz-adv-x="1173" 
d="M121 0v1454h497q187 0 289.5 -98t102.5 -244q0 -107 -56 -188.5t-159 -116.5q138 -33 218.5 -135t80.5 -256q0 -189 -126 -302.5t-368 -113.5h-479zM297 158h293q163 0 246.5 70.5t83.5 201.5q0 133 -84.5 211t-247.5 78h-291v-561zM297 858h285q123 0 190.5 62.5
t67.5 164.5q0 98 -65 154.5t-189 56.5h-289v-438z" />
    <glyph glyph-name="C" unicode="C" horiz-adv-x="1488" 
d="M842 -20q-203 0 -372 93t-269.5 265t-100.5 389q0 163 59 303.5t159 237.5t236 152t288 55q72 0 142.5 -13.5t147 -44t148.5 -88.5t129 -139l-129 -94q-84 112 -198.5 160.5t-235.5 48.5q-155 0 -283.5 -71t-205 -204t-76.5 -303q0 -128 44.5 -237t121.5 -183
t180.5 -115.5t220.5 -41.5q121 0 234.5 48t197.5 160l129 -94q-57 -81 -128.5 -139t-148 -88t-147 -43.5t-143.5 -13.5z" />
    <glyph glyph-name="D" unicode="D" horiz-adv-x="1351" 
d="M121 0v1454h436q212 0 375 -91.5t251.5 -256.5t88.5 -379t-88.5 -379t-251.5 -256.5t-375 -91.5h-436zM297 168h254q256 0 397.5 151.5t141.5 407.5t-141.5 407.5t-397.5 151.5h-254v-1118z" />
    <glyph glyph-name="E" unicode="E" horiz-adv-x="1009" 
d="M121 0v1454h780v-164h-604v-479h514v-162h-514v-485h623v-164h-799z" />
    <glyph glyph-name="F" unicode="F" horiz-adv-x="993" 
d="M121 0v1454h782v-160h-606v-487h553v-152h-553v-655h-176z" />
    <glyph glyph-name="G" unicode="G" horiz-adv-x="1611" 
d="M838 -20q-200 0 -368 93t-269 265.5t-101 388.5q0 163 59 303.5t159.5 237.5t236.5 152t287 55q72 0 142.5 -13.5t147 -44t148.5 -88.5t129 -139l-127 -94q-84 112 -199 160.5t-237 48.5q-157 0 -285 -70.5t-204 -203.5t-76 -304q0 -128 44.5 -238t121 -185.5t180 -118
t219.5 -42.5q92 0 173 27t148 80t111 140t57 200h-411v149h583q13 -173 -35 -318t-141.5 -240.5t-220.5 -148t-272 -52.5z" />
    <glyph glyph-name="H" unicode="H" horiz-adv-x="1314" 
d="M1018 0v635h-721v-635h-176v1454h176v-655h721v655h176v-1454h-176z" />
    <glyph glyph-name="I" unicode="I" horiz-adv-x="417" 
d="M121 0v1454h176v-1454h-176z" />
    <glyph glyph-name="J" unicode="J" horiz-adv-x="991" 
d="M432 -20q-126 0 -222 51.5t-151 142.5l115 115q94 -139 252 -139q53 0 99 16.5t85 51t61.5 96.5t22.5 145v995h176v-1016q0 -96 -24 -174t-65 -130t-97.5 -87.5t-119.5 -51t-132 -15.5z" />
    <glyph glyph-name="K" unicode="K" horiz-adv-x="1280" 
d="M121 0v1454h176v-790l678 790h205l-578 -670l629 -784h-201l-534 659l-199 -229v-430h-176z" />
    <glyph glyph-name="L" unicode="L" horiz-adv-x="1013" 
d="M121 0v1454h176v-1290h637v-164h-813z" />
    <glyph glyph-name="M" unicode="M" horiz-adv-x="1763" 
d="M121 0v1454h196l564 -1227l565 1227h196v-1454h-176v1104h-10l-508 -1104h-133l-508 1104h-10v-1104h-176z" />
    <glyph glyph-name="N" unicode="N" horiz-adv-x="1421" 
d="M121 0v1454h178l815 -1159h10v1159h176v-1454h-178l-815 1159h-10v-1159h-176z" />
    <glyph glyph-name="O" unicode="O" horiz-adv-x="1677" 
d="M840 -20q-198 0 -366 92.5t-271 265t-103 389.5q0 131 39 248.5t108 207.5t161.5 156.5t203 101t228.5 34.5q147 0 281 -55t235 -151t161 -237.5t60 -304.5t-60 -304t-161 -237.5t-235 -151t-281 -54.5zM281 727q0 -128 46 -238t123 -183t178 -114.5t212 -41.5
q110 0 210.5 41.5t177.5 114.5t123 183t46 238q0 170 -78.5 304t-204.5 204t-274 70q-111 0 -212 -41.5t-178 -115t-123 -183.5t-46 -238z" />
    <glyph glyph-name="P" unicode="P" horiz-adv-x="1175" 
d="M121 0v1454h473q231 0 366.5 -131.5t135.5 -341.5q0 -212 -135 -343.5t-367 -131.5h-297v-506h-176zM297 672h283q157 0 246 79t89 230t-89 230t-246 79h-283v-618z" />
    <glyph glyph-name="Q" unicode="Q" horiz-adv-x="1677" 
d="M1307 0l-74 90q-176 -110 -393 -110q-198 0 -366 92.5t-271 265t-103 389.5q0 131 39 248.5t108 207.5t161.5 156.5t203 101t228.5 34.5q147 0 281 -55t235 -151t161 -237.5t60 -304.5t-58 -301t-161 -238l151 -188h-202zM281 727q0 -128 46 -238t123 -183t178 -114.5
t212 -41.5q153 0 282 75l-309 381h205l227 -280q152 158 152 401q0 170 -78.5 304t-204.5 204t-274 70q-111 0 -212 -41.5t-178 -115t-123 -183.5t-46 -238z" />
    <glyph glyph-name="R" unicode="R" horiz-adv-x="1218" 
d="M946 0l-340 516h-16h-293v-516h-176v1454h469q227 0 361 -131.5t134 -341.5q0 -162 -81 -277t-228 -161l363 -543h-193zM297 672h272q157 0 246.5 79t89.5 230t-89.5 230t-246.5 79h-272v-618z" />
    <glyph glyph-name="S" unicode="S" horiz-adv-x="1093" 
d="M557 -20q-183 0 -316.5 98t-170.5 256l145 67q31 -116 122.5 -187t219.5 -71q122 0 204.5 65.5t82.5 184.5q0 105 -67 165.5t-210 117.5l-96 37q-168 68 -255 162.5t-87 230.5q0 166 119 267.5t299 101.5q168 0 279.5 -86.5t158.5 -217.5l-135 -69q-92 211 -299 211
q-107 0 -176.5 -56.5t-69.5 -152.5q0 -79 54.5 -139.5t179.5 -110.5l98 -39q196 -77 291.5 -172t95.5 -252q0 -97 -38.5 -176.5t-103.5 -130t-148.5 -77.5t-176.5 -27z" />
    <glyph glyph-name="T" unicode="T" horiz-adv-x="1085" 
d="M455 0v1290h-385v164h946v-164h-385v-1290h-176z" />
    <glyph glyph-name="U" unicode="U" horiz-adv-x="1284" 
d="M643 -20q-149 0 -266 61.5t-186.5 185.5t-69.5 293v934h176v-932q0 -184 97.5 -279.5t248.5 -95.5q149 0 246.5 95.5t97.5 279.5v932h176v-934q0 -169 -69.5 -293t-186 -185.5t-264.5 -61.5z" />
    <glyph glyph-name="V" unicode="V" horiz-adv-x="1429" 
d="M627 0l-578 1454h191l475 -1227l475 1227h190l-577 -1454h-176z" />
    <glyph glyph-name="W" unicode="W" horiz-adv-x="2041" 
d="M502 0l-443 1454h187l338 -1143l366 1143h142l366 -1143l338 1143h186l-442 -1454h-141l-379 1149l-377 -1149h-141z" />
    <glyph glyph-name="X" unicode="X" horiz-adv-x="1331" 
d="M1075 0l-409 596l-410 -596h-207l514 745l-487 709h207l383 -557l383 557h206l-487 -709l514 -745h-207z" />
    <glyph glyph-name="Y" unicode="Y" horiz-adv-x="1331" 
d="M578 0v627l-519 827h201l406 -661l405 661h201l-518 -827v-627h-176z" />
    <glyph glyph-name="Z" unicode="Z" horiz-adv-x="1189" 
d="M49 0l799 1290h-758v164h1040l-798 -1290h782v-164h-1065z" />
    <glyph glyph-name="bracketleft" unicode="[" horiz-adv-x="532" 
d="M92 -266v1792h348v-154h-172v-1485h172v-153h-348z" />
    <glyph glyph-name="backslash" unicode="\" horiz-adv-x="954" 
d="M844 0h-182l-592 1536h182z" />
    <glyph glyph-name="bracketright" unicode="]" horiz-adv-x="532" 
d="M440 -266h-348v153h172v1485h-172v154h348v-1792z" />
    <glyph glyph-name="asciicircum" unicode="^" horiz-adv-x="985" 
d="M92 973l342 461h117l342 -461h-170l-229 311l-232 -311h-170z" />
    <glyph glyph-name="underscore" unicode="_" horiz-adv-x="1208" 
d="M92 -154v154h1024v-154h-1024z" />
    <glyph glyph-name="grave" unicode="`" horiz-adv-x="368" 
d="M203 1198l-183 318h150l178 -318h-145z" />
    <glyph glyph-name="a" unicode="a" horiz-adv-x="1290" 
d="M592 -20q-99 0 -191 36t-166.5 102.5t-119.5 174t-45 239.5t45 239.5t119.5 174.5t166.5 103t191 36q142 0 250 -65t149 -156h6v201h172v-1065h-172v201h-6q-41 -91 -149 -156t-250 -65zM242 532q0 -95 32.5 -172.5t86.5 -125t121 -72.5t139 -25q74 0 141.5 25.5t122 73
t87 124.5t32.5 172t-32.5 172t-87 125t-122 73.5t-141.5 25.5q-72 0 -139 -25.5t-121 -73t-86.5 -125t-32.5 -172.5z" />
    <glyph glyph-name="b" unicode="b" horiz-adv-x="1290" 
d="M121 1454h172v-590h6q41 91 149 156t250 65q99 0 191 -36t167 -103t120 -174.5t45 -239.5t-45 -239.5t-120 -174t-167 -102.5t-191 -36q-142 0 -250 65t-149 156h-6v-201h-172v1454zM287 532q0 -95 32.5 -172t87 -124.5t122 -73t141.5 -25.5q72 0 139 25t121 72.5
t86.5 125t32.5 172.5t-32.5 172.5t-86.5 125t-121 73t-139 25.5q-74 0 -141.5 -25.5t-122 -73.5t-87 -125t-32.5 -172z" />
    <glyph glyph-name="c" unicode="c" horiz-adv-x="1146" 
d="M623 -20q-105 0 -203 37t-176.5 105t-126 174.5t-47.5 235.5t47.5 236t126 175t176.5 105t203 37q142 0 263 -67.5t191 -194.5l-131 -78q-51 86 -136 134.5t-185 48.5q-73 0 -141.5 -27t-122.5 -76t-86.5 -125.5t-32.5 -167.5t32.5 -167.5t86.5 -125t122.5 -75.5
t141.5 -27q100 0 185 48t136 134l131 -77q-70 -126 -191.5 -194t-262.5 -68z" />
    <glyph glyph-name="d" unicode="d" horiz-adv-x="1290" 
d="M1169 0h-172v201h-6q-41 -91 -149 -156t-250 -65q-99 0 -191 36t-166.5 102.5t-119.5 174t-45 239.5t45 239.5t119.5 174.5t166.5 103t191 36q142 0 250 -65t149 -156h6v590h172v-1454zM242 532q0 -95 32.5 -172.5t86.5 -125t121 -72.5t139 -25q74 0 141.5 25.5t122 73
t87 124.5t32.5 172t-32.5 172t-87 125t-122 73.5t-141.5 25.5q-72 0 -139 -25.5t-121 -73t-86.5 -125t-32.5 -172.5z" />
    <glyph glyph-name="e" unicode="e" 
d="M616 -20q-109 0 -207 37t-173.5 105.5t-120.5 174.5t-45 235q0 130 45 237t120 174.5t169 104.5t196 37q83 0 161 -23t147.5 -73t118.5 -120.5t72 -174t11 -225.5h-877q20 -162 131.5 -252t270.5 -90q197 0 317 129l86 -88q-72 -89 -182.5 -138.5t-239.5 -49.5zM233 600
h725q-9 157 -112 246.5t-244 89.5q-90 0 -167.5 -36.5t-133 -114.5t-68.5 -185z" />
    <glyph glyph-name="f" unicode="f" horiz-adv-x="729" 
d="M172 1182q0 74 19.5 131t49.5 90.5t71.5 55t80 29t80.5 7.5q101 0 166 -41v-137q-62 29 -129 29q-164 0 -164 -185v-96h293v-141h-293v-924h-174v924h-123v141h123v117z" />
    <glyph glyph-name="g" unicode="g" horiz-adv-x="1290" 
d="M633 -426q-101 0 -186.5 22t-127.5 52v145q43 -29 118.5 -50.5t168.5 -21.5q81 0 149.5 19t124 58t86.5 105t31 154v144h-10q-39 -91 -147 -156t-248 -65q-78 0 -152.5 22t-141.5 67.5t-118 110t-80.5 155.5t-29.5 197t29.5 197t80.5 155.5t118 110.5t141.5 68t152.5 22
q140 0 248 -65t147 -156h10v201h172v-1006q0 -109 -32.5 -195t-85 -139t-124 -88t-144 -49t-150.5 -14zM242 532q0 -95 32.5 -172.5t86.5 -125t121 -72.5t139 -25q73 0 140.5 25.5t122 73t87.5 124.5t33 172t-33 172t-87.5 125t-122 73.5t-140.5 25.5q-72 0 -139 -25.5
t-121 -73t-86.5 -125t-32.5 -172.5z" />
    <glyph glyph-name="h" unicode="h" 
d="M121 0v1454h172v-563q46 84 136.5 139t219.5 55q86 0 159.5 -27.5t131.5 -81.5t91.5 -143.5t33.5 -205.5v-627h-172v602q0 156 -82.5 241t-214.5 85q-133 0 -218 -85t-85 -241v-602h-172z" />
    <glyph glyph-name="i" unicode="i" horiz-adv-x="413" 
d="M121 0v1065h172v-1065h-172zM121 1294v160h172v-160h-172z" />
    <glyph glyph-name="j" unicode="j" horiz-adv-x="417" 
d="M-184 -395v159h47q63 0 108 11.5t81.5 41t54.5 84t18 136.5v1028h172v-1040q0 -119 -29 -201.5t-86.5 -130t-133.5 -68t-181 -20.5h-51zM125 1294v160h172v-160h-172z" />
    <glyph glyph-name="k" unicode="k" horiz-adv-x="1114" 
d="M121 0v1454h172v-954l512 565h211l-449 -487l498 -578h-201l-405 461l-166 -180v-281h-172z" />
    <glyph glyph-name="l" unicode="l" horiz-adv-x="413" 
d="M121 0v1454h172v-1454h-172z" />
    <glyph glyph-name="m" unicode="m" horiz-adv-x="1822" 
d="M825 0v614q0 148 -66 231t-192 83q-129 0 -201.5 -83.5t-72.5 -230.5v-614h-172v1065h172v-166q42 82 124 134t201 52q116 0 203 -53.5t133 -161.5q43 92 134.5 153.5t228.5 61.5q174 0 279.5 -115t105.5 -343v-627h-172v614q0 148 -66 231t-192 83q-129 0 -202 -83.5
t-73 -230.5v-614h-172z" />
    <glyph glyph-name="n" unicode="n" 
d="M121 0v1065h172v-174q46 84 136.5 139t219.5 55q86 0 159.5 -27.5t131.5 -81.5t91.5 -143.5t33.5 -205.5v-627h-172v602q0 156 -82.5 241t-214.5 85q-133 0 -218 -85t-85 -241v-602h-172z" />
    <glyph glyph-name="o" unicode="o" horiz-adv-x="1245" 
d="M623 -20q-105 0 -203 37t-176.5 105t-126 174.5t-47.5 235.5t47.5 236t126 175t176.5 105t203 37t203 -37t176.5 -105t126 -175t47.5 -236t-47.5 -235.5t-126 -174.5t-176.5 -105t-203 -37zM242 532q0 -92 31.5 -168t85 -124.5t121.5 -75.5t143 -27t143 27t121.5 75.5
t85 124.5t31.5 168q0 121 -54.5 213t-140.5 137.5t-186 45.5t-186 -45.5t-140.5 -137.5t-54.5 -213z" />
    <glyph glyph-name="p" unicode="p" horiz-adv-x="1290" 
d="M121 -389v1454h172v-201h6q41 91 149 156t250 65q99 0 191 -36t167 -103t120 -174.5t45 -239.5t-45 -239.5t-120 -174t-167 -102.5t-191 -36q-142 0 -250 65t-149 156h-6v-590h-172zM287 532q0 -95 32.5 -172t87 -124.5t122 -73t141.5 -25.5q72 0 139 25t121 72.5
t86.5 125t32.5 172.5t-32.5 172.5t-86.5 125t-121 73t-139 25.5q-74 0 -141.5 -25.5t-122 -73.5t-87 -125t-32.5 -172z" />
    <glyph glyph-name="q" unicode="q" horiz-adv-x="1290" 
d="M1169 -389h-172v590h-6q-41 -91 -149 -156t-250 -65q-99 0 -191 36t-166.5 102.5t-119.5 174t-45 239.5t45 239.5t119.5 174.5t166.5 103t191 36q142 0 250 -65t149 -156h6v201h172v-1454zM242 532q0 -95 32.5 -172.5t86.5 -125t121 -72.5t139 -25q74 0 141.5 25.5
t122 73t87 124.5t32.5 172t-32.5 172t-87 125t-122 73.5t-141.5 25.5q-72 0 -139 -25.5t-121 -73t-86.5 -125t-32.5 -172.5z" />
    <glyph glyph-name="r" unicode="r" horiz-adv-x="765" 
d="M121 0v1065h172v-264q32 126 117.5 205t224.5 79q40 0 61 -8v-162q-31 7 -59 7q-152 0 -248 -105.5t-96 -281.5v-535h-172z" />
    <glyph glyph-name="s" unicode="s" horiz-adv-x="874" 
d="M434 -20q-150 0 -250 76t-125 212l144 39q22 -86 82.5 -135t148.5 -49q83 0 142 42t59 124q0 63 -43 103t-141 81l-97 37q-250 102 -250 297q0 124 94.5 201t235.5 77q127 0 216.5 -64.5t117.5 -172.5l-137 -41q-51 137 -191 137q-72 0 -119 -37t-47 -102
q0 -104 154 -166l86 -35q70 -28 117.5 -53.5t90 -62t63 -86t20.5 -113.5q0 -101 -53.5 -173t-135.5 -104t-182 -32z" />
    <glyph glyph-name="t" unicode="t" horiz-adv-x="675" 
d="M451 -12q-111 0 -174.5 56.5t-63.5 172.5v707h-143v141h143v272h172v-272h211v-141h-211v-674q0 -107 113 -107q43 0 96 19v-137q-47 -37 -143 -37z" />
    <glyph glyph-name="u" unicode="u" 
d="M1065 1065v-1065h-172v174q-46 -84 -136.5 -139t-219.5 -55q-86 0 -159.5 27.5t-131.5 81.5t-91.5 143.5t-33.5 205.5v627h172v-602q0 -156 82.5 -241t214.5 -85q133 0 218 85t85 241v602h172z" />
    <glyph glyph-name="v" unicode="v" horiz-adv-x="1163" 
d="M502 0l-453 1065h178l355 -852l354 852h178l-452 -1065h-160z" />
    <glyph glyph-name="w" unicode="w" horiz-adv-x="1888" 
d="M1278 0l-334 856l-334 -856h-159l-402 1065h174l309 -850l330 850h164l330 -850l309 850h174l-401 -1065h-160z" />
    <glyph glyph-name="x" unicode="x" horiz-adv-x="1099" 
d="M39 0l412 545l-385 520h198l287 -393l287 393h198l-387 -520l412 -545h-203l-307 416l-309 -416h-203z" />
    <glyph glyph-name="y" unicode="y" horiz-adv-x="1163" 
d="M322 -389l176 399l-449 1055h178l355 -852l354 852h178l-452 -1065l-170 -389h-170z" />
    <glyph glyph-name="z" unicode="z" horiz-adv-x="1056" 
d="M49 0l674 911h-614v154h899l-674 -911h643v-154h-928z" />
    <glyph glyph-name="braceleft" unicode="{" horiz-adv-x="595" 
d="M365 -266q-74 0 -127.5 46t-53.5 136v565l-92 146l92 149v567q0 90 53.5 136.5t127.5 46.5h139v-154h-72q-33 0 -52.5 -17.5t-19.5 -49.5v-539l-94 -139l94 -135v-537q0 -32 19.5 -50t52.5 -18h72v-153h-139z" />
    <glyph glyph-name="bar" unicode="|" horiz-adv-x="456" 
d="M152 -184v1638h153v-1638h-153z" />
    <glyph glyph-name="braceright" unicode="}" horiz-adv-x="595" 
d="M231 -266h-139v153h72q33 0 52.5 18t19.5 50v537l94 135l-94 139v539q0 32 -19.5 49.5t-52.5 17.5h-72v154h139q74 0 127.5 -46.5t53.5 -136.5v-567l92 -149l-92 -146v-565q0 -90 -53.5 -136t-127.5 -46z" />
    <glyph glyph-name="asciitilde" unicode="~" horiz-adv-x="872" 
d="M584 457q-51 0 -92 20t-62.5 43.5t-52.5 43.5t-64 20q-38 0 -62 -23t-24 -61h-135q0 100 54 156.5t143 56.5q42 0 76 -13t56 -31.5t42 -37.5t44 -32t52 -13q38 0 62 23t24 61h135q0 -100 -53.5 -156.5t-142.5 -56.5z" />
    <glyph glyph-name="exclamdown" unicode="&#xa1;" horiz-adv-x="405" 
d="M131 659h178v-1048h-178v1048zM121 981q0 44 30 74t74 30t73.5 -30t29.5 -74t-29.5 -73t-73.5 -29t-74 29t-30 73z" />
    <glyph glyph-name="cent" unicode="&#xa2;" horiz-adv-x="1146" 
d="M569 -82v217q-98 9 -187 49t-159 106.5t-111.5 166.5t-41.5 219q0 118 41.5 217.5t111.5 166t159 106t187 48.5v220h97v-220q130 -9 238.5 -73.5t172.5 -179.5l-131 -76q-46 75 -119 121t-161 55v-770q88 9 161 55t119 121l131 -76q-64 -116 -172.5 -181.5t-238.5 -74.5
v-217h-97zM242 676q0 -159 95 -261t232 -122v766q-137 -20 -232 -122.5t-95 -260.5z" />
    <glyph glyph-name="sterling" unicode="&#xa3;" horiz-adv-x="1148" 
d="M90 147q108 97 162.5 184.5t54.5 180.5q0 41 -8 74h-203v133h156q-6 12 -29.5 61t-32.5 71t-24 63.5t-21 79t-6 77.5q0 181 128 292.5t331 111.5q207 0 334 -119.5t127 -325.5v-35h-166v33q0 130 -81 211.5t-216 81.5q-128 0 -208.5 -74.5t-80.5 -195.5q0 -42 12 -89
t25.5 -78.5t39 -84.5t36.5 -80h342v-133h-299q8 -36 8 -82q0 -189 -168 -357h737v-147h-950v147z" />
    <glyph glyph-name="currency" unicode="&#xa4;" horiz-adv-x="1161" 
d="M580 516q-153 0 -269 86l-88 -88l-123 121l93 92q-72 115 -72 248q0 139 74 252l-95 94l123 119l90 -90q117 84 267 84q152 0 268 -86l92 92l121 -119l-96 -96q73 -112 73 -250q0 -132 -69 -248l92 -92l-121 -121l-90 90q-118 -88 -270 -88zM276 975q0 -123 85 -213
t219 -90q132 -1 218.5 89.5t86.5 213.5t-86 213t-219 90q-133 1 -218.5 -89.5t-85.5 -213.5z" />
    <glyph glyph-name="yen" unicode="&#xa5;" horiz-adv-x="1331" 
d="M299 502v102h279v23l-519 827h201l406 -661l405 661h201l-518 -827v-23h301v-102h-301v-80h301v-103h-301v-319h-176v319h-279v103h279v80h-279z" />
    <glyph glyph-name="brokenbar" unicode="&#xa6;" horiz-adv-x="456" 
d="M152 881v573h153v-573h-153zM152 -184v573h153v-573h-153z" />
    <glyph glyph-name="section" unicode="&#xa7;" horiz-adv-x="892" 
d="M420 -186q-122 0 -220.5 45.5t-129.5 95.5v221h129v-145q14 -28 76.5 -59t146.5 -31q113 0 184.5 50t71.5 140q0 46 -15 80t-47.5 59t-64.5 40.5t-86 35.5l-113 39q-136 49 -206 125t-70 190q0 139 106 218q-106 89 -106 225q0 134 100.5 213.5t257.5 79.5
q113 0 211 -43.5t123 -87.5v-224h-127v148q-16 25 -73 52.5t-132 27.5q-99 0 -160 -45.5t-61 -124.5q0 -129 176 -193l119 -43q74 -28 125 -55.5t97 -66.5t68.5 -91t22.5 -119q0 -142 -100 -223q100 -84 100 -219q0 -150 -112.5 -232.5t-290.5 -82.5zM215 696
q0 -65 42.5 -112t133.5 -80l119 -43q23 -8 84 -35q84 49 84 147q0 46 -15 80t-47.5 59t-64.5 40.5t-86 35.5l-113 39l-39 15q-98 -43 -98 -146z" />
    <glyph glyph-name="dieresis" unicode="&#xa8;" horiz-adv-x="643" 
d="M459 1292v174h164v-174h-164zM20 1292v174h164v-174h-164z" />
    <glyph glyph-name="copyright" unicode="&#xa9;" horiz-adv-x="1654" 
d="M827 -14q-143 0 -274.5 53.5t-232 148t-160.5 235t-60 304.5t60 304.5t160.5 235t232 148t274.5 53.5t274.5 -53.5t232 -148t160.5 -235t60 -304.5t-60 -304.5t-160.5 -235t-232 -148t-274.5 -53.5zM258 727q0 -132 46.5 -243.5t125 -185.5t181.5 -115.5t216 -41.5
t216 41.5t182 115.5t125.5 185.5t46.5 243.5t-46.5 243.5t-125.5 185.5t-182 115.5t-216 41.5t-216 -41.5t-181.5 -115.5t-125 -185.5t-46.5 -243.5zM420 727q0 191 121.5 312.5t298.5 121.5t288 -121l-90 -104q-73 76 -188 76t-195 -79.5t-80 -205.5t80 -205.5t195 -79.5
t188 76l90 -104q-111 -121 -288 -121t-298.5 121.5t-121.5 312.5z" />
    <glyph glyph-name="ordfeminine" unicode="&#xaa;" horiz-adv-x="800" 
d="M301 778q-104 0 -167.5 53.5t-63.5 149.5q0 179 247 201l195 18q0 68 -43 104.5t-115 36.5q-110 0 -188 -81l-70 75q91 117 266 117q280 0 283 -309v-197q0 -42 4.5 -71.5t10.5 -45t20 -45.5h-119q-23 19 -35 95q-34 -45 -92 -73t-133 -28zM199 983q0 -45 30.5 -70.5
t85.5 -25.5q74 0 125 40.5t72 84.5v88l-197 -19q-116 -12 -116 -98z" />
    <glyph glyph-name="guillemotleft" unicode="&#xab;" horiz-adv-x="819" 
d="M383 254l-301 299v84l301 299l59 -64l-239 -278l239 -279zM408 553v84l301 299l59 -64l-240 -278l240 -279l-59 -61z" />
    <glyph glyph-name="logicalnot" unicode="&#xac;" horiz-adv-x="993" 
d="M901 618v-356h-162v213h-647v143h809z" />
    <glyph glyph-name="uni00AD" unicode="&#xad;" horiz-adv-x="819" 
d="M92 500v143h635v-143h-635z" />
    <glyph glyph-name="registered" unicode="&#xae;" horiz-adv-x="1654" 
d="M827 -14q-143 0 -274.5 53.5t-232 148t-160.5 235t-60 304.5q0 167 60 310t160.5 238.5t232 149.5t274.5 54t274.5 -54t232 -149.5t160.5 -238.5t60 -310q0 -164 -60 -304.5t-160.5 -235t-232 -148t-274.5 -53.5zM258 727q0 -132 46.5 -243.5t125 -185.5t181.5 -115.5
t216 -41.5t216 41.5t182 115.5t125.5 185.5t46.5 243.5q0 136 -46.5 250t-125.5 188.5t-182 116t-216 41.5t-216 -41.5t-181.5 -116t-125 -188.5t-46.5 -250zM571 346v778h281q126 0 194 -69t68 -185q0 -176 -172 -241l207 -283h-135l-195 279h-127v-279h-121zM690 733h148
q76 0 115.5 32t39.5 103q0 74 -40 111t-115 37h-148v-283z" />
    <glyph glyph-name="macron" unicode="&#xaf;" horiz-adv-x="790" 
d="M20 1292v138h750v-138h-750z" />
    <glyph glyph-name="degree" unicode="&#xb0;" horiz-adv-x="786" 
d="M393 874q-125 0 -214 88t-89 214t88.5 212.5t214.5 86.5t214.5 -86.5t88.5 -212.5t-89 -214t-214 -88zM225 1176q0 -70 47 -119t121 -49q73 0 120.5 49.5t47.5 118.5q0 70 -47 118.5t-121 48.5q-75 0 -121.5 -48t-46.5 -119z" />
    <glyph glyph-name="plusminus" unicode="&#xb1;" horiz-adv-x="907" 
d="M92 575v144h289v289h143v-289h291v-144h-291v-288h-143v288h-289zM111 2v143h686v-143h-686z" />
    <glyph glyph-name="uni00B2" unicode="&#xb2;" horiz-adv-x="530" 
d="M86 901v66l139 141q58 60 75 79t31.5 46t14.5 55q0 38 -28.5 64t-65.5 26q-39 0 -67.5 -26.5t-28.5 -75.5v-29h-76v29q0 72 50.5 119t121.5 47q70 0 121 -46.5t51 -107.5q0 -54 -29.5 -96.5t-109.5 -124.5l-97 -100h242v-66h-344z" />
    <glyph glyph-name="uni00B3" unicode="&#xb3;" horiz-adv-x="555" 
d="M276 893q-84 0 -137.5 55.5t-48.5 130.5h78q-6 -48 26 -84.5t82 -36.5q46 0 78.5 28t32.5 71q0 107 -151 94v61q129 6 129 88q0 31 -26 53.5t-63 22.5q-44 0 -70.5 -30t-23.5 -84h-78q-4 77 46 127.5t126 50.5q65 0 114.5 -42.5t49.5 -97.5q0 -65 -61 -108
q38 -16 62 -50.5t24 -84.5q0 -69 -56.5 -116.5t-132.5 -47.5z" />
    <glyph glyph-name="acute" unicode="&#xb4;" horiz-adv-x="344" 
d="M20 1198l189 318h149l-192 -318h-146z" />
    <glyph glyph-name="uni00B5" unicode="&#xb5;" 
d="M121 -389v1454h172v-602q0 -156 82.5 -241t214.5 -85q133 0 218 85t85 241v602h172v-1065h-172v174q-46 -84 -136.5 -139t-219.5 -55q-141 0 -244 69v-438h-172z" />
    <glyph glyph-name="paragraph" unicode="&#xb6;" horiz-adv-x="1515" 
d="M1219 0v1454h176v-1454h-176zM100 981q0 210 135.5 341.5t366.5 131.5h473v-1454h-176v506h-297q-232 0 -367 131.5t-135 343.5zM281 981q0 -151 89 -230t246 -79h283v618h-283q-157 0 -246 -79t-89 -230z" />
    <glyph glyph-name="periodcentered" unicode="&#xb7;" horiz-adv-x="399" 
d="M201 453q-44 0 -74.5 30t-30.5 74t30 73t75 29q44 0 73 -29t29 -73t-29 -74t-73 -30z" />
    <glyph glyph-name="cedilla" unicode="&#xb8;" horiz-adv-x="376" 
d="M33 -362q186 -11 186 96q0 50 -41.5 75.5t-126.5 14.5l-31 51l80 125h138l-60 -86q77 0 127.5 -47t50.5 -123q0 -53 -28 -94t-73.5 -62.5t-103.5 -29.5t-118 6v74z" />
    <glyph glyph-name="uni00B9" unicode="&#xb9;" horiz-adv-x="421" 
d="M188 901v453l-34 -23l-37 64l71 41h76v-535h-76z" />
    <glyph glyph-name="ordmasculine" unicode="&#xba;" horiz-adv-x="780" 
d="M391 782q-78 0 -150 37.5t-121.5 115.5t-49.5 179q0 100 49.5 177.5t121.5 115t150 37.5q56 0 112 -22.5t103 -63t76 -104.5t29 -140q0 -101 -50 -179t-122 -115.5t-148 -37.5zM195 1114q0 -96 59 -152.5t137 -56.5q76 0 135.5 56.5t59.5 152.5q0 94 -59 149.5t-136 55.5
q-78 0 -137 -55.5t-59 -149.5z" />
    <glyph glyph-name="guillemotright" unicode="&#xbb;" horiz-adv-x="819" 
d="M436 254l-59 61l239 279l-239 278l59 64l301 -299v-84zM51 315l240 279l-240 278l60 64l301 -299v-84l-301 -299z" />
    <glyph glyph-name="onequarter" unicode="&#xbc;" horiz-adv-x="1165" 
d="M129 901v453l-35 -23l-37 64l72 41h76v-535h-76zM51 0l893 1434h86l-880 -1434h-99zM713 156l270 379h76v-316h55v-63h-55v-156h-76v156h-270zM850 219h133v195z" />
    <glyph glyph-name="onehalf" unicode="&#xbd;" horiz-adv-x="1114" 
d="M129 901v453l-35 -23l-37 64l72 41h76v-535h-76zM51 0l893 1434h86l-880 -1434h-99zM713 346v29q0 72 50.5 119t121.5 47q70 0 121 -46.5t51 -107.5q0 -54 -29.5 -96.5t-109.5 -124.5l-97 -100h242v-66h-344v66l139 141q58 60 75 79t31.5 46t14.5 55q0 38 -28.5 64
t-65.5 26q-39 0 -68 -26.5t-29 -75.5v-29h-75z" />
    <glyph glyph-name="threequarters" unicode="&#xbe;" horiz-adv-x="1202" 
d="M238 893q-84 0 -138 55.5t-49 130.5h78q-6 -48 26.5 -84.5t82.5 -36.5q45 0 77.5 28t32.5 71q0 107 -151 94v61q129 6 129 88q0 31 -26 53.5t-62 22.5q-44 0 -71 -30t-24 -84h-77q-4 77 46 127.5t126 50.5q65 0 114 -42.5t49 -97.5q0 -65 -61 -108q38 -16 62 -50.5
t24 -84.5q0 -69 -56 -116.5t-132 -47.5zM109 0l892 1434h86l-880 -1434h-98zM750 156l270 379h76v-316h55v-63h-55v-156h-76v156h-270zM887 219h133v195z" />
    <glyph glyph-name="questiondown" unicode="&#xbf;" horiz-adv-x="1019" 
d="M606 594q0 -69 -20 -126t-52 -96t-71 -73t-78 -64.5t-71 -63.5t-52 -78t-20 -99q0 -108 70.5 -178t191.5 -70q126 0 202 77.5t76 201.5v32h172v-32q0 -204 -122.5 -319.5t-329.5 -115.5q-203 0 -319.5 106.5t-116.5 280.5q0 70 20 128.5t52 98.5t71 75.5t78 67.5t71 65.5
t52 78t20 97.5v76h176v-70zM418 981q0 44 29 74t73 30t74.5 -30t30.5 -74t-30 -73t-75 -29q-44 0 -73 29t-29 73z" />
    <glyph glyph-name="Agrave" unicode="&#xc0;" horiz-adv-x="1409" 
d="M616 1454h177l577 -1454h-190l-131 336h-689l-131 -336h-190zM424 500h561l-280 727zM446 1905h150l178 -318h-145z" />
    <glyph glyph-name="Aacute" unicode="&#xc1;" horiz-adv-x="1409" 
d="M616 1454h177l577 -1454h-190l-131 336h-689l-131 -336h-190zM424 500h561l-280 727zM637 1587l188 318h150l-193 -318h-145z" />
    <glyph glyph-name="Acircumflex" unicode="&#xc2;" horiz-adv-x="1409" 
d="M616 1454h177l577 -1454h-190l-131 336h-689l-131 -336h-190zM424 500h561l-280 727zM449 1653l194 252h123l195 -252l-95 -80l-161 213l-162 -213z" />
    <glyph glyph-name="Atilde" unicode="&#xc3;" horiz-adv-x="1409" 
d="M616 1454h177l577 -1454h-190l-131 336h-689l-131 -336h-190zM397 1647q0 100 51 153t125 53q35 0 64.5 -12.5t50.5 -30t40 -35t40 -30t43 -12.5q32 0 53 22.5t21 59.5h127q0 -100 -51 -153.5t-125 -53.5q-42 0 -78.5 19t-57.5 41.5t-48.5 41.5t-53.5 19q-32 0 -53 -22.5
t-21 -59.5h-127zM424 500h561l-280 727z" />
    <glyph glyph-name="Adieresis" unicode="&#xc4;" horiz-adv-x="1409" 
d="M616 1454h177l577 -1454h-190l-131 336h-689l-131 -336h-190zM403 1681v174h164v-174h-164zM424 500h561l-280 727zM842 1681v174h164v-174h-164z" />
    <glyph glyph-name="Aring" unicode="&#xc5;" horiz-adv-x="1409" 
d="M616 1454h177l577 -1454h-190l-131 336h-689l-131 -336h-190zM424 500h561l-280 727zM514 1792q0 80 55 135t138 55q77 0 132.5 -55.5t55.5 -134.5q0 -78 -55.5 -133t-132.5 -55q-83 0 -138 54.5t-55 133.5zM631 1792q0 -31 21 -52.5t53 -21.5q31 0 52 21.5t21 52.5
t-21 52.5t-52 21.5q-32 0 -53 -21.5t-21 -52.5z" />
    <glyph glyph-name="AE" unicode="&#xc6;" horiz-adv-x="1914" 
d="M39 0l981 1454h786v-164h-604v-479h514v-162h-514v-485h623v-164h-799v375h-537l-251 -375h-199zM594 528h432v643z" />
    <glyph glyph-name="Ccedilla" unicode="&#xc7;" horiz-adv-x="1488" 
d="M698 -362q187 -11 187 96q0 50 -41.5 75.5t-126.5 14.5l-31 51l70 109q-137 15 -257 75t-208.5 155t-139.5 228t-51 285q0 163 59 303.5t159 237.5t236 152t288 55q72 0 142.5 -13.5t147 -44t148.5 -88.5t129 -139l-129 -94q-84 112 -198.5 160.5t-235.5 48.5
q-155 0 -283.5 -71t-205 -204t-76.5 -303q0 -128 44.5 -237t121.5 -183t180.5 -115.5t220.5 -41.5q121 0 234.5 48t197.5 160l129 -94q-51 -74 -116 -128.5t-134 -86t-134.5 -47.5t-133.5 -20l-47 -68q77 0 127.5 -47t50.5 -123q0 -53 -28 -94t-74 -62.5t-104 -29.5t-118 6
v74z" />
    <glyph glyph-name="Egrave" unicode="&#xc8;" horiz-adv-x="1009" 
d="M121 0v1454h780v-164h-604v-479h514v-162h-514v-485h623v-164h-799zM266 1905h150l178 -318h-145z" />
    <glyph glyph-name="Eacute" unicode="&#xc9;" horiz-adv-x="1009" 
d="M121 0v1454h780v-164h-604v-479h514v-162h-514v-485h623v-164h-799zM457 1587l188 318h150l-193 -318h-145z" />
    <glyph glyph-name="Ecircumflex" unicode="&#xca;" horiz-adv-x="1009" 
d="M121 0v1454h780v-164h-604v-479h514v-162h-514v-485h623v-164h-799zM268 1653l195 252h123l194 -252l-94 -80l-162 213l-162 -213z" />
    <glyph glyph-name="Edieresis" unicode="&#xcb;" horiz-adv-x="1009" 
d="M121 0v1454h780v-164h-604v-479h514v-162h-514v-485h623v-164h-799zM223 1681v174h164v-174h-164zM662 1681v174h163v-174h-163z" />
    <glyph glyph-name="Igrave" unicode="&#xcc;" horiz-adv-x="417" 
d="M121 0v1454h176v-1454h-176zM-49 1905h149l179 -318h-146z" />
    <glyph glyph-name="Iacute" unicode="&#xcd;" horiz-adv-x="417" 
d="M121 0v1454h176v-1454h-176zM141 1587l189 318h149l-192 -318h-146z" />
    <glyph glyph-name="Icircumflex" unicode="&#xce;" horiz-adv-x="417" 
d="M121 0v1454h176v-1454h-176zM-47 1653l194 252h123l195 -252l-94 -80l-162 213l-162 -213z" />
    <glyph glyph-name="Idieresis" unicode="&#xcf;" horiz-adv-x="417" 
d="M121 0v1454h176v-1454h-176zM-92 1681v174h164v-174h-164zM346 1681v174h164v-174h-164z" />
    <glyph glyph-name="Eth" unicode="&#xd0;" horiz-adv-x="1423" 
d="M193 0v639h-117v143h117v672h436q321 0 517.5 -201t196.5 -526t-196.5 -526t-517.5 -201h-436zM369 168h254q255 0 396.5 151.5t141.5 407.5t-141.5 407.5t-396.5 151.5h-254v-504h342v-143h-342v-471z" />
    <glyph glyph-name="Ntilde" unicode="&#xd1;" horiz-adv-x="1421" 
d="M121 0v1454h178l815 -1159h10v1159h176v-1454h-178l-815 1159h-10v-1159h-176zM403 1647q0 100 51 153t126 53q35 0 64.5 -12.5t50.5 -30t39.5 -35t39.5 -30t43 -12.5q32 0 53 22.5t21 59.5h127q0 -100 -51 -153.5t-125 -53.5q-42 0 -78.5 19t-57.5 41.5t-48.5 41.5
t-53.5 19q-32 0 -53 -22.5t-21 -59.5h-127z" />
    <glyph glyph-name="Ograve" unicode="&#xd2;" horiz-adv-x="1677" 
d="M840 -20q-198 0 -366 92.5t-271 265t-103 389.5q0 131 39 248.5t108 207.5t161.5 156.5t203 101t228.5 34.5q147 0 281 -55t235 -151t161 -237.5t60 -304.5t-60 -304t-161 -237.5t-235 -151t-281 -54.5zM281 727q0 -128 46 -238t123 -183t178 -114.5t212 -41.5
q110 0 210.5 41.5t177.5 114.5t123 183t46 238q0 170 -78.5 304t-204.5 204t-274 70q-111 0 -212 -41.5t-178 -115t-123 -183.5t-46 -238zM580 1905h149l178 -318h-145z" />
    <glyph glyph-name="Oacute" unicode="&#xd3;" horiz-adv-x="1677" 
d="M840 -20q-198 0 -366 92.5t-271 265t-103 389.5q0 131 39 248.5t108 207.5t161.5 156.5t203 101t228.5 34.5q147 0 281 -55t235 -151t161 -237.5t60 -304.5t-60 -304t-161 -237.5t-235 -151t-281 -54.5zM281 727q0 -128 46 -238t123 -183t178 -114.5t212 -41.5
q110 0 210.5 41.5t177.5 114.5t123 183t46 238q0 170 -78.5 304t-204.5 204t-274 70q-111 0 -212 -41.5t-178 -115t-123 -183.5t-46 -238zM770 1587l188 318h150l-193 -318h-145z" />
    <glyph glyph-name="Ocircumflex" unicode="&#xd4;" horiz-adv-x="1677" 
d="M840 -20q-198 0 -366 92.5t-271 265t-103 389.5q0 131 39 248.5t108 207.5t161.5 156.5t203 101t228.5 34.5q147 0 281 -55t235 -151t161 -237.5t60 -304.5t-60 -304t-161 -237.5t-235 -151t-281 -54.5zM281 727q0 -128 46 -238t123 -183t178 -114.5t212 -41.5
q110 0 210.5 41.5t177.5 114.5t123 183t46 238q0 170 -78.5 304t-204.5 204t-274 70q-111 0 -212 -41.5t-178 -115t-123 -183.5t-46 -238zM582 1653l194 252h123l195 -252l-95 -80l-161 213l-162 -213z" />
    <glyph glyph-name="Otilde" unicode="&#xd5;" horiz-adv-x="1677" 
d="M840 -20q-198 0 -366 92.5t-271 265t-103 389.5q0 131 39 248.5t108 207.5t161.5 156.5t203 101t228.5 34.5q147 0 281 -55t235 -151t161 -237.5t60 -304.5t-60 -304t-161 -237.5t-235 -151t-281 -54.5zM281 727q0 -128 46 -238t123 -183t178 -114.5t212 -41.5
q110 0 210.5 41.5t177.5 114.5t123 183t46 238q0 170 -78.5 304t-204.5 204t-274 70q-111 0 -212 -41.5t-178 -115t-123 -183.5t-46 -238zM530 1647q0 100 51 153t126 53q35 0 64.5 -12.5t50.5 -30t39.5 -35t39.5 -30t43 -12.5q32 0 53 22.5t21 59.5h127q0 -100 -51 -153.5
t-125 -53.5q-42 0 -78.5 19t-57.5 41.5t-48.5 41.5t-53.5 19q-32 0 -53 -22.5t-21 -59.5h-127z" />
    <glyph glyph-name="Odieresis" unicode="&#xd6;" horiz-adv-x="1677" 
d="M840 -20q-198 0 -366 92.5t-271 265t-103 389.5q0 131 39 248.5t108 207.5t161.5 156.5t203 101t228.5 34.5q147 0 281 -55t235 -151t161 -237.5t60 -304.5t-60 -304t-161 -237.5t-235 -151t-281 -54.5zM281 727q0 -128 46 -238t123 -183t178 -114.5t212 -41.5
q110 0 210.5 41.5t177.5 114.5t123 183t46 238q0 170 -78.5 304t-204.5 204t-274 70q-111 0 -212 -41.5t-178 -115t-123 -183.5t-46 -238zM537 1681v174h163v-174h-163zM975 1681v174h164v-174h-164z" />
    <glyph glyph-name="multiply" unicode="&#xd7;" horiz-adv-x="798" 
d="M94 770l101 100l204 -204l205 204l101 -100l-205 -205l207 -205l-103 -102l-205 207l-204 -205l-101 100l205 205z" />
    <glyph glyph-name="Oslash" unicode="&#xd8;" horiz-adv-x="1677" 
d="M352 -102l92 192q-159 98 -251.5 263.5t-92.5 373.5q0 131 39 248.5t108 207.5t161.5 156.5t203 101t228.5 34.5q127 0 245 -41l43 92h197l-80 -170q153 -99 242.5 -261.5t89.5 -367.5q0 -163 -60 -304t-161 -237.5t-235 -151t-281 -54.5q-127 0 -234 36l-57 -118h-197z
M281 727q0 -155 64 -279t175 -200l490 1030q-79 27 -170 27q-111 0 -212 -41.5t-178 -115t-123 -183.5t-46 -238zM680 172q80 -22 160 -22q110 0 210.5 41.5t177.5 114.5t123 183t46 238q0 152 -61.5 273.5t-166.5 197.5z" />
    <glyph glyph-name="Ugrave" unicode="&#xd9;" horiz-adv-x="1284" 
d="M643 -20q-149 0 -266 61.5t-186.5 185.5t-69.5 293v934h176v-932q0 -184 97.5 -279.5t248.5 -95.5q149 0 246.5 95.5t97.5 279.5v932h176v-934q0 -169 -69.5 -293t-186 -185.5t-264.5 -61.5zM385 1905h150l178 -318h-146z" />
    <glyph glyph-name="Uacute" unicode="&#xda;" horiz-adv-x="1284" 
d="M643 -20q-149 0 -266 61.5t-186.5 185.5t-69.5 293v934h176v-932q0 -184 97.5 -279.5t248.5 -95.5q149 0 246.5 95.5t97.5 279.5v932h176v-934q0 -169 -69.5 -293t-186 -185.5t-264.5 -61.5zM573 1587l189 318h149l-192 -318h-146z" />
    <glyph glyph-name="Ucircumflex" unicode="&#xdb;" horiz-adv-x="1284" 
d="M643 -20q-149 0 -266 61.5t-186.5 185.5t-69.5 293v934h176v-932q0 -184 97.5 -279.5t248.5 -95.5q149 0 246.5 95.5t97.5 279.5v932h176v-934q0 -169 -69.5 -293t-186 -185.5t-264.5 -61.5zM387 1653l195 252h123l194 -252l-94 -80l-162 213l-162 -213z" />
    <glyph glyph-name="Udieresis" unicode="&#xdc;" horiz-adv-x="1284" 
d="M643 -20q-149 0 -266 61.5t-186.5 185.5t-69.5 293v934h176v-932q0 -184 97.5 -279.5t248.5 -95.5q149 0 246.5 95.5t97.5 279.5v932h176v-934q0 -169 -69.5 -293t-186 -185.5t-264.5 -61.5zM342 1681v174h164v-174h-164zM780 1681v174h164v-174h-164z" />
    <glyph glyph-name="Yacute" unicode="&#xdd;" horiz-adv-x="1331" 
d="M578 0v627l-519 827h201l406 -661l405 661h201l-518 -827v-627h-176zM598 1587l188 318h150l-193 -318h-145z" />
    <glyph glyph-name="Thorn" unicode="&#xde;" horiz-adv-x="1239" 
d="M297 299v-299h-176v1454h176v-291h367q236 0 365.5 -112.5t129.5 -319.5t-129.5 -319.5t-365.5 -112.5h-367zM297 453h352q166 0 250 66t84 212t-84 212.5t-250 66.5h-352v-557z" />
    <glyph glyph-name="germandbls" unicode="&#xdf;" horiz-adv-x="1234" 
d="M121 1024q0 199 124.5 304.5t352.5 105.5q214 0 345.5 -92.5t131.5 -262.5q0 -115 -59 -191.5t-162 -101.5q301 -61 301 -370q0 -205 -128 -310.5t-380 -105.5h-182v154h164q172 0 261 64t89 206q0 281 -371 281h-143v143h133q154 0 227.5 51t73.5 160q0 113 -79 167
t-220 54q-154 0 -230.5 -63.5t-76.5 -198.5v-1018h-172v1024z" />
    <glyph glyph-name="agrave" unicode="&#xe0;" horiz-adv-x="1290" 
d="M592 -20q-99 0 -191 36t-166.5 102.5t-119.5 174t-45 239.5t45 239.5t119.5 174.5t166.5 103t191 36q142 0 250 -65t149 -156h6v201h172v-1065h-172v201h-6q-41 -91 -149 -156t-250 -65zM242 532q0 -95 32.5 -172.5t86.5 -125t121 -72.5t139 -25q74 0 141.5 25.5t122 73
t87 124.5t32.5 172t-32.5 172t-87 125t-122 73.5t-141.5 25.5q-72 0 -139 -25.5t-121 -73t-86.5 -125t-32.5 -172.5zM369 1516h149l178 -318h-145z" />
    <glyph glyph-name="aacute" unicode="&#xe1;" horiz-adv-x="1290" 
d="M592 -20q-99 0 -191 36t-166.5 102.5t-119.5 174t-45 239.5t45 239.5t119.5 174.5t166.5 103t191 36q142 0 250 -65t149 -156h6v201h172v-1065h-172v201h-6q-41 -91 -149 -156t-250 -65zM242 532q0 -95 32.5 -172.5t86.5 -125t121 -72.5t139 -25q74 0 141.5 25.5t122 73
t87 124.5t32.5 172t-32.5 172t-87 125t-122 73.5t-141.5 25.5q-72 0 -139 -25.5t-121 -73t-86.5 -125t-32.5 -172.5zM559 1198l189 318h149l-192 -318h-146z" />
    <glyph glyph-name="acircumflex" unicode="&#xe2;" horiz-adv-x="1290" 
d="M592 -20q-99 0 -191 36t-166.5 102.5t-119.5 174t-45 239.5t45 239.5t119.5 174.5t166.5 103t191 36q142 0 250 -65t149 -156h6v201h172v-1065h-172v201h-6q-41 -91 -149 -156t-250 -65zM242 532q0 -95 32.5 -172.5t86.5 -125t121 -72.5t139 -25q74 0 141.5 25.5t122 73
t87 124.5t32.5 172t-32.5 172t-87 125t-122 73.5t-141.5 25.5q-72 0 -139 -25.5t-121 -73t-86.5 -125t-32.5 -172.5zM371 1264l194 252h123l195 -252l-95 -80l-161 213l-162 -213z" />
    <glyph glyph-name="atilde" unicode="&#xe3;" horiz-adv-x="1290" 
d="M592 -20q-99 0 -191 36t-166.5 102.5t-119.5 174t-45 239.5t45 239.5t119.5 174.5t166.5 103t191 36q142 0 250 -65t149 -156h6v201h172v-1065h-172v201h-6q-41 -91 -149 -156t-250 -65zM242 532q0 -95 32.5 -172.5t86.5 -125t121 -72.5t139 -25q74 0 141.5 25.5t122 73
t87 124.5t32.5 172t-32.5 172t-87 125t-122 73.5t-141.5 25.5q-72 0 -139 -25.5t-121 -73t-86.5 -125t-32.5 -172.5zM319 1257q0 100 51.5 153.5t125.5 53.5q42 0 78.5 -19t57 -41.5t48 -41.5t53.5 -19q32 0 53 22.5t21 59.5h127q0 -100 -51 -153t-125 -53q-35 0 -64.5 12.5
t-50.5 30t-40 35t-40 30t-43 12.5q-32 0 -53 -22.5t-21 -59.5h-127z" />
    <glyph glyph-name="adieresis" unicode="&#xe4;" horiz-adv-x="1290" 
d="M592 -20q-99 0 -191 36t-166.5 102.5t-119.5 174t-45 239.5t45 239.5t119.5 174.5t166.5 103t191 36q142 0 250 -65t149 -156h6v201h172v-1065h-172v201h-6q-41 -91 -149 -156t-250 -65zM242 532q0 -95 32.5 -172.5t86.5 -125t121 -72.5t139 -25q74 0 141.5 25.5t122 73
t87 124.5t32.5 172t-32.5 172t-87 125t-122 73.5t-141.5 25.5q-72 0 -139 -25.5t-121 -73t-86.5 -125t-32.5 -172.5zM326 1292v174h163v-174h-163zM764 1292v174h164v-174h-164z" />
    <glyph glyph-name="aring" unicode="&#xe5;" horiz-adv-x="1290" 
d="M592 -20q-99 0 -191 36t-166.5 102.5t-119.5 174t-45 239.5t45 239.5t119.5 174.5t166.5 103t191 36q142 0 250 -65t149 -156h6v201h172v-1065h-172v201h-6q-41 -91 -149 -156t-250 -65zM242 532q0 -95 32.5 -172.5t86.5 -125t121 -72.5t139 -25q74 0 141.5 25.5t122 73
t87 124.5t32.5 172t-32.5 172t-87 125t-122 73.5t-141.5 25.5q-72 0 -139 -25.5t-121 -73t-86.5 -125t-32.5 -172.5zM436 1403q0 80 55 135t138 55q77 0 132.5 -55.5t55.5 -134.5q0 -78 -55.5 -133.5t-132.5 -55.5q-82 0 -137.5 55t-55.5 134zM553 1403q0 -31 21 -52.5
t53 -21.5q31 0 52 21.5t21 52.5t-21 52.5t-52 21.5q-32 0 -53 -21.5t-21 -52.5z" />
    <glyph glyph-name="ae" unicode="&#xe6;" horiz-adv-x="2134" 
d="M1567 -20q-115 0 -218.5 41t-179.5 118v-139h-172v201h-6q-41 -91 -149 -156t-250 -65q-99 0 -191 36t-166.5 102.5t-119.5 174t-45 239.5t45 239.5t119.5 174.5t166.5 103t191 36q142 0 250 -65t149 -156h6v201h172v-137q74 77 173.5 117t207.5 40q83 0 161 -23
t147.5 -73t118.5 -120.5t72 -174t11 -225.5h-876q20 -162 131 -252t270 -90q95 0 177.5 33t140.5 96l86 -88q-72 -89 -182.5 -138.5t-239.5 -49.5zM242 532q0 -95 32.5 -172.5t86.5 -125t121 -72.5t139 -25q74 0 141.5 25.5t122 73t87 124.5t32.5 172t-32.5 172t-87 125
t-122 73.5t-141.5 25.5q-72 0 -139 -25.5t-121 -73t-86.5 -125t-32.5 -172.5zM1184 600h725q-9 157 -112.5 246.5t-244.5 89.5q-90 0 -167.5 -36.5t-132.5 -114t-68 -185.5z" />
    <glyph glyph-name="ccedilla" unicode="&#xe7;" horiz-adv-x="1146" 
d="M489 -360q187 -11 187 96q0 50 -41.5 75.5t-126.5 14.5l-31 51l70 107q-95 13 -180 55t-152 109.5t-106 166.5t-39 217q0 129 47.5 236t126 175t176.5 105t203 37q142 0 263 -67.5t191 -194.5l-131 -78q-51 86 -136 134.5t-185 48.5q-73 0 -141.5 -27t-122.5 -76
t-86.5 -125.5t-32.5 -167.5t32.5 -167.5t86.5 -125t122.5 -75.5t141.5 -27q100 0 185 48t136 134l131 -77q-63 -113 -167 -179.5t-230 -80.5l-45 -66q77 0 127.5 -47t50.5 -123q0 -53 -28 -94t-74 -62.5t-104 -29.5t-118 6v74z" />
    <glyph glyph-name="egrave" unicode="&#xe8;" 
d="M616 -20q-109 0 -207 37t-173.5 105.5t-120.5 174.5t-45 235q0 130 45 237t120 174.5t169 104.5t196 37q83 0 161 -23t147.5 -73t118.5 -120.5t72 -174t11 -225.5h-877q20 -162 131.5 -252t270.5 -90q197 0 317 129l86 -88q-72 -89 -182.5 -138.5t-239.5 -49.5zM233 600
h725q-9 157 -112 246.5t-244 89.5q-90 0 -167.5 -36.5t-133 -114.5t-68.5 -185zM334 1516h149l179 -318h-146z" />
    <glyph glyph-name="eacute" unicode="&#xe9;" 
d="M616 -20q-109 0 -207 37t-173.5 105.5t-120.5 174.5t-45 235q0 130 45 237t120 174.5t169 104.5t196 37q83 0 161 -23t147.5 -73t118.5 -120.5t72 -174t11 -225.5h-877q20 -162 131.5 -252t270.5 -90q197 0 317 129l86 -88q-72 -89 -182.5 -138.5t-239.5 -49.5zM233 600
h725q-9 157 -112 246.5t-244 89.5q-90 0 -167.5 -36.5t-133 -114.5t-68.5 -185zM524 1198l189 318h149l-192 -318h-146z" />
    <glyph glyph-name="ecircumflex" unicode="&#xea;" 
d="M616 -20q-109 0 -207 37t-173.5 105.5t-120.5 174.5t-45 235q0 130 45 237t120 174.5t169 104.5t196 37q83 0 161 -23t147.5 -73t118.5 -120.5t72 -174t11 -225.5h-877q20 -162 131.5 -252t270.5 -90q197 0 317 129l86 -88q-72 -89 -182.5 -138.5t-239.5 -49.5zM233 600
h725q-9 157 -112 246.5t-244 89.5q-90 0 -167.5 -36.5t-133 -114.5t-68.5 -185zM336 1264l194 252h123l195 -252l-94 -80l-162 213l-162 -213z" />
    <glyph glyph-name="edieresis" unicode="&#xeb;" 
d="M616 -20q-109 0 -207 37t-173.5 105.5t-120.5 174.5t-45 235q0 130 45 237t120 174.5t169 104.5t196 37q83 0 161 -23t147.5 -73t118.5 -120.5t72 -174t11 -225.5h-877q20 -162 131.5 -252t270.5 -90q197 0 317 129l86 -88q-72 -89 -182.5 -138.5t-239.5 -49.5zM233 600
h725q-9 157 -112 246.5t-244 89.5q-90 0 -167.5 -36.5t-133 -114.5t-68.5 -185zM291 1292v174h164v-174h-164zM729 1292v174h164v-174h-164z" />
    <glyph glyph-name="igrave" unicode="&#xec;" horiz-adv-x="413" 
d="M121 0v1065h172v-1065h-172zM-51 1516h149l178 -318h-145z" />
    <glyph glyph-name="iacute" unicode="&#xed;" horiz-adv-x="413" 
d="M121 0v1065h172v-1065h-172zM139 1198l189 318h149l-192 -318h-146z" />
    <glyph glyph-name="icircumflex" unicode="&#xee;" horiz-adv-x="413" 
d="M121 0v1065h172v-1065h-172zM-49 1264l194 252h123l195 -252l-94 -80l-162 213l-162 -213z" />
    <glyph glyph-name="idieresis" unicode="&#xef;" horiz-adv-x="413" 
d="M121 0v1065h172v-1065h-172zM-94 1292v174h164v-174h-164zM344 1292v174h164v-174h-164z" />
    <glyph glyph-name="eth" unicode="&#xf0;" horiz-adv-x="1228" 
d="M578 -20q-98 0 -188.5 34.5t-162 100t-114.5 169.5t-43 232q0 261 139 405t369 144q153 0 223 -70l-129 174l-203 -30v92l139 20l-135 183h197l118 -154l183 27v-93l-121 -18q131 -178 194.5 -336t63.5 -344q0 -129 -43 -232.5t-117 -169t-168.5 -100t-201.5 -34.5z
M246 516q0 -96 29 -171.5t77.5 -120.5t106 -68t119.5 -23q72 0 135 23t112.5 68t78 120t28.5 172q0 202 -95 297.5t-259 95.5q-152 0 -242 -96t-90 -297z" />
    <glyph glyph-name="ntilde" unicode="&#xf1;" 
d="M121 0v1065h172v-174q46 84 136.5 139t219.5 55q86 0 159.5 -27.5t131.5 -81.5t91.5 -143.5t33.5 -205.5v-627h-172v602q0 156 -82.5 241t-214.5 85q-133 0 -218 -85t-85 -241v-602h-172zM307 1257q0 100 51 153.5t125 53.5q42 0 78.5 -19t57.5 -41.5t48.5 -41.5
t53.5 -19q32 0 53 22.5t21 59.5h127q0 -100 -51 -153t-126 -53q-35 0 -64.5 12.5t-50.5 30t-39.5 35t-39.5 30t-43 12.5q-32 0 -53 -22.5t-21 -59.5h-127z" />
    <glyph glyph-name="ograve" unicode="&#xf2;" horiz-adv-x="1245" 
d="M623 -20q-105 0 -203 37t-176.5 105t-126 174.5t-47.5 235.5t47.5 236t126 175t176.5 105t203 37t203 -37t176.5 -105t126 -175t47.5 -236t-47.5 -235.5t-126 -174.5t-176.5 -105t-203 -37zM242 532q0 -92 31.5 -168t85 -124.5t121.5 -75.5t143 -27t143 27t121.5 75.5
t85 124.5t31.5 168q0 121 -54.5 213t-140.5 137.5t-186 45.5t-186 -45.5t-140.5 -137.5t-54.5 -213zM365 1516h149l178 -318h-145z" />
    <glyph glyph-name="oacute" unicode="&#xf3;" horiz-adv-x="1245" 
d="M623 -20q-105 0 -203 37t-176.5 105t-126 174.5t-47.5 235.5t47.5 236t126 175t176.5 105t203 37t203 -37t176.5 -105t126 -175t47.5 -236t-47.5 -235.5t-126 -174.5t-176.5 -105t-203 -37zM242 532q0 -92 31.5 -168t85 -124.5t121.5 -75.5t143 -27t143 27t121.5 75.5
t85 124.5t31.5 168q0 121 -54.5 213t-140.5 137.5t-186 45.5t-186 -45.5t-140.5 -137.5t-54.5 -213zM555 1198l188 318h150l-193 -318h-145z" />
    <glyph glyph-name="ocircumflex" unicode="&#xf4;" horiz-adv-x="1245" 
d="M623 -20q-105 0 -203 37t-176.5 105t-126 174.5t-47.5 235.5t47.5 236t126 175t176.5 105t203 37t203 -37t176.5 -105t126 -175t47.5 -236t-47.5 -235.5t-126 -174.5t-176.5 -105t-203 -37zM242 532q0 -92 31.5 -168t85 -124.5t121.5 -75.5t143 -27t143 27t121.5 75.5
t85 124.5t31.5 168q0 121 -54.5 213t-140.5 137.5t-186 45.5t-186 -45.5t-140.5 -137.5t-54.5 -213zM367 1264l194 252h123l195 -252l-95 -80l-161 213l-162 -213z" />
    <glyph glyph-name="otilde" unicode="&#xf5;" horiz-adv-x="1245" 
d="M623 -20q-105 0 -203 37t-176.5 105t-126 174.5t-47.5 235.5t47.5 236t126 175t176.5 105t203 37t203 -37t176.5 -105t126 -175t47.5 -236t-47.5 -235.5t-126 -174.5t-176.5 -105t-203 -37zM242 532q0 -92 31.5 -168t85 -124.5t121.5 -75.5t143 -27t143 27t121.5 75.5
t85 124.5t31.5 168q0 121 -54.5 213t-140.5 137.5t-186 45.5t-186 -45.5t-140.5 -137.5t-54.5 -213zM315 1257q0 100 51.5 153.5t125.5 53.5q42 0 78.5 -19t57 -41.5t48 -41.5t53.5 -19q32 0 53 22.5t21 59.5h127q0 -100 -51 -153t-125 -53q-35 0 -64.5 12.5t-50.5 30
t-40 35t-40 30t-43 12.5q-32 0 -53 -22.5t-21 -59.5h-127z" />
    <glyph glyph-name="odieresis" unicode="&#xf6;" horiz-adv-x="1245" 
d="M623 -20q-105 0 -203 37t-176.5 105t-126 174.5t-47.5 235.5t47.5 236t126 175t176.5 105t203 37t203 -37t176.5 -105t126 -175t47.5 -236t-47.5 -235.5t-126 -174.5t-176.5 -105t-203 -37zM242 532q0 -92 31.5 -168t85 -124.5t121.5 -75.5t143 -27t143 27t121.5 75.5
t85 124.5t31.5 168q0 121 -54.5 213t-140.5 137.5t-186 45.5t-186 -45.5t-140.5 -137.5t-54.5 -213zM322 1292v174h163v-174h-163zM760 1292v174h164v-174h-164z" />
    <glyph glyph-name="divide" unicode="&#xf7;" horiz-adv-x="958" 
d="M92 500v143h774v-143h-774zM365 279q0 44 30 73t74 29t73 -29t29 -73q0 -45 -29 -75t-73 -30t-74 30.5t-30 74.5zM365 868q0 44 30 73.5t74 29.5t73 -29.5t29 -73.5t-29 -74t-73 -30t-74 30t-30 74z" />
    <glyph glyph-name="oslash" unicode="&#xf8;" horiz-adv-x="1245" 
d="M233 -102l82 170q-113 71 -179 189.5t-66 274.5q0 129 47.5 236t126 175t176.5 105t203 37q89 0 168 -24l59 123h164l-88 -185q114 -69 182 -189t68 -278q0 -129 -47.5 -235.5t-126 -174.5t-176.5 -105t-203 -37q-92 0 -174 26l-52 -108h-164zM242 532q0 -102 39 -182.5
t106 -132.5l334 698q-50 13 -98 13q-100 0 -186 -45.5t-140.5 -137.5t-54.5 -213zM518 152q52 -15 105 -15q75 0 143 27t121.5 75.5t85 124.5t31.5 168q0 104 -40 185.5t-110 134.5z" />
    <glyph glyph-name="ugrave" unicode="&#xf9;" 
d="M1065 1065v-1065h-172v174q-46 -84 -136.5 -139t-219.5 -55q-86 0 -159.5 27.5t-131.5 81.5t-91.5 143.5t-33.5 205.5v627h172v-602q0 -156 82.5 -241t214.5 -85q133 0 218 85t85 241v602h172zM346 1516h150l178 -318h-146z" />
    <glyph glyph-name="uacute" unicode="&#xfa;" 
d="M1065 1065v-1065h-172v174q-46 -84 -136.5 -139t-219.5 -55q-86 0 -159.5 27.5t-131.5 81.5t-91.5 143.5t-33.5 205.5v627h172v-602q0 -156 82.5 -241t214.5 -85q133 0 218 85t85 241v602h172zM535 1198l188 318h149l-192 -318h-145z" />
    <glyph glyph-name="ucircumflex" unicode="&#xfb;" 
d="M1065 1065v-1065h-172v174q-46 -84 -136.5 -139t-219.5 -55q-86 0 -159.5 27.5t-131.5 81.5t-91.5 143.5t-33.5 205.5v627h172v-602q0 -156 82.5 -241t214.5 -85q133 0 218 85t85 241v602h172zM346 1264l195 252h123l194 -252l-94 -80l-162 213l-162 -213z" />
    <glyph glyph-name="udieresis" unicode="&#xfc;" 
d="M1065 1065v-1065h-172v174q-46 -84 -136.5 -139t-219.5 -55q-86 0 -159.5 27.5t-131.5 81.5t-91.5 143.5t-33.5 205.5v627h172v-602q0 -156 82.5 -241t214.5 -85q133 0 218 85t85 241v602h172zM301 1292v174h164v-174h-164zM739 1292v174h164v-174h-164z" />
    <glyph glyph-name="yacute" unicode="&#xfd;" horiz-adv-x="1163" 
d="M322 -389l176 399l-449 1055h178l355 -852l354 852h178l-452 -1065l-170 -389h-170zM528 1198l189 318h149l-192 -318h-146z" />
    <glyph glyph-name="thorn" unicode="&#xfe;" horiz-adv-x="1290" 
d="M121 -389v1843h172v-590h6q41 91 149 156t250 65q99 0 191 -36t167 -103t120 -174.5t45 -239.5t-45 -239.5t-120 -174t-167 -102.5t-191 -36q-142 0 -250 65t-149 156h-6v-590h-172zM287 532q0 -95 32.5 -172t87 -124.5t122 -73t141.5 -25.5q72 0 139 25t121 72.5
t86.5 125t32.5 172.5t-32.5 172.5t-86.5 125t-121 73t-139 25.5q-74 0 -141.5 -25.5t-122 -73.5t-87 -125t-32.5 -172z" />
    <glyph glyph-name="ydieresis" unicode="&#xff;" horiz-adv-x="1163" 
d="M322 -389l176 399l-449 1055h178l355 -852l354 852h178l-452 -1065l-170 -389h-170zM295 1292v174h164v-174h-164zM733 1292v174h164v-174h-164z" />
    <glyph glyph-name="Amacron" unicode="&#x100;" horiz-adv-x="1409" 
d="M616 1454h177l577 -1454h-190l-131 336h-689l-131 -336h-190zM330 1681v138h749v-138h-749zM424 500h561l-280 727z" />
    <glyph glyph-name="amacron" unicode="&#x101;" horiz-adv-x="1290" 
d="M592 -20q-99 0 -191 36t-166.5 102.5t-119.5 174t-45 239.5t45 239.5t119.5 174.5t166.5 103t191 36q142 0 250 -65t149 -156h6v201h172v-1065h-172v201h-6q-41 -91 -149 -156t-250 -65zM242 532q0 -95 32.5 -172.5t86.5 -125t121 -72.5t139 -25q74 0 141.5 25.5t122 73
t87 124.5t32.5 172t-32.5 172t-87 125t-122 73.5t-141.5 25.5q-72 0 -139 -25.5t-121 -73t-86.5 -125t-32.5 -172.5zM252 1292v138h749v-138h-749z" />
    <glyph glyph-name="Abreve" unicode="&#x102;" horiz-adv-x="1409" 
d="M616 1454h177l577 -1454h-190l-131 336h-689l-131 -336h-190zM410 1905h125q0 -78 42.5 -130.5t133.5 -52.5t133.5 52.5t42.5 130.5h125q1 -56 -16.5 -107t-52 -94t-95 -68.5t-137.5 -25.5t-137.5 25.5t-95 68.5t-52 94t-16.5 107zM424 500h561l-280 727z" />
    <glyph glyph-name="abreve" unicode="&#x103;" horiz-adv-x="1290" 
d="M592 -20q-99 0 -191 36t-166.5 102.5t-119.5 174t-45 239.5t45 239.5t119.5 174.5t166.5 103t191 36q142 0 250 -65t149 -156h6v201h172v-1065h-172v201h-6q-41 -91 -149 -156t-250 -65zM242 532q0 -95 32.5 -172.5t86.5 -125t121 -72.5t139 -25q74 0 141.5 25.5t122 73
t87 124.5t32.5 172t-32.5 172t-87 125t-122 73.5t-141.5 25.5q-72 0 -139 -25.5t-121 -73t-86.5 -125t-32.5 -172.5zM332 1516h125q0 -78 42.5 -130.5t133.5 -52.5t133.5 52.5t42.5 130.5h125q1 -56 -16.5 -107t-52 -94t-95 -68.5t-137.5 -25.5t-137.5 25.5t-95 68.5t-52 94
t-16.5 107z" />
    <glyph glyph-name="Aogonek" unicode="&#x104;" horiz-adv-x="1409" 
d="M616 1454h177l577 -1454q-143 -38 -204.5 -95t-61.5 -120q0 -64 52.5 -94.5t113.5 -9.5v-87q-39 -21 -94 -23t-107 14t-88.5 61t-36.5 110q0 84 62 147t172 103l-129 330h-689l-131 -336h-190zM424 500h561l-280 727z" />
    <glyph glyph-name="aogonek" unicode="&#x105;" horiz-adv-x="1290" 
d="M592 -20q-99 0 -191 36t-166.5 102.5t-119.5 174t-45 239.5t45 239.5t119.5 174.5t166.5 103t191 36q142 0 250 -65t149 -156h6v201h172v-1065q-143 -38 -204.5 -95t-61.5 -120q0 -64 52.5 -94.5t113.5 -9.5v-87q-39 -21 -94 -23t-107 14t-88.5 61t-36.5 110
q0 87 68 152.5t186 103.5v189h-6q-41 -91 -149 -156t-250 -65zM242 532q0 -95 32.5 -172.5t86.5 -125t121 -72.5t139 -25q74 0 141.5 25.5t122 73t87 124.5t32.5 172t-32.5 172t-87 125t-122 73.5t-141.5 25.5q-72 0 -139 -25.5t-121 -73t-86.5 -125t-32.5 -172.5z" />
    <glyph glyph-name="Cacute" unicode="&#x106;" horiz-adv-x="1488" 
d="M842 -20q-203 0 -372 93t-269.5 265t-100.5 389q0 163 59 303.5t159 237.5t236 152t288 55q72 0 142.5 -13.5t147 -44t148.5 -88.5t129 -139l-129 -94q-84 112 -198.5 160.5t-235.5 48.5q-155 0 -283.5 -71t-205 -204t-76.5 -303q0 -128 44.5 -237t121.5 -183
t180.5 -115.5t220.5 -41.5q121 0 234.5 48t197.5 160l129 -94q-57 -81 -128.5 -139t-148 -88t-147 -43.5t-143.5 -13.5zM727 1587l188 318h150l-193 -318h-145z" />
    <glyph glyph-name="cacute" unicode="&#x107;" horiz-adv-x="1146" 
d="M623 -20q-105 0 -203 37t-176.5 105t-126 174.5t-47.5 235.5t47.5 236t126 175t176.5 105t203 37q142 0 263 -67.5t191 -194.5l-131 -78q-51 86 -136 134.5t-185 48.5q-73 0 -141.5 -27t-122.5 -76t-86.5 -125.5t-32.5 -167.5t32.5 -167.5t86.5 -125t122.5 -75.5
t141.5 -27q100 0 185 48t136 134l131 -77q-70 -126 -191.5 -194t-262.5 -68zM532 1198l189 318h149l-192 -318h-146z" />
    <glyph glyph-name="Ccircumflex" unicode="&#x108;" horiz-adv-x="1488" 
d="M842 -20q-203 0 -372 93t-269.5 265t-100.5 389q0 163 59 303.5t159 237.5t236 152t288 55q72 0 142.5 -13.5t147 -44t148.5 -88.5t129 -139l-129 -94q-84 112 -198.5 160.5t-235.5 48.5q-155 0 -283.5 -71t-205 -204t-76.5 -303q0 -128 44.5 -237t121.5 -183
t180.5 -115.5t220.5 -41.5q121 0 234.5 48t197.5 160l129 -94q-57 -81 -128.5 -139t-148 -88t-147 -43.5t-143.5 -13.5zM539 1653l194 252h123l195 -252l-95 -80l-161 213l-162 -213z" />
    <glyph glyph-name="ccircumflex" unicode="&#x109;" horiz-adv-x="1146" 
d="M623 -20q-105 0 -203 37t-176.5 105t-126 174.5t-47.5 235.5t47.5 236t126 175t176.5 105t203 37q142 0 263 -67.5t191 -194.5l-131 -78q-51 86 -136 134.5t-185 48.5q-73 0 -141.5 -27t-122.5 -76t-86.5 -125.5t-32.5 -167.5t32.5 -167.5t86.5 -125t122.5 -75.5
t141.5 -27q100 0 185 48t136 134l131 -77q-70 -126 -191.5 -194t-262.5 -68zM344 1264l195 252h123l194 -252l-94 -80l-162 213l-162 -213z" />
    <glyph glyph-name="Cdotaccent" unicode="&#x10a;" horiz-adv-x="1488" 
d="M842 -20q-203 0 -372 93t-269.5 265t-100.5 389q0 163 59 303.5t159 237.5t236 152t288 55q72 0 142.5 -13.5t147 -44t148.5 -88.5t129 -139l-129 -94q-84 112 -198.5 160.5t-235.5 48.5q-155 0 -283.5 -71t-205 -204t-76.5 -303q0 -128 44.5 -237t121.5 -183
t180.5 -115.5t220.5 -41.5q121 0 234.5 48t197.5 160l129 -94q-57 -81 -128.5 -139t-148 -88t-147 -43.5t-143.5 -13.5zM707 1681v174h172v-174h-172z" />
    <glyph glyph-name="cdotaccent" unicode="&#x10b;" horiz-adv-x="1146" 
d="M623 -20q-105 0 -203 37t-176.5 105t-126 174.5t-47.5 235.5t47.5 236t126 175t176.5 105t203 37q142 0 263 -67.5t191 -194.5l-131 -78q-51 86 -136 134.5t-185 48.5q-73 0 -141.5 -27t-122.5 -76t-86.5 -125.5t-32.5 -167.5t32.5 -167.5t86.5 -125t122.5 -75.5
t141.5 -27q100 0 185 48t136 134l131 -77q-70 -126 -191.5 -194t-262.5 -68zM512 1292v174h172v-174h-172z" />
    <glyph glyph-name="Ccaron" unicode="&#x10c;" horiz-adv-x="1488" 
d="M842 -20q-203 0 -372 93t-269.5 265t-100.5 389q0 163 59 303.5t159 237.5t236 152t288 55q72 0 142.5 -13.5t147 -44t148.5 -88.5t129 -139l-129 -94q-84 112 -198.5 160.5t-235.5 48.5q-155 0 -283.5 -71t-205 -204t-76.5 -303q0 -128 44.5 -237t121.5 -183
t180.5 -115.5t220.5 -41.5q121 0 234.5 48t197.5 160l129 -94q-57 -81 -128.5 -139t-148 -88t-147 -43.5t-143.5 -13.5zM520 1825l90 80l185 -211l184 211l92 -80l-217 -252h-117z" />
    <glyph glyph-name="ccaron" unicode="&#x10d;" horiz-adv-x="1146" 
d="M623 -20q-105 0 -203 37t-176.5 105t-126 174.5t-47.5 235.5t47.5 236t126 175t176.5 105t203 37q142 0 263 -67.5t191 -194.5l-131 -78q-51 86 -136 134.5t-185 48.5q-73 0 -141.5 -27t-122.5 -76t-86.5 -125.5t-32.5 -167.5t32.5 -167.5t86.5 -125t122.5 -75.5
t141.5 -27q100 0 185 48t136 134l131 -77q-70 -126 -191.5 -194t-262.5 -68zM326 1436l90 80l184 -211l184 211l93 -80l-218 -252h-116z" />
    <glyph glyph-name="Dcaron" unicode="&#x10e;" horiz-adv-x="1351" 
d="M121 0v1454h436q212 0 375 -91.5t251.5 -256.5t88.5 -379t-88.5 -379t-251.5 -256.5t-375 -91.5h-436zM297 168h254q256 0 397.5 151.5t141.5 407.5t-141.5 407.5t-397.5 151.5h-254v-1118zM406 1825l90 80l184 -211l184 211l92 -80l-217 -252h-116z" />
    <glyph glyph-name="dcaron" unicode="&#x10f;" horiz-adv-x="1294" 
d="M1169 0h-172v201h-6q-41 -91 -149 -156t-250 -65q-99 0 -191 36t-166.5 102.5t-119.5 174t-45 239.5t45 239.5t119.5 174.5t166.5 103t191 36q142 0 250 -65t149 -156h6v590h172v-1454zM242 532q0 -95 32.5 -172.5t86.5 -125t121 -72.5t139 -25q74 0 141.5 25.5t122 73
t87 124.5t32.5 172t-32.5 172t-87 125t-122 73.5t-141.5 25.5q-72 0 -139 -25.5t-121 -73t-86.5 -125t-32.5 -172.5zM1245 1153l189 317h149l-192 -317h-146z" />
    <glyph glyph-name="Dcroat" unicode="&#x110;" horiz-adv-x="1423" 
d="M193 0v639h-117v143h117v672h436q321 0 517.5 -201t196.5 -526t-196.5 -526t-517.5 -201h-436zM369 168h254q255 0 396.5 151.5t141.5 407.5t-141.5 407.5t-396.5 151.5h-254v-504h342v-143h-342v-471z" />
    <glyph glyph-name="dcroat" unicode="&#x111;" horiz-adv-x="1288" 
d="M1169 0h-172v201h-6q-41 -91 -149 -156t-250 -65q-99 0 -191 36t-166.5 102.5t-119.5 174t-45 239.5t45 239.5t119.5 174.5t166.5 103t191 36q142 0 250 -65t149 -156h6v328h-422v131h422v131h172v-131h95v-131h-95v-1192zM242 532q0 -95 32.5 -172.5t86.5 -125
t121 -72.5t139 -25q74 0 141.5 25.5t122 73t87 124.5t32.5 172t-32.5 172t-87 125t-122 73.5t-141.5 25.5q-72 0 -139 -25.5t-121 -73t-86.5 -125t-32.5 -172.5z" />
    <glyph glyph-name="Emacron" unicode="&#x112;" horiz-adv-x="1009" 
d="M121 0v1454h780v-164h-604v-479h514v-162h-514v-485h623v-164h-799zM150 1681v138h749v-138h-749z" />
    <glyph glyph-name="emacron" unicode="&#x113;" 
d="M616 -20q-109 0 -207 37t-173.5 105.5t-120.5 174.5t-45 235q0 130 45 237t120 174.5t169 104.5t196 37q83 0 161 -23t147.5 -73t118.5 -120.5t72 -174t11 -225.5h-877q20 -162 131.5 -252t270.5 -90q197 0 317 129l86 -88q-72 -89 -182.5 -138.5t-239.5 -49.5zM217 1292
v138h750v-138h-750zM233 600h725q-9 157 -112 246.5t-244 89.5q-90 0 -167.5 -36.5t-133 -114.5t-68.5 -185z" />
    <glyph glyph-name="Edotaccent" unicode="&#x116;" horiz-adv-x="1009" 
d="M121 0v1454h780v-164h-604v-479h514v-162h-514v-485h623v-164h-799zM436 1681v174h172v-174h-172z" />
    <glyph glyph-name="edotaccent" unicode="&#x117;" 
d="M616 -20q-109 0 -207 37t-173.5 105.5t-120.5 174.5t-45 235q0 130 45 237t120 174.5t169 104.5t196 37q83 0 161 -23t147.5 -73t118.5 -120.5t72 -174t11 -225.5h-877q20 -162 131.5 -252t270.5 -90q197 0 317 129l86 -88q-72 -89 -182.5 -138.5t-239.5 -49.5zM233 600
h725q-9 157 -112 246.5t-244 89.5q-90 0 -167.5 -36.5t-133 -114.5t-68.5 -185zM504 1292v174h172v-174h-172z" />
    <glyph glyph-name="Eogonek" unicode="&#x118;" horiz-adv-x="1009" 
d="M121 0v1454h780v-164h-604v-479h514v-162h-514v-485h623v-164q-144 -38 -205.5 -95t-61.5 -120q0 -64 52.5 -94.5t113.5 -9.5v-87q-39 -21 -94 -23t-106.5 14t-88 61t-36.5 110q0 81 58 142.5t161 101.5h-592z" />
    <glyph glyph-name="eogonek" unicode="&#x119;" 
d="M672 -406q-39 -21 -94 -23t-107 14t-88.5 61t-36.5 110q0 73 48.5 132t135.5 98q-197 28 -328.5 173t-131.5 373q0 130 45 237t120 174.5t169 104.5t196 37q83 0 161 -23t147.5 -73t118.5 -120.5t72 -174t11 -225.5h-877q20 -162 131.5 -252t270.5 -90q197 0 317 129
l86 -88q-106 -131 -282 -172q-135 -38 -192.5 -93.5t-57.5 -117.5q0 -64 52.5 -94.5t113.5 -9.5v-87zM233 600h725q-9 157 -112 246.5t-244 89.5q-90 0 -167.5 -36.5t-133 -114.5t-68.5 -185z" />
    <glyph glyph-name="Ecaron" unicode="&#x11a;" horiz-adv-x="1009" 
d="M121 0v1454h780v-164h-604v-479h514v-162h-514v-485h623v-164h-799zM250 1825l90 80l184 -211l185 211l92 -80l-217 -252h-117z" />
    <glyph glyph-name="ecaron" unicode="&#x11b;" 
d="M616 -20q-109 0 -207 37t-173.5 105.5t-120.5 174.5t-45 235q0 130 45 237t120 174.5t169 104.5t196 37q83 0 161 -23t147.5 -73t118.5 -120.5t72 -174t11 -225.5h-877q20 -162 131.5 -252t270.5 -90q197 0 317 129l86 -88q-72 -89 -182.5 -138.5t-239.5 -49.5zM233 600
h725q-9 157 -112 246.5t-244 89.5q-90 0 -167.5 -36.5t-133 -114.5t-68.5 -185zM317 1436l91 80l184 -211l184 211l92 -80l-217 -252h-116z" />
    <glyph glyph-name="Gcircumflex" unicode="&#x11c;" horiz-adv-x="1611" 
d="M838 -20q-200 0 -368 93t-269 265.5t-101 388.5q0 163 59 303.5t159.5 237.5t236.5 152t287 55q72 0 142.5 -13.5t147 -44t148.5 -88.5t129 -139l-127 -94q-84 112 -199 160.5t-237 48.5q-157 0 -285 -70.5t-204 -203.5t-76 -304q0 -128 44.5 -238t121 -185.5t180 -118
t219.5 -42.5q92 0 173 27t148 80t111 140t57 200h-411v149h583q13 -173 -35 -318t-141.5 -240.5t-220.5 -148t-272 -52.5zM594 1653l194 252h123l195 -252l-94 -80l-162 213l-162 -213z" />
    <glyph glyph-name="gcircumflex" unicode="&#x11d;" horiz-adv-x="1290" 
d="M633 -426q-101 0 -186.5 22t-127.5 52v145q43 -29 118.5 -50.5t168.5 -21.5q81 0 149.5 19t124 58t86.5 105t31 154v144h-10q-39 -91 -147 -156t-248 -65q-78 0 -152.5 22t-141.5 67.5t-118 110t-80.5 155.5t-29.5 197t29.5 197t80.5 155.5t118 110.5t141.5 68t152.5 22
q140 0 248 -65t147 -156h10v201h172v-1006q0 -109 -32.5 -195t-85 -139t-124 -88t-144 -49t-150.5 -14zM242 532q0 -95 32.5 -172.5t86.5 -125t121 -72.5t139 -25q73 0 140.5 25.5t122 73t87.5 124.5t33 172t-33 172t-87.5 125t-122 73.5t-140.5 25.5q-72 0 -139 -25.5
t-121 -73t-86.5 -125t-32.5 -172.5zM389 1264l195 252h123l194 -252l-94 -80l-162 213l-162 -213z" />
    <glyph glyph-name="Gbreve" unicode="&#x11e;" horiz-adv-x="1611" 
d="M838 -20q-200 0 -368 93t-269 265.5t-101 388.5q0 163 59 303.5t159.5 237.5t236.5 152t287 55q72 0 142.5 -13.5t147 -44t148.5 -88.5t129 -139l-127 -94q-84 112 -199 160.5t-237 48.5q-157 0 -285 -70.5t-204 -203.5t-76 -304q0 -128 44.5 -238t121 -185.5t180 -118
t219.5 -42.5q92 0 173 27t148 80t111 140t57 200h-411v149h583q13 -173 -35 -318t-141.5 -240.5t-220.5 -148t-272 -52.5zM555 1905h125q0 -78 42.5 -130.5t133.5 -52.5t133.5 52.5t42.5 130.5h125q1 -56 -16.5 -107t-52 -94t-95 -68.5t-137.5 -25.5t-137.5 25.5t-95 68.5
t-52 94t-16.5 107z" />
    <glyph glyph-name="gbreve" unicode="&#x11f;" horiz-adv-x="1290" 
d="M633 -426q-101 0 -186.5 22t-127.5 52v145q43 -29 118.5 -50.5t168.5 -21.5q81 0 149.5 19t124 58t86.5 105t31 154v144h-10q-39 -91 -147 -156t-248 -65q-78 0 -152.5 22t-141.5 67.5t-118 110t-80.5 155.5t-29.5 197t29.5 197t80.5 155.5t118 110.5t141.5 68t152.5 22
q140 0 248 -65t147 -156h10v201h172v-1006q0 -109 -32.5 -195t-85 -139t-124 -88t-144 -49t-150.5 -14zM242 532q0 -95 32.5 -172.5t86.5 -125t121 -72.5t139 -25q73 0 140.5 25.5t122 73t87.5 124.5t33 172t-33 172t-87.5 125t-122 73.5t-140.5 25.5q-72 0 -139 -25.5
t-121 -73t-86.5 -125t-32.5 -172.5zM324 1516h125q0 -78 42.5 -130.5t133.5 -52.5t133.5 52.5t42.5 130.5h125q1 -56 -16.5 -107t-52 -94t-95 -68.5t-137.5 -25.5t-137.5 25.5t-95 68.5t-52 94t-16.5 107z" />
    <glyph glyph-name="Gdotaccent" unicode="&#x120;" horiz-adv-x="1611" 
d="M838 -20q-200 0 -368 93t-269 265.5t-101 388.5q0 163 59 303.5t159.5 237.5t236.5 152t287 55q72 0 142.5 -13.5t147 -44t148.5 -88.5t129 -139l-127 -94q-84 112 -199 160.5t-237 48.5q-157 0 -285 -70.5t-204 -203.5t-76 -304q0 -128 44.5 -238t121 -185.5t180 -118
t219.5 -42.5q92 0 173 27t148 80t111 140t57 200h-411v149h583q13 -173 -35 -318t-141.5 -240.5t-220.5 -148t-272 -52.5zM762 1681v174h172v-174h-172z" />
    <glyph glyph-name="gdotaccent" unicode="&#x121;" horiz-adv-x="1290" 
d="M633 -426q-101 0 -186.5 22t-127.5 52v145q43 -29 118.5 -50.5t168.5 -21.5q81 0 149.5 19t124 58t86.5 105t31 154v144h-10q-39 -91 -147 -156t-248 -65q-78 0 -152.5 22t-141.5 67.5t-118 110t-80.5 155.5t-29.5 197t29.5 197t80.5 155.5t118 110.5t141.5 68t152.5 22
q140 0 248 -65t147 -156h10v201h172v-1006q0 -109 -32.5 -195t-85 -139t-124 -88t-144 -49t-150.5 -14zM242 532q0 -95 32.5 -172.5t86.5 -125t121 -72.5t139 -25q73 0 140.5 25.5t122 73t87.5 124.5t33 172t-33 172t-87.5 125t-122 73.5t-140.5 25.5q-72 0 -139 -25.5
t-121 -73t-86.5 -125t-32.5 -172.5zM530 1292v174h172v-174h-172z" />
    <glyph glyph-name="uni0122" unicode="&#x122;" horiz-adv-x="1611" 
d="M838 -20q-200 0 -368 93t-269 265.5t-101 388.5q0 163 59 303.5t159.5 237.5t236.5 152t287 55q72 0 142.5 -13.5t147 -44t148.5 -88.5t129 -139l-127 -94q-84 112 -199 160.5t-237 48.5q-157 0 -285 -70.5t-204 -203.5t-76 -304q0 -128 44.5 -238t121 -185.5t180 -118
t219.5 -42.5q92 0 173 27t148 80t111 140t57 200h-411v149h583q13 -173 -35 -318t-141.5 -240.5t-220.5 -148t-272 -52.5zM582 -539l161 461h156l-164 -461h-153z" />
    <glyph glyph-name="uni0123" unicode="&#x123;" horiz-adv-x="1290" 
d="M633 -426q-101 0 -186.5 22t-127.5 52v145q43 -29 118.5 -50.5t168.5 -21.5q81 0 149.5 19t124 58t86.5 105t31 154v144h-10q-39 -91 -147 -156t-248 -65q-78 0 -152.5 22t-141.5 67.5t-118 110t-80.5 155.5t-29.5 197t29.5 197t80.5 155.5t118 110.5t141.5 68t152.5 22
q140 0 248 -65t147 -156h10v201h172v-1006q0 -109 -32.5 -195t-85 -139t-124 -88t-144 -49t-150.5 -14zM242 532q0 -95 32.5 -172.5t86.5 -125t121 -72.5t139 -25q73 0 140.5 25.5t122 73t87.5 124.5t33 172t-33 172t-87.5 125t-122 73.5t-140.5 25.5q-72 0 -139 -25.5
t-121 -73t-86.5 -125t-32.5 -172.5zM498 1128l161 461h156l-164 -461h-153z" />
    <glyph glyph-name="Hcircumflex" unicode="&#x124;" horiz-adv-x="1314" 
d="M1018 0v635h-721v-635h-176v1454h176v-655h721v655h176v-1454h-176zM401 1653l195 252h123l194 -252l-94 -80l-162 213l-161 -213z" />
    <glyph glyph-name="hcircumflex" unicode="&#x125;" 
d="M121 0v1454h172v-563q46 84 136.5 139t219.5 55q86 0 159.5 -27.5t131.5 -81.5t91.5 -143.5t33.5 -205.5v-627h-172v602q0 156 -82.5 241t-214.5 85q-133 0 -218 -85t-85 -241v-602h-172zM-51 1653l194 252h123l195 -252l-94 -80l-162 213l-162 -213z" />
    <glyph glyph-name="Hbar" unicode="&#x126;" horiz-adv-x="1314" 
d="M1018 0v635h-721v-635h-176v1454h176v-287h721v287h176v-1454h-176zM297 799h721v205h-721v-205z" />
    <glyph glyph-name="hbar" unicode="&#x127;" horiz-adv-x="1208" 
d="M0 1167v103h143v184h172v-184h250v-103h-250v-276q45 84 136.5 139t220.5 55q86 0 159.5 -27.5t131.5 -81.5t91 -143.5t33 -205.5v-627h-172v602q0 156 -82.5 241t-214.5 85q-133 0 -218 -85t-85 -241v-602h-172v1167h-143z" />
    <glyph glyph-name="Itilde" unicode="&#x128;" horiz-adv-x="417" 
d="M121 0v1454h176v-1454h-176zM-98 1647q0 100 51 153t125 53q35 0 64.5 -12.5t50.5 -30t39.5 -35t39.5 -30t43 -12.5q32 0 53 22.5t21 59.5h127q0 -100 -51 -153.5t-125 -53.5q-42 0 -78.5 19t-57.5 41.5t-48.5 41.5t-53.5 19q-32 0 -52.5 -22.5t-20.5 -59.5h-127z" />
    <glyph glyph-name="itilde" unicode="&#x129;" horiz-adv-x="413" 
d="M121 0v1065h172v-1065h-172zM-100 1257q0 100 51 153.5t125 53.5q42 0 78.5 -19t57 -41.5t48 -41.5t53.5 -19q32 0 53 22.5t21 59.5h127q0 -100 -51 -153t-125 -53q-35 0 -64.5 12.5t-50.5 30t-40 35t-40 30t-43 12.5q-32 0 -52.5 -22.5t-20.5 -59.5h-127z" />
    <glyph glyph-name="Imacron" unicode="&#x12a;" horiz-adv-x="417" 
d="M121 0v1454h176v-1454h-176zM-166 1681v138h750v-138h-750z" />
    <glyph glyph-name="imacron" unicode="&#x12b;" horiz-adv-x="413" 
d="M121 0v1065h172v-1065h-172zM-168 1292v138h750v-138h-750z" />
    <glyph glyph-name="Iogonek" unicode="&#x12e;" horiz-adv-x="417" 
d="M197 -406q-39 -21 -94 -23t-107 14t-88.5 61t-36.5 110q0 86 66.5 151t183.5 103v1444h176v-1454q-143 -38 -204.5 -95t-61.5 -120q0 -64 52.5 -94.5t113.5 -9.5v-87z" />
    <glyph glyph-name="iogonek" unicode="&#x12f;" horiz-adv-x="413" 
d="M119 1292v174h172v-174h-172zM-133 -244q0 87 68 152.5t186 103.5v1053h172v-1065q-143 -38 -204.5 -95t-61.5 -120q0 -64 52.5 -94.5t113.5 -9.5v-87q-39 -21 -94 -23t-107 14t-88.5 61t-36.5 110z" />
    <glyph glyph-name="Idotaccent" unicode="&#x130;" horiz-adv-x="417" 
d="M121 0v1454h176v-1454h-176zM121 1681v174h172v-174h-172z" />
    <glyph glyph-name="dotlessi" unicode="&#x131;" horiz-adv-x="413" 
d="M121 0v1065h172v-1065h-172z" />
    <glyph glyph-name="IJ" unicode="&#x132;" horiz-adv-x="1409" 
d="M121 0v1454h176v-1454h-176zM477 174l115 115q94 -139 252 -139q53 0 99 16.5t85 51t61.5 96.5t22.5 145v995h176v-1016q0 -96 -24 -174t-65 -130t-97.5 -87.5t-119.5 -51t-132 -15.5q-126 0 -222 51.5t-151 142.5z" />
    <glyph glyph-name="ij" unicode="&#x133;" horiz-adv-x="831" 
d="M121 0v1065h172v-1065h-172zM121 1294v160h172v-160h-172zM229 -395v159h47q63 0 108 11.5t82 41t55 84.5t18 136v1028h172v-1040q0 -119 -29 -201.5t-86.5 -130t-133.5 -68t-181 -20.5h-52zM539 1294v160h172v-160h-172z" />
    <glyph glyph-name="Jcircumflex" unicode="&#x134;" horiz-adv-x="991" 
d="M432 -20q-126 0 -222 51.5t-151 142.5l115 115q94 -139 252 -139q53 0 99 16.5t85 51t61.5 96.5t22.5 145v995h176v-1016q0 -96 -24 -174t-65 -130t-97.5 -87.5t-119.5 -51t-132 -15.5zM518 1653l195 252h123l194 -252l-94 -80l-162 213l-162 -213z" />
    <glyph glyph-name="jcircumflex" unicode="&#x135;" horiz-adv-x="417" 
d="M-184 -395v159h47q63 0 108 11.5t81.5 41t54.5 84t18 136.5v1028h172v-1040q0 -119 -29 -201.5t-86.5 -130t-133.5 -68t-181 -20.5h-51zM-49 1264l194 252h123l195 -252l-94 -80l-162 213l-162 -213z" />
    <glyph glyph-name="uni0136" unicode="&#x136;" horiz-adv-x="1280" 
d="M121 0v1454h176v-790l678 790h205l-578 -670l629 -784h-201l-534 659l-199 -229v-430h-176zM446 -539l162 461h156l-164 -461h-154z" />
    <glyph glyph-name="uni0137" unicode="&#x137;" horiz-adv-x="1114" 
d="M121 0v1454h172v-954l512 565h211l-449 -487l498 -578h-201l-405 461l-166 -180v-281h-172zM334 -539l162 461h155l-164 -461h-153z" />
    <glyph glyph-name="Lacute" unicode="&#x139;" horiz-adv-x="1013" 
d="M121 0v1454h176v-1290h637v-164h-813zM188 1563l189 317h149l-192 -317h-146z" />
    <glyph glyph-name="lacute" unicode="&#x13a;" horiz-adv-x="413" 
d="M121 0v1454h172v-1454h-172zM139 1587l189 318h149l-192 -318h-146z" />
    <glyph glyph-name="uni013B" unicode="&#x13b;" horiz-adv-x="1013" 
d="M121 0v1454h176v-1290h637v-164h-813zM287 -539l162 461h155l-164 -461h-153z" />
    <glyph glyph-name="uni013C" unicode="&#x13c;" horiz-adv-x="413" 
d="M121 0v1454h172v-1454h-172zM-33 -539l162 461h156l-164 -461h-154z" />
    <glyph glyph-name="Lcaron" unicode="&#x13d;" horiz-adv-x="1013" 
d="M121 0v1454h176v-1290h637v-164h-813zM487 954l162 461h156l-164 -461h-154z" />
    <glyph glyph-name="lcaron" unicode="&#x13e;" horiz-adv-x="593" 
d="M121 0v1454h172v-1454h-172zM358 1014l162 461h156l-164 -461h-154z" />
    <glyph glyph-name="Ldot" unicode="&#x13f;" horiz-adv-x="1013" 
d="M121 0v1454h176v-1290h637v-164h-813zM614 735q0 44 30.5 73.5t74.5 29.5t73 -29.5t29 -73.5t-29 -74t-73 -30t-74.5 30t-30.5 74z" />
    <glyph glyph-name="ldot" unicode="&#x140;" horiz-adv-x="587" 
d="M121 0v1454h172v-1454h-172zM453 731q0 44 30 73.5t74 29.5t73 -29.5t29 -73.5t-29 -74t-73 -30t-74 30t-30 74z" />
    <glyph glyph-name="Lslash" unicode="&#x141;" horiz-adv-x="1128" 
d="M113 332v196l123 129v797h176v-610l254 268h2v-194l-256 -271v-483h637v-164h-813v461z" />
    <glyph glyph-name="lslash" unicode="&#x142;" horiz-adv-x="460" 
d="M-29 373v164l174 188v729h172v-541l170 185h2v-162l-172 -186v-750h-172v561z" />
    <glyph glyph-name="Nacute" unicode="&#x143;" horiz-adv-x="1421" 
d="M121 0v1454h178l815 -1159h10v1159h176v-1454h-178l-815 1159h-10v-1159h-176zM643 1587l188 318h150l-193 -318h-145z" />
    <glyph glyph-name="nacute" unicode="&#x144;" 
d="M121 0v1065h172v-174q46 84 136.5 139t219.5 55q86 0 159.5 -27.5t131.5 -81.5t91.5 -143.5t33.5 -205.5v-627h-172v602q0 156 -82.5 241t-214.5 85q-133 0 -218 -85t-85 -241v-602h-172zM547 1198l188 318h150l-193 -318h-145z" />
    <glyph glyph-name="uni0145" unicode="&#x145;" horiz-adv-x="1421" 
d="M121 0v1454h178l815 -1159h10v1159h176v-1454h-178l-815 1159h-10v-1159h-176zM471 -539l162 461h155l-163 -461h-154z" />
    <glyph glyph-name="uni0146" unicode="&#x146;" 
d="M121 0v1065h172v-174q46 84 136.5 139t219.5 55q86 0 159.5 -27.5t131.5 -81.5t91.5 -143.5t33.5 -205.5v-627h-172v602q0 156 -82.5 241t-214.5 85q-133 0 -218 -85t-85 -241v-602h-172zM375 -539l162 461h155l-164 -461h-153z" />
    <glyph glyph-name="Ncaron" unicode="&#x147;" horiz-adv-x="1421" 
d="M121 0v1454h178l815 -1159h10v1159h176v-1454h-178l-815 1159h-10v-1159h-176zM436 1825l90 80l185 -211l184 211l92 -80l-217 -252h-117z" />
    <glyph glyph-name="ncaron" unicode="&#x148;" 
d="M121 0v1065h172v-174q46 84 136.5 139t219.5 55q86 0 159.5 -27.5t131.5 -81.5t91.5 -143.5t33.5 -205.5v-627h-172v602q0 156 -82.5 241t-214.5 85q-133 0 -218 -85t-85 -241v-602h-172zM340 1436l90 80l184 -211l185 211l92 -80l-217 -252h-117z" />
    <glyph glyph-name="Eng" unicode="&#x14a;" horiz-adv-x="1413" 
d="M121 0v1434h135l850 -1100v715h8v385h178v-1340l-10 -8v-53q0 -119 -36.5 -210t-99 -144t-138.5 -79t-164 -26q-126 0 -222 51.5t-151 143.5l115 114q94 -139 252 -139q53 0 99 16.5t85 51t61.5 96.5t22.5 145v15l-809 1042v-1110h-176z" />
    <glyph glyph-name="eng" unicode="&#x14b;" 
d="M584 -395v159h47q63 0 108 11.5t81.5 41t54.5 84t18 136.5v565q0 156 -82.5 241t-214.5 85q-133 0 -218 -85t-85 -241v-602h-172v1065h172v-174q46 84 136.5 139t219.5 55q86 0 159.5 -27.5t131.5 -81.5t91.5 -143.5t33.5 -205.5v-631q0 -211 -109 -301t-321 -90h-51z
" />
    <glyph glyph-name="Omacron" unicode="&#x14c;" horiz-adv-x="1677" 
d="M840 -20q-198 0 -366 92.5t-271 265t-103 389.5q0 131 39 248.5t108 207.5t161.5 156.5t203 101t228.5 34.5q147 0 281 -55t235 -151t161 -237.5t60 -304.5t-60 -304t-161 -237.5t-235 -151t-281 -54.5zM281 727q0 -128 46 -238t123 -183t178 -114.5t212 -41.5
q110 0 210.5 41.5t177.5 114.5t123 183t46 238q0 170 -78.5 304t-204.5 204t-274 70q-111 0 -212 -41.5t-178 -115t-123 -183.5t-46 -238zM463 1681v138h749v-138h-749z" />
    <glyph glyph-name="omacron" unicode="&#x14d;" horiz-adv-x="1245" 
d="M623 -20q-105 0 -203 37t-176.5 105t-126 174.5t-47.5 235.5t47.5 236t126 175t176.5 105t203 37t203 -37t176.5 -105t126 -175t47.5 -236t-47.5 -235.5t-126 -174.5t-176.5 -105t-203 -37zM242 532q0 -92 31.5 -168t85 -124.5t121.5 -75.5t143 -27t143 27t121.5 75.5
t85 124.5t31.5 168q0 121 -54.5 213t-140.5 137.5t-186 45.5t-186 -45.5t-140.5 -137.5t-54.5 -213zM248 1292v138h749v-138h-749z" />
    <glyph glyph-name="Ohungarumlaut" unicode="&#x150;" horiz-adv-x="1677" 
d="M840 -20q-198 0 -366 92.5t-271 265t-103 389.5q0 131 39 248.5t108 207.5t161.5 156.5t203 101t228.5 34.5q147 0 281 -55t235 -151t161 -237.5t60 -304.5t-60 -304t-161 -237.5t-235 -151t-281 -54.5zM281 727q0 -128 46 -238t123 -183t178 -114.5t212 -41.5
q110 0 210.5 41.5t177.5 114.5t123 183t46 238q0 170 -78.5 304t-204.5 204t-274 70q-111 0 -212 -41.5t-178 -115t-123 -183.5t-46 -238zM610 1587l189 318h149l-192 -318h-146zM913 1587l189 318h149l-192 -318h-146z" />
    <glyph glyph-name="ohungarumlaut" unicode="&#x151;" horiz-adv-x="1245" 
d="M623 -20q-105 0 -203 37t-176.5 105t-126 174.5t-47.5 235.5t47.5 236t126 175t176.5 105t203 37t203 -37t176.5 -105t126 -175t47.5 -236t-47.5 -235.5t-126 -174.5t-176.5 -105t-203 -37zM242 532q0 -92 31.5 -168t85 -124.5t121.5 -75.5t143 -27t143 27t121.5 75.5
t85 124.5t31.5 168q0 121 -54.5 213t-140.5 137.5t-186 45.5t-186 -45.5t-140.5 -137.5t-54.5 -213zM395 1198l189 318h149l-192 -318h-146zM698 1198l189 318h149l-192 -318h-146z" />
    <glyph glyph-name="OE" unicode="&#x152;" horiz-adv-x="2291" 
d="M840 -20q-198 0 -366 92.5t-271 265t-103 389.5q0 131 39 248.5t108 207.5t161.5 156.5t203 101t228.5 34.5q165 0 312.5 -67t250.5 -189v235h780v-164h-604v-479h514v-162h-514v-485h623v-164h-799v236q-103 -122 -250.5 -189t-312.5 -67zM281 727q0 -128 46 -238
t123 -183t178 -114.5t212 -41.5q110 0 210.5 41.5t177.5 114.5t123 183t46 238q0 170 -78.5 304t-204.5 204t-274 70q-111 0 -212 -41.5t-178 -115t-123 -183.5t-46 -238z" />
    <glyph glyph-name="oe" unicode="&#x153;" horiz-adv-x="2131" 
d="M623 -20q-105 0 -203 37t-176.5 105t-126 174.5t-47.5 235.5t47.5 236t126 175t176.5 105t203 37q142 0 269 -65.5t202 -185.5q72 120 194 185.5t260 65.5q83 0 161 -23t147.5 -73t118.5 -120.5t72 -174t11 -225.5h-876q20 -162 131 -252t270 -90q95 0 177.5 33t140.5 96
l86 -88q-72 -89 -182.5 -138.5t-239.5 -49.5q-148 0 -272.5 65.5t-196.5 187.5q-74 -121 -202 -187t-271 -66zM242 532q0 -92 31.5 -168t85 -124.5t121.5 -75.5t143 -27t143 27t121.5 75.5t85 124.5t31.5 168q0 121 -54.5 213t-140.5 137.5t-186 45.5t-186 -45.5
t-140.5 -137.5t-54.5 -213zM1182 600h725q-9 157 -112.5 246.5t-244.5 89.5q-90 0 -167.5 -36.5t-132.5 -114t-68 -185.5z" />
    <glyph glyph-name="Racute" unicode="&#x154;" horiz-adv-x="1218" 
d="M946 0l-340 516h-16h-293v-516h-176v1454h469q227 0 361 -131.5t134 -341.5q0 -162 -81 -277t-228 -161l363 -543h-193zM297 672h272q157 0 246.5 79t89.5 230t-89.5 230t-246.5 79h-272v-618zM530 1587l189 318h149l-192 -318h-146z" />
    <glyph glyph-name="racute" unicode="&#x155;" horiz-adv-x="765" 
d="M121 0v1065h172v-264q32 126 117.5 205t224.5 79q40 0 61 -8v-162q-31 7 -59 7q-152 0 -248 -105.5t-96 -281.5v-535h-172zM336 1198l188 318h150l-193 -318h-145z" />
    <glyph glyph-name="uni0156" unicode="&#x156;" horiz-adv-x="1218" 
d="M946 0l-340 516h-16h-293v-516h-176v1454h469q227 0 361 -131.5t134 -341.5q0 -162 -81 -277t-228 -161l363 -543h-193zM297 672h272q157 0 246.5 79t89.5 230t-89.5 230t-246.5 79h-272v-618zM377 -539l162 461h155l-164 -461h-153z" />
    <glyph glyph-name="uni0157" unicode="&#x157;" horiz-adv-x="765" 
d="M121 0v1065h172v-264q32 126 117.5 205t224.5 79q40 0 61 -8v-162q-31 7 -59 7q-152 0 -248 -105.5t-96 -281.5v-535h-172zM-35 -539l162 461h156l-164 -461h-154z" />
    <glyph glyph-name="Rcaron" unicode="&#x158;" horiz-adv-x="1218" 
d="M946 0l-340 516h-16h-293v-516h-176v1454h469q227 0 361 -131.5t134 -341.5q0 -162 -81 -277t-228 -161l363 -543h-193zM297 672h272q157 0 246.5 79t89.5 230t-89.5 230t-246.5 79h-272v-618zM324 1825l90 80l184 -211l184 211l92 -80l-217 -252h-116z" />
    <glyph glyph-name="rcaron" unicode="&#x159;" horiz-adv-x="765" 
d="M121 0v1065h172v-264q32 126 117.5 205t224.5 79q40 0 61 -8v-162q-31 7 -59 7q-152 0 -248 -105.5t-96 -281.5v-535h-172zM129 1436l90 80l184 -211l185 211l92 -80l-217 -252h-117z" />
    <glyph glyph-name="Sacute" unicode="&#x15a;" horiz-adv-x="1093" 
d="M557 -20q-183 0 -316.5 98t-170.5 256l145 67q31 -116 122.5 -187t219.5 -71q122 0 204.5 65.5t82.5 184.5q0 105 -67 165.5t-210 117.5l-96 37q-168 68 -255 162.5t-87 230.5q0 166 119 267.5t299 101.5q168 0 279.5 -86.5t158.5 -217.5l-135 -69q-92 211 -299 211
q-107 0 -176.5 -56.5t-69.5 -152.5q0 -79 54.5 -139.5t179.5 -110.5l98 -39q196 -77 291.5 -172t95.5 -252q0 -97 -38.5 -176.5t-103.5 -130t-148.5 -77.5t-176.5 -27zM475 1587l189 318h149l-192 -318h-146z" />
    <glyph glyph-name="sacute" unicode="&#x15b;" horiz-adv-x="874" 
d="M434 -20q-150 0 -250 76t-125 212l144 39q22 -86 82.5 -135t148.5 -49q83 0 142 42t59 124q0 63 -43 103t-141 81l-97 37q-250 102 -250 297q0 124 94.5 201t235.5 77q127 0 216.5 -64.5t117.5 -172.5l-137 -41q-51 137 -191 137q-72 0 -119 -37t-47 -102
q0 -104 154 -166l86 -35q70 -28 117.5 -53.5t90 -62t63 -86t20.5 -113.5q0 -101 -53.5 -173t-135.5 -104t-182 -32zM350 1198l189 318h149l-192 -318h-146z" />
    <glyph glyph-name="Scircumflex" unicode="&#x15c;" horiz-adv-x="1093" 
d="M557 -20q-183 0 -316.5 98t-170.5 256l145 67q31 -116 122.5 -187t219.5 -71q122 0 204.5 65.5t82.5 184.5q0 105 -67 165.5t-210 117.5l-96 37q-168 68 -255 162.5t-87 230.5q0 166 119 267.5t299 101.5q168 0 279.5 -86.5t158.5 -217.5l-135 -69q-92 211 -299 211
q-107 0 -176.5 -56.5t-69.5 -152.5q0 -79 54.5 -139.5t179.5 -110.5l98 -39q196 -77 291.5 -172t95.5 -252q0 -97 -38.5 -176.5t-103.5 -130t-148.5 -77.5t-176.5 -27zM289 1653l194 252h123l195 -252l-94 -80l-162 213l-162 -213z" />
    <glyph glyph-name="scircumflex" unicode="&#x15d;" horiz-adv-x="874" 
d="M434 -20q-150 0 -250 76t-125 212l144 39q22 -86 82.5 -135t148.5 -49q83 0 142 42t59 124q0 63 -43 103t-141 81l-97 37q-250 102 -250 297q0 124 94.5 201t235.5 77q127 0 216.5 -64.5t117.5 -172.5l-137 -41q-51 137 -191 137q-72 0 -119 -37t-47 -102
q0 -104 154 -166l86 -35q70 -28 117.5 -53.5t90 -62t63 -86t20.5 -113.5q0 -101 -53.5 -173t-135.5 -104t-182 -32zM162 1264l194 252h123l195 -252l-94 -80l-162 213l-162 -213z" />
    <glyph glyph-name="Scedilla" unicode="&#x15e;" horiz-adv-x="1093" 
d="M416 -362q186 -11 186 96q0 50 -41.5 75.5t-126.5 14.5l-31 51l70 111q-153 22 -262 116t-141 232l145 67q31 -116 122.5 -187t219.5 -71q122 0 204.5 65.5t82.5 184.5q0 105 -67 165.5t-210 117.5l-96 37q-168 68 -255 162.5t-87 230.5q0 166 119 267.5t299 101.5
q168 0 279.5 -86.5t158.5 -217.5l-135 -69q-92 211 -299 211q-107 0 -176.5 -56.5t-69.5 -152.5q0 -79 54.5 -139.5t179.5 -110.5l98 -39q196 -77 291.5 -172t95.5 -252q0 -179 -119.5 -287t-296.5 -122l-47 -68q77 0 127.5 -47t50.5 -123q0 -53 -28 -94t-73.5 -62.5
t-103.5 -29.5t-118 6v74z" />
    <glyph glyph-name="scedilla" unicode="&#x15f;" horiz-adv-x="874" 
d="M307 -360q187 -11 187 96q0 50 -41.5 75.5t-126.5 14.5l-31 51l67 107q-121 17 -201 91t-102 193l144 39q22 -86 82.5 -135t148.5 -49q83 0 142 42t59 124q0 63 -43 103t-141 81l-97 37q-250 102 -250 297q0 124 94.5 201t235.5 77q127 0 216.5 -64.5t117.5 -172.5
l-137 -41q-51 137 -191 137q-72 0 -119 -37t-47 -102q0 -104 154 -166l86 -35q70 -28 117.5 -53.5t90 -62t63 -86t20.5 -113.5q0 -133 -86 -211t-219 -94l-47 -68q77 0 127.5 -47t50.5 -123q0 -53 -28 -94t-74 -62.5t-104 -29.5t-118 6v74z" />
    <glyph glyph-name="Scaron" unicode="&#x160;" horiz-adv-x="1093" 
d="M557 -20q-183 0 -316.5 98t-170.5 256l145 67q31 -116 122.5 -187t219.5 -71q122 0 204.5 65.5t82.5 184.5q0 105 -67 165.5t-210 117.5l-96 37q-168 68 -255 162.5t-87 230.5q0 166 119 267.5t299 101.5q168 0 279.5 -86.5t158.5 -217.5l-135 -69q-92 211 -299 211
q-107 0 -176.5 -56.5t-69.5 -152.5q0 -79 54.5 -139.5t179.5 -110.5l98 -39q196 -77 291.5 -172t95.5 -252q0 -97 -38.5 -176.5t-103.5 -130t-148.5 -77.5t-176.5 -27zM268 1825l90 80l185 -211l184 211l92 -80l-217 -252h-117z" />
    <glyph glyph-name="scaron" unicode="&#x161;" horiz-adv-x="874" 
d="M434 -20q-150 0 -250 76t-125 212l144 39q22 -86 82.5 -135t148.5 -49q83 0 142 42t59 124q0 63 -43 103t-141 81l-97 37q-250 102 -250 297q0 124 94.5 201t235.5 77q127 0 216.5 -64.5t117.5 -172.5l-137 -41q-51 137 -191 137q-72 0 -119 -37t-47 -102
q0 -104 154 -166l86 -35q70 -28 117.5 -53.5t90 -62t63 -86t20.5 -113.5q0 -101 -53.5 -173t-135.5 -104t-182 -32zM143 1436l90 80l185 -211l184 211l92 -80l-217 -252h-117z" />
    <glyph glyph-name="uni0162" unicode="&#x162;" horiz-adv-x="1085" 
d="M399 -377q88 -14 142.5 23t54.5 94q0 52 -49 82.5t-103 -0.5l-57 55l86 123h-18v1290h-385v164h946v-164h-385v-1290h18l-94 -92q74 -5 129 -51t55 -117t-50 -119t-130 -60.5t-180 7.5z" />
    <glyph glyph-name="uni0163" unicode="&#x163;" horiz-adv-x="675" 
d="M70 924v141h143v272h172v-272h211v-141h-211v-674q0 -107 113 -107q43 0 96 19v-137q-36 -29 -119 -37l-45 -64q77 0 127.5 -47t50.5 -123q0 -53 -28 -94t-73.5 -62.5t-103.5 -29.5t-118 6v74q186 -11 186 96q0 50 -41.5 75.5t-126.5 14.5l-31 51l76 119
q-135 43 -135 213v707h-143z" />
    <glyph glyph-name="Tcaron" unicode="&#x164;" horiz-adv-x="1085" 
d="M455 0v1290h-385v164h946v-164h-385v-1290h-176zM268 1825l90 80l185 -211l184 211l92 -80l-217 -252h-117z" />
    <glyph glyph-name="tcaron" unicode="&#x165;" horiz-adv-x="667" 
d="M451 -12q-111 0 -174.5 56.5t-63.5 172.5v707h-143v141h143v272h172v-272h211v-141h-211v-674q0 -107 113 -107q43 0 96 19v-137q-47 -37 -143 -37zM475 1153l189 317h149l-192 -317h-146z" />
    <glyph glyph-name="Tbar" unicode="&#x166;" horiz-adv-x="1085" 
d="M170 864v164h285v262h-385v164h946v-164h-385v-262h305v-164h-305v-864h-176v864h-285z" />
    <glyph glyph-name="tbar" unicode="&#x167;" horiz-adv-x="675" 
d="M70 670v141h143v113h-143v141h143v272h172v-272h211v-141h-211v-113h211v-141h-211v-420q0 -107 113 -107q43 0 96 19v-137q-47 -37 -143 -37q-111 0 -174.5 56.5t-63.5 172.5v453h-143z" />
    <glyph glyph-name="Utilde" unicode="&#x168;" horiz-adv-x="1284" 
d="M643 -20q-149 0 -266 61.5t-186.5 185.5t-69.5 293v934h176v-932q0 -184 97.5 -279.5t248.5 -95.5q149 0 246.5 95.5t97.5 279.5v932h176v-934q0 -169 -69.5 -293t-186 -185.5t-264.5 -61.5zM336 1647q0 100 51 153t125 53q35 0 64.5 -12.5t50.5 -30t40 -35t40 -30
t43 -12.5q32 0 52.5 22.5t20.5 59.5h127q0 -100 -51 -153.5t-125 -53.5q-42 0 -78.5 19t-57 41.5t-48 41.5t-53.5 19q-32 0 -53 -22.5t-21 -59.5h-127z" />
    <glyph glyph-name="utilde" unicode="&#x169;" 
d="M1065 1065v-1065h-172v174q-46 -84 -136.5 -139t-219.5 -55q-86 0 -159.5 27.5t-131.5 81.5t-91.5 143.5t-33.5 205.5v627h172v-602q0 -156 82.5 -241t214.5 -85q133 0 218 85t85 241v602h172zM295 1257q0 100 51 153.5t125 53.5q42 0 78.5 -19t57.5 -41.5t48.5 -41.5
t53.5 -19q32 0 52.5 22.5t20.5 59.5h127q0 -100 -51 -153t-125 -53q-35 0 -64.5 12.5t-50.5 30t-39.5 35t-39.5 30t-43 12.5q-32 0 -53 -22.5t-21 -59.5h-127z" />
    <glyph glyph-name="Umacron" unicode="&#x16a;" horiz-adv-x="1284" 
d="M643 -20q-149 0 -266 61.5t-186.5 185.5t-69.5 293v934h176v-932q0 -184 97.5 -279.5t248.5 -95.5q149 0 246.5 95.5t97.5 279.5v932h176v-934q0 -169 -69.5 -293t-186 -185.5t-264.5 -61.5zM268 1681v138h750v-138h-750z" />
    <glyph glyph-name="umacron" unicode="&#x16b;" 
d="M1065 1065v-1065h-172v174q-46 -84 -136.5 -139t-219.5 -55q-86 0 -159.5 27.5t-131.5 81.5t-91.5 143.5t-33.5 205.5v627h172v-602q0 -156 82.5 -241t214.5 -85q133 0 218 85t85 241v602h172zM227 1292v138h750v-138h-750z" />
    <glyph glyph-name="Ubreve" unicode="&#x16c;" horiz-adv-x="1284" 
d="M643 -20q-149 0 -266 61.5t-186.5 185.5t-69.5 293v934h176v-932q0 -184 97.5 -279.5t248.5 -95.5q149 0 246.5 95.5t97.5 279.5v932h176v-934q0 -169 -69.5 -293t-186 -185.5t-264.5 -61.5zM348 1905h125q0 -78 42.5 -130.5t133.5 -52.5t133.5 52.5t42.5 130.5h125
q1 -56 -16.5 -107t-52 -94t-95 -68.5t-137.5 -25.5t-137.5 25.5t-95 68.5t-52 94t-16.5 107z" />
    <glyph glyph-name="ubreve" unicode="&#x16d;" 
d="M1065 1065v-1065h-172v174q-46 -84 -136.5 -139t-219.5 -55q-86 0 -159.5 27.5t-131.5 81.5t-91.5 143.5t-33.5 205.5v627h172v-602q0 -156 82.5 -241t214.5 -85q133 0 218 85t85 241v602h172zM307 1516h125q0 -78 42.5 -130.5t133.5 -52.5t133.5 52.5t42.5 130.5h125
q1 -56 -16.5 -107t-52 -94t-95 -68.5t-137.5 -25.5t-137.5 25.5t-95 68.5t-52 94t-16.5 107z" />
    <glyph glyph-name="Uring" unicode="&#x16e;" horiz-adv-x="1284" 
d="M643 -20q-149 0 -266 61.5t-186.5 185.5t-69.5 293v934h176v-932q0 -184 97.5 -279.5t248.5 -95.5q149 0 246.5 95.5t97.5 279.5v932h176v-934q0 -169 -69.5 -293t-186 -185.5t-264.5 -61.5zM451 1792q0 80 54.5 135t137.5 55q77 0 132.5 -55.5t55.5 -134.5
q0 -78 -55.5 -133t-132.5 -55q-82 0 -137 54.5t-55 133.5zM567 1792q0 -31 21 -52.5t53 -21.5q31 0 52.5 21.5t21.5 52.5t-21.5 52.5t-52.5 21.5q-32 0 -53 -21.5t-21 -52.5z" />
    <glyph glyph-name="uring" unicode="&#x16f;" 
d="M1065 1065v-1065h-172v174q-46 -84 -136.5 -139t-219.5 -55q-86 0 -159.5 27.5t-131.5 81.5t-91.5 143.5t-33.5 205.5v627h172v-602q0 -156 82.5 -241t214.5 -85q133 0 218 85t85 241v602h172zM412 1403q0 80 54.5 135t137.5 55q77 0 133 -55.5t56 -134.5
q0 -78 -56 -133.5t-133 -55.5q-82 0 -137 55t-55 134zM528 1403q0 -31 21 -52.5t53 -21.5q31 0 52.5 21.5t21.5 52.5t-21.5 52.5t-52.5 21.5q-32 0 -53 -21.5t-21 -52.5z" />
    <glyph glyph-name="Uhungarumlaut" unicode="&#x170;" horiz-adv-x="1284" 
d="M643 -20q-149 0 -266 61.5t-186.5 185.5t-69.5 293v934h176v-932q0 -184 97.5 -279.5t248.5 -95.5q149 0 246.5 95.5t97.5 279.5v932h176v-934q0 -169 -69.5 -293t-186 -185.5t-264.5 -61.5zM416 1587l188 318h150l-193 -318h-145zM719 1587l188 318h150l-193 -318h-145z
" />
    <glyph glyph-name="uhungarumlaut" unicode="&#x171;" 
d="M1065 1065v-1065h-172v174q-46 -84 -136.5 -139t-219.5 -55q-86 0 -159.5 27.5t-131.5 81.5t-91.5 143.5t-33.5 205.5v627h172v-602q0 -156 82.5 -241t214.5 -85q133 0 218 85t85 241v602h172zM377 1198l188 318h150l-193 -318h-145zM680 1198l188 318h150l-193 -318
h-145z" />
    <glyph glyph-name="Uogonek" unicode="&#x172;" horiz-adv-x="1284" 
d="M698 -406q-39 -21 -94 -23t-106.5 14t-88 61t-36.5 110q0 73 48.5 132t135.5 98q-196 27 -316 166.5t-120 367.5v934h176v-932q0 -184 97.5 -279.5t248.5 -95.5q149 0 246.5 95.5t97.5 279.5v932h176v-934q0 -213 -105.5 -349.5t-281.5 -176.5q-131 -38 -187.5 -93
t-56.5 -116q0 -64 52.5 -94.5t113.5 -9.5v-87z" />
    <glyph glyph-name="uogonek" unicode="&#x173;" 
d="M1065 1065v-1065h4q-143 -38 -204.5 -95t-61.5 -120q0 -64 52.5 -94.5t113.5 -9.5v-87q-39 -21 -94 -23t-107 14t-88.5 61t-36.5 110q0 86 66.5 151t183.5 103v164q-46 -84 -136.5 -139t-219.5 -55q-86 0 -159.5 27.5t-131.5 81.5t-91.5 143.5t-33.5 205.5v627h172v-602
q0 -156 82.5 -241t214.5 -85q133 0 218 85t85 241v602h172z" />
    <glyph glyph-name="Wcircumflex" unicode="&#x174;" horiz-adv-x="2041" 
d="M502 0l-443 1454h187l338 -1143l366 1143h142l366 -1143l338 1143h186l-442 -1454h-141l-379 1149l-377 -1149h-141zM764 1653l194 252h123l195 -252l-94 -80l-162 213l-162 -213z" />
    <glyph glyph-name="wcircumflex" unicode="&#x175;" horiz-adv-x="1888" 
d="M1278 0l-334 856l-334 -856h-159l-402 1065h174l309 -850l330 850h164l330 -850l309 850h174l-401 -1065h-160zM688 1264l195 252h123l194 -252l-94 -80l-162 213l-162 -213z" />
    <glyph glyph-name="Ycircumflex" unicode="&#x176;" horiz-adv-x="1331" 
d="M578 0v627l-519 827h201l406 -661l405 661h201l-518 -827v-627h-176zM410 1653l194 252h123l195 -252l-95 -80l-161 213l-162 -213z" />
    <glyph glyph-name="ycircumflex" unicode="&#x177;" horiz-adv-x="1163" 
d="M322 -389l176 399l-449 1055h178l355 -852l354 852h178l-452 -1065l-170 -389h-170zM340 1264l195 252h122l195 -252l-94 -80l-162 213l-162 -213z" />
    <glyph glyph-name="Ydieresis" unicode="&#x178;" horiz-adv-x="1331" 
d="M578 0v627l-519 827h201l406 -661l405 661h201l-518 -827v-627h-176zM365 1681v174h163v-174h-163zM803 1681v174h164v-174h-164z" />
    <glyph glyph-name="Zacute" unicode="&#x179;" horiz-adv-x="1189" 
d="M49 0l799 1290h-758v164h1040l-798 -1290h782v-164h-1065zM510 1587l188 318h150l-193 -318h-145z" />
    <glyph glyph-name="zacute" unicode="&#x17a;" horiz-adv-x="1056" 
d="M49 0l674 911h-614v154h899l-674 -911h643v-154h-928zM475 1198l189 318h149l-192 -318h-146z" />
    <glyph glyph-name="Zdotaccent" unicode="&#x17b;" horiz-adv-x="1189" 
d="M49 0l799 1290h-758v164h1040l-798 -1290h782v-164h-1065zM489 1681v174h173v-174h-173z" />
    <glyph glyph-name="zdotaccent" unicode="&#x17c;" horiz-adv-x="1056" 
d="M49 0l674 911h-614v154h899l-674 -911h643v-154h-928zM455 1292v174h172v-174h-172z" />
    <glyph glyph-name="Zcaron" unicode="&#x17d;" horiz-adv-x="1189" 
d="M49 0l799 1290h-758v164h1040l-798 -1290h782v-164h-1065zM303 1825l90 80l185 -211l184 211l92 -80l-217 -252h-117z" />
    <glyph glyph-name="zcaron" unicode="&#x17e;" horiz-adv-x="1056" 
d="M49 0l674 911h-614v154h899l-674 -911h643v-154h-928zM266 1436l90 80l185 -211l184 211l92 -80l-217 -252h-117z" />
    <glyph glyph-name="uni018F" unicode="&#x18f;" horiz-adv-x="1609" 
d="M774 -20q-116 0 -221.5 33t-192 98t-148 155t-91 212t-19.5 261h1223q-2 126 -48 233.5t-122.5 180t-178.5 113.5t-216 41q-121 0 -234 -49t-194 -162l-127 94q55 81 126 139.5t146.5 89t145 43.5t141.5 13q150 0 286 -55t237.5 -152t161.5 -237.5t60 -303.5t-59 -303.5
t-159 -237t-234 -151.5t-283 -55zM274 590q24 -219 159 -331t327 -112q202 0 355.5 121t195.5 322h-1037z" />
    <glyph glyph-name="florin" unicode="&#x192;" horiz-adv-x="739" 
d="M59 -397q-105 0 -170 41v137q57 -29 129 -29q164 0 164 185v987h-123v141h123v111q0 75 19.5 133t50 92t71 56t78.5 30t78 8q105 0 170 -41v-137q-57 29 -129 29q-164 0 -164 -185v-96h293v-141h-293v-1002q0 -75 -19.5 -133t-50 -92t-71 -56t-78.5 -30t-78 -8z" />
    <glyph glyph-name="Ohorn" unicode="&#x1a0;" horiz-adv-x="1677" 
d="M840 -20q-198 0 -366 92.5t-271 265t-103 389.5q0 131 39 248.5t108 207.5t161.5 156.5t203 101t228.5 34.5h393q77 0 113 36.5t36 112.5v45h144v-88q0 -108 -70 -174t-186 -66h-2q143 -100 226 -259.5t83 -354.5q0 -163 -60 -304t-161 -237.5t-235 -151t-281 -54.5z
M281 727q0 -128 46 -238t123 -183t178 -114.5t212 -41.5q110 0 210.5 41.5t177.5 114.5t123 183t46 238q0 170 -78.5 304t-204.5 204t-274 70q-111 0 -212 -41.5t-178 -115t-123 -183.5t-46 -238z" />
    <glyph glyph-name="ohorn" unicode="&#x1a1;" horiz-adv-x="1245" 
d="M623 -20q-105 0 -203 37t-176.5 105t-126 174.5t-47.5 235.5t47.5 236t126 175t176.5 105t203 37h251q76 0 113 36.5t37 113.5v45h143v-88q0 -90 -49.5 -151t-134.5 -80q90 -74 141.5 -183t51.5 -246q0 -129 -47.5 -235.5t-126 -174.5t-176.5 -105t-203 -37zM242 532
q0 -92 31.5 -168t85 -124.5t121.5 -75.5t143 -27t143 27t121.5 75.5t85 124.5t31.5 168q0 121 -54.5 213t-140.5 137.5t-186 45.5t-186 -45.5t-140.5 -137.5t-54.5 -213z" />
    <glyph glyph-name="Uhorn" unicode="&#x1af;" horiz-adv-x="1284" 
d="M643 -20q-149 0 -266 61.5t-186.5 185.5t-69.5 293v934h176v-932q0 -184 97.5 -279.5t248.5 -95.5q149 0 246.5 95.5t97.5 279.5v932h150q77 0 113 34t36 109v72h144v-117q0 -106 -70.5 -171.5t-185.5 -65.5h-11v-795q0 -169 -69.5 -293t-186 -185.5t-264.5 -61.5z" />
    <glyph glyph-name="uhorn" unicode="&#x1b0;" 
d="M121 438v627h172v-602q0 -156 82.5 -241t214.5 -85q133 0 218 85t85 241v602h123q77 0 113 34t36 109v72h144v-117q0 -103 -67 -167.5t-177 -69.5v-926h-172v174q-46 -84 -136.5 -139t-219.5 -55q-86 0 -159.5 27.5t-131.5 81.5t-91.5 143.5t-33.5 205.5z" />
    <glyph glyph-name="uni01CD" unicode="&#x1cd;" horiz-adv-x="1409" 
d="M616 1454h177l577 -1454h-190l-131 336h-689l-131 -336h-190zM424 500h561l-280 727zM430 1825l90 80l185 -211l184 211l92 -80l-217 -252h-117z" />
    <glyph glyph-name="uni01CE" unicode="&#x1ce;" horiz-adv-x="1290" 
d="M592 -20q-99 0 -191 36t-166.5 102.5t-119.5 174t-45 239.5t45 239.5t119.5 174.5t166.5 103t191 36q142 0 250 -65t149 -156h6v201h172v-1065h-172v201h-6q-41 -91 -149 -156t-250 -65zM242 532q0 -95 32.5 -172.5t86.5 -125t121 -72.5t139 -25q74 0 141.5 25.5t122 73
t87 124.5t32.5 172t-32.5 172t-87 125t-122 73.5t-141.5 25.5q-72 0 -139 -25.5t-121 -73t-86.5 -125t-32.5 -172.5zM352 1436l90 80l185 -211l184 211l92 -80l-217 -252h-117z" />
    <glyph glyph-name="uni01CF" unicode="&#x1cf;" horiz-adv-x="417" 
d="M121 0v1454h176v-1454h-176zM-66 1825l91 80l184 -211l184 211l92 -80l-217 -252h-116z" />
    <glyph glyph-name="uni01D0" unicode="&#x1d0;" horiz-adv-x="413" 
d="M121 0v1065h172v-1065h-172zM-68 1436l91 80l184 -211l184 211l92 -80l-217 -252h-116z" />
    <glyph glyph-name="uni01D1" unicode="&#x1d1;" horiz-adv-x="1677" 
d="M840 -20q-198 0 -366 92.5t-271 265t-103 389.5q0 131 39 248.5t108 207.5t161.5 156.5t203 101t228.5 34.5q147 0 281 -55t235 -151t161 -237.5t60 -304.5t-60 -304t-161 -237.5t-235 -151t-281 -54.5zM281 727q0 -128 46 -238t123 -183t178 -114.5t212 -41.5
q110 0 210.5 41.5t177.5 114.5t123 183t46 238q0 170 -78.5 304t-204.5 204t-274 70q-111 0 -212 -41.5t-178 -115t-123 -183.5t-46 -238zM563 1825l90 80l185 -211l184 211l92 -80l-217 -252h-117z" />
    <glyph glyph-name="uni01D2" unicode="&#x1d2;" horiz-adv-x="1245" 
d="M623 -20q-105 0 -203 37t-176.5 105t-126 174.5t-47.5 235.5t47.5 236t126 175t176.5 105t203 37t203 -37t176.5 -105t126 -175t47.5 -236t-47.5 -235.5t-126 -174.5t-176.5 -105t-203 -37zM242 532q0 -92 31.5 -168t85 -124.5t121.5 -75.5t143 -27t143 27t121.5 75.5
t85 124.5t31.5 168q0 121 -54.5 213t-140.5 137.5t-186 45.5t-186 -45.5t-140.5 -137.5t-54.5 -213zM348 1436l90 80l185 -211l184 211l92 -80l-217 -252h-117z" />
    <glyph glyph-name="uni01D3" unicode="&#x1d3;" horiz-adv-x="1284" 
d="M643 -20q-149 0 -266 61.5t-186.5 185.5t-69.5 293v934h176v-932q0 -184 97.5 -279.5t248.5 -95.5q149 0 246.5 95.5t97.5 279.5v932h176v-934q0 -169 -69.5 -293t-186 -185.5t-264.5 -61.5zM367 1825l90 80l184 -211l184 211l93 -80l-218 -252h-116z" />
    <glyph glyph-name="uni01D4" unicode="&#x1d4;" 
d="M1065 1065v-1065h-172v174q-46 -84 -136.5 -139t-219.5 -55q-86 0 -159.5 27.5t-131.5 81.5t-91.5 143.5t-33.5 205.5v627h172v-602q0 -156 82.5 -241t214.5 -85q133 0 218 85t85 241v602h172zM328 1436l90 80l184 -211l184 211l93 -80l-217 -252h-117z" />
    <glyph glyph-name="uni01D5" unicode="&#x1d5;" horiz-adv-x="1284" 
d="M643 -20q-149 0 -266 61.5t-186.5 185.5t-69.5 293v934h176v-932q0 -184 97.5 -279.5t248.5 -95.5q149 0 246.5 95.5t97.5 279.5v932h176v-934q0 -169 -69.5 -293t-186 -185.5t-264.5 -61.5zM268 2042v137h750v-137h-750zM342 1681v174h164v-174h-164zM780 1681v174h164
v-174h-164z" />
    <glyph glyph-name="uni01D6" unicode="&#x1d6;" 
d="M1065 1065v-1065h-172v174q-46 -84 -136.5 -139t-219.5 -55q-86 0 -159.5 27.5t-131.5 81.5t-91.5 143.5t-33.5 205.5v627h172v-602q0 -156 82.5 -241t214.5 -85q133 0 218 85t85 241v602h172zM227 1653v137h750v-137h-750zM301 1292v174h164v-174h-164zM739 1292v174
h164v-174h-164z" />
    <glyph glyph-name="uni01D7" unicode="&#x1d7;" horiz-adv-x="1284" 
d="M643 -20q-149 0 -266 61.5t-186.5 185.5t-69.5 293v934h176v-932q0 -184 97.5 -279.5t248.5 -95.5q149 0 246.5 95.5t97.5 279.5v932h176v-934q0 -169 -69.5 -293t-186 -185.5t-264.5 -61.5zM342 1681v174h164v-174h-164zM573 1948l189 317h149l-192 -317h-146zM780 1681
v174h164v-174h-164z" />
    <glyph glyph-name="uni01D8" unicode="&#x1d8;" 
d="M1065 1065v-1065h-172v174q-46 -84 -136.5 -139t-219.5 -55q-86 0 -159.5 27.5t-131.5 81.5t-91.5 143.5t-33.5 205.5v627h172v-602q0 -156 82.5 -241t214.5 -85q133 0 218 85t85 241v602h172zM301 1292v174h164v-174h-164zM535 1559l188 317h149l-192 -317h-145z
M739 1292v174h164v-174h-164z" />
    <glyph glyph-name="uni01D9" unicode="&#x1d9;" horiz-adv-x="1284" 
d="M643 -20q-149 0 -266 61.5t-186.5 185.5t-69.5 293v934h176v-932q0 -184 97.5 -279.5t248.5 -95.5q149 0 246.5 95.5t97.5 279.5v932h176v-934q0 -169 -69.5 -293t-186 -185.5t-264.5 -61.5zM342 1681v174h164v-174h-164zM367 2185l90 80l184 -211l184 211l93 -80
l-218 -252h-116zM780 1681v174h164v-174h-164z" />
    <glyph glyph-name="uni01DA" unicode="&#x1da;" 
d="M1065 1065v-1065h-172v174q-46 -84 -136.5 -139t-219.5 -55q-86 0 -159.5 27.5t-131.5 81.5t-91.5 143.5t-33.5 205.5v627h172v-602q0 -156 82.5 -241t214.5 -85q133 0 218 85t85 241v602h172zM301 1292v174h164v-174h-164zM328 1796l90 80l184 -211l184 211l93 -80
l-217 -252h-117zM739 1292v174h164v-174h-164z" />
    <glyph glyph-name="uni01DB" unicode="&#x1db;" horiz-adv-x="1284" 
d="M643 -20q-149 0 -266 61.5t-186.5 185.5t-69.5 293v934h176v-932q0 -184 97.5 -279.5t248.5 -95.5q149 0 246.5 95.5t97.5 279.5v932h176v-934q0 -169 -69.5 -293t-186 -185.5t-264.5 -61.5zM342 1681v174h164v-174h-164zM397 2265h150l178 -317h-145zM780 1681v174h164
v-174h-164z" />
    <glyph glyph-name="uni01DC" unicode="&#x1dc;" 
d="M1065 1065v-1065h-172v174q-46 -84 -136.5 -139t-219.5 -55q-86 0 -159.5 27.5t-131.5 81.5t-91.5 143.5t-33.5 205.5v627h172v-602q0 -156 82.5 -241t214.5 -85q133 0 218 85t85 241v602h172zM301 1292v174h164v-174h-164zM358 1876h150l178 -317h-145zM739 1292v174
h164v-174h-164z" />
    <glyph glyph-name="uni01DE" unicode="&#x1de;" horiz-adv-x="1409" 
d="M616 1454h177l577 -1454h-190l-131 336h-689l-131 -336h-190zM330 2042v137h749v-137h-749zM403 1681v174h164v-174h-164zM424 500h561l-280 727zM842 1681v174h164v-174h-164z" />
    <glyph glyph-name="uni01DF" unicode="&#x1df;" horiz-adv-x="1290" 
d="M592 -20q-99 0 -191 36t-166.5 102.5t-119.5 174t-45 239.5t45 239.5t119.5 174.5t166.5 103t191 36q142 0 250 -65t149 -156h6v201h172v-1065h-172v201h-6q-41 -91 -149 -156t-250 -65zM242 532q0 -95 32.5 -172.5t86.5 -125t121 -72.5t139 -25q74 0 141.5 25.5t122 73
t87 124.5t32.5 172t-32.5 172t-87 125t-122 73.5t-141.5 25.5q-72 0 -139 -25.5t-121 -73t-86.5 -125t-32.5 -172.5zM252 1653v137h749v-137h-749zM326 1292v174h163v-174h-163zM764 1292v174h164v-174h-164z" />
    <glyph glyph-name="Gcaron" unicode="&#x1e6;" horiz-adv-x="1611" 
d="M838 -20q-200 0 -368 93t-269 265.5t-101 388.5q0 163 59 303.5t159.5 237.5t236.5 152t287 55q72 0 142.5 -13.5t147 -44t148.5 -88.5t129 -139l-127 -94q-84 112 -199 160.5t-237 48.5q-157 0 -285 -70.5t-204 -203.5t-76 -304q0 -128 44.5 -238t121 -185.5t180 -118
t219.5 -42.5q92 0 173 27t148 80t111 140t57 200h-411v149h583q13 -173 -35 -318t-141.5 -240.5t-220.5 -148t-272 -52.5zM573 1825l91 80l184 -211l184 211l92 -80l-217 -252h-116z" />
    <glyph glyph-name="gcaron" unicode="&#x1e7;" horiz-adv-x="1290" 
d="M633 -426q-101 0 -186.5 22t-127.5 52v145q43 -29 118.5 -50.5t168.5 -21.5q81 0 149.5 19t124 58t86.5 105t31 154v144h-10q-39 -91 -147 -156t-248 -65q-78 0 -152.5 22t-141.5 67.5t-118 110t-80.5 155.5t-29.5 197t29.5 197t80.5 155.5t118 110.5t141.5 68t152.5 22
q140 0 248 -65t147 -156h10v201h172v-1006q0 -109 -32.5 -195t-85 -139t-124 -88t-144 -49t-150.5 -14zM242 532q0 -95 32.5 -172.5t86.5 -125t121 -72.5t139 -25q73 0 140.5 25.5t122 73t87.5 124.5t33 172t-33 172t-87.5 125t-122 73.5t-140.5 25.5q-72 0 -139 -25.5
t-121 -73t-86.5 -125t-32.5 -172.5zM371 1436l90 80l184 -211l184 211l93 -80l-217 -252h-117z" />
    <glyph glyph-name="uni01E8" unicode="&#x1e8;" horiz-adv-x="1280" 
d="M121 0v1454h176v-790l678 790h205l-578 -670l629 -784h-201l-534 659l-199 -229v-430h-176zM410 1825l90 80l184 -211l184 211l93 -80l-218 -252h-116z" />
    <glyph glyph-name="uni01E9" unicode="&#x1e9;" horiz-adv-x="1114" 
d="M121 0v1454h172v-954l512 565h211l-449 -487l498 -578h-201l-405 461l-166 -180v-281h-172zM-70 1825l90 80l185 -211l184 211l92 -80l-217 -252h-117z" />
    <glyph glyph-name="uni01EA" unicode="&#x1ea;" horiz-adv-x="1677" 
d="M840 150q110 0 210.5 41.5t177.5 114.5t123 183t46 238q0 170 -78.5 304t-204.5 204t-274 70q-111 0 -212 -41.5t-178 -115t-123 -183.5t-46 -238t46 -238t123 -183t178 -114.5t212 -41.5zM100 727q0 131 39 248.5t108 207.5t161.5 156.5t203 101t228.5 34.5
q147 0 281 -55t235 -151t161 -237.5t60 -304.5q0 -138 -43.5 -261.5t-119 -215.5t-177 -156.5t-219.5 -93.5h4q-143 -38 -204.5 -95t-61.5 -120q0 -64 52.5 -94.5t113.5 -9.5v-87q-39 -21 -94 -23t-107 14t-88.5 61t-36.5 110q0 144 178 226q-137 12 -260 71.5t-215 154.5
t-145.5 230t-53.5 289z" />
    <glyph glyph-name="uni0218" unicode="&#x218;" horiz-adv-x="1093" 
d="M557 -20q-183 0 -316.5 98t-170.5 256l145 67q31 -116 122.5 -187t219.5 -71q122 0 204.5 65.5t82.5 184.5q0 105 -67 165.5t-210 117.5l-96 37q-168 68 -255 162.5t-87 230.5q0 166 119 267.5t299 101.5q168 0 279.5 -86.5t158.5 -217.5l-135 -69q-92 211 -299 211
q-107 0 -176.5 -56.5t-69.5 -152.5q0 -79 54.5 -139.5t179.5 -110.5l98 -39q196 -77 291.5 -172t95.5 -252q0 -97 -38.5 -176.5t-103.5 -130t-148.5 -77.5t-176.5 -27zM309 -539l162 461h156l-164 -461h-154z" />
    <glyph glyph-name="uni0219" unicode="&#x219;" horiz-adv-x="874" 
d="M434 -20q-150 0 -250 76t-125 212l144 39q22 -86 82.5 -135t148.5 -49q83 0 142 42t59 124q0 63 -43 103t-141 81l-97 37q-250 102 -250 297q0 124 94.5 201t235.5 77q127 0 216.5 -64.5t117.5 -172.5l-137 -41q-51 137 -191 137q-72 0 -119 -37t-47 -102
q0 -104 154 -166l86 -35q70 -28 117.5 -53.5t90 -62t63 -86t20.5 -113.5q0 -101 -53.5 -173t-135.5 -104t-182 -32zM190 -539l162 461h156l-164 -461h-154z" />
    <glyph glyph-name="uni021A" unicode="&#x21a;" horiz-adv-x="1085" 
d="M455 0v1290h-385v164h946v-164h-385v-1290h-176zM305 -539l162 461h156l-164 -461h-154z" />
    <glyph glyph-name="uni021B" unicode="&#x21b;" horiz-adv-x="675" 
d="M451 -12q-111 0 -174.5 56.5t-63.5 172.5v707h-143v141h143v272h172v-272h211v-141h-211v-674q0 -107 113 -107q43 0 96 19v-137q-47 -37 -143 -37zM178 -528l162 460h156l-164 -460h-154z" />
    <glyph glyph-name="uni0237" unicode="&#x237;" horiz-adv-x="417" 
d="M-184 -395v159h47q63 0 108 11.5t81.5 41t54.5 84t18 136.5v1028h172v-1040q0 -119 -29 -201.5t-86.5 -130t-133.5 -68t-181 -20.5h-51z" />
    <glyph glyph-name="uni0259" unicode="&#x259;" 
d="M569 1085q109 0 207 -37.5t174 -106t121 -174.5t45 -235q0 -130 -45 -236.5t-120 -174.5t-169 -104.5t-196 -36.5q-83 0 -161 23t-147.5 73t-118.5 120.5t-72 174t-11 225.5h876q-20 162 -131 252t-270 90q-95 0 -177.5 -33t-140.5 -96l-86 88q72 89 182.5 138.5
t239.5 49.5zM227 465q9 -157 112.5 -246.5t244.5 -89.5q90 0 167.5 36.5t132.5 114t68 185.5h-725z" />
    <glyph glyph-name="uni02BC" unicode="&#x2bc;" horiz-adv-x="428" 
d="M55 993l162 461h156l-164 -461h-154z" />
    <glyph glyph-name="circumflex" unicode="&#x2c6;" horiz-adv-x="593" 
d="M135 1184l-94 80l195 252h122l195 -252l-94 -80l-162 213z" />
    <glyph glyph-name="caron" unicode="&#x2c7;" horiz-adv-x="591" 
d="M238 1184l-218 252l91 80l184 -211l184 211l92 -80l-217 -252h-116z" />
    <glyph glyph-name="breve" unicode="&#x2d8;" horiz-adv-x="630" 
d="M322 1221q-77 0 -137.5 25.5t-95.5 68.5t-52.5 94t-16.5 107h125q0 -78 43 -130.5t134 -52.5t133.5 52.5t42.5 130.5h125q1 -56 -16.5 -107t-52 -94t-95 -68.5t-137.5 -25.5z" />
    <glyph glyph-name="dotaccent" unicode="&#x2d9;" horiz-adv-x="212" 
d="M18 1292v174h172v-174h-172z" />
    <glyph glyph-name="ring" unicode="&#x2da;" horiz-adv-x="421" 
d="M213 1214q-82 0 -137.5 55t-55.5 134q0 80 55 135t138 55q77 0 132.5 -55.5t55.5 -134.5q0 -78 -55.5 -133.5t-132.5 -55.5zM137 1403q0 -31 21 -52.5t53 -21.5q31 0 52.5 21.5t21.5 52.5t-21.5 52.5t-52.5 21.5q-32 0 -53 -21.5t-21 -52.5z" />
    <glyph glyph-name="ogonek" unicode="&#x2db;" horiz-adv-x="466" 
d="M346 -406q-39 -21 -94 -23t-107 14t-88.5 61t-36.5 110q0 91 74 158t201 104l151 -18q-143 -38 -204.5 -95t-61.5 -120q0 -64 52.5 -94.5t113.5 -9.5v-87z" />
    <glyph glyph-name="tilde" unicode="&#x2dc;" horiz-adv-x="696" 
d="M479 1219q-35 0 -64.5 12.5t-50.5 30t-39.5 35t-39.5 30t-43 12.5q-32 0 -53 -22.5t-21 -59.5h-127q0 100 51 153.5t125 53.5q42 0 78.5 -19t57.5 -41.5t48.5 -41.5t53.5 -19q32 0 52.5 22.5t20.5 59.5h127q0 -100 -51 -153t-125 -53z" />
    <glyph glyph-name="hungarumlaut" unicode="&#x2dd;" horiz-adv-x="630" 
d="M324 1198l188 318h150l-193 -318h-145zM20 1198l189 318h149l-192 -318h-146z" />
    <glyph glyph-name="gravecomb" unicode="&#x300;" horiz-adv-x="0" 
d="M203 1198l-183 318h150l178 -318h-145z" />
    <glyph glyph-name="acutecomb" unicode="&#x301;" horiz-adv-x="0" 
d="M20 1198l189 318h149l-192 -318h-146z" />
    <glyph glyph-name="uni0302" unicode="&#x302;" horiz-adv-x="0" 
d="M125 1184l-94 80l194 252h123l195 -252l-94 -80l-162 213z" />
    <glyph glyph-name="tildecomb" unicode="&#x303;" horiz-adv-x="0" 
d="M469 1219q-35 0 -64.5 12.5t-50.5 30t-40 35t-40 30t-43 12.5q-32 0 -52.5 -22.5t-20.5 -59.5h-127q0 100 51 153.5t125 53.5q42 0 78.5 -19t57 -41.5t48 -41.5t53.5 -19q32 0 53 22.5t21 59.5h127q0 -100 -51 -153t-125 -53z" />
    <glyph glyph-name="uni0304" unicode="&#x304;" horiz-adv-x="0" 
d="M20 1292v138h750v-138h-750z" />
    <glyph glyph-name="uni0306" unicode="&#x306;" horiz-adv-x="0" 
d="M322 1221q-77 0 -137.5 25.5t-95.5 68.5t-52.5 94t-16.5 107h125q0 -78 43 -130.5t134 -52.5t133.5 52.5t42.5 130.5h125q1 -56 -16.5 -107t-52 -94t-95 -68.5t-137.5 -25.5z" />
    <glyph glyph-name="uni0307" unicode="&#x307;" horiz-adv-x="0" 
d="M20 1292v174h173v-174h-173z" />
    <glyph glyph-name="uni0308" unicode="&#x308;" horiz-adv-x="0" 
d="M459 1292v174h164v-174h-164zM20 1292v174h164v-174h-164z" />
    <glyph glyph-name="hookabovecomb" unicode="&#x309;" horiz-adv-x="0" 
d="M209 1219v116h51q29 0 49.5 20t20.5 48t-20 47.5t-48 19.5q-42 0 -63 -40l-97 67q22 44 65 70t95 26q80 0 135.5 -55.5t55.5 -134.5q0 -77 -56.5 -130.5t-136.5 -53.5h-51z" />
    <glyph glyph-name="uni030A" unicode="&#x30a;" horiz-adv-x="0" 
d="M213 1214q-82 0 -137.5 55t-55.5 134q0 80 55 135t138 55q77 0 132.5 -55.5t55.5 -134.5q0 -78 -55.5 -133.5t-132.5 -55.5zM137 1403q0 -31 21 -52.5t53 -21.5q31 0 52.5 21.5t21.5 52.5t-21.5 52.5t-52.5 21.5q-32 0 -53 -21.5t-21 -52.5z" />
    <glyph glyph-name="uni030B" unicode="&#x30b;" horiz-adv-x="0" 
d="M324 1198l188 318h150l-193 -318h-145zM20 1198l189 318h149l-192 -318h-146z" />
    <glyph glyph-name="uni030C" unicode="&#x30c;" horiz-adv-x="0" 
d="M238 1184l-218 252l91 80l184 -211l184 211l92 -80l-217 -252h-116z" />
    <glyph glyph-name="uni0312" unicode="&#x312;" horiz-adv-x="0" 
d="M20 1198l189 318h149l-192 -318h-146z" />
    <glyph glyph-name="uni031B" unicode="&#x31b;" horiz-adv-x="0" 
d="M102 1065v139h117q77 0 113.5 34.5t36.5 109.5v71h143v-116q0 -106 -70.5 -172t-185.5 -66h-154z" />
    <glyph glyph-name="dotbelowcomb" unicode="&#x323;" horiz-adv-x="0" 
d="M102 -315v163h160v-163h-160z" />
    <glyph glyph-name="uni0326" unicode="&#x326;" horiz-adv-x="0" 
d="M20 -539l162 461h156l-164 -461h-154z" />
    <glyph glyph-name="uni0327" unicode="&#x327;" horiz-adv-x="0" 
d="M33 -362q186 -11 186 96q0 50 -41.5 75.5t-126.5 14.5l-31 51l80 125h138l-60 -86q77 0 127.5 -47t50.5 -123q0 -53 -28 -94t-73.5 -62.5t-103.5 -29.5t-118 6v74z" />
    <glyph glyph-name="uni0328" unicode="&#x328;" horiz-adv-x="0" 
d="M346 -406q-39 -21 -94 -23t-107 14t-88.5 61t-36.5 110q0 91 74 158t201 104l151 -18q-143 -38 -204.5 -95t-61.5 -120q0 -64 52.5 -94.5t113.5 -9.5v-87z" />
    <glyph glyph-name="uni0394" unicode="&#x394;" horiz-adv-x="1501" 
d="M102 0l625 1434h47l625 -1434h-1297zM332 154h837l-417 985z" />
    <glyph glyph-name="uni03A9" unicode="&#x3a9;" horiz-adv-x="1622" 
d="M152 0v168h247q-299 227 -299 561q0 153 61.5 289.5t161.5 229t228 146.5t260 54t260 -54t228 -146.5t161.5 -229t61.5 -289.5q0 -334 -299 -561h247v-168h-428v242l80 61q102 78 161.5 187.5t59.5 238.5q0 121 -45.5 226t-120 174.5t-170 109t-196.5 39.5t-196 -39.5
t-169.5 -109t-119.5 -174.5t-45 -226q0 -129 58.5 -238.5t160.5 -187.5l80 -61v-242h-428z" />
    <glyph glyph-name="uni03BC" unicode="&#x3bc;" 
d="M121 -389v1454h172v-602q0 -156 82.5 -241t214.5 -85q133 0 218 85t85 241v602h172v-1065h-172v174q-46 -84 -136.5 -139t-219.5 -55q-141 0 -244 69v-438h-172z" />
    <glyph glyph-name="pi" unicode="&#x3c0;" horiz-adv-x="1390" 
d="M1122 -12q-44 0 -82.5 10.5t-71.5 33t-52 64t-19 97.5v718h-414v-911h-176v911h-205v154h1174v-154h-203v-657q0 -68 20 -90.5t66 -22.5q67 0 139 37v-153q-72 -37 -176 -37z" />
    <glyph glyph-name="uni0400" unicode="&#x400;" horiz-adv-x="1009" 
d="M121 0v1454h780v-164h-604v-479h514v-162h-514v-485h623v-164h-799zM291 1905h149l178 -318h-145z" />
    <glyph glyph-name="uni0401" unicode="&#x401;" horiz-adv-x="1009" 
d="M121 0v1454h780v-164h-604v-479h514v-162h-514v-485h623v-164h-799zM233 1681v174h164v-174h-164zM672 1681v174h164v-174h-164z" />
    <glyph glyph-name="uni0403" unicode="&#x403;" horiz-adv-x="1036" 
d="M121 0v1454h835v-164h-659v-1290h-176zM498 1587l188 318h150l-193 -318h-145z" />
    <glyph glyph-name="uni0404" unicode="&#x404;" horiz-adv-x="1488" 
d="M688 641h-401q27 -222 184.5 -356.5t376.5 -134.5q121 0 234.5 48t197.5 160l129 -94q-57 -81 -128.5 -139t-148 -88t-147 -43.5t-143.5 -13.5q-203 0 -372 93t-269.5 265t-100.5 389q0 163 59 303.5t159 237.5t236 152t288 55q72 0 142.5 -13.5t147 -44t148.5 -88.5
t129 -139l-129 -94q-84 112 -198.5 160.5t-235.5 48.5q-221 0 -379.5 -140.5t-181.5 -369.5h403v-154z" />
    <glyph glyph-name="uni0405" unicode="&#x405;" horiz-adv-x="1093" 
d="M557 -20q-183 0 -316.5 98t-170.5 256l145 67q31 -116 122.5 -187t219.5 -71q122 0 204.5 65.5t82.5 184.5q0 105 -67 165.5t-210 117.5l-96 37q-168 68 -255 162.5t-87 230.5q0 166 119 267.5t299 101.5q168 0 279.5 -86.5t158.5 -217.5l-135 -69q-92 211 -299 211
q-107 0 -176.5 -56.5t-69.5 -152.5q0 -79 54.5 -139.5t179.5 -110.5l98 -39q196 -77 291.5 -172t95.5 -252q0 -97 -38.5 -176.5t-103.5 -130t-148.5 -77.5t-176.5 -27z" />
    <glyph glyph-name="uni0406" unicode="&#x406;" horiz-adv-x="417" 
d="M121 0v1454h176v-1454h-176z" />
    <glyph glyph-name="uni0407" unicode="&#x407;" horiz-adv-x="417" 
d="M121 0v1454h176v-1454h-176zM-92 1681v174h164v-174h-164zM346 1681v174h164v-174h-164z" />
    <glyph glyph-name="uni0408" unicode="&#x408;" horiz-adv-x="991" 
d="M432 -20q-126 0 -222 51.5t-151 142.5l115 115q94 -139 252 -139q53 0 99 16.5t85 51t61.5 96.5t22.5 145v995h176v-1016q0 -96 -24 -174t-65 -130t-97.5 -87.5t-119.5 -51t-132 -15.5z" />
    <glyph glyph-name="uni040C" unicode="&#x40c;" horiz-adv-x="1280" 
d="M121 0v1454h176v-790l678 790h205l-578 -670l629 -784h-201l-534 659l-199 -229v-430h-176zM592 1587l188 318h150l-193 -318h-145z" />
    <glyph glyph-name="uni040D" unicode="&#x40d;" horiz-adv-x="1421" 
d="M1300 0h-176v1159h-10l-815 -1159h-178v1454h176v-1159h10l815 1159h178v-1454zM469 1905h149l179 -318h-146z" />
    <glyph glyph-name="uni040E" unicode="&#x40e;" horiz-adv-x="1361" 
d="M322 0l260 483l-523 971h195l426 -790l426 790h194l-786 -1454h-192zM373 1905h125q0 -78 42.5 -130.5t133.5 -52.5t133.5 52.5t42.5 130.5h125q1 -56 -16.5 -107t-52 -94t-95 -68.5t-137.5 -25.5t-137.5 25.5t-95 68.5t-52 94t-16.5 107z" />
    <glyph glyph-name="uni0410" unicode="&#x410;" horiz-adv-x="1409" 
d="M616 1454h177l577 -1454h-190l-131 336h-689l-131 -336h-190zM424 500h561l-280 727z" />
    <glyph glyph-name="uni0411" unicode="&#x411;" horiz-adv-x="1175" 
d="M121 1454h837v-164h-661v-342h297q232 0 367 -131.5t135 -343.5q0 -210 -135.5 -341.5t-366.5 -131.5h-473v1454zM297 164h283q157 0 246 79t89 230t-89 230t-246 79h-283v-618z" />
    <glyph glyph-name="uni0412" unicode="&#x412;" horiz-adv-x="1173" 
d="M121 0v1454h497q187 0 289.5 -98t102.5 -244q0 -107 -56 -188.5t-159 -116.5q138 -33 218.5 -135t80.5 -256q0 -189 -126 -302.5t-368 -113.5h-479zM297 158h293q163 0 246.5 70.5t83.5 201.5q0 133 -84.5 211t-247.5 78h-291v-561zM297 858h285q123 0 190.5 62.5
t67.5 164.5q0 98 -65 154.5t-189 56.5h-289v-438z" />
    <glyph glyph-name="uni0413" unicode="&#x413;" horiz-adv-x="1036" 
d="M121 0v1454h835v-164h-659v-1290h-176z" />
    <glyph glyph-name="uni0414" unicode="&#x414;" horiz-adv-x="1576" 
d="M242 0v-141h-176v305h141q27 46 45 116t27.5 136t14 189t5 204.5t0.5 253.5v391h1022v-1290h190v-305h-176v141h-1093zM379 164h766v1126h-670v-227q0 -172 -0.5 -253.5t-5.5 -204.5t-14.5 -189t-28.5 -136t-47 -116z" />
    <glyph glyph-name="uni0415" unicode="&#x415;" horiz-adv-x="1009" 
d="M121 0v1454h780v-164h-604v-479h514v-162h-514v-485h623v-164h-799z" />
    <glyph glyph-name="uni0416" unicode="&#x416;" horiz-adv-x="2154" 
d="M61 0l629 784l-577 670h204l678 -790v790h176v-790l678 790h205l-577 -670l628 -784h-200l-535 659l-199 -229v-430h-176v430l-198 229l-535 -659h-201z" />
    <glyph glyph-name="uni0417" unicode="&#x417;" horiz-adv-x="1196" 
d="M598 -20q-230 0 -371 126t-141 332h182q0 -134 96.5 -212.5t241.5 -78.5q86 0 156.5 27.5t118 91t47.5 154.5q0 136 -102 209t-285 76v133q86 4 151 27t101 59t53.5 76t17.5 85q0 101 -77 161.5t-191 60.5q-122 0 -202.5 -70t-80.5 -207h-182q0 206 131 325.5t332 119.5
q193 0 323 -104t130 -263q0 -118 -74 -207.5t-197 -120.5q64 -7 122.5 -34.5t106.5 -72.5t76.5 -114t28.5 -151q0 -196 -147 -312t-365 -116z" />
    <glyph glyph-name="uni0418" unicode="&#x418;" horiz-adv-x="1421" 
d="M1300 0h-176v1159h-10l-815 -1159h-178v1454h176v-1159h10l815 1159h178v-1454z" />
    <glyph glyph-name="uni0419" unicode="&#x419;" horiz-adv-x="1421" 
d="M1300 0h-176v1159h-10l-815 -1159h-178v1454h176v-1159h10l815 1159h178v-1454zM479 1884h125q0 -78 42.5 -130t133.5 -52t133.5 52t42.5 130h125q1 -56 -16.5 -107t-52 -94t-95 -68.5t-137.5 -25.5t-137.5 25.5t-95 68.5t-52 94t-16.5 107z" />
    <glyph glyph-name="uni041A" unicode="&#x41a;" horiz-adv-x="1280" 
d="M121 0v1454h176v-790l678 790h205l-578 -670l629 -784h-201l-534 659l-199 -229v-430h-176z" />
    <glyph glyph-name="uni041B" unicode="&#x41b;" horiz-adv-x="1443" 
d="M197 -12q-99 0 -162 37v147q67 -31 121 -31q94 0 94 103v1210h1073v-1454h-176v1290h-721v-1069q0 -233 -229 -233z" />
    <glyph glyph-name="uni041C" unicode="&#x41c;" horiz-adv-x="1763" 
d="M121 0v1454h196l564 -1227l565 1227h196v-1454h-176v1104h-10l-508 -1104h-133l-508 1104h-10v-1104h-176z" />
    <glyph glyph-name="uni041D" unicode="&#x41d;" horiz-adv-x="1314" 
d="M1018 0v635h-721v-635h-176v1454h176v-655h721v655h176v-1454h-176z" />
    <glyph glyph-name="uni041E" unicode="&#x41e;" horiz-adv-x="1677" 
d="M840 -20q-198 0 -366 92.5t-271 265t-103 389.5q0 131 39 248.5t108 207.5t161.5 156.5t203 101t228.5 34.5q147 0 281 -55t235 -151t161 -237.5t60 -304.5t-60 -304t-161 -237.5t-235 -151t-281 -54.5zM281 727q0 -128 46 -238t123 -183t178 -114.5t212 -41.5
q110 0 210.5 41.5t177.5 114.5t123 183t46 238q0 170 -78.5 304t-204.5 204t-274 70q-111 0 -212 -41.5t-178 -115t-123 -183.5t-46 -238z" />
    <glyph glyph-name="uni041F" unicode="&#x41f;" horiz-adv-x="1318" 
d="M1022 0v1290h-725v-1290h-176v1454h1077v-1454h-176z" />
    <glyph glyph-name="uni0420" unicode="&#x420;" horiz-adv-x="1175" 
d="M121 0v1454h473q231 0 366.5 -131.5t135.5 -341.5q0 -212 -135 -343.5t-367 -131.5h-297v-506h-176zM297 672h283q157 0 246 79t89 230t-89 230t-246 79h-283v-618z" />
    <glyph glyph-name="uni0421" unicode="&#x421;" horiz-adv-x="1488" 
d="M842 -20q-203 0 -372 93t-269.5 265t-100.5 389q0 163 59 303.5t159 237.5t236 152t288 55q72 0 142.5 -13.5t147 -44t148.5 -88.5t129 -139l-129 -94q-84 112 -198.5 160.5t-235.5 48.5q-155 0 -283.5 -71t-205 -204t-76.5 -303q0 -128 44.5 -237t121.5 -183
t180.5 -115.5t220.5 -41.5q121 0 234.5 48t197.5 160l129 -94q-57 -81 -128.5 -139t-148 -88t-147 -43.5t-143.5 -13.5z" />
    <glyph glyph-name="uni0422" unicode="&#x422;" horiz-adv-x="1085" 
d="M455 0v1290h-385v164h946v-164h-385v-1290h-176z" />
    <glyph glyph-name="uni0423" unicode="&#x423;" horiz-adv-x="1361" 
d="M322 0l260 483l-523 971h195l426 -790l426 790h194l-786 -1454h-192z" />
    <glyph glyph-name="uni0424" unicode="&#x424;" horiz-adv-x="1703" 
d="M762 0v143q-160 1 -290 45t-215 122t-131 184.5t-46 232.5t46 232.5t131 184.5t215 122t290 45v143h176v-143q162 -1 292.5 -45t216 -122t131.5 -184.5t46 -232.5t-46 -232.5t-131.5 -184.5t-216 -122t-292.5 -45v-143h-176zM256 727q0 -94 29.5 -170.5t89.5 -135
t158.5 -91t228.5 -33.5v860q-130 -1 -228.5 -33.5t-158.5 -91t-89.5 -135t-29.5 -170.5zM938 297q133 1 233 33t159.5 91t88.5 135t29 171t-29 171t-88.5 135t-159.5 91t-233 33v-860z" />
    <glyph glyph-name="uni0425" unicode="&#x425;" horiz-adv-x="1331" 
d="M1075 0l-409 596l-410 -596h-207l514 745l-487 709h207l383 -557l383 557h206l-487 -709l514 -745h-207z" />
    <glyph glyph-name="uni0426" unicode="&#x426;" horiz-adv-x="1435" 
d="M1200 -141v141h-1079v1454h176v-1290h725v1290h176v-1290h178v-305h-176z" />
    <glyph glyph-name="uni0427" unicode="&#x427;" horiz-adv-x="1234" 
d="M541 393q-92 0 -173 28t-146.5 82.5t-103.5 144.5t-38 206v600h176v-573q0 -155 91.5 -240.5t242.5 -85.5q152 0 250 86.5t98 239.5v573h176v-1454h-176v592q-22 -33 -54 -64.5t-80 -63.5t-116.5 -51.5t-146.5 -19.5z" />
    <glyph glyph-name="uni0428" unicode="&#x428;" horiz-adv-x="2043" 
d="M121 0v1454h176v-1290h637v1290h176v-1290h637v1290h176v-1454h-1802z" />
    <glyph glyph-name="uni0429" unicode="&#x429;" horiz-adv-x="2160" 
d="M1925 -141v141h-1804v1454h176v-1290h637v1290h176v-1290h637v1290h176v-1290h178v-305h-176z" />
    <glyph glyph-name="uni042A" unicode="&#x42a;" horiz-adv-x="1259" 
d="M0 1290v164h381v-506h297q232 0 367 -131.5t135 -343.5q0 -210 -135.5 -341.5t-366.5 -131.5h-473v1290h-205zM381 164h283q157 0 246 79t89 230t-89 230t-246 79h-283v-618z" />
    <glyph glyph-name="uni042B" unicode="&#x42b;" horiz-adv-x="1619" 
d="M121 1454h176v-506h297q232 0 367 -131.5t135 -343.5q0 -210 -135.5 -341.5t-366.5 -131.5h-473v1454zM297 164h283q157 0 246 79t89 230t-89 230t-246 79h-283v-618zM1323 0v1454h176v-1454h-176z" />
    <glyph glyph-name="uni042C" unicode="&#x42c;" horiz-adv-x="1175" 
d="M121 1454h176v-506h297q232 0 367 -131.5t135 -343.5q0 -210 -135.5 -341.5t-366.5 -131.5h-473v1454zM297 164h283q157 0 246 79t89 230t-89 230t-246 79h-283v-618z" />
    <glyph glyph-name="uni042D" unicode="&#x42d;" horiz-adv-x="1488" 
d="M821 641v154h404q-23 229 -181.5 369.5t-379.5 140.5q-121 0 -236 -48.5t-199 -160.5l-129 94q57 81 129 139t148.5 88.5t147.5 44t143 13.5q152 0 288 -55t236 -152t158.5 -237.5t58.5 -303.5t-58.5 -303.5t-158.5 -237t-236 -151.5t-288 -55q-73 0 -144 13.5t-147 43.5
t-148 88t-129 139l129 94q84 -112 198 -160t235 -48q219 0 376.5 134.5t184.5 356.5h-402z" />
    <glyph glyph-name="uni042E" unicode="&#x42e;" horiz-adv-x="2095" 
d="M121 0v1454h176v-659h223q16 200 121 356.5t266.5 240t349.5 83.5q147 0 281 -55t235.5 -151t161.5 -237.5t60 -304.5t-60 -304t-161.5 -237.5t-235.5 -151t-281 -54.5q-184 0 -344 81t-265.5 233t-125.5 347h-225v-641h-176zM698 727q0 -128 46 -238t123 -183
t178 -114.5t212 -41.5q110 0 211 41.5t178 114.5t123 183t46 238t-46 238t-123 183.5t-178 115t-211 41.5q-111 0 -212 -41.5t-178 -115t-123 -183.5t-46 -238z" />
    <glyph glyph-name="uni042F" unicode="&#x42f;" horiz-adv-x="1218" 
d="M272 0h-192l362 543q-147 46 -228 161t-81 277q0 210 134.5 341.5t361.5 131.5h469v-1454h-176v516h-293h-17zM313 981q0 -151 89.5 -230t246.5 -79h273v618h-273q-157 0 -246.5 -79t-89.5 -230z" />
    <glyph glyph-name="uni0430" unicode="&#x430;" horiz-adv-x="1290" 
d="M592 -20q-99 0 -191 36t-166.5 102.5t-119.5 174t-45 239.5t45 239.5t119.5 174.5t166.5 103t191 36q142 0 250 -65t149 -156h6v201h172v-1065h-172v201h-6q-41 -91 -149 -156t-250 -65zM242 532q0 -95 32.5 -172.5t86.5 -125t121 -72.5t139 -25q74 0 141.5 25.5t122 73
t87 124.5t32.5 172t-32.5 172t-87 125t-122 73.5t-141.5 25.5q-72 0 -139 -25.5t-121 -73t-86.5 -125t-32.5 -172.5z" />
    <glyph glyph-name="uni0431" unicode="&#x431;" horiz-adv-x="1290" 
d="M121 1116q0 157 71.5 237.5t231.5 80.5h317q61 0 87.5 8t39.5 33h168q-14 -100 -73.5 -143.5t-188.5 -43.5h-301q-101 0 -140.5 -46.5t-39.5 -151.5v-226h6q41 91 149 156t250 65q99 0 191 -36t167 -103t120 -174.5t45 -239.5t-45 -239.5t-120 -174t-167 -102.5t-191 -36
q-142 0 -250 65t-149 156h-6v-201h-172v1116zM287 532q0 -95 32.5 -172t87 -124.5t122 -73t141.5 -25.5q72 0 139 25t121 72.5t86.5 125t32.5 172.5t-32.5 172.5t-86.5 125t-121 73t-139 25.5q-74 0 -141.5 -25.5t-122 -73.5t-87 -125t-32.5 -172z" />
    <glyph glyph-name="uni0432" unicode="&#x432;" horiz-adv-x="1142" 
d="M121 0v1065h518q159 0 252.5 -68.5t93.5 -189.5q0 -72 -36.5 -129.5t-108.5 -87.5q223 -69 223 -277q0 -148 -116 -230.5t-329 -82.5h-497zM293 147h344q250 0 250 179q0 182 -250 182h-344v-361zM293 635h328q94 0 142 39t48 106q0 66 -47.5 102t-142.5 36h-328v-283z
" />
    <glyph glyph-name="uni0433" unicode="&#x433;" horiz-adv-x="966" 
d="M121 0v1065h764v-154h-592v-911h-172z" />
    <glyph glyph-name="uni0434" unicode="&#x434;" horiz-adv-x="1306" 
d="M238 0v-129h-172v283h92q25 37 42 91t25.5 105t13 147t5 160.5t0.5 202.5v205h880v-911h117v-283h-172v129h-831zM326 154h626v757h-534v-51q0 -132 -1 -202t-5.5 -162.5t-14 -145.5t-27.5 -106t-44 -90z" />
    <glyph glyph-name="uni0435" unicode="&#x435;" 
d="M616 -20q-109 0 -207 37t-173.5 105.5t-120.5 174.5t-45 235q0 130 45 237t120 174.5t169 104.5t196 37q83 0 161 -23t147.5 -73t118.5 -120.5t72 -174t11 -225.5h-877q20 -162 131.5 -252t270.5 -90q197 0 317 129l86 -88q-72 -89 -182.5 -138.5t-239.5 -49.5zM233 600
h725q-9 157 -112 246.5t-244 89.5q-90 0 -167.5 -36.5t-133 -114.5t-68.5 -185z" />
    <glyph glyph-name="uni0436" unicode="&#x436;" horiz-adv-x="1808" 
d="M813 0v326l-149 157l-418 -483h-207l514 598l-447 467h218l489 -520v520h172v-520l490 520h217l-447 -467l514 -598h-207l-417 483l-150 -157v-326h-172z" />
    <glyph glyph-name="uni0437" unicode="&#x437;" horiz-adv-x="1038" 
d="M518 -20q-193 0 -312.5 98t-119.5 260h164q0 -95 74.5 -154t197.5 -59q112 0 186 49t74 139q0 94 -81 142.5t-220 48.5v117q126 1 184 45t58 112q0 73 -57.5 116.5t-153.5 43.5q-99 0 -159 -46.5t-60 -125.5h-166q0 144 104.5 230.5t284.5 86.5q174 0 275.5 -79.5
t101.5 -200.5q0 -85 -55 -147t-150 -85q108 -15 186 -83.5t78 -182.5q0 -99 -59 -174t-157 -113t-218 -38z" />
    <glyph glyph-name="uni0438" unicode="&#x438;" horiz-adv-x="1181" 
d="M121 0v1065h172v-813l596 813h172v-1065h-172v813l-596 -813h-172z" />
    <glyph glyph-name="uni0439" unicode="&#x439;" horiz-adv-x="1181" 
d="M121 0v1065h172v-813l596 813h172v-1065h-172v813l-596 -813h-172zM297 1516h125q0 -78 42.5 -130.5t133.5 -52.5t133.5 52.5t42.5 130.5h125q1 -56 -16.5 -107t-52 -94t-95 -68.5t-137.5 -25.5t-137.5 25.5t-95 68.5t-52 94t-16.5 107z" />
    <glyph glyph-name="uni043A" unicode="&#x43a;" horiz-adv-x="1116" 
d="M121 0v1065h172v-520l489 520h217l-446 -467l514 -598h-207l-418 483l-149 -157v-326h-172z" />
    <glyph glyph-name="uni043B" unicode="&#x43b;" horiz-adv-x="1288" 
d="M995 0v911h-573v-680q0 -243 -238 -243q-83 0 -149 37v145q59 -29 117 -29q54 0 75 23.5t21 75.5v825h919v-1065h-172z" />
    <glyph glyph-name="uni043C" unicode="&#x43c;" horiz-adv-x="1437" 
d="M121 0v1065h186l412 -842l411 842h187v-1065h-172v752l-361 -752h-131l-360 752v-752h-172z" />
    <glyph glyph-name="uni043D" unicode="&#x43d;" horiz-adv-x="1163" 
d="M868 0v444h-575v-444h-172v1065h172v-467h575v467h174v-1065h-174z" />
    <glyph glyph-name="uni043E" unicode="&#x43e;" horiz-adv-x="1245" 
d="M623 -20q-105 0 -203 37t-176.5 105t-126 174.5t-47.5 235.5t47.5 236t126 175t176.5 105t203 37t203 -37t176.5 -105t126 -175t47.5 -236t-47.5 -235.5t-126 -174.5t-176.5 -105t-203 -37zM242 532q0 -92 31.5 -168t85 -124.5t121.5 -75.5t143 -27t143 27t121.5 75.5
t85 124.5t31.5 168q0 121 -54.5 213t-140.5 137.5t-186 45.5t-186 -45.5t-140.5 -137.5t-54.5 -213z" />
    <glyph glyph-name="uni043F" unicode="&#x43f;" horiz-adv-x="1169" 
d="M874 0v911h-581v-911h-172v1065h928v-1065h-175z" />
    <glyph glyph-name="uni0440" unicode="&#x440;" horiz-adv-x="1290" 
d="M121 -389v1454h172v-201h6q41 91 149 156t250 65q99 0 191 -36t167 -103t120 -174.5t45 -239.5t-45 -239.5t-120 -174t-167 -102.5t-191 -36q-142 0 -250 65t-149 156h-6v-590h-172zM287 532q0 -95 32.5 -172t87 -124.5t122 -73t141.5 -25.5q72 0 139 25t121 72.5
t86.5 125t32.5 172.5t-32.5 172.5t-86.5 125t-121 73t-139 25.5q-74 0 -141.5 -25.5t-122 -73.5t-87 -125t-32.5 -172z" />
    <glyph glyph-name="uni0441" unicode="&#x441;" horiz-adv-x="1146" 
d="M623 -20q-105 0 -203 37t-176.5 105t-126 174.5t-47.5 235.5t47.5 236t126 175t176.5 105t203 37q142 0 263 -67.5t191 -194.5l-131 -78q-51 86 -136 134.5t-185 48.5q-73 0 -141.5 -27t-122.5 -76t-86.5 -125.5t-32.5 -167.5t32.5 -167.5t86.5 -125t122.5 -75.5
t141.5 -27q100 0 185 48t136 134l131 -77q-70 -126 -191.5 -194t-262.5 -68z" />
    <glyph glyph-name="uni0442" unicode="&#x442;" horiz-adv-x="921" 
d="M375 0v911h-309v154h790v-154h-309v-911h-172z" />
    <glyph glyph-name="uni0443" unicode="&#x443;" horiz-adv-x="1163" 
d="M322 -389l176 399l-449 1055h178l355 -852l354 852h178l-452 -1065l-170 -389h-170z" />
    <glyph glyph-name="uni0444" unicode="&#x444;" horiz-adv-x="2158" 
d="M993 -389v590h-10q-39 -91 -147.5 -156t-249.5 -65q-97 0 -188 36t-165 102.5t-118.5 174t-44.5 239.5t44.5 239.5t118.5 174.5t165 103t188 36q141 0 249.5 -65t147.5 -156h10v621h172v-621h11q39 91 147.5 156t249.5 65q97 0 188 -36t165 -103t118.5 -174.5
t44.5 -239.5t-44.5 -239.5t-118.5 -174t-165 -102.5t-188 -36q-141 0 -249.5 65t-147.5 156h-11v-590h-172zM242 532q0 -95 31.5 -172.5t85 -125t119 -72.5t136.5 -25q74 0 141 25.5t120.5 73.5t85.5 124.5t32 171.5t-32 172t-85.5 125t-120.5 73.5t-141 25.5
q-71 0 -136.5 -25.5t-119 -73t-85 -125t-31.5 -172.5zM1165 532q0 -95 32 -171.5t85.5 -124.5t120.5 -73.5t141 -25.5q71 0 137 25t119 72.5t85 125t32 172.5t-32 172.5t-85 125t-119 73t-137 25.5q-74 0 -141 -25.5t-120.5 -73.5t-85.5 -125t-32 -172z" />
    <glyph glyph-name="uni0445" unicode="&#x445;" horiz-adv-x="1099" 
d="M39 0l412 545l-385 520h198l287 -393l287 393h198l-387 -520l412 -545h-203l-307 416l-309 -416h-203z" />
    <glyph glyph-name="uni0446" unicode="&#x446;" horiz-adv-x="1218" 
d="M1159 154v-295h-172v141h-866v1065h172v-911h581v911h175v-911h110z" />
    <glyph glyph-name="uni0447" unicode="&#x447;" horiz-adv-x="1159" 
d="M524 242q-63 0 -120 12.5t-109.5 43t-90.5 75.5t-60.5 115t-22.5 157v420h172v-412q0 -121 74.5 -188.5t199.5 -67.5q128 0 212.5 68.5t84.5 187.5v412h174v-1065h-174v389q-49 -64 -135.5 -105.5t-204.5 -41.5z" />
    <glyph glyph-name="uni0448" unicode="&#x448;" horiz-adv-x="1611" 
d="M121 0v1065h172v-911h426v911h174v-911h426v911h172v-1065h-1370z" />
    <glyph glyph-name="uni0449" unicode="&#x449;" horiz-adv-x="1660" 
d="M1430 -141v141h-1309v1065h172v-911h426v911h174v-911h426v911h172v-911h111v-295h-172z" />
    <glyph glyph-name="uni044A" unicode="&#x44a;" horiz-adv-x="1132" 
d="M0 911v154h315v-416h385q171 0 267 -87t96 -238q0 -150 -96 -237t-267 -87h-557v911h-143zM315 154h367q211 0 211 170q0 172 -211 172h-367v-342z" />
    <glyph glyph-name="uni044B" unicode="&#x44b;" horiz-adv-x="1466" 
d="M1174 0v1065h172v-1065h-172zM121 0v1065h172v-416h385q171 0 266.5 -86.5t95.5 -238.5q0 -150 -95.5 -237t-266.5 -87h-557zM293 154h366q211 0 211 170q0 172 -211 172h-366v-342z" />
    <glyph glyph-name="uni044C" unicode="&#x44c;" horiz-adv-x="1110" 
d="M121 0v1065h172v-416h385q171 0 266.5 -86.5t95.5 -238.5q0 -150 -95.5 -237t-266.5 -87h-557zM293 154h366q211 0 211 170q0 172 -211 172h-366v-342z" />
    <glyph glyph-name="uni044D" unicode="&#x44d;" horiz-adv-x="1146" 
d="M567 465v127h334q-13 104 -71 182t-138 116t-170 38q-100 0 -185 -48.5t-136 -134.5l-131 78q70 127 191 194.5t263 67.5q105 0 203 -37t176.5 -105t126 -175t47.5 -236t-47.5 -235.5t-126 -174.5t-176.5 -105t-203 -37q-141 0 -262.5 68t-191.5 194l131 77
q51 -86 136 -134t185 -48q89 0 168.5 37.5t137.5 113.5t73 177h-334z" />
    <glyph glyph-name="uni044E" unicode="&#x44e;" horiz-adv-x="1669" 
d="M121 0v1065h172v-457h186q13 112 65 204t127.5 151t167.5 90.5t189 31.5q105 0 203 -37t176.5 -105t126 -175t47.5 -236t-47.5 -235.5t-126 -174.5t-176.5 -105t-203 -37q-96 0 -187.5 31.5t-166.5 89t-127 148t-66 200.5h-188v-449h-172zM647 532q0 -92 31.5 -168
t85 -124.5t121.5 -75.5t143 -27t143 27t121.5 75.5t85 124.5t31.5 168q0 121 -54.5 213t-140.5 137.5t-186 45.5t-186 -45.5t-140.5 -137.5t-54.5 -213z" />
    <glyph glyph-name="uni044F" unicode="&#x44f;" horiz-adv-x="1142" 
d="M80 0l332 381q-149 15 -232.5 106.5t-83.5 235.5q0 156 98.5 249t274.5 93h553v-1065h-172v379h-240l-327 -379h-203zM266 723q0 -85 51.5 -138t159.5 -53h373v379h-373q-108 0 -159.5 -52.5t-51.5 -135.5z" />
    <glyph glyph-name="uni0450" unicode="&#x450;" 
d="M616 -20q-109 0 -207 37t-173.5 105.5t-120.5 174.5t-45 235q0 130 45 237t120 174.5t169 104.5t196 37q83 0 161 -23t147.5 -73t118.5 -120.5t72 -174t11 -225.5h-877q20 -162 131.5 -252t270.5 -90q197 0 317 129l86 -88q-72 -89 -182.5 -138.5t-239.5 -49.5zM233 600
h725q-9 157 -112 246.5t-244 89.5q-90 0 -167.5 -36.5t-133 -114.5t-68.5 -185zM367 1516h149l178 -318h-145z" />
    <glyph glyph-name="uni0451" unicode="&#x451;" 
d="M616 -20q-109 0 -207 37t-173.5 105.5t-120.5 174.5t-45 235q0 130 45 237t120 174.5t169 104.5t196 37q83 0 161 -23t147.5 -73t118.5 -120.5t72 -174t11 -225.5h-877q20 -162 131.5 -252t270.5 -90q197 0 317 129l86 -88q-72 -89 -182.5 -138.5t-239.5 -49.5zM233 600
h725q-9 157 -112 246.5t-244 89.5q-90 0 -167.5 -36.5t-133 -114.5t-68.5 -185zM309 1292v174h164v-174h-164zM748 1292v174h163v-174h-163z" />
    <glyph glyph-name="uni0453" unicode="&#x453;" horiz-adv-x="966" 
d="M121 0v1065h764v-154h-592v-911h-172zM457 1198l188 318h150l-193 -318h-145z" />
    <glyph glyph-name="uni0454" unicode="&#x454;" horiz-adv-x="1146" 
d="M580 465h-334q15 -101 73 -177t137.5 -113.5t168.5 -37.5q100 0 185 48t136 134l131 -77q-70 -126 -191.5 -194t-262.5 -68q-105 0 -203 37t-176.5 105t-126 174.5t-47.5 235.5t47.5 236t126 175t176.5 105t203 37q142 0 263 -67.5t191 -194.5l-131 -78
q-51 86 -136 134.5t-185 48.5q-90 0 -170 -38t-138 -116t-71 -182h334v-127z" />
    <glyph glyph-name="uni0455" unicode="&#x455;" horiz-adv-x="874" 
d="M434 -20q-150 0 -250 76t-125 212l144 39q22 -86 82.5 -135t148.5 -49q83 0 142 42t59 124q0 63 -43 103t-141 81l-97 37q-250 102 -250 297q0 124 94.5 201t235.5 77q127 0 216.5 -64.5t117.5 -172.5l-137 -41q-51 137 -191 137q-72 0 -119 -37t-47 -102
q0 -104 154 -166l86 -35q70 -28 117.5 -53.5t90 -62t63 -86t20.5 -113.5q0 -101 -53.5 -173t-135.5 -104t-182 -32z" />
    <glyph glyph-name="uni0456" unicode="&#x456;" horiz-adv-x="413" 
d="M121 0v1065h172v-1065h-172zM121 1294v160h172v-160h-172z" />
    <glyph glyph-name="uni0457" unicode="&#x457;" horiz-adv-x="413" 
d="M121 0v1065h172v-1065h-172zM-94 1292v174h164v-174h-164zM344 1292v174h164v-174h-164z" />
    <glyph glyph-name="uni0458" unicode="&#x458;" horiz-adv-x="417" 
d="M-184 -395v159h47q63 0 108 11.5t81.5 41t54.5 84t18 136.5v1028h172v-1040q0 -119 -29 -201.5t-86.5 -130t-133.5 -68t-181 -20.5h-51zM125 1294v160h172v-160h-172z" />
    <glyph glyph-name="uni045C" unicode="&#x45c;" horiz-adv-x="1116" 
d="M121 0v1065h172v-520l489 520h217l-446 -467l514 -598h-207l-418 483l-149 -157v-326h-172zM496 1198l188 318h150l-193 -318h-145z" />
    <glyph glyph-name="uni045E" unicode="&#x45e;" horiz-adv-x="1163" 
d="M322 -389l176 399l-449 1055h178l355 -852l354 852h178l-452 -1065l-170 -389h-170zM297 1516h125q0 -78 42.5 -130.5t133.5 -52.5t133.5 52.5t42.5 130.5h125q1 -56 -16.5 -107t-52 -94t-95 -68.5t-137.5 -25.5t-137.5 25.5t-95 68.5t-52 94t-16.5 107z" />
    <glyph glyph-name="uni0490" unicode="&#x490;" horiz-adv-x="1036" 
d="M121 0v1454h659v96h176v-260h-659v-1290h-176z" />
    <glyph glyph-name="uni0491" unicode="&#x491;" horiz-adv-x="966" 
d="M293 911v-911h-172v1065h592v94h172v-248h-592z" />
    <glyph glyph-name="uni04C0" unicode="&#x4c0;" horiz-adv-x="417" 
d="M121 0v1454h176v-1454h-176z" />
    <glyph glyph-name="uni04CF" unicode="&#x4cf;" horiz-adv-x="413" 
d="M121 0v1454h172v-1454h-172z" />
    <glyph glyph-name="uni04E2" unicode="&#x4e2;" horiz-adv-x="1421" 
d="M1300 0h-176v1159h-10l-815 -1159h-178v1454h176v-1159h10l815 1159h178v-1454zM338 1681v138h749v-138h-749z" />
    <glyph glyph-name="uni04E3" unicode="&#x4e3;" horiz-adv-x="1181" 
d="M121 0v1065h172v-813l596 813h172v-1065h-172v813l-596 -813h-172zM217 1292v138h750v-138h-750z" />
    <glyph glyph-name="uni1E04" unicode="&#x1e04;" horiz-adv-x="1173" 
d="M121 0v1454h497q187 0 289.5 -98t102.5 -244q0 -107 -56 -188.5t-159 -116.5q138 -33 218.5 -135t80.5 -256q0 -189 -126 -302.5t-368 -113.5h-479zM297 158h293q163 0 246.5 70.5t83.5 201.5q0 133 -84.5 211t-247.5 78h-291v-561zM297 858h285q123 0 190.5 62.5
t67.5 164.5q0 98 -65 154.5t-189 56.5h-289v-438zM516 -315v163h160v-163h-160z" />
    <glyph glyph-name="uni1E05" unicode="&#x1e05;" horiz-adv-x="1290" 
d="M121 1454h172v-590h6q41 91 149 156t250 65q99 0 191 -36t167 -103t120 -174.5t45 -239.5t-45 -239.5t-120 -174t-167 -102.5t-191 -36q-142 0 -250 65t-149 156h-6v-201h-172v1454zM287 532q0 -95 32.5 -172t87 -124.5t122 -73t141.5 -25.5q72 0 139 25t121 72.5
t86.5 125t32.5 172.5t-32.5 172.5t-86.5 125t-121 73t-139 25.5q-74 0 -141.5 -25.5t-122 -73.5t-87 -125t-32.5 -172zM573 -315v163h160v-163h-160z" />
    <glyph glyph-name="uni1E0C" unicode="&#x1e0c;" horiz-adv-x="1351" 
d="M121 0v1454h436q212 0 375 -91.5t251.5 -256.5t88.5 -379t-88.5 -379t-251.5 -256.5t-375 -91.5h-436zM297 168h254q256 0 397.5 151.5t141.5 407.5t-141.5 407.5t-397.5 151.5h-254v-1118zM598 -315v163h160v-163h-160z" />
    <glyph glyph-name="uni1E0D" unicode="&#x1e0d;" horiz-adv-x="1290" 
d="M1169 0h-172v201h-6q-41 -91 -149 -156t-250 -65q-99 0 -191 36t-166.5 102.5t-119.5 174t-45 239.5t45 239.5t119.5 174.5t166.5 103t191 36q142 0 250 -65t149 -156h6v590h172v-1454zM242 532q0 -95 32.5 -172.5t86.5 -125t121 -72.5t139 -25q74 0 141.5 25.5t122 73
t87 124.5t32.5 172t-32.5 172t-87 125t-122 73.5t-141.5 25.5q-72 0 -139 -25.5t-121 -73t-86.5 -125t-32.5 -172.5zM571 -315v163h160v-163h-160z" />
    <glyph glyph-name="uni1E20" unicode="&#x1e20;" horiz-adv-x="1611" 
d="M838 -20q-200 0 -368 93t-269 265.5t-101 388.5q0 163 59 303.5t159.5 237.5t236.5 152t287 55q72 0 142.5 -13.5t147 -44t148.5 -88.5t129 -139l-127 -94q-84 112 -199 160.5t-237 48.5q-157 0 -285 -70.5t-204 -203.5t-76 -304q0 -128 44.5 -238t121 -185.5t180 -118
t219.5 -42.5q92 0 173 27t148 80t111 140t57 200h-411v149h583q13 -173 -35 -318t-141.5 -240.5t-220.5 -148t-272 -52.5zM475 1681v138h750v-138h-750z" />
    <glyph glyph-name="uni1E21" unicode="&#x1e21;" horiz-adv-x="1290" 
d="M633 -426q-101 0 -186.5 22t-127.5 52v145q43 -29 118.5 -50.5t168.5 -21.5q81 0 149.5 19t124 58t86.5 105t31 154v144h-10q-39 -91 -147 -156t-248 -65q-78 0 -152.5 22t-141.5 67.5t-118 110t-80.5 155.5t-29.5 197t29.5 197t80.5 155.5t118 110.5t141.5 68t152.5 22
q140 0 248 -65t147 -156h10v201h172v-1006q0 -109 -32.5 -195t-85 -139t-124 -88t-144 -49t-150.5 -14zM242 532q0 -95 32.5 -172.5t86.5 -125t121 -72.5t139 -25q73 0 140.5 25.5t122 73t87.5 124.5t33 172t-33 172t-87.5 125t-122 73.5t-140.5 25.5q-72 0 -139 -25.5
t-121 -73t-86.5 -125t-32.5 -172.5zM270 1292v138h750v-138h-750z" />
    <glyph glyph-name="uni1E24" unicode="&#x1e24;" horiz-adv-x="1314" 
d="M1018 0v635h-721v-635h-176v1454h176v-655h721v655h176v-1454h-176zM578 -315v163h159v-163h-159z" />
    <glyph glyph-name="uni1E25" unicode="&#x1e25;" 
d="M121 0v1454h172v-563q46 84 136.5 139t219.5 55q86 0 159.5 -27.5t131.5 -81.5t91.5 -143.5t33.5 -205.5v-627h-172v602q0 156 -82.5 241t-214.5 85q-133 0 -218 -85t-85 -241v-602h-172zM504 -315v163h160v-163h-160z" />
    <glyph glyph-name="uni1E62" unicode="&#x1e62;" horiz-adv-x="1093" 
d="M557 -20q-183 0 -316.5 98t-170.5 256l145 67q31 -116 122.5 -187t219.5 -71q122 0 204.5 65.5t82.5 184.5q0 105 -67 165.5t-210 117.5l-96 37q-168 68 -255 162.5t-87 230.5q0 166 119 267.5t299 101.5q168 0 279.5 -86.5t158.5 -217.5l-135 -69q-92 211 -299 211
q-107 0 -176.5 -56.5t-69.5 -152.5q0 -79 54.5 -139.5t179.5 -110.5l98 -39q196 -77 291.5 -172t95.5 -252q0 -97 -38.5 -176.5t-103.5 -130t-148.5 -77.5t-176.5 -27zM469 -315v163h160v-163h-160z" />
    <glyph glyph-name="uni1E63" unicode="&#x1e63;" horiz-adv-x="874" 
d="M434 -20q-150 0 -250 76t-125 212l144 39q22 -86 82.5 -135t148.5 -49q83 0 142 42t59 124q0 63 -43 103t-141 81l-97 37q-250 102 -250 297q0 124 94.5 201t235.5 77q127 0 216.5 -64.5t117.5 -172.5l-137 -41q-51 137 -191 137q-72 0 -119 -37t-47 -102
q0 -104 154 -166l86 -35q70 -28 117.5 -53.5t90 -62t63 -86t20.5 -113.5q0 -101 -53.5 -173t-135.5 -104t-182 -32zM348 -315v163h160v-163h-160z" />
    <glyph glyph-name="uni1E6C" unicode="&#x1e6c;" horiz-adv-x="1085" 
d="M455 0v1290h-385v164h946v-164h-385v-1290h-176zM463 -315v163h160v-163h-160z" />
    <glyph glyph-name="uni1E6D" unicode="&#x1e6d;" horiz-adv-x="675" 
d="M451 -12q-111 0 -174.5 56.5t-63.5 172.5v707h-143v141h143v272h172v-272h211v-141h-211v-674q0 -107 113 -107q43 0 96 19v-137q-47 -37 -143 -37zM336 -305v164h160v-164h-160z" />
    <glyph glyph-name="Wgrave" unicode="&#x1e80;" horiz-adv-x="2041" 
d="M502 0l-443 1454h187l338 -1143l366 1143h142l366 -1143l338 1143h186l-442 -1454h-141l-379 1149l-377 -1149h-141zM764 1905h149l179 -318h-146z" />
    <glyph glyph-name="wgrave" unicode="&#x1e81;" horiz-adv-x="1888" 
d="M1278 0l-334 856l-334 -856h-159l-402 1065h174l309 -850l330 850h164l330 -850l309 850h174l-401 -1065h-160zM686 1516h150l178 -318h-146z" />
    <glyph glyph-name="Wacute" unicode="&#x1e82;" horiz-adv-x="2041" 
d="M502 0l-443 1454h187l338 -1143l366 1143h142l366 -1143l338 1143h186l-442 -1454h-141l-379 1149l-377 -1149h-141zM952 1587l189 318h149l-192 -318h-146z" />
    <glyph glyph-name="wacute" unicode="&#x1e83;" horiz-adv-x="1888" 
d="M1278 0l-334 856l-334 -856h-159l-402 1065h174l309 -850l330 850h164l330 -850l309 850h174l-401 -1065h-160zM877 1198l188 318h149l-192 -318h-145z" />
    <glyph glyph-name="Wdieresis" unicode="&#x1e84;" horiz-adv-x="2041" 
d="M502 0l-443 1454h187l338 -1143l366 1143h142l366 -1143l338 1143h186l-442 -1454h-141l-379 1149l-377 -1149h-141zM719 1681v174h164v-174h-164zM1157 1681v174h164v-174h-164z" />
    <glyph glyph-name="wdieresis" unicode="&#x1e85;" horiz-adv-x="1888" 
d="M1278 0l-334 856l-334 -856h-159l-402 1065h174l309 -850l330 850h164l330 -850l309 850h174l-401 -1065h-160zM643 1292v174h164v-174h-164zM1081 1292v174h164v-174h-164z" />
    <glyph glyph-name="uni1E92" unicode="&#x1e92;" horiz-adv-x="1189" 
d="M49 0l799 1290h-758v164h1040l-798 -1290h782v-164h-1065zM518 -315v163h160v-163h-160z" />
    <glyph glyph-name="uni1E93" unicode="&#x1e93;" horiz-adv-x="1056" 
d="M49 0l674 911h-614v154h899l-674 -911h643v-154h-928zM446 -315v163h160v-163h-160z" />
    <glyph glyph-name="uni1E9E" unicode="&#x1e9e;" horiz-adv-x="1261" 
d="M121 0v1454h960v-170l-391 -438q241 -4 356 -114.5t115 -297.5q0 -207 -134.5 -320.5t-383.5 -113.5h-151v154h126q170 0 266.5 69t96.5 213q0 146 -100 215.5t-279 69.5h-94v129l389 440h-600v-1290h-176z" />
    <glyph glyph-name="uni1EA0" unicode="&#x1ea0;" horiz-adv-x="1409" 
d="M616 1454h177l577 -1454h-190l-131 336h-689l-131 -336h-190zM424 500h561l-280 727zM625 -315v163h159v-163h-159z" />
    <glyph glyph-name="uni1EA1" unicode="&#x1ea1;" horiz-adv-x="1290" 
d="M592 -20q-99 0 -191 36t-166.5 102.5t-119.5 174t-45 239.5t45 239.5t119.5 174.5t166.5 103t191 36q142 0 250 -65t149 -156h6v201h172v-1065h-172v201h-6q-41 -91 -149 -156t-250 -65zM242 532q0 -95 32.5 -172.5t86.5 -125t121 -72.5t139 -25q74 0 141.5 25.5t122 73
t87 124.5t32.5 172t-32.5 172t-87 125t-122 73.5t-141.5 25.5q-72 0 -139 -25.5t-121 -73t-86.5 -125t-32.5 -172.5zM547 -315v163h160v-163h-160z" />
    <glyph glyph-name="uni1EA2" unicode="&#x1ea2;" horiz-adv-x="1409" 
d="M616 1454h177l577 -1454h-190l-131 336h-689l-131 -336h-190zM424 500h561l-280 727zM528 1886q22 44 65 70t95 26q80 0 135.5 -55.5t55.5 -134.5q0 -77 -56.5 -130.5t-136.5 -53.5h-51v116h51q29 0 49.5 20t20.5 48t-20 48t-48 20q-42 0 -63 -41z" />
    <glyph glyph-name="uni1EA3" unicode="&#x1ea3;" horiz-adv-x="1290" 
d="M592 -20q-99 0 -191 36t-166.5 102.5t-119.5 174t-45 239.5t45 239.5t119.5 174.5t166.5 103t191 36q142 0 250 -65t149 -156h6v201h172v-1065h-172v201h-6q-41 -91 -149 -156t-250 -65zM242 532q0 -95 32.5 -172.5t86.5 -125t121 -72.5t139 -25q74 0 141.5 25.5t122 73
t87 124.5t32.5 172t-32.5 172t-87 125t-122 73.5t-141.5 25.5q-72 0 -139 -25.5t-121 -73t-86.5 -125t-32.5 -172.5zM451 1497q22 44 64.5 70t94.5 26q80 0 135.5 -55.5t55.5 -134.5q0 -77 -56.5 -130.5t-136.5 -53.5h-51v116h51q29 0 49.5 20t20.5 48t-20 47.5t-48 19.5
q-42 0 -63 -40z" />
    <glyph glyph-name="uni1EA4" unicode="&#x1ea4;" horiz-adv-x="1409" 
d="M616 1454h177l577 -1454h-190l-131 336h-689l-131 -336h-190zM424 500h561l-280 727zM449 1653l194 252h123l195 -252l-95 -80l-161 213l-162 -213zM860 1843l178 311h140l-183 -311h-135z" />
    <glyph glyph-name="uni1EA5" unicode="&#x1ea5;" horiz-adv-x="1290" 
d="M592 -20q-99 0 -191 36t-166.5 102.5t-119.5 174t-45 239.5t45 239.5t119.5 174.5t166.5 103t191 36q142 0 250 -65t149 -156h6v201h172v-1065h-172v201h-6q-41 -91 -149 -156t-250 -65zM242 532q0 -95 32.5 -172.5t86.5 -125t121 -72.5t139 -25q74 0 141.5 25.5t122 73
t87 124.5t32.5 172t-32.5 172t-87 125t-122 73.5t-141.5 25.5q-72 0 -139 -25.5t-121 -73t-86.5 -125t-32.5 -172.5zM371 1264l194 252h123l195 -252l-95 -80l-161 213l-162 -213zM782 1454l179 311h139l-182 -311h-136z" />
    <glyph glyph-name="uni1EA6" unicode="&#x1ea6;" horiz-adv-x="1409" 
d="M616 1454h177l577 -1454h-190l-131 336h-689l-131 -336h-190zM424 500h561l-280 727zM449 1653l194 252h123l195 -252l-95 -80l-161 213l-162 -213zM715 2154h139l207 -311h-135z" />
    <glyph glyph-name="uni1EA7" unicode="&#x1ea7;" horiz-adv-x="1290" 
d="M592 -20q-99 0 -191 36t-166.5 102.5t-119.5 174t-45 239.5t45 239.5t119.5 174.5t166.5 103t191 36q142 0 250 -65t149 -156h6v201h172v-1065h-172v201h-6q-41 -91 -149 -156t-250 -65zM242 532q0 -95 32.5 -172.5t86.5 -125t121 -72.5t139 -25q74 0 141.5 25.5t122 73
t87 124.5t32.5 172t-32.5 172t-87 125t-122 73.5t-141.5 25.5q-72 0 -139 -25.5t-121 -73t-86.5 -125t-32.5 -172.5zM371 1264l194 252h123l195 -252l-95 -80l-161 213l-162 -213zM637 1765h139l207 -311h-135z" />
    <glyph glyph-name="uni1EA8" unicode="&#x1ea8;" horiz-adv-x="1409" 
d="M616 1454h177l577 -1454h-190l-131 336h-689l-131 -336h-190zM424 500h561l-280 727zM449 1653l194 252h123l195 -252l-95 -80l-161 213l-162 -213zM760 2128q22 44 65 70t95 26q80 0 135 -55t55 -135q0 -78 -56 -131.5t-136 -53.5h-52v117h52q29 0 49 20t20 48
t-19.5 47.5t-47.5 19.5q-43 0 -64 -41z" />
    <glyph glyph-name="uni1EA9" unicode="&#x1ea9;" horiz-adv-x="1290" 
d="M592 -20q-99 0 -191 36t-166.5 102.5t-119.5 174t-45 239.5t45 239.5t119.5 174.5t166.5 103t191 36q142 0 250 -65t149 -156h6v201h172v-1065h-172v201h-6q-41 -91 -149 -156t-250 -65zM242 532q0 -95 32.5 -172.5t86.5 -125t121 -72.5t139 -25q74 0 141.5 25.5t122 73
t87 124.5t32.5 172t-32.5 172t-87 125t-122 73.5t-141.5 25.5q-72 0 -139 -25.5t-121 -73t-86.5 -125t-32.5 -172.5zM371 1264l194 252h123l195 -252l-95 -80l-161 213l-162 -213zM682 1739q22 44 65 70t95 26q80 0 135 -55.5t55 -134.5q0 -78 -56 -131.5t-136 -53.5h-52
v117h52q29 0 49 20t20 48t-19.5 47.5t-47.5 19.5q-43 0 -64 -41z" />
    <glyph glyph-name="uni1EAA" unicode="&#x1eaa;" horiz-adv-x="1409" 
d="M616 1454h177l577 -1454h-190l-131 336h-689l-131 -336h-190zM397 1997q0 100 51 153.5t125 53.5q42 0 78.5 -19t57.5 -41.5t48.5 -41.5t53.5 -19q32 0 53 22.5t21 59.5h127q0 -100 -51 -153.5t-125 -53.5q-42 0 -78.5 19t-57.5 41.5t-48.5 41.5t-53.5 19
q-32 0 -53 -22.5t-21 -59.5h-127zM424 500h561l-280 727zM449 1653l194 252h123l195 -252l-95 -80l-161 213l-162 -213z" />
    <glyph glyph-name="uni1EAB" unicode="&#x1eab;" horiz-adv-x="1290" 
d="M592 -20q-99 0 -191 36t-166.5 102.5t-119.5 174t-45 239.5t45 239.5t119.5 174.5t166.5 103t191 36q142 0 250 -65t149 -156h6v201h172v-1065h-172v201h-6q-41 -91 -149 -156t-250 -65zM242 532q0 -95 32.5 -172.5t86.5 -125t121 -72.5t139 -25q74 0 141.5 25.5t122 73
t87 124.5t32.5 172t-32.5 172t-87 125t-122 73.5t-141.5 25.5q-72 0 -139 -25.5t-121 -73t-86.5 -125t-32.5 -172.5zM319 1608q0 100 51.5 153.5t125.5 53.5q42 0 78.5 -19t57 -41.5t48 -41.5t53.5 -19q32 0 53 22.5t21 59.5h127q0 -100 -51 -153.5t-125 -53.5
q-42 0 -78.5 19t-57.5 41.5t-48.5 41.5t-53.5 19q-32 0 -53 -22.5t-21 -59.5h-127zM371 1264l194 252h123l195 -252l-95 -80l-161 213l-162 -213z" />
    <glyph glyph-name="uni1EAC" unicode="&#x1eac;" horiz-adv-x="1409" 
d="M616 1454h177l577 -1454h-190l-131 336h-689l-131 -336h-190zM424 500h561l-280 727zM449 1653l194 252h123l195 -252l-95 -80l-161 213l-162 -213zM625 -315v163h159v-163h-159z" />
    <glyph glyph-name="uni1EAD" unicode="&#x1ead;" horiz-adv-x="1290" 
d="M592 -20q-99 0 -191 36t-166.5 102.5t-119.5 174t-45 239.5t45 239.5t119.5 174.5t166.5 103t191 36q142 0 250 -65t149 -156h6v201h172v-1065h-172v201h-6q-41 -91 -149 -156t-250 -65zM242 532q0 -95 32.5 -172.5t86.5 -125t121 -72.5t139 -25q74 0 141.5 25.5t122 73
t87 124.5t32.5 172t-32.5 172t-87 125t-122 73.5t-141.5 25.5q-72 0 -139 -25.5t-121 -73t-86.5 -125t-32.5 -172.5zM371 1264l194 252h123l195 -252l-95 -80l-161 213l-162 -213zM547 -315v163h160v-163h-160z" />
    <glyph glyph-name="uni1EAE" unicode="&#x1eae;" horiz-adv-x="1409" 
d="M616 1454h177l577 -1454h-190l-131 336h-689l-131 -336h-190zM403 1905h125q0 -78 43 -130.5t134 -52.5t133.5 52.5t42.5 130.5h125q1 -56 -16.5 -107t-52 -94t-95 -68.5t-137.5 -25.5t-137.5 25.5t-95.5 68.5t-52.5 94t-16.5 107zM424 500h561l-280 727zM612 1853
l179 301h137l-180 -301h-136z" />
    <glyph glyph-name="uni1EAF" unicode="&#x1eaf;" horiz-adv-x="1290" 
d="M592 -20q-99 0 -191 36t-166.5 102.5t-119.5 174t-45 239.5t45 239.5t119.5 174.5t166.5 103t191 36q142 0 250 -65t149 -156h6v201h172v-1065h-172v201h-6q-41 -91 -149 -156t-250 -65zM242 532q0 -95 32.5 -172.5t86.5 -125t121 -72.5t139 -25q74 0 141.5 25.5t122 73
t87 124.5t32.5 172t-32.5 172t-87 125t-122 73.5t-141.5 25.5q-72 0 -139 -25.5t-121 -73t-86.5 -125t-32.5 -172.5zM326 1516h125q0 -78 42.5 -130.5t133.5 -52.5t133.5 52.5t42.5 130.5h125q1 -56 -16.5 -107t-52 -94t-95 -68.5t-137.5 -25.5t-137.5 25.5t-95 68.5t-52 94
t-16.5 107zM535 1464l178 301h137l-180 -301h-135z" />
    <glyph glyph-name="uni1EB0" unicode="&#x1eb0;" horiz-adv-x="1409" 
d="M616 1454h177l577 -1454h-190l-131 336h-689l-131 -336h-190zM403 1905h125q0 -78 43 -130.5t134 -52.5t133.5 52.5t42.5 130.5h125q1 -56 -16.5 -107t-52 -94t-95 -68.5t-137.5 -25.5t-137.5 25.5t-95.5 68.5t-52.5 94t-16.5 107zM424 500h561l-280 727zM485 2154h138
l178 -301h-135z" />
    <glyph glyph-name="uni1EB1" unicode="&#x1eb1;" horiz-adv-x="1290" 
d="M592 -20q-99 0 -191 36t-166.5 102.5t-119.5 174t-45 239.5t45 239.5t119.5 174.5t166.5 103t191 36q142 0 250 -65t149 -156h6v201h172v-1065h-172v201h-6q-41 -91 -149 -156t-250 -65zM242 532q0 -95 32.5 -172.5t86.5 -125t121 -72.5t139 -25q74 0 141.5 25.5t122 73
t87 124.5t32.5 172t-32.5 172t-87 125t-122 73.5t-141.5 25.5q-72 0 -139 -25.5t-121 -73t-86.5 -125t-32.5 -172.5zM326 1516h125q0 -78 42.5 -130.5t133.5 -52.5t133.5 52.5t42.5 130.5h125q1 -56 -16.5 -107t-52 -94t-95 -68.5t-137.5 -25.5t-137.5 25.5t-95 68.5t-52 94
t-16.5 107zM408 1765h137l178 -301h-135z" />
    <glyph glyph-name="uni1EB2" unicode="&#x1eb2;" horiz-adv-x="1409" 
d="M616 1454h177l577 -1454h-190l-131 336h-689l-131 -336h-190zM403 1905h125q0 -78 43 -130.5t134 -52.5t133.5 52.5t42.5 130.5h125q1 -56 -16.5 -107t-52 -94t-95 -68.5t-137.5 -25.5t-137.5 25.5t-95.5 68.5t-52.5 94t-16.5 107zM424 500h561l-280 727zM522 2128
q22 44 65 70t95 26q80 0 135 -55t55 -135q0 -78 -56 -131.5t-136 -53.5h-51v117h51q29 0 49.5 20t20.5 48t-20 47.5t-48 19.5q-43 0 -64 -41z" />
    <glyph glyph-name="uni1EB3" unicode="&#x1eb3;" horiz-adv-x="1290" 
d="M592 -20q-99 0 -191 36t-166.5 102.5t-119.5 174t-45 239.5t45 239.5t119.5 174.5t166.5 103t191 36q142 0 250 -65t149 -156h6v201h172v-1065h-172v201h-6q-41 -91 -149 -156t-250 -65zM242 532q0 -95 32.5 -172.5t86.5 -125t121 -72.5t139 -25q74 0 141.5 25.5t122 73
t87 124.5t32.5 172t-32.5 172t-87 125t-122 73.5t-141.5 25.5q-72 0 -139 -25.5t-121 -73t-86.5 -125t-32.5 -172.5zM326 1516h125q0 -78 42.5 -130.5t133.5 -52.5t133.5 52.5t42.5 130.5h125q1 -56 -16.5 -107t-52 -94t-95 -68.5t-137.5 -25.5t-137.5 25.5t-95 68.5t-52 94
t-16.5 107zM444 1739q22 44 65 70t95 26q80 0 135.5 -55.5t55.5 -134.5q0 -78 -56.5 -131.5t-136.5 -53.5h-51v117h51q29 0 49.5 20t20.5 48t-20 47.5t-48 19.5q-42 0 -63 -41z" />
    <glyph glyph-name="uni1EB4" unicode="&#x1eb4;" horiz-adv-x="1409" 
d="M616 1454h177l577 -1454h-190l-131 336h-689l-131 -336h-190zM397 1972q0 100 51 153.5t125 53.5q42 0 78.5 -19t57.5 -41.5t48.5 -41.5t53.5 -19q32 0 53 22.5t21 59.5h127q0 -100 -51 -153.5t-125 -53.5q-42 0 -78.5 19t-57.5 41.5t-48.5 41.5t-53.5 19
q-32 0 -53 -22.5t-21 -59.5h-127zM403 1905h125q0 -78 43 -130.5t134 -52.5t133.5 52.5t42.5 130.5h125q1 -56 -16.5 -107t-52 -94t-95 -68.5t-137.5 -25.5t-137.5 25.5t-95.5 68.5t-52.5 94t-16.5 107zM424 500h561l-280 727z" />
    <glyph glyph-name="uni1EB5" unicode="&#x1eb5;" horiz-adv-x="1290" 
d="M592 -20q-99 0 -191 36t-166.5 102.5t-119.5 174t-45 239.5t45 239.5t119.5 174.5t166.5 103t191 36q142 0 250 -65t149 -156h6v201h172v-1065h-172v201h-6q-41 -91 -149 -156t-250 -65zM242 532q0 -95 32.5 -172.5t86.5 -125t121 -72.5t139 -25q74 0 141.5 25.5t122 73
t87 124.5t32.5 172t-32.5 172t-87 125t-122 73.5t-141.5 25.5q-72 0 -139 -25.5t-121 -73t-86.5 -125t-32.5 -172.5zM319 1583q0 100 51.5 153.5t125.5 53.5q42 0 78.5 -19t57 -41.5t48 -41.5t53.5 -19q32 0 53 22.5t21 59.5h127q0 -100 -51 -153.5t-125 -53.5
q-42 0 -78.5 19t-57.5 41.5t-48.5 41.5t-53.5 19q-32 0 -53 -22.5t-21 -59.5h-127zM326 1516h125q0 -78 42.5 -130.5t133.5 -52.5t133.5 52.5t42.5 130.5h125q1 -56 -16.5 -107t-52 -94t-95 -68.5t-137.5 -25.5t-137.5 25.5t-95 68.5t-52 94t-16.5 107z" />
    <glyph glyph-name="uni1EB6" unicode="&#x1eb6;" horiz-adv-x="1409" 
d="M616 1454h177l577 -1454h-190l-131 336h-689l-131 -336h-190zM403 1905h125q0 -78 43 -130.5t134 -52.5t133.5 52.5t42.5 130.5h125q1 -56 -16.5 -107t-52 -94t-95 -68.5t-137.5 -25.5t-137.5 25.5t-95.5 68.5t-52.5 94t-16.5 107zM424 500h561l-280 727zM625 -315v163
h159v-163h-159z" />
    <glyph glyph-name="uni1EB7" unicode="&#x1eb7;" horiz-adv-x="1290" 
d="M592 -20q-99 0 -191 36t-166.5 102.5t-119.5 174t-45 239.5t45 239.5t119.5 174.5t166.5 103t191 36q142 0 250 -65t149 -156h6v201h172v-1065h-172v201h-6q-41 -91 -149 -156t-250 -65zM242 532q0 -95 32.5 -172.5t86.5 -125t121 -72.5t139 -25q74 0 141.5 25.5t122 73
t87 124.5t32.5 172t-32.5 172t-87 125t-122 73.5t-141.5 25.5q-72 0 -139 -25.5t-121 -73t-86.5 -125t-32.5 -172.5zM326 1516h125q0 -78 42.5 -130.5t133.5 -52.5t133.5 52.5t42.5 130.5h125q1 -56 -16.5 -107t-52 -94t-95 -68.5t-137.5 -25.5t-137.5 25.5t-95 68.5t-52 94
t-16.5 107zM547 -315v163h160v-163h-160z" />
    <glyph glyph-name="uni1EB8" unicode="&#x1eb8;" horiz-adv-x="1009" 
d="M121 0v1454h780v-164h-604v-479h514v-162h-514v-485h623v-164h-799zM475 -315v163h160v-163h-160z" />
    <glyph glyph-name="uni1EB9" unicode="&#x1eb9;" 
d="M616 -20q-109 0 -207 37t-173.5 105.5t-120.5 174.5t-45 235q0 130 45 237t120 174.5t169 104.5t196 37q83 0 161 -23t147.5 -73t118.5 -120.5t72 -174t11 -225.5h-877q20 -162 131.5 -252t270.5 -90q197 0 317 129l86 -88q-72 -89 -182.5 -138.5t-239.5 -49.5zM233 600
h725q-9 157 -112 246.5t-244 89.5q-90 0 -167.5 -36.5t-133 -114.5t-68.5 -185zM506 -315v163h160v-163h-160z" />
    <glyph glyph-name="uni1EBA" unicode="&#x1eba;" horiz-adv-x="1009" 
d="M121 0v1454h780v-164h-604v-479h514v-162h-514v-485h623v-164h-799zM350 1886q22 44 65 70t95 26q80 0 135 -55t55 -135q0 -78 -56 -131t-136 -53h-51v116h51q29 0 49.5 20t20.5 48t-20 48t-48 20q-43 0 -64 -41z" />
    <glyph glyph-name="uni1EBB" unicode="&#x1ebb;" 
d="M616 -20q-109 0 -207 37t-173.5 105.5t-120.5 174.5t-45 235q0 130 45 237t120 174.5t169 104.5t196 37q83 0 161 -23t147.5 -73t118.5 -120.5t72 -174t11 -225.5h-877q20 -162 131.5 -252t270.5 -90q197 0 317 129l86 -88q-72 -89 -182.5 -138.5t-239.5 -49.5zM233 600
h725q-9 157 -112 246.5t-244 89.5q-90 0 -167.5 -36.5t-133 -114.5t-68.5 -185zM416 1497q22 44 64.5 70t94.5 26q80 0 135.5 -55.5t55.5 -134.5q0 -77 -56.5 -130.5t-136.5 -53.5h-51v116h51q29 0 49.5 20t20.5 48t-20 47.5t-48 19.5q-42 0 -63 -40z" />
    <glyph glyph-name="uni1EBC" unicode="&#x1ebc;" horiz-adv-x="1009" 
d="M121 0v1454h780v-164h-604v-479h514v-162h-514v-485h623v-164h-799zM217 1647q0 100 51 153t125 53q35 0 64.5 -12.5t50.5 -30t40 -35t40 -30t43 -12.5q32 0 53 22.5t21 59.5h126q0 -100 -51 -153.5t-125 -53.5q-42 0 -78.5 19t-57 41.5t-48 41.5t-53.5 19
q-32 0 -53 -22.5t-21 -59.5h-127z" />
    <glyph glyph-name="uni1EBD" unicode="&#x1ebd;" 
d="M616 -20q-109 0 -207 37t-173.5 105.5t-120.5 174.5t-45 235q0 130 45 237t120 174.5t169 104.5t196 37q83 0 161 -23t147.5 -73t118.5 -120.5t72 -174t11 -225.5h-877q20 -162 131.5 -252t270.5 -90q197 0 317 129l86 -88q-72 -89 -182.5 -138.5t-239.5 -49.5zM233 600
h725q-9 157 -112 246.5t-244 89.5q-90 0 -167.5 -36.5t-133 -114.5t-68.5 -185zM285 1257q0 100 51 153.5t125 53.5q42 0 78.5 -19t57 -41.5t48 -41.5t53.5 -19q32 0 53 22.5t21 59.5h127q0 -100 -51 -153t-125 -53q-35 0 -64.5 12.5t-50.5 30t-40 35t-40 30t-43 12.5
q-32 0 -52.5 -22.5t-20.5 -59.5h-127z" />
    <glyph glyph-name="uni1EBE" unicode="&#x1ebe;" horiz-adv-x="1009" 
d="M121 0v1454h780v-164h-604v-479h514v-162h-514v-485h623v-164h-799zM268 1653l195 252h123l194 -252l-94 -80l-162 213l-162 -213zM680 1843l178 311h139l-182 -311h-135z" />
    <glyph glyph-name="uni1EBF" unicode="&#x1ebf;" 
d="M616 -20q-109 0 -207 37t-173.5 105.5t-120.5 174.5t-45 235q0 130 45 237t120 174.5t169 104.5t196 37q83 0 161 -23t147.5 -73t118.5 -120.5t72 -174t11 -225.5h-877q20 -162 131.5 -252t270.5 -90q197 0 317 129l86 -88q-72 -89 -182.5 -138.5t-239.5 -49.5zM233 600
h725q-9 157 -112 246.5t-244 89.5q-90 0 -167.5 -36.5t-133 -114.5t-68.5 -185zM336 1264l194 252h123l195 -252l-94 -80l-162 213l-162 -213zM748 1454l178 311h139l-182 -311h-135z" />
    <glyph glyph-name="uni1EC0" unicode="&#x1ec0;" horiz-adv-x="1009" 
d="M121 0v1454h780v-164h-604v-479h514v-162h-514v-485h623v-164h-799zM268 1653l195 252h123l194 -252l-94 -80l-162 213l-162 -213zM535 2154h139l207 -311h-136z" />
    <glyph glyph-name="uni1EC1" unicode="&#x1ec1;" 
d="M616 -20q-109 0 -207 37t-173.5 105.5t-120.5 174.5t-45 235q0 130 45 237t120 174.5t169 104.5t196 37q83 0 161 -23t147.5 -73t118.5 -120.5t72 -174t11 -225.5h-877q20 -162 131.5 -252t270.5 -90q197 0 317 129l86 -88q-72 -89 -182.5 -138.5t-239.5 -49.5zM233 600
h725q-9 157 -112 246.5t-244 89.5q-90 0 -167.5 -36.5t-133 -114.5t-68.5 -185zM336 1264l194 252h123l195 -252l-94 -80l-162 213l-162 -213zM602 1765h139l207 -311h-135z" />
    <glyph glyph-name="uni1EC2" unicode="&#x1ec2;" horiz-adv-x="1009" 
d="M121 0v1454h780v-164h-604v-479h514v-162h-514v-485h623v-164h-799zM268 1653l195 252h123l194 -252l-94 -80l-162 213l-162 -213zM580 2128q22 44 64.5 70t94.5 26q80 0 135.5 -55.5t55.5 -134.5q0 -78 -56.5 -131.5t-136.5 -53.5h-51v117h51q29 0 49.5 20t20.5 48
t-20 47.5t-48 19.5q-42 0 -63 -41z" />
    <glyph glyph-name="uni1EC3" unicode="&#x1ec3;" 
d="M616 -20q-109 0 -207 37t-173.5 105.5t-120.5 174.5t-45 235q0 130 45 237t120 174.5t169 104.5t196 37q83 0 161 -23t147.5 -73t118.5 -120.5t72 -174t11 -225.5h-877q20 -162 131.5 -252t270.5 -90q197 0 317 129l86 -88q-72 -89 -182.5 -138.5t-239.5 -49.5zM233 600
h725q-9 157 -112 246.5t-244 89.5q-90 0 -167.5 -36.5t-133 -114.5t-68.5 -185zM336 1264l194 252h123l195 -252l-94 -80l-162 213l-162 -213zM647 1739q22 44 65 70t95 26q79 0 134.5 -55.5t55.5 -134.5q0 -78 -56 -131.5t-136 -53.5h-51v117h51q29 0 49 20t20 48
t-19.5 47.5t-47.5 19.5q-43 0 -64 -41z" />
    <glyph glyph-name="uni1EC4" unicode="&#x1ec4;" horiz-adv-x="1009" 
d="M121 0v1454h780v-164h-604v-479h514v-162h-514v-485h623v-164h-799zM217 1997q0 100 51 153.5t125 53.5q42 0 78.5 -19t57.5 -41.5t48.5 -41.5t53.5 -19q32 0 53 22.5t21 59.5h126q0 -100 -51 -153.5t-125 -53.5q-42 0 -78.5 19t-57 41.5t-48 41.5t-53.5 19
q-32 0 -53 -22.5t-21 -59.5h-127zM268 1653l195 252h123l194 -252l-94 -80l-162 213l-162 -213z" />
    <glyph glyph-name="uni1EC5" unicode="&#x1ec5;" 
d="M616 -20q-109 0 -207 37t-173.5 105.5t-120.5 174.5t-45 235q0 130 45 237t120 174.5t169 104.5t196 37q83 0 161 -23t147.5 -73t118.5 -120.5t72 -174t11 -225.5h-877q20 -162 131.5 -252t270.5 -90q197 0 317 129l86 -88q-72 -89 -182.5 -138.5t-239.5 -49.5zM233 600
h725q-9 157 -112 246.5t-244 89.5q-90 0 -167.5 -36.5t-133 -114.5t-68.5 -185zM285 1608q0 100 51 153.5t125 53.5q42 0 78.5 -19t57 -41.5t48 -41.5t53.5 -19q32 0 53 22.5t21 59.5h127q0 -100 -51 -153.5t-125 -53.5q-42 0 -78.5 19t-57.5 41.5t-48.5 41.5t-53.5 19
q-32 0 -52.5 -22.5t-20.5 -59.5h-127zM336 1264l194 252h123l195 -252l-94 -80l-162 213l-162 -213z" />
    <glyph glyph-name="uni1EC6" unicode="&#x1ec6;" horiz-adv-x="1009" 
d="M121 0v1454h780v-164h-604v-479h514v-162h-514v-485h623v-164h-799zM268 1653l195 252h123l194 -252l-94 -80l-162 213l-162 -213zM475 -315v163h160v-163h-160z" />
    <glyph glyph-name="uni1EC7" unicode="&#x1ec7;" 
d="M616 -20q-109 0 -207 37t-173.5 105.5t-120.5 174.5t-45 235q0 130 45 237t120 174.5t169 104.5t196 37q83 0 161 -23t147.5 -73t118.5 -120.5t72 -174t11 -225.5h-877q20 -162 131.5 -252t270.5 -90q197 0 317 129l86 -88q-72 -89 -182.5 -138.5t-239.5 -49.5zM233 600
h725q-9 157 -112 246.5t-244 89.5q-90 0 -167.5 -36.5t-133 -114.5t-68.5 -185zM336 1264l194 252h123l195 -252l-94 -80l-162 213l-162 -213zM506 -315v163h160v-163h-160z" />
    <glyph glyph-name="uni1EC8" unicode="&#x1ec8;" horiz-adv-x="417" 
d="M121 0v1454h176v-1454h-176zM33 1886q22 44 65 70t95 26q79 0 134.5 -55t55.5 -135q0 -77 -56.5 -130.5t-136.5 -53.5h-51v116h51q29 0 49.5 20t20.5 48t-19.5 48t-47.5 20q-43 0 -64 -41z" />
    <glyph glyph-name="uni1EC9" unicode="&#x1ec9;" horiz-adv-x="413" 
d="M121 0v1065h172v-1065h-172zM31 1497q22 44 64.5 70t94.5 26q80 0 135.5 -55.5t55.5 -134.5q0 -77 -56.5 -130.5t-136.5 -53.5h-51v116h51q29 0 49.5 20t20.5 48t-20 47.5t-48 19.5q-42 0 -63 -40z" />
    <glyph glyph-name="uni1ECA" unicode="&#x1eca;" horiz-adv-x="417" 
d="M121 0v1454h176v-1454h-176zM129 -315v163h160v-163h-160z" />
    <glyph glyph-name="uni1ECB" unicode="&#x1ecb;" horiz-adv-x="413" 
d="M121 0v1065h172v-1065h-172zM121 1294v160h172v-160h-172zM127 -315v163h160v-163h-160z" />
    <glyph glyph-name="uni1ECC" unicode="&#x1ecc;" horiz-adv-x="1677" 
d="M840 -20q-198 0 -366 92.5t-271 265t-103 389.5q0 131 39 248.5t108 207.5t161.5 156.5t203 101t228.5 34.5q147 0 281 -55t235 -151t161 -237.5t60 -304.5t-60 -304t-161 -237.5t-235 -151t-281 -54.5zM281 727q0 -128 46 -238t123 -183t178 -114.5t212 -41.5
q110 0 210.5 41.5t177.5 114.5t123 183t46 238q0 170 -78.5 304t-204.5 204t-274 70q-111 0 -212 -41.5t-178 -115t-123 -183.5t-46 -238zM758 -315v163h160v-163h-160z" />
    <glyph glyph-name="uni1ECD" unicode="&#x1ecd;" horiz-adv-x="1245" 
d="M623 -20q-105 0 -203 37t-176.5 105t-126 174.5t-47.5 235.5t47.5 236t126 175t176.5 105t203 37t203 -37t176.5 -105t126 -175t47.5 -236t-47.5 -235.5t-126 -174.5t-176.5 -105t-203 -37zM242 532q0 -92 31.5 -168t85 -124.5t121.5 -75.5t143 -27t143 27t121.5 75.5
t85 124.5t31.5 168q0 121 -54.5 213t-140.5 137.5t-186 45.5t-186 -45.5t-140.5 -137.5t-54.5 -213zM543 -315v163h159v-163h-159z" />
    <glyph glyph-name="uni1ECE" unicode="&#x1ece;" horiz-adv-x="1677" 
d="M840 -20q-198 0 -366 92.5t-271 265t-103 389.5q0 131 39 248.5t108 207.5t161.5 156.5t203 101t228.5 34.5q147 0 281 -55t235 -151t161 -237.5t60 -304.5t-60 -304t-161 -237.5t-235 -151t-281 -54.5zM281 727q0 -128 46 -238t123 -183t178 -114.5t212 -41.5
q110 0 210.5 41.5t177.5 114.5t123 183t46 238q0 170 -78.5 304t-204.5 204t-274 70q-111 0 -212 -41.5t-178 -115t-123 -183.5t-46 -238zM662 1886q22 44 64.5 70t94.5 26q80 0 135.5 -55.5t55.5 -134.5q0 -77 -56.5 -130.5t-136.5 -53.5h-51v116h51q29 0 49.5 20t20.5 48
t-20 48t-48 20q-42 0 -63 -41z" />
    <glyph glyph-name="uni1ECF" unicode="&#x1ecf;" horiz-adv-x="1245" 
d="M623 -20q-105 0 -203 37t-176.5 105t-126 174.5t-47.5 235.5t47.5 236t126 175t176.5 105t203 37t203 -37t176.5 -105t126 -175t47.5 -236t-47.5 -235.5t-126 -174.5t-176.5 -105t-203 -37zM242 532q0 -92 31.5 -168t85 -124.5t121.5 -75.5t143 -27t143 27t121.5 75.5
t85 124.5t31.5 168q0 121 -54.5 213t-140.5 137.5t-186 45.5t-186 -45.5t-140.5 -137.5t-54.5 -213zM446 1497q22 44 65 70t95 26q80 0 135.5 -55.5t55.5 -134.5q0 -77 -56.5 -130.5t-136.5 -53.5h-51v116h51q29 0 49.5 20t20.5 48t-20 47.5t-48 19.5q-42 0 -63 -40z" />
    <glyph glyph-name="uni1ED0" unicode="&#x1ed0;" horiz-adv-x="1677" 
d="M840 -20q-198 0 -366 92.5t-271 265t-103 389.5q0 131 39 248.5t108 207.5t161.5 156.5t203 101t228.5 34.5q147 0 281 -55t235 -151t161 -237.5t60 -304.5t-60 -304t-161 -237.5t-235 -151t-281 -54.5zM281 727q0 -128 46 -238t123 -183t178 -114.5t212 -41.5
q110 0 210.5 41.5t177.5 114.5t123 183t46 238q0 170 -78.5 304t-204.5 204t-274 70q-111 0 -212 -41.5t-178 -115t-123 -183.5t-46 -238zM582 1653l194 252h123l195 -252l-95 -80l-161 213l-162 -213zM993 1843l178 311h140l-183 -311h-135z" />
    <glyph glyph-name="uni1ED1" unicode="&#x1ed1;" horiz-adv-x="1245" 
d="M623 -20q-105 0 -203 37t-176.5 105t-126 174.5t-47.5 235.5t47.5 236t126 175t176.5 105t203 37t203 -37t176.5 -105t126 -175t47.5 -236t-47.5 -235.5t-126 -174.5t-176.5 -105t-203 -37zM242 532q0 -92 31.5 -168t85 -124.5t121.5 -75.5t143 -27t143 27t121.5 75.5
t85 124.5t31.5 168q0 121 -54.5 213t-140.5 137.5t-186 45.5t-186 -45.5t-140.5 -137.5t-54.5 -213zM367 1264l194 252h123l195 -252l-95 -80l-161 213l-162 -213zM778 1454l178 311h140l-183 -311h-135z" />
    <glyph glyph-name="uni1ED2" unicode="&#x1ed2;" horiz-adv-x="1677" 
d="M840 -20q-198 0 -366 92.5t-271 265t-103 389.5q0 131 39 248.5t108 207.5t161.5 156.5t203 101t228.5 34.5q147 0 281 -55t235 -151t161 -237.5t60 -304.5t-60 -304t-161 -237.5t-235 -151t-281 -54.5zM281 727q0 -128 46 -238t123 -183t178 -114.5t212 -41.5
q110 0 210.5 41.5t177.5 114.5t123 183t46 238q0 170 -78.5 304t-204.5 204t-274 70q-111 0 -212 -41.5t-178 -115t-123 -183.5t-46 -238zM582 1653l194 252h123l195 -252l-95 -80l-161 213l-162 -213zM848 2154h139l207 -311h-135z" />
    <glyph glyph-name="uni1ED3" unicode="&#x1ed3;" horiz-adv-x="1245" 
d="M623 -20q-105 0 -203 37t-176.5 105t-126 174.5t-47.5 235.5t47.5 236t126 175t176.5 105t203 37t203 -37t176.5 -105t126 -175t47.5 -236t-47.5 -235.5t-126 -174.5t-176.5 -105t-203 -37zM242 532q0 -92 31.5 -168t85 -124.5t121.5 -75.5t143 -27t143 27t121.5 75.5
t85 124.5t31.5 168q0 121 -54.5 213t-140.5 137.5t-186 45.5t-186 -45.5t-140.5 -137.5t-54.5 -213zM367 1264l194 252h123l195 -252l-95 -80l-161 213l-162 -213zM633 1765h139l207 -311h-135z" />
    <glyph glyph-name="uni1ED4" unicode="&#x1ed4;" horiz-adv-x="1677" 
d="M840 -20q-198 0 -366 92.5t-271 265t-103 389.5q0 131 39 248.5t108 207.5t161.5 156.5t203 101t228.5 34.5q147 0 281 -55t235 -151t161 -237.5t60 -304.5t-60 -304t-161 -237.5t-235 -151t-281 -54.5zM281 727q0 -128 46 -238t123 -183t178 -114.5t212 -41.5
q110 0 210.5 41.5t177.5 114.5t123 183t46 238q0 170 -78.5 304t-204.5 204t-274 70q-111 0 -212 -41.5t-178 -115t-123 -183.5t-46 -238zM582 1653l194 252h123l195 -252l-95 -80l-161 213l-162 -213zM893 2128q22 44 65 70t95 26q79 0 134.5 -55t55.5 -135
q0 -78 -56 -131.5t-136 -53.5h-52v117h52q29 0 49 20t20 48t-19.5 47.5t-47.5 19.5q-43 0 -64 -41z" />
    <glyph glyph-name="uni1ED5" unicode="&#x1ed5;" horiz-adv-x="1245" 
d="M623 -20q-105 0 -203 37t-176.5 105t-126 174.5t-47.5 235.5t47.5 236t126 175t176.5 105t203 37t203 -37t176.5 -105t126 -175t47.5 -236t-47.5 -235.5t-126 -174.5t-176.5 -105t-203 -37zM242 532q0 -92 31.5 -168t85 -124.5t121.5 -75.5t143 -27t143 27t121.5 75.5
t85 124.5t31.5 168q0 121 -54.5 213t-140.5 137.5t-186 45.5t-186 -45.5t-140.5 -137.5t-54.5 -213zM367 1264l194 252h123l195 -252l-95 -80l-161 213l-162 -213zM678 1739q22 44 65 70t95 26q80 0 135 -55.5t55 -134.5q0 -78 -56 -131.5t-136 -53.5h-52v117h52q29 0 49 20
t20 48t-19.5 47.5t-47.5 19.5q-43 0 -64 -41z" />
    <glyph glyph-name="uni1ED6" unicode="&#x1ed6;" horiz-adv-x="1677" 
d="M840 -20q-198 0 -366 92.5t-271 265t-103 389.5q0 131 39 248.5t108 207.5t161.5 156.5t203 101t228.5 34.5q147 0 281 -55t235 -151t161 -237.5t60 -304.5t-60 -304t-161 -237.5t-235 -151t-281 -54.5zM281 727q0 -128 46 -238t123 -183t178 -114.5t212 -41.5
q110 0 210.5 41.5t177.5 114.5t123 183t46 238q0 170 -78.5 304t-204.5 204t-274 70q-111 0 -212 -41.5t-178 -115t-123 -183.5t-46 -238zM530 1997q0 100 51.5 153.5t125.5 53.5q42 0 78.5 -19t57 -41.5t48 -41.5t53.5 -19q32 0 53 22.5t21 59.5h127q0 -100 -51 -153.5
t-125 -53.5q-42 0 -78.5 19t-57.5 41.5t-48.5 41.5t-53.5 19q-32 0 -53 -22.5t-21 -59.5h-127zM582 1653l194 252h123l195 -252l-95 -80l-161 213l-162 -213z" />
    <glyph glyph-name="uni1ED7" unicode="&#x1ed7;" horiz-adv-x="1245" 
d="M623 -20q-105 0 -203 37t-176.5 105t-126 174.5t-47.5 235.5t47.5 236t126 175t176.5 105t203 37t203 -37t176.5 -105t126 -175t47.5 -236t-47.5 -235.5t-126 -174.5t-176.5 -105t-203 -37zM242 532q0 -92 31.5 -168t85 -124.5t121.5 -75.5t143 -27t143 27t121.5 75.5
t85 124.5t31.5 168q0 121 -54.5 213t-140.5 137.5t-186 45.5t-186 -45.5t-140.5 -137.5t-54.5 -213zM315 1608q0 100 51.5 153.5t125.5 53.5q42 0 78.5 -19t57 -41.5t48 -41.5t53.5 -19q32 0 53 22.5t21 59.5h127q0 -100 -51 -153.5t-125 -53.5q-42 0 -78.5 19t-57.5 41.5
t-48.5 41.5t-53.5 19q-32 0 -53 -22.5t-21 -59.5h-127zM367 1264l194 252h123l195 -252l-95 -80l-161 213l-162 -213z" />
    <glyph glyph-name="uni1ED8" unicode="&#x1ed8;" horiz-adv-x="1677" 
d="M840 -20q-198 0 -366 92.5t-271 265t-103 389.5q0 131 39 248.5t108 207.5t161.5 156.5t203 101t228.5 34.5q147 0 281 -55t235 -151t161 -237.5t60 -304.5t-60 -304t-161 -237.5t-235 -151t-281 -54.5zM281 727q0 -128 46 -238t123 -183t178 -114.5t212 -41.5
q110 0 210.5 41.5t177.5 114.5t123 183t46 238q0 170 -78.5 304t-204.5 204t-274 70q-111 0 -212 -41.5t-178 -115t-123 -183.5t-46 -238zM582 1653l194 252h123l195 -252l-95 -80l-161 213l-162 -213zM758 -315v163h160v-163h-160z" />
    <glyph glyph-name="uni1ED9" unicode="&#x1ed9;" horiz-adv-x="1245" 
d="M623 -20q-105 0 -203 37t-176.5 105t-126 174.5t-47.5 235.5t47.5 236t126 175t176.5 105t203 37t203 -37t176.5 -105t126 -175t47.5 -236t-47.5 -235.5t-126 -174.5t-176.5 -105t-203 -37zM242 532q0 -92 31.5 -168t85 -124.5t121.5 -75.5t143 -27t143 27t121.5 75.5
t85 124.5t31.5 168q0 121 -54.5 213t-140.5 137.5t-186 45.5t-186 -45.5t-140.5 -137.5t-54.5 -213zM367 1264l194 252h123l195 -252l-95 -80l-161 213l-162 -213zM543 -315v163h159v-163h-159z" />
    <glyph glyph-name="uni1EDA" unicode="&#x1eda;" horiz-adv-x="1677" 
d="M840 -20q-198 0 -366 92.5t-271 265t-103 389.5q0 131 39 248.5t108 207.5t161.5 156.5t203 101t228.5 34.5h393q77 0 113 36.5t36 112.5v45h144v-88q0 -108 -70 -174t-186 -66h-2q143 -100 226 -259.5t83 -354.5q0 -163 -60 -304t-161 -237.5t-235 -151t-281 -54.5z
M281 727q0 -128 46 -238t123 -183t178 -114.5t212 -41.5q110 0 210.5 41.5t177.5 114.5t123 183t46 238q0 170 -78.5 304t-204.5 204t-274 70q-111 0 -212 -41.5t-178 -115t-123 -183.5t-46 -238zM770 1587l188 318h150l-193 -318h-145z" />
    <glyph glyph-name="uni1EDB" unicode="&#x1edb;" horiz-adv-x="1245" 
d="M623 -20q-105 0 -203 37t-176.5 105t-126 174.5t-47.5 235.5t47.5 236t126 175t176.5 105t203 37h251q76 0 113 36.5t37 113.5v45h143v-88q0 -90 -49.5 -151t-134.5 -80q90 -74 141.5 -183t51.5 -246q0 -129 -47.5 -235.5t-126 -174.5t-176.5 -105t-203 -37zM242 532
q0 -92 31.5 -168t85 -124.5t121.5 -75.5t143 -27t143 27t121.5 75.5t85 124.5t31.5 168q0 121 -54.5 213t-140.5 137.5t-186 45.5t-186 -45.5t-140.5 -137.5t-54.5 -213zM555 1198l188 318h150l-193 -318h-145z" />
    <glyph glyph-name="uni1EDC" unicode="&#x1edc;" horiz-adv-x="1677" 
d="M840 -20q-198 0 -366 92.5t-271 265t-103 389.5q0 131 39 248.5t108 207.5t161.5 156.5t203 101t228.5 34.5h393q77 0 113 36.5t36 112.5v45h144v-88q0 -108 -70 -174t-186 -66h-2q143 -100 226 -259.5t83 -354.5q0 -163 -60 -304t-161 -237.5t-235 -151t-281 -54.5z
M281 727q0 -128 46 -238t123 -183t178 -114.5t212 -41.5q110 0 210.5 41.5t177.5 114.5t123 183t46 238q0 170 -78.5 304t-204.5 204t-274 70q-111 0 -212 -41.5t-178 -115t-123 -183.5t-46 -238zM594 1905h149l179 -318h-146z" />
    <glyph glyph-name="uni1EDD" unicode="&#x1edd;" horiz-adv-x="1245" 
d="M623 -20q-105 0 -203 37t-176.5 105t-126 174.5t-47.5 235.5t47.5 236t126 175t176.5 105t203 37h251q76 0 113 36.5t37 113.5v45h143v-88q0 -90 -49.5 -151t-134.5 -80q90 -74 141.5 -183t51.5 -246q0 -129 -47.5 -235.5t-126 -174.5t-176.5 -105t-203 -37zM242 532
q0 -92 31.5 -168t85 -124.5t121.5 -75.5t143 -27t143 27t121.5 75.5t85 124.5t31.5 168q0 121 -54.5 213t-140.5 137.5t-186 45.5t-186 -45.5t-140.5 -137.5t-54.5 -213zM379 1516h149l179 -318h-146z" />
    <glyph glyph-name="uni1EDE" unicode="&#x1ede;" horiz-adv-x="1677" 
d="M840 -20q-198 0 -366 92.5t-271 265t-103 389.5q0 131 39 248.5t108 207.5t161.5 156.5t203 101t228.5 34.5h393q77 0 113 36.5t36 112.5v45h144v-88q0 -108 -70 -174t-186 -66h-2q143 -100 226 -259.5t83 -354.5q0 -163 -60 -304t-161 -237.5t-235 -151t-281 -54.5z
M281 727q0 -128 46 -238t123 -183t178 -114.5t212 -41.5q110 0 210.5 41.5t177.5 114.5t123 183t46 238q0 170 -78.5 304t-204.5 204t-274 70q-111 0 -212 -41.5t-178 -115t-123 -183.5t-46 -238zM664 1886q22 44 64.5 70t94.5 26q80 0 135.5 -55.5t55.5 -134.5
q0 -77 -56.5 -130.5t-136.5 -53.5h-51v116h51q29 0 49.5 20t20.5 48t-20 48t-48 20q-42 0 -63 -41z" />
    <glyph glyph-name="uni1EDF" unicode="&#x1edf;" horiz-adv-x="1245" 
d="M623 -20q-105 0 -203 37t-176.5 105t-126 174.5t-47.5 235.5t47.5 236t126 175t176.5 105t203 37h251q76 0 113 36.5t37 113.5v45h143v-88q0 -90 -49.5 -151t-134.5 -80q90 -74 141.5 -183t51.5 -246q0 -129 -47.5 -235.5t-126 -174.5t-176.5 -105t-203 -37zM242 532
q0 -92 31.5 -168t85 -124.5t121.5 -75.5t143 -27t143 27t121.5 75.5t85 124.5t31.5 168q0 121 -54.5 213t-140.5 137.5t-186 45.5t-186 -45.5t-140.5 -137.5t-54.5 -213zM446 1497q22 44 65 70t95 26q80 0 135.5 -55.5t55.5 -134.5q0 -77 -56.5 -130.5t-136.5 -53.5h-51v116
h51q29 0 49.5 20t20.5 48t-20 47.5t-48 19.5q-42 0 -63 -40z" />
    <glyph glyph-name="uni1EE0" unicode="&#x1ee0;" horiz-adv-x="1677" 
d="M840 -20q-198 0 -366 92.5t-271 265t-103 389.5q0 131 39 248.5t108 207.5t161.5 156.5t203 101t228.5 34.5h393q77 0 113 36.5t36 112.5v45h144v-88q0 -108 -70 -174t-186 -66h-2q143 -100 226 -259.5t83 -354.5q0 -163 -60 -304t-161 -237.5t-235 -151t-281 -54.5z
M281 727q0 -128 46 -238t123 -183t178 -114.5t212 -41.5q110 0 210.5 41.5t177.5 114.5t123 183t46 238q0 170 -78.5 304t-204.5 204t-274 70q-111 0 -212 -41.5t-178 -115t-123 -183.5t-46 -238zM532 1647q0 100 51 153t126 53q35 0 64.5 -12.5t50.5 -30t39.5 -35t39.5 -30
t43 -12.5q32 0 53 22.5t21 59.5h127q0 -100 -51 -153.5t-125 -53.5q-42 0 -78.5 19t-57.5 41.5t-48.5 41.5t-53.5 19q-32 0 -53 -22.5t-21 -59.5h-127z" />
    <glyph glyph-name="uni1EE1" unicode="&#x1ee1;" horiz-adv-x="1245" 
d="M623 -20q-105 0 -203 37t-176.5 105t-126 174.5t-47.5 235.5t47.5 236t126 175t176.5 105t203 37h251q76 0 113 36.5t37 113.5v45h143v-88q0 -90 -49.5 -151t-134.5 -80q90 -74 141.5 -183t51.5 -246q0 -129 -47.5 -235.5t-126 -174.5t-176.5 -105t-203 -37zM242 532
q0 -92 31.5 -168t85 -124.5t121.5 -75.5t143 -27t143 27t121.5 75.5t85 124.5t31.5 168q0 121 -54.5 213t-140.5 137.5t-186 45.5t-186 -45.5t-140.5 -137.5t-54.5 -213zM315 1257q0 100 51.5 153.5t125.5 53.5q42 0 78.5 -19t57 -41.5t48 -41.5t53.5 -19q32 0 53 22.5
t21 59.5h127q0 -100 -51 -153t-125 -53q-35 0 -64.5 12.5t-50.5 30t-40 35t-40 30t-43 12.5q-32 0 -53 -22.5t-21 -59.5h-127z" />
    <glyph glyph-name="uni1EE2" unicode="&#x1ee2;" horiz-adv-x="1677" 
d="M840 -20q-198 0 -366 92.5t-271 265t-103 389.5q0 131 39 248.5t108 207.5t161.5 156.5t203 101t228.5 34.5h393q77 0 113 36.5t36 112.5v45h144v-88q0 -108 -70 -174t-186 -66h-2q143 -100 226 -259.5t83 -354.5q0 -163 -60 -304t-161 -237.5t-235 -151t-281 -54.5z
M281 727q0 -128 46 -238t123 -183t178 -114.5t212 -41.5q110 0 210.5 41.5t177.5 114.5t123 183t46 238q0 170 -78.5 304t-204.5 204t-274 70q-111 0 -212 -41.5t-178 -115t-123 -183.5t-46 -238zM758 -315v163h160v-163h-160z" />
    <glyph glyph-name="uni1EE3" unicode="&#x1ee3;" horiz-adv-x="1245" 
d="M623 -20q-105 0 -203 37t-176.5 105t-126 174.5t-47.5 235.5t47.5 236t126 175t176.5 105t203 37h251q76 0 113 36.5t37 113.5v45h143v-88q0 -90 -49.5 -151t-134.5 -80q90 -74 141.5 -183t51.5 -246q0 -129 -47.5 -235.5t-126 -174.5t-176.5 -105t-203 -37zM242 532
q0 -92 31.5 -168t85 -124.5t121.5 -75.5t143 -27t143 27t121.5 75.5t85 124.5t31.5 168q0 121 -54.5 213t-140.5 137.5t-186 45.5t-186 -45.5t-140.5 -137.5t-54.5 -213zM543 -315v163h159v-163h-159z" />
    <glyph glyph-name="uni1EE4" unicode="&#x1ee4;" horiz-adv-x="1284" 
d="M643 -20q-149 0 -266 61.5t-186.5 185.5t-69.5 293v934h176v-932q0 -184 97.5 -279.5t248.5 -95.5q149 0 246.5 95.5t97.5 279.5v932h176v-934q0 -169 -69.5 -293t-186 -185.5t-264.5 -61.5zM561 -315v163h160v-163h-160z" />
    <glyph glyph-name="uni1EE5" unicode="&#x1ee5;" 
d="M1065 1065v-1065h-172v174q-46 -84 -136.5 -139t-219.5 -55q-86 0 -159.5 27.5t-131.5 81.5t-91.5 143.5t-33.5 205.5v627h172v-602q0 -156 82.5 -241t214.5 -85q133 0 218 85t85 241v602h172zM516 -315v163h160v-163h-160z" />
    <glyph glyph-name="uni1EE6" unicode="&#x1ee6;" horiz-adv-x="1284" 
d="M643 -20q-149 0 -266 61.5t-186.5 185.5t-69.5 293v934h176v-932q0 -184 97.5 -279.5t248.5 -95.5q149 0 246.5 95.5t97.5 279.5v932h176v-934q0 -169 -69.5 -293t-186 -185.5t-264.5 -61.5zM467 1886q22 44 65 70t95 26q79 0 134.5 -55t55.5 -135q0 -78 -56 -131
t-136 -53h-52v116h52q29 0 49 20t20 48t-19.5 48t-47.5 20q-43 0 -64 -41z" />
    <glyph glyph-name="uni1EE7" unicode="&#x1ee7;" 
d="M1065 1065v-1065h-172v174q-46 -84 -136.5 -139t-219.5 -55q-86 0 -159.5 27.5t-131.5 81.5t-91.5 143.5t-33.5 205.5v627h172v-602q0 -156 82.5 -241t214.5 -85q133 0 218 85t85 241v602h172zM428 1497q22 44 65 70t95 26q80 0 135 -55.5t55 -134.5q0 -78 -56 -131
t-136 -53h-51v116h51q29 0 49 20t20 48t-19.5 47.5t-47.5 19.5q-43 0 -64 -40z" />
    <glyph glyph-name="uni1EE8" unicode="&#x1ee8;" horiz-adv-x="1284" 
d="M643 -20q-149 0 -266 61.5t-186.5 185.5t-69.5 293v934h176v-932q0 -184 97.5 -279.5t248.5 -95.5q149 0 246.5 95.5t97.5 279.5v932h150q77 0 113 34t36 109v72h144v-117q0 -106 -70.5 -171.5t-185.5 -65.5h-11v-795q0 -169 -69.5 -293t-186 -185.5t-264.5 -61.5z
M573 1587l189 318h149l-192 -318h-146z" />
    <glyph glyph-name="uni1EE9" unicode="&#x1ee9;" 
d="M535 1198l188 318h149l-192 -318h-145zM121 438v627h172v-602q0 -156 82.5 -241t214.5 -85q133 0 218 85t85 241v602h123q77 0 113 34t36 109v72h144v-117q0 -103 -67 -167.5t-177 -69.5v-926h-172v174q-46 -84 -136.5 -139t-219.5 -55q-86 0 -159.5 27.5t-131.5 81.5
t-91.5 143.5t-33.5 205.5z" />
    <glyph glyph-name="uni1EEA" unicode="&#x1eea;" horiz-adv-x="1284" 
d="M643 -20q-149 0 -266 61.5t-186.5 185.5t-69.5 293v934h176v-932q0 -184 97.5 -279.5t248.5 -95.5q149 0 246.5 95.5t97.5 279.5v932h150q77 0 113 34t36 109v72h144v-117q0 -106 -70.5 -171.5t-185.5 -65.5h-11v-795q0 -169 -69.5 -293t-186 -185.5t-264.5 -61.5z
M397 1905h150l178 -318h-145z" />
    <glyph glyph-name="uni1EEB" unicode="&#x1eeb;" 
d="M541 1198l-183 318h150l178 -318h-145zM121 438v627h172v-602q0 -156 82.5 -241t214.5 -85q133 0 218 85t85 241v602h123q77 0 113 34t36 109v72h144v-117q0 -103 -67 -167.5t-177 -69.5v-926h-172v174q-46 -84 -136.5 -139t-219.5 -55q-86 0 -159.5 27.5t-131.5 81.5
t-91.5 143.5t-33.5 205.5z" />
    <glyph glyph-name="uni1EEC" unicode="&#x1eec;" horiz-adv-x="1284" 
d="M643 -20q-149 0 -266 61.5t-186.5 185.5t-69.5 293v934h176v-932q0 -184 97.5 -279.5t248.5 -95.5q149 0 246.5 95.5t97.5 279.5v932h150q77 0 113 34t36 109v72h144v-117q0 -106 -70.5 -171.5t-185.5 -65.5h-11v-795q0 -169 -69.5 -293t-186 -185.5t-264.5 -61.5z
M467 1886q22 44 65 70t95 26q79 0 134.5 -55t55.5 -135q0 -78 -56 -131t-136 -53h-52v116h52q29 0 49 20t20 48t-19.5 48t-47.5 20q-43 0 -64 -41z" />
    <glyph glyph-name="uni1EED" unicode="&#x1eed;" 
d="M535 1219v116h51q29 0 49 20t20 48t-19.5 47.5t-47.5 19.5q-43 0 -64 -40l-96 67q22 44 65 70t95 26q80 0 135 -55.5t55 -134.5q0 -78 -56 -131t-136 -53h-51zM121 438v627h172v-602q0 -156 82.5 -241t214.5 -85q133 0 218 85t85 241v602h123q77 0 113 34t36 109v72h144
v-117q0 -103 -67 -167.5t-177 -69.5v-926h-172v174q-46 -84 -136.5 -139t-219.5 -55q-86 0 -159.5 27.5t-131.5 81.5t-91.5 143.5t-33.5 205.5z" />
    <glyph glyph-name="uni1EEE" unicode="&#x1eee;" horiz-adv-x="1284" 
d="M643 -20q-149 0 -266 61.5t-186.5 185.5t-69.5 293v934h176v-932q0 -184 97.5 -279.5t248.5 -95.5q149 0 246.5 95.5t97.5 279.5v932h150q77 0 113 34t36 109v72h144v-117q0 -106 -70.5 -171.5t-185.5 -65.5h-11v-795q0 -169 -69.5 -293t-186 -185.5t-264.5 -61.5z
M336 1647q0 100 51 153t125 53q35 0 64.5 -12.5t50.5 -30t40 -35t40 -30t43 -12.5q32 0 52.5 22.5t20.5 59.5h127q0 -100 -51 -153.5t-125 -53.5q-42 0 -78.5 19t-57 41.5t-48 41.5t-53.5 19q-32 0 -53 -22.5t-21 -59.5h-127z" />
    <glyph glyph-name="uni1EEF" unicode="&#x1eef;" 
d="M733 1219q-35 0 -64.5 12.5t-50.5 30t-39.5 35t-39.5 30t-43 12.5q-32 0 -53 -22.5t-21 -59.5h-127q0 100 51 153.5t125 53.5q42 0 78.5 -19t57.5 -41.5t48.5 -41.5t53.5 -19q32 0 52.5 22.5t20.5 59.5h127q0 -100 -51 -153t-125 -53zM121 438v627h172v-602
q0 -156 82.5 -241t214.5 -85q133 0 218 85t85 241v602h123q77 0 113 34t36 109v72h144v-117q0 -103 -67 -167.5t-177 -69.5v-926h-172v174q-46 -84 -136.5 -139t-219.5 -55q-86 0 -159.5 27.5t-131.5 81.5t-91.5 143.5t-33.5 205.5z" />
    <glyph glyph-name="uni1EF0" unicode="&#x1ef0;" horiz-adv-x="1284" 
d="M643 -20q-149 0 -266 61.5t-186.5 185.5t-69.5 293v934h176v-932q0 -184 97.5 -279.5t248.5 -95.5q149 0 246.5 95.5t97.5 279.5v932h150q77 0 113 34t36 109v72h144v-117q0 -106 -70.5 -171.5t-185.5 -65.5h-11v-795q0 -169 -69.5 -293t-186 -185.5t-264.5 -61.5z
M561 -315v163h160v-163h-160z" />
    <glyph glyph-name="uni1EF1" unicode="&#x1ef1;" 
d="M516 -315v163h160v-163h-160zM121 438v627h172v-602q0 -156 82.5 -241t214.5 -85q133 0 218 85t85 241v602h123q77 0 113 34t36 109v72h144v-117q0 -103 -67 -167.5t-177 -69.5v-926h-172v174q-46 -84 -136.5 -139t-219.5 -55q-86 0 -159.5 27.5t-131.5 81.5t-91.5 143.5
t-33.5 205.5z" />
    <glyph glyph-name="Ygrave" unicode="&#x1ef2;" horiz-adv-x="1331" 
d="M578 0v627l-519 827h201l406 -661l405 661h201l-518 -827v-627h-176zM408 1905h149l178 -318h-145z" />
    <glyph glyph-name="ygrave" unicode="&#x1ef3;" horiz-adv-x="1163" 
d="M322 -389l176 399l-449 1055h178l355 -852l354 852h178l-452 -1065l-170 -389h-170zM340 1516h149l179 -318h-146z" />
    <glyph glyph-name="uni1EF4" unicode="&#x1ef4;" horiz-adv-x="1331" 
d="M578 0v627l-519 827h201l406 -661l405 661h201l-518 -827v-627h-176zM586 -315v163h159v-163h-159z" />
    <glyph glyph-name="uni1EF5" unicode="&#x1ef5;" horiz-adv-x="1163" 
d="M322 -389l176 399l-449 1055h178l355 -852l354 852h178l-452 -1065l-170 -389h-170zM778 -315v163h160v-163h-160z" />
    <glyph glyph-name="uni1EF6" unicode="&#x1ef6;" horiz-adv-x="1331" 
d="M578 0v627l-519 827h201l406 -661l405 661h201l-518 -827v-627h-176zM489 1886q22 44 65 70t95 26q80 0 135.5 -55.5t55.5 -134.5q0 -77 -56.5 -130.5t-136.5 -53.5h-51v116h51q29 0 49.5 20t20.5 48t-20 48t-48 20q-42 0 -63 -41z" />
    <glyph glyph-name="uni1EF7" unicode="&#x1ef7;" horiz-adv-x="1163" 
d="M322 -389l176 399l-449 1055h178l355 -852l354 852h178l-452 -1065l-170 -389h-170zM422 1497q22 44 65 70t95 26q80 0 135 -55.5t55 -134.5q0 -78 -56 -131t-136 -53h-52v116h52q29 0 49 20t20 48t-19.5 47.5t-47.5 19.5q-43 0 -64 -40z" />
    <glyph glyph-name="uni1EF8" unicode="&#x1ef8;" horiz-adv-x="1331" 
d="M578 0v627l-519 827h201l406 -661l405 661h201l-518 -827v-627h-176zM358 1647q0 100 51 153t126 53q35 0 64.5 -12.5t50.5 -30t39.5 -35t39.5 -30t43 -12.5q32 0 53 22.5t21 59.5h127q0 -100 -51 -153.5t-125 -53.5q-42 0 -78.5 19t-57.5 41.5t-48.5 41.5t-53.5 19
q-32 0 -53 -22.5t-21 -59.5h-127z" />
    <glyph glyph-name="uni1EF9" unicode="&#x1ef9;" horiz-adv-x="1163" 
d="M322 -389l176 399l-449 1055h178l355 -852l354 852h178l-452 -1065l-170 -389h-170zM289 1257q0 100 51 153.5t125 53.5q42 0 78.5 -19t57 -41.5t48 -41.5t53.5 -19q32 0 53 22.5t21 59.5h127q0 -100 -51 -153t-125 -53q-35 0 -64.5 12.5t-50.5 30t-40 35t-40 30
t-43 12.5q-32 0 -52.5 -22.5t-20.5 -59.5h-127z" />
    <glyph glyph-name="endash" unicode="&#x2013;" horiz-adv-x="1228" 
d="M92 500v143h1045v-143h-1045z" />
    <glyph glyph-name="emdash" unicode="&#x2014;" horiz-adv-x="1351" 
d="M92 500v143h1168v-143h-1168z" />
    <glyph glyph-name="quoteleft" unicode="&#x2018;" horiz-adv-x="428" 
d="M373 1454l-162 -461h-156l164 461h154z" />
    <glyph glyph-name="quoteright" unicode="&#x2019;" horiz-adv-x="428" 
d="M55 993l162 461h156l-164 -461h-154z" />
    <glyph glyph-name="quotesinglbase" unicode="&#x201a;" horiz-adv-x="438" 
d="M55 -283l162 461h156l-164 -461h-154z" />
    <glyph glyph-name="quotedblleft" unicode="&#x201c;" horiz-adv-x="700" 
d="M373 1454l-162 -461h-156l164 461h154zM328 993l164 461h153l-162 -461h-155z" />
    <glyph glyph-name="quotedblright" unicode="&#x201d;" horiz-adv-x="700" 
d="M328 993l161 461h156l-164 -461h-153zM55 993l162 461h156l-164 -461h-154z" />
    <glyph glyph-name="quotedblbase" unicode="&#x201e;" horiz-adv-x="710" 
d="M328 -283l161 461h156l-164 -461h-153zM55 -283l162 461h156l-164 -461h-154z" />
    <glyph glyph-name="dagger" unicode="&#x2020;" horiz-adv-x="661" 
d="M295 659l-23 394h-182v118h176l-16 283h164l-17 -283h174v-118h-180l-22 -394h-74z" />
    <glyph glyph-name="daggerdbl" unicode="&#x2021;" horiz-adv-x="661" 
d="M295 786l-19 267h-186v118h178l-18 283h164l-19 -283h176v-118h-184l-18 -267h-74zM90 283v118h186l19 267h74l18 -267h184v-118h-176l19 -283h-164l18 283h-178z" />
    <glyph glyph-name="bullet" unicode="&#x2022;" horiz-adv-x="411" 
d="M211 481q-44 0 -74.5 30.5t-30.5 74.5t30 73t75 29q44 0 73 -29t29 -73q0 -45 -29 -75t-73 -30z" />
    <glyph glyph-name="ellipsis" unicode="&#x2026;" horiz-adv-x="1370" 
d="M686 -20q-44 0 -74 30t-30 74t30 73t74 29t73 -29t29 -73t-29 -74t-73 -30zM76 84q0 44 30 73t74 29t73.5 -29t29.5 -73t-29.5 -74t-73.5 -30t-74 30t-30 74zM1087 84q0 44 30 73t75 29q44 0 73 -29t29 -73t-29 -74t-73 -30t-74.5 30t-30.5 74z" />
    <glyph glyph-name="perthousand" unicode="&#x2030;" horiz-adv-x="2048" 
d="M1722 -10q-106 0 -180 73t-74 179t74 179t180 73t180 -73t74 -179t-74 -179t-180 -73zM72 1212q0 106 74 179t180 73t180 -73t74 -179q0 -105 -74 -178t-180 -73t-180 73t-74 178zM193 86l899 1372l131 -86l-899 -1372zM195 1212q0 -58 37.5 -94.5t93.5 -36.5t93.5 36.5
t37.5 94.5t-37.5 94.5t-93.5 36.5t-93.5 -36.5t-37.5 -94.5zM850 242q0 106 74 179t180 73t180 -73t74 -179t-74 -179t-180 -73t-180 73t-74 179zM973 242q0 -58 37.5 -94.5t93.5 -36.5t93.5 36.5t37.5 94.5t-37.5 94.5t-93.5 36.5t-93.5 -36.5t-37.5 -94.5zM1591 242
q0 -58 37.5 -94.5t93.5 -36.5t93.5 36.5t37.5 94.5t-37.5 94.5t-93.5 36.5t-93.5 -36.5t-37.5 -94.5z" />
    <glyph glyph-name="guilsinglleft" unicode="&#x2039;" horiz-adv-x="493" 
d="M383 254l-301 299v84l301 299l59 -64l-239 -278l239 -279z" />
    <glyph glyph-name="guilsinglright" unicode="&#x203a;" horiz-adv-x="493" 
d="M111 254l-60 61l240 279l-240 278l60 64l301 -299v-84z" />
    <glyph glyph-name="fraction" unicode="&#x2044;" horiz-adv-x="221" 
d="M-389 0l893 1434h86l-881 -1434h-98z" />
    <glyph glyph-name="dong" unicode="&#x20ab;" horiz-adv-x="1277" 
d="M555 127q-95 0 -181.5 33t-154.5 94t-108.5 158t-40.5 215t40.5 214.5t108.5 157.5t154.5 94t181.5 33q135 0 238 -60t141 -144h6v307h-391v125h391v100h172v-100h86v-125h-86v-1096h-172v199h-6q-38 -84 -141 -144.5t-238 -60.5zM139 -98v125h961v-125h-961zM242 627
q0 -162 101 -255t245 -93q94 0 174 39t131 120t51 189t-51 189t-131 120t-174 39q-144 0 -245 -93t-101 -255z" />
    <glyph glyph-name="Euro" unicode="&#x20ac;" horiz-adv-x="1540" 
d="M31 743v103h129q26 186 130 330t261 221.5t342 77.5q72 0 142.5 -13.5t147 -44t148.5 -88.5t129 -139l-129 -94q-84 112 -198.5 160.5t-235.5 48.5q-208 0 -362.5 -125.5t-192.5 -333.5h444v-103h-454v-16q0 -43 2 -63h452v-103h-434q51 -189 200.5 -300t346.5 -111
q121 0 234.5 48t197.5 160l129 -94q-57 -81 -128.5 -139t-148 -88t-147 -43.5t-143.5 -13.5q-268 0 -469.5 159.5t-255.5 421.5h-137v103h123q-2 20 -2 63v16h-121z" />
    <glyph glyph-name="uni20BD" unicode="&#x20bd;" horiz-adv-x="1181" 
d="M14 242v157h113v115h-113v158h113v782h473q231 0 366.5 -131.5t135.5 -341.5q0 -212 -135 -343.5t-367 -131.5h-297v-107h490v-157h-490v-242h-176v242h-113zM303 672h283q157 0 246.5 79t89.5 230t-89.5 230t-246.5 79h-283v-618z" />
    <glyph glyph-name="trademark" unicode="&#x2122;" horiz-adv-x="1140" 
d="M553 1085v369h82l145 -276l146 276h82v-369h-82v224l-113 -224h-65l-113 224v-224h-82zM133 1380v74h350v-74h-133v-295h-84v295h-133z" />
    <glyph glyph-name="oneeighth" unicode="&#x215b;" horiz-adv-x="1138" 
d="M129 901v453l-35 -23l-37 64l72 41h76v-535h-76zM51 0l893 1434h86l-880 -1434h-99zM713 158q0 44 23 79.5t65 55.5q-62 41 -62 108q0 54 44.5 96t115.5 42q74 0 118 -41.5t44 -96.5q0 -69 -62 -108q88 -45 88 -135q0 -69 -55 -115.5t-133 -46.5q-75 0 -130.5 46.5
t-55.5 115.5zM788 158q0 -42 33.5 -70.5t77.5 -28.5q50 0 80.5 27.5t30.5 71.5t-31 72t-80 28q-44 0 -77.5 -28.5t-33.5 -71.5zM815 401q0 -31 26 -55t58 -24q36 0 60 23.5t24 55.5q0 31 -20 52.5t-64 21.5q-40 0 -62 -22t-22 -52z" />
    <glyph glyph-name="threeeighths" unicode="&#x215c;" horiz-adv-x="1175" 
d="M238 893q-84 0 -138 55.5t-49 130.5h78q-6 -48 26.5 -84.5t82.5 -36.5q45 0 77.5 28t32.5 71q0 107 -151 94v61q129 6 129 88q0 31 -26 53.5t-62 22.5q-44 0 -71 -30t-24 -84h-77q-4 77 46 127.5t126 50.5q65 0 114 -42.5t49 -97.5q0 -65 -61 -108q38 -16 62 -50.5
t24 -84.5q0 -69 -56 -116.5t-132 -47.5zM92 0l893 1434h86l-881 -1434h-98zM750 158q0 44 23 79.5t65 55.5q-62 41 -62 108q0 54 44.5 96t115.5 42q74 0 118 -41.5t44 -96.5q0 -69 -62 -108q88 -45 88 -135q0 -69 -55 -115.5t-133 -46.5q-75 0 -130.5 46.5t-55.5 115.5z
M825 158q0 -42 33.5 -70.5t77.5 -28.5q50 0 80.5 27.5t30.5 71.5t-31 72t-80 28q-44 0 -77.5 -28.5t-33.5 -71.5zM852 401q0 -31 26 -55t58 -24q36 0 60 23.5t24 55.5q0 31 -20 52.5t-64 21.5q-40 0 -62 -22t-22 -52z" />
    <glyph glyph-name="fiveeighths" unicode="&#x215d;" horiz-adv-x="1179" 
d="M236 893q-67 0 -119.5 38.5t-65.5 88.5l68 39q3 -42 35.5 -71.5t81.5 -29.5q47 0 81.5 35.5t34.5 89.5q0 51 -33.5 87t-74.5 36q-72 0 -117 -59l-66 16l37 273h283v-66h-213l-16 -119q47 21 92 21q72 0 129 -55t57 -134t-57 -134.5t-137 -55.5zM92 0l893 1434h86
l-881 -1434h-98zM754 158q0 44 23 79.5t65 55.5q-62 41 -62 108q0 54 44.5 96t115.5 42q74 0 118 -41.5t44 -96.5q0 -69 -62 -108q88 -45 88 -135q0 -69 -55 -115.5t-133 -46.5q-75 0 -130.5 46.5t-55.5 115.5zM829 158q0 -42 33.5 -70.5t77.5 -28.5q50 0 80.5 27.5
t30.5 71.5t-31 72t-80 28q-44 0 -77.5 -28.5t-33.5 -71.5zM856 401q0 -31 26 -55t58 -24q36 0 60 23.5t24 55.5q0 31 -20 52.5t-64 21.5q-40 0 -62 -22t-22 -52z" />
    <glyph glyph-name="seveneighths" unicode="&#x215e;" horiz-adv-x="1138" 
d="M121 901l182 469h-248v66h355l-209 -535h-80zM51 0l893 1434h86l-880 -1434h-99zM713 158q0 44 23 79.5t65 55.5q-62 41 -62 108q0 54 44.5 96t115.5 42q74 0 118 -41.5t44 -96.5q0 -69 -62 -108q88 -45 88 -135q0 -69 -55 -115.5t-133 -46.5q-75 0 -130.5 46.5
t-55.5 115.5zM788 158q0 -42 33.5 -70.5t77.5 -28.5q50 0 80.5 27.5t30.5 71.5t-31 72t-80 28q-44 0 -77.5 -28.5t-33.5 -71.5zM815 401q0 -31 26 -55t58 -24q36 0 60 23.5t24 55.5q0 31 -20 52.5t-64 21.5q-40 0 -62 -22t-22 -52z" />
    <glyph glyph-name="partialdiff" unicode="&#x2202;" horiz-adv-x="1126" 
d="M565 -20q-199 0 -337 127.5t-138 332.5q0 197 127 321t313 124q95 0 172 -39l-434 608h195l354 -493q3 -4 28.5 -39.5t33 -46.5t31 -46.5t33 -54.5t28.5 -54.5t27.5 -63t19 -63.5t14.5 -71.5t4 -72.5q0 -211 -136 -340t-335 -129zM256 434q0 -134 88.5 -217.5
t218.5 -83.5t218.5 83.5t88.5 217.5q0 135 -88 218t-219 83t-219 -83t-88 -218z" />
    <glyph glyph-name="product" unicode="&#x220f;" horiz-adv-x="1400" 
d="M92 -389v1823h1217v-1823h-166v1659h-885v-1659h-166z" />
    <glyph glyph-name="summation" unicode="&#x2211;" horiz-adv-x="1363" 
d="M92 -389l563 911l-563 912h1180v-164h-887l467 -748l-467 -747h887v-164h-1180z" />
    <glyph glyph-name="minus" unicode="&#x2212;" horiz-adv-x="870" 
d="M92 500v143h686v-143h-686z" />
    <glyph glyph-name="radical" unicode="&#x221a;" horiz-adv-x="1490" 
d="M674 -389l-350 930h-232v188h348l322 -879l465 1584h172l-531 -1823h-194z" />
    <glyph glyph-name="infinity" unicode="&#x221e;" horiz-adv-x="1673" 
d="M1227 190q-194 0 -391 230q-192 -230 -385 -230q-152 0 -251.5 99.5t-99.5 247.5q0 144 100 242t251 98q192 0 385 -228q199 228 391 228q148 0 247 -98.5t99 -241.5q0 -148 -98.5 -247.5t-247.5 -99.5zM250 537q0 -86 58.5 -144.5t146.5 -58.5q73 0 149 54t141 149
q-65 93 -141 145.5t-149 52.5q-89 0 -147 -57t-58 -141zM926 537q65 -95 143 -149t152 -54q87 0 144.5 58.5t57.5 144.5q0 84 -57.5 141t-144.5 57q-75 0 -152.5 -52.5t-142.5 -145.5z" />
    <glyph glyph-name="integral" unicode="&#x222b;" horiz-adv-x="495" 
d="M-111 -236q101 0 135.5 41.5t34.5 159.5v1127q0 190 81.5 266t265.5 76v-154q-99 0 -134.5 -46.5t-35.5 -166.5v-1126q0 -189 -80.5 -259.5t-266.5 -70.5v153z" />
    <glyph glyph-name="approxequal" unicode="&#x2248;" horiz-adv-x="872" 
d="M584 266q-51 0 -92 20t-62.5 43.5t-52.5 43.5t-64 20q-38 0 -62 -23t-24 -61h-135q0 100 54 156.5t143 56.5q42 0 76 -13t56 -32t42 -37.5t44 -31.5t52 -13q38 0 62 23t24 61h135q0 -100 -53.5 -156.5t-142.5 -56.5zM92 641q0 100 54 156.5t143 56.5q42 0 76 -13t56 -32
t42 -37.5t44 -31.5t52 -13q38 0 62 23t24 61h135q0 -100 -53.5 -156.5t-142.5 -56.5q-51 0 -92 20t-62.5 43.5t-52.5 43.5t-64 20q-38 0 -62 -23t-24 -61h-135z" />
    <glyph glyph-name="notequal" unicode="&#x2260;" horiz-adv-x="870" 
d="M137 0l129 332h-174v143h230l75 193h-305v143h361l131 338h149l-131 -338h176v-143h-231l-76 -193h307v-143h-362l-129 -332h-150z" />
    <glyph glyph-name="lessequal" unicode="&#x2264;" horiz-adv-x="874" 
d="M92 143h703v-143h-703v143zM92 711v114l703 389v-151l-535 -295l535 -293v-153z" />
    <glyph glyph-name="greaterequal" unicode="&#x2265;" horiz-adv-x="886" 
d="M795 143v-143h-703v143h703zM92 322v153l535 293l-535 295v151l703 -389v-114z" />
    <glyph glyph-name="lozenge" unicode="&#x25ca;" horiz-adv-x="1056" 
d="M410 0l-318 717l318 717h237l318 -717l-318 -717h-237zM272 717l256 -578l256 578l-256 577z" />
    <glyph glyph-name="uniA78B" unicode="&#xa78b;" horiz-adv-x="436" 
d="M121 479v975h194v-975h-194z" />
    <glyph glyph-name="uniA78C" unicode="&#xa78c;" horiz-adv-x="436" 
d="M121 856v598h194v-598h-194z" />
    <glyph glyph-name="uni004A0301" horiz-adv-x="991" 
d="M432 -20q-126 0 -222 51.5t-151 142.5l115 115q94 -139 252 -139q53 0 99 16.5t85 51t61.5 96.5t22.5 145v995h176v-1016q0 -96 -24 -174t-65 -130t-97.5 -87.5t-119.5 -51t-132 -15.5zM707 1587l188 318h149l-192 -318h-145z" />
    <glyph glyph-name="M.ss01" horiz-adv-x="1843" 
d="M113 0l120 1454h191l498 -1227l497 1227h191l121 -1454h-183l-90 1133l-454 -1133h-164l-453 1133l-92 -1133h-182z" />
    <glyph glyph-name="i.loclTRK" horiz-adv-x="413" 
d="M121 0v1065h172v-1065h-172zM121 1292v174h172v-174h-172z" />
    <glyph glyph-name="uni006A0301" horiz-adv-x="417" 
d="M-184 -395v159h47q63 0 108 11.5t81.5 41t54.5 84t18 136.5v1028h172v-1040q0 -119 -29 -201.5t-86.5 -130t-133.5 -68t-181 -20.5h-51zM139 1198l189 318h149l-192 -318h-146z" />
    <glyph glyph-name="i.ss01" horiz-adv-x="405" 
d="M117 0v1065h172v-1065h-172zM100 1393q0 43 30 73.5t73 30.5t73.5 -30.5t30.5 -73.5t-30.5 -74t-73.5 -31t-73 31t-30 74z" />
    <glyph glyph-name="j.ss01" horiz-adv-x="409" 
d="M-188 -395v159h47q63 0 108 11.5t81.5 41t54.5 84t18 136.5v1028h172v-1040q0 -119 -29 -201.5t-86.5 -130t-133.5 -68t-181 -20.5h-51zM102 1393q0 43 31 73.5t74 30.5q41 0 71.5 -30.5t30.5 -73.5t-30.5 -74t-71.5 -31q-43 0 -74 31t-31 74z" />
    <glyph glyph-name="f_t" horiz-adv-x="1249" 
d="M346 924v-924h-174v924h-123v141h123v117q0 74 19.5 131t49.5 90.5t71.5 55t80 29t80.5 7.5q101 0 166 -41v-137q-62 29 -129 29q-164 0 -164 -185v-96h440v272h172v-272h211v-141h-211v-674q0 -107 113 -107q43 0 96 19v-137q-47 -37 -143 -37q-111 0 -174.5 56.5
t-63.5 172.5v707h-440z" />
    <glyph glyph-name="t_t" horiz-adv-x="1288" 
d="M385 924v-674q0 -107 113 -107q43 0 96 19v-137q-47 -37 -143 -37q-111 0 -174.5 56.5t-63.5 172.5v707h-143v141h143v272h172v-272h440v272h172v-272h211v-141h-211v-674q0 -107 113 -107q43 0 96 19v-137q-47 -37 -143 -37q-111 0 -174.5 56.5t-63.5 172.5v707h-440z
" />
    <glyph glyph-name="zero.ss01" horiz-adv-x="1331" 
d="M666 -20q-121 0 -224 49.5t-179.5 142.5t-119.5 235.5t-43 319.5q0 176 43 319t119 236t179.5 143t224.5 50q122 0 225 -50t179 -143t118.5 -235.5t42.5 -319.5t-42.5 -319.5t-118.5 -235.5t-179 -142.5t-225 -49.5zM274 727q0 -174 44 -306t133.5 -209t214.5 -77t215 77
t134 209t44 306q0 173 -44 305.5t-134 209.5t-215 77t-214.5 -77.5t-133.5 -209.5t-44 -305z" />
    <glyph glyph-name="zero.tf" horiz-adv-x="1433" 
d="M725 -20q-121 0 -224 49.5t-179 142.5t-119 235.5t-43 319.5t43 319.5t119 235.5t179 143t224 50q122 0 225 -50t179 -143t118.5 -235.5t42.5 -319.5t-42.5 -319.5t-118.5 -235.5t-179 -142.5t-225 -49.5zM334 727q0 -174 43.5 -306t133 -209t214.5 -77t215 77t134 209
t44 306q0 173 -44 305.5t-134 209.5t-215 77t-214.5 -77.5t-133 -209.5t-43.5 -305z" />
    <glyph glyph-name="one.tf" horiz-adv-x="1433" 
d="M635 0v1292h-207v162h381v-1454h-174z" />
    <glyph glyph-name="two.tf" horiz-adv-x="1433" 
d="M711 596q16 21 56 70.5t53 66.5t42 56.5t39 57t27.5 49.5t23.5 54.5t11.5 51t5.5 57.5q0 122 -74.5 188t-187.5 66q-118 0 -199.5 -73t-81.5 -214v-37h-174v51q0 191 124 313t333 122q200 0 320 -112t120 -284q0 -38 -7 -76t-15.5 -68t-28 -66.5t-32 -59t-40 -59.5
t-40 -53.5t-44 -54.5t-41.5 -50l-354 -436h604v-156h-913z" />
    <glyph glyph-name="three.tf" horiz-adv-x="1433" 
d="M692 -20q-175 0 -301.5 87.5t-173.5 225.5l131 78q42 -110 132 -174t210 -64q141 0 238.5 86.5t97.5 239.5q0 90 -37 160.5t-99.5 110t-145.5 51.5t-175 -15l324 534h-592v154h848l-346 -561q76 -5 147 -36.5t127.5 -86t90.5 -137.5t34 -182q0 -142 -69 -250.5
t-184.5 -164.5t-256.5 -56z" />
    <glyph glyph-name="four.tf" horiz-adv-x="1433" 
d="M862 0v371h-633v153l633 930h176v-930h154v-153h-154v-371h-176zM408 524h454v684z" />
    <glyph glyph-name="five.tf" horiz-adv-x="1433" 
d="M672 -20q-170 0 -292.5 82t-176.5 212l135 76q32 -85 122 -149t210 -64q144 0 245 92.5t101 247.5q0 154 -97 250t-241 96q-96 0 -174 -42.5t-125 -110.5l-139 55l98 729h704v-154h-569l-63 -448q41 50 121 83.5t178 33.5q95 0 181.5 -34.5t152 -96.5t104.5 -155t39 -204
q0 -224 -147 -361.5t-367 -137.5z" />
    <glyph glyph-name="six.tf" horiz-adv-x="1433" 
d="M725 -20q-199 0 -335 129t-136 340q0 37 4 72.5t14.5 71.5t19 63.5t27.5 63t28.5 54.5t33 54.5t31 46.5t33 46.5t28.5 39.5l354 493h195l-434 -608q77 39 172 39q186 0 313 -124t127 -321q0 -205 -138 -332.5t-337 -127.5zM420 434q0 -134 88.5 -217.5t218.5 -83.5
t218.5 83.5t88.5 217.5q0 135 -88 218t-219 83t-219 -83t-88 -218z" />
    <glyph glyph-name="seven.tf" horiz-adv-x="1433" 
d="M426 0l514 1300h-643v154h872l-569 -1454h-174z" />
    <glyph glyph-name="eight.tf" horiz-adv-x="1433" 
d="M719 -20q-126 0 -233.5 52t-174.5 153.5t-67 232.5q0 137 69 238t181 151q-77 51 -120.5 129.5t-43.5 173.5q0 98 46.5 180.5t136.5 133.5t206 51t206 -51t136.5 -133.5t46.5 -180.5q0 -95 -44.5 -173.5t-121.5 -129.5q112 -50 181 -151t69 -238q0 -131 -67 -232.5
t-174 -153.5t-232 -52zM420 426q0 -127 87 -207t212 -80q124 0 210.5 80t86.5 207q0 128 -85.5 208.5t-211.5 80.5q-127 0 -213 -80.5t-86 -208.5zM487 1098q0 -96 66.5 -163t165.5 -67q97 0 163 67t66 163q0 95 -63.5 160t-165.5 65q-103 0 -167.5 -65t-64.5 -160z" />
    <glyph glyph-name="nine.tf" horiz-adv-x="1433" 
d="M715 1475q199 0 335 -129t136 -340q0 -37 -4 -72.5t-14.5 -71.5t-19 -63.5t-27.5 -63t-28.5 -54.5t-33 -54.5t-31 -46.5t-33 -46.5t-28.5 -39.5l-355 -494h-194l434 608q-77 -39 -172 -39q-186 0 -313 124t-127 321q0 205 138 333t337 128zM406 1020q0 -135 88 -218
t219 -83t219 83t88 218q0 134 -88.5 217.5t-218.5 83.5t-218.5 -83.5t-88.5 -217.5z" />
    </font>
</defs>
</svg>
