<svg width="20" height="21" viewBox="0 0 20 21" fill="none" xmlns="http://www.w3.org/2000/svg">
<g clip-path="url(#clip0_688_32076)">
<path fill-rule="evenodd" clip-rule="evenodd" d="M9.23394 0.984049C9.43711 0.780885 9.71266 0.666748 9.99998 0.666748C10.2873 0.666748 10.5628 0.780885 10.766 0.984049C10.9692 1.18721 11.0833 1.46276 11.0833 1.75008V13.2226L14.6475 9.64758C14.7485 9.54657 14.8684 9.46645 15.0004 9.41178C15.1323 9.35712 15.2738 9.32898 15.4166 9.32898C15.5595 9.32898 15.7009 9.35712 15.8329 9.41178C15.9649 9.46645 16.0848 9.54657 16.1858 9.64758C16.2868 9.74859 16.3669 9.8685 16.4216 10.0005C16.4763 10.1325 16.5044 10.2739 16.5044 10.4167C16.5044 10.5596 16.4763 10.701 16.4216 10.833C16.3669 10.965 16.2868 11.0849 16.1858 11.1859L10.7691 16.6026C10.6684 16.7041 10.5486 16.7847 10.4166 16.8397C10.2846 16.8947 10.143 16.923 9.99998 16.923C9.85696 16.923 9.71537 16.8947 9.58335 16.8397C9.45134 16.7847 9.33152 16.7041 9.23081 16.6026L3.81414 11.1859C3.61015 10.9819 3.49554 10.7052 3.49554 10.4167C3.49554 10.1283 3.61015 9.85158 3.81414 9.64758C4.01814 9.44359 4.29482 9.32898 4.58331 9.32898C4.8718 9.32898 5.14848 9.44359 5.35248 9.64758L8.91664 13.2226V1.75008C8.91664 1.46276 9.03078 1.18721 9.23394 0.984049ZM0.25002 19.0834H19.75C20.0373 19.0834 20.3129 19.1975 20.5161 19.4007C20.7192 19.6038 20.8334 19.8794 20.8334 20.1667C20.8334 20.454 20.7192 20.7296 20.5161 20.9327C20.3129 21.1359 20.0373 21.25 19.75 21.25H0.25002C-0.0372975 21.25 -0.312848 21.1359 -0.516012 20.9327C-0.719176 20.7296 -0.833313 20.454 -0.833313 20.1667C-0.833313 19.8794 -0.719176 19.6038 -0.516012 19.4007C-0.312848 19.1975 -0.0372975 19.0834 0.25002 19.0834Z" fill="#78828A"/>
</g>
<defs>
<clipPath id="clip0_688_32076">
<rect width="20" height="20" fill="white" transform="translate(0 0.5)"/>
</clipPath>
</defs>
</svg>
