<svg width="20" height="21" viewBox="0 0 20 21" fill="none" xmlns="http://www.w3.org/2000/svg">
<path d="M9.99999 18.8334C8.84721 18.8334 7.76388 18.6147 6.74999 18.1772C5.7361 17.7397 4.85416 17.1459 4.10416 16.3959C3.35416 15.6459 2.76041 14.764 2.32291 13.7501C1.88541 12.7362 1.66666 11.6529 1.66666 10.5001C1.66666 9.3473 1.88541 8.26397 2.32291 7.25008C2.76041 6.23619 3.35416 5.35425 4.10416 4.60425C4.85416 3.85425 5.7361 3.2605 6.74999 2.823C7.76388 2.3855 8.84721 2.16675 9.99999 2.16675C11.1528 2.16675 12.2361 2.3855 13.25 2.823C14.2639 3.2605 15.1458 3.85425 15.8958 4.60425C16.6458 5.35425 17.2396 6.23619 17.6771 7.25008C18.1146 8.26397 18.3333 9.3473 18.3333 10.5001C18.3333 11.6529 18.1146 12.7362 17.6771 13.7501C17.2396 14.764 16.6458 15.6459 15.8958 16.3959C15.1458 17.1459 14.2639 17.7397 13.25 18.1772C12.2361 18.6147 11.1528 18.8334 9.99999 18.8334ZM9.99999 17.5834C11.9774 17.5834 13.6523 16.8972 15.0247 15.5248C16.3971 14.1524 17.0833 12.4775 17.0833 10.5001C17.0833 9.65755 16.9375 8.84623 16.6458 8.0661C16.3542 7.28598 15.9444 6.57647 15.4167 5.93758L5.43749 15.9167C6.06249 16.4584 6.7673 16.8716 7.55193 17.1563C8.33657 17.4411 9.15259 17.5834 9.99999 17.5834ZM4.60416 15.0626L14.5625 5.10425C13.9236 4.56258 13.2141 4.14591 12.434 3.85425C11.6538 3.56258 10.8425 3.41675 9.99999 3.41675C8.02256 3.41675 6.34764 4.10294 4.97524 5.47533C3.60285 6.84773 2.91666 8.52265 2.91666 10.5001C2.91666 11.3475 3.06943 12.1635 3.37499 12.9481C3.68055 13.7328 4.09027 14.4376 4.60416 15.0626Z" fill="#F54336"/>
</svg>
