<svg width="20" height="21" viewBox="0 0 20 21" fill="none" xmlns="http://www.w3.org/2000/svg">
<path d="M16.5 3.99992C14.75 2.24992 12.4167 1.33325 10 1.33325C7.58337 1.33325 5.25004 2.24992 3.50004 3.99992C1.75004 5.74992 0.833374 8.08325 0.833374 10.4999C0.833374 12.9166 1.75004 15.2499 3.50004 16.9999C5.25004 18.7499 7.58337 19.6666 10 19.6666C12.4167 19.6666 14.75 18.7499 16.5 16.9999C18.25 15.2499 19.1667 12.9166 19.1667 10.4999C19.1667 8.08325 18.25 5.74992 16.5 3.99992ZM15.3334 15.8333C13.9167 17.2499 12 17.9999 10 17.9999C8.00004 17.9999 6.08337 17.2499 4.66671 15.8333C3.25004 14.4166 2.50004 12.4999 2.50004 10.4999C2.50004 8.49992 3.25004 6.58325 4.66671 5.16659C6.08337 3.74992 8.00004 2.99992 10 2.99992C12 2.99992 13.9167 3.74992 15.3334 5.16659C16.75 6.58325 17.5 8.49992 17.5 10.4999C17.5 12.4999 16.75 14.4166 15.3334 15.8333ZM13.5834 7.41659L9.16671 11.8333L7.25004 9.91659C6.91671 9.58325 6.41671 9.58325 6.08337 9.91659C5.75004 10.2499 5.75004 10.7499 6.08337 11.0833L8.58337 13.5833C8.75004 13.7499 9.00004 13.8333 9.16671 13.8333C9.33337 13.8333 9.58337 13.7499 9.75004 13.5833L14.75 8.58325C15.0834 8.24992 15.0834 7.74992 14.75 7.41659C14.4167 7.08325 13.9167 7.08325 13.5834 7.41659Z" fill="#78828A"/>
</svg>
